# https://github.com/mikedh/trimesh
v -0.01012200 -0.00516500 -0.00600100
v -0.01012200 -0.00516500 -0.00598900
v -0.01008700 -0.00729700 -0.00600100
v -0.00219100 0.00239900 -0.00600100
v -0.00683100 0.00669300 -0.00144500
v -0.00751000 0.00592400 -0.00146700
v -0.00810500 0.00507900 -0.00149000
v -0.00858800 0.00421700 -0.00151400
v -0.00899700 0.00326100 -0.00154000
v -0.00926800 0.00238100 -0.00156400
v -0.00946300 0.00144300 -0.00158800
v -0.01001000 -0.00515200 -0.00381900
v -0.01002000 -0.00728800 -0.00377000
v -0.01005800 -0.00729700 -0.00449500
v -0.01008700 -0.00729700 -0.00599200
v -0.00956500 0.00039500 -0.00161500
v -0.00611700 -0.03289700 -0.00240000
v -0.00895100 -0.01390000 -0.00600100
v 0.00762600 0.00765300 -0.00600100
v 0.00284000 0.00800300 -0.00494900
v -0.00606900 0.00739200 -0.00142500
v -0.00615700 0.00715800 0.00088200
v -0.00687100 0.00648600 0.00075900
v -0.00749500 0.00576900 0.00058000
v -0.00808200 0.00493700 0.00032600
v -0.00860600 0.00399500 0.00000000
v -0.00902600 0.00298700 -0.00036300
v -0.00929500 0.00207600 -0.00067800
v -0.00947100 0.00112900 -0.00096000
v -0.00991200 -0.00513400 -0.00312500
v -0.00998500 -0.00727900 -0.00346200
v -0.01001800 -0.00728800 -0.00375100
v -0.00955600 0.00031500 -0.00138500
v -0.00954600 0.00023100 -0.00115600
v -0.00610400 -0.03238000 -0.00047400
v -0.00601900 -0.03287100 -0.00047400
v -0.00575800 -0.03358300 -0.00047400
v -0.00584800 -0.03362700 -0.00240000
v -0.00539000 -0.02714300 -0.00600100
v -0.00651200 -0.02407800 -0.00600100
v -0.00695400 -0.02253400 -0.00600100
v -0.00766000 -0.01985400 -0.00600100
v -0.00834700 -0.01690400 -0.00600100
v 0.00766800 0.00761300 -0.00600100
v 0.00762800 0.00765300 -0.00600000
v 0.00641700 0.00860400 -0.00367100
v 0.00481500 0.00841000 -0.00494900
v 0.00379200 0.00837900 -0.00494900
v -0.00318900 0.00901600 -0.00137700
v -0.00418300 0.00860000 -0.00138900
v -0.00492200 0.00819700 -0.00140200
v -0.00517500 0.00804200 -0.00140600
v -0.00606700 0.00723700 0.00089400
v -0.00523400 0.00785200 0.00098000
v -0.00470500 -0.00597000 0.00099800
v -0.00544700 -0.00617300 0.00087800
v -0.00617800 -0.00637200 0.00068600
v -0.00662900 -0.00648700 0.00052600
v -0.00689400 -0.00655400 0.00041500
v -0.00585000 -0.03235800 -0.00006300
v -0.00865600 0.00274400 -0.00010700
v -0.00880300 -0.00701400 -0.00095300
v -0.00602900 -0.03237500 -0.00023500
v -0.00911600 -0.00708400 -0.00135200
v -0.00988900 -0.00725700 -0.00301300
v -0.00927900 -0.00712000 -0.00159800
v -0.00965000 -0.00720400 -0.00231600
v -0.00594600 -0.03285300 -0.00023500
v -0.00569100 -0.03354800 -0.00023500
v -0.00538800 -0.03404700 -0.00023500
v -0.00544900 -0.03409200 -0.00047400
v -0.00512900 -0.03461300 -0.00240000
v -0.00412500 -0.03530300 -0.00240000
v 0.00763300 -0.03431700 -0.00600100
v 0.00800000 0.00726400 -0.00598900
v 0.00775000 0.00724200 -0.00219100
v 0.00753700 0.00758700 -0.00384700
v 0.00748900 0.00763100 -0.00377600
v 0.00762800 0.00765300 -0.00598900
v 0.00817800 0.00706500 -0.00600100
v 0.00712700 0.00784800 -0.00205100
v 0.00635300 0.00853800 -0.00186000
v 0.00529600 0.00942200 -0.00134700
v 0.00741300 0.00770200 -0.00374200
v -0.00003200 0.00956400 -0.00135600
v -0.00110700 0.00949800 -0.00136000
v -0.00215700 0.00931600 -0.00136700
v -0.00240800 0.00912600 0.00101200
v -0.00338100 0.00880800 0.00103900
v -0.00436700 0.00836500 0.00102900
v -0.00462800 -0.00594800 0.00100700
v -0.00326400 -0.00555400 0.00111600
v -0.00029300 -0.02462200 0.00104800
v -0.00553400 -0.03275100 -0.00000000
v -0.00560700 -0.03233100 -0.00000000
v -0.00577000 -0.03280900 -0.00006300
v -0.00552800 -0.03346800 -0.00006300
v -0.00524200 -0.03394100 -0.00006300
v -0.00488100 -0.03435700 -0.00006300
v -0.00500600 -0.03448500 -0.00023500
v -0.00506000 -0.03454300 -0.00047400
v -0.00459900 -0.03491900 -0.00047400
v -0.00408100 -0.03521100 -0.00047400
v -0.00352100 -0.03541400 -0.00047400
v -0.00294500 -0.03562200 -0.00240000
v 0.00853700 -0.03433900 -0.00600100
v 0.00821900 0.00671600 -0.00231400
v 0.00820500 0.00653400 -0.00172700
v 0.00710400 0.00768000 -0.00142400
v 0.00825300 0.00697200 -0.00600100
v 0.00617700 0.00862200 -0.00147300
v 0.00630700 0.00854700 -0.00165900
v 0.00516600 0.00933400 -0.00089500
v 0.00066000 0.00943100 0.00071300
v 0.00606600 0.00870200 -0.00139500
v 0.00593700 0.00881200 -0.00136200
v -0.00041400 0.00943600 0.00084700
v -0.00143300 0.00933000 0.00095800
v 0.00036700 -0.00436400 0.00107500
v -0.00157500 -0.00502800 0.00114000
v 0.00039700 -0.02430800 0.00112500
v 0.00023800 -0.02280800 0.00113000
v -0.00008800 -0.02704600 0.00098900
v -0.00531100 -0.03336200 -0.00000000
v -0.00471200 -0.03418400 -0.00000000
v -0.00504600 -0.03379500 -0.00000000
v -0.00445500 -0.03470600 -0.00006300
v -0.00455700 -0.03485700 -0.00023500
v -0.00405000 -0.03514400 -0.00023500
v -0.00350200 -0.03534300 -0.00023500
v -0.00293600 -0.03552000 -0.00047400
v -0.00237300 -0.03552500 -0.00047400
v -0.00172900 -0.03552500 -0.00240000
v 0.00903600 -0.03273400 -0.00599600
v 0.00901700 -0.03276500 -0.00600100
v 0.00853700 -0.03433900 -0.00598900
v 0.00868700 0.00642800 -0.00598900
v 0.00847200 0.00640200 -0.00238800
v 0.00694100 0.00733000 -0.00083700
v 0.00913400 0.00523800 -0.00211100
v 0.00897500 0.00497700 -0.00160800
v 0.00802700 0.00622500 -0.00116800
v 0.00610800 0.00856400 -0.00118900
v 0.00873700 0.00636200 -0.00600100
v 0.00492800 0.00921900 -0.00049400
v 0.00173100 0.00929900 0.00057700
v 0.00157200 -0.00393100 0.00093700
v 0.00600600 0.00875000 -0.00137300
v 0.00349600 -0.02316200 0.00103500
v 0.00198600 -0.02367100 0.00114700
v 0.00093500 -0.02759900 0.00102700
v 0.00058700 -0.02720500 0.00103700
v 0.00033600 -0.02727100 0.00101900
v -0.00431700 -0.03450700 -0.00000000
v 0.00060700 -0.02741700 0.00102700
v -0.00397400 -0.03498100 -0.00006300
v -0.00345400 -0.03516600 -0.00006300
v -0.00291100 -0.03526400 -0.00006300
v -0.00292800 -0.03544500 -0.00023500
v -0.00237900 -0.03544900 -0.00023500
v -0.00183400 -0.03537000 -0.00023500
v -0.00181700 -0.03544100 -0.00047400
v 0.00846600 -0.03426000 -0.00454200
v 0.00901100 -0.03269800 -0.00523300
v 0.00907800 -0.03256600 -0.00600000
v 0.00907800 -0.03256600 -0.00600100
v 0.00874400 0.00635300 -0.00600000
v 0.00911500 0.00547300 -0.00261800
v 0.00770200 0.00583100 -0.00074600
v 0.00663200 0.00685700 -0.00041200
v 0.00592000 0.00821500 -0.00058900
v 0.00954800 0.00469900 -0.00284100
v 0.00952900 0.00455300 -0.00238200
v 0.00941400 0.00431400 -0.00194300
v 0.00918800 0.00404800 -0.00156900
v 0.00868300 0.00466300 -0.00120300
v 0.00923900 0.00561000 -0.00600100
v 0.00482600 0.00917500 -0.00037500
v 0.00459200 0.00910000 -0.00016200
v 0.00416000 0.00900200 0.00009800
v 0.00367300 0.00896200 0.00027100
v 0.00317400 0.00898900 0.00037400
v 0.00259100 0.00910400 0.00045900
v 0.00266200 -0.00350600 0.00076900
v 0.00425800 -0.02137500 0.00087400
v 0.00436600 -0.02302100 0.00088900
v 0.00440600 -0.02366200 0.00088100
v 0.00361300 -0.02619200 0.00095500
v 0.00344600 -0.00318800 0.00064100
v 0.00213200 -0.02666500 0.00105500
v 0.00065300 -0.02744400 0.00102700
v 0.00180200 -0.02808100 0.00098900
v -0.00015100 -0.03370700 0.00030000
v -0.00387200 -0.03475900 -0.00000000
v -0.00339200 -0.03493200 -0.00000000
v -0.00239100 -0.03526800 -0.00006300
v -0.00289100 -0.03502000 -0.00000000
v -0.00090000 -0.03469300 0.00009400
v -0.00185300 -0.03529000 -0.00013800
v 0.00794000 -0.03401600 -0.00334800
v 0.00798800 -0.03421500 -0.00386500
v -0.00139500 -0.03514900 -0.00011600
v -0.00133700 -0.03524600 -0.00027500
v 0.00762600 -0.03378200 -0.00260300
v 0.00816900 -0.03422900 -0.00405200
v 0.00802900 -0.03395400 -0.00334000
v 0.00846600 -0.03425100 -0.00452500
v 0.00892100 -0.03267200 -0.00445700
v 0.00898600 -0.03252100 -0.00463900
v 0.00904900 -0.03253900 -0.00522400
v 0.00908000 -0.03255200 -0.00600100
v 0.00928200 0.00553500 -0.00598900
v 0.00966300 0.00484000 -0.00600000
v 0.00730100 0.00542800 -0.00052000
v 0.00708100 0.00564100 -0.00044700
v 0.00798600 0.00470700 -0.00078600
v 0.00612900 0.00647700 -0.00018000
v 0.00558600 0.00774600 -0.00016200
v 0.00978600 0.00458800 -0.00598900
v 0.00977300 0.00423900 -0.00304200
v 0.00971900 0.00421200 -0.00260300
v 0.00966300 0.00398700 -0.00225600
v 0.00952900 0.00374300 -0.00194400
v 0.00893600 0.00374800 -0.00133300
v 0.00979200 -0.00029900 -0.00175500
v 0.00935600 -0.00050300 -0.00134000
v 0.00889000 0.00378300 -0.00129800
v 0.00908600 -0.00062700 -0.00114200
v 0.00856600 0.00408400 -0.00108400
v 0.00831100 0.00435400 -0.00094400
v 0.00962100 0.00491500 -0.00600100
v 0.00463400 0.00772800 0.00013700
v 0.00288200 0.00903800 0.00041700
v 0.00390500 -0.00299700 0.00056100
v 0.00509300 -0.02286100 0.00068700
v 0.00530200 -0.00239600 0.00027700
v 0.00678300 -0.00171900 -0.00011800
v 0.00523700 -0.02586000 0.00060600
v 0.00454400 -0.02607300 0.00079500
v 0.00464200 -0.02806700 0.00065500
v 0.00362900 -0.02855400 0.00080200
v 0.00319100 -0.02888100 0.00082700
v -0.00027600 -0.03416200 0.00022100
v -0.00041600 -0.03404700 0.00024900
v 0.00405700 -0.02939400 0.00064700
v -0.00051800 -0.03415300 0.00022800
v -0.00187600 -0.03519300 -0.00006300
v -0.00078800 -0.03482600 -0.00000700
v -0.00097300 -0.03493600 -0.00004400
v 0.00774300 -0.03370700 -0.00258100
v 0.00719000 -0.03342800 -0.00191600
v 0.00729600 -0.03335700 -0.00188100
v 0.00812100 -0.03385700 -0.00334300
v 0.00783700 -0.03360900 -0.00257800
v 0.00846600 -0.03422000 -0.00448400
v 0.00883300 -0.03261400 -0.00398900
v 0.00887900 -0.03246400 -0.00401900
v 0.00895700 -0.03251700 -0.00445300
v 0.00911500 -0.03087600 -0.00463400
v 0.00919700 -0.03084500 -0.00539000
v 0.00934500 -0.02920900 -0.00600100
v 0.00934500 -0.02920900 -0.00598400
v 0.00967500 0.00481400 -0.00600100
v 0.00812800 -0.00108700 -0.00061800
v 0.00791700 -0.00118800 -0.00052700
v 0.00875000 -0.00078600 -0.00093400
v 0.00609400 -0.00191800 0.00006300
v 0.01010100 0.00383600 -0.00600100
v 0.00987600 0.00390700 -0.00287700
v 0.01013900 0.00374300 -0.00600000
v 0.01009300 0.00348700 -0.00350700
v 0.00986300 0.00369500 -0.00262200
v 0.00979800 0.00347300 -0.00238500
v 0.00970200 0.00360600 -0.00221300
v 0.01030400 -0.00004300 -0.00250000
v 0.01016800 -0.00011400 -0.00227200
v 0.00992600 -0.00527100 -0.00229100
v 0.00950000 -0.00549200 -0.00172800
v 0.00773300 -0.02788200 -0.00104100
v 0.00764100 -0.02775800 -0.00093700
v 0.00741100 -0.02737300 -0.00069000
v 0.00723400 -0.02689500 -0.00051200
v 0.00716500 -0.02662500 -0.00044400
v 0.00675300 -0.02540000 -0.00011000
v 0.00672800 -0.02487800 -0.00008400
v 0.00589700 -0.02269300 0.00037500
v 0.00600400 -0.02563000 0.00030500
v 0.00606600 -0.02801900 0.00017500
v 0.00532700 -0.02824400 0.00045200
v 0.00493700 -0.02993400 0.00038900
v 0.00477200 -0.02983200 0.00044100
v 0.00471300 -0.02979700 0.00045900
v 0.00438700 -0.02959300 0.00055700
v 0.00474900 -0.02997400 0.00041100
v 0.00486100 -0.03004000 0.00037600
v 0.00500300 -0.03165400 -0.00013000
v 0.00548000 -0.03191500 -0.00033100
v 0.00631300 -0.03248200 -0.00083800
v 0.00677600 -0.03296400 -0.00131900
v 0.00738800 -0.03326900 -0.00186900
v 0.00686200 -0.03288400 -0.00129800
v 0.00790200 -0.03349900 -0.00259400
v 0.00860400 -0.03242000 -0.00311700
v 0.00745700 -0.03317200 -0.00187800
v 0.00797500 -0.03199500 -0.00182000
v 0.00865200 -0.03226500 -0.00313900
v 0.00880200 -0.03099100 -0.00329900
v 0.00909000 -0.02904000 -0.00378600
v 0.00923200 -0.02913800 -0.00451400
v 0.01094300 -0.00471400 -0.00528800
v 0.01097600 -0.00469600 -0.00600100
v 0.01097600 -0.00469600 -0.00600000
v 0.00623800 -0.02313600 0.00021300
v 0.01014500 0.00372600 -0.00600100
v 0.01011200 0.00332300 -0.00326000
v 0.00998000 0.00342000 -0.00282500
v 0.01019500 0.00358400 -0.00598900
v 0.01024500 0.00344200 -0.00600000
v 0.01014100 0.00335400 -0.00358200
v 0.01083600 0.00042600 -0.00375400
v 0.01070300 0.00019200 -0.00333000
v 0.01046400 -0.00497900 -0.00333200
v 0.01003200 -0.00521300 -0.00246200
v 0.00826100 -0.02842600 -0.00175700
v 0.00799800 -0.02817800 -0.00137300
v 0.00793100 -0.02811200 -0.00128700
v 0.00796100 -0.02946100 -0.00145900
v 0.00748600 -0.02952300 -0.00094400
v 0.00742400 -0.02760300 -0.00071700
v 0.00678500 -0.02780200 -0.00022300
v 0.00625900 -0.02970800 -0.00007500
v 0.00556500 -0.02982300 0.00021400
v 0.00608100 -0.03061900 -0.00009500
v 0.00600200 -0.03073400 -0.00009300
v 0.00472600 -0.02980600 0.00045500
v 0.00603100 -0.03203500 -0.00056700
v 0.00654700 -0.03107500 -0.00042200
v 0.00706500 -0.03140200 -0.00081900
v 0.00754300 -0.03171200 -0.00128300
v 0.00833600 -0.03223400 -0.00243800
v 0.00839300 -0.03208800 -0.00246500
v 0.00761400 -0.03157500 -0.00130700
v 0.00804000 -0.03185400 -0.00184800
v 0.00875400 -0.03090700 -0.00313000
v 0.00886700 -0.02932800 -0.00311400
v 0.00888100 -0.02912000 -0.00311200
v 0.00889600 -0.02890800 -0.00310900
v 0.01063800 -0.00488200 -0.00381200
v 0.01075500 -0.00482000 -0.00421500
v 0.01091600 -0.00473100 -0.00505400
v 0.01115200 0.00040800 -0.00506800
v 0.01121200 0.00043900 -0.00600100
v 0.01023900 0.00346000 -0.00600100
v 0.01111600 0.00057600 -0.00506000
v 0.01108500 0.00037700 -0.00464400
v 0.01096400 0.00049700 -0.00422300
v 0.01117700 0.00060700 -0.00600100
v 0.01099300 0.00034600 -0.00422600
v 0.01086300 0.00029300 -0.00377000
v 0.00863300 -0.02936300 -0.00254000
v 0.00858900 -0.02868700 -0.00234900
v 0.00850400 -0.02862500 -0.00218000
v 0.00833900 -0.02940800 -0.00199200
v 0.00691200 -0.02960700 -0.00047100
v 0.00714000 -0.03127400 -0.00083700
v 0.00662400 -0.03095100 -0.00043200
f 1 15 2
f 210 211 260
f 211 262 260
f 211 261 262
f 213 263 231
f 213 219 263
f 214 264 216
f 214 265 264
f 214 215 265
f 210 260 259
f 215 237 265
f 216 266 230
f 216 264 266
f 217 218 232
f 217 267 237
f 217 236 267
f 217 232 236
f 219 268 263
f 219 220 268
f 215 217 237
f 209 210 259
f 209 259 258
f 208 256 255
f 199 202 247
f 200 205 206
f 200 201 205
f 200 250 204
f 200 206 250
f 202 249 247
f 202 251 249
f 202 204 251
f 202 203 204
f 204 252 251
f 204 250 252
f 206 207 253
f 206 254 250
f 206 253 254
f 207 255 253
f 207 208 255
f 208 257 256
f 208 258 257
f 208 209 258
f 220 221 269
f 220 270 268
f 220 271 270
f 220 269 271
f 232 234 236
f 235 238 286
f 235 265 237
f 235 286 265
f 236 237 267
f 238 287 286
f 238 288 287
f 238 289 288
f 238 239 289
f 239 240 289
f 240 290 289
f 240 291 290
f 240 292 291
f 240 293 292
f 240 245 293
f 240 241 245
f 241 242 245
f 243 295 294
f 243 296 295
f 228 266 285
f 198 248 243
f 228 285 284
f 228 229 230
f 221 272 269
f 221 222 272
f 222 273 272
f 222 274 273
f 222 223 274
f 223 275 274
f 223 276 275
f 223 225 276
f 224 227 226
f 225 277 276
f 225 278 277
f 225 279 278
f 225 280 279
f 225 281 280
f 225 226 281
f 226 282 281
f 226 283 282
f 226 228 283
f 228 230 266
f 228 284 283
f 243 297 296
f 198 243 246
f 198 249 248
f 169 215 214
f 169 170 215
f 169 216 176
f 169 214 216
f 170 218 217
f 170 171 218
f 170 217 215
f 171 179 218
f 168 172 213
f 171 178 179
f 172 220 219
f 172 221 220
f 172 173 221
f 173 222 221
f 173 174 222
f 174 223 222
f 174 175 223
f 175 176 224
f 172 219 213
f 168 213 212
f 168 212 177
f 167 168 177
f 160 199 196
f 160 161 199
f 161 201 200
f 161 162 201
f 161 202 199
f 161 203 202
f 161 204 203
f 161 200 204
f 162 205 201
f 162 163 205
f 163 206 205
f 163 207 206
f 163 208 207
f 163 164 208
f 164 209 208
f 164 210 209
f 164 165 210
f 165 211 210
f 165 166 211
f 175 225 223
f 175 226 225
f 175 224 226
f 176 227 224
f 187 238 235
f 187 239 238
f 187 188 239
f 188 240 239
f 188 241 240
f 188 242 241
f 188 190 242
f 190 192 242
f 192 193 242
f 193 244 243
f 193 194 244
f 193 245 242
f 193 243 245
f 194 195 244
f 195 246 244
f 195 197 246
f 196 199 247
f 196 247 198
f 197 198 246
f 186 235 237
f 198 247 249
f 186 237 236
f 186 187 235
f 176 226 227
f 176 228 226
f 176 229 228
f 176 230 229
f 176 216 230
f 177 213 231
f 177 212 213
f 179 180 218
f 180 181 218
f 181 232 218
f 181 182 232
f 182 183 233
f 182 234 232
f 182 189 234
f 182 233 189
f 183 184 233
f 184 189 233
f 185 234 189
f 185 186 234
f 186 236 234
f 243 298 297
f 243 248 298
f 243 244 246
f 309 310 350
f 310 351 350
f 310 352 351
f 310 312 352
f 311 352 312
f 315 354 319
f 315 355 354
f 315 356 355
f 309 350 349
f 315 316 356
f 318 357 353
f 318 319 357
f 319 354 357
f 320 358 356
f 320 359 358
f 320 321 359
f 321 322 359
f 322 348 359
f 316 320 356
f 308 309 349
f 308 349 348
f 308 348 347
f 298 301 338
f 298 299 301
f 300 339 301
f 300 304 339
f 301 339 338
f 302 340 305
f 302 303 340
f 303 341 340
f 303 306 341
f 304 305 339
f 305 342 339
f 305 343 342
f 305 340 343
f 306 344 341
f 306 307 344
f 307 345 344
f 307 346 345
f 307 347 346
f 307 308 347
f 322 347 348
f 322 360 347
f 322 361 360
f 322 323 361
f 339 342 365
f 340 341 343
f 341 363 343
f 341 362 363
f 341 361 362
f 341 360 361
f 341 344 360
f 344 345 360
f 345 346 360
f 346 347 360
f 348 349 359
f 349 358 359
f 349 355 358
f 349 350 355
f 350 351 355
f 351 352 354
f 352 357 354
f 355 356 358
f 364 366 365
f 338 339 365
f 298 338 337
f 338 365 366
f 334 336 337
f 323 362 361
f 323 324 362
f 324 363 362
f 324 343 363
f 324 327 343
f 324 325 327
f 325 326 327
f 327 342 343
f 327 328 342
f 328 329 364
f 328 365 342
f 328 364 365
f 329 330 364
f 330 331 364
f 331 366 364
f 331 333 366
f 331 332 333
f 333 337 366
f 333 334 337
f 337 338 366
f 298 337 336
f 297 298 336
f 297 336 334
f 257 258 309
f 258 259 309
f 259 260 309
f 260 310 309
f 260 262 310
f 261 312 262
f 261 311 312
f 262 312 310
f 264 313 266
f 264 286 313
f 264 265 286
f 266 313 285
f 268 270 314
f 269 315 271
f 269 316 315
f 269 272 316
f 270 353 314
f 270 318 353
f 270 317 318
f 257 309 308
f 270 271 317
f 257 308 307
f 256 257 306
f 243 293 245
f 243 292 293
f 243 294 292
f 248 249 252
f 248 299 298
f 248 252 299
f 249 251 252
f 250 300 252
f 250 254 300
f 252 301 299
f 252 300 301
f 253 302 254
f 253 303 302
f 253 255 303
f 254 304 300
f 254 305 304
f 254 302 305
f 255 256 303
f 256 306 303
f 257 307 306
f 159 160 196
f 271 318 317
f 271 315 319
f 284 285 287
f 284 288 330
f 284 287 288
f 285 313 287
f 286 287 313
f 288 331 330
f 288 332 331
f 288 289 332
f 289 290 332
f 290 333 332
f 290 334 333
f 290 295 334
f 290 291 295
f 291 294 295
f 291 335 294
f 291 292 335
f 292 294 335
f 295 296 334
f 296 297 334
f 283 284 330
f 271 319 318
f 282 283 330
f 281 282 329
f 272 320 316
f 272 321 320
f 272 273 321
f 273 274 321
f 274 275 321
f 275 322 321
f 275 323 322
f 275 276 323
f 276 277 323
f 277 324 323
f 277 325 324
f 277 278 325
f 278 326 325
f 278 279 326
f 279 327 326
f 279 328 327
f 279 280 328
f 280 329 328
f 280 281 329
f 282 330 329
f 158 196 198
f 351 354 355
f 158 197 195
f 30 31 34
f 31 65 34
f 31 35 65
f 31 32 35
f 34 66 64
f 34 67 66
f 34 65 67
f 35 36 63
f 29 34 64
f 35 63 65
f 36 37 68
f 37 69 68
f 37 70 69
f 37 71 70
f 37 38 71
f 38 72 71
f 38 39 72
f 39 73 72
f 36 68 63
f 29 64 62
f 29 33 34
f 28 62 63
f 21 22 53
f 21 54 52
f 21 53 54
f 22 55 53
f 22 56 55
f 22 23 56
f 23 57 56
f 23 24 57
f 24 58 57
f 24 25 58
f 25 59 58
f 25 60 59
f 25 26 60
f 26 27 61
f 26 61 60
f 27 60 61
f 27 28 60
f 28 29 62
f 28 63 60
f 39 74 73
f 44 76 75
f 44 77 76
f 44 78 77
f 54 92 90
f 54 91 92
f 55 93 91
f 55 94 93
f 55 56 94
f 56 95 94
f 56 57 95
f 57 60 95
f 57 58 60
f 58 59 60
f 60 94 95
f 60 96 94
f 60 68 96
f 60 63 68
f 62 64 63
f 63 67 65
f 63 66 67
f 63 64 66
f 68 69 96
f 53 55 91
f 20 21 52
f 53 91 54
f 51 54 90
f 44 79 78
f 44 45 79
f 44 75 80
f 45 46 79
f 46 82 81
f 46 83 82
f 46 47 83
f 46 84 79
f 46 81 84
f 47 85 83
f 47 48 85
f 48 86 85
f 48 87 86
f 48 49 87
f 49 88 87
f 49 89 88
f 49 50 89
f 50 90 89
f 50 51 90
f 51 52 54
f 69 98 97
f 20 52 51
f 20 50 49
f 1 110 144
f 1 80 110
f 1 44 80
f 1 19 44
f 1 4 19
f 1 5 4
f 1 6 5
f 1 7 6
f 1 144 177
f 1 8 7
f 1 10 9
f 1 11 10
f 1 2 11
f 2 13 12
f 2 14 13
f 2 15 14
f 2 16 11
f 2 12 16
f 1 9 8
f 1 177 231
f 1 231 263
f 1 263 268
f 158 198 197
f 1 3 15
f 1 18 3
f 1 42 43
f 1 41 42
f 1 40 41
f 1 39 40
f 1 74 39
f 1 106 74
f 1 135 106
f 1 166 135
f 1 211 166
f 1 261 211
f 1 311 261
f 1 352 311
f 1 357 352
f 1 353 357
f 1 314 353
f 1 268 314
f 3 17 15
f 3 18 17
f 4 20 19
f 4 21 20
f 13 14 35
f 14 17 35
f 14 15 17
f 16 33 29
f 17 36 35
f 17 37 36
f 17 38 37
f 17 39 38
f 17 40 39
f 17 41 40
f 17 42 41
f 17 43 42
f 17 18 43
f 19 45 44
f 19 46 45
f 19 47 46
f 19 48 47
f 19 20 48
f 20 49 48
f 13 35 32
f 20 51 50
f 12 30 34
f 12 33 16
f 4 5 21
f 5 22 21
f 5 23 22
f 5 6 23
f 6 24 23
f 6 7 24
f 7 25 24
f 7 8 25
f 8 26 25
f 8 9 26
f 9 27 26
f 9 10 27
f 10 28 27
f 10 11 28
f 11 29 28
f 11 16 29
f 12 31 30
f 12 32 31
f 12 13 32
f 12 34 33
f 69 70 98
f 1 43 18
f 70 99 98
f 130 157 156
f 130 158 157
f 130 159 158
f 130 131 159
f 131 132 160
f 131 160 159
f 132 161 160
f 132 162 161
f 129 130 156
f 132 163 162
f 132 133 136
f 134 165 164
f 134 166 165
f 134 135 166
f 134 164 136
f 136 164 163
f 137 138 144
f 138 167 144
f 132 136 163
f 128 129 156
f 127 128 156
f 127 156 154
f 115 148 143
f 116 143 148
f 117 118 147
f 118 119 147
f 119 149 147
f 119 150 149
f 119 120 150
f 120 122 150
f 121 150 122
f 121 151 150
f 121 152 151
f 121 153 152
f 121 123 153
f 123 126 153
f 123 124 126
f 125 127 154
f 125 153 126
f 125 155 153
f 125 154 155
f 138 168 167
f 138 140 168
f 139 169 142
f 139 170 169
f 149 188 187
f 149 150 188
f 149 189 184
f 149 185 189
f 150 190 188
f 150 151 190
f 151 152 191
f 151 192 190
f 151 193 192
f 151 194 193
f 151 191 194
f 152 155 191
f 152 153 155
f 154 156 194
f 154 191 155
f 154 194 191
f 156 195 194
f 157 158 195
f 69 97 96
f 149 187 186
f 115 116 148
f 149 186 185
f 147 184 183
f 139 171 170
f 139 145 171
f 140 172 168
f 140 173 172
f 140 174 173
f 140 141 174
f 141 175 174
f 141 176 175
f 141 142 176
f 142 169 176
f 144 167 177
f 145 146 178
f 145 178 171
f 146 179 178
f 146 180 179
f 146 181 180
f 146 182 181
f 146 183 182
f 146 147 183
f 147 149 184
f 114 117 147
f 156 157 195
f 114 146 145
f 81 82 112
f 81 111 109
f 82 83 112
f 83 114 113
f 83 85 114
f 83 111 112
f 83 115 111
f 83 116 115
f 83 113 116
f 85 117 114
f 85 86 117
f 86 118 117
f 86 87 118
f 87 88 118
f 88 119 118
f 88 120 119
f 88 89 120
f 89 90 120
f 90 92 120
f 81 112 111
f 91 121 92
f 80 107 110
f 78 79 84
f 70 100 99
f 114 147 146
f 70 101 100
f 70 71 101
f 71 72 101
f 72 102 101
f 72 73 102
f 73 103 102
f 73 104 103
f 73 105 104
f 73 74 105
f 74 106 105
f 75 76 80
f 76 77 78
f 76 107 80
f 76 108 107
f 76 109 108
f 76 81 109
f 76 78 81
f 78 84 81
f 91 93 121
f 158 159 196
f 92 121 122
f 106 135 134
f 106 136 133
f 106 134 136
f 107 137 110
f 107 138 137
f 107 108 138
f 108 109 139
f 108 140 138
f 108 141 140
f 108 142 141
f 108 139 142
f 109 143 139
f 109 115 143
f 109 111 115
f 110 137 144
f 113 114 145
f 113 143 116
f 113 139 143
f 92 122 120
f 105 106 133
f 105 133 132
f 113 145 139
f 104 131 130
f 105 132 131
f 94 96 124
f 93 123 121
f 94 124 123
f 96 97 124
f 97 98 124
f 93 94 123
f 98 126 124
f 98 125 126
f 98 99 125
f 99 100 128
f 99 127 125
f 100 101 128
f 101 102 128
f 102 129 128
f 102 103 129
f 103 104 130
f 99 128 127
f 103 130 129
f 104 105 131
