# https://github.com/mikedh/trimesh
v 0.00398500 0.00666200 -0.00905000
v 0.00398500 0.00666200 -0.00295100
v 0.00398500 0.00655900 -0.00913100
v 0.00400500 0.00434600 -0.01252100
v 0.00403000 0.00478800 -0.01240900
v 0.00406000 0.00508100 -0.01232700
v 0.00416200 0.00576400 -0.01210200
v 0.00418200 0.00586700 -0.01206300
v 0.00427700 0.00631300 -0.01187800
v 0.00435000 0.00660200 -0.01174100
v 0.00453500 0.00723700 -0.01137800
v 0.00469400 0.00770500 -0.01102600
v 0.00477800 0.00793000 -0.01081800
v 0.00435800 0.00663300 -0.00027400
v 0.00427700 0.00631100 -0.00012100
v 0.00420500 0.00598400 0.00001600
v 0.00407800 0.00523200 0.00028100
v 0.00403000 0.00479000 0.00040900
v 0.00400900 0.00446100 0.00049300
v 0.00398500 0.00657800 -0.00288300
v 0.00477800 0.00793000 -0.00118100
v 0.00467400 0.00765300 -0.00092900
v 0.00452400 0.00720100 -0.00060000
v 0.00398500 0.00602400 -0.00954900
v 0.00401400 0.00361300 -0.01267800
v 0.00596100 0.00230300 -0.01254400
v 0.00398500 -0.00147900 -0.01332000
v 0.00659700 0.00336000 -0.01208600
v 0.00690500 0.00384200 -0.01181700
v 0.00719500 0.00427900 -0.01152300
v 0.00746100 0.00466400 -0.01120400
v 0.00769900 0.00499100 -0.01086200
v 0.00491400 0.00810200 -0.01057900
v 0.00717900 0.00429600 -0.00047600
v 0.00688900 0.00385700 -0.00018200
v 0.00658300 0.00337400 0.00008700
v 0.00594900 0.00231500 0.00054400
v 0.00400500 0.00382100 0.00063700
v 0.00398500 0.00602400 -0.00245100
v 0.00534700 0.00864800 -0.00289600
v 0.00500600 0.00821600 -0.00161100
v 0.00788700 0.00527000 -0.00149900
v 0.00768300 0.00500700 -0.00113700
v 0.00744500 0.00468000 -0.00079700
v 0.00402300 0.00349100 -0.01270100
v 0.00407800 0.00305700 -0.01277500
v 0.00533300 0.00119000 -0.01288900
v 0.00750400 0.00003200 -0.01260900
v 0.00785300 0.00038800 -0.01245100
v 0.00862100 0.00114700 -0.01203700
v 0.00398500 -0.00198800 -0.01333400
v 0.00433600 -0.00221200 -0.01331700
v 0.00408400 -0.00124000 -0.01330500
v 0.00867700 0.00120200 -0.01200300
v 0.00906700 0.00157900 -0.01174300
v 0.00840300 0.00302100 -0.01149800
v 0.00870400 0.00336700 -0.01118800
v 0.00896900 0.00366100 -0.01085600
v 0.00790400 0.00525100 -0.01050200
v 0.00919400 0.00390000 -0.01050500
v 0.00511100 0.00834700 -0.01013500
v 0.00524700 0.00851900 -0.00968700
v 0.00533800 0.00863600 -0.00917700
v 0.00868200 0.00338900 -0.00081100
v 0.00838100 0.00304300 -0.00050100
v 0.00926600 0.00176800 -0.00040700
v 0.00867700 0.00120200 0.00000200
v 0.00834900 0.00088200 0.00019500
v 0.00406600 0.00314800 0.00076000
v 0.00402500 0.00349100 0.00070000
v 0.00785300 0.00038800 0.00045000
v 0.00727300 -0.00020700 0.00070400
v 0.00532200 0.00120200 0.00089000
v 0.00398500 -0.00149600 0.00132200
v 0.00527200 0.00855300 -0.00242700
v 0.00545500 0.00878200 -0.00545200
v 0.00538900 0.00869800 -0.00342100
v 0.00711400 0.00700100 -0.00342100
v 0.00826900 0.00567400 -0.00265500
v 0.00516500 0.00841700 -0.00202200
v 0.00805400 0.00546600 -0.00187700
v 0.00935300 0.00410300 -0.00186400
v 0.00917300 0.00392400 -0.00149500
v 0.00894700 0.00368500 -0.00114300
v 0.00420200 0.00251500 -0.01285300
v 0.00416800 -0.00097800 -0.01328500
v 0.00427500 -0.00056900 -0.01324800
v 0.00438600 0.00006100 -0.01317800
v 0.00435200 0.00182000 -0.01294500
v 0.00441500 0.00128300 -0.01301800
v 0.00442600 0.00110900 -0.01304200
v 0.00540300 -0.00054100 -0.01310900
v 0.00701700 -0.00047400 -0.01280100
v 0.00894700 -0.00075300 -0.01237600
v 0.01063700 -0.00242200 -0.01224100
v 0.01154400 -0.00224500 -0.01194100
v 0.01129000 -0.00155800 -0.01186000
v 0.00398500 -0.00210700 -0.01333500
v 0.00398500 -0.00245300 -0.01333800
v 0.00410500 -0.00266300 -0.01333300
v 0.00489600 -0.00365900 -0.01327900
v 0.00513600 -0.00294700 -0.01326200
v 0.00524400 -0.00270600 -0.01324800
v 0.00560900 -0.00208500 -0.01318500
v 0.01159400 -0.00116200 -0.01162900
v 0.00942700 0.00192100 -0.01146100
v 0.01004600 0.00249400 -0.01082900
v 0.01151000 0.00023500 -0.01110200
v 0.01028200 0.00270600 -0.01049400
v 0.00807000 0.00544900 -0.01012400
v 0.00937500 0.00407900 -0.01013500
v 0.01046000 0.00285400 -0.01017600
v 0.00819700 0.00558000 -0.00973600
v 0.00828700 0.00565700 -0.00934400
v 0.00538900 0.00869800 -0.00857800
v 0.00841900 0.00567100 -0.00857800
v 0.00975600 0.00222900 -0.00084200
v 0.00948000 0.00197100 -0.00058500
v 0.01187500 -0.00079600 -0.00062800
v 0.01159400 -0.00116200 -0.00037000
v 0.01129000 -0.00155800 -0.00014000
v 0.00419500 0.00254100 0.00084900
v 0.00424100 -0.00071300 0.00126200
v 0.00416800 -0.00097800 0.00128500
v 0.01063700 -0.00242200 0.00024000
v 0.00894700 -0.00075300 0.00037600
v 0.00817200 -0.00163700 0.00070400
v 0.00621000 -0.00134800 0.00105200
v 0.00540300 -0.00054100 0.00110900
v 0.01090900 -0.00315500 0.00028600
v 0.00442700 0.00109900 0.00104300
v 0.00441500 0.00128300 0.00101900
v 0.00435400 0.00180800 0.00094700
v 0.00398500 -0.00157000 0.00132500
v 0.00818100 0.00559700 -0.00226400
v 0.00544800 0.00877000 -0.00701400
v 0.00717100 0.00710400 -0.00600000
v 0.00715700 0.00707700 -0.00471000
v 0.00541200 0.00872700 -0.00388900
v 0.00864500 0.00543700 -0.00342100
v 0.00957700 0.00428900 -0.00263800
v 0.00948800 0.00422200 -0.00224700
v 0.01060800 0.00297100 -0.00224000
v 0.01046300 0.00285900 -0.00185500
v 0.01028100 0.00270400 -0.00150900
v 0.01006000 0.00250800 -0.00119000
v 0.00442200 0.00043600 -0.01313200
v 0.00581300 -0.00181100 -0.01314400
v 0.00621000 -0.00134800 -0.01305300
v 0.00817200 -0.00163700 -0.01270500
v 0.01064000 -0.00354400 -0.01240200
v 0.01111300 -0.00286100 -0.01218800
v 0.01582800 -0.00861500 -0.01182200
v 0.01684600 -0.00923100 -0.01161500
v 0.01635200 -0.00779600 -0.01147700
v 0.01172500 -0.00199200 -0.01181900
v 0.00398500 -0.00262300 -0.01333700
v 0.00398500 -0.00290400 -0.01333100
v 0.00398500 -0.00317600 -0.01332500
v 0.00483900 -0.00388800 -0.01327700
v 0.00713400 -0.00580000 -0.01307800
v 0.00732400 -0.00535600 -0.01306800
v 0.00642100 -0.00401700 -0.01315300
v 0.00664300 -0.00358900 -0.01311400
v 0.00689400 -0.00319600 -0.01306400
v 0.01215300 -0.00139300 -0.01146100
v 0.01187500 -0.00079600 -0.01137200
v 0.01212800 -0.00047200 -0.01108600
v 0.01175000 0.00051200 -0.01078700
v 0.01234600 -0.00019200 -0.01077600
v 0.01194700 0.00074100 -0.01045300
v 0.01063000 0.00299000 -0.00976100
v 0.00950900 0.00419800 -0.00975300
v 0.01975800 -0.00729700 -0.00910800
v 0.01072300 0.00305700 -0.00942900
v 0.01073500 0.00306400 -0.00937600
v 0.00715700 0.00707700 -0.00728900
v 0.00968600 0.00432500 -0.00857800
v 0.00868900 0.00551100 -0.00728900
v 0.01212800 -0.00047200 -0.00091300
v 0.01227300 -0.00122800 -0.00066000
v 0.01201000 -0.00159400 -0.00040600
v 0.01168200 -0.00205200 -0.00015000
v 0.00442200 0.00043600 0.00113100
v 0.00440200 0.00019700 0.00116100
v 0.00434700 -0.00020900 0.00120900
v 0.00560900 -0.00208500 0.00118600
v 0.00550300 -0.00224500 0.00120600
v 0.01111300 -0.00286100 0.00018900
v 0.00917400 -0.00259600 0.00060800
v 0.00742700 -0.00252200 0.00094000
v 0.00689400 -0.00319600 0.00106400
v 0.00997500 -0.00332200 0.00052300
v 0.01581500 -0.00860800 -0.00017700
v 0.01460900 -0.00838800 0.00009100
v 0.00398500 -0.00219300 0.00133400
v 0.00513600 -0.00294700 0.00126300
v 0.00505900 -0.00314300 0.00127200
v 0.00870500 0.00553500 -0.00600000
v 0.00868900 0.00551100 -0.00471000
v 0.01002100 0.00408600 -0.00471000
v 0.00997300 0.00401200 -0.00342100
v 0.02082500 -0.00798000 -0.00378400
v 0.01069900 0.00303800 -0.00262500
v 0.01068000 0.00302400 -0.00252400
v 0.02081600 -0.00798000 -0.00374100
v 0.01991100 -0.00716300 -0.00329700
v 0.02069500 -0.00805900 -0.00332600
v 0.01194700 0.00074100 -0.00154800
v 0.01977300 -0.00730400 -0.00290200
v 0.01175000 0.00051200 -0.00121200
v 0.00742700 -0.00252200 -0.01293900
v 0.00917400 -0.00259600 -0.01260700
v 0.00997500 -0.00332200 -0.01252400
v 0.01453700 -0.00850300 -0.01211500
v 0.01483400 -0.00801600 -0.01198400
v 0.01553600 -0.00906900 -0.01195100
v 0.01657600 -0.00962700 -0.01173500
v 0.01756600 -0.01019500 -0.01147700
v 0.01783100 -0.00983200 -0.01136100
v 0.01736300 -0.00846900 -0.01126700
v 0.00398500 -0.00331000 -0.01331700
v 0.00466700 -0.00483600 -0.01321200
v 0.00638700 -0.00628500 -0.01307600
v 0.00831000 -0.00730900 -0.01291900
v 0.00797900 -0.00648100 -0.01298500
v 0.00853500 -0.00691000 -0.01291900
v 0.00905800 -0.00602700 -0.01285900
v 0.00844400 -0.00560000 -0.01293300
v 0.00753800 -0.00491400 -0.01303800
v 0.00802200 -0.00410300 -0.01294100
v 0.01227300 -0.00122800 -0.01134000
v 0.01785400 -0.00775300 -0.01082500
v 0.01826600 -0.00716100 -0.01032600
v 0.01922700 -0.00795400 -0.01008100
v 0.01264300 -0.00071700 -0.01086200
v 0.01252500 0.00003700 -0.01044300
v 0.01953800 -0.00756000 -0.00957800
v 0.02061600 -0.00813500 -0.00888300
v 0.01989800 -0.00715400 -0.00870900
v 0.02075200 -0.00801300 -0.00850200
v 0.02051000 -0.00824500 -0.00912000
v 0.02081600 -0.00798000 -0.00826000
v 0.01080300 0.00312600 -0.00857800
v 0.02085200 -0.00798900 -0.00811300
v 0.01002100 0.00408600 -0.00728900
v 0.01234600 -0.00019200 -0.00122500
v 0.01250900 -0.00090400 -0.00094000
v 0.01885300 -0.00846900 -0.00144700
v 0.01787000 -0.00773200 -0.00119300
v 0.01738700 -0.00843600 -0.00074900
v 0.01636300 -0.00775300 -0.00053800
v 0.01684600 -0.00923100 -0.00038600
v 0.00664300 -0.00358900 0.00111400
v 0.00642100 -0.00401700 0.00115300
v 0.00849600 -0.00348000 0.00082500
v 0.00802200 -0.00410300 0.00094000
v 0.01658500 -0.00961500 -0.00026800
v 0.01553200 -0.00904900 -0.00005000
v 0.01373000 -0.00803200 0.00022200
v 0.01408800 -0.00924500 0.00020300
v 0.00398500 -0.00237200 0.00133500
v 0.00732400 -0.00535600 0.00106800
v 0.00713400 -0.00580000 0.00107900
v 0.00483900 -0.00388800 0.00127600
v 0.01003700 0.00411000 -0.00600000
v 0.02124400 -0.00832400 -0.00537300
v 0.02117300 -0.00830000 -0.00437100
v 0.02101900 -0.00814900 -0.00413200
v 0.02096800 -0.00811400 -0.00392000
v 0.02085200 -0.00798900 -0.00388700
v 0.02109000 -0.00827600 -0.00381700
v 0.02118100 -0.00847400 -0.00363600
v 0.02093100 -0.00844100 -0.00323700
v 0.02061800 -0.00813300 -0.00312500
v 0.01252500 0.00003700 -0.00155800
v 0.01955600 -0.00756200 -0.00243700
v 0.02041200 -0.00835000 -0.00268800
v 0.00849600 -0.00348000 -0.01282600
v 0.01370800 -0.00801800 -0.01222500
v 0.01179300 -0.00792500 -0.01251200
v 0.01324100 -0.00878700 -0.01231900
v 0.01408100 -0.00925700 -0.01220500
v 0.01507100 -0.00979000 -0.01204400
v 0.01611100 -0.01030500 -0.01183600
v 0.01709900 -0.01084000 -0.01158800
v 0.01845500 -0.01078500 -0.01118400
v 0.01834400 -0.00912800 -0.01101600
v 0.01875200 -0.01040100 -0.01105500
v 0.01884900 -0.01027700 -0.01100100
v 0.00398500 -0.00428400 -0.01324600
v 0.00455300 -0.00549200 -0.01311100
v 0.00620800 -0.00682400 -0.01299400
v 0.00758800 -0.00731900 -0.01294800
v 0.00807500 -0.00773600 -0.01288900
v 0.00878200 -0.00833600 -0.01279700
v 0.00928400 -0.00873200 -0.01273100
v 0.00977400 -0.00787500 -0.01276200
v 0.01032200 -0.00695600 -0.01270400
v 0.01081900 -0.00614400 -0.01259900
v 0.00893800 -0.00479000 -0.01283000
v 0.00955900 -0.00521100 -0.01275200
v 0.01882600 -0.00848100 -0.01057300
v 0.01972400 -0.00916600 -0.01028500
v 0.02005400 -0.00876500 -0.00988400
v 0.02040600 -0.00835700 -0.00932400
v 0.02092900 -0.00844500 -0.00876900
v 0.02097000 -0.00825400 -0.00845600
v 0.02081600 -0.00872700 -0.00915400
v 0.02109000 -0.00827600 -0.00818300
v 0.02096800 -0.00811400 -0.00807900
v 0.02101900 -0.00814900 -0.00786700
v 0.02115300 -0.00829300 -0.00780400
v 0.02116900 -0.00830200 -0.00770700
v 0.02122400 -0.00835200 -0.00757000
v 0.02124800 -0.00831900 -0.00637400
v 0.01270800 -0.00063200 -0.00124000
v 0.01924800 -0.00794900 -0.00193800
v 0.01827800 -0.00714700 -0.00169000
v 0.01973900 -0.00914700 -0.00173200
v 0.01944900 -0.00950800 -0.00144300
v 0.01837800 -0.00910700 -0.00100500
v 0.01784100 -0.00984000 -0.00064300
v 0.01758500 -0.01019100 -0.00052900
v 0.00753800 -0.00491400 0.00103800
v 0.01082800 -0.00615100 0.00059800
v 0.00893800 -0.00479000 0.00083100
v 0.00844400 -0.00560000 0.00093400
v 0.01712200 -0.01082800 -0.00041700
v 0.01612300 -0.01028400 -0.00016600
v 0.01507100 -0.00976300 0.00004500
v 0.01326300 -0.00879900 0.00031700
v 0.01181300 -0.00793700 0.00051100
v 0.01229800 -0.00714400 0.00041000
v 0.01382100 -0.00968400 0.00023000
v 0.00398500 -0.00310000 0.00132600
v 0.00877000 -0.00650700 0.00090100
v 0.00797900 -0.00648100 0.00098600
v 0.00478400 -0.00416000 0.00126700
v 0.00682200 -0.00665700 0.00103200
v 0.00638700 -0.00628500 0.00107600
v 0.00398500 -0.00317600 0.00132500
v 0.02119900 -0.00826200 -0.00600000
v 0.02122300 -0.00835700 -0.00437100
v 0.02156300 -0.00870100 -0.00537300
v 0.02150700 -0.00869100 -0.00437100
v 0.02113700 -0.00828100 -0.00414300
v 0.02104200 -0.00819000 -0.00398100
v 0.02132600 -0.00852200 -0.00398900
v 0.02137100 -0.00867500 -0.00375400
v 0.02121900 -0.00873000 -0.00337900
v 0.02082000 -0.00871800 -0.00285600
v 0.02012000 -0.00868700 -0.00221000
v 0.02062700 -0.00910000 -0.00243100
v 0.01228000 -0.00713200 -0.01241200
v 0.01122700 -0.00886800 -0.01256700
v 0.01266300 -0.00974700 -0.01236600
v 0.01348600 -0.01023800 -0.01224500
v 0.01445300 -0.01074700 -0.01208600
v 0.01547000 -0.01123900 -0.01188300
v 0.01644900 -0.01174700 -0.01164200
v 0.01796800 -0.01142500 -0.01129900
v 0.01920500 -0.01130600 -0.01084800
v 0.01952900 -0.01088500 -0.01071300
v 0.01925700 -0.00975100 -0.01072000
v 0.01950100 -0.00944300 -0.01051000
v 0.01995500 -0.01021900 -0.01041500
v 0.00398500 -0.00502900 -0.01313900
v 0.00398500 -0.00521500 -0.01310000
v 0.00445200 -0.00600600 -0.01299100
v 0.00603100 -0.00732800 -0.01286900
v 0.00762200 -0.00856500 -0.01272200
v 0.00784600 -0.00815400 -0.01282600
v 0.00883600 -0.00954400 -0.01256400
v 0.01063100 -0.00968900 -0.01254400
v 0.02033100 -0.00961300 -0.01001800
v 0.02061900 -0.00911400 -0.00958200
v 0.02118100 -0.00847600 -0.00836700
v 0.02121900 -0.00873400 -0.00862600
v 0.02106700 -0.00949800 -0.00931500
v 0.02118500 -0.00907100 -0.00894900
v 0.02137300 -0.00867700 -0.00824800
v 0.02132600 -0.00852400 -0.00801100
v 0.02111900 -0.00826400 -0.00790100
v 0.02147300 -0.00867000 -0.00779900
v 0.02153900 -0.00873200 -0.00762900
v 0.02154100 -0.00873000 -0.00757000
v 0.02156600 -0.00869800 -0.00637400
v 0.02001800 -0.00880800 -0.00207100
v 0.02034400 -0.00959400 -0.00199700
v 0.01997300 -0.01019300 -0.00159900
v 0.01927900 -0.00972500 -0.00129600
v 0.01857000 -0.01028800 -0.00087800
v 0.01853600 -0.01068200 -0.00084500
v 0.01798100 -0.01140800 -0.00070300
v 0.00905800 -0.00602700 0.00086000
v 0.01033100 -0.00696000 0.00070300
v 0.01773400 -0.01173800 -0.00067000
v 0.01647600 -0.01173000 -0.00036100
v 0.01548600 -0.01121500 -0.00011600
v 0.01445700 -0.01071600 0.00008800
v 0.01124500 -0.00888000 0.00056400
v 0.00978100 -0.00788200 0.00076200
v 0.01350100 -0.01021400 0.00024500
v 0.01268500 -0.00976100 0.00036300
v 0.00853500 -0.00691000 0.00092000
v 0.00807500 -0.00773600 0.00088800
v 0.00398500 -0.00409300 0.00126200
v 0.00466700 -0.00483600 0.00121300
v 0.00620800 -0.00682400 0.00099300
v 0.00784600 -0.00815400 0.00082500
v 0.02147100 -0.00866700 -0.00420200
v 0.02153900 -0.00873200 -0.00437100
v 0.02184700 -0.00910400 -0.00537300
v 0.02166800 -0.00898000 -0.00404400
v 0.02153800 -0.00884600 -0.00389600
v 0.02147500 -0.00899000 -0.00355400
v 0.02118700 -0.00906100 -0.00305900
v 0.02107200 -0.00948400 -0.00269500
v 0.02086500 -0.01000000 -0.00232000
v 0.01213300 -0.01063500 -0.01233200
v 0.01295500 -0.01111900 -0.01221200
v 0.01387800 -0.01164900 -0.01204900
v 0.01483800 -0.01219400 -0.01184200
v 0.01578700 -0.01271900 -0.01160000
v 0.01580300 -0.01272800 -0.01159600
v 0.01668700 -0.01321300 -0.01132300
v 0.01732600 -0.01229100 -0.01135500
v 0.01789300 -0.01263500 -0.01110900
v 0.01863300 -0.01188800 -0.01099900
v 0.01983000 -0.01175700 -0.01041700
v 0.02017900 -0.01129600 -0.01028500
v 0.02054800 -0.01063500 -0.01003800
v 0.02085600 -0.01001900 -0.00969200
v 0.00398500 -0.00566900 -0.01299900
v 0.00432200 -0.00660500 -0.01278500
v 0.00585900 -0.00778900 -0.01270200
v 0.00752400 -0.00874100 -0.01266300
v 0.00862500 -0.00992800 -0.01242300
v 0.01001600 -0.01091400 -0.01223100
v 0.01023800 -0.01054400 -0.01236600
v 0.02147500 -0.00899700 -0.00845100
v 0.02144500 -0.00984000 -0.00900200
v 0.02150400 -0.00938100 -0.00870800
v 0.02153900 -0.00885100 -0.00810600
v 0.02167000 -0.00898500 -0.00795700
v 0.02175800 -0.00907100 -0.00782000
v 0.02182000 -0.00913300 -0.00762900
v 0.02182200 -0.00913100 -0.00757000
v 0.02185100 -0.00910200 -0.00637400
v 0.02056200 -0.01060600 -0.00197600
v 0.01981400 -0.01106400 -0.00145100
v 0.01952900 -0.01088500 -0.00128600
v 0.01952600 -0.01088100 -0.00128500
v 0.01875200 -0.01040100 -0.00094600
v 0.01921300 -0.01129600 -0.00115600
v 0.01864000 -0.01188100 -0.00100200
v 0.01789700 -0.01263000 -0.00089100
v 0.01734200 -0.01227000 -0.00064600
v 0.01668700 -0.01321300 -0.00067700
v 0.01580300 -0.01272800 -0.00040400
v 0.01579700 -0.01272600 -0.00040300
v 0.01483800 -0.01219400 -0.00015900
v 0.01386800 -0.01164500 0.00005100
v 0.01295500 -0.01111900 0.00021200
v 0.01349700 -0.01022200 0.00024500
v 0.01188100 -0.01048200 0.00036800
v 0.01073300 -0.00975600 0.00053100
v 0.00986200 -0.00915900 0.00065100
v 0.00929100 -0.00873700 0.00072900
v 0.00398500 -0.00428400 0.00124600
v 0.00455300 -0.00549200 0.00111100
v 0.00764000 -0.00852900 0.00073300
v 0.00603100 -0.00732800 0.00087000
v 0.00886100 -0.00951700 0.00057400
v 0.02175400 -0.00906600 -0.00418000
v 0.02182000 -0.00913300 -0.00437100
v 0.02179500 -0.00910400 -0.00429100
v 0.02213400 -0.00970100 -0.00537300
v 0.02202800 -0.00955300 -0.00427200
v 0.02186300 -0.00939100 -0.00395400
v 0.02169300 -0.00921400 -0.00375200
v 0.02150500 -0.00937200 -0.00329900
v 0.02144800 -0.00982500 -0.00300700
v 0.02129400 -0.01035800 -0.00270400
v 0.01163600 -0.01139100 -0.01217400
v 0.01251800 -0.01184000 -0.01206300
v 0.01353300 -0.01230300 -0.01191900
v 0.01388400 -0.01165400 -0.01204700
v 0.01455900 -0.01275900 -0.01173700
v 0.01555400 -0.01318400 -0.01152700
v 0.01646100 -0.01355400 -0.01127900
v 0.01715400 -0.01346600 -0.01113200
v 0.01844100 -0.01299600 -0.01073100
v 0.01921300 -0.01231800 -0.01058900
v 0.02031900 -0.01213400 -0.00989400
v 0.02069300 -0.01163000 -0.00977500
v 0.02102400 -0.01098800 -0.00958700
v 0.02128500 -0.01037900 -0.00930800
v 0.00398500 -0.00602200 -0.01289300
v 0.00398500 -0.00632100 -0.01280000
v 0.00398500 -0.00665200 -0.01266800
v 0.00422200 -0.00701800 -0.01259100
v 0.00569300 -0.00821100 -0.01249100
v 0.00719800 -0.00933600 -0.01238500
v 0.00842400 -0.01029300 -0.01224000
v 0.00980800 -0.01126000 -0.01205700
v 0.01119000 -0.01206200 -0.01188600
v 0.01140600 -0.01174000 -0.01204700
v 0.02169500 -0.00922100 -0.00825100
v 0.02175400 -0.01013600 -0.00865900
v 0.02177200 -0.00964900 -0.00844100
v 0.02186500 -0.00939800 -0.00804800
v 0.02197800 -0.00951300 -0.00786900
v 0.02203200 -0.00956300 -0.00772800
v 0.02213700 -0.00969900 -0.00637400
v 0.02103800 -0.01096200 -0.00242400
v 0.02049100 -0.01149900 -0.00200200
v 0.02017200 -0.01129100 -0.00171000
v 0.01983700 -0.01174700 -0.00158600
v 0.01922000 -0.01231100 -0.00141300
v 0.01844500 -0.01299100 -0.00126900
v 0.01734000 -0.01356400 -0.00097300
v 0.01715400 -0.01346600 -0.00086800
v 0.01715200 -0.01346400 -0.00086700
v 0.01649900 -0.01350000 -0.00070900
v 0.01556500 -0.01316500 -0.00046800
v 0.01457100 -0.01273600 -0.00025600
v 0.01269200 -0.01155400 0.00013900
v 0.01027300 -0.01052200 0.00037300
v 0.00398500 -0.00502900 0.00113800
v 0.00442200 -0.00614600 0.00094900
v 0.00752400 -0.00874100 0.00066400
v 0.00585900 -0.00778900 0.00070200
v 0.00864800 -0.00990400 0.00043400
v 0.01005000 -0.01089700 0.00024000
v 0.02197400 -0.00950300 -0.00413300
v 0.02210200 -0.00972000 -0.00437100
v 0.02222300 -0.01002600 -0.00537300
v 0.02217300 -0.01004300 -0.00424500
v 0.02210900 -0.00998300 -0.00406300
v 0.02197600 -0.00984700 -0.00383000
v 0.02177000 -0.00963900 -0.00356600
v 0.02175600 -0.01012100 -0.00334700
v 0.02163800 -0.01066100 -0.00312200
v 0.01241800 -0.01200500 -0.01200800
v 0.01320500 -0.01291000 -0.01166900
v 0.01427600 -0.01330400 -0.01151900
v 0.01529400 -0.01365700 -0.01134600
v 0.01636300 -0.01370700 -0.01123400
v 0.01690900 -0.01376000 -0.01109600
v 0.01766800 -0.01373800 -0.01078900
v 0.01969200 -0.01269700 -0.01006400
v 0.01893700 -0.01333000 -0.01020900
v 0.02108800 -0.01189000 -0.00921900
v 0.02007200 -0.01302400 -0.00945600
v 0.02068600 -0.01244200 -0.00931200
v 0.02139800 -0.01127900 -0.00909100
v 0.02163100 -0.01068200 -0.00888600
v 0.00398500 -0.00683200 -0.01259400
v 0.00398500 -0.00687500 -0.01257400
v 0.00420900 -0.00706600 -0.01256400
v 0.00553700 -0.00859100 -0.01224200
v 0.00709800 -0.00952000 -0.01227000
v 0.00823800 -0.01063200 -0.01201400
v 0.00961500 -0.01158000 -0.01184300
v 0.01098800 -0.01236100 -0.01168700
v 0.01199500 -0.01270000 -0.01166100
v 0.01212400 -0.01249000 -0.01179100
v 0.02197800 -0.00985900 -0.00817300
v 0.02198900 -0.01036500 -0.00832000
v 0.02211200 -0.00999500 -0.00793900
v 0.02217700 -0.01005500 -0.00775500
v 0.02210200 -0.00972000 -0.00762900
v 0.02210500 -0.00972000 -0.00757000
v 0.02222700 -0.01002300 -0.00637400
v 0.02141100 -0.01125500 -0.00291700
v 0.02068400 -0.01162300 -0.00221600
v 0.02032800 -0.01212400 -0.00210900
v 0.01969900 -0.01269000 -0.00193800
v 0.01894200 -0.01332800 -0.00179200
v 0.01796300 -0.01389300 -0.00148900
v 0.01766600 -0.01373800 -0.00120900
v 0.01740500 -0.01400300 -0.00123900
v 0.01691100 -0.01376000 -0.00090300
v 0.01622000 -0.01392400 -0.00086400
v 0.01530300 -0.01364000 -0.00064600
v 0.01428500 -0.01328500 -0.00047000
v 0.01321600 -0.01288800 -0.00032000
v 0.01253600 -0.01181200 0.00007200
v 0.01167900 -0.01137200 0.00017900
v 0.01144600 -0.01172600 0.00005500
v 0.00398500 -0.00574100 0.00098000
v 0.00432200 -0.00660500 0.00078600
v 0.00742200 -0.00893000 0.00059000
v 0.00569300 -0.00821100 0.00049200
v 0.00740400 -0.00895900 0.00057700
v 0.00984000 -0.01124800 0.00006800
v 0.00844600 -0.01027400 0.00025300
v 0.01122700 -0.01205300 -0.00010300
v 0.02218700 -0.01004300 -0.00437100
v 0.02227200 -0.01036700 -0.00637400
v 0.02226600 -0.01036700 -0.00537300
v 0.02223000 -0.01037900 -0.00437100
v 0.02221200 -0.01056800 -0.00421100
v 0.02214100 -0.01049900 -0.00398100
v 0.02198900 -0.01035100 -0.00368500
v 0.02189200 -0.01089700 -0.00353400
v 0.01305700 -0.01319400 -0.01149000
v 0.01401400 -0.01381900 -0.01114900
v 0.01503800 -0.01412500 -0.01100700
v 0.01602800 -0.01421600 -0.01093700
v 0.01620900 -0.01393900 -0.01112800
v 0.01663000 -0.01411100 -0.01094300
v 0.01739900 -0.01400300 -0.01076500
v 0.01816700 -0.01400100 -0.01027900
v 0.01935900 -0.01362400 -0.00958400
v 0.02137300 -0.01207900 -0.00867500
v 0.02167000 -0.01150100 -0.00860400
v 0.02034600 -0.01328500 -0.00884100
v 0.02094000 -0.01267600 -0.00873600
v 0.02188700 -0.01091600 -0.00847100
v 0.00398500 -0.00728800 -0.01235600
v 0.00410200 -0.00746900 -0.01230900
v 0.00539200 -0.00893000 -0.01195700
v 0.00682800 -0.01001400 -0.01186900
v 0.00806600 -0.01094300 -0.01174700
v 0.00943800 -0.01186900 -0.01159200
v 0.01080000 -0.01263000 -0.01145000
v 0.01177900 -0.01305100 -0.01137200
v 0.01194500 -0.01278300 -0.01160000
v 0.02213900 -0.01051500 -0.00802100
v 0.02219100 -0.01006200 -0.00762900
v 0.02218700 -0.01004300 -0.00762900
v 0.02221200 -0.01058200 -0.00779000
v 0.02223000 -0.01037900 -0.00762900
v 0.02219100 -0.01004000 -0.00757000
v 0.02168300 -0.01147500 -0.00340100
v 0.02102200 -0.01184500 -0.00267700
v 0.02069500 -0.01243200 -0.00269000
v 0.02008100 -0.01301700 -0.00254500
v 0.01936300 -0.01362100 -0.00241700
v 0.01816500 -0.01400100 -0.00172000
v 0.01788600 -0.01424200 -0.00174000
v 0.01710000 -0.01431400 -0.00138300
v 0.01663300 -0.01410800 -0.00105500
v 0.01615300 -0.01402500 -0.00092300
v 0.01504700 -0.01411100 -0.00098000
v 0.01402200 -0.01380500 -0.00083800
v 0.01306800 -0.01317500 -0.00049800
v 0.01213700 -0.01246800 -0.00019600
v 0.01222100 -0.01233000 -0.00012600
v 0.00398500 -0.00603900 0.00088800
v 0.00418800 -0.00715400 0.00051300
v 0.00398500 -0.00695600 0.00053600
v 0.00398500 -0.00651900 0.00071900
v 0.00398500 -0.00632100 0.00080100
v 0.00553700 -0.00859100 0.00024200
v 0.00707800 -0.00955300 0.00024600
v 0.01102300 -0.01235400 -0.00030100
v 0.00964500 -0.01157100 -0.00014300
v 0.00825800 -0.01061600 0.00002900
v 0.02223200 -0.01037700 -0.00757000
v 0.02226600 -0.01071300 -0.00637400
v 0.02226300 -0.01071300 -0.00537300
v 0.02223200 -0.01057700 -0.00437100
v 0.02222300 -0.01072100 -0.00437100
v 0.02213600 -0.01111900 -0.00417600
v 0.02205500 -0.01104800 -0.00389800
v 0.01291900 -0.01345900 -0.01127200
v 0.01379800 -0.01427500 -0.01063500
v 0.01481500 -0.01455000 -0.01052000
v 0.01594600 -0.01434500 -0.01082500
v 0.01633400 -0.01448300 -0.01064200
v 0.01709300 -0.01431600 -0.01061800
v 0.01787700 -0.01424000 -0.01026800
v 0.01860700 -0.01423000 -0.00964600
v 0.01968000 -0.01385800 -0.00893600
v 0.02154800 -0.01219400 -0.00820600
v 0.02184400 -0.01164200 -0.00817800
v 0.02205100 -0.01106900 -0.00810600
v 0.02051600 -0.01345700 -0.00829700
v 0.02109200 -0.01282600 -0.00823700
v 0.00398500 -0.00736600 -0.01231300
v 0.00398500 -0.00779800 -0.01202300
v 0.00400000 -0.00781800 -0.01201700
v 0.00525800 -0.00922600 -0.01163900
v 0.00671500 -0.01021900 -0.01165600
v 0.00791200 -0.01122400 -0.01144400
v 0.00927600 -0.01212400 -0.01130300
v 0.01063000 -0.01286700 -0.01117700
v 0.01162800 -0.01329400 -0.01110800
v 0.02213000 -0.01113800 -0.00782400
v 0.02222300 -0.01072100 -0.00762900
v 0.02222700 -0.01072100 -0.00757000
v 0.02185400 -0.01161800 -0.00382400
v 0.02126200 -0.01200500 -0.00309500
v 0.02095100 -0.01266600 -0.00326400
v 0.02035500 -0.01327700 -0.00316100
v 0.01968300 -0.01385300 -0.00306400
v 0.01876900 -0.01431400 -0.00264400
v 0.01854800 -0.01419900 -0.00225900
v 0.01831400 -0.01445000 -0.00236200
v 0.01755900 -0.01451400 -0.00185900
v 0.01677300 -0.01463800 -0.00165500
v 0.01634100 -0.01447600 -0.00135200
v 0.01595300 -0.01433300 -0.00116400
v 0.01380100 -0.01426600 -0.00135100
v 0.01578700 -0.01458800 -0.00144100
v 0.01481800 -0.01454000 -0.00146600
v 0.01279900 -0.01369300 -0.00096700
v 0.01292600 -0.01344200 -0.00071500
v 0.01181100 -0.01300100 -0.00058100
v 0.00410200 -0.00746900 0.00030800
v 0.00398500 -0.00736600 0.00031400
v 0.00700500 -0.00968900 0.00014900
v 0.00683700 -0.00999500 -0.00011300
v 0.00539200 -0.00893000 -0.00004400
v 0.01083400 -0.01262600 -0.00053800
v 0.00946400 -0.01186200 -0.00039400
v 0.00808400 -0.01093100 -0.00023600
v 0.02221400 -0.01106900 -0.00637400
v 0.02220900 -0.01106900 -0.00537300
v 0.02217000 -0.01107200 -0.00437100
v 0.02193700 -0.01168300 -0.00414900
v 0.01268300 -0.01392900 -0.01073300
v 0.01364000 -0.01464800 -0.01001800
v 0.01464300 -0.01490300 -0.00993000
v 0.01569500 -0.01472900 -0.01037500
v 0.01676400 -0.01464300 -0.01034100
v 0.01604400 -0.01483400 -0.01020900
v 0.01754800 -0.01451400 -0.01014700
v 0.01830300 -0.01444700 -0.00965100
v 0.01894900 -0.01440700 -0.00897900
v 0.01988600 -0.01401000 -0.00835400
v 0.02163300 -0.01224900 -0.00785500
v 0.02192600 -0.01170700 -0.00785300
v 0.02059400 -0.01354000 -0.00788600
v 0.02116200 -0.01289500 -0.00786300
v 0.00398500 -0.00780600 -0.01201700
v 0.00398500 -0.00786300 -0.01197000
v 0.00513600 -0.00948600 -0.01129300
v 0.00652500 -0.01056500 -0.01120700
v 0.00398500 -0.00817800 -0.01169800
v 0.00777600 -0.01147000 -0.01110900
v 0.00913300 -0.01234900 -0.01098400
v 0.01047600 -0.01307500 -0.01087400
v 0.01149400 -0.01350700 -0.01081200
v 0.02217000 -0.01107200 -0.00762900
v 0.02192600 -0.01176900 -0.00762900
v 0.02217300 -0.01107200 -0.00757000
v 0.02156500 -0.01220600 -0.00384700
v 0.02154500 -0.01219100 -0.00377800
v 0.02110300 -0.01281400 -0.00376400
v 0.02052300 -0.01344900 -0.00370400
v 0.01988900 -0.01400800 -0.00364600
v 0.01894900 -0.01440700 -0.00302000
v 0.01865000 -0.01461000 -0.00302100
v 0.01796700 -0.01469100 -0.00244500
v 0.01719900 -0.01479800 -0.00208800
v 0.01644200 -0.01494900 -0.00204300
v 0.01605100 -0.01482700 -0.00178000
v 0.01268800 -0.01391700 -0.00125300
v 0.01464500 -0.01489900 -0.00205900
v 0.01364200 -0.01464100 -0.00197000
v 0.01570100 -0.01471900 -0.00161200
v 0.01163700 -0.01328000 -0.00087700
v 0.01179000 -0.01303600 -0.00061400
v 0.00398500 -0.00742100 0.00027600
v 0.00398500 -0.00789600 -0.00005300
v 0.00669000 -0.01026500 -0.00039600
v 0.00525800 -0.00922600 -0.00036100
v 0.01066000 -0.01286700 -0.00080900
v 0.00930100 -0.01212200 -0.00068200
v 0.00792900 -0.01121500 -0.00053900
v 0.02196900 -0.01177800 -0.00637400
v 0.02196500 -0.01177800 -0.00537300
v 0.02192600 -0.01176900 -0.00437100
v 0.02165400 -0.01225800 -0.00437100
v 0.01251400 -0.01429900 -0.01009400
v 0.01354700 -0.01491000 -0.00935500
v 0.01453500 -0.01515400 -0.00929400
v 0.01548900 -0.01505600 -0.00982100
v 0.01542900 -0.01515900 -0.00959200
v 0.01643100 -0.01495300 -0.00995000
v 0.01718600 -0.01480100 -0.00991600
v 0.01578800 -0.01513200 -0.00968300
v 0.01795400 -0.01469100 -0.00956700
v 0.01864200 -0.01460700 -0.00899600
v 0.01917100 -0.01452400 -0.00837400
v 0.01998200 -0.01408700 -0.00790800
v 0.02162700 -0.01230100 -0.00762900
v 0.02165400 -0.01225800 -0.00762900
v 0.02073400 -0.01343500 -0.00762900
v 0.02089300 -0.01325800 -0.00762900
v 0.02016500 -0.01397900 -0.00762900
v 0.02118100 -0.01291200 -0.00762900
v 0.00446500 -0.00892800 -0.01132900
v 0.00493400 -0.00988700 -0.01053600
v 0.00641200 -0.01077100 -0.01086600
v 0.00398500 -0.00850700 -0.01135100
v 0.00756200 -0.01185900 -0.01037200
v 0.00890400 -0.01269500 -0.01028000
v 0.01022300 -0.01339000 -0.01019700
v 0.01133000 -0.01376700 -0.01033900
v 0.02193000 -0.01177100 -0.00757000
v 0.02162700 -0.01230100 -0.00437100
v 0.02117300 -0.01288400 -0.00413700
v 0.02060200 -0.01353300 -0.00411400
v 0.01998600 -0.01408400 -0.00409300
v 0.01915900 -0.01451700 -0.00358000
v 0.01887800 -0.01471200 -0.00362200
v 0.01829800 -0.01482700 -0.00306600
v 0.01758400 -0.01493700 -0.00261200
v 0.01682600 -0.01506300 -0.00240900
v 0.01613000 -0.01520600 -0.00250700
v 0.01579500 -0.01512300 -0.00230000
v 0.01548400 -0.01506600 -0.00219800
v 0.01149400 -0.01350700 -0.00118900
v 0.01251600 -0.01429200 -0.00189500
v 0.01535300 -0.01529000 -0.00277300
v 0.01453500 -0.01515200 -0.00269800
v 0.01354700 -0.01490800 -0.00263600
v 0.00398500 -0.00850700 -0.00065000
v 0.00446500 -0.00892800 -0.00067000
v 0.00779100 -0.01146500 -0.00087600
v 0.00647500 -0.01065600 -0.00093400
v 0.00513600 -0.00948600 -0.00070700
v 0.01050400 -0.01307500 -0.00111300
v 0.00915600 -0.01234900 -0.00100000
v 0.02165800 -0.01226000 -0.00757000
v 0.02169700 -0.01227200 -0.00600000
v 0.01241100 -0.01455500 -0.00940700
v 0.01127800 -0.01384800 -0.01015300
v 0.01350800 -0.01506100 -0.00870100
v 0.01448900 -0.01529500 -0.00866700
v 0.01529600 -0.01540700 -0.00874600
v 0.01535200 -0.01529200 -0.00921900
v 0.01558600 -0.01534000 -0.00911800
v 0.01681200 -0.01506800 -0.00958800
v 0.01611800 -0.01521100 -0.00948000
v 0.01756900 -0.01493700 -0.00939600
v 0.01828500 -0.01482700 -0.00895000
v 0.01887100 -0.01471000 -0.00839700
v 0.01927700 -0.01458100 -0.00791200
v 0.01986200 -0.01421800 -0.00762900
v 0.02000700 -0.01410600 -0.00762900
v 0.02167000 -0.01231500 -0.00600000
v 0.02020200 -0.01400600 -0.00600000
v 0.02093600 -0.01328000 -0.00600000
v 0.00398500 -0.00870100 -0.01108000
v 0.00428800 -0.00931700 -0.01057500
v 0.00478900 -0.01015000 -0.00972700
v 0.00620500 -0.01114800 -0.00998000
v 0.00630000 -0.01097600 -0.01044400
v 0.00742400 -0.01211700 -0.00959200
v 0.00875000 -0.01291500 -0.00953200
v 0.01004400 -0.01359000 -0.00947800
v 0.01114300 -0.01406300 -0.00949600
v 0.02119200 -0.01290000 -0.00437100
v 0.02089300 -0.01325800 -0.00437100
v 0.02062300 -0.01355200 -0.00437100
v 0.02016500 -0.01397900 -0.00437100
v 0.01930200 -0.01460000 -0.00437100
v 0.01929700 -0.01459300 -0.00425800
v 0.01927700 -0.01458100 -0.00408900
v 0.01866300 -0.01494100 -0.00408100
v 0.01852900 -0.01491000 -0.00363300
v 0.01790000 -0.01504200 -0.00316800
v 0.01717700 -0.01516300 -0.00285300
v 0.01646100 -0.01528300 -0.00279600
v 0.01585600 -0.01538600 -0.00300400
v 0.01559100 -0.01533500 -0.00286200
v 0.01128100 -0.01384300 -0.00183500
v 0.01241200 -0.01455200 -0.00258500
v 0.01125100 -0.01388900 -0.00195300
v 0.01531900 -0.01535400 -0.00300700
v 0.01448900 -0.01529500 -0.00332900
v 0.01350800 -0.01505800 -0.00329600
v 0.00398500 -0.00858100 -0.00074200
v 0.00493400 -0.00988700 -0.00146300
v 0.00767300 -0.01168000 -0.00123600
v 0.00630000 -0.01097600 -0.00155600
v 0.01024800 -0.01339700 -0.00179000
v 0.00892400 -0.01270000 -0.00170900
v 0.01236400 -0.01470300 -0.00872900
v 0.01293000 -0.01495800 -0.00809400
v 0.01359600 -0.01514900 -0.00809400
v 0.01439400 -0.01533800 -0.00809400
v 0.01527800 -0.01548300 -0.00809400
v 0.01584400 -0.01539000 -0.00898100
v 0.01561500 -0.01547900 -0.00849200
v 0.01644500 -0.01528800 -0.00919700
v 0.01716100 -0.01516600 -0.00915000
v 0.01788600 -0.01504200 -0.00884600
v 0.01851800 -0.01491000 -0.00838500
v 0.01865600 -0.01494400 -0.00793400
v 0.01930200 -0.01460000 -0.00762900
v 0.01933600 -0.01463100 -0.00599000
v 0.00398500 -0.00903000 -0.01059100
v 0.00398500 -0.00905400 -0.01054300
v 0.00398500 -0.00929800 -0.01001800
v 0.00415500 -0.00956700 -0.00976500
v 0.00469600 -0.01029800 -0.00890400
v 0.00608000 -0.01136800 -0.00901400
v 0.00614900 -0.01124300 -0.00964000
v 0.00735200 -0.01225800 -0.00882100
v 0.00866200 -0.01303400 -0.00879200
v 0.00993500 -0.01369300 -0.00876500
v 0.01105700 -0.01422300 -0.00857800
v 0.01872900 -0.01493700 -0.00437100
v 0.01843900 -0.01507800 -0.00437100
v 0.01813300 -0.01510100 -0.00368100
v 0.01747300 -0.01523500 -0.00332400
v 0.01676600 -0.01534700 -0.00314600
v 0.01611900 -0.01543100 -0.00320800
v 0.01562500 -0.01547600 -0.00348800
v 0.01236600 -0.01470000 -0.00326700
v 0.01109900 -0.01413900 -0.00285000
v 0.01113600 -0.01407200 -0.00254500
v 0.01528900 -0.01542600 -0.00336800
v 0.01470200 -0.01539700 -0.00390500
v 0.01439400 -0.01533800 -0.00390500
v 0.01308500 -0.01500600 -0.00390500
v 0.01293000 -0.01495800 -0.00390500
v 0.00428800 -0.00931700 -0.00142600
v 0.00398500 -0.00903000 -0.00140800
v 0.00478900 -0.01015000 -0.00227300
v 0.00624600 -0.01107200 -0.00179600
v 0.00757200 -0.01185900 -0.00161500
v 0.01006800 -0.01359700 -0.00251400
v 0.00876800 -0.01292200 -0.00246000
v 0.00743300 -0.01212000 -0.00239800
v 0.01177500 -0.01455700 -0.00809400
v 0.01235300 -0.01476700 -0.00809400
v 0.01292600 -0.01503200 -0.00600000
v 0.01439800 -0.01541400 -0.00600000
v 0.01560800 -0.01558800 -0.00600000
v 0.01571100 -0.01555300 -0.00762900
v 0.01545500 -0.01550500 -0.00805300
v 0.01542100 -0.01550000 -0.00807000
v 0.01610300 -0.01543600 -0.00878000
v 0.01578800 -0.01550300 -0.00837400
v 0.01674800 -0.01535000 -0.00885100
v 0.01745500 -0.01523800 -0.00868500
v 0.01811900 -0.01510400 -0.00833600
v 0.01854800 -0.01502700 -0.00762900
v 0.01857700 -0.01506300 -0.00599000
v 0.00398500 -0.00939800 -0.00977300
v 0.00406600 -0.00971100 -0.00893000
v 0.00473200 -0.01043600 -0.00809400
v 0.00602800 -0.01145600 -0.00809400
v 0.00607200 -0.01148900 -0.00809400
v 0.00768300 -0.01254900 -0.00809400
v 0.00861800 -0.01308600 -0.00809400
v 0.00946300 -0.01353300 -0.00809400
v 0.01104700 -0.01426600 -0.00809400
v 0.01125800 -0.01435400 -0.00809400
v 0.01795100 -0.01527100 -0.00437100
v 0.01769600 -0.01527300 -0.00376200
v 0.01702500 -0.01539000 -0.00352100
v 0.01636300 -0.01546900 -0.00346200
v 0.01580400 -0.01550300 -0.00361200
v 0.01542100 -0.01550000 -0.00393100
v 0.01527800 -0.01548300 -0.00390500
v 0.01125800 -0.01435400 -0.00390500
v 0.01106600 -0.01420100 -0.00324700
v 0.01235300 -0.01476700 -0.00390500
v 0.00995700 -0.01370200 -0.00323100
v 0.00415500 -0.00956700 -0.00223600
v 0.00398500 -0.00907800 -0.00150200
v 0.00614900 -0.01124300 -0.00236100
v 0.00610100 -0.01133200 -0.00276300
v 0.00469600 -0.01029800 -0.00309600
v 0.00867900 -0.01304100 -0.00320400
v 0.00735900 -0.01226300 -0.00317400
v 0.01124700 -0.01442800 -0.00600000
v 0.01571100 -0.01555300 -0.00437100
v 0.01571800 -0.01559800 -0.00599000
v 0.01589900 -0.01556200 -0.00762900
v 0.01562900 -0.01553100 -0.00789000
v 0.01634300 -0.01547100 -0.00853200
v 0.01595300 -0.01552400 -0.00822100
v 0.01700500 -0.01539300 -0.00848400
v 0.01767900 -0.01527800 -0.00825000
v 0.01775400 -0.01533300 -0.00762900
v 0.01777700 -0.01537100 -0.00599000
v 0.00398500 -0.00941900 -0.00969600
v 0.00398500 -0.00960600 -0.00901900
v 0.00398500 -0.00962500 -0.00893300
v 0.00398500 -0.00965300 -0.00874500
v 0.00398500 -0.00972500 -0.00809400
v 0.00398500 -0.00983000 -0.00600000
v 0.00469800 -0.01050600 -0.00600000
v 0.00604400 -0.01155900 -0.00600000
v 0.00766200 -0.01262100 -0.00600000
v 0.00944600 -0.01360700 -0.00600000
v 0.01775400 -0.01533300 -0.00437100
v 0.01750700 -0.01540000 -0.00437100
v 0.01722700 -0.01541200 -0.00387200
v 0.01657200 -0.01549500 -0.00373500
v 0.01597300 -0.01552400 -0.00377000
v 0.01565800 -0.01553600 -0.00415700
v 0.01558100 -0.01552200 -0.00404800
v 0.01104700 -0.01426600 -0.00390500
v 0.00946300 -0.01353300 -0.00390500
v 0.00406600 -0.00971100 -0.00307000
v 0.00398500 -0.00939800 -0.00222600
v 0.00606700 -0.01139100 -0.00315100
v 0.00473200 -0.01043600 -0.00390500
v 0.00863400 -0.01309600 -0.00390500
v 0.00768300 -0.01254900 -0.00390500
v 0.00607200 -0.01148900 -0.00390500
v 0.01622500 -0.01555000 -0.00411600
v 0.01591000 -0.01560800 -0.00599000
v 0.01620000 -0.01555000 -0.00788500
v 0.01671400 -0.01551000 -0.00801000
v 0.01720600 -0.01541700 -0.00813600
v 0.01686400 -0.01551900 -0.00762900
v 0.01688000 -0.01556200 -0.00599000
v 0.00398500 -0.00979900 -0.00536700
v 0.00602800 -0.01145600 -0.00390500
v 0.01693700 -0.01551000 -0.00437100
v 0.01673500 -0.01550700 -0.00399500
v 0.00398500 -0.00972500 -0.00390500
v 0.00398500 -0.00965300 -0.00325500
v 0.00398500 -0.00962500 -0.00306700
v 0.01645200 -0.01555500 -0.00437100
v 0.01686400 -0.01551900 -0.00437100
f 640 641 699
f 638 696 669
f 639 640 697
f 640 699 698
f 643 644 702
f 641 642 699
f 642 701 700
f 642 702 701
f 642 643 702
f 642 700 699
f 638 639 697
f 640 698 697
f 638 697 696
f 662 716 721
f 636 664 695
f 636 695 694
f 635 636 694
f 635 694 693
f 635 693 681
f 633 637 636
f 633 634 637
f 632 635 681
f 630 631 670
f 630 670 692
f 629 630 692
f 644 703 702
f 629 692 691
f 628 629 691
f 636 637 663
f 644 704 703
f 654 714 658
f 645 705 704
f 662 721 720
f 628 691 690
f 661 720 719
f 661 662 720
f 660 661 719
f 660 719 713
f 659 716 662
f 658 714 718
f 658 718 717
f 658 717 716
f 658 716 659
f 655 715 714
f 654 655 714
f 644 645 704
f 651 660 713
f 650 651 713
f 649 711 708
f 649 650 712
f 649 712 711
f 648 708 710
f 648 710 709
f 648 709 707
f 648 649 708
f 647 648 707
f 646 647 707
f 646 707 706
f 645 646 706
f 645 706 705
f 650 713 712
f 628 690 689
f 606 608 669
f 627 628 689
f 610 611 671
f 610 671 670
f 609 610 670
f 609 670 631
f 608 638 669
f 606 607 608
f 605 606 669
f 605 669 668
f 605 668 667
f 605 667 666
f 604 605 666
f 603 604 666
f 603 666 665
f 611 672 671
f 602 603 665
f 602 664 636
f 602 636 663
f 602 663 637
f 600 660 651
f 600 651 652
f 599 659 662
f 599 662 661
f 598 599 661
f 598 661 660
f 598 660 600
f 597 659 599
f 664 722 695
f 596 658 659
f 602 665 664
f 627 689 688
f 611 673 672
f 612 613 614
f 626 627 688
f 625 687 686
f 625 626 688
f 625 688 687
f 624 625 686
f 624 686 685
f 624 685 684
f 623 624 684
f 622 632 681
f 621 679 683
f 621 683 682
f 620 621 682
f 620 682 678
f 611 612 673
f 619 622 681
f 618 679 621
f 618 619 680
f 618 680 679
f 617 620 678
f 617 678 677
f 616 617 677
f 616 677 676
f 615 616 676
f 615 676 675
f 614 615 675
f 614 675 674
f 612 614 674
f 612 674 673
f 619 681 680
f 664 665 722
f 708 763 765
f 665 667 723
f 714 769 770
f 714 770 718
f 714 715 769
f 713 719 768
f 712 713 768
f 711 712 768
f 711 768 767
f 711 767 763
f 710 764 766
f 709 710 766
f 709 766 762
f 708 765 764
f 708 764 710
f 716 717 721
f 708 711 763
f 706 709 762
f 705 706 762
f 705 762 761
f 705 761 760
f 704 705 760
f 704 760 759
f 703 704 759
f 703 759 758
f 701 702 703
f 701 703 758
f 701 758 757
f 700 701 757
f 700 757 756
f 706 707 709
f 700 756 755
f 717 771 721
f 718 772 771
f 596 659 597
f 730 786 785
f 730 785 731
f 729 731 783
f 728 783 784
f 728 784 782
f 728 729 783
f 727 728 782
f 727 782 781
f 727 781 780
f 726 727 780
f 726 780 748
f 725 752 779
f 717 718 771
f 725 779 778
f 724 778 777
f 723 724 777
f 722 723 777
f 722 777 776
f 722 776 751
f 721 771 775
f 720 774 773
f 720 721 775
f 720 775 774
f 719 720 773
f 719 773 767
f 719 767 768
f 718 770 772
f 724 725 778
f 699 700 755
f 698 754 753
f 698 699 755
f 679 736 683
f 679 680 737
f 679 737 736
f 678 682 735
f 678 735 734
f 677 678 734
f 677 734 733
f 676 677 733
f 676 733 732
f 675 676 732
f 675 732 730
f 674 730 731
f 674 731 729
f 680 693 737
f 674 675 730
f 672 673 729
f 672 729 728
f 671 672 728
f 671 728 727
f 671 727 726
f 670 726 692
f 670 671 726
f 668 669 696
f 668 696 725
f 668 725 724
f 667 668 724
f 667 724 723
f 665 666 667
f 673 674 729
f 680 681 693
f 682 738 735
f 682 683 738
f 698 755 754
f 697 698 753
f 696 697 753
f 696 753 752
f 696 752 725
f 695 722 751
f 694 695 751
f 694 751 749
f 693 749 750
f 693 750 737
f 693 694 749
f 692 726 748
f 691 692 748
f 691 748 747
f 690 691 747
f 690 747 746
f 690 746 745
f 689 690 745
f 689 745 743
f 688 689 743
f 687 742 744
f 687 744 741
f 687 688 743
f 687 743 742
f 686 687 741
f 686 741 740
f 685 686 740
f 683 736 739
f 683 739 738
f 665 723 722
f 596 654 658
f 510 513 512
f 594 657 656
f 514 572 570
f 513 514 570
f 512 513 570
f 511 570 571
f 511 571 559
f 511 512 570
f 730 732 786
f 509 546 569
f 508 509 569
f 508 569 568
f 508 568 567
f 507 508 567
f 507 567 566
f 514 515 572
f 506 565 564
f 506 566 565
f 505 506 564
f 504 505 564
f 504 564 563
f 504 563 562
f 503 504 562
f 503 562 561
f 503 561 560
f 502 503 560
f 499 511 559
f 498 559 558
f 498 499 559
f 497 558 555
f 506 507 566
f 497 498 558
f 515 573 572
f 515 575 574
f 528 529 590
f 528 590 589
f 528 589 588
f 528 588 587
f 527 528 587
f 526 527 587
f 526 587 586
f 526 586 585
f 525 526 585
f 524 525 585
f 523 524 585
f 523 585 584
f 523 584 583
f 515 574 573
f 522 523 583
f 522 582 581
f 522 581 580
f 521 580 579
f 521 522 580
f 520 521 579
f 518 519 520
f 518 520 579
f 518 579 578
f 517 518 578
f 517 578 577
f 517 577 545
f 516 576 575
f 515 516 575
f 522 583 582
f 529 530 591
f 496 555 557
f 496 556 553
f 479 538 539
f 479 539 576
f 479 576 516
f 479 480 538
f 477 478 480
f 476 481 537
f 476 537 480
f 476 480 478
f 475 535 536
f 475 536 530
f 475 533 535
f 474 532 534
f 474 534 533
f 480 540 538
f 473 474 533
f 472 532 474
f 472 531 532
f 471 531 472
f 469 470 475
f 469 475 530
f 468 469 530
f 468 530 529
f 467 468 529
f 465 467 529
f 464 529 528
f 464 465 529
f 463 464 528
f 463 528 527
f 473 533 475
f 496 557 556
f 480 541 540
f 481 542 537
f 496 497 555
f 495 496 553
f 494 553 554
f 494 554 552
f 494 495 553
f 493 494 552
f 493 552 551
f 492 493 551
f 492 551 550
f 491 492 550
f 491 550 549
f 490 491 549
f 490 549 548
f 480 537 541
f 488 547 546
f 488 490 548
f 488 548 547
f 487 488 546
f 486 487 546
f 486 546 509
f 485 545 544
f 485 517 545
f 484 485 544
f 484 544 543
f 483 484 543
f 482 483 543
f 481 482 543
f 481 543 542
f 488 489 490
f 529 591 590
f 530 592 591
f 530 536 592
f 577 638 608
f 577 578 639
f 577 639 638
f 576 602 637
f 575 576 637
f 574 575 637
f 574 637 634
f 573 633 636
f 573 636 635
f 573 635 632
f 573 574 634
f 573 634 633
f 572 573 632
f 578 579 639
f 571 572 632
f 570 572 571
f 568 609 631
f 567 568 631
f 567 631 630
f 567 630 629
f 566 567 629
f 566 629 628
f 565 627 626
f 565 566 628
f 565 628 627
f 564 565 626
f 563 564 626
f 563 626 625
f 571 632 622
f 563 625 624
f 579 640 639
f 579 580 641
f 594 656 655
f 594 655 654
f 594 654 596
f 593 653 594
f 592 600 652
f 590 592 652
f 590 591 592
f 589 590 652
f 589 652 651
f 589 651 650
f 588 650 649
f 588 589 650
f 587 588 649
f 579 641 640
f 587 649 648
f 586 587 647
f 586 647 646
f 585 586 646
f 584 585 646
f 584 646 645
f 584 645 644
f 582 583 584
f 582 584 644
f 582 644 643
f 581 642 641
f 581 582 643
f 581 643 642
f 580 581 641
f 587 648 647
f 562 563 624
f 561 562 624
f 561 624 623
f 542 544 607
f 541 542 607
f 541 607 606
f 540 541 606
f 540 606 605
f 540 605 604
f 540 604 601
f 539 601 604
f 539 604 603
f 539 603 602
f 539 602 576
f 538 540 601
f 538 601 539
f 542 543 544
f 537 542 541
f 536 600 592
f 535 597 599
f 535 599 598
f 535 598 536
f 535 595 597
f 534 596 597
f 534 597 595
f 534 594 596
f 533 534 595
f 533 595 535
f 532 593 594
f 532 594 534
f 531 593 532
f 536 598 600
f 544 545 607
f 545 608 607
f 545 577 608
f 559 571 622
f 558 559 622
f 558 622 619
f 557 618 621
f 557 621 620
f 556 620 617
f 556 557 620
f 555 558 619
f 555 619 618
f 555 618 557
f 554 556 617
f 554 617 616
f 553 556 554
f 552 554 616
f 552 616 615
f 551 552 615
f 551 615 614
f 551 614 613
f 550 551 613
f 549 550 613
f 549 613 612
f 549 612 611
f 549 611 610
f 548 549 610
f 548 610 609
f 547 609 568
f 547 568 569
f 547 548 609
f 546 547 569
f 594 653 657
f 731 787 783
f 819 874 820
f 732 788 786
f 917 964 963
f 916 917 963
f 916 963 962
f 915 916 962
f 915 962 961
f 914 915 961
f 914 961 960
f 913 914 960
f 913 960 959
f 912 913 959
f 912 959 948
f 911 912 948
f 910 934 958
f 917 965 964
f 910 958 957
f 909 957 956
f 908 909 956
f 908 956 955
f 908 955 954
f 907 908 954
f 907 954 953
f 905 907 953
f 905 953 952
f 904 951 950
f 904 905 952
f 904 952 951
f 903 950 949
f 903 904 950
f 909 910 957
f 902 903 949
f 917 921 965
f 918 919 967
f 934 977 958
f 933 973 976
f 933 972 973
f 932 975 969
f 932 933 976
f 932 976 975
f 931 932 969
f 929 972 933
f 929 933 930
f 928 970 974
f 928 974 973
f 928 973 972
f 928 972 929
f 918 967 966
f 926 927 971
f 926 970 928
f 925 968 936
f 924 936 937
f 924 925 936
f 923 924 937
f 922 923 937
f 922 937 965
f 921 922 965
f 919 920 931
f 919 931 969
f 919 969 967
f 918 966 968
f 918 968 925
f 926 971 970
f 934 935 977
f 899 911 948
f 898 948 947
f 883 929 930
f 882 930 885
f 882 883 930
f 881 928 929
f 881 929 883
f 881 926 928
f 880 927 926
f 880 926 881
f 879 924 923
f 879 918 925
f 879 925 924
f 878 879 923
f 878 923 922
f 884 931 920
f 878 922 921
f 877 921 917
f 876 884 920
f 875 876 920
f 875 920 919
f 875 919 918
f 875 918 879
f 874 884 876
f 872 877 917
f 872 917 916
f 872 873 877
f 871 872 916
f 871 916 915
f 870 871 915
f 877 878 921
f 898 899 948
f 884 885 931
f 885 933 932
f 897 947 946
f 897 898 947
f 896 897 946
f 895 896 946
f 895 946 945
f 894 895 945
f 894 945 944
f 893 894 944
f 893 944 942
f 892 942 943
f 892 943 940
f 892 940 941
f 891 893 942
f 885 932 931
f 891 942 892
f 890 941 940
f 890 940 939
f 890 939 938
f 890 938 937
f 889 890 937
f 888 937 936
f 888 889 937
f 887 936 935
f 887 888 936
f 886 934 910
f 886 887 935
f 886 935 934
f 885 930 933
f 890 892 941
f 935 936 977
f 936 968 977
f 937 938 965
f 993 1010 1021
f 987 998 999
f 987 999 1020
f 986 987 1020
f 986 1020 1019
f 986 1019 1018
f 985 986 1018
f 984 985 1018
f 984 1018 1017
f 982 984 1017
f 982 1017 1016
f 982 1016 983
f 980 981 983
f 993 994 1010
f 980 983 1016
f 979 980 1015
f 978 979 1015
f 978 1015 1014
f 978 1014 1002
f 978 1002 1003
f 977 1005 997
f 976 1009 1013
f 976 1013 1012
f 975 1011 1006
f 975 976 1012
f 975 1012 1011
f 974 1007 1010
f 974 1010 1009
f 980 1016 1015
f 973 1009 976
f 994 1022 1010
f 995 1013 1022
f 1020 1023 1029
f 1020 1029 1028
f 1017 1018 1019
f 1016 1017 1019
f 1016 1019 1020
f 1015 1020 1028
f 1015 1016 1020
f 1014 1028 1024
f 1014 1015 1028
f 1010 1025 1021
f 1009 1010 1022
f 1009 1022 1013
f 1007 1025 1010
f 994 995 1022
f 1007 1008 1027
f 1007 1026 1025
f 1001 1002 1014
f 1001 1014 1024
f 1000 1001 1024
f 1000 1024 1023
f 999 1000 1023
f 999 1023 1020
f 997 1005 1006
f 997 1006 1011
f 996 997 1011
f 996 1011 1012
f 995 996 1012
f 995 1012 1013
f 1007 1027 1026
f 973 974 1009
f 970 971 1008
f 970 1008 1007
f 951 994 993
f 951 993 992
f 950 951 992
f 950 992 991
f 950 991 990
f 950 990 989
f 950 989 988
f 949 950 988
f 948 959 987
f 947 948 987
f 947 987 986
f 946 947 986
f 946 986 985
f 951 952 994
f 945 985 984
f 944 984 982
f 944 945 984
f 943 982 983
f 943 983 981
f 942 944 982
f 942 982 943
f 940 943 981
f 939 940 981
f 939 981 980
f 939 980 979
f 938 978 965
f 938 939 979
f 938 979 978
f 945 946 985
f 952 953 995
f 952 995 994
f 953 954 995
f 970 1007 974
f 969 1006 1005
f 969 975 1006
f 967 969 1005
f 966 967 1005
f 966 1005 977
f 966 977 968
f 964 965 978
f 964 978 1003
f 964 1003 1004
f 963 964 1004
f 963 1004 1003
f 963 1003 1002
f 962 963 1002
f 962 1002 1001
f 961 962 1001
f 961 1001 1000
f 960 961 1000
f 960 1000 999
f 960 999 998
f 959 960 998
f 959 998 987
f 957 958 977
f 957 977 997
f 956 957 997
f 955 956 997
f 955 997 996
f 954 996 995
f 954 955 996
f 870 915 914
f 731 785 787
f 869 870 914
f 868 869 913
f 781 835 833
f 780 833 834
f 780 834 805
f 780 781 833
f 779 807 848
f 779 848 832
f 777 778 779
f 777 779 832
f 776 777 832
f 776 832 831
f 776 831 806
f 774 826 830
f 774 830 829
f 781 782 835
f 774 775 826
f 773 829 819
f 772 828 827
f 772 825 828
f 771 772 827
f 771 827 826
f 771 826 775
f 770 824 825
f 770 825 772
f 767 773 819
f 765 820 823
f 765 823 822
f 764 765 822
f 764 822 821
f 773 774 829
f 764 821 818
f 782 837 836
f 782 784 838
f 797 848 850
f 796 849 847
f 795 797 850
f 794 795 850
f 794 850 849
f 794 849 796
f 792 793 831
f 792 831 848
f 792 848 797
f 791 846 845
f 791 796 847
f 791 847 846
f 790 791 845
f 782 838 837
f 790 845 844
f 789 844 843
f 788 789 843
f 788 843 842
f 787 841 839
f 786 788 842
f 786 842 840
f 785 840 841
f 785 841 787
f 785 786 840
f 784 787 839
f 784 839 838
f 783 787 784
f 782 836 835
f 789 790 844
f 798 852 851
f 764 818 766
f 763 820 765
f 747 804 803
f 746 803 802
f 746 747 803
f 745 802 800
f 745 746 802
f 744 798 801
f 743 745 800
f 742 743 800
f 742 800 799
f 742 799 798
f 742 798 744
f 739 797 795
f 739 792 797
f 747 805 804
f 738 794 796
f 738 739 795
f 738 795 794
f 736 750 793
f 736 793 792
f 736 792 739
f 736 737 750
f 735 791 790
f 735 738 791
f 734 735 790
f 734 790 789
f 733 734 789
f 733 789 788
f 732 733 788
f 738 796 791
f 763 819 820
f 747 748 805
f 749 806 750
f 763 767 819
f 762 766 818
f 762 818 817
f 761 762 817
f 761 817 816
f 761 816 815
f 760 761 815
f 760 815 814
f 759 760 814
f 759 814 813
f 758 759 813
f 758 813 812
f 758 812 811
f 748 780 805
f 757 758 811
f 756 811 810
f 756 810 809
f 755 756 809
f 754 755 809
f 754 809 808
f 752 753 754
f 752 754 808
f 752 808 807
f 752 807 779
f 751 776 806
f 750 806 831
f 750 831 793
f 749 751 806
f 756 757 811
f 798 799 852
f 798 851 801
f 799 853 852
f 848 860 850
f 846 849 899
f 846 899 898
f 846 847 849
f 845 846 898
f 845 898 897
f 844 845 897
f 844 897 896
f 843 844 896
f 843 896 895
f 842 843 895
f 842 895 894
f 841 893 891
f 849 862 863
f 840 842 894
f 840 893 841
f 839 841 891
f 837 891 892
f 837 892 890
f 837 838 839
f 837 839 891
f 836 837 890
f 836 890 889
f 835 836 889
f 835 889 888
f 835 888 887
f 835 887 886
f 833 886 859
f 840 894 893
f 833 859 834
f 849 850 862
f 850 860 861
f 867 868 913
f 867 913 912
f 867 912 911
f 865 866 867
f 865 867 911
f 864 865 911
f 864 911 899
f 863 864 899
f 859 886 910
f 858 859 910
f 858 910 909
f 857 908 907
f 857 858 909
f 849 863 899
f 857 909 908
f 856 907 905
f 856 905 906
f 854 856 906
f 853 854 906
f 853 906 905
f 853 905 904
f 853 904 903
f 852 853 903
f 852 903 902
f 852 902 901
f 852 901 900
f 851 852 900
f 850 861 862
f 856 857 907
f 833 835 886
f 831 832 848
f 830 882 885
f 812 867 866
f 812 813 868
f 812 868 867
f 811 812 866
f 810 811 866
f 810 866 865
f 810 865 864
f 810 864 863
f 809 862 861
f 809 810 863
f 809 863 862
f 808 809 861
f 808 861 860
f 813 869 868
f 807 808 860
f 804 805 834
f 804 834 859
f 804 859 858
f 803 857 856
f 803 804 858
f 803 858 857
f 802 803 856
f 802 856 854
f 802 854 855
f 800 802 855
f 799 800 855
f 799 855 854
f 799 854 853
f 807 860 848
f 813 814 869
f 814 870 869
f 814 815 870
f 830 885 884
f 829 830 884
f 829 884 874
f 827 828 881
f 827 881 883
f 827 883 882
f 826 827 882
f 826 882 830
f 825 880 881
f 825 881 828
f 824 880 825
f 823 879 878
f 823 875 879
f 822 823 878
f 822 878 877
f 821 822 877
f 821 877 873
f 820 874 876
f 820 876 875
f 820 875 823
f 819 829 874
f 462 463 527
f 817 818 821
f 817 821 873
f 816 817 873
f 816 873 872
f 816 872 871
f 815 816 871
f 815 871 870
f 869 914 913
f 461 462 527
f 374 441 440
f 460 461 526
f 116 178 176
f 115 136 177
f 115 177 116
f 114 116 176
f 114 176 175
f 114 175 173
f 113 114 173
f 112 172 174
f 112 174 171
f 111 113 173
f 111 173 172
f 111 172 112
f 110 113 111
f 116 179 178
f 109 112 171
f 109 170 169
f 108 168 167
f 107 109 169
f 107 169 168
f 107 168 108
f 106 108 167
f 105 106 167
f 105 167 166
f 105 166 156
f 104 148 165
f 104 165 164
f 103 104 164
f 103 164 163
f 109 171 170
f 102 103 163
f 116 177 179
f 117 119 180
f 129 131 184
f 129 184 185
f 129 185 186
f 128 129 187
f 128 187 192
f 128 192 191
f 127 128 191
f 127 191 190
f 127 190 130
f 125 189 183
f 125 130 189
f 124 134 188
f 124 188 187
f 117 180 146
f 123 124 187
f 123 129 186
f 122 123 186
f 122 186 185
f 122 185 184
f 122 184 132
f 122 132 133
f 121 125 183
f 121 183 182
f 120 121 182
f 119 120 182
f 119 182 181
f 119 181 180
f 117 118 119
f 123 187 129
f 130 190 193
f 101 102 163
f 101 162 161
f 83 145 144
f 82 142 135
f 82 83 144
f 82 144 143
f 82 143 142
f 81 82 135
f 80 81 135
f 79 135 142
f 79 142 141
f 79 141 140
f 78 79 140
f 78 140 138
f 78 138 139
f 83 146 145
f 77 78 139
f 76 77 139
f 76 139 138
f 76 138 137
f 76 137 136
f 75 80 135
f 75 135 79
f 74 134 124
f 73 122 133
f 73 133 132
f 73 132 131
f 73 131 129
f 72 127 130
f 72 130 125
f 76 136 115
f 101 163 162
f 83 84 146
f 85 147 88
f 101 161 160
f 100 101 160
f 100 160 159
f 100 159 158
f 100 158 157
f 99 100 157
f 97 105 156
f 96 97 156
f 96 156 155
f 96 155 154
f 96 154 153
f 96 153 152
f 95 151 150
f 84 117 146
f 95 96 152
f 93 95 150
f 93 150 149
f 92 93 149
f 92 149 148
f 91 92 147
f 89 90 91
f 88 147 92
f 87 88 92
f 87 92 148
f 86 87 148
f 86 148 104
f 85 89 91
f 85 91 147
f 95 152 151
f 130 194 189
f 130 195 194
f 130 193 195
f 179 266 246
f 178 179 246
f 178 246 244
f 176 244 245
f 176 245 243
f 176 178 244
f 175 176 243
f 175 243 241
f 174 239 242
f 174 242 238
f 172 175 241
f 172 241 240
f 172 240 239
f 179 199 266
f 172 239 174
f 171 174 238
f 171 238 237
f 170 237 238
f 170 238 235
f 170 235 236
f 170 171 237
f 168 169 170
f 168 170 236
f 168 236 235
f 168 235 234
f 168 234 232
f 167 168 232
f 166 232 233
f 172 173 175
f 166 233 221
f 180 247 211
f 180 181 248
f 198 263 255
f 197 198 255
f 196 262 198
f 195 260 261
f 195 261 259
f 195 256 260
f 194 195 259
f 194 259 258
f 194 258 253
f 193 256 195
f 192 254 257
f 191 192 257
f 191 257 256
f 180 248 247
f 191 256 193
f 188 197 255
f 188 255 254
f 187 188 254
f 187 254 192
f 183 189 194
f 183 194 253
f 183 253 252
f 183 252 251
f 182 183 251
f 182 251 250
f 181 182 250
f 181 250 249
f 181 249 248
f 190 191 193
f 166 167 232
f 165 212 231
f 164 165 231
f 146 180 211
f 145 146 211
f 145 211 209
f 144 209 210
f 144 210 208
f 144 145 209
f 143 144 208
f 143 208 207
f 143 207 206
f 143 206 205
f 142 143 205
f 141 142 205
f 141 205 204
f 148 212 165
f 141 204 203
f 140 141 202
f 140 202 201
f 140 201 200
f 138 140 200
f 137 138 200
f 137 200 199
f 137 199 179
f 137 179 177
f 136 137 177
f 134 196 198
f 134 198 197
f 134 197 188
f 131 132 184
f 141 203 202
f 148 149 212
f 149 150 212
f 150 213 212
f 164 231 230
f 163 164 230
f 162 163 230
f 162 230 229
f 162 229 228
f 162 228 227
f 162 227 226
f 161 162 226
f 161 226 225
f 161 225 224
f 160 161 224
f 160 224 223
f 160 223 222
f 159 160 222
f 156 166 221
f 155 156 221
f 154 155 221
f 154 221 220
f 154 220 219
f 154 219 218
f 153 154 218
f 153 218 217
f 153 217 216
f 151 152 153
f 151 153 216
f 151 216 215
f 151 215 214
f 150 151 214
f 150 214 213
f 72 125 126
f 198 264 263
f 72 73 129
f 72 128 127
f 5 6 26
f 4 25 27
f 4 27 24
f 4 5 26
f 4 26 25
f 3 4 24
f 2 14 23
f 2 23 22
f 2 22 21
f 2 20 19
f 2 19 18
f 2 18 17
f 2 17 16
f 6 28 26
f 2 16 15
f 1 2 21
f 1 21 13
f 1 13 12
f 1 12 11
f 1 11 10
f 1 10 9
f 1 9 8
f 1 8 7
f 1 7 6
f 1 6 5
f 1 5 4
f 1 4 3
f 1 3 24
f 2 15 14
f 1 24 27
f 6 7 28
f 8 29 28
f 22 44 43
f 21 22 43
f 21 43 42
f 21 42 41
f 21 41 40
f 21 40 33
f 19 20 39
f 19 39 38
f 19 38 37
f 18 19 37
f 17 18 37
f 17 37 36
f 16 17 36
f 7 8 28
f 16 36 35
f 14 15 35
f 14 35 34
f 14 34 23
f 13 33 32
f 13 21 33
f 12 13 32
f 12 32 31
f 11 12 31
f 11 31 30
f 10 11 30
f 10 30 29
f 9 10 29
f 8 9 29
f 15 16 35
f 22 23 44
f 1 27 51
f 1 98 99
f 1 1021 1025
f 1 1025 1026
f 1 1026 1027
f 1 1027 1008
f 1 1008 971
f 1 971 927
f 1 927 880
f 1 880 824
f 1 824 770
f 1 770 769
f 1 769 715
f 1 715 655
f 1 655 656
f 1 993 1021
f 1 656 657
f 1 653 593
f 1 593 531
f 1 531 471
f 1 471 408
f 1 408 342
f 1 342 336
f 1 336 262
f 1 262 196
f 1 196 134
f 1 134 74
f 1 74 39
f 1 39 20
f 1 20 2
f 1 657 653
f 1 51 98
f 1 992 993
f 1 990 991
f 1 99 157
f 1 157 158
f 1 158 159
f 1 159 222
f 1 222 291
f 1 291 368
f 1 368 369
f 1 369 435
f 1 435 500
f 1 500 501
f 1 501 502
f 1 502 560
f 1 560 561
f 1 991 992
f 1 561 623
f 1 684 685
f 1 685 740
f 1 740 741
f 1 741 744
f 1 744 801
f 1 801 851
f 1 851 900
f 1 900 901
f 1 901 902
f 1 902 949
f 1 949 988
f 1 988 989
f 1 989 990
f 1 623 684
f 23 34 44
f 25 26 45
f 25 45 27
f 57 107 108
f 57 108 106
f 57 58 107
f 56 57 106
f 55 56 106
f 55 106 105
f 54 55 105
f 54 105 97
f 53 86 104
f 53 104 103
f 52 53 103
f 52 103 102
f 52 102 101
f 58 109 107
f 52 101 100
f 52 99 98
f 51 52 98
f 50 54 97
f 49 50 97
f 49 97 96
f 49 96 95
f 49 95 94
f 48 94 95
f 48 95 93
f 48 49 94
f 47 89 85
f 47 48 93
f 47 93 92
f 52 100 99
f 47 92 91
f 58 60 109
f 59 111 60
f 71 72 126
f 71 126 125
f 71 125 121
f 69 70 74
f 69 74 124
f 69 124 123
f 69 123 122
f 69 122 73
f 68 71 121
f 67 68 121
f 67 121 120
f 66 119 118
f 66 67 120
f 59 61 110
f 66 120 119
f 65 118 117
f 64 65 117
f 64 117 84
f 63 115 116
f 63 116 114
f 63 76 115
f 62 63 114
f 62 114 113
f 62 113 110
f 61 62 110
f 60 111 112
f 60 112 109
f 59 110 111
f 65 66 118
f 47 91 90
f 47 90 89
f 46 85 88
f 34 65 64
f 34 64 44
f 33 61 59
f 33 40 63
f 33 63 62
f 33 62 61
f 32 59 60
f 32 60 58
f 32 33 59
f 31 32 58
f 31 58 57
f 30 31 57
f 30 57 56
f 34 35 65
f 29 56 55
f 28 29 55
f 28 55 54
f 28 54 50
f 27 45 46
f 27 46 53
f 27 53 52
f 27 52 51
f 26 28 50
f 26 50 49
f 26 49 48
f 26 48 47
f 26 47 46
f 26 46 45
f 29 30 56
f 35 66 65
f 35 67 66
f 35 36 67
f 46 88 87
f 46 87 86
f 46 86 53
f 46 47 85
f 44 64 84
f 43 44 84
f 43 84 83
f 42 43 83
f 42 83 82
f 42 82 81
f 41 42 81
f 41 81 80
f 41 80 75
f 40 75 79
f 40 79 78
f 40 78 77
f 40 77 76
f 40 76 63
f 40 41 75
f 38 39 74
f 38 74 70
f 37 69 73
f 37 73 72
f 37 72 71
f 37 71 68
f 37 38 70
f 37 70 69
f 36 37 68
f 36 68 67
f 72 129 128
f 461 527 526
f 198 265 264
f 199 201 266
f 378 382 379
f 377 380 434
f 376 377 434
f 375 421 441
f 374 439 438
f 374 375 441
f 1023 1024 1029
f 374 440 439
f 372 373 374
f 372 374 438
f 371 372 438
f 371 438 437
f 370 371 437
f 379 442 381
f 370 437 436
f 369 370 435
f 367 434 433
f 367 376 434
f 366 376 367
f 365 366 367
f 364 433 432
f 364 367 433
f 363 364 432
f 363 432 431
f 363 431 430
f 362 363 430
f 362 430 429
f 362 429 428
f 370 436 435
f 361 362 428
f 379 382 442
f 380 444 443
f 395 398 457
f 395 457 456
f 394 395 456
f 394 456 453
f 394 453 455
f 393 394 455
f 392 393 455
f 392 455 454
f 391 392 454
f 391 454 453
f 391 453 452
f 391 452 451
f 391 451 420
f 380 443 434
f 390 391 420
f 387 450 449
f 386 387 449
f 386 449 448
f 386 448 447
f 385 386 447
f 385 447 446
f 383 384 385
f 383 385 446
f 383 446 445
f 382 383 445
f 382 445 442
f 381 442 444
f 380 381 444
f 387 388 450
f 398 458 457
f 361 428 427
f 361 426 425
f 343 345 388
f 341 409 410
f 340 410 411
f 340 411 407
f 340 341 410
f 339 408 409
f 339 409 341
f 339 342 408
f 338 340 407
f 338 407 406
f 337 397 396
f 337 338 406
f 337 406 403
f 344 412 346
f 335 402 405
f 335 404 401
f 333 334 397
f 333 397 337
f 333 337 403
f 332 333 403
f 332 403 402
f 332 402 335
f 331 335 401
f 331 401 400
f 330 331 400
f 330 400 399
f 329 330 399
f 329 399 398
f 335 405 404
f 361 427 426
f 344 347 412
f 345 450 388
f 361 425 424
f 360 361 424
f 360 424 423
f 359 360 423
f 359 423 422
f 358 359 422
f 357 358 422
f 357 422 421
f 356 357 421
f 356 421 375
f 354 389 390
f 354 390 420
f 354 420 419
f 345 346 413
f 353 389 354
f 352 419 418
f 351 352 418
f 351 418 417
f 350 351 417
f 350 417 416
f 349 350 416
f 349 416 415
f 349 415 412
f 347 348 349
f 347 349 412
f 346 412 413
f 345 413 414
f 345 414 450
f 352 354 419
f 398 459 458
f 398 399 459
f 399 460 459
f 442 510 444
f 441 486 509
f 440 441 509
f 440 509 508
f 440 508 507
f 439 440 507
f 439 507 506
f 439 506 505
f 438 439 505
f 437 438 505
f 437 505 504
f 436 501 500
f 436 437 504
f 442 445 510
f 436 504 503
f 436 502 501
f 435 436 500
f 434 443 499
f 433 434 499
f 433 499 498
f 432 433 498
f 432 498 497
f 431 432 497
f 431 497 496
f 431 496 495
f 430 431 495
f 429 494 493
f 429 430 495
f 436 503 502
f 429 495 494
f 443 511 499
f 443 444 512
f 460 526 525
f 459 460 525
f 458 459 525
f 458 525 524
f 458 524 523
f 458 523 522
f 458 522 521
f 457 458 521
f 457 521 520
f 456 457 520
f 453 454 455
f 452 453 456
f 452 456 520
f 443 512 511
f 452 520 519
f 451 519 518
f 451 518 517
f 451 517 485
f 450 516 515
f 449 450 515
f 448 449 515
f 447 448 515
f 447 515 514
f 447 514 513
f 446 447 513
f 446 513 510
f 445 446 510
f 444 510 512
f 451 452 519
f 428 429 493
f 427 428 493
f 427 493 492
f 411 473 475
f 411 475 470
f 410 472 474
f 410 474 473
f 410 473 411
f 409 472 410
f 409 471 472
f 408 471 409
f 407 411 470
f 405 467 465
f 405 465 466
f 404 405 466
f 403 407 470
f 412 476 413
f 403 470 469
f 402 403 469
f 402 469 468
f 402 468 467
f 402 467 405
f 401 404 466
f 401 466 465
f 401 465 464
f 400 401 464
f 400 464 463
f 399 400 463
f 399 463 462
f 399 462 461
f 399 461 460
f 403 406 407
f 412 415 476
f 413 477 414
f 413 478 477
f 426 427 492
f 426 492 491
f 425 426 491
f 424 425 491
f 424 491 490
f 424 490 489
f 423 489 488
f 423 424 489
f 422 423 488
f 422 488 487
f 421 422 487
f 421 487 486
f 421 486 441
f 420 451 485
f 420 485 484
f 419 420 484
f 419 484 483
f 418 419 483
f 417 418 483
f 417 483 482
f 416 417 482
f 415 416 482
f 415 482 481
f 415 481 476
f 414 477 480
f 414 480 479
f 414 479 516
f 414 516 450
f 413 476 478
f 329 398 395
f 198 262 265
f 328 337 396
f 326 396 397
f 244 315 314
f 244 314 313
f 244 313 312
f 244 312 311
f 244 311 245
f 243 245 311
f 243 311 310
f 243 310 308
f 242 307 309
f 242 309 306
f 241 243 308
f 239 240 241
f 239 241 308
f 244 246 315
f 239 308 307
f 238 242 306
f 238 306 305
f 235 238 305
f 235 305 304
f 235 304 303
f 234 235 303
f 233 303 288
f 232 234 303
f 232 303 233
f 231 279 302
f 231 302 301
f 229 230 231
f 228 300 299
f 239 307 242
f 228 229 231
f 246 316 315
f 247 277 276
f 259 331 330
f 258 259 330
f 258 330 329
f 258 329 324
f 257 325 328
f 257 328 327
f 256 326 260
f 256 257 327
f 256 327 326
f 255 263 325
f 254 255 325
f 254 325 257
f 253 258 324
f 246 266 316
f 253 324 323
f 251 253 323
f 251 323 322
f 250 251 322
f 249 250 322
f 249 322 321
f 249 321 320
f 249 320 318
f 249 318 319
f 248 249 319
f 248 319 318
f 248 318 317
f 247 248 317
f 247 317 277
f 251 252 253
f 259 261 331
f 228 231 301
f 227 299 298
f 212 213 214
f 212 214 279
f 212 279 231
f 210 277 278
f 210 278 275
f 209 276 277
f 209 277 210
f 209 211 247
f 209 247 276
f 208 210 275
f 208 275 274
f 208 274 273
f 206 207 208
f 214 215 279
f 206 208 273
f 204 205 206
f 203 204 206
f 203 206 272
f 203 272 270
f 203 270 271
f 202 203 271
f 202 271 270
f 201 202 270
f 201 270 269
f 201 269 268
f 201 268 267
f 201 267 266
f 199 200 201
f 206 273 272
f 228 301 300
f 215 280 279
f 215 282 281
f 227 228 299
f 225 227 298
f 225 298 297
f 225 297 296
f 225 296 295
f 225 295 294
f 225 226 227
f 224 225 294
f 224 294 293
f 223 224 293
f 223 293 292
f 223 292 291
f 222 223 291
f 215 281 280
f 221 233 288
f 220 290 289
f 220 289 287
f 220 221 288
f 219 220 287
f 219 287 286
f 218 219 286
f 218 286 285
f 217 218 285
f 217 285 284
f 215 216 217
f 215 217 284
f 215 284 283
f 215 283 282
f 220 288 290
f 260 332 261
f 260 333 332
f 260 334 333
f 308 310 378
f 307 378 379
f 307 379 309
f 307 308 378
f 306 309 377
f 305 306 377
f 305 377 376
f 304 305 376
f 304 376 366
f 303 304 366
f 300 301 302
f 299 300 355
f 297 374 373
f 309 380 377
f 297 298 356
f 297 375 374
f 296 297 373
f 295 296 373
f 294 295 373
f 293 294 373
f 293 373 372
f 293 372 371
f 292 293 371
f 292 371 370
f 292 370 369
f 292 369 368
f 291 292 368
f 290 365 367
f 297 356 375
f 290 367 364
f 309 381 380
f 310 382 378
f 326 397 334
f 326 327 396
f 324 329 395
f 324 395 394
f 324 394 393
f 323 324 393
f 322 323 393
f 322 393 392
f 321 322 392
f 321 392 391
f 321 391 390
f 320 321 390
f 320 390 389
f 309 379 381
f 318 320 389
f 316 343 388
f 316 388 387
f 315 316 387
f 315 387 386
f 315 386 385
f 313 385 384
f 313 314 315
f 313 315 385
f 311 384 383
f 311 312 313
f 311 313 384
f 310 311 383
f 310 383 382
f 318 389 353
f 289 290 364
f 288 303 366
f 288 366 365
f 272 273 350
f 272 350 349
f 270 272 349
f 270 349 348
f 269 270 348
f 269 348 347
f 268 269 347
f 268 347 344
f 267 344 346
f 267 346 345
f 267 345 343
f 267 268 344
f 266 267 343
f 273 351 350
f 266 343 316
f 265 342 339
f 264 339 341
f 264 341 340
f 264 340 338
f 264 265 339
f 263 264 338
f 263 338 337
f 263 337 328
f 263 328 325
f 262 336 265
f 261 332 335
f 261 335 331
f 260 326 334
f 265 336 342
f 273 274 351
f 274 352 351
f 274 275 352
f 288 365 290
f 287 289 364
f 287 364 363
f 287 363 362
f 286 287 362
f 286 362 361
f 285 286 361
f 285 361 360
f 284 285 360
f 284 360 359
f 284 359 358
f 283 284 358
f 283 358 357
f 283 357 356
f 282 283 356
f 281 298 299
f 281 282 356
f 281 356 298
f 280 281 299
f 280 299 355
f 280 355 300
f 279 280 300
f 279 300 302
f 278 353 354
f 278 354 352
f 277 317 318
f 277 318 353
f 277 353 278
f 275 278 352
f 327 328 396
f 1024 1028 1029
