# https://github.com/mikedh/trimesh
v -0.00585700 -0.03635900 -0.00501000
v -0.00578700 -0.03713800 -0.00597800
v -0.00580800 -0.03635500 -0.00592500
v -0.00579700 -0.03585100 -0.00604300
v -0.00578200 -0.03528300 -0.00606900
v -0.00581100 -0.03461800 -0.00501000
v -0.00585500 -0.03629300 -0.00500000
v -0.00585700 -0.03635900 -0.00499000
v -0.00579400 -0.03801900 -0.00501000
v -0.00575200 -0.03800200 -0.00582900
v -0.00575000 -0.03799400 -0.00587700
v -0.00574500 -0.03799400 -0.00592200
v -0.00564600 -0.03794500 -0.00655300
v -0.00571700 -0.03582100 -0.00656800
v -0.00580500 -0.03635700 -0.00597200
v -0.00575700 -0.03464500 -0.00604300
v -0.00576100 -0.03464500 -0.00599600
v -0.00580800 -0.03456800 -0.00500000
v -0.00581100 -0.03461800 -0.00499000
v -0.00578500 -0.03539900 -0.00393600
v -0.00580800 -0.03635500 -0.00407500
v -0.00578500 -0.03715100 -0.00402300
v -0.00579400 -0.03801900 -0.00499000
v -0.00556700 -0.03960200 -0.00501000
v -0.00564600 -0.03895200 -0.00585500
v -0.00575100 -0.03801700 -0.00582900
v -0.00574400 -0.03801700 -0.00592100
v -0.00548700 -0.03786500 -0.00713900
v -0.00556700 -0.03576700 -0.00717100
v -0.00557400 -0.03870600 -0.00655300
v -0.00546300 -0.03821700 -0.00713600
v -0.00542000 -0.03442700 -0.00749400
v -0.00559600 -0.03349200 -0.00657500
v -0.00567500 -0.03358600 -0.00609800
v -0.00566300 -0.03288400 -0.00501000
v -0.00566300 -0.03288400 -0.00499000
v -0.00568800 -0.03374200 -0.00390100
v -0.00576100 -0.03464500 -0.00400400
v -0.00575700 -0.03464500 -0.00395800
v -0.00571700 -0.03582100 -0.00343200
v -0.00580500 -0.03635700 -0.00403000
v -0.00564600 -0.03794500 -0.00344700
v -0.00574500 -0.03799400 -0.00407800
v -0.00575200 -0.03800200 -0.00417100
v -0.00574200 -0.03812600 -0.00417000
v -0.00563800 -0.03898900 -0.00414200
v -0.00556700 -0.03960200 -0.00499000
v -0.00513300 -0.04113200 -0.00500000
v -0.00532600 -0.04032900 -0.00609400
v -0.00545900 -0.03984500 -0.00598100
v -0.00551900 -0.03959400 -0.00593600
v -0.00559800 -0.03921200 -0.00588100
v -0.00559400 -0.03919700 -0.00597300
v -0.00538500 -0.03781800 -0.00743500
v -0.00546600 -0.03580600 -0.00748200
v -0.00540000 -0.03885300 -0.00713300
v -0.00538600 -0.03982200 -0.00654700
v -0.00527000 -0.03973100 -0.00712700
v -0.00511600 -0.03880800 -0.00792100
v -0.00521800 -0.03434800 -0.00805700
v -0.00544300 -0.03345700 -0.00718100
v -0.00538300 -0.03290100 -0.00718000
v -0.00526500 -0.03112500 -0.00657000
v -0.00546000 -0.03182500 -0.00608300
v -0.00561400 -0.03293900 -0.00604800
v -0.00561700 -0.03293900 -0.00600100
v -0.00565800 -0.03284700 -0.00500000
v -0.00561700 -0.03293900 -0.00399900
v -0.00561400 -0.03293900 -0.00395200
v -0.00559600 -0.03349200 -0.00342500
v -0.00556800 -0.03589800 -0.00283000
v -0.00552600 -0.03449200 -0.00282000
v -0.00548700 -0.03786500 -0.00286100
v -0.00546300 -0.03821700 -0.00286400
v -0.00557400 -0.03870600 -0.00344800
v -0.00574400 -0.03801700 -0.00407900
v -0.00559400 -0.03919700 -0.00402700
v -0.00559800 -0.03921200 -0.00411900
v -0.00551900 -0.03959400 -0.00406400
v -0.00546000 -0.03984000 -0.00402000
v -0.00532600 -0.04032900 -0.00390600
v -0.00512900 -0.04114200 -0.00499000
v -0.00451600 -0.04260600 -0.00500000
v -0.00512900 -0.04114200 -0.00501000
v -0.00496200 -0.04137500 -0.00650100
v -0.00522500 -0.04065600 -0.00619500
v -0.00521900 -0.04067300 -0.00379800
v -0.00495900 -0.04138500 -0.00349500
v -0.00532600 -0.04030100 -0.00618500
v -0.00519300 -0.03775100 -0.00794500
v -0.00526600 -0.03569500 -0.00803200
v -0.00493700 -0.04022900 -0.00788800
v -0.00498800 -0.04100300 -0.00711700
v -0.00515200 -0.04033300 -0.00712300
v -0.00486300 -0.03875800 -0.00850300
v -0.00471600 -0.04015000 -0.00843100
v -0.00492800 -0.03425800 -0.00872300
v -0.00507200 -0.03286200 -0.00806900
v -0.00527800 -0.03288900 -0.00749600
v -0.00510200 -0.03110800 -0.00717100
v -0.00503900 -0.03079300 -0.00716900
v -0.00473100 -0.02888800 -0.00656000
v -0.00515300 -0.03018500 -0.00603900
v -0.00534500 -0.03113500 -0.00607000
v -0.00536700 -0.03123900 -0.00602400
v -0.00537200 -0.03123900 -0.00597700
v -0.00541000 -0.03117500 -0.00501000
v -0.00541000 -0.03117500 -0.00499000
v -0.00548700 -0.03200600 -0.00391500
v -0.00544300 -0.03345700 -0.00281900
v -0.00526500 -0.03112500 -0.00343000
v -0.00538300 -0.03290100 -0.00282000
v -0.00546600 -0.03580600 -0.00251800
v -0.00542000 -0.03442700 -0.00250600
v -0.00538500 -0.03781800 -0.00256500
v -0.00511600 -0.03880800 -0.00207900
v -0.00540000 -0.03885300 -0.00286700
v -0.00527000 -0.03973100 -0.00287300
v -0.00538600 -0.03982200 -0.00345300
v -0.00532600 -0.04030100 -0.00381500
v -0.00451000 -0.04261800 -0.00499000
v -0.00451000 -0.04261800 -0.00501000
v -0.00457600 -0.04224100 -0.00700400
v -0.00457600 -0.04224100 -0.00299600
v -0.00458000 -0.04220900 -0.00712000
v -0.00471300 -0.04187200 -0.00710800
v -0.00498700 -0.04128900 -0.00657700
v -0.00505500 -0.04109300 -0.00653600
v -0.00505500 -0.04109300 -0.00346500
v -0.00471300 -0.04187200 -0.00289200
v -0.00459200 -0.04218200 -0.00289500
v -0.00498700 -0.04128900 -0.00342300
v -0.00492700 -0.03767200 -0.00856000
v -0.00498200 -0.03557600 -0.00868200
v -0.00459400 -0.04171300 -0.00783300
v -0.00442600 -0.04159100 -0.00832700
v -0.00453400 -0.03870600 -0.00907900
v -0.00458300 -0.03759200 -0.00916800
v -0.00441600 -0.04006100 -0.00896100
v -0.00417200 -0.04145500 -0.00880300
v -0.00455000 -0.03415700 -0.00937100
v -0.00440300 -0.03277200 -0.00940400
v -0.00478100 -0.03282500 -0.00874700
v -0.00461300 -0.03544700 -0.00932100
v -0.00491200 -0.03183000 -0.00807000
v -0.00469900 -0.03078300 -0.00806600
v -0.00455900 -0.02888500 -0.00715500
v -0.00479500 -0.02879100 -0.00599600
v -0.00500100 -0.02954500 -0.00601800
v -0.00449300 -0.02866900 -0.00715400
v -0.00180500 -0.01990500 -0.00651600
v -0.00540400 -0.03114000 -0.00500000
v -0.00500700 -0.02954500 -0.00597000
v -0.00500900 -0.02954500 -0.00592400
v -0.00504400 -0.02948600 -0.00501000
v -0.00537200 -0.03123900 -0.00402300
v -0.00536700 -0.03123900 -0.00397600
v -0.00534500 -0.03113500 -0.00393000
v -0.00527800 -0.03288900 -0.00250400
v -0.00507200 -0.03286200 -0.00193100
v -0.00521800 -0.03434800 -0.00194300
v -0.00520200 -0.03040800 -0.00395300
v -0.00473100 -0.02888800 -0.00344000
v -0.00503900 -0.03079300 -0.00283100
v -0.00510200 -0.03110800 -0.00282900
v -0.00526600 -0.03569500 -0.00196800
v -0.00519300 -0.03775100 -0.00205500
v -0.00486300 -0.03875800 -0.00149700
v -0.00471600 -0.04015000 -0.00156900
v -0.00493700 -0.04022900 -0.00211200
v -0.00515200 -0.04033300 -0.00287700
v -0.00498800 -0.04100300 -0.00288300
v -0.00437900 -0.04262600 -0.00285400
v -0.00427500 -0.04282200 -0.00284300
v -0.00421900 -0.04292600 -0.00285500
v -0.00412700 -0.04330300 -0.00500000
v -0.00453600 -0.04232100 -0.00295300
v -0.00447700 -0.04243700 -0.00290400
v -0.00427600 -0.04282200 -0.00715600
v -0.00438500 -0.04261600 -0.00714400
v -0.00448200 -0.04243000 -0.00709400
v -0.00454000 -0.04231300 -0.00704200
v -0.00442900 -0.04249400 -0.00727900
v -0.00435200 -0.04237500 -0.00779800
v -0.00459400 -0.04171300 -0.00216700
v -0.00435200 -0.04237500 -0.00220200
v -0.00438000 -0.04258600 -0.00269300
v -0.00421200 -0.04224400 -0.00826300
v -0.00399300 -0.04209700 -0.00871200
v -0.00413200 -0.03865200 -0.00956400
v -0.00416100 -0.03751300 -0.00968300
v -0.00403700 -0.03996900 -0.00940700
v -0.00384000 -0.04131300 -0.00920400
v -0.00408100 -0.03404500 -0.00991100
v -0.00415700 -0.03531300 -0.00985400
v -0.00393000 -0.03270800 -0.00994900
v -0.00376100 -0.03172100 -0.00996800
v -0.00423500 -0.03177000 -0.00941700
v -0.00461600 -0.03180500 -0.00875400
v -0.00438900 -0.03077600 -0.00874400
v -0.00411200 -0.02870200 -0.00805200
v -0.00450500 -0.02786600 -0.00592400
v -0.00450700 -0.02786600 -0.00587800
v -0.00454200 -0.02782400 -0.00501000
v -0.00503500 -0.02945100 -0.00500000
v -0.00125900 -0.01990500 -0.00804300
v -0.00159900 -0.01990500 -0.00718800
v -0.00162900 -0.01990500 -0.00709500
v -0.00191000 -0.01990500 -0.00580200
v -0.00504400 -0.02948600 -0.00499000
v -0.00491200 -0.03183000 -0.00193000
v -0.00492800 -0.03425800 -0.00127700
v -0.00478100 -0.03282500 -0.00125300
v -0.00500900 -0.02954500 -0.00407600
v -0.00500700 -0.02954500 -0.00403000
v -0.00449300 -0.02866900 -0.00284600
v -0.00455900 -0.02888500 -0.00284500
v -0.00483400 -0.02892200 -0.00400100
v -0.00450500 -0.02786600 -0.00407600
v -0.00180500 -0.01990500 -0.00348400
v -0.00469900 -0.03078300 -0.00193400
v -0.00498200 -0.03557600 -0.00131800
v -0.00492700 -0.03767200 -0.00144000
v -0.00453400 -0.03870600 -0.00092100
v -0.00458300 -0.03759200 -0.00083200
v -0.00441600 -0.04006100 -0.00103900
v -0.00417200 -0.04145500 -0.00119700
v -0.00442600 -0.04159100 -0.00167300
v -0.00415200 -0.04300800 -0.00269600
v -0.00414400 -0.04304500 -0.00279600
v -0.00416400 -0.04302500 -0.00287800
v -0.00405000 -0.04322300 -0.00295500
v -0.00394500 -0.04339700 -0.00308300
v -0.00411900 -0.04331300 -0.00499000
v -0.00411900 -0.04331300 -0.00501000
v -0.00394500 -0.04339700 -0.00691700
v -0.00405000 -0.04322300 -0.00704500
v -0.00416400 -0.04302500 -0.00712200
v -0.00426400 -0.04280200 -0.00733100
v -0.00414400 -0.04304500 -0.00720400
v -0.00404400 -0.04290600 -0.00788000
v -0.00421200 -0.04224400 -0.00173700
v -0.00404400 -0.04290600 -0.00212000
v -0.00388100 -0.04274500 -0.00840100
v -0.00365200 -0.04259100 -0.00881200
v -0.00351500 -0.04251600 -0.00897500
v -0.00365700 -0.03860400 -0.00990300
v -0.00366500 -0.03744100 -0.01004300
v -0.00358700 -0.03988500 -0.00971800
v -0.00343600 -0.04117900 -0.00948600
v -0.00335200 -0.04244200 -0.00911900
v -0.00352000 -0.03392600 -0.01028700
v -0.00361600 -0.03517400 -0.01022700
v -0.00336200 -0.03262900 -0.01032900
v -0.00319100 -0.03165600 -0.01035400
v -0.00295400 -0.03069900 -0.01036100
v -0.00351600 -0.03073800 -0.00996400
v -0.00399500 -0.03076300 -0.00940600
v -0.00377700 -0.02873900 -0.00870500
v -0.00099800 -0.01990500 -0.00859100
v -0.00193200 -0.01990500 -0.00551900
v -0.00454200 -0.02782400 -0.00499000
v -0.00195200 -0.01990500 -0.00499300
v -0.00195300 -0.01990500 -0.00472300
v -0.00461600 -0.03180500 -0.00124600
v -0.00440300 -0.03277200 -0.00059600
v -0.00455000 -0.03415700 -0.00062900
v -0.00461300 -0.03544700 -0.00067900
v -0.00411200 -0.02870200 -0.00194800
v -0.00161500 -0.01990500 -0.00286200
v -0.00124700 -0.01990500 -0.00193200
v -0.00123700 -0.01990500 -0.00190800
v -0.00450700 -0.02786600 -0.00412200
v -0.00189300 -0.01990500 -0.00410700
v -0.00188900 -0.01990500 -0.00407000
v -0.00438900 -0.03077600 -0.00125600
v -0.00413200 -0.03865200 -0.00043600
v -0.00416100 -0.03751300 -0.00031700
v -0.00403700 -0.03996900 -0.00059300
v -0.00399300 -0.04209700 -0.00128800
v -0.00384000 -0.04131300 -0.00079600
v -0.00395300 -0.04313900 -0.00227500
v -0.00412100 -0.04306200 -0.00271300
v -0.00409900 -0.04309900 -0.00272600
v -0.00396300 -0.04334500 -0.00289300
v -0.00391000 -0.04343900 -0.00301700
v -0.00375600 -0.04368700 -0.00331800
v -0.00365200 -0.04396300 -0.00499000
v -0.00375600 -0.04369000 -0.00668200
v -0.00365200 -0.04396300 -0.00501000
v -0.00391000 -0.04343900 -0.00698300
v -0.00396500 -0.04333800 -0.00711200
v -0.00400300 -0.04327300 -0.00716600
v -0.00412100 -0.04306200 -0.00728700
v -0.00394800 -0.04313700 -0.00773900
v -0.00381600 -0.04307000 -0.00815600
v -0.00388100 -0.04274500 -0.00159900
v -0.00382000 -0.04307000 -0.00185600
v -0.00362500 -0.04299300 -0.00854600
v -0.00337800 -0.04291300 -0.00886500
v -0.00312300 -0.03857000 -0.01007800
v -0.00311300 -0.03737900 -0.01022800
v -0.00308000 -0.03981500 -0.00988300
v -0.00297700 -0.04106500 -0.00964300
v -0.00319000 -0.04238000 -0.00922400
v -0.00300100 -0.04231800 -0.00930600
v -0.00307600 -0.04283600 -0.00908700
v -0.00289300 -0.03380200 -0.01048600
v -0.00301300 -0.03503500 -0.01042500
v -0.00271900 -0.03254200 -0.01053100
v -0.00255100 -0.03161200 -0.01056000
v -0.00233400 -0.03070400 -0.01057600
v -0.00176100 -0.02896700 -0.01056700
v 0.00064100 -0.01990500 -0.01029500
v 0.00017500 -0.01990500 -0.01001900
v 0.00017200 -0.01990500 -0.01001600
v -0.00027300 -0.01990500 -0.00962100
v -0.00066900 -0.01990500 -0.00913200
v -0.00423500 -0.03177000 -0.00058300
v -0.00376100 -0.03172100 -0.00003200
v -0.00393000 -0.03270800 -0.00005100
v -0.00408100 -0.03404500 -0.00008900
v -0.00415700 -0.03531300 -0.00014600
v -0.00377700 -0.02873900 -0.00129500
v -0.00098500 -0.01990500 -0.00138300
v -0.00399500 -0.03076300 -0.00059400
v -0.00365700 -0.03860400 -0.00009700
v -0.00366500 -0.03744100 0.00004300
v -0.00358700 -0.03988500 -0.00028200
v -0.00352000 -0.04251900 -0.00103000
v -0.00365200 -0.04259100 -0.00118800
v -0.00343600 -0.04117900 -0.00051400
v -0.00335200 -0.04244200 -0.00088100
v -0.00367600 -0.04334300 -0.00196700
v -0.00382600 -0.04335000 -0.00234300
v -0.00371200 -0.04355300 -0.00246600
v -0.00387000 -0.04348100 -0.00295100
v -0.00371600 -0.04373200 -0.00325400
v -0.00373700 -0.04371500 -0.00334000
v -0.00329800 -0.04434700 -0.00499000
v -0.00330500 -0.04434000 -0.00500000
v -0.00365700 -0.04382600 -0.00343000
v -0.00359300 -0.04391100 -0.00349800
v -0.00365700 -0.04382600 -0.00657000
v -0.00367900 -0.04378400 -0.00670000
v -0.00371600 -0.04373200 -0.00674600
v -0.00379400 -0.04359600 -0.00696100
v -0.00329800 -0.04434700 -0.00501000
v -0.00359300 -0.04391100 -0.00650200
v -0.00387000 -0.04348100 -0.00704900
v -0.00370600 -0.04355600 -0.00754500
v -0.00382100 -0.04335000 -0.00767000
v -0.00367000 -0.04334300 -0.00804400
v -0.00347300 -0.04333000 -0.00838900
v -0.00362900 -0.04299500 -0.00146200
v -0.00347900 -0.04333000 -0.00161900
v -0.00323700 -0.04331300 -0.00866600
v -0.00295600 -0.04329300 -0.00885400
v -0.00256200 -0.03856000 -0.01012200
v -0.00254800 -0.03733900 -0.01027800
v -0.00247100 -0.04098300 -0.00969700
v -0.00253600 -0.03977300 -0.00993000
v -0.00279700 -0.04226600 -0.00936300
v -0.00256100 -0.04221600 -0.00940000
v -0.00271200 -0.04277200 -0.00920800
v -0.00261800 -0.04327800 -0.00895600
v -0.00224700 -0.03368000 -0.01054700
v -0.00239200 -0.03490800 -0.01048400
v -0.00205300 -0.03245200 -0.01059200
v -0.00171300 -0.03080500 -0.01063200
v -0.00139500 -0.02962700 -0.01063300
v -0.00014200 -0.02599300 -0.01059800
v 0.00106000 -0.01990500 -0.01043700
v 0.00092600 -0.01990500 -0.01039300
v -0.00319100 -0.03165600 0.00035400
v -0.00351600 -0.03073800 -0.00003600
v -0.00295400 -0.03069900 0.00036100
v -0.00336200 -0.03262900 0.00032900
v -0.00352000 -0.03392600 0.00028700
v -0.00361600 -0.03517400 0.00022700
v -0.00097300 -0.01990500 -0.00136200
v -0.00065200 -0.01990500 -0.00084400
v -0.00064100 -0.01990500 -0.00082800
v -0.00025300 -0.01990500 -0.00035700
v -0.00312300 -0.03857000 0.00007800
v -0.00311300 -0.03737900 0.00022800
v -0.00308000 -0.03981500 -0.00011700
v -0.00338200 -0.04291600 -0.00113900
v -0.00297700 -0.04106500 -0.00035700
v -0.00300100 -0.04231800 -0.00069400
v -0.00319400 -0.04238300 -0.00077900
v -0.00308000 -0.04283600 -0.00091500
v -0.00334800 -0.04363500 -0.00186500
v -0.00323400 -0.04389100 -0.00216700
v -0.00360900 -0.04372700 -0.00262600
v -0.00377000 -0.04363000 -0.00306900
v -0.00367900 -0.04375900 -0.00315900
v -0.00367900 -0.04378400 -0.00330000
v -0.00351500 -0.04398300 -0.00338200
v -0.00306700 -0.04448400 -0.00393300
v -0.00290900 -0.04468000 -0.00500000
v -0.00357800 -0.04390300 -0.00331200
v -0.00357800 -0.04390300 -0.00668800
v -0.00363900 -0.04381900 -0.00676700
v -0.00365700 -0.04379400 -0.00678500
v -0.00367300 -0.04377200 -0.00680700
v -0.00372600 -0.04368000 -0.00694500
v -0.00360300 -0.04373200 -0.00738300
v -0.00306700 -0.04448400 -0.00606700
v -0.00351500 -0.04398300 -0.00661800
v -0.00334200 -0.04363500 -0.00814200
v -0.00323000 -0.04389300 -0.00783700
v -0.00311000 -0.04366700 -0.00836800
v -0.00324100 -0.04331300 -0.00133900
v -0.00311400 -0.04366700 -0.00163500
v -0.00284300 -0.04369500 -0.00852100
v -0.00252800 -0.04372200 -0.00860200
v -0.00139000 -0.03967100 -0.00989600
v -0.00133400 -0.03722800 -0.01024100
v -0.00114300 -0.03476200 -0.01045300
v -0.00236200 -0.04218400 -0.00941700
v -0.00127800 -0.04203800 -0.00941800
v -0.00229800 -0.04273200 -0.00925300
v -0.00223000 -0.04327100 -0.00899500
v -0.00216300 -0.04374900 -0.00863700
v -0.00083900 -0.03228600 -0.01055900
v -0.00117000 -0.03087000 -0.01061900
v -0.00076200 -0.02931900 -0.01062000
v 0.00035000 -0.02639200 -0.01060200
v -0.00008200 -0.02605000 -0.01060100
v 0.00026200 -0.02506500 -0.01058900
v 0.00135900 -0.01990500 -0.01046000
v -0.00255100 -0.03161200 0.00056000
v -0.00233400 -0.03070400 0.00057600
v -0.00024400 -0.01990500 -0.00035000
v 0.00019800 -0.01990500 0.00003500
v 0.00030300 -0.01990500 0.00009700
v 0.00065500 -0.01990500 0.00030100
v 0.00066400 -0.01990500 0.00030500
v -0.00176100 -0.02896700 0.00056700
v -0.00271900 -0.03254200 0.00053100
v -0.00289300 -0.03380200 0.00048600
v -0.00301300 -0.03503500 0.00042500
v -0.00256200 -0.03856000 0.00012200
v -0.00254800 -0.03733900 0.00027800
v -0.00253600 -0.03977300 -0.00007000
v -0.00247100 -0.04098300 -0.00030300
v -0.00296000 -0.04329300 -0.00114800
v -0.00256100 -0.04221600 -0.00060000
v -0.00281400 -0.04226800 -0.00064100
v -0.00271500 -0.04277400 -0.00079200
v -0.00262100 -0.04327800 -0.00104400
v -0.00300400 -0.04396000 -0.00199300
v -0.00305300 -0.04424100 -0.00277200
v -0.00345300 -0.04396300 -0.00296400
v -0.00363900 -0.04381900 -0.00323300
v -0.00365700 -0.04379400 -0.00321500
v -0.00319800 -0.04425000 -0.00323900
v -0.00300100 -0.04452300 -0.00383200
v -0.00287200 -0.04464200 -0.00403300
v -0.00290000 -0.04468500 -0.00501000
v -0.00262600 -0.04480900 -0.00587900
v -0.00287200 -0.04464200 -0.00596700
v -0.00262600 -0.04480900 -0.00412100
v -0.00290000 -0.04468500 -0.00499000
v -0.00245500 -0.04495000 -0.00500000
v -0.00344800 -0.04396800 -0.00703900
v -0.00304800 -0.04424300 -0.00723000
v -0.00300100 -0.04452300 -0.00616800
v -0.00319800 -0.04425000 -0.00676100
v -0.00300000 -0.04396300 -0.00801100
v -0.00274200 -0.04402500 -0.00812400
v -0.00284700 -0.04369500 -0.00148100
v -0.00274600 -0.04402500 -0.00187700
v -0.00244400 -0.04408700 -0.00818400
v -0.00211300 -0.04409700 -0.00827500
v -0.00070400 -0.04196100 -0.00936400
v -0.00035100 -0.03953200 -0.00977600
v -0.00025300 -0.03708100 -0.01012900
v -0.00005200 -0.03461600 -0.01035300
v 0.00018500 -0.03214700 -0.01046900
v -0.00121000 -0.04263600 -0.00925700
v -0.00063800 -0.04256400 -0.00920600
v -0.00113200 -0.04323300 -0.00901000
v -0.00105500 -0.04377700 -0.00866800
v -0.00159400 -0.04421600 -0.00823800
v -0.00098800 -0.04424100 -0.00825800
v -0.00062000 -0.03091700 -0.01058600
v 0.00071500 -0.02660600 -0.01058400
v 0.00067500 -0.02526600 -0.01058900
v 0.00178600 -0.01990500 -0.01046500
v 0.00177200 -0.01990500 -0.01046500
v 0.00136400 -0.01992800 -0.01046100
v -0.00205300 -0.03245200 0.00059200
v -0.00171300 -0.03080500 0.00063200
v -0.00139500 -0.02962700 0.00063300
v 0.00067700 -0.01990500 0.00031000
v -0.00014200 -0.02599300 0.00059800
v 0.00106000 -0.01990500 0.00043700
v -0.00224700 -0.03368000 0.00054700
v -0.00239500 -0.03493300 0.00048300
v -0.00139700 -0.03967400 -0.00010300
v -0.00134300 -0.03722800 0.00024300
v -0.00115000 -0.03476400 0.00045300
v -0.00127800 -0.04203800 -0.00058200
v -0.00236200 -0.04218400 -0.00058300
v -0.00252900 -0.04372200 -0.00139900
v -0.00229800 -0.04273200 -0.00074700
v -0.00223000 -0.04327100 -0.00100500
v -0.00216300 -0.04374900 -0.00136300
v -0.00258300 -0.04447100 -0.00265300
v -0.00275600 -0.04456800 -0.00324300
v -0.00257600 -0.04482600 -0.00402600
v -0.00243400 -0.04491000 -0.00583800
v -0.00257600 -0.04482600 -0.00597400
v -0.00275600 -0.04456800 -0.00675700
v -0.00243400 -0.04491000 -0.00416200
v -0.00227300 -0.04498000 -0.00582500
v -0.00232700 -0.04495700 -0.00417300
v -0.00195900 -0.04512400 -0.00499000
v -0.00195900 -0.04512400 -0.00501000
v -0.00258100 -0.04447400 -0.00734800
v -0.00202600 -0.04467200 -0.00738700
v -0.00208000 -0.04431500 -0.00799000
v -0.00244700 -0.04408700 -0.00181600
v -0.00208000 -0.04431500 -0.00201000
v -0.00202600 -0.04467200 -0.00261300
v -0.00154700 -0.04455800 -0.00780300
v -0.00027400 -0.04190100 -0.00929700
v 0.00035200 -0.03943500 -0.00961900
v 0.00055400 -0.03697000 -0.00996100
v 0.00083800 -0.03449400 -0.01018300
v 0.00110600 -0.03202100 -0.01030800
v 0.00271900 -0.02664000 -0.01034300
v 0.00163500 -0.02691100 -0.01048300
v 0.00032600 -0.03095200 -0.01049300
v -0.00056100 -0.04317100 -0.00897000
v -0.00016000 -0.04310200 -0.00891300
v -0.00022300 -0.04249200 -0.00914400
v -0.00048400 -0.04373000 -0.00864600
v -0.00041600 -0.04420600 -0.00825000
v -0.00093300 -0.04460000 -0.00782300
v -0.00036000 -0.04458000 -0.00782500
v 0.00077200 -0.02663300 -0.01058000
v 0.00122400 -0.02546400 -0.01055500
v 0.00253900 -0.01990500 -0.01043300
v -0.00117200 -0.03087700 0.00061900
v -0.00084600 -0.03228600 0.00055900
v -0.00076800 -0.02933700 0.00062000
v -0.00008200 -0.02605000 0.00060100
v 0.00035000 -0.02639200 0.00060200
v 0.00135900 -0.01990500 0.00046000
v 0.00026200 -0.02506500 0.00058900
v -0.00025300 -0.03708100 0.00012900
v -0.00035100 -0.03953200 -0.00022400
v -0.00070400 -0.04196100 -0.00063600
v -0.00005200 -0.03461600 0.00035300
v 0.00018500 -0.03214700 0.00046900
v -0.00063800 -0.04255900 -0.00079300
v -0.00121000 -0.04263100 -0.00074200
v -0.00211300 -0.04409700 -0.00172500
v -0.00113300 -0.04322600 -0.00098700
v -0.00105600 -0.04376700 -0.00132600
v -0.00098900 -0.04423100 -0.00173300
v -0.00159500 -0.04420600 -0.00175200
v -0.00200900 -0.04478600 -0.00287200
v -0.00248400 -0.04471700 -0.00324700
v -0.00226300 -0.04497500 -0.00408200
v -0.00226300 -0.04497500 -0.00591800
v -0.00248100 -0.04471900 -0.00675300
v -0.00195200 -0.04508100 -0.00583100
v -0.00195200 -0.04508100 -0.00416900
v -0.00178600 -0.04511900 -0.00413700
v -0.00145000 -0.04521500 -0.00499000
v -0.00145000 -0.04521500 -0.00501000
v -0.00152200 -0.04515800 -0.00590600
v -0.00200900 -0.04478600 -0.00712800
v -0.00151200 -0.04479900 -0.00739900
v -0.00154800 -0.04454800 -0.00218500
v -0.00151400 -0.04479400 -0.00258800
v -0.00089300 -0.04485300 -0.00741200
v 0.00029500 -0.04182400 -0.00915900
v 0.00100500 -0.03934900 -0.00938900
v 0.00130600 -0.03686800 -0.00970500
v 0.00166500 -0.03438000 -0.00991600
v 0.00477900 -0.02622400 -0.00985300
v 0.00400700 -0.02606000 -0.01010900
v 0.00355600 -0.02683600 -0.01015900
v 0.00314600 -0.02585400 -0.01030100
v 0.00220600 -0.02573000 -0.01044300
v -0.00009800 -0.04364800 -0.00860700
v 0.00075500 -0.04285600 -0.00866000
v 0.00078100 -0.04229300 -0.00884800
v 0.00072800 -0.04340000 -0.00839700
v -0.00003600 -0.04414100 -0.00822000
v 0.00001100 -0.04452300 -0.00781100
v -0.00032000 -0.04483600 -0.00741600
v 0.00004400 -0.04477600 -0.00743400
v 0.00360900 -0.01990500 -0.01033300
v 0.00349200 -0.01990500 -0.01034400
v 0.00071500 -0.02660600 0.00058400
v -0.00062100 -0.03092400 0.00058600
v 0.00067300 -0.02527600 0.00058900
v 0.00177500 -0.01990500 0.00046500
v 0.00136400 -0.01992800 0.00046100
v 0.00084200 -0.03449400 0.00018200
v 0.00055800 -0.03697000 -0.00004100
v 0.00035600 -0.03943500 -0.00038200
v -0.00027400 -0.04190100 -0.00070300
v 0.00115000 -0.03201600 0.00029700
v 0.00032000 -0.03098600 0.00049200
v 0.00163500 -0.02691100 0.00048300
v 0.00271900 -0.02664000 0.00034300
v -0.00022300 -0.04249200 -0.00085600
v -0.00016000 -0.04310200 -0.00108700
v -0.00056100 -0.04316400 -0.00102700
v -0.00048600 -0.04372000 -0.00134800
v -0.00041700 -0.04419600 -0.00174000
v -0.00036100 -0.04457000 -0.00216100
v -0.00093500 -0.04459300 -0.00216400
v -0.00147700 -0.04503200 -0.00325400
v -0.00199200 -0.04491000 -0.00325100
v -0.00197700 -0.04500500 -0.00365600
v -0.00196400 -0.04506900 -0.00407700
v -0.00196400 -0.04506900 -0.00592300
v -0.00197700 -0.04500500 -0.00634400
v -0.00199200 -0.04491000 -0.00674900
v -0.00139000 -0.04516600 -0.00399100
v -0.00126100 -0.04518300 -0.00407700
v -0.00093300 -0.04524300 -0.00499000
v -0.00093300 -0.04524300 -0.00501000
v -0.00090500 -0.04519600 -0.00593700
v -0.00139000 -0.04516600 -0.00600900
v -0.00147700 -0.04503200 -0.00674600
v -0.00089500 -0.04484600 -0.00257400
v -0.00097300 -0.04507400 -0.00674500
v -0.00084500 -0.04507700 -0.00674500
v 0.00080400 -0.04175500 -0.00897100
v 0.00099800 -0.04172800 -0.00888200
v 0.00158800 -0.03927200 -0.00910200
v 0.00198000 -0.03677900 -0.00938200
v 0.00527100 -0.02611900 -0.00966100
v 0.00506500 -0.02586900 -0.00978700
v 0.00473300 -0.02510500 -0.00996900
v 0.00448800 -0.02516900 -0.01003600
v 0.00421200 -0.02483900 -0.01011900
v 0.00364500 -0.02482400 -0.01023600
v 0.00440800 -0.01990500 -0.01021400
v 0.00433600 -0.01990500 -0.01022500
v 0.00272500 -0.02457400 -0.01038800
v 0.00070200 -0.04388800 -0.00807200
v 0.00116900 -0.04270000 -0.00847400
v 0.00107300 -0.04367500 -0.00794700
v 0.00111800 -0.04320900 -0.00824000
v 0.00068300 -0.04428300 -0.00771700
v 0.00067700 -0.04456100 -0.00736700
v 0.00006500 -0.04493800 -0.00706900
v 0.00068700 -0.04471700 -0.00704300
v 0.00122200 -0.02547400 0.00055600
v 0.00077800 -0.02663500 0.00057900
v 0.00180600 -0.01990500 0.00046400
v 0.00253900 -0.01990500 0.00043300
v 0.00167500 -0.03438000 -0.00008800
v 0.00355600 -0.02683600 0.00015900
v 0.00400700 -0.02606000 0.00010900
v 0.00477900 -0.02622400 -0.00014700
v 0.00131400 -0.03686800 -0.00029800
v 0.00101300 -0.03934600 -0.00061400
v 0.00029900 -0.04182400 -0.00084300
v 0.00220600 -0.02573000 0.00044300
v 0.00314600 -0.02585400 0.00030100
v 0.00078100 -0.04229300 -0.00115200
v 0.00075500 -0.04285600 -0.00134000
v 0.00072800 -0.04340000 -0.00160300
v -0.00009800 -0.04364800 -0.00139300
v -0.00003600 -0.04414100 -0.00178000
v 0.00001100 -0.04451300 -0.00217700
v 0.00004400 -0.04477600 -0.00256600
v -0.00032200 -0.04482800 -0.00257000
v -0.00097300 -0.04507400 -0.00325500
v -0.00091100 -0.04518800 -0.00397400
v -0.00092900 -0.04524300 -0.00499000
v -0.00092900 -0.04524300 -0.00501000
v -0.00045100 -0.04518800 -0.00593300
v -0.00047000 -0.04518300 -0.00602000
v -0.00091100 -0.04518800 -0.00602600
v -0.00085300 -0.04507700 -0.00325500
v 0.00002100 -0.04502700 -0.00674600
v 0.00165900 -0.04163800 -0.00846500
v 0.00208400 -0.03920500 -0.00877500
v 0.00564100 -0.02617900 -0.00945500
v 0.00543900 -0.02634500 -0.00953500
v 0.00602100 -0.02530800 -0.00939700
v 0.00543500 -0.02522900 -0.00970800
v 0.00527500 -0.02422400 -0.00984800
v 0.00492000 -0.02417000 -0.00996200
v 0.00527600 -0.01990500 -0.01003600
v 0.00449000 -0.01990500 -0.01019800
v 0.00104300 -0.04405200 -0.00762300
v 0.00152800 -0.04251600 -0.00826000
v 0.00166800 -0.04163800 -0.00845800
v 0.00142400 -0.04338700 -0.00780000
v 0.00146800 -0.04297000 -0.00805900
v 0.00139600 -0.04373000 -0.00751300
v 0.00103300 -0.04431700 -0.00730500
v 0.00104600 -0.04445900 -0.00701300
v 0.00007600 -0.04501900 -0.00674600
v 0.00070500 -0.04478600 -0.00674600
v 0.00076800 -0.04474700 -0.00674600
v 0.00355800 -0.01990500 0.00033800
v 0.00360800 -0.01990500 0.00033300
v 0.00421200 -0.02483900 0.00011900
v 0.00448800 -0.02516900 0.00003600
v 0.00473300 -0.02510500 -0.00003100
v 0.00506500 -0.02586900 -0.00021300
v 0.00199200 -0.03677600 -0.00062400
v 0.00527100 -0.02611900 -0.00033900
v 0.00159800 -0.03926900 -0.00090300
v 0.00099800 -0.04172800 -0.00111800
v 0.00080400 -0.04175500 -0.00102900
v 0.00272500 -0.02457400 0.00038800
v 0.00440800 -0.01990500 0.00021400
v 0.00364500 -0.02482400 0.00023600
v 0.00116900 -0.04270000 -0.00152600
v 0.00107300 -0.04367500 -0.00205300
v 0.00070200 -0.04388800 -0.00192800
v 0.00111800 -0.04320900 -0.00176000
v 0.00068300 -0.04428300 -0.00228300
v 0.00067700 -0.04456100 -0.00263300
v 0.00068700 -0.04471700 -0.00295700
v 0.00006500 -0.04493800 -0.00293100
v -0.00041300 -0.04518800 -0.00406800
v -0.00047000 -0.04518300 -0.00398000
v 0.00009800 -0.04518300 -0.00500000
v 0.00008900 -0.04513400 -0.00594500
v 0.00008200 -0.04512900 -0.00603200
v 0.00008500 -0.04507900 -0.00638900
v 0.00002100 -0.04502700 -0.00325400
v 0.00612600 -0.02625100 -0.00909100
v 0.00648600 -0.02535800 -0.00904300
v 0.00636600 -0.02432100 -0.00932600
v 0.00566600 -0.02427100 -0.00969700
v 0.00600800 -0.01990500 -0.00982800
v 0.00139100 -0.04396500 -0.00723000
v 0.00183200 -0.04231300 -0.00802400
v 0.00188900 -0.04160900 -0.00825600
v 0.00172100 -0.04332500 -0.00739300
v 0.00173900 -0.04303700 -0.00763900
v 0.00172400 -0.04352100 -0.00715100
v 0.00141000 -0.04408700 -0.00697400
v 0.00107300 -0.04451300 -0.00674600
v 0.00048900 -0.04500700 -0.00607500
v 0.00070200 -0.04485800 -0.00637800
v 0.00087400 -0.04478600 -0.00611000
v 0.00518200 -0.01990500 0.00005600
v 0.00527600 -0.01990500 0.00003600
v 0.00492000 -0.02417000 -0.00003800
v 0.00527500 -0.02422400 -0.00015200
v 0.00543500 -0.02522900 -0.00029200
v 0.00543900 -0.02634500 -0.00046500
v 0.00564100 -0.02617900 -0.00054500
v 0.00602100 -0.02530800 -0.00060300
v 0.00209400 -0.03920500 -0.00123300
v 0.00165900 -0.04163800 -0.00153500
v 0.00152800 -0.04251600 -0.00174000
v 0.00146800 -0.04297000 -0.00194100
v 0.00142400 -0.04338700 -0.00220000
v 0.00139600 -0.04373000 -0.00248700
v 0.00104300 -0.04405200 -0.00237700
v 0.00103300 -0.04431700 -0.00269500
v 0.00104600 -0.04445900 -0.00298700
v 0.00076800 -0.04474700 -0.00325400
v 0.00070500 -0.04478600 -0.00325400
v 0.00068000 -0.04480100 -0.00325400
v 0.00007600 -0.04501900 -0.00325400
v 0.00008200 -0.04512900 -0.00396800
v 0.00008900 -0.04513400 -0.00405500
v 0.00008500 -0.04507900 -0.00361100
v 0.00010500 -0.04513100 -0.00405500
v 0.00011900 -0.04512900 -0.00405400
v 0.00061500 -0.04501200 -0.00499000
v 0.00061500 -0.04501200 -0.00501000
v 0.00011900 -0.04512900 -0.00594600
v 0.00010500 -0.04513100 -0.00594500
v 0.00009100 -0.04512600 -0.00603300
v 0.00683400 -0.02538000 -0.00865200
v 0.00675500 -0.02432600 -0.00902800
v 0.00667500 -0.02284700 -0.00930400
v 0.00613900 -0.02271100 -0.00960400
v 0.00652600 -0.02069700 -0.00957500
v 0.00663500 -0.01990500 -0.00957900
v 0.00203500 -0.04238300 -0.00764100
v 0.00207600 -0.04209700 -0.00777000
v 0.00218700 -0.04156600 -0.00787400
v 0.00200200 -0.04286400 -0.00726800
v 0.00200900 -0.04264500 -0.00746700
v 0.00177600 -0.04364300 -0.00674700
v 0.00188500 -0.04345200 -0.00674700
v 0.00201000 -0.04301000 -0.00707200
v 0.00144700 -0.04411700 -0.00674600
v 0.00130400 -0.04441200 -0.00613800
v 0.00133000 -0.04434200 -0.00638000
v 0.00105800 -0.04465500 -0.00603900
v 0.00059300 -0.04496700 -0.00599100
v 0.00071500 -0.04489000 -0.00609500
v 0.00073800 -0.04488600 -0.00600800
v 0.00106900 -0.04471400 -0.00501000
v 0.00585400 -0.01990500 -0.00012600
v 0.00600800 -0.01990500 -0.00017200
v 0.00566600 -0.02427100 -0.00030300
v 0.00580400 -0.02428400 -0.00036500
v 0.00612600 -0.02625100 -0.00090900
v 0.00636600 -0.02432100 -0.00067400
v 0.00648600 -0.02535800 -0.00095700
v 0.00167700 -0.04163600 -0.00154800
v 0.00188900 -0.04160900 -0.00174400
v 0.00183200 -0.04231300 -0.00197600
v 0.00173900 -0.04303700 -0.00236100
v 0.00172100 -0.04332500 -0.00260700
v 0.00172400 -0.04352100 -0.00284900
v 0.00139100 -0.04396500 -0.00277000
v 0.00141000 -0.04408700 -0.00302600
v 0.00107300 -0.04451300 -0.00325400
v 0.00128700 -0.04430500 -0.00325400
v 0.00094600 -0.04473400 -0.00388300
v 0.00070200 -0.04485800 -0.00362200
v 0.00055400 -0.04497700 -0.00392300
v 0.00009100 -0.04512600 -0.00396700
v 0.00059300 -0.04496700 -0.00400900
v 0.00063700 -0.04500200 -0.00500000
v 0.00708500 -0.02538800 -0.00822700
v 0.00710900 -0.02430800 -0.00864200
v 0.00708600 -0.02295400 -0.00896800
v 0.00703300 -0.02088000 -0.00928000
v 0.00716700 -0.01990500 -0.00928300
v 0.00234400 -0.04154400 -0.00755000
v 0.00239800 -0.04180900 -0.00712800
v 0.00165400 -0.04393800 -0.00638000
v 0.00172500 -0.04388800 -0.00613300
v 0.00194500 -0.04346400 -0.00638000
v 0.00207700 -0.04305200 -0.00674700
v 0.00240400 -0.04194100 -0.00695500
v 0.00239500 -0.04185400 -0.00708600
v 0.00146400 -0.04423300 -0.00614000
v 0.00109900 -0.04469000 -0.00500000
v 0.00145600 -0.04433700 -0.00501000
v 0.00147000 -0.04423800 -0.00605400
v 0.00106900 -0.04471400 -0.00499000
v 0.00644400 -0.01990500 -0.00034300
v 0.00652600 -0.02069700 -0.00042500
v 0.00613900 -0.02271100 -0.00039600
v 0.00667500 -0.02284700 -0.00069600
v 0.00680700 -0.02432600 -0.00101800
v 0.00683400 -0.02538000 -0.00134800
v 0.00218700 -0.04156600 -0.00212600
v 0.00207600 -0.04209700 -0.00223000
v 0.00203500 -0.04238300 -0.00235900
v 0.00200900 -0.04264500 -0.00253300
v 0.00200200 -0.04286400 -0.00273200
v 0.00201000 -0.04301000 -0.00292800
v 0.00188500 -0.04345200 -0.00325300
v 0.00177600 -0.04364300 -0.00325300
v 0.00144700 -0.04411700 -0.00325400
v 0.00133000 -0.04434200 -0.00362000
v 0.00105800 -0.04465500 -0.00396100
v 0.00073800 -0.04488600 -0.00399200
v 0.00071400 -0.04489000 -0.00390500
v 0.00726400 -0.02538800 -0.00777600
v 0.00735700 -0.02504500 -0.00777700
v 0.00737100 -0.02427400 -0.00820500
v 0.00736300 -0.02427600 -0.00822200
v 0.00738600 -0.02304100 -0.00860200
v 0.00743100 -0.02104100 -0.00894500
v 0.00739700 -0.01990500 -0.00910100
v 0.00241300 -0.04168800 -0.00720200
v 0.00178600 -0.04390800 -0.00501000
v 0.00200700 -0.04343700 -0.00601500
v 0.00200500 -0.04342700 -0.00610100
v 0.00210000 -0.04323800 -0.00608700
v 0.00223900 -0.04294800 -0.00597800
v 0.00238400 -0.04254600 -0.00603700
v 0.00237800 -0.04241500 -0.00638000
v 0.00244000 -0.04197600 -0.00674600
v 0.00761200 -0.02500300 -0.00688600
v 0.00135900 -0.04435500 -0.00386100
v 0.00145600 -0.04433700 -0.00499000
v 0.00148300 -0.04430800 -0.00500000
v 0.00663500 -0.01990500 -0.00042100
v 0.00695900 -0.01990500 -0.00060000
v 0.00703300 -0.02088000 -0.00072000
v 0.00708600 -0.02295400 -0.00103200
v 0.00710900 -0.02430800 -0.00135800
v 0.00708500 -0.02538800 -0.00177300
v 0.00219600 -0.04156600 -0.00214200
v 0.00234400 -0.04154400 -0.00245000
v 0.00239800 -0.04180900 -0.00287200
v 0.00239500 -0.04185400 -0.00291400
v 0.00240400 -0.04194100 -0.00304500
v 0.00207700 -0.04305200 -0.00325300
v 0.00194500 -0.04346400 -0.00362000
v 0.00177200 -0.04381900 -0.00387200
v 0.00165400 -0.04393800 -0.00362000
v 0.00146400 -0.04423300 -0.00386000
v 0.00754400 -0.02424100 -0.00777800
v 0.00759500 -0.02312300 -0.00820100
v 0.00771900 -0.02119000 -0.00857500
v 0.00791300 -0.01990500 -0.00856500
v 0.00767400 -0.01990500 -0.00885000
v 0.00759100 -0.01990500 -0.00894300
v 0.00178600 -0.04390800 -0.00499000
v 0.00180400 -0.04388100 -0.00500000
v 0.00228600 -0.04296800 -0.00501000
v 0.00229600 -0.04294600 -0.00500000
v 0.00235700 -0.04264500 -0.00595600
v 0.00262100 -0.04195300 -0.00501000
v 0.00751000 -0.02607200 -0.00501000
v 0.00758000 -0.02567800 -0.00594000
v 0.00751000 -0.02588900 -0.00602000
v 0.00780800 -0.02476500 -0.00604100
v 0.00779200 -0.02418900 -0.00691100
v 0.00147000 -0.04423800 -0.00394600
v 0.00716700 -0.01990500 -0.00071700
v 0.00739700 -0.01990500 -0.00089900
v 0.00743100 -0.02104100 -0.00105500
v 0.00738600 -0.02304100 -0.00139800
v 0.00736300 -0.02427600 -0.00177800
v 0.00737100 -0.02427400 -0.00179500
v 0.00735700 -0.02504500 -0.00222300
v 0.00726400 -0.02538800 -0.00222400
v 0.00241300 -0.04168800 -0.00279800
v 0.00244000 -0.04197600 -0.00325400
v 0.00237800 -0.04241500 -0.00362000
v 0.00761200 -0.02500300 -0.00311400
v 0.00223900 -0.04294800 -0.00402200
v 0.00215000 -0.04313400 -0.00392000
v 0.00200500 -0.04342700 -0.00389900
v 0.00200700 -0.04343700 -0.00398500
v 0.00774400 -0.02319700 -0.00777900
v 0.00791000 -0.02133400 -0.00818000
v 0.00812700 -0.01990500 -0.00817700
v 0.00796800 -0.01990500 -0.00847300
v 0.00228600 -0.04296800 -0.00499000
v 0.00235700 -0.04264500 -0.00404400
v 0.00262100 -0.04195300 -0.00499000
v 0.00751000 -0.02607200 -0.00499000
v 0.00766700 -0.02555100 -0.00501000
v 0.00799900 -0.02414700 -0.00501000
v 0.00795000 -0.02413700 -0.00595700
v 0.00793900 -0.02416000 -0.00604400
v 0.00794000 -0.02414500 -0.00605600
v 0.00794300 -0.02412700 -0.00606000
v 0.00797500 -0.02400100 -0.00601000
v 0.00814400 -0.02227200 -0.00688700
v 0.00759100 -0.01990500 -0.00105700
v 0.00791300 -0.01990500 -0.00143500
v 0.00771900 -0.02119000 -0.00142500
v 0.00759500 -0.02312300 -0.00179900
v 0.00754400 -0.02424100 -0.00222200
v 0.00246000 -0.04231100 -0.00397700
v 0.00751000 -0.02588900 -0.00398000
v 0.00779200 -0.02418900 -0.00308900
v 0.00779900 -0.02480500 -0.00395900
v 0.00757700 -0.02568800 -0.00406000
v 0.00804300 -0.02144300 -0.00778000
v 0.00827700 -0.01990500 -0.00778000
v 0.00816900 -0.01990500 -0.00807000
v 0.00813000 -0.01990500 -0.00817200
v 0.00766700 -0.02555100 -0.00499000
v 0.00799900 -0.02414700 -0.00499000
v 0.00845000 -0.02157200 -0.00501000
v 0.00834000 -0.02192000 -0.00601300
v 0.00798000 -0.02397600 -0.00599800
v 0.00851800 -0.01990500 -0.00688700
v 0.00841500 -0.01990500 -0.00728400
v 0.00796800 -0.01990500 -0.00152700
v 0.00812700 -0.01990500 -0.00182300
v 0.00791000 -0.02133400 -0.00182000
v 0.00774400 -0.02319700 -0.00222100
v 0.00793900 -0.02416000 -0.00395600
v 0.00815700 -0.02220200 -0.00311900
v 0.00798000 -0.02397600 -0.00400200
v 0.00795000 -0.02413700 -0.00404300
v 0.00825800 -0.02240300 -0.00399000
v 0.00845000 -0.02157200 -0.00499000
v 0.00866100 -0.02024500 -0.00501000
v 0.00865500 -0.01990500 -0.00601800
v 0.00813000 -0.01990500 -0.00182800
v 0.00827700 -0.01990500 -0.00222000
v 0.00804300 -0.02144300 -0.00222000
v 0.00851900 -0.01990500 -0.00311800
v 0.00861400 -0.01990500 -0.00371600
v 0.00865500 -0.01990500 -0.00398200
v 0.00866100 -0.02024500 -0.00499000
v 0.00871300 -0.01990500 -0.00501000
v 0.00869900 -0.01990500 -0.00473500
v 0.00871300 -0.01990500 -0.00499000
f 1 3 2
f 614 615 672
f 614 672 669
f 613 664 671
f 613 671 670
f 612 613 670
f 612 670 659
f 612 659 660
f 611 612 660
f 610 664 613
f 609 614 669
f 608 668 667
f 608 609 669
f 608 669 668
f 607 608 667
f 607 667 663
f 606 663 666
f 606 666 665
f 606 665 664
f 606 664 610
f 606 607 663
f 603 659 662
f 603 662 661
f 603 661 604
f 602 611 660
f 601 602 660
f 601 660 659
f 601 659 603
f 615 673 672
f 599 649 650
f 615 674 673
f 615 616 675
f 635 687 679
f 633 634 636
f 633 636 686
f 632 633 686
f 632 686 685
f 632 685 684
f 632 684 683
f 631 632 683
f 630 631 683
f 630 683 682
f 630 682 681
f 629 630 681
f 628 629 681
f 628 681 680
f 626 627 634
f 621 628 680
f 621 680 635
f 621 622 623
f 620 635 679
f 619 620 679
f 619 679 678
f 619 678 677
f 618 619 677
f 618 677 676
f 617 618 676
f 617 676 675
f 616 617 675
f 615 675 674
f 635 680 687
f 598 658 657
f 597 598 657
f 583 641 640
f 583 640 639
f 583 639 638
f 582 583 638
f 582 638 593
f 581 597 637
f 581 637 636
f 581 636 634
f 580 621 635
f 579 580 635
f 579 635 620
f 578 581 634
f 577 578 634
f 577 634 627
f 576 625 626
f 576 626 634
f 576 634 633
f 575 576 633
f 575 633 632
f 575 632 631
f 574 575 631
f 574 631 630
f 574 630 629
f 574 629 628
f 573 628 621
f 573 621 623
f 573 623 624
f 583 584 641
f 598 656 658
f 584 642 641
f 584 586 643
f 597 657 637
f 596 655 656
f 596 656 598
f 595 651 655
f 595 655 596
f 594 652 654
f 594 654 653
f 594 653 651
f 593 639 652
f 593 638 639
f 592 593 652
f 592 652 594
f 591 651 595
f 591 594 651
f 590 599 650
f 589 590 650
f 589 650 649
f 589 649 648
f 589 648 647
f 589 647 646
f 587 588 589
f 587 589 646
f 587 646 645
f 587 645 644
f 586 587 644
f 586 644 643
f 584 585 586
f 584 643 642
f 573 574 628
f 636 637 686
f 637 688 685
f 684 735 734
f 683 684 734
f 682 683 734
f 682 734 732
f 681 732 733
f 681 733 687
f 681 682 732
f 680 681 687
f 679 687 731
f 678 679 731
f 678 731 730
f 678 730 729
f 677 729 728
f 677 678 729
f 676 728 726
f 676 677 728
f 675 676 726
f 674 725 727
f 674 727 724
f 674 675 726
f 674 726 725
f 673 674 724
f 672 673 724
f 672 724 719
f 672 719 720
f 671 712 723
f 671 723 722
f 684 736 735
f 671 722 721
f 684 685 736
f 685 688 737
f 704 747 749
f 703 745 748
f 702 703 748
f 702 748 747
f 702 747 704
f 701 739 740
f 701 740 746
f 700 701 746
f 700 746 745
f 700 745 703
f 699 704 744
f 699 744 705
f 696 697 743
f 695 696 743
f 695 743 742
f 694 695 742
f 693 740 739
f 693 694 742
f 693 742 741
f 693 741 740
f 691 693 739
f 690 691 739
f 689 690 739
f 689 739 701
f 688 707 737
f 687 733 738
f 687 738 731
f 685 737 736
f 637 685 686
f 670 671 721
f 669 672 720
f 653 703 702
f 652 689 701
f 652 701 700
f 652 700 654
f 651 653 699
f 651 699 655
f 647 648 698
f 646 647 698
f 646 698 697
f 645 646 697
f 645 697 696
f 644 645 696
f 644 696 695
f 643 644 695
f 643 695 694
f 642 643 694
f 642 694 693
f 642 693 691
f 642 691 692
f 641 642 692
f 641 692 691
f 640 641 691
f 640 691 690
f 640 690 689
f 639 640 689
f 639 689 652
f 637 657 688
f 653 654 703
f 670 721 711
f 653 704 699
f 654 700 703
f 668 718 716
f 668 669 720
f 668 720 719
f 668 719 718
f 667 716 717
f 667 717 715
f 667 668 716
f 666 667 715
f 666 715 714
f 665 666 714
f 665 714 713
f 665 713 712
f 665 712 671
f 664 665 671
f 663 667 666
f 659 670 711
f 659 711 710
f 659 710 662
f 658 706 709
f 658 709 708
f 658 708 707
f 657 658 707
f 657 707 688
f 656 706 658
f 656 705 706
f 655 705 656
f 655 699 705
f 653 702 704
f 572 573 624
f 571 625 576
f 570 577 627
f 489 490 545
f 489 545 544
f 488 489 544
f 488 544 536
f 487 541 543
f 487 543 542
f 486 487 542
f 486 542 528
f 485 540 541
f 485 541 487
f 484 537 540
f 484 540 485
f 483 529 539
f 483 539 538
f 483 538 537
f 482 483 537
f 482 537 484
f 481 488 536
f 481 536 535
f 481 535 534
f 481 534 533
f 480 481 533
f 480 533 532
f 479 480 532
f 479 532 531
f 478 479 531
f 478 531 530
f 490 546 545
f 478 530 529
f 490 491 546
f 494 548 547
f 508 509 562
f 508 562 560
f 507 525 561
f 507 561 510
f 506 508 560
f 505 506 560
f 505 560 559
f 505 559 556
f 504 557 558
f 504 558 548
f 503 554 557
f 503 557 504
f 502 505 556
f 502 556 555
f 502 555 554
f 502 554 503
f 500 501 504
f 500 504 548
f 498 550 553
f 498 553 552
f 498 552 499
f 496 549 551
f 496 551 550
f 496 550 498
f 496 547 549
f 495 547 496
f 494 500 548
f 494 547 495
f 509 563 562
f 477 529 483
f 476 486 528
f 460 513 512
f 459 460 512
f 458 459 512
f 454 458 512
f 454 512 511
f 454 455 458
f 453 454 511
f 453 511 474
f 452 507 510
f 452 510 509
f 451 452 509
f 451 509 508
f 449 450 451
f 449 451 508
f 449 508 506
f 448 473 507
f 448 507 452
f 447 449 506
f 447 506 505
f 447 505 502
f 446 447 502
f 445 503 504
f 445 504 501
f 444 502 503
f 444 503 445
f 444 446 502
f 443 445 501
f 460 464 513
f 477 478 529
f 461 462 466
f 462 515 514
f 476 528 524
f 475 476 524
f 474 511 527
f 474 527 526
f 474 526 525
f 473 474 525
f 473 525 507
f 472 475 524
f 472 524 523
f 472 523 522
f 471 472 522
f 469 470 516
f 468 471 522
f 468 522 516
f 468 516 470
f 467 468 470
f 466 518 521
f 466 521 520
f 466 520 519
f 466 519 517
f 466 514 518
f 464 465 466
f 464 466 517
f 464 517 513
f 463 516 515
f 463 469 516
f 462 463 515
f 462 514 466
f 509 510 563
f 510 564 563
f 510 565 564
f 556 559 609
f 555 608 607
f 555 556 609
f 555 609 608
f 554 555 607
f 554 607 606
f 554 606 557
f 553 603 604
f 553 604 605
f 552 553 605
f 552 605 604
f 551 601 603
f 550 551 603
f 550 603 553
f 549 601 551
f 548 558 602
f 547 548 602
f 547 602 601
f 547 601 549
f 545 546 600
f 545 600 599
f 545 599 590
f 543 596 598
f 543 598 597
f 542 543 597
f 542 597 581
f 541 595 596
f 557 610 558
f 541 596 543
f 557 606 610
f 558 612 611
f 570 627 626
f 569 570 626
f 569 626 625
f 569 625 571
f 568 572 624
f 568 624 623
f 567 568 623
f 567 623 622
f 566 567 622
f 566 622 621
f 566 621 580
f 565 579 620
f 564 565 620
f 564 620 619
f 564 619 618
f 563 564 618
f 563 618 617
f 562 563 617
f 562 617 616
f 561 579 565
f 560 562 616
f 559 614 609
f 559 560 616
f 559 616 615
f 559 615 614
f 558 610 613
f 558 613 612
f 558 611 602
f 540 591 595
f 540 595 541
f 539 582 593
f 523 524 578
f 523 578 577
f 522 523 577
f 522 577 570
f 521 571 576
f 521 576 575
f 520 572 568
f 520 521 575
f 520 575 574
f 520 574 573
f 520 573 572
f 519 520 568
f 518 569 571
f 518 571 521
f 517 519 568
f 516 522 570
f 515 516 570
f 515 570 569
f 514 515 569
f 514 569 518
f 513 568 567
f 513 517 568
f 512 513 567
f 511 512 567
f 511 567 566
f 511 566 527
f 510 561 565
f 524 528 578
f 525 526 561
f 526 579 561
f 526 580 579
f 538 592 594
f 538 594 591
f 538 539 593
f 538 593 592
f 537 538 591
f 537 591 540
f 535 536 544
f 535 544 545
f 535 545 590
f 534 535 590
f 534 590 589
f 534 589 588
f 533 534 588
f 704 749 744
f 532 533 588
f 532 587 586
f 532 586 585
f 531 532 585
f 531 585 584
f 530 531 584
f 530 584 583
f 530 583 582
f 529 582 539
f 529 530 582
f 528 542 581
f 528 581 578
f 527 566 580
f 526 527 580
f 532 588 587
f 705 744 750
f 705 750 706
f 706 751 709
f 886 887 921
f 885 886 921
f 885 921 903
f 884 904 920
f 884 920 919
f 884 919 917
f 884 917 918
f 882 883 884
f 882 884 918
f 881 882 918
f 881 918 917
f 881 917 916
f 881 916 915
f 881 915 914
f 880 913 912
f 880 881 914
f 880 914 913
f 879 880 912
f 877 878 879
f 877 879 912
f 877 912 911
f 876 910 887
f 876 877 911
f 876 911 910
f 873 874 909
f 873 909 908
f 873 908 907
f 887 910 921
f 873 907 906
f 889 890 922
f 890 924 923
f 901 921 910
f 901 910 911
f 901 911 937
f 901 937 936
f 900 901 936
f 900 936 935
f 899 934 932
f 899 900 935
f 899 935 934
f 898 931 933
f 898 933 929
f 898 899 932
f 898 932 931
f 896 898 929
f 896 929 930
f 896 897 898
f 895 930 929
f 895 896 930
f 893 895 929
f 893 929 928
f 893 928 927
f 893 927 926
f 892 893 926
f 892 926 925
f 891 925 924
f 891 892 925
f 890 891 924
f 890 923 922
f 901 903 921
f 872 873 906
f 871 872 905
f 852 891 890
f 852 853 891
f 850 851 852
f 850 852 890
f 850 890 889
f 850 889 888
f 849 850 888
f 847 876 887
f 846 847 887
f 846 887 886
f 845 846 886
f 845 886 885
f 845 885 865
f 845 865 848
f 842 868 884
f 842 884 883
f 842 883 882
f 841 842 882
f 841 882 881
f 841 881 880
f 841 880 879
f 840 841 879
f 840 879 878
f 839 840 878
f 839 878 877
f 839 877 876
f 839 876 847
f 853 892 891
f 872 906 905
f 853 854 892
f 854 855 893
f 870 871 905
f 870 905 904
f 869 870 904
f 869 904 884
f 868 869 884
f 864 885 903
f 864 865 885
f 863 864 903
f 863 903 902
f 862 863 902
f 862 902 901
f 862 901 900
f 861 900 899
f 861 862 900
f 860 861 899
f 860 899 898
f 860 898 897
f 860 897 896
f 859 860 896
f 858 859 896
f 858 896 895
f 857 858 895
f 856 857 895
f 856 895 893
f 856 893 894
f 855 894 893
f 855 856 894
f 854 893 892
f 901 902 903
f 904 938 920
f 904 905 938
f 962 982 979
f 961 979 981
f 961 981 980
f 961 980 978
f 961 962 979
f 959 963 960
f 958 961 978
f 957 978 977
f 957 958 978
f 956 957 977
f 956 977 976
f 956 976 975
f 955 956 975
f 953 964 974
f 953 974 973
f 953 973 971
f 952 953 971
f 952 971 972
f 950 951 952
f 949 950 952
f 948 952 972
f 948 949 952
f 947 948 972
f 947 972 971
f 947 971 970
f 947 970 984
f 947 984 969
f 962 969 982
f 946 947 969
f 962 968 969
f 964 965 974
f 993 996 995
f 992 993 995
f 988 989 990
f 985 986 994
f 985 994 996
f 985 996 993
f 983 984 993
f 983 993 992
f 980 983 992
f 980 992 991
f 980 991 990
f 980 990 989
f 980 981 983
f 979 982 981
f 978 980 989
f 977 978 989
f 977 989 988
f 977 988 987
f 976 977 987
f 971 973 986
f 971 986 985
f 970 985 993
f 970 993 984
f 970 971 985
f 969 984 983
f 969 983 981
f 969 981 982
f 962 963 968
f 946 969 968
f 945 963 959
f 945 968 963
f 920 953 952
f 920 952 951
f 920 951 950
f 919 947 946
f 919 920 950
f 919 950 949
f 919 949 948
f 919 948 947
f 917 919 946
f 916 917 946
f 916 946 968
f 916 968 945
f 915 916 945
f 915 945 944
f 913 915 944
f 913 944 943
f 913 943 934
f 913 934 942
f 913 914 915
f 912 913 942
f 911 912 942
f 911 942 937
f 906 907 941
f 906 941 940
f 906 940 939
f 905 906 939
f 905 939 938
f 920 938 953
f 923 924 954
f 924 955 954
f 924 956 955
f 944 945 959
f 943 944 959
f 939 940 967
f 939 967 966
f 939 966 965
f 939 965 964
f 938 939 964
f 938 964 953
f 935 936 937
f 935 937 942
f 934 935 942
f 933 960 963
f 933 963 962
f 839 847 844
f 933 962 961
f 932 959 960
f 932 960 933
f 932 934 943
f 932 943 959
f 931 932 933
f 928 929 933
f 928 933 958
f 927 958 957
f 927 928 958
f 926 927 957
f 925 957 956
f 925 926 957
f 924 925 956
f 933 961 958
f 442 443 501
f 838 839 844
f 837 868 842
f 749 795 799
f 749 799 798
f 749 798 797
f 749 797 750
f 748 792 796
f 748 796 795
f 747 795 749
f 747 748 795
f 746 786 794
f 745 792 748
f 745 746 794
f 745 794 793
f 745 793 792
f 744 749 750
f 743 791 790
f 742 743 790
f 742 790 789
f 741 742 789
f 741 789 788
f 741 788 787
f 740 786 746
f 740 741 787
f 740 787 786
f 738 778 775
f 737 752 785
f 736 783 784
f 736 737 785
f 750 797 800
f 736 785 783
f 750 800 751
f 751 800 802
f 765 817 816
f 765 816 815
f 764 765 815
f 764 815 812
f 763 764 812
f 762 812 814
f 762 814 813
f 762 813 811
f 761 763 812
f 761 812 762
f 759 762 811
f 759 811 810
f 758 810 809
f 758 759 810
f 757 758 809
f 757 809 808
f 756 757 808
f 754 803 807
f 754 807 806
f 754 806 805
f 753 805 804
f 753 754 805
f 752 783 785
f 752 753 804
f 752 804 782
f 751 801 803
f 751 803 754
f 751 802 801
f 765 766 817
f 735 736 784
f 734 784 783
f 719 724 764
f 718 763 761
f 718 719 764
f 718 764 763
f 717 760 761
f 717 761 762
f 717 762 759
f 716 718 761
f 716 761 760
f 716 760 717
f 715 759 758
f 715 717 759
f 714 715 758
f 714 758 757
f 713 714 757
f 713 757 756
f 712 713 756
f 712 756 755
f 712 755 723
f 711 721 722
f 709 751 754
f 709 754 753
f 708 709 753
f 708 753 752
f 707 708 752
f 707 752 737
f 706 750 751
f 722 723 755
f 734 735 784
f 724 727 765
f 725 766 727
f 734 783 752
f 734 752 782
f 734 782 781
f 734 781 780
f 734 780 779
f 734 779 777
f 733 776 778
f 733 778 738
f 732 734 777
f 732 777 776
f 732 776 733
f 731 738 775
f 731 775 774
f 730 772 771
f 730 731 774
f 730 774 773
f 730 773 772
f 729 730 771
f 729 771 770
f 728 729 770
f 728 770 769
f 727 766 765
f 726 728 769
f 725 726 769
f 725 769 768
f 725 768 767
f 725 767 766
f 724 765 764
f 766 767 818
f 766 818 817
f 767 768 819
f 820 862 861
f 820 861 860
f 820 860 859
f 819 820 859
f 818 858 857
f 818 819 859
f 818 859 858
f 817 818 857
f 817 857 856
f 817 856 855
f 816 817 855
f 814 815 816
f 814 816 854
f 814 854 853
f 813 814 853
f 813 853 852
f 812 815 814
f 811 813 852
f 811 852 851
f 810 811 851
f 810 851 850
f 810 850 849
f 809 810 849
f 807 848 830
f 807 845 848
f 806 807 830
f 804 805 806
f 820 822 862
f 804 806 830
f 820 821 822
f 822 863 862
f 837 842 843
f 836 868 875
f 836 875 837
f 834 835 874
f 834 874 873
f 833 834 873
f 833 873 872
f 832 833 872
f 832 872 871
f 831 868 836
f 831 832 871
f 831 871 870
f 831 870 869
f 831 869 868
f 830 848 866
f 829 830 866
f 829 866 867
f 827 829 867
f 826 827 867
f 825 826 867
f 825 867 866
f 825 866 848
f 825 848 865
f 824 864 863
f 823 825 865
f 823 865 864
f 823 864 824
f 822 824 863
f 803 845 807
f 801 802 844
f 801 844 847
f 781 782 830
f 781 830 829
f 781 829 827
f 780 781 827
f 780 827 828
f 778 828 827
f 776 777 779
f 776 779 780
f 776 780 828
f 776 828 778
f 775 778 827
f 774 775 827
f 774 827 826
f 773 774 826
f 772 773 826
f 772 826 825
f 772 825 823
f 771 823 824
f 771 824 822
f 771 772 823
f 770 771 822
f 770 822 821
f 769 770 821
f 768 769 821
f 768 821 820
f 768 820 819
f 767 819 818
f 782 804 830
f 786 832 831
f 786 787 832
f 786 831 794
f 801 847 846
f 801 846 845
f 801 845 803
f 800 838 844
f 800 844 802
f 799 837 843
f 799 843 842
f 799 842 841
f 798 799 841
f 798 841 840
f 797 838 800
f 797 798 840
f 797 840 839
f 837 875 868
f 797 839 838
f 795 796 837
f 795 837 799
f 793 794 831
f 793 831 836
f 792 836 796
f 792 793 836
f 791 835 834
f 790 791 834
f 788 789 790
f 788 790 834
f 788 834 833
f 787 788 833
f 787 833 832
f 796 836 837
f 442 501 500
f 816 855 854
f 441 500 494
f 142 198 197
f 142 197 196
f 141 194 195
f 141 195 144
f 141 142 194
f 140 192 193
f 140 193 189
f 139 192 140
f 139 190 192
f 138 144 191
f 137 138 191
f 137 191 190
f 137 190 139
f 136 140 189
f 136 189 188
f 135 136 188
f 135 188 184
f 134 144 138
f 133 134 138
f 131 177 178
f 131 178 187
f 131 187 186
f 130 131 186
f 130 186 185
f 130 185 172
f 130 172 132
f 129 132 172
f 142 199 198
f 126 135 184
f 142 143 199
f 143 145 199
f 151 373 374
f 151 374 314
f 151 314 315
f 151 315 316
f 151 316 317
f 151 317 318
f 151 318 260
f 151 260 206
f 151 206 207
f 151 207 208
f 150 151 208
f 150 208 207
f 150 207 206
f 150 206 201
f 148 202 151
f 148 149 153
f 148 153 154
f 148 154 205
f 148 205 204
f 148 204 203
f 148 203 202
f 147 150 201
f 146 200 199
f 146 147 201
f 146 201 200
f 145 146 199
f 144 195 191
f 142 196 194
f 151 432 373
f 125 126 184
f 125 183 181
f 111 112 165
f 111 165 164
f 111 164 163
f 111 163 162
f 111 162 158
f 110 114 161
f 110 161 160
f 110 160 159
f 110 159 112
f 109 111 158
f 109 158 157
f 109 157 156
f 108 109 156
f 108 156 152
f 107 108 152
f 106 107 152
f 104 105 106
f 103 152 155
f 103 155 154
f 103 154 153
f 103 153 149
f 103 104 106
f 103 106 152
f 102 148 151
f 102 151 150
f 102 150 147
f 102 103 149
f 112 159 165
f 125 184 183
f 113 115 166
f 113 166 161
f 125 181 182
f 124 177 131
f 123 125 182
f 122 123 182
f 122 182 181
f 122 181 180
f 122 180 179
f 122 179 176
f 121 173 178
f 121 178 177
f 121 177 124
f 121 122 176
f 121 176 175
f 121 175 174
f 121 174 173
f 120 129 172
f 119 120 172
f 119 172 171
f 118 119 171
f 118 171 170
f 117 118 170
f 116 117 170
f 116 170 169
f 116 169 168
f 116 168 167
f 115 167 166
f 115 116 167
f 113 161 114
f 102 149 148
f 151 492 432
f 151 546 491
f 163 164 217
f 163 217 216
f 162 163 215
f 162 215 214
f 162 214 210
f 161 166 212
f 160 212 213
f 160 213 211
f 160 161 212
f 159 160 211
f 159 211 165
f 156 157 158
f 156 158 162
f 155 210 205
f 154 155 205
f 152 156 162
f 152 162 210
f 152 210 155
f 151 202 209
f 151 209 261
f 151 261 263
f 151 263 264
f 151 264 274
f 151 274 275
f 151 275 220
f 151 220 270
f 151 270 271
f 163 218 215
f 151 271 272
f 163 219 218
f 163 216 220
f 176 234 233
f 176 233 232
f 176 232 231
f 175 176 231
f 175 231 230
f 175 230 229
f 174 175 229
f 174 229 187
f 173 187 178
f 173 174 187
f 171 172 185
f 170 171 185
f 170 185 228
f 169 170 228
f 169 228 227
f 169 227 226
f 169 226 224
f 168 224 225
f 168 225 223
f 168 169 224
f 167 168 223
f 166 222 212
f 166 167 223
f 166 223 222
f 164 221 217
f 164 165 211
f 164 211 221
f 163 220 219
f 151 491 492
f 151 272 325
f 151 381 382
f 151 988 990
f 151 990 991
f 151 991 992
f 151 992 995
f 151 995 996
f 151 996 994
f 151 994 986
f 151 986 973
f 151 973 974
f 151 974 965
f 151 965 966
f 151 966 967
f 151 967 940
f 151 940 941
f 151 941 907
f 151 907 908
f 151 908 909
f 151 909 874
f 151 874 835
f 151 791 743
f 151 743 697
f 151 697 698
f 151 698 648
f 151 648 649
f 151 649 599
f 151 599 600
f 151 600 546
f 151 987 988
f 151 325 381
f 151 976 987
f 151 955 975
f 151 382 383
f 151 383 384
f 151 384 435
f 151 435 436
f 151 436 437
f 151 437 438
f 151 438 439
f 151 439 497
f 151 497 499
f 151 499 552
f 151 552 604
f 151 604 661
f 151 661 662
f 151 662 710
f 151 710 711
f 151 711 722
f 151 722 755
f 151 755 756
f 151 756 808
f 151 808 809
f 151 809 849
f 151 849 888
f 151 888 889
f 151 889 922
f 151 922 923
f 151 923 954
f 151 954 955
f 151 975 976
f 101 102 147
f 101 147 146
f 101 146 145
f 31 54 59
f 31 59 56
f 30 56 58
f 30 58 57
f 30 57 53
f 30 31 56
f 29 32 55
f 28 54 31
f 28 29 55
f 28 55 54
f 25 26 27
f 25 27 30
f 25 30 53
f 25 53 52
f 24 25 52
f 24 52 51
f 24 51 50
f 24 50 49
f 24 49 48
f 24 48 47
f 23 45 44
f 23 47 46
f 23 46 45
f 22 42 40
f 22 40 41
f 22 23 44
f 22 44 43
f 32 61 60
f 22 43 42
f 32 33 61
f 33 62 61
f 46 75 76
f 45 46 76
f 44 45 76
f 43 44 76
f 42 43 76
f 42 76 75
f 42 75 74
f 42 74 73
f 42 73 71
f 40 71 72
f 40 72 70
f 40 42 71
f 39 40 70
f 37 38 39
f 37 39 70
f 37 70 69
f 37 69 68
f 36 68 67
f 36 37 68
f 35 36 67
f 35 67 66
f 34 35 66
f 34 66 65
f 33 34 65
f 33 65 64
f 33 64 63
f 33 63 62
f 32 60 55
f 46 77 75
f 21 22 41
f 20 41 40
f 8 20 19
f 7 8 19
f 6 18 17
f 6 7 19
f 6 19 18
f 5 6 17
f 5 17 16
f 5 16 14
f 4 5 14
f 4 14 15
f 3 4 15
f 2 10 9
f 2 3 15
f 2 15 14
f 2 14 13
f 2 13 12
f 2 12 11
f 2 11 10
f 1 2 9
f 1 9 23
f 1 23 8
f 1 8 7
f 1 7 6
f 1 6 5
f 1 5 4
f 1 4 3
f 441 442 500
f 8 21 20
f 20 21 41
f 8 22 21
f 9 47 23
f 20 40 39
f 20 39 38
f 19 20 38
f 18 19 38
f 18 38 37
f 18 37 36
f 18 36 35
f 18 35 34
f 17 18 34
f 16 17 34
f 16 34 33
f 14 16 33
f 14 33 32
f 14 32 29
f 13 28 31
f 13 31 30
f 13 30 27
f 13 14 29
f 13 29 28
f 12 13 27
f 11 12 27
f 11 27 26
f 10 11 26
f 9 10 26
f 9 26 25
f 9 25 24
f 9 24 47
f 8 23 22
f 46 78 77
f 46 47 78
f 47 80 79
f 87 88 129
f 87 129 120
f 86 89 128
f 86 128 127
f 85 86 127
f 85 127 126
f 85 126 125
f 85 125 123
f 83 121 124
f 83 124 88
f 83 84 85
f 83 85 123
f 83 123 122
f 83 122 121
f 82 83 88
f 81 87 120
f 80 81 120
f 80 120 119
f 79 80 119
f 77 78 79
f 77 79 119
f 75 77 119
f 75 119 118
f 75 118 117
f 74 116 115
f 74 75 117
f 74 117 116
f 88 131 130
f 73 74 115
f 88 124 131
f 88 130 132
f 100 101 145
f 99 100 145
f 98 99 145
f 98 145 143
f 97 141 144
f 97 144 134
f 97 98 143
f 97 143 142
f 97 142 141
f 96 139 140
f 96 140 136
f 96 137 139
f 95 133 138
f 95 138 137
f 95 137 96
f 93 94 135
f 93 135 126
f 93 126 127
f 93 127 128
f 92 96 136
f 92 136 135
f 92 135 94
f 91 97 134
f 91 134 133
f 90 133 95
f 90 91 133
f 89 93 128
f 88 132 129
f 73 115 113
f 72 113 114
f 72 114 110
f 58 92 94
f 57 58 94
f 57 94 93
f 57 93 89
f 56 59 92
f 56 92 58
f 55 60 91
f 54 55 91
f 54 91 90
f 54 90 59
f 51 53 57
f 51 52 53
f 50 57 89
f 50 51 57
f 49 50 89
f 49 89 86
f 48 82 88
f 48 88 87
f 48 87 81
f 48 49 86
f 48 86 85
f 48 85 84
f 48 84 83
f 48 83 82
f 47 79 78
f 47 48 81
f 47 81 80
f 59 90 95
f 59 96 92
f 59 95 96
f 60 98 97
f 71 113 72
f 71 73 113
f 70 110 112
f 70 112 111
f 70 111 109
f 70 72 110
f 69 70 109
f 68 69 109
f 67 68 109
f 67 109 108
f 67 108 107
f 64 67 107
f 64 107 106
f 176 235 234
f 64 106 105
f 64 65 66
f 64 66 67
f 63 64 104
f 63 104 103
f 63 103 102
f 63 102 101
f 63 101 100
f 62 63 100
f 62 100 99
f 61 99 98
f 61 62 99
f 60 97 91
f 60 61 98
f 64 105 104
f 176 236 235
f 151 835 791
f 176 238 237
f 358 417 416
f 357 358 416
f 357 416 413
f 356 415 414
f 356 393 415
f 355 414 388
f 355 356 414
f 354 357 413
f 354 413 411
f 353 354 411
f 351 411 412
f 351 412 408
f 351 352 353
f 351 353 411
f 350 351 408
f 349 403 410
f 348 409 401
f 348 349 410
f 348 410 409
f 347 350 408
f 347 408 407
f 347 407 406
f 346 347 406
f 345 346 406
f 345 406 405
f 345 405 404
f 345 404 403
f 358 366 417
f 345 403 349
f 359 418 362
f 359 360 419
f 375 378 433
f 372 373 432
f 372 432 431
f 372 431 430
f 371 372 430
f 371 430 429
f 371 429 428
f 371 428 427
f 370 371 427
f 176 237 236
f 369 427 426
f 367 426 420
f 367 420 368
f 367 369 426
f 366 424 425
f 366 425 417
f 365 423 424
f 365 424 366
f 364 421 423
f 364 423 365
f 363 364 365
f 361 418 422
f 361 422 421
f 361 421 364
f 361 362 418
f 360 368 420
f 360 420 419
f 359 419 418
f 344 345 349
f 343 399 402
f 343 402 398
f 327 329 385
f 326 376 384
f 326 384 383
f 326 383 382
f 324 326 382
f 324 382 381
f 324 381 325
f 323 328 380
f 322 323 380
f 322 380 379
f 321 322 379
f 321 379 378
f 321 378 375
f 320 375 377
f 320 377 376
f 320 376 326
f 320 321 375
f 319 320 326
f 313 314 374
f 313 374 373
f 313 373 372
f 313 372 371
f 312 313 371
f 312 371 370
f 311 312 370
f 311 370 369
f 310 369 367
f 327 386 328
f 327 385 386
f 328 386 380
f 329 332 387
f 342 343 398
f 340 348 401
f 340 401 400
f 340 400 399
f 340 399 343
f 340 341 348
f 338 397 396
f 338 339 342
f 338 342 398
f 338 398 397
f 337 338 396
f 337 396 395
f 336 337 395
f 375 434 377
f 336 395 394
f 334 335 336
f 334 336 393
f 334 393 356
f 333 392 391
f 333 388 392
f 332 333 391
f 332 391 390
f 332 390 389
f 332 389 387
f 331 355 388
f 330 331 388
f 330 388 333
f 329 387 385
f 336 394 393
f 310 311 369
f 375 433 434
f 376 436 435
f 421 422 482
f 421 482 423
f 420 426 481
f 420 481 480
f 419 420 480
f 419 480 479
f 418 419 479
f 418 479 478
f 418 478 477
f 418 477 422
f 417 425 476
f 417 476 475
f 416 417 475
f 416 475 472
f 415 453 474
f 415 474 473
f 414 415 473
f 414 473 448
f 413 416 472
f 413 472 471
f 412 471 468
f 411 413 471
f 411 471 412
f 410 467 470
f 409 410 470
f 409 470 469
f 409 469 463
f 422 483 482
f 408 412 468
f 422 477 483
f 423 482 484
f 440 498 499
f 440 499 497
f 440 496 498
f 439 440 497
f 434 495 496
f 434 496 440
f 433 494 495
f 433 495 434
f 433 441 494
f 432 492 493
f 431 491 490
f 431 432 493
f 431 493 492
f 431 492 491
f 430 431 490
f 429 430 490
f 429 490 489
f 428 429 489
f 427 428 489
f 427 489 488
f 426 427 488
f 426 488 481
f 425 485 487
f 425 487 486
f 425 486 476
f 424 484 485
f 424 485 425
f 423 484 424
f 408 468 467
f 406 407 408
f 405 406 408
f 390 391 392
f 390 392 451
f 390 451 450
f 389 390 450
f 389 450 449
f 389 449 447
f 388 414 448
f 388 448 392
f 387 446 444
f 387 389 447
f 387 447 446
f 386 445 443
f 385 444 445
f 385 445 386
f 385 387 444
f 380 386 443
f 379 380 443
f 379 443 442
f 378 379 442
f 378 442 441
f 378 441 433
f 377 434 440
f 377 440 439
f 377 439 438
f 377 438 437
f 377 437 436
f 376 377 436
f 392 452 451
f 392 448 452
f 393 453 415
f 393 394 453
f 404 405 408
f 403 408 467
f 403 467 410
f 403 404 408
f 401 461 466
f 401 466 465
f 401 465 464
f 401 464 460
f 401 409 463
f 401 463 462
f 401 462 461
f 400 459 458
f 400 401 460
f 376 435 384
f 400 460 459
f 399 400 458
f 399 458 455
f 398 402 456
f 398 456 457
f 397 398 457
f 397 457 456
f 397 456 402
f 395 396 397
f 395 397 402
f 395 402 455
f 395 455 454
f 394 395 454
f 394 454 453
f 399 455 402
f 309 368 360
f 369 370 427
f 308 368 309
f 228 242 280
f 227 280 281
f 227 281 279
f 227 228 280
f 226 227 279
f 226 279 277
f 225 278 268
f 224 277 278
f 224 278 225
f 224 226 277
f 222 223 225
f 222 225 268
f 221 265 276
f 221 276 269
f 219 220 275
f 219 275 274
f 219 274 264
f 219 264 273
f 218 219 273
f 218 273 262
f 217 221 269
f 216 269 272
f 216 272 271
f 216 271 270
f 216 270 220
f 216 217 269
f 214 215 218
f 229 283 282
f 213 266 265
f 229 230 283
f 230 284 283
f 243 298 297
f 242 243 297
f 242 297 280
f 241 244 296
f 241 296 295
f 240 294 293
f 239 241 295
f 239 295 294
f 239 294 240
f 237 293 292
f 237 238 240
f 237 240 293
f 236 237 292
f 236 292 291
f 236 291 289
f 235 289 290
f 235 236 289
f 234 235 290
f 234 290 288
f 234 288 287
f 233 234 287
f 233 287 286
f 233 286 285
f 232 233 285
f 232 285 284
f 230 231 232
f 230 232 284
f 229 282 243
f 243 282 298
f 212 222 268
f 212 267 266
f 193 251 246
f 193 249 250
f 192 247 249
f 192 249 193
f 191 195 248
f 190 191 248
f 190 248 247
f 190 247 192
f 189 193 246
f 189 246 245
f 189 245 244
f 188 189 244
f 188 244 241
f 187 229 243
f 186 187 243
f 186 243 242
f 185 186 242
f 308 367 368
f 184 188 241
f 184 241 239
f 183 184 239
f 180 183 239
f 180 181 183
f 179 239 240
f 179 240 238
f 179 180 239
f 176 179 238
f 193 250 251
f 212 268 267
f 194 196 252
f 194 252 253
f 212 266 213
f 211 265 221
f 211 213 265
f 205 214 218
f 205 218 262
f 205 210 214
f 204 262 264
f 204 264 263
f 204 263 261
f 204 205 262
f 203 204 261
f 202 203 261
f 202 261 209
f 201 206 260
f 201 260 259
f 200 201 259
f 200 259 258
f 198 199 200
f 198 200 258
f 197 198 258
f 197 258 257
f 197 257 256
f 197 256 255
f 196 254 252
f 196 197 255
f 196 255 254
f 195 253 248
f 194 253 195
f 244 299 296
f 185 242 228
f 245 300 299
f 292 293 351
f 292 351 350
f 291 292 350
f 291 350 347
f 290 344 349
f 290 349 348
f 290 348 341
f 289 344 290
f 289 291 347
f 289 347 346
f 289 346 345
f 289 345 344
f 288 340 343
f 288 343 342
f 288 342 339
f 288 290 341
f 288 341 340
f 287 288 339
f 287 339 338
f 286 287 338
f 286 338 337
f 285 286 337
f 285 337 336
f 284 285 336
f 284 336 335
f 282 284 335
f 282 335 334
f 293 352 351
f 282 334 298
f 293 294 352
f 295 353 352
f 244 245 299
f 308 310 367
f 307 365 366
f 307 366 358
f 306 363 365
f 306 365 307
f 304 361 364
f 304 364 363
f 304 363 306
f 303 359 362
f 303 362 361
f 303 361 304
f 302 309 360
f 301 302 360
f 301 360 359
f 301 359 303
f 300 307 358
f 300 358 357
f 299 300 357
f 299 357 354
f 298 334 356
f 298 356 355
f 297 298 355
f 297 355 331
f 296 299 354
f 296 354 353
f 295 296 353
f 294 295 352
f 282 283 284
f 305 306 307
f 281 333 332
f 256 257 315
f 256 315 314
f 256 314 313
f 256 313 312
f 255 256 312
f 255 312 311
f 254 310 308
f 254 255 311
f 254 311 310
f 253 309 302
f 252 308 309
f 252 309 253
f 252 254 308
f 251 305 307
f 251 307 300
f 250 304 306
f 250 306 305
f 250 305 251
f 250 303 304
f 249 301 303
f 249 303 250
f 248 253 302
f 245 246 300
f 247 302 301
f 247 301 249
f 246 251 300
f 281 330 333
f 257 316 315
f 257 317 316
f 247 248 302
f 258 318 317
f 280 297 331
f 257 258 317
f 280 331 330
f 279 329 327
f 279 281 329
f 278 328 323
f 277 327 328
f 277 328 278
f 277 279 327
f 276 319 326
f 276 326 324
f 269 324 325
f 269 325 272
f 280 330 281
f 268 278 323
f 258 259 318
f 259 260 318
f 269 276 324
f 262 273 264
f 265 266 319
f 265 319 276
f 266 320 319
f 281 332 329
f 266 322 321
f 266 267 322
f 267 268 323
f 267 323 322
f 266 321 320
