# https://github.com/mikedh/trimesh
v 0.00338000 -0.00264700 0.00135300
v 0.00389000 -0.00309400 0.00133000
v 0.00319400 -0.00289500 0.00134000
v 0.00307200 -0.00303700 0.00132900
v 0.00398500 -0.00149400 0.00132200
v 0.00374500 -0.00203400 0.00134900
v 0.00368300 -0.00215300 0.00135200
v 0.00398500 -0.00317500 0.00132600
v 0.00398500 -0.00409500 0.00126100
v 0.00288400 -0.00322500 0.00130300
v 0.00276600 -0.00332600 0.00128400
v 0.00372400 -0.00407300 0.00126000
v -0.00484700 0.00193700 -0.00245100
v -0.00052200 0.00737500 -0.00245100
v -0.00004900 0.00778800 -0.00245100
v 0.00053900 0.00800700 -0.00245100
v 0.00116700 0.00800500 -0.00245100
v 0.00175400 0.00778100 -0.00245100
v 0.00193700 0.00765300 -0.00245100
v 0.00398500 0.00602400 -0.00245100
v 0.00398500 -0.00158700 0.00132600
v 0.00396100 -0.00156000 0.00132600
v 0.00240800 -0.00357000 0.00121200
v 0.00398500 -0.00219200 0.00133300
v 0.00398500 -0.00237000 0.00133500
v 0.00398500 -0.00428500 0.00124700
v 0.00377200 -0.00485400 0.00114900
v 0.00298200 -0.00418600 0.00117600
v 0.00398500 -0.00502900 0.00113900
v -0.00487200 0.00184200 -0.00245100
v -0.00484700 0.00193700 -0.00954900
v -0.00472500 0.00233600 -0.00939500
v -0.00448800 0.00292500 -0.00278500
v -0.00374500 0.00412500 -0.00295000
v 0.00231200 -0.00362600 0.00118900
v 0.00202900 -0.00380400 0.00110700
v -0.00091200 0.00768600 -0.00295000
v -0.00030500 0.00821700 -0.00295000
v -0.00024300 0.00825300 -0.00295000
v 0.00045100 0.00849900 -0.00295000
v 0.00059300 0.00852100 -0.00295000
v 0.00125900 0.00849600 -0.00295000
v 0.00146800 0.00844700 -0.00295000
v 0.00201300 0.00820800 -0.00295000
v 0.00224900 0.00804500 -0.00295000
v 0.00398500 0.00666300 -0.00295000
v 0.00398500 -0.00574200 0.00098000
v 0.00363900 -0.00542000 0.00100500
v 0.00282200 -0.00470000 0.00103700
v -0.00504700 0.00057600 -0.00245100
v -0.00487200 0.00184200 -0.00954900
v 0.00188400 -0.00390100 0.00105500
v 0.00398500 -0.00147700 -0.01331900
v -0.00052200 0.00737500 -0.00954900
v -0.00374500 0.00412500 -0.00905000
v -0.00431100 0.00327400 -0.00913600
v -0.00443200 0.00304000 -0.00918600
v 0.00177500 -0.00397600 -0.01301200
v 0.00225300 -0.00366200 -0.01317300
v 0.00240800 -0.00357000 -0.01321200
v -0.00443100 0.00304400 -0.00445100
v -0.00396500 0.00383100 -0.00293900
v -0.00091200 0.00768600 -0.00905000
v -0.00024300 0.00825300 -0.00905000
v 0.00059300 0.00852100 -0.00905000
v 0.00146800 0.00844700 -0.00905000
v 0.00224900 0.00804500 -0.00905000
v 0.00398500 0.00666300 -0.00905000
v 0.00398500 -0.00604000 0.00088800
v 0.00351200 -0.00592300 0.00082100
v 0.00178200 -0.00436900 0.00088800
v 0.00267000 -0.00516000 0.00085800
v -0.00495100 -0.00070000 -0.00245100
v -0.00504700 0.00057600 -0.00954900
v 0.00143200 -0.00422900 0.00084200
v 0.00382100 -0.00188000 -0.01334300
v 0.00398500 -0.00198400 -0.01333500
v 0.00398500 0.00602400 -0.00954900
v 0.00193700 0.00765300 -0.00954900
v 0.00133000 0.00796600 -0.00954900
v 0.00064900 0.00802300 -0.00954900
v -0.00000100 0.00781500 -0.00954900
v 0.00276600 -0.00332600 -0.01328400
v 0.00320200 -0.00288400 -0.01334200
v 0.00350400 -0.00246000 -0.01335600
v -0.00443100 0.00304400 -0.00754900
v 0.00134200 -0.00429900 -0.01278900
v 0.00178200 -0.00436900 -0.01288800
v 0.00267000 -0.00516000 -0.01285800
v 0.00282200 -0.00470000 -0.01303700
v 0.00197300 -0.00396300 -0.01305700
v 0.00298200 -0.00418600 -0.01317600
v 0.00398500 0.00655900 -0.00913200
v 0.00398500 -0.00632200 0.00080000
v 0.00339600 -0.00636900 0.00060000
v -0.00458500 -0.00192500 -0.00245100
v -0.00495100 -0.00070000 -0.00954900
v 0.00104800 -0.00454500 0.00057300
v 0.00160300 -0.00473800 0.00068700
v 0.00374500 -0.00203400 -0.01334900
v 0.00398500 -0.00210600 -0.01333600
v 0.00288400 -0.00322500 -0.01330300
v 0.00377200 -0.00485400 -0.01314900
v 0.00372400 -0.00407300 -0.01326000
v 0.00398500 -0.00428500 -0.01324700
v 0.00398500 -0.00317500 -0.01332600
v 0.00389000 -0.00309400 -0.01333000
v 0.00398500 -0.00290400 -0.01333200
v 0.00398500 -0.00262000 -0.01333800
v 0.00097700 -0.00460600 -0.01251100
v 0.00160300 -0.00473800 -0.01268700
v 0.00339600 -0.00636900 -0.01260000
v 0.00351200 -0.00592300 -0.01282100
v 0.00363900 -0.00542000 -0.01300500
v 0.00398500 -0.00652000 0.00071800
v 0.00398500 -0.00695600 0.00053500
v 0.00328900 -0.00675800 0.00034700
v -0.00458500 -0.00192500 -0.00954900
v 0.00072800 -0.00483600 0.00024900
v -0.00396800 -0.00304600 -0.00245100
v 0.00398500 -0.00245300 -0.01333800
v 0.00398500 -0.00521500 -0.01310000
v 0.00398500 -0.00502900 -0.01313900
v 0.00068600 -0.00487800 -0.01219700
v 0.00328900 -0.00675800 -0.01234500
v 0.00398500 -0.00736700 -0.01231400
v 0.00398500 -0.00728800 -0.01235600
v 0.00398500 -0.00687300 -0.01257400
v 0.00398500 -0.00683200 -0.01259500
v 0.00398500 -0.00602200 -0.01289400
v 0.00398500 -0.00665200 -0.01266800
v 0.00398500 -0.00632200 -0.01280000
v 0.00398500 -0.00567000 -0.01299900
v 0.00398500 -0.00706600 0.00047600
v 0.00398500 -0.00736700 0.00031400
v -0.00396800 -0.00304600 -0.00954900
v 0.00045600 -0.00510900 -0.00014600
v 0.00397700 -0.00788800 -0.00005100
v -0.00312700 -0.00401000 -0.00245100
v 0.00044100 -0.00512400 -0.01183000
v 0.00398500 -0.00780600 -0.01201700
v 0.00398500 -0.00779900 -0.01202300
v 0.00398500 -0.00786300 -0.00002900
v -0.00312700 -0.00401000 -0.00954900
v 0.00024400 -0.00533800 -0.00059000
v 0.00398500 -0.00850800 -0.00065000
v 0.00398500 -0.00789200 -0.00004900
v 0.00398500 -0.00789900 -0.00005500
v 0.00398500 -0.00858200 -0.00074300
v 0.00398500 -0.00903100 -0.00140800
v 0.00398500 -0.00907700 -0.00150200
v 0.00398500 -0.00939700 -0.00222600
v 0.00398500 -0.00942600 -0.00232600
v 0.00398500 -0.00962500 -0.00306700
v 0.00398500 -0.00965400 -0.00325600
v 0.00398500 -0.00972600 -0.00390500
v 0.00398500 -0.00983000 -0.00600000
v 0.00023800 -0.00534500 -0.01139200
v 0.00398500 -0.00850800 -0.01135100
v 0.00390600 -0.00811300 -0.01170200
v 0.00398500 -0.00786300 -0.01197000
v 0.00398500 -0.00972600 -0.00809500
v 0.00398500 -0.00965400 -0.00874400
v 0.00398500 -0.00962500 -0.00893300
v 0.00398500 -0.00960600 -0.00901900
v 0.00398500 -0.00942100 -0.00969600
v 0.00398500 -0.00939700 -0.00977400
v 0.00398500 -0.00929700 -0.01001900
v 0.00398500 -0.00905600 -0.01054400
v 0.00398500 -0.00903100 -0.01059200
v 0.00398500 -0.00870200 -0.01108000
v 0.00398500 -0.00817900 -0.01169800
f 1 3 2
f 78 79 93
f 76 100 85
f 76 77 101
f 76 101 100
f 75 98 99
f 75 99 95
f 74 87 97
f 73 96 98
f 73 98 75
f 73 97 118
f 73 118 96
f 71 75 72
f 70 75 95
f 70 95 94
f 70 72 75
f 69 70 94
f 67 68 93
f 83 84 102
f 67 93 79
f 83 103 92
f 83 102 104
f 90 114 113
f 89 90 113
f 87 110 97
f 87 88 89
f 87 89 113
f 87 113 112
f 87 112 111
f 87 111 110
f 85 100 109
f 85 109 108
f 85 108 106
f 85 106 107
f 84 85 107
f 84 107 106
f 84 106 105
f 84 105 104
f 84 104 102
f 83 104 103
f 66 67 79
f 66 79 80
f 66 80 81
f 53 85 84
f 53 84 83
f 53 83 60
f 53 54 82
f 53 82 81
f 53 81 80
f 53 80 79
f 53 79 78
f 53 77 76
f 52 75 71
f 51 58 74
f 50 73 75
f 50 75 52
f 50 74 97
f 50 97 73
f 49 71 72
f 49 72 70
f 53 76 85
f 54 64 82
f 54 63 64
f 54 55 63
f 65 66 81
f 64 65 81
f 64 81 82
f 60 83 92
f 59 60 92
f 59 92 90
f 59 90 91
f 58 87 74
f 90 92 114
f 58 59 91
f 58 90 89
f 58 89 88
f 58 88 87
f 57 61 86
f 56 61 62
f 56 57 86
f 56 86 61
f 55 56 62
f 58 91 90
f 92 103 114
f 94 95 115
f 95 116 115
f 139 155 154
f 139 154 153
f 139 153 152
f 139 152 151
f 139 151 150
f 139 150 149
f 139 149 146
f 139 146 145
f 138 146 148
f 138 148 147
f 138 147 143
f 137 145 146
f 137 146 138
f 137 139 145
f 136 140 144
f 135 138 143
f 124 125 126
f 139 156 155
f 139 157 156
f 139 144 157
f 140 158 144
f 160 161 172
f 159 160 172
f 144 158 159
f 144 159 171
f 144 171 170
f 144 170 169
f 144 169 168
f 144 168 167
f 124 126 142
f 144 167 166
f 144 165 164
f 144 164 163
f 144 163 162
f 144 162 157
f 140 141 161
f 140 161 160
f 140 160 159
f 140 159 158
f 144 166 165
f 49 52 71
f 124 142 141
f 120 136 144
f 110 112 125
f 110 125 124
f 104 105 123
f 103 104 123
f 103 123 122
f 103 122 114
f 100 101 121
f 100 121 109
f 98 119 117
f 97 110 118
f 96 118 136
f 96 136 120
f 96 120 119
f 96 119 98
f 95 99 98
f 95 98 117
f 95 117 116
f 110 111 112
f 110 124 118
f 112 126 125
f 112 127 126
f 120 144 139
f 120 139 137
f 119 137 138
f 119 138 135
f 119 120 137
f 118 124 136
f 117 119 135
f 117 135 134
f 124 141 140
f 116 117 134
f 114 133 130
f 113 130 132
f 113 132 131
f 113 131 129
f 113 114 130
f 112 113 129
f 112 129 128
f 112 128 127
f 114 122 133
f 48 49 70
f 124 140 136
f 47 48 69
f 5 155 156
f 5 156 157
f 5 157 162
f 5 162 163
f 5 163 164
f 5 164 165
f 5 165 166
f 5 166 167
f 5 167 168
f 5 168 169
f 5 169 170
f 5 170 171
f 5 171 159
f 5 159 172
f 5 172 161
f 5 161 141
f 5 141 142
f 5 154 155
f 5 142 126
f 5 153 154
f 5 151 152
f 5 8 9
f 5 9 26
f 5 26 29
f 5 29 47
f 5 47 69
f 5 69 94
f 5 94 115
f 5 115 116
f 5 116 134
f 5 134 135
f 5 135 143
f 5 143 147
f 5 147 148
f 5 148 146
f 5 146 149
f 5 149 150
f 5 150 151
f 5 152 153
f 5 126 127
f 5 127 128
f 5 128 129
f 5 16 15
f 5 15 14
f 5 14 13
f 4 10 12
f 4 12 9
f 4 5 11
f 4 11 10
f 3 4 9
f 3 9 8
f 2 3 8
f 2 8 7
f 1 2 7
f 1 7 6
f 1 6 5
f 1 5 4
f 1 4 3
f 48 70 69
f 5 17 16
f 5 18 17
f 5 19 18
f 5 20 19
f 5 129 131
f 5 131 132
f 5 132 130
f 5 130 133
f 5 133 122
f 5 122 123
f 5 123 105
f 5 105 106
f 5 25 8
f 5 106 108
f 5 109 121
f 5 121 101
f 5 101 77
f 5 77 53
f 5 53 78
f 5 78 93
f 5 93 68
f 5 46 20
f 5 108 109
f 5 24 25
f 5 68 46
f 5 22 21
f 31 53 60
f 31 60 59
f 31 59 58
f 31 58 51
f 31 32 57
f 31 57 56
f 31 56 55
f 31 55 54
f 31 54 53
f 30 50 52
f 30 52 36
f 30 51 74
f 30 74 50
f 28 49 48
f 28 35 36
f 28 36 49
f 27 28 48
f 32 33 57
f 33 61 57
f 33 62 61
f 33 34 62
f 45 46 68
f 5 21 24
f 45 68 67
f 44 45 67
f 44 67 66
f 43 44 66
f 42 43 66
f 42 66 65
f 27 48 47
f 41 42 65
f 40 41 65
f 39 40 64
f 38 64 63
f 37 38 63
f 36 52 49
f 34 37 63
f 34 63 55
f 34 55 62
f 40 65 64
f 27 47 29
f 38 39 64
f 7 8 25
f 13 33 32
f 13 32 31
f 13 31 51
f 12 27 29
f 12 29 26
f 11 23 28
f 11 28 27
f 11 27 12
f 13 34 33
f 10 11 12
f 6 24 21
f 6 21 22
f 6 7 25
f 6 25 24
f 5 13 23
f 5 23 11
f 5 6 22
f 23 35 28
f 9 12 26
f 13 14 34
f 13 51 30
f 17 43 42
f 18 45 44
f 18 44 43
f 17 18 43
f 13 35 23
f 17 42 41
f 19 20 45
f 16 17 41
f 16 40 39
f 16 41 40
f 15 39 38
f 14 15 38
f 14 38 37
f 20 46 45
f 14 37 34
f 13 30 36
f 13 36 35
f 15 16 39
f 18 19 45
