# https://github.com/mikedh/trimesh
v 0.00512100 -0.00095800 -0.01126000
v 0.00562600 -0.00073500 -0.01121700
v 0.00559700 -0.00066600 -0.01117800
v 0.00616500 -0.00054500 -0.01110700
v 0.00615100 -0.00049600 -0.01104200
v 0.00645800 -0.00051500 -0.01099400
v 0.00646300 -0.00056500 -0.01105800
v 0.00617500 -0.00061800 -0.01114700
v 0.00673000 -0.00070600 -0.01104000
v 0.00674500 -0.00063900 -0.01100000
v 0.00674700 -0.00059100 -0.01093700
v 0.00723800 -0.00085100 -0.01083100
v 0.00724000 -0.00083600 -0.01080800
v 0.00815200 -0.00148500 -0.01041700
v 0.00814900 -0.00152900 -0.01047200
v 0.00723200 -0.00088200 -0.01086800
v 0.00721900 -0.00091800 -0.01089600
v 0.00812900 -0.00158500 -0.01051000
v 0.00738100 -0.00113000 -0.01085400
v 0.00720900 -0.00094100 -0.01090900
v 0.00670900 -0.00077500 -0.01105200
v 0.00717700 -0.00100200 -0.01092400
v 0.00527700 -0.01990100 -0.01003600
v 0.00440900 -0.01990100 -0.01021400
v 0.00649800 -0.00071700 -0.01109900
v 0.00618000 -0.00069400 -0.01115600
v 0.00587100 -0.00074000 -0.01119900
v 0.00361000 -0.01990100 -0.01033200
v 0.00600800 -0.01990100 -0.00982900
v 0.00809800 -0.00163800 -0.01052900
v 0.00834600 -0.00182100 -0.01038400
v 0.00911400 -0.00231600 -0.00983500
v 0.00912400 -0.00224900 -0.00978300
v 0.00912000 -0.00222400 -0.00975200
v 0.00863200 -0.00183300 -0.01005300
v 0.00910300 -0.00219600 -0.00970400
v 0.00955200 -0.00255900 -0.00937300
v 0.00956000 -0.00260100 -0.00941400
v 0.00955400 -0.00265000 -0.00944700
v 0.00996200 -0.00295600 -0.00897200
v 0.00996200 -0.00290800 -0.00894500
v 0.01017700 -0.00316400 -0.00864100
v 0.01029900 -0.00319900 -0.00840200
v 0.01029300 -0.00324600 -0.00841500
v 0.00986900 -0.00529800 -0.00871300
v 0.00995100 -0.00300400 -0.00899100
v 0.00977000 -0.00287200 -0.00921800
v 0.00952600 -0.00534200 -0.00914000
v 0.00955000 -0.00270800 -0.00945300
v 0.00909200 -0.00236800 -0.00985600
v 0.00908500 -0.00538400 -0.00953700
v 0.00856500 -0.00541600 -0.00989500
v 0.00716800 -0.01990100 -0.00928300
v 0.00867600 -0.00896900 -0.00943100
v 0.00910700 -0.00893300 -0.00905500
v 0.00759100 -0.01990100 -0.00894400
v 0.00791300 -0.01990100 -0.00856500
v 0.00767400 -0.01990100 -0.00885000
v 0.00895200 -0.01261200 -0.00859200
v 0.00944100 -0.00889300 -0.00864700
v 0.00967900 -0.00884900 -0.00822000
v 0.01053300 -0.00340500 -0.00777700
v 0.01052600 -0.00331100 -0.00775600
v 0.01029300 -0.00315100 -0.00838300
v 0.00994900 -0.00286600 -0.00891200
v 0.00993000 -0.00283600 -0.00887100
v 0.01024700 -0.00307400 -0.00833500
v 0.01038000 -0.00316800 -0.00801300
v 0.00747000 -0.00039100 -0.00795500
v 0.00953200 -0.00252800 -0.00932900
v 0.00814000 -0.00145800 -0.01035800
v 0.00723300 -0.00081300 -0.01074100
v 0.00746100 -0.00039100 -0.00799800
v 0.00755800 -0.00039100 -0.00644700
v 0.01087900 -0.00340100 -0.00501000
v 0.00755800 -0.00039100 -0.00355600
v 0.00747000 -0.00039100 -0.00204500
v 0.00746100 -0.00039100 -0.00200200
v 0.00814000 -0.00145800 0.00035900
v 0.00863200 -0.00183300 0.00005300
v 0.00815200 -0.00148500 0.00041600
v 0.00724000 -0.00083600 0.00080700
v 0.00723300 -0.00081300 0.00074100
v 0.00674400 -0.00057800 0.00090200
v 0.00674700 -0.00059100 0.00093700
v 0.00674800 -0.00061200 0.00097000
v 0.00723200 -0.00088200 0.00086800
v 0.00814900 -0.00152900 0.00047000
v 0.00912400 -0.00224900 -0.00021700
v 0.00910300 -0.00219600 -0.00029600
v 0.00955200 -0.00255900 -0.00062700
v 0.00956000 -0.00260100 -0.00058600
v 0.00996200 -0.00290600 -0.00105500
v 0.00994900 -0.00286400 -0.00108900
v 0.00953200 -0.00252800 -0.00067000
v 0.00993000 -0.00283600 -0.00112900
v 0.01024700 -0.00307400 -0.00166500
v 0.01029300 -0.00315100 -0.00161700
v 0.01029900 -0.00319900 -0.00159800
v 0.01052600 -0.00331100 -0.00224400
v 0.01038000 -0.00316800 -0.00198700
v 0.01047600 -0.00323300 -0.00227500
v 0.01074600 -0.00344300 -0.00311700
v 0.01053300 -0.00340500 -0.00222300
v 0.01029300 -0.00324600 -0.00158500
v 0.00967900 -0.00884900 -0.00178000
v 0.00986900 -0.00529800 -0.00128700
v 0.00944100 -0.00889300 -0.00135300
v 0.00952600 -0.00534400 -0.00086000
v 0.00910700 -0.00893300 -0.00094500
v 0.00895200 -0.01261200 -0.00140700
v 0.00791300 -0.01990100 -0.00143500
v 0.00848800 -0.01608400 -0.00146500
v 0.00796900 -0.01990100 -0.00152800
v 0.00870400 -0.01610200 -0.00183200
v 0.00919200 -0.01257700 -0.00181300
v 0.00935500 -0.01254100 -0.00222000
v 0.00885400 -0.01611300 -0.00222000
v 0.00812800 -0.01990100 -0.00182300
v 0.00827700 -0.01990100 -0.00222000
v 0.00872800 -0.01858300 -0.00311800
v 0.00852000 -0.01990100 -0.00311800
v 0.00881400 -0.01889400 -0.00397800
v 0.00886700 -0.01854700 -0.00397800
v 0.00987600 -0.01145800 -0.00398900
v 0.00924700 -0.01633300 -0.00499000
v 0.00960500 -0.01381500 -0.00501000
v 0.01032200 -0.00850500 -0.00499000
v 0.01089000 -0.00359400 -0.00400200
v 0.01022200 -0.00781200 -0.00311900
v 0.01075500 -0.00353900 -0.00310500
v 0.00997200 -0.00788200 -0.00222200
v 0.01089000 -0.00358400 -0.00400200
v 0.01094500 -0.00357500 -0.00500000
v 0.01094500 -0.00353500 -0.00498900
v 0.01087700 -0.00349800 -0.00400300
v 0.01082500 -0.00342200 -0.00400600
v 0.01091900 -0.00345100 -0.00500000
v 0.01093300 -0.00347900 -0.00498900
v 0.01094200 -0.00351000 -0.00501100
v 0.01087700 -0.00349800 -0.00599900
v 0.01082500 -0.00342200 -0.00599400
v 0.01069400 -0.00336500 -0.00313600
v 0.01069400 -0.00336500 -0.00686400
v 0.01074600 -0.00344300 -0.00688200
v 0.01089000 -0.00358400 -0.00599900
v 0.01089000 -0.00359400 -0.00599900
v 0.01075500 -0.00353900 -0.00689500
v 0.01020400 -0.00794300 -0.00688600
v 0.00995500 -0.00801200 -0.00777900
v 0.00935500 -0.01254100 -0.00778000
v 0.00919200 -0.01257700 -0.00818700
v 0.00870400 -0.01610200 -0.00816900
v 0.00885400 -0.01611300 -0.00778000
v 0.00871300 -0.01867300 -0.00688700
v 0.00827700 -0.01990100 -0.00778000
v 0.00812800 -0.01990100 -0.00817700
v 0.00796900 -0.01990100 -0.00847200
v 0.00848800 -0.01608400 -0.00853500
v 0.00865500 -0.01990100 -0.00601800
v 0.00851800 -0.01990100 -0.00688700
v 0.00841500 -0.01990100 -0.00728400
v 0.00885100 -0.01864800 -0.00602100
v 0.00871300 -0.01990100 -0.00501000
v 0.00885300 -0.01898800 -0.00501000
v 0.00870000 -0.01990100 -0.00473500
v 0.00865500 -0.01990100 -0.00398200
v 0.00064100 -0.01990100 -0.01029600
v 0.00349300 -0.01990100 -0.01034500
v 0.00161400 -0.01990100 -0.01046400
v 0.00092600 -0.01990100 -0.01039200
v 0.00019100 -0.00439200 -0.01067500
v 0.00106000 -0.01990100 -0.01043700
v 0.00058900 -0.00436000 -0.01080000
v 0.00071400 -0.00427000 -0.01082500
v 0.00067400 -0.00434900 -0.01082300
v 0.00136500 -0.00419000 -0.01098000
v 0.00134500 -0.00412100 -0.01096900
v 0.00399700 -0.00187900 -0.01129400
v 0.00007900 -0.00432200 -0.01062400
v -0.00055200 -0.00435600 -0.01036200
v -0.00054000 -0.00428200 -0.01035600
v -0.00323100 -0.00039100 -0.00803700
v 0.00433100 -0.00152000 -0.01129500
v 0.00416700 -0.00179700 -0.01130500
v 0.00376000 -0.00229900 -0.01128600
v 0.00205600 -0.00382500 -0.01109100
v 0.00209000 -0.00389000 -0.01110300
v 0.00275200 -0.00346400 -0.01118000
v 0.00135700 -0.01990100 -0.01045900
v 0.00178600 -0.01990100 -0.01046500
v 0.00254000 -0.01990100 -0.01043400
v 0.00461300 -0.00137800 -0.01129600
v 0.00515800 -0.00102700 -0.01126700
v 0.00508500 -0.00089500 -0.01122100
v 0.00428100 -0.00146800 -0.01125400
v 0.00557300 -0.00062000 -0.01111100
v 0.00590200 -0.00050700 -0.01099900
v 0.00613900 -0.00047900 -0.01096900
v 0.00610800 -0.00039100 -0.00925100
v -0.00326700 -0.00039100 -0.00800300
v -0.00230500 -0.00372600 -0.00912000
v -0.00174900 -0.00402200 -0.00960400
v -0.00111700 -0.00416100 -0.01003100
v -0.00092100 -0.00429300 -0.01016400
v -0.00097300 -0.00531900 -0.01008700
v -0.00110500 -0.00524400 -0.01001200
v -0.00166300 -0.00441700 -0.00966000
v -0.00168100 -0.00518500 -0.00962000
v -0.00180100 -0.00485500 -0.00953800
v -0.00232200 -0.00451700 -0.00909300
v -0.00233400 -0.00531300 -0.00906200
v -0.00231800 -0.00723700 -0.00899000
v -0.00287200 -0.00745400 -0.00840000
v -0.00290700 -0.00546000 -0.00845000
v -0.00248500 -0.00447800 -0.00893200
v -0.00259700 -0.00352500 -0.00881800
v -0.00265600 -0.00348100 -0.00875200
v -0.00298700 -0.00421300 -0.00836000
v -0.00336700 -0.00562100 -0.00779900
v -0.00326800 -0.00143000 -0.00800300
v -0.00365400 -0.00388600 -0.00713800
v -0.00364600 -0.00680500 -0.00713400
v -0.00331300 -0.00767800 -0.00777400
v -0.00262200 -0.01151000 -0.00831500
v -0.00213000 -0.01116000 -0.00886500
v -0.00168300 -0.00703200 -0.00952700
v 0.00017400 -0.01990100 -0.01001900
v -0.00027400 -0.01990100 -0.00962100
v -0.00155000 -0.01081100 -0.00936500
v -0.00181500 -0.01468200 -0.00877400
v -0.00223900 -0.01504500 -0.00825500
v -0.00067000 -0.01990100 -0.00913200
v -0.00200100 -0.01646300 -0.00822600
v -0.00255600 -0.01538300 -0.00769900
v -0.00279100 -0.01374500 -0.00771100
v -0.00301900 -0.01406900 -0.00712800
v -0.00325600 -0.01216300 -0.00712700
v -0.00300400 -0.01185200 -0.00772700
v -0.00337200 -0.01102800 -0.00712800
v -0.00351900 -0.01124400 -0.00656500
v -0.00360100 -0.00789000 -0.00713300
v -0.00379500 -0.00729200 -0.00654700
v -0.00363500 -0.00714300 -0.00713400
v -0.00383800 -0.00540900 -0.00654300
v -0.00393700 -0.00554200 -0.00592900
v -0.00391600 -0.00380200 -0.00593100
v -0.00376600 -0.00384000 -0.00676500
v -0.00327000 -0.00039100 -0.00799200
v -0.00328200 -0.00039100 -0.00795400
v -0.00373000 -0.00208900 -0.00655900
v -0.00371800 -0.00185800 -0.00654500
v -0.00381800 -0.00189000 -0.00593700
v -0.00383500 -0.00214400 -0.00593700
v -0.00382600 -0.00189000 -0.00584500
v -0.00329400 -0.00039100 -0.00781300
v -0.00339200 -0.00039100 -0.00615300
v -0.00386800 -0.00186300 -0.00499000
v -0.00388800 -0.00217900 -0.00499000
v -0.00382600 -0.00189000 -0.00415500
v -0.00387000 -0.00260300 -0.00415600
v -0.00389100 -0.00299200 -0.00415700
v -0.00388300 -0.00299200 -0.00406400
v -0.00383500 -0.00214400 -0.00406300
v -0.00373200 -0.00208900 -0.00344900
v -0.00371800 -0.00185800 -0.00345500
v -0.00381800 -0.00189000 -0.00406300
v -0.00329400 -0.00039100 -0.00218700
v -0.00336200 -0.00039100 -0.00327800
v -0.00339200 -0.00039100 -0.00384900
v -0.00323500 -0.00039100 -0.00196700
v -0.00328200 -0.00039100 -0.00204600
v -0.00376600 -0.00384000 -0.00323500
v -0.00365400 -0.00388600 -0.00286200
v -0.00383800 -0.00540900 -0.00345700
v -0.00364600 -0.00680500 -0.00286600
v -0.00336500 -0.00561900 -0.00219700
v -0.00338100 -0.00401200 -0.00224000
v -0.00326700 -0.00039100 -0.00199700
v -0.00230500 -0.00372600 -0.00088000
v -0.00259700 -0.00352500 -0.00118200
v -0.00265600 -0.00348100 -0.00124800
v -0.00298700 -0.00421300 -0.00164000
v -0.00326800 -0.00143000 -0.00199700
v -0.00290200 -0.00545800 -0.00154200
v -0.00248500 -0.00447800 -0.00106800
v -0.00232200 -0.00451700 -0.00090700
v -0.00232400 -0.00530900 -0.00092900
v -0.00286600 -0.00745200 -0.00159200
v -0.00331100 -0.00767800 -0.00222300
v -0.00261700 -0.01150600 -0.00167800
v -0.00212000 -0.01115200 -0.00112600
v -0.00230800 -0.00723300 -0.00100100
v -0.00180100 -0.00485500 -0.00046200
v -0.00166700 -0.00702800 -0.00046000
v -0.00166500 -0.00518100 -0.00036800
v -0.00110500 -0.00524400 0.00001200
v -0.00166300 -0.00441700 -0.00034000
v -0.00094500 -0.00434500 0.00014800
v -0.00174900 -0.00402200 -0.00039600
v -0.00111700 -0.00416100 0.00003100
v -0.00092100 -0.00429300 0.00016400
v -0.00097300 -0.00531900 0.00008700
v 0.00019600 -0.01990100 0.00003500
v -0.00153500 -0.01080300 -0.00062400
v -0.00024600 -0.01990100 -0.00034900
v -0.00180600 -0.01467500 -0.00121800
v -0.00223500 -0.01504000 -0.00173700
v -0.00064200 -0.01990100 -0.00082900
v -0.00123800 -0.01990100 -0.00190700
v -0.00097300 -0.01990100 -0.00136300
v -0.00228700 -0.01674000 -0.00230900
v -0.00199700 -0.01646100 -0.00176800
v -0.00255400 -0.01538200 -0.00229700
v -0.00271200 -0.01593000 -0.00286600
v -0.00247300 -0.01697500 -0.00286100
v -0.00161600 -0.01990100 -0.00286100
v -0.00180500 -0.01990100 -0.00348400
v -0.00195300 -0.01990100 -0.00472300
v -0.00189400 -0.01990100 -0.00410600
v -0.00265600 -0.01728200 -0.00404100
v -0.00264100 -0.01735100 -0.00409400
v -0.00270700 -0.01712200 -0.00413000
v -0.00291500 -0.01646800 -0.00500000
v -0.00287000 -0.01645900 -0.00411600
v -0.00287600 -0.01639600 -0.00402200
v -0.00259000 -0.01716600 -0.00345000
v -0.00282100 -0.01620100 -0.00343800
v -0.00301900 -0.01574100 -0.00411700
v -0.00325100 -0.01467100 -0.00500000
v -0.00311100 -0.01518500 -0.00402200
v -0.00321800 -0.01456400 -0.00407400
v -0.00333600 -0.01378500 -0.00413600
v -0.00369800 -0.01103000 -0.00500000
v -0.00349000 -0.01259300 -0.00584500
v -0.00322100 -0.01456600 -0.00588100
v -0.00321300 -0.01456400 -0.00597700
v -0.00317800 -0.01483300 -0.00588300
v -0.00311100 -0.01518500 -0.00597800
v -0.00286200 -0.01649500 -0.00588400
v -0.00287500 -0.01639600 -0.00598100
v -0.00282100 -0.01620100 -0.00656200
v -0.00303900 -0.01502400 -0.00657100
v -0.00329400 -0.01326500 -0.00657100
v -0.00275900 -0.01568100 -0.00713300
v -0.00271200 -0.01593000 -0.00713400
v -0.00228800 -0.01674200 -0.00768700
v -0.00247000 -0.01699000 -0.00713900
v -0.00259000 -0.01716600 -0.00655000
v -0.00265600 -0.01728200 -0.00595900
v -0.00180500 -0.01990100 -0.00651600
v -0.00161600 -0.01990100 -0.00713900
v -0.00195200 -0.01990100 -0.00499300
v -0.00191100 -0.01990100 -0.00580100
v -0.00193200 -0.01990100 -0.00552000
v -0.00099800 -0.01990100 -0.00859100
v -0.00125800 -0.01990100 -0.00804200
v -0.00159900 -0.01990100 -0.00718800
v 0.00066300 -0.01990100 0.00030600
v -0.00055200 -0.00435600 0.00036200
v -0.00054000 -0.00428200 0.00035600
v 0.00007900 -0.00432200 0.00062400
v 0.00019100 -0.00439200 0.00067500
v 0.00071400 -0.00427000 0.00082500
v 0.00058900 -0.00436000 0.00080000
v 0.00067400 -0.00434900 0.00082300
v 0.00134500 -0.00412100 0.00096900
v 0.00399700 -0.00187900 0.00129500
v 0.00433100 -0.00152000 0.00129500
v 0.00413100 -0.00183700 0.00130500
v 0.00376000 -0.00229700 0.00128600
v 0.00177500 -0.01990100 0.00046500
v 0.00254000 -0.01990100 0.00043400
v 0.00460800 -0.00138200 0.00129700
v 0.00515800 -0.00102700 0.00126700
v 0.00512100 -0.00095800 0.00126000
v 0.00562600 -0.00073500 0.00121700
v 0.00559700 -0.00066600 0.00117800
v 0.00508500 -0.00089500 0.00122100
v 0.00428100 -0.00146600 0.00125400
v 0.00557300 -0.00062000 0.00111100
v 0.00615800 -0.00051700 0.00107800
v 0.00616500 -0.00054500 0.00110700
v 0.00615100 -0.00049600 0.00104200
v 0.00664000 -0.00053800 0.00088800
v 0.00614500 -0.00048200 0.00100500
v 0.00590200 -0.00050700 0.00099900
v 0.00613900 -0.00047900 0.00096900
v 0.00620600 -0.00039100 -0.00070700
v 0.00325400 -0.00039100 -0.00195000
v 0.00664000 -0.00053800 -0.01088800
v 0.00325400 -0.00039100 -0.00804900
v -0.00380600 -0.00165700 -0.00498900
v 0.00674500 -0.00063900 0.00100000
v 0.00673000 -0.00070600 0.00104100
v 0.00617500 -0.00061800 0.00114800
v 0.00649800 -0.00071700 0.00109900
v 0.00618000 -0.00069400 0.00115500
v 0.00587100 -0.00074000 0.00119900
v 0.00440900 -0.01990100 0.00021400
v 0.00670900 -0.00077500 0.00105200
v 0.00717700 -0.00100200 0.00092300
v 0.00527700 -0.01990100 0.00003600
v 0.00585500 -0.01990100 -0.00012600
v 0.00737600 -0.00112600 0.00085700
v 0.00720900 -0.00094100 0.00090900
v 0.00812900 -0.00158300 0.00051000
v 0.00809800 -0.00163800 0.00053000
v 0.00600800 -0.01990100 -0.00017100
v 0.00663600 -0.01990100 -0.00042100
v 0.00827500 -0.00177000 0.00042700
v 0.00911500 -0.00231600 -0.00016500
v 0.00955400 -0.00264800 -0.00055400
v 0.00996200 -0.00295600 -0.00102800
v 0.01017700 -0.00316400 -0.00135900
v 0.00995100 -0.00300400 -0.00101000
v 0.00977000 -0.00287200 -0.00078200
v 0.00955000 -0.00270800 -0.00054700
v 0.00908500 -0.00538400 -0.00046300
v 0.00867600 -0.00896900 -0.00056900
v 0.00856400 -0.00541800 -0.00010500
v 0.00716800 -0.01990100 -0.00071700
v 0.00759100 -0.01990100 -0.00105600
v 0.00909200 -0.00236800 -0.00014400
v 0.00325400 -0.01990100 0.00036700
v 0.00360900 -0.01990100 0.00033200
v 0.00106000 -0.01990100 0.00043700
v 0.00135700 -0.01990100 0.00045900
v 0.00275200 -0.00346400 0.00118000
v 0.00209000 -0.00389000 0.00110300
v 0.00136500 -0.00419000 0.00098000
v -0.00365200 -0.01096500 -0.00593300
v -0.00366000 -0.01096700 -0.00583900
v -0.00373600 -0.01011100 -0.00582900
v -0.00389500 -0.00735900 -0.00592000
v -0.00390300 -0.00737600 -0.00582700
v -0.00389200 -0.00763000 -0.00582600
v -0.00394600 -0.00737800 -0.00500000
v -0.00398400 -0.00592800 -0.00499300
v -0.00394600 -0.00521600 -0.00583700
v -0.00398800 -0.00486000 -0.00501000
v -0.00394200 -0.00554200 -0.00412100
v -0.00392600 -0.00667100 -0.00416900
v -0.00390300 -0.00737600 -0.00417300
v -0.00394200 -0.00746200 -0.00500000
v -0.00380200 -0.00923300 -0.00417800
v -0.00389500 -0.00735900 -0.00408000
v -0.00393700 -0.00554200 -0.00407100
v -0.00393700 -0.00434300 -0.00416200
v -0.00391600 -0.00380200 -0.00406900
v -0.00392400 -0.00380200 -0.00416200
v -0.00396800 -0.00382700 -0.00501000
v -0.00392400 -0.00380200 -0.00583800
v -0.00389100 -0.00299200 -0.00584300
v -0.00388300 -0.00299200 -0.00593500
v -0.00387000 -0.00260300 -0.00584400
v -0.00379500 -0.00729200 -0.00345300
v -0.00351900 -0.01124400 -0.00343500
v -0.00360100 -0.00789000 -0.00286700
v -0.00363500 -0.00714300 -0.00286600
v -0.00337200 -0.01102800 -0.00287200
v -0.00325600 -0.01216300 -0.00287300
v -0.00300300 -0.01185000 -0.00226900
v -0.00279000 -0.01374300 -0.00228500
v -0.00301900 -0.01406900 -0.00287200
v -0.00275900 -0.01568100 -0.00286700
v -0.00303900 -0.01502400 -0.00342900
v -0.00321300 -0.01456400 -0.00402300
v -0.00329400 -0.01326500 -0.00342900
v -0.00358900 -0.01169700 -0.00415700
v -0.00365300 -0.01096500 -0.00406900
v -0.00365700 -0.01096500 -0.00411700
v 0.00663600 -0.01990100 -0.00957900
v 0.00988300 -0.01140800 -0.00601100
v 0.01032200 -0.00850500 -0.00501000
v 0.01047600 -0.00323300 -0.00772500
f 374 370 373
f 364 366 367
f 364 367 368
f 364 365 366
f 364 368 362
f 368 271 362
f 368 369 271
f 370 369 368
f 370 368 371
f 370 371 372
f 370 372 373
f 374 373 375
f 381 271 378
f 376 375 377
f 376 377 378
f 376 378 379
f 376 379 369
f 376 369 374
f 374 369 370
f 380 369 379
f 380 379 271
f 380 271 369
f 378 271 379
f 364 363 365
f 382 381 378
f 376 374 375
f 364 362 363
f 353 352 319
f 362 361 360
f 382 378 383
f 353 319 324
f 352 233 319
f 356 233 352
f 357 356 352
f 358 357 352
f 358 352 348
f 358 348 357
f 357 348 347
f 357 347 356
f 356 347 233
f 347 234 233
f 347 235 234
f 319 233 304
f 310 319 304
f 233 168 304
f 229 168 233
f 304 168 359
f 303 304 359
f 303 359 302
f 302 359 360
f 302 360 361
f 302 361 271
f 302 271 301
f 362 271 361
f 362 360 363
f 382 383 86
f 402 406 395
f 384 382 85
f 393 257 258
f 393 258 270
f 390 392 271
f 386 385 78
f 84 78 385
f 85 84 385
f 83 78 84
f 83 79 78
f 86 383 394
f 86 394 87
f 395 87 394
f 395 394 396
f 393 270 257
f 397 395 396
f 398 396 399
f 398 399 400
f 398 400 397
f 397 400 401
f 397 401 395
f 402 395 401
f 402 401 403
f 402 403 404
f 402 404 405
f 402 405 406
f 406 87 395
f 353 324 350
f 398 397 396
f 85 382 86
f 257 270 201
f 271 392 201
f 384 85 385
f 384 385 386
f 384 386 271
f 384 271 387
f 384 387 381
f 384 381 382
f 387 271 381
f 388 271 386
f 388 386 78
f 388 78 389
f 388 389 271
f 389 390 271
f 270 271 201
f 389 200 390
f 78 74 389
f 76 74 78
f 73 200 74
f 73 199 200
f 6 199 73
f 6 73 391
f 11 6 391
f 11 391 73
f 11 7 6
f 6 5 199
f 200 392 390
f 200 201 392
f 74 200 389
f 354 350 351
f 279 278 277
f 355 353 350
f 280 287 300
f 280 300 271
f 301 271 300
f 302 301 300
f 299 302 300
f 299 303 302
f 297 303 299
f 297 304 303
f 297 295 304
f 295 305 304
f 295 292 305
f 295 293 292
f 292 304 305
f 306 304 292
f 306 292 307
f 306 307 308
f 306 308 309
f 306 309 304
f 309 310 304
f 311 310 309
f 312 311 309
f 312 309 313
f 312 313 314
f 312 314 315
f 312 315 316
f 294 287 288
f 294 300 287
f 298 294 296
f 298 300 294
f 279 283 282
f 279 284 283
f 279 277 284
f 406 407 87
f 283 284 277
f 283 277 285
f 282 283 285
f 281 282 285
f 281 285 286
f 281 286 280
f 286 287 280
f 286 288 287
f 312 316 310
f 286 285 288
f 289 285 290
f 289 290 291
f 289 291 292
f 289 292 293
f 289 293 288
f 294 288 293
f 294 293 295
f 296 294 295
f 296 295 297
f 298 296 297
f 298 297 299
f 298 299 300
f 289 288 285
f 312 310 311
f 317 310 316
f 317 316 318
f 339 340 324
f 339 341 340
f 339 342 341
f 339 343 342
f 339 337 343
f 337 344 343
f 337 335 344
f 344 335 241
f 344 241 238
f 344 238 237
f 344 237 343
f 345 343 237
f 330 339 324
f 345 237 235
f 346 235 347
f 346 347 348
f 342 346 348
f 342 348 349
f 342 349 341
f 349 350 341
f 351 350 349
f 351 349 348
f 351 348 352
f 351 352 353
f 354 351 353
f 355 354 353
f 346 345 235
f 355 350 354
f 338 330 336
f 338 337 339
f 317 318 310
f 318 319 310
f 320 319 318
f 320 318 321
f 322 320 321
f 322 321 323
f 322 323 319
f 322 319 320
f 323 324 319
f 325 324 323
f 326 325 323
f 326 323 321
f 338 339 330
f 326 321 327
f 326 328 329
f 326 329 325
f 325 329 324
f 330 324 329
f 330 329 331
f 330 331 332
f 330 332 333
f 330 333 334
f 330 334 335
f 336 330 335
f 336 335 337
f 338 336 337
f 326 327 328
f 406 405 407
f 449 452 441
f 408 405 409
f 461 290 459
f 461 459 458
f 461 458 462
f 461 462 463
f 461 463 290
f 463 291 290
f 463 464 291
f 463 462 464
f 464 462 465
f 314 464 465
f 314 465 466
f 314 466 315
f 328 315 466
f 328 466 467
f 328 467 331
f 328 331 329
f 468 331 467
f 468 467 469
f 468 469 333
f 468 333 332
f 468 332 331
f 470 333 469
f 470 469 458
f 471 470 458
f 471 458 446
f 459 290 460
f 290 285 277
f 276 290 277
f 276 460 290
f 247 246 440
f 247 455 248
f 251 248 455
f 251 455 254
f 251 254 252
f 254 455 456
f 254 456 255
f 456 259 255
f 454 259 456
f 454 456 455
f 454 452 259
f 262 259 452
f 471 446 472
f 451 262 452
f 263 262 450
f 273 263 450
f 273 450 275
f 448 275 450
f 457 275 448
f 447 457 448
f 447 446 457
f 457 446 458
f 457 458 459
f 457 459 460
f 457 460 276
f 457 276 275
f 451 450 262
f 471 472 470
f 472 334 470
f 472 446 334
f 473 31 53
f 53 57 169
f 127 126 163
f 127 163 474
f 127 474 475
f 127 475 128
f 128 475 134
f 128 134 129
f 147 134 475
f 147 475 474
f 147 474 149
f 474 155 149
f 30 31 473
f 474 163 155
f 61 62 150
f 150 62 148
f 63 148 62
f 63 145 148
f 476 145 63
f 476 63 68
f 476 68 69
f 476 69 144
f 476 144 145
f 63 64 68
f 148 145 146
f 41 38 37
f 151 149 155
f 453 440 441
f 30 473 29
f 29 53 28
f 445 334 446
f 445 434 334
f 445 437 434
f 445 438 437
f 434 437 435
f 433 334 434
f 433 335 334
f 470 334 333
f 469 462 458
f 469 465 462
f 469 467 465
f 466 465 467
f 473 53 29
f 328 316 315
f 327 318 316
f 327 321 318
f 314 308 464
f 314 313 308
f 308 313 309
f 308 291 464
f 307 291 308
f 307 292 291
f 273 265 263
f 172 168 181
f 1 195 3
f 28 53 169
f 327 316 328
f 408 407 405
f 453 247 440
f 453 454 455
f 422 409 112
f 410 409 422
f 410 422 411
f 421 411 422
f 421 424 411
f 421 419 424
f 424 419 418
f 412 424 418
f 413 412 418
f 412 411 424
f 409 425 112
f 400 425 409
f 403 400 409
f 404 403 409
f 404 409 405
f 401 400 403
f 426 425 400
f 426 400 399
f 375 426 399
f 375 399 377
f 396 377 399
f 396 383 377
f 396 394 383
f 377 383 378
f 375 425 426
f 423 422 112
f 423 112 110
f 420 423 110
f 420 422 423
f 408 409 410
f 408 410 411
f 408 411 407
f 407 411 412
f 88 407 412
f 89 88 412
f 92 89 412
f 92 412 413
f 92 413 414
f 92 414 93
f 93 414 415
f 93 415 99
f 375 373 425
f 99 415 105
f 107 415 416
f 107 416 109
f 417 109 416
f 417 416 414
f 417 414 413
f 417 413 418
f 417 418 109
f 109 418 419
f 109 419 110
f 420 110 419
f 420 419 421
f 420 421 422
f 107 105 415
f 373 372 425
f 372 359 425
f 427 359 372
f 243 435 246
f 436 246 435
f 436 435 437
f 436 437 438
f 436 438 439
f 436 439 246
f 439 440 246
f 439 441 440
f 439 442 441
f 443 442 439
f 443 439 438
f 444 443 438
f 243 434 435
f 444 438 445
f 444 446 447
f 444 447 443
f 443 447 448
f 443 448 442
f 449 442 448
f 449 448 450
f 449 450 451
f 449 451 452
f 279 282 281
f 449 441 442
f 453 441 452
f 453 452 454
f 444 445 446
f 453 455 247
f 243 241 434
f 432 433 434
f 428 427 372
f 428 372 371
f 428 371 429
f 428 429 427
f 430 427 429
f 430 429 371
f 430 371 368
f 430 368 367
f 430 367 431
f 430 431 427
f 366 427 431
f 366 431 367
f 432 434 241
f 365 427 366
f 427 363 359
f 363 360 359
f 359 168 425
f 112 425 168
f 414 416 415
f 88 87 407
f 340 350 324
f 340 341 350
f 342 345 346
f 342 343 345
f 432 241 335
f 432 335 433
f 365 363 427
f 279 281 280
f 212 210 213
f 279 271 272
f 98 93 99
f 98 99 100
f 98 100 101
f 98 101 97
f 97 101 77
f 102 77 101
f 100 102 101
f 100 103 102
f 100 104 103
f 100 99 104
f 104 99 105
f 106 104 105
f 106 105 107
f 108 106 107
f 108 107 109
f 108 109 110
f 111 108 110
f 111 110 112
f 113 111 112
f 113 112 114
f 113 114 115
f 113 115 111
f 111 115 116
f 111 116 108
f 108 116 106
f 94 93 98
f 94 98 97
f 94 97 96
f 97 77 96
f 77 75 76
f 77 76 78
f 77 78 79
f 80 77 79
f 81 80 79
f 82 81 79
f 82 79 83
f 82 83 84
f 82 84 85
f 82 85 86
f 82 86 87
f 82 87 88
f 116 117 106
f 82 88 81
f 81 89 80
f 89 90 80
f 91 90 89
f 91 89 92
f 91 92 93
f 91 93 94
f 95 91 94
f 95 94 96
f 95 96 77
f 95 77 90
f 95 90 91
f 80 90 77
f 81 88 89
f 75 74 76
f 116 118 117
f 115 119 118
f 137 103 136
f 138 137 136
f 139 138 136
f 139 136 140
f 139 140 141
f 139 141 138
f 138 141 142
f 138 142 75
f 138 75 137
f 137 75 77
f 137 77 143
f 137 143 103
f 102 103 143
f 102 143 77
f 142 69 75
f 142 144 69
f 142 145 144
f 142 141 145
f 141 146 145
f 140 146 141
f 135 146 140
f 135 140 136
f 135 134 146
f 146 134 147
f 148 146 147
f 133 136 103
f 133 135 136
f 133 134 135
f 133 129 134
f 114 119 115
f 114 112 119
f 119 112 120
f 119 120 118
f 121 118 120
f 121 120 122
f 121 122 123
f 121 123 124
f 125 121 124
f 125 124 126
f 125 126 127
f 125 127 128
f 115 118 116
f 125 128 129
f 130 129 131
f 130 131 132
f 130 132 117
f 130 117 121
f 130 121 125
f 121 117 118
f 132 106 117
f 132 104 106
f 132 131 104
f 104 131 103
f 133 103 131
f 133 131 129
f 130 125 129
f 75 69 74
f 69 73 74
f 69 71 73
f 25 26 8
f 25 24 26
f 24 27 26
f 24 28 27
f 24 23 28
f 23 29 28
f 22 29 23
f 22 19 29
f 22 20 19
f 30 29 19
f 18 30 19
f 18 31 30
f 18 32 31
f 18 15 32
f 33 32 15
f 33 15 14
f 34 33 14
f 34 14 35
f 34 35 36
f 34 36 37
f 34 37 33
f 33 37 38
f 33 38 32
f 39 32 38
f 40 39 38
f 25 8 9
f 21 25 9
f 21 24 25
f 21 23 24
f 48 55 51
f 2 1 3
f 4 2 3
f 4 3 5
f 4 5 6
f 4 6 7
f 8 4 7
f 9 8 7
f 10 9 7
f 10 7 11
f 12 10 11
f 12 11 13
f 40 38 41
f 12 13 14
f 12 15 16
f 12 16 10
f 16 17 10
f 16 15 17
f 17 15 18
f 17 18 19
f 17 19 20
f 17 20 9
f 17 9 10
f 21 9 20
f 21 20 22
f 21 22 23
f 12 14 15
f 42 40 41
f 42 41 43
f 42 43 44
f 45 44 61
f 44 62 61
f 43 62 44
f 43 63 62
f 43 64 63
f 41 64 43
f 65 64 41
f 65 41 37
f 65 37 66
f 65 66 67
f 65 67 64
f 67 68 64
f 45 61 60
f 67 69 68
f 70 69 66
f 37 70 66
f 37 36 70
f 70 36 69
f 35 69 36
f 35 71 69
f 14 71 35
f 14 13 71
f 72 71 13
f 72 13 11
f 72 11 73
f 72 73 71
f 67 66 69
f 148 147 149
f 45 48 46
f 60 55 48
f 42 44 45
f 42 45 46
f 42 46 40
f 47 40 46
f 47 46 48
f 47 48 49
f 47 49 39
f 47 39 40
f 39 49 32
f 50 32 49
f 50 49 51
f 50 51 52
f 45 60 48
f 50 52 31
f 52 53 31
f 54 53 52
f 54 52 51
f 54 51 55
f 54 55 56
f 54 56 53
f 56 57 53
f 58 57 56
f 58 56 55
f 58 55 57
f 59 57 55
f 60 59 55
f 50 31 32
f 150 148 149
f 150 149 151
f 61 150 151
f 210 227 213
f 209 227 210
f 209 207 227
f 228 227 207
f 228 207 206
f 228 206 168
f 228 168 229
f 228 229 226
f 230 228 226
f 230 226 227
f 230 227 228
f 231 226 229
f 232 231 229
f 232 229 233
f 232 233 234
f 232 234 235
f 236 232 235
f 236 235 237
f 236 237 238
f 236 238 239
f 236 239 225
f 236 225 232
f 232 225 231
f 231 225 226
f 239 224 225
f 213 227 226
f 214 213 226
f 214 226 225
f 214 225 224
f 208 203 205
f 205 203 204
f 211 203 210
f 212 211 210
f 212 213 214
f 212 214 215
f 212 215 216
f 212 216 211
f 211 216 202
f 211 202 203
f 217 202 216
f 217 216 215
f 239 240 224
f 217 215 218
f 217 201 202
f 219 201 218
f 219 218 215
f 219 215 220
f 219 220 221
f 219 221 201
f 221 220 201
f 222 201 220
f 223 222 220
f 224 223 220
f 224 220 215
f 214 224 215
f 217 218 201
f 239 238 240
f 240 238 241
f 242 240 241
f 261 259 262
f 261 262 263
f 264 261 263
f 264 263 265
f 264 265 266
f 264 266 267
f 264 267 260
f 264 260 261
f 260 267 268
f 260 268 269
f 260 269 258
f 269 270 258
f 261 260 259
f 269 268 270
f 272 271 268
f 272 268 267
f 272 267 266
f 272 266 265
f 272 265 273
f 274 272 273
f 274 273 275
f 274 275 276
f 274 276 277
f 274 277 278
f 274 278 279
f 274 279 272
f 268 271 270
f 208 210 203
f 260 258 259
f 258 257 255
f 242 241 243
f 242 243 244
f 242 244 224
f 242 224 240
f 224 244 223
f 243 223 244
f 245 223 243
f 245 243 246
f 245 246 247
f 245 247 248
f 245 248 222
f 245 222 223
f 258 255 259
f 249 222 248
f 250 248 251
f 250 251 252
f 253 250 252
f 253 252 254
f 253 254 255
f 253 255 256
f 253 256 250
f 250 256 249
f 249 256 201
f 249 201 222
f 256 257 201
f 256 255 257
f 250 249 248
f 279 280 271
f 208 209 210
f 208 205 207
f 166 123 167
f 166 167 164
f 166 164 165
f 167 122 164
f 167 123 122
f 164 122 160
f 122 112 160
f 120 112 122
f 160 112 57
f 57 112 168
f 169 57 168
f 170 169 168
f 171 170 168
f 171 168 172
f 173 171 172
f 174 173 172
f 174 172 175
f 174 175 176
f 174 176 173
f 176 177 173
f 176 178 177
f 176 175 178
f 179 178 175
f 180 179 175
f 180 175 172
f 166 165 123
f 124 123 165
f 124 165 126
f 165 163 126
f 61 151 152
f 61 152 60
f 60 152 59
f 153 59 152
f 154 153 152
f 154 152 151
f 154 151 155
f 154 155 156
f 154 156 157
f 154 157 153
f 157 158 153
f 157 156 158
f 180 172 181
f 158 156 57
f 153 158 159
f 153 159 59
f 59 159 57
f 156 160 57
f 161 160 156
f 162 161 156
f 162 156 155
f 162 155 161
f 161 155 160
f 160 155 163
f 164 160 163
f 165 164 163
f 158 57 159
f 180 181 182
f 180 182 183
f 180 183 179
f 2 194 1
f 1 194 193
f 184 1 193
f 184 193 185
f 184 195 1
f 184 196 195
f 184 183 196
f 183 195 196
f 183 3 195
f 183 197 3
f 198 197 183
f 198 183 5
f 8 26 27
f 198 5 197
f 183 199 5
f 183 200 199
f 183 201 200
f 202 201 183
f 203 202 183
f 204 203 183
f 205 204 183
f 205 183 182
f 205 182 181
f 205 181 168
f 205 168 206
f 205 206 207
f 197 5 3
f 208 207 209
f 8 2 4
f 27 194 2
f 179 183 184
f 179 184 185
f 179 185 186
f 187 179 186
f 188 187 186
f 188 186 189
f 188 189 173
f 188 173 177
f 188 177 187
f 187 177 178
f 187 178 179
f 190 173 189
f 8 27 2
f 190 189 186
f 190 170 173
f 173 170 171
f 186 191 170
f 186 185 191
f 192 191 185
f 192 185 193
f 192 193 194
f 192 194 169
f 192 169 191
f 191 169 170
f 28 169 194
f 27 28 194
f 190 186 170
f 48 51 49
