# https://github.com/mikedh/trimesh
v 0.00313300 -0.00438500 -0.01424800
v 0.01500900 -0.00058300 -0.01024900
v 0.01487800 -0.00062100 -0.01128500
v 0.01449400 -0.00073200 -0.01224900
v 0.01388400 -0.00091000 -0.01307800
v 0.01308800 -0.00114100 -0.01371300
v 0.01216200 -0.00141100 -0.01411300
v 0.01116700 -0.00169900 -0.01424800
v 0.00313300 0.00585700 -0.01424800
v 0.00313300 -0.00438500 -0.00275100
v 0.01500900 -0.00058300 -0.00924900
v 0.01235800 0.00853900 -0.01024900
v 0.01222600 0.00850000 -0.01128500
v 0.01184300 0.00838800 -0.01224900
v 0.01123200 0.00821100 -0.01307800
v 0.01043600 0.00798000 -0.01371300
v 0.00951100 0.00771000 -0.01411300
v 0.00851700 0.00742200 -0.01424800
v 0.00971700 0.00777100 -0.01074900
v 0.00448200 0.00624900 -0.00014500
v 0.00313300 0.00585700 -0.00227800
v 0.00470600 0.00631400 0.00069700
v 0.00514300 0.00644100 0.00144100
v 0.00575900 0.00662000 0.00203200
v 0.00841100 -0.00250100 0.00203200
v 0.00915800 -0.00228300 0.00242500
v 0.00998200 -0.00204400 0.00258800
v 0.01081600 -0.00180100 0.00251000
v 0.01159900 -0.00157500 0.00219700
v 0.01226800 -0.00138000 0.00167300
v 0.01277400 -0.00123300 0.00097600
v 0.01307600 -0.00114500 0.00016300
v 0.01490300 -0.00061400 -0.00847900
v 0.01235800 0.00853900 -0.00924900
v 0.00978200 0.00779000 -0.00275000
v 0.00961700 0.00774200 0.00167300
v 0.00816600 0.00731900 0.00251000
v 0.00650800 0.00683700 0.00242500
v 0.00733100 0.00707600 0.00258800
v 0.00894800 0.00754700 0.00219700
v 0.01012200 0.00788900 0.00097600
v 0.01042400 0.00797600 0.00016300
v 0.01225100 0.00850700 -0.00847900
f 23 37 36
f 20 23 35
f 23 38 37
f 23 36 35
f 21 22 23
f 23 24 38
f 20 21 23
f 19 20 35
f 12 16 18
f 12 13 14
f 12 14 15
f 12 15 16
f 12 19 35
f 12 35 34
f 24 26 38
f 10 11 33
f 11 34 33
f 16 17 18
f 24 25 26
f 32 43 42
f 26 27 39
f 34 35 36
f 10 33 32
f 34 36 41
f 34 41 42
f 34 42 43
f 33 34 43
f 32 33 43
f 32 42 41
f 31 32 41
f 30 31 41
f 30 41 36
f 30 36 40
f 29 30 40
f 28 29 40
f 28 40 37
f 27 28 37
f 27 37 39
f 26 39 38
f 10 32 31
f 1 2 11
f 10 30 29
f 3 4 14
f 3 14 13
f 2 3 12
f 2 12 34
f 2 34 11
f 1 11 10
f 1 10 21
f 1 21 9
f 1 9 18
f 1 18 8
f 1 8 7
f 1 7 6
f 1 6 5
f 1 5 4
f 1 4 3
f 1 3 2
f 36 37 40
f 3 13 12
f 10 31 30
f 4 15 14
f 5 16 15
f 10 29 28
f 10 28 27
f 10 27 26
f 10 26 25
f 10 25 24
f 10 24 23
f 10 23 22
f 10 22 21
f 9 21 20
f 9 20 19
f 9 19 12
f 9 12 18
f 7 8 18
f 7 18 17
f 6 7 17
f 6 17 16
f 5 6 16
f 4 5 15
f 37 38 39
