# https://github.com/mikedh/trimesh
v 0.00313200 0.00585600 -0.00227800
v -0.00570100 -0.00025200 -0.00275100
v -0.00514300 0.00101000 -0.00275100
v -0.00437600 0.00215800 -0.00275100
v -0.00342400 0.00315700 -0.00275100
v -0.00231300 0.00397800 -0.00275100
v -0.00107900 0.00459500 -0.00275100
v -0.00036600 0.00484000 -0.00275100
v 0.00289300 0.00578800 -0.00244400
v 0.00313200 0.00585600 -0.01425000
v 0.00313200 -0.00438300 -0.00275100
v 0.00120200 -0.00772100 -0.00275100
v -0.00167700 -0.00855800 -0.00275100
v -0.00245100 -0.00867600 -0.00275100
v -0.00323000 -0.00859000 -0.00275100
v -0.00396000 -0.00830600 -0.00275100
v -0.00459100 -0.00784200 -0.00275100
v -0.00508100 -0.00723200 -0.00275100
v -0.00539500 -0.00651500 -0.00275100
v -0.00581400 -0.00507300 -0.00275100
v -0.00599000 -0.00434100 -0.00275100
v -0.00613200 -0.00296800 -0.00275100
v -0.00603400 -0.00159100 -0.00275100
v -0.00570100 -0.00025200 -0.01425000
v -0.00514300 0.00101000 -0.01425000
v -0.00437600 0.00215800 -0.01425000
v -0.00342400 0.00315700 -0.01425000
v -0.00231300 0.00397800 -0.01425000
v -0.00221500 0.00403800 -0.00625000
v -0.00190100 0.00421400 -0.00627400
v -0.00173000 0.00430200 -0.00630800
v -0.00155100 0.00439100 -0.00635700
v -0.00121000 0.00454300 -0.00649800
v -0.00107900 0.00459500 -0.01425000
v -0.00094200 0.00464800 -0.01104500
v -0.00091100 0.00465900 -0.00667700
v -0.00063000 0.00475800 -0.00690300
v -0.00052100 0.00479300 -0.00701200
v -0.00036600 0.00484000 -0.01425000
v -0.00009300 0.00492000 -0.00761000
v 0.00162500 0.00541900 -0.00275100
v -0.00009300 0.00492000 -0.01009000
v 0.00313200 -0.00438300 -0.01425000
v 0.00120200 -0.00772100 -0.01425000
v -0.00167700 -0.00855800 -0.01425000
v -0.00245100 -0.00867600 -0.01425000
v -0.00323000 -0.00859000 -0.01425000
v -0.00396000 -0.00830600 -0.01425000
v -0.00459100 -0.00784200 -0.01425000
v -0.00508100 -0.00723200 -0.01425000
v -0.00539500 -0.00651500 -0.01425000
v -0.00581400 -0.00507300 -0.01425000
v -0.00599000 -0.00434100 -0.01425000
v -0.00613200 -0.00296800 -0.01425000
v -0.00603400 -0.00159100 -0.01425000
v -0.00161800 0.00435800 -0.01136400
v -0.00196100 0.00418100 -0.01143400
v -0.00221500 0.00403800 -0.01144900
v -0.00127300 0.00451600 -0.01123300
v -0.00063800 0.00475500 -0.01080300
v -0.00052100 0.00479300 -0.01068900
f 1 3 2
f 17 50 49
f 16 17 49
f 16 49 48
f 15 16 48
f 15 48 47
f 14 15 47
f 14 47 46
f 13 14 46
f 13 46 45
f 12 13 45
f 12 45 44
f 11 12 44
f 17 18 50
f 11 44 43
f 10 44 45
f 10 45 46
f 10 46 47
f 10 47 48
f 10 48 49
f 10 49 50
f 10 50 51
f 10 51 52
f 10 52 53
f 10 53 54
f 10 54 55
f 10 55 24
f 10 43 44
f 10 24 25
f 18 51 50
f 19 52 51
f 40 41 42
f 39 60 61
f 37 38 61
f 37 61 60
f 35 36 37
f 35 37 60
f 34 56 59
f 34 35 60
f 34 60 39
f 33 34 59
f 32 33 59
f 32 59 56
f 18 19 51
f 31 32 56
f 30 31 57
f 29 30 57
f 29 57 58
f 28 58 57
f 28 56 34
f 22 23 55
f 22 55 54
f 21 22 54
f 21 54 53
f 20 21 53
f 20 53 52
f 19 20 52
f 31 56 57
f 10 25 26
f 28 57 56
f 10 27 28
f 2 24 55
f 2 55 23
f 2 3 25
f 2 25 24
f 1 2 23
f 1 23 22
f 1 22 21
f 1 21 20
f 1 20 19
f 1 19 18
f 1 18 17
f 1 17 16
f 3 26 25
f 1 16 15
f 1 14 13
f 1 13 12
f 1 11 43
f 1 43 10
f 1 10 9
f 1 9 8
f 1 8 7
f 1 7 6
f 1 6 5
f 1 5 4
f 1 4 3
f 10 26 27
f 1 15 14
f 3 4 26
f 1 12 11
f 4 5 27
f 10 28 34
f 4 27 26
f 10 34 39
f 9 10 39
f 9 39 42
f 9 42 41
f 8 41 40
f 8 40 42
f 8 42 39
f 8 39 61
f 8 61 38
f 8 38 37
f 7 8 37
f 8 9 41
f 7 36 35
f 5 6 28
f 5 28 27
f 7 37 36
f 6 58 28
f 6 29 58
f 6 31 30
f 6 30 29
f 7 32 31
f 7 33 32
f 7 34 33
f 7 35 34
f 6 7 31
