# https://github.com/mikedh/trimesh
v 0.00610700 -0.00038900 -0.00925100
v 0.00637100 -0.00038900 -0.00901100
v 0.00719500 0.00491400 -0.00803700
v 0.00712900 0.00543200 -0.00803700
v 0.00697300 0.00593000 -0.00803700
v 0.00673200 0.00639400 -0.00803700
v 0.00641500 0.00680900 -0.00803700
v 0.00637900 0.00677600 -0.00805000
v 0.00600000 0.00712400 -0.00805000
v 0.00556700 0.00740100 -0.00805000
v 0.00509300 0.00759800 -0.00805000
v 0.00459200 0.00770900 -0.00805000
v 0.00407800 0.00773200 -0.00805000
v 0.00356800 0.00766600 -0.00805000
v 0.00230400 0.00728200 -0.00805000
v 0.00142200 0.00688000 -0.00805000
v 0.00059000 0.00638200 -0.00805000
v -0.00018100 0.00579500 -0.00805000
v -0.00088100 0.00512400 -0.00805000
v -0.00150200 0.00438000 -0.00805000
v -0.00203500 0.00357200 -0.00805000
v -0.00247500 0.00270800 -0.00805000
v -0.00281600 0.00179900 -0.00805000
v -0.00305200 0.00086000 -0.00805000
v -0.00318100 -0.00010100 -0.00805000
v -0.00318300 -0.00038900 -0.00805000
v 0.00744200 -0.00038900 -0.00802300
v 0.00723200 0.00491500 -0.00800300
v 0.00716400 0.00543900 -0.00800300
v 0.00700600 0.00594400 -0.00800300
v 0.00676200 0.00641300 -0.00800300
v 0.00644200 0.00683300 -0.00800300
v 0.00605300 0.00719100 -0.00800300
v 0.00603000 0.00716200 -0.00803700
v 0.00559000 0.00744400 -0.00803700
v 0.00510700 0.00764400 -0.00803700
v 0.00459800 0.00775700 -0.00803700
v 0.00407600 0.00778000 -0.00803700
v 0.00355800 0.00771200 -0.00803700
v 0.00228600 0.00732700 -0.00803700
v 0.00139900 0.00692300 -0.00803700
v 0.00056300 0.00642300 -0.00803700
v -0.00021200 0.00583200 -0.00803700
v -0.00091600 0.00515800 -0.00803700
v -0.00154100 0.00440900 -0.00803700
v -0.00207700 0.00359600 -0.00803700
v -0.00252000 0.00272700 -0.00803700
v -0.00286200 0.00181400 -0.00803700
v -0.00310000 0.00086800 -0.00803700
v -0.00323000 -0.00009700 -0.00803700
v -0.00323100 -0.00038900 -0.00803700
v 0.00745200 -0.00038900 -0.00801000
v 0.00724700 0.00491500 -0.00795500
v 0.00717900 0.00544200 -0.00795500
v 0.00746000 -0.00038900 -0.00799800
v 0.00702000 0.00594900 -0.00795500
v 0.00677500 0.00642100 -0.00795500
v 0.00645300 0.00684400 -0.00795500
v 0.00606100 0.00720300 -0.00795500
v 0.00561300 0.00748900 -0.00795500
v 0.00560700 0.00747500 -0.00800300
v 0.00511800 0.00767800 -0.00800300
v 0.00460200 0.00779300 -0.00800300
v 0.00407400 0.00781700 -0.00800300
v 0.00355000 0.00774800 -0.00800300
v 0.00227300 0.00736100 -0.00800300
v 0.00138300 0.00695600 -0.00800300
v 0.00054300 0.00645300 -0.00800300
v -0.00023600 0.00585900 -0.00800300
v -0.00094300 0.00518300 -0.00800300
v -0.00157000 0.00443100 -0.00800300
v -0.00210900 0.00361400 -0.00800300
v -0.00255300 0.00274200 -0.00800300
v -0.00289600 0.00182500 -0.00800300
v -0.00313500 0.00087600 -0.00800300
v -0.00326600 -0.00009500 -0.00800300
v -0.00323500 -0.00038900 -0.00803400
v 0.00732100 0.00491900 -0.00655000
v 0.00746300 -0.00038900 -0.00798400
v 0.00747000 -0.00038900 -0.00795500
v 0.00755800 -0.00038900 -0.00644600
v 0.00708800 0.00597800 -0.00655000
v 0.00650700 0.00689300 -0.00655000
v 0.00564800 0.00755500 -0.00655000
v 0.00512300 0.00769300 -0.00795500
v 0.00460400 0.00780800 -0.00795500
v 0.00407400 0.00783100 -0.00795500
v 0.00354600 0.00776300 -0.00795500
v 0.00226800 0.00737500 -0.00795500
v 0.00137600 0.00696900 -0.00795500
v 0.00053400 0.00646600 -0.00795500
v -0.00024500 0.00587100 -0.00795500
v -0.00095400 0.00519300 -0.00795500
v -0.00158200 0.00443900 -0.00795500
v -0.00212200 0.00362200 -0.00795500
v -0.00256700 0.00274700 -0.00795500
v -0.00291100 0.00182900 -0.00795500
v -0.00315000 0.00087800 -0.00795500
v -0.00328100 -0.00009300 -0.00795500
v -0.00327000 -0.00038900 -0.00799200
v -0.00326600 -0.00038900 -0.00800300
v -0.00326300 -0.00038900 -0.00800700
v 0.00732100 0.00491900 -0.00345000
v 0.00755900 -0.00038900 -0.00355600
v 0.00708800 0.00597800 -0.00345000
v 0.00650700 0.00689300 -0.00345000
v 0.00564800 0.00755500 -0.00345000
v 0.00461400 0.00788200 -0.00655000
v 0.00353000 0.00783500 -0.00655000
v 0.00224100 0.00744400 -0.00655000
v 0.00049300 0.00652600 -0.00655000
v -0.00100800 0.00524300 -0.00655000
v -0.00218600 0.00365900 -0.00655000
v -0.00298100 0.00185100 -0.00655000
v -0.00327900 0.00063900 -0.00632700
v -0.00326700 0.00064000 -0.00655000
v -0.00331000 0.00043500 -0.00632100
v -0.00333700 0.00023000 -0.00631600
v -0.00337900 -0.00020200 -0.00624300
v -0.00339300 -0.00038900 -0.00615300
v -0.00329400 -0.00038900 -0.00781300
v -0.00328100 -0.00038900 -0.00795500
v 0.00724700 0.00491500 -0.00204500
v 0.00717900 0.00544200 -0.00204500
v 0.00747000 -0.00038900 -0.00204500
v 0.00702000 0.00594900 -0.00204500
v 0.00677500 0.00642100 -0.00204500
v 0.00645300 0.00684400 -0.00204500
v 0.00606100 0.00720300 -0.00204500
v 0.00561300 0.00748900 -0.00204500
v 0.00512300 0.00769300 -0.00204500
v 0.00461400 0.00788200 -0.00345000
v 0.00353000 0.00783500 -0.00345000
v 0.00224100 0.00744400 -0.00345000
v 0.00049300 0.00652600 -0.00345000
v -0.00100800 0.00524300 -0.00345000
v -0.00218600 0.00365900 -0.00345000
v -0.00298100 0.00185100 -0.00345000
v -0.00327900 0.00063900 -0.00367300
v -0.00331000 0.00043500 -0.00367900
v -0.00333700 0.00023000 -0.00368400
v -0.00337700 -0.00017700 -0.00374900
v -0.00339200 -0.00038900 -0.00384800
v 0.00723200 0.00491500 -0.00199700
v 0.00746000 -0.00038900 -0.00200100
v 0.00716400 0.00543900 -0.00199700
v 0.00700600 0.00594400 -0.00199700
v 0.00676200 0.00641300 -0.00199700
v 0.00644200 0.00683300 -0.00199700
v 0.00605300 0.00719100 -0.00199700
v 0.00560700 0.00747500 -0.00199700
v 0.00511800 0.00767800 -0.00199700
v 0.00460200 0.00779300 -0.00199700
v 0.00460400 0.00780800 -0.00204500
v 0.00407400 0.00783100 -0.00204500
v 0.00354600 0.00776300 -0.00204500
v 0.00226800 0.00737500 -0.00204500
v 0.00137600 0.00696900 -0.00204500
v 0.00053400 0.00646600 -0.00204500
v -0.00024500 0.00587100 -0.00204500
v -0.00095400 0.00519300 -0.00204500
v -0.00158200 0.00443900 -0.00204500
v -0.00212200 0.00362200 -0.00204500
v -0.00256700 0.00274700 -0.00204500
v -0.00291100 0.00182900 -0.00204500
v -0.00315000 0.00087800 -0.00204500
v -0.00326700 0.00064000 -0.00345000
v -0.00328100 -0.00009300 -0.00204500
v -0.00336200 -0.00038900 -0.00327800
v 0.00719500 0.00491400 -0.00196300
v 0.00712900 0.00543200 -0.00196300
v 0.00744200 -0.00038900 -0.00197700
v 0.00620500 -0.00038900 -0.00070700
v 0.00697300 0.00593000 -0.00196300
v 0.00673200 0.00639400 -0.00196300
v 0.00641500 0.00680900 -0.00196300
v 0.00603000 0.00716200 -0.00196300
v 0.00559000 0.00744400 -0.00196300
v 0.00510700 0.00764400 -0.00196300
v 0.00459800 0.00775700 -0.00196300
v 0.00407600 0.00778100 -0.00196300
v 0.00407400 0.00781700 -0.00199700
v 0.00355000 0.00774800 -0.00199700
v 0.00227300 0.00736100 -0.00199700
v 0.00138300 0.00695600 -0.00199700
v 0.00054300 0.00645300 -0.00199700
v -0.00023600 0.00585900 -0.00199700
v -0.00094300 0.00518300 -0.00199700
v -0.00157000 0.00443100 -0.00199700
v -0.00210900 0.00361400 -0.00199700
v -0.00255300 0.00274200 -0.00199700
v -0.00289600 0.00182500 -0.00199700
v -0.00313500 0.00087600 -0.00199700
v -0.00326600 -0.00009500 -0.00199700
v -0.00328100 -0.00038900 -0.00204500
v -0.00329000 -0.00038900 -0.00213500
v -0.00329400 -0.00038900 -0.00218700
v -0.00318300 -0.00038900 -0.00195000
v -0.00318100 -0.00010100 -0.00195000
v -0.00305200 0.00086000 -0.00195000
v -0.00281600 0.00179900 -0.00195000
v -0.00247500 0.00270800 -0.00195000
v -0.00203500 0.00357200 -0.00195000
v -0.00150200 0.00438000 -0.00195000
v -0.00088100 0.00512400 -0.00195000
v -0.00018100 0.00579500 -0.00195000
v 0.00059000 0.00638200 -0.00195000
v 0.00142200 0.00688000 -0.00195000
v 0.00230400 0.00728200 -0.00195000
v 0.00356800 0.00766600 -0.00195000
v 0.00407800 0.00773200 -0.00195000
v 0.00459200 0.00770900 -0.00195000
v 0.00509300 0.00759800 -0.00195000
v 0.00556700 0.00740100 -0.00195000
v 0.00600000 0.00712400 -0.00195000
v 0.00637900 0.00677600 -0.00195000
v 0.00355800 0.00771300 -0.00196300
v 0.00228600 0.00732700 -0.00196300
v 0.00139900 0.00692300 -0.00196300
v 0.00056300 0.00642300 -0.00196300
v -0.00021200 0.00583200 -0.00196300
v -0.00091600 0.00515800 -0.00196300
v -0.00154100 0.00440900 -0.00196300
v -0.00207700 0.00359600 -0.00196300
v -0.00252000 0.00272700 -0.00196300
v -0.00286200 0.00181400 -0.00196300
v -0.00310000 0.00086800 -0.00196300
v -0.00323500 -0.00038900 -0.00196600
v -0.00326300 -0.00038900 -0.00199300
v -0.00326600 -0.00038900 -0.00199700
v -0.00323000 -0.00009700 -0.00196300
v -0.00323100 -0.00038900 -0.00196300
f 131 154 153
f 139 167 166
f 138 165 164
f 138 139 166
f 138 166 165
f 137 163 162
f 137 138 164
f 137 164 163
f 136 137 162
f 136 162 161
f 136 161 160
f 135 160 159
f 135 159 158
f 134 135 158
f 134 158 157
f 134 157 156
f 130 151 150
f 133 156 155
f 132 133 155
f 132 155 154
f 131 152 151
f 131 132 154
f 139 140 167
f 131 153 152
f 135 136 160
f 133 134 156
f 146 147 174
f 140 168 166
f 153 154 182
f 153 182 181
f 153 181 180
f 153 180 179
f 152 179 178
f 152 153 179
f 151 152 178
f 150 177 176
f 150 151 178
f 150 178 177
f 149 176 175
f 149 150 176
f 148 149 175
f 147 148 175
f 147 175 174
f 146 174 171
f 144 170 173
f 144 173 172
f 144 172 145
f 144 146 171
f 144 171 170
f 142 169 168
f 142 143 169
f 141 142 168
f 140 141 168
f 140 166 167
f 130 131 151
f 111 112 136
f 128 129 150
f 109 110 134
f 109 134 133
f 108 109 133
f 108 133 132
f 107 130 129
f 107 132 131
f 107 131 130
f 106 128 127
f 106 107 129
f 106 129 128
f 105 126 124
f 105 106 127
f 105 127 126
f 104 123 125
f 103 123 104
f 103 105 124
f 103 124 123
f 99 100 122
f 99 122 121
f 99 121 120
f 99 120 119
f 99 119 118
f 154 155 182
f 98 99 117
f 99 118 117
f 110 135 134
f 129 130 150
f 110 111 135
f 112 137 136
f 128 150 149
f 127 128 149
f 127 149 148
f 127 148 147
f 126 127 147
f 124 126 147
f 124 147 146
f 124 146 144
f 123 144 145
f 123 145 125
f 123 124 144
f 120 143 142
f 119 120 142
f 118 119 142
f 118 142 141
f 117 118 141
f 117 141 140
f 115 116 117
f 115 117 140
f 115 140 139
f 114 115 139
f 114 139 138
f 113 114 138
f 113 138 137
f 112 113 137
f 111 136 135
f 155 156 182
f 181 210 211
f 156 184 183
f 194 229 228
f 193 194 227
f 193 227 226
f 192 193 226
f 191 192 226
f 191 226 225
f 190 224 223
f 190 191 225
f 190 225 224
f 189 190 223
f 188 189 223
f 188 223 222
f 188 222 221
f 187 188 221
f 187 221 220
f 186 187 220
f 186 220 219
f 185 186 219
f 184 185 219
f 184 219 218
f 183 184 218
f 183 218 217
f 181 211 212
f 181 182 183
f 181 183 217
f 194 230 229
f 181 217 210
f 194 231 227
f 198 231 232
f 98 117 116
f 228 232 231
f 210 217 218
f 209 210 218
f 208 209 218
f 208 218 219
f 208 219 220
f 207 208 220
f 206 207 220
f 206 220 221
f 206 221 222
f 205 206 222
f 205 222 223
f 204 205 223
f 203 204 223
f 203 223 224
f 203 224 225
f 202 203 225
f 201 202 225
f 201 225 226
f 201 226 227
f 200 201 227
f 199 200 227
f 199 227 231
f 198 199 231
f 194 228 231
f 180 181 212
f 179 180 212
f 179 212 213
f 168 197 196
f 168 196 195
f 168 195 230
f 168 230 194
f 166 168 194
f 166 194 193
f 165 192 191
f 165 166 193
f 165 193 192
f 164 165 191
f 164 191 190
f 163 164 190
f 163 190 189
f 162 163 189
f 161 162 189
f 161 189 188
f 161 188 187
f 160 161 187
f 159 187 186
f 159 160 187
f 158 185 184
f 158 159 186
f 158 186 185
f 157 158 184
f 156 157 184
f 168 169 197
f 170 171 173
f 171 174 173
f 173 199 198
f 178 214 215
f 178 179 213
f 178 213 214
f 177 178 215
f 176 177 215
f 176 215 216
f 173 174 175
f 173 175 176
f 173 176 216
f 173 216 215
f 173 215 214
f 173 214 213
f 156 183 182
f 173 213 212
f 173 211 210
f 173 210 209
f 173 209 208
f 173 208 207
f 173 207 206
f 173 206 205
f 173 205 204
f 173 204 203
f 173 203 202
f 173 202 201
f 173 201 200
f 173 200 199
f 173 212 211
f 98 116 115
f 84 132 107
f 97 98 114
f 16 42 41
f 15 16 40
f 14 15 40
f 14 40 39
f 14 39 38
f 13 14 38
f 12 13 38
f 12 38 37
f 12 37 36
f 11 12 36
f 11 36 35
f 16 17 42
f 10 11 35
f 9 35 34
f 7 8 9
f 7 9 34
f 7 34 33
f 7 33 32
f 6 7 32
f 6 32 31
f 6 31 30
f 5 6 30
f 5 30 29
f 4 5 29
f 9 10 35
f 16 41 40
f 17 18 42
f 18 44 43
f 30 56 54
f 30 31 57
f 30 57 56
f 29 30 54
f 28 53 55
f 28 55 52
f 28 29 54
f 28 54 53
f 27 28 52
f 26 51 50
f 25 26 50
f 25 50 49
f 24 25 49
f 23 48 47
f 23 24 49
f 23 49 48
f 22 23 47
f 21 46 45
f 21 22 47
f 21 47 46
f 20 21 45
f 19 20 45
f 19 45 44
f 18 43 42
f 18 19 44
f 4 29 28
f 3 4 28
f 2 3 27
f 1 2 27
f 1 26 25
f 1 25 24
f 1 24 23
f 1 23 22
f 1 22 21
f 1 21 20
f 1 20 19
f 1 19 18
f 1 18 17
f 1 17 16
f 1 16 15
f 1 15 14
f 1 14 13
f 1 13 12
f 1 12 11
f 1 11 10
f 1 10 9
f 1 9 8
f 1 8 7
f 1 7 6
f 1 6 5
f 1 5 4
f 1 4 3
f 1 3 2
f 98 115 114
f 1 51 26
f 31 32 57
f 1 77 51
f 1 101 102
f 1 27 52
f 1 52 55
f 1 55 79
f 1 79 80
f 1 80 81
f 1 81 104
f 1 104 125
f 1 125 145
f 1 145 172
f 1 172 173
f 1 173 198
f 1 198 232
f 1 232 228
f 1 228 229
f 1 229 230
f 1 230 195
f 1 195 196
f 1 196 197
f 1 197 169
f 1 169 143
f 1 143 120
f 1 120 121
f 1 121 122
f 1 122 100
f 1 100 101
f 1 102 77
f 32 33 58
f 3 28 27
f 33 60 59
f 76 99 98
f 76 102 101
f 76 101 100
f 76 100 99
f 75 76 98
f 75 98 97
f 74 75 97
f 73 74 97
f 73 97 96
f 72 73 96
f 72 96 95
f 71 94 93
f 71 72 95
f 71 95 94
f 70 71 93
f 69 70 93
f 69 93 92
f 69 92 91
f 68 91 90
f 68 69 91
f 67 68 90
f 66 67 90
f 66 90 89
f 66 89 88
f 65 66 88
f 78 105 103
f 64 87 86
f 78 82 105
f 78 103 104
f 96 97 114
f 32 58 57
f 96 114 113
f 95 96 113
f 94 113 112
f 94 95 113
f 93 94 112
f 92 93 112
f 92 112 111
f 91 92 111
f 90 111 110
f 90 91 111
f 89 90 110
f 88 89 110
f 88 110 109
f 87 109 108
f 87 88 109
f 86 87 108
f 85 86 108
f 84 85 108
f 84 108 132
f 83 84 107
f 83 107 106
f 82 83 106
f 82 106 105
f 78 104 81
f 64 65 88
f 76 77 102
f 64 88 87
f 45 46 72
f 45 72 71
f 45 71 70
f 44 45 70
f 43 44 70
f 43 70 69
f 42 43 69
f 42 69 68
f 41 42 68
f 41 68 67
f 40 41 66
f 40 66 65
f 39 40 65
f 38 64 63
f 38 39 65
f 38 65 64
f 37 38 63
f 36 37 63
f 36 63 62
f 35 36 62
f 35 62 61
f 33 59 58
f 33 34 35
f 33 35 61
f 33 61 60
f 46 47 72
f 47 73 72
f 41 67 66
f 48 75 74
f 63 64 86
f 63 86 85
f 47 48 73
f 62 63 85
f 61 62 85
f 60 61 85
f 60 85 84
f 59 60 84
f 59 84 83
f 57 58 83
f 57 83 82
f 56 57 82
f 54 56 82
f 58 59 83
f 53 78 81
f 48 49 75
f 54 82 78
f 49 76 75
f 49 50 76
f 50 77 76
f 50 51 77
f 48 74 73
f 53 79 55
f 53 80 79
f 53 81 80
f 53 54 78
