# https://github.com/mikedh/trimesh
v -0.01012200 -0.00516700 -0.00601100
v -0.01012200 -0.00516700 -0.00600200
v -0.01008700 -0.00729900 -0.00600800
v -0.01005800 -0.00729400 -0.00750400
v -0.01002000 -0.00728500 -0.00823000
v -0.01001000 -0.00514900 -0.00818100
v -0.00956500 0.00039300 -0.01038500
v -0.00945800 0.00147200 -0.01041300
v -0.01008700 -0.00729900 -0.00600200
v -0.00923100 0.00252900 -0.01044100
v -0.00890100 0.00351100 -0.01046700
v -0.00844500 0.00449300 -0.01049400
v -0.00791700 0.00536800 -0.01051800
v -0.00725300 0.00623500 -0.01054200
v -0.00656600 0.00695600 -0.01056300
v -0.00219100 0.00239600 -0.00600200
v -0.00611700 -0.03289800 -0.00959900
v -0.01002400 -0.00729000 -0.00814900
v -0.00610400 -0.03238000 -0.01152600
v -0.01001800 -0.00728500 -0.00824900
v -0.00998500 -0.00728100 -0.00853800
v -0.00991400 -0.00513600 -0.00887500
v -0.00954600 0.00022900 -0.01084400
v -0.00955600 0.00031300 -0.01061500
v -0.00946900 0.00114500 -0.01104400
v -0.00929300 0.00208200 -0.01132500
v -0.00895100 -0.01390200 -0.00600200
v -0.00897000 0.00314400 -0.01169400
v -0.00856900 0.00407200 -0.01202800
v -0.00807800 0.00494400 -0.01232700
v -0.00754500 0.00570400 -0.01256200
v -0.00693100 0.00642100 -0.01274500
v -0.00675200 0.00660700 -0.01278400
v -0.00624600 0.00708000 -0.01286900
v -0.00606700 0.00723500 -0.01289300
v -0.00575200 0.00764200 -0.01058200
v 0.00284000 0.00800000 -0.00705000
v 0.00762600 0.00765500 -0.00600200
v -0.00834700 -0.01690500 -0.00600200
v -0.00766000 -0.01985500 -0.00600200
v -0.00695400 -0.02253500 -0.00600200
v -0.00651200 -0.02407900 -0.00600200
v -0.00539000 -0.02713900 -0.00600200
v -0.00584800 -0.03362700 -0.00959900
v -0.00575800 -0.03358300 -0.01152600
v -0.00601900 -0.03287100 -0.01152600
v -0.00602900 -0.03237600 -0.01176500
v -0.00988900 -0.00725900 -0.00898700
v -0.00965000 -0.00720100 -0.00968300
v -0.00927900 -0.00712200 -0.01040200
v -0.00911600 -0.00708600 -0.01064800
v -0.00880300 -0.00701500 -0.01104700
v -0.00585000 -0.03235800 -0.01193700
v -0.00865600 0.00274100 -0.01189300
v -0.00689400 -0.00655600 -0.01241400
v -0.00617800 -0.00637000 -0.01268600
v -0.00563700 -0.00622800 -0.01283600
v -0.00544700 -0.00617500 -0.01287800
v -0.00470500 -0.00597200 -0.01299800
v -0.00523400 0.00785400 -0.01298000
v -0.00462800 -0.00595000 -0.01300700
v -0.00490200 0.00821200 -0.01059900
v -0.00393000 0.00871600 -0.01061400
v 0.00379200 0.00837600 -0.00705000
v 0.00481600 0.00841100 -0.00705000
v 0.00641700 0.00860600 -0.00832900
v 0.00762800 0.00765500 -0.00601100
v 0.00800000 0.00726600 -0.00601100
v 0.00766800 0.00761100 -0.00600200
v 0.00763300 -0.03431700 -0.00600200
v -0.00412500 -0.03530300 -0.00959900
v -0.00512900 -0.03461400 -0.00959900
v -0.00544900 -0.03409200 -0.01152600
v -0.00569100 -0.03354800 -0.01176500
v -0.00594600 -0.03285300 -0.01176500
v -0.00538800 -0.03404700 -0.01176500
v -0.00577000 -0.03280900 -0.01193700
v -0.00553400 -0.03275200 -0.01200000
v -0.00560700 -0.03233100 -0.01200000
v -0.00029300 -0.02461800 -0.01304800
v -0.00438200 0.00835400 -0.01302800
v -0.00323500 -0.00554700 -0.01311800
v 0.00039700 -0.02430900 -0.01312500
v -0.00338300 0.00880900 -0.01303900
v -0.00293000 0.00910100 -0.01062600
v -0.00188800 0.00937500 -0.01063500
v -0.00083100 0.00952600 -0.01064200
v 0.00024400 0.00956100 -0.01064500
v 0.00529600 0.00942400 -0.01065200
v 0.00635300 0.00853500 -0.01013900
v 0.00674100 0.00819000 -0.01004400
v 0.00715900 0.00793800 -0.00827700
v 0.00741300 0.00769900 -0.00825800
v 0.00751200 0.00761100 -0.00819600
v 0.00755500 0.00757500 -0.00807300
v 0.00791900 0.00706200 -0.00976700
v 0.00817800 0.00706700 -0.00600200
v 0.00853700 -0.03433900 -0.00600200
v -0.00294500 -0.03562200 -0.00959900
v -0.00352100 -0.03541400 -0.01152600
v -0.00408100 -0.03521100 -0.01152600
v -0.00459900 -0.03491900 -0.01152600
v -0.00506000 -0.03454300 -0.01152600
v -0.00524200 -0.03394100 -0.01193700
v -0.00552800 -0.03346800 -0.01193700
v -0.00500600 -0.03448500 -0.01176500
v -0.00488100 -0.03435700 -0.01193700
v -0.00531100 -0.03336200 -0.01200000
v 0.00018100 -0.02718800 -0.01301100
v -0.00053300 -0.02681600 -0.01292800
v -0.00142200 -0.00497700 -0.01313800
v 0.00023800 -0.02280900 -0.01313000
v 0.00035100 -0.02728100 -0.01302000
v 0.00058700 -0.02720500 -0.01303700
v 0.00213200 -0.02666600 -0.01305500
v 0.00198600 -0.02367200 -0.01314600
v -0.00238700 0.00912800 -0.01301200
v -0.00199000 0.00922500 -0.01299300
v -0.00131600 0.00934900 -0.01294900
v -0.00041400 0.00943700 -0.01284700
v 0.00065600 0.00943300 -0.01271400
v 0.00516600 0.00933500 -0.01110300
v 0.00593700 0.00881400 -0.01063800
v 0.00610400 0.00867200 -0.01058400
v 0.00625400 0.00857500 -0.01043700
v 0.00631900 0.00854400 -0.01031100
v 0.00634600 0.00853500 -0.01020800
v 0.00712700 0.00784500 -0.00994900
v 0.00822000 0.00671700 -0.00968700
v 0.00710200 0.00767300 -0.01059800
v 0.00820300 0.00652700 -0.01029500
v 0.00825300 0.00697400 -0.00600200
v 0.00853700 -0.03433900 -0.00601100
v -0.00172900 -0.03552500 -0.00959900
v 0.00901700 -0.03276500 -0.00600200
v -0.00237300 -0.03552500 -0.01152600
v -0.00293600 -0.03552000 -0.01152600
v -0.00350200 -0.03534300 -0.01176500
v -0.00405000 -0.03514400 -0.01176500
v -0.00455700 -0.03485700 -0.01176500
v -0.00471200 -0.03418500 -0.01200000
v -0.00504600 -0.03379500 -0.01200000
v -0.00445500 -0.03470600 -0.01193700
v 0.00042200 -0.00434900 -0.01307100
v 0.00061600 -0.02742200 -0.01302800
v 0.00215900 -0.02828500 -0.01295900
v 0.00218800 -0.02830200 -0.01295600
v 0.00361300 -0.02619300 -0.01295500
v 0.00349600 -0.02316300 -0.01303500
v 0.00157200 -0.00393300 -0.01293700
v 0.00176400 0.00929600 -0.01257200
v 0.00493200 0.00922000 -0.01150100
v 0.00602500 0.00839300 -0.01115800
v 0.00610400 0.00855300 -0.01083500
v 0.00858700 0.00624800 -0.00957600
v 0.00868700 0.00643000 -0.00601100
v 0.00703500 0.00750400 -0.01091500
v 0.00812800 0.00637700 -0.01059500
v 0.00913000 0.00523100 -0.00990700
v 0.00873700 0.00635900 -0.00600200
v 0.00907800 -0.03256100 -0.00614500
v 0.00901100 -0.03269800 -0.00676600
v 0.00846600 -0.03426000 -0.00745800
v 0.00907800 -0.03256600 -0.00600200
v -0.00181700 -0.03544100 -0.01152600
v -0.00183400 -0.03537000 -0.01176500
v -0.00237900 -0.03544900 -0.01176500
v -0.00292800 -0.03544500 -0.01176500
v -0.00291100 -0.03526400 -0.01193700
v -0.00345400 -0.03516600 -0.01193700
v -0.00397400 -0.03498100 -0.01193700
v -0.00431700 -0.03450700 -0.01200000
v -0.00387200 -0.03475900 -0.01200000
v -0.00015100 -0.03370700 -0.01230100
v 0.00293200 -0.02873100 -0.01286700
v 0.00453600 -0.02590500 -0.01280400
v 0.00440600 -0.02366300 -0.01288100
v 0.00362900 -0.02855400 -0.01280200
v 0.00464200 -0.02806800 -0.01265500
v 0.00436700 -0.02302100 -0.01288900
v 0.00425800 -0.02137600 -0.01287400
v 0.00385700 -0.00301700 -0.01257000
v 0.00271700 -0.00348200 -0.01276000
v 0.00259100 0.00910500 -0.01246000
v 0.00317400 0.00899000 -0.01237400
v 0.00368400 0.00896400 -0.01226900
v 0.00417000 0.00900400 -0.01209300
v 0.00459800 0.00910100 -0.01183300
v 0.00589900 0.00818600 -0.01144900
v 0.00692300 0.00729700 -0.01120000
v 0.00914900 0.00541700 -0.00936800
v 0.00923900 0.00561200 -0.00600200
v 0.00800900 0.00620000 -0.01086800
v 0.00895900 0.00495300 -0.01042500
v 0.00940200 0.00429800 -0.01008700
v 0.00952700 0.00454600 -0.00963500
v 0.00918200 0.00535900 -0.00935300
v 0.00908000 -0.03255300 -0.00600200
v 0.00921600 -0.03083700 -0.00614500
v 0.00905100 -0.03253900 -0.00677500
v 0.00892100 -0.03267200 -0.00754400
v 0.00846600 -0.03425100 -0.00747400
v 0.00818200 -0.03422900 -0.00793200
v 0.00799600 -0.03421500 -0.00813000
v -0.00133700 -0.03524600 -0.01172500
v -0.00139500 -0.03514900 -0.01188400
v -0.00185300 -0.03529000 -0.01186200
v 0.00794000 -0.03401600 -0.00865200
v 0.00762600 -0.03378200 -0.00939700
v -0.00239100 -0.03526800 -0.01193700
v -0.00289000 -0.03502000 -0.01200000
v -0.00339200 -0.03493200 -0.01200000
v -0.00090000 -0.03469300 -0.01209400
v -0.00041600 -0.03404300 -0.01224900
v -0.00000000 -0.03380400 -0.01227200
v 0.00405700 -0.02939500 -0.01264700
v 0.00533100 -0.02824500 -0.01245100
v 0.00524200 -0.02585600 -0.01260400
v 0.00509700 -0.02286200 -0.01268500
v 0.00438700 -0.02959400 -0.01255600
v 0.00471900 -0.02980200 -0.01245700
v 0.00474000 -0.02981500 -0.01245100
v 0.00493700 -0.02993400 -0.01238900
v 0.00685400 -0.00168600 -0.01185900
v 0.00550900 -0.00230100 -0.01222800
v 0.00348100 0.00872500 -0.01232900
v 0.00534200 0.00712900 -0.01199900
v 0.00554400 0.00769000 -0.01187100
v 0.00573600 0.00794700 -0.01169000
v 0.00677200 0.00706200 -0.01143900
v 0.00928200 0.00553200 -0.00601100
v 0.00962100 0.00491700 -0.00600200
v 0.00766000 0.00578400 -0.01128900
v 0.00864600 0.00463000 -0.01083400
v 0.00915900 0.00401900 -0.01046600
v 0.00951000 0.00371400 -0.01008800
v 0.00965400 0.00397100 -0.00976800
v 0.00959200 0.00461200 -0.00913000
v 0.00971700 0.00420500 -0.00940900
v 0.00967500 0.00481500 -0.00600200
v 0.00934500 -0.02920900 -0.00600200
v 0.00934300 -0.02920900 -0.00614600
v 0.00895700 -0.03251700 -0.00754700
v 0.00923700 -0.02913800 -0.00746100
v 0.00887900 -0.03246400 -0.00798100
v 0.00883600 -0.03261400 -0.00801000
v 0.00846600 -0.03421500 -0.00752300
v 0.00812100 -0.03385700 -0.00865600
v 0.00719000 -0.03342800 -0.01008400
v -0.00097100 -0.03494100 -0.01195400
v -0.00187600 -0.03519300 -0.01193700
v 0.00774300 -0.03370700 -0.00942000
v 0.00729600 -0.03335700 -0.01012000
v -0.00052200 -0.03415400 -0.01222700
v -0.00107800 -0.03480400 -0.01205500
v -0.00078800 -0.03482600 -0.01199300
v -0.00023000 -0.03419800 -0.01219600
v 0.00500300 -0.03165000 -0.01187100
v 0.00557100 -0.03031000 -0.01215300
v 0.00486100 -0.03004000 -0.01237600
v 0.00556100 -0.02982400 -0.01221500
v 0.00607500 -0.02801900 -0.01217100
v 0.00601200 -0.02562600 -0.01230000
v 0.00590600 -0.02269000 -0.01237100
v 0.00789000 -0.00120000 -0.01148500
v 0.00730100 0.00542600 -0.01148100
v 0.00666600 0.00602700 -0.01167700
v 0.00659300 0.00680600 -0.01162100
v 0.00753200 0.00519100 -0.01139800
v 0.00831300 0.00435100 -0.01105600
v 0.00889000 0.00378500 -0.01070200
v 0.00909700 -0.00062500 -0.01085100
v 0.00924300 -0.00055400 -0.01074600
v 0.00969800 -0.00034200 -0.01034800
v 0.00969000 0.00357700 -0.00981400
v 0.01009100 -0.00015100 -0.00984700
v 0.01016800 -0.00011200 -0.00972800
v 0.00985900 0.00367900 -0.00939600
v 0.01070300 0.00019400 -0.00867000
v 0.00980900 0.00416500 -0.00891200
v 0.00978600 0.00458500 -0.00601100
v 0.00987600 0.00390000 -0.00913200
v 0.01010100 0.00383400 -0.00600200
v 0.01097600 -0.00469400 -0.00600200
v 0.01094300 -0.00471600 -0.00670600
v 0.00909000 -0.03088100 -0.00751600
v 0.00909700 -0.02904500 -0.00818300
v 0.01075500 -0.00481700 -0.00778500
v 0.00865200 -0.03226500 -0.00886100
v 0.00894800 -0.03093800 -0.00819300
v 0.00860400 -0.03242000 -0.00888300
v 0.00783700 -0.03361000 -0.00942200
v 0.00834100 -0.03223900 -0.00955700
v 0.00762600 -0.03344600 -0.00979800
v 0.00738800 -0.03326900 -0.01013200
v 0.00686200 -0.03288400 -0.01070200
v 0.00677600 -0.03296400 -0.01068100
v 0.00631300 -0.03248200 -0.01116200
v 0.00548000 -0.03191600 -0.01166900
v 0.00601600 -0.03074400 -0.01190000
v 0.00609400 -0.03062400 -0.01189800
v 0.00625000 -0.02970900 -0.01192900
v 0.00679700 -0.02779800 -0.01176800
v 0.00676600 -0.02539700 -0.01188200
v 0.00677400 -0.02505600 -0.01188300
v 0.00866200 -0.00082800 -0.01111600
v 0.00608700 -0.02265000 -0.01228600
v 0.00814600 -0.00107600 -0.01137300
v 0.00685600 -0.02537000 -0.01182200
v 0.00694800 -0.02573700 -0.01174900
v 0.00716500 -0.02662600 -0.01155600
v 0.00733600 -0.02720100 -0.01138500
v 0.00964000 -0.00541900 -0.01010900
v 0.00754500 -0.02761200 -0.01117000
v 0.00780600 -0.02797100 -0.01087200
v 0.01058600 0.00011800 -0.00894300
v 0.01010300 -0.00271700 -0.00962900
v 0.00997600 0.00340900 -0.00919200
v 0.01086300 0.00029500 -0.00823100
v 0.01083600 0.00042400 -0.00824600
v 0.01046400 -0.00497700 -0.00866800
v 0.00984000 0.00409400 -0.00886800
v 0.01008400 0.00312600 -0.00900600
v 0.01108500 0.00037500 -0.00735500
v 0.01111600 0.00057400 -0.00694000
v 0.01013200 0.00337800 -0.00843300
v 0.01014500 0.00372300 -0.00600200
v 0.01121200 0.00044100 -0.00600200
v 0.01115200 0.00041000 -0.00693200
v 0.00889600 -0.02890800 -0.00889100
v 0.00888200 -0.02912000 -0.00888800
v 0.00875400 -0.03090700 -0.00887000
v 0.01073400 -0.00483100 -0.00786200
v 0.01063600 -0.00488400 -0.00819700
v 0.01099300 0.00034400 -0.00777400
v 0.00839500 -0.03208800 -0.00952900
v 0.00804200 -0.03185400 -0.01014800
v 0.00797700 -0.03199500 -0.01017600
v 0.00754700 -0.03171200 -0.01071300
v 0.00706900 -0.03140300 -0.01117600
v 0.00655700 -0.03108000 -0.01157000
v 0.00603100 -0.03203500 -0.01143300
v 0.00624200 -0.03071700 -0.01181400
v 0.00690200 -0.02960700 -0.01153800
v 0.00663700 -0.03095600 -0.01156000
v 0.00743800 -0.02759900 -0.01127000
v 0.01003200 -0.00521100 -0.00953800
v 0.00800000 -0.02818300 -0.01062300
v 0.00810900 -0.02828900 -0.01047100
v 0.00747400 -0.02952700 -0.01106800
v 0.00794800 -0.02946100 -0.01055600
v 0.01096400 0.00049900 -0.00777700
v 0.00871700 -0.02878000 -0.00936900
v 0.01117700 0.00060900 -0.00600200
v 0.01023900 0.00345800 -0.00600200
v 0.01019500 0.00358600 -0.00601100
v 0.00862300 -0.02936400 -0.00948300
v 0.00850800 -0.02862500 -0.00981300
v 0.00832600 -0.02940800 -0.01002700
v 0.00761800 -0.03158000 -0.01068900
v 0.00714400 -0.03127400 -0.01115800
v 0.00843000 -0.02856300 -0.00995700
f 215 259 258
f 215 258 257
f 213 254 257
f 214 257 254
f 213 257 256
f 214 215 257
f 215 260 259
f 218 264 263
f 215 221 222
f 215 220 221
f 215 216 220
f 217 262 261
f 217 218 262
f 217 261 223
f 213 256 250
f 218 219 264
f 218 263 262
f 215 222 260
f 213 250 255
f 208 252 248
f 212 214 254
f 201 247 246
f 201 202 247
f 202 248 247
f 202 203 248
f 203 208 248
f 203 204 208
f 205 249 209
f 205 206 249
f 213 255 251
f 206 251 250
f 206 250 249
f 207 210 251
f 208 209 252
f 209 253 252
f 209 249 253
f 210 213 251
f 211 254 213
f 211 212 254
f 206 207 251
f 219 265 264
f 227 268 267
f 222 223 260
f 236 276 274
f 236 277 276
f 236 275 277
f 237 239 278
f 237 279 275
f 237 278 279
f 238 280 239
f 238 281 280
f 238 240 281
f 239 282 278
f 239 280 282
f 240 283 281
f 241 242 284
f 242 285 284
f 242 244 285
f 243 286 244
f 243 245 286
f 244 245 287
f 244 286 245
f 236 237 275
f 219 224 265
f 235 236 274
f 235 273 271
f 223 259 260
f 223 261 259
f 224 266 265
f 224 267 266
f 224 227 267
f 224 225 227
f 225 226 227
f 227 228 268
f 228 229 268
f 229 230 268
f 230 233 268
f 233 269 266
f 233 270 269
f 233 234 270
f 233 266 268
f 234 235 271
f 234 272 270
f 201 246 245
f 234 271 273
f 235 274 273
f 234 273 272
f 192 232 231
f 200 243 244
f 167 168 210
f 168 169 210
f 169 212 211
f 169 170 212
f 169 213 210
f 169 211 213
f 170 171 212
f 171 173 212
f 167 210 207
f 171 172 173
f 173 174 214
f 174 215 214
f 174 175 215
f 175 178 216
f 175 216 215
f 176 217 179
f 176 218 217
f 176 177 218
f 173 214 212
f 166 205 209
f 166 209 208
f 166 208 204
f 159 195 194
f 159 196 195
f 244 288 285
f 159 197 196
f 159 191 197
f 161 198 164
f 161 199 198
f 161 200 199
f 161 162 200
f 162 201 200
f 162 163 201
f 163 202 201
f 163 203 202
f 163 165 203
f 165 204 203
f 165 166 204
f 166 206 205
f 166 207 206
f 166 167 207
f 177 180 219
f 177 219 218
f 178 179 216
f 179 220 216
f 193 234 233
f 193 194 234
f 193 233 230
f 194 235 234
f 194 195 235
f 195 236 235
f 195 237 236
f 195 196 237
f 196 197 238
f 196 239 237
f 196 238 239
f 197 240 238
f 197 232 240
f 197 231 232
f 198 199 241
f 199 242 241
f 199 200 242
f 200 201 243
f 200 244 242
f 192 231 197
f 201 245 243
f 191 192 197
f 189 190 230
f 179 221 220
f 179 223 222
f 179 217 223
f 180 224 219
f 180 225 224
f 180 182 225
f 180 181 182
f 182 226 225
f 182 185 226
f 182 183 185
f 183 184 185
f 185 186 226
f 186 227 226
f 186 228 227
f 186 187 228
f 187 229 228
f 187 188 229
f 188 189 229
f 189 230 229
f 190 193 230
f 179 222 221
f 289 332 290
f 245 246 289
f 304 309 310
f 306 307 308
f 312 346 344
f 312 314 346
f 313 317 347
f 313 348 315
f 313 349 348
f 313 347 349
f 303 312 344
f 314 350 346
f 315 351 350
f 315 348 351
f 316 347 317
f 316 321 347
f 318 352 320
f 318 323 352
f 319 320 335
f 319 334 321
f 314 315 350
f 303 304 310
f 303 310 311
f 303 311 312
f 293 338 337
f 293 294 338
f 294 295 338
f 295 339 338
f 295 296 339
f 296 340 339
f 296 298 340
f 296 297 298
f 298 341 340
f 298 342 341
f 298 299 342
f 299 300 342
f 300 343 341
f 300 301 343
f 300 341 342
f 301 302 343
f 302 303 344
f 302 345 343
f 302 344 345
f 319 333 334
f 293 337 336
f 319 335 333
f 321 353 347
f 337 360 351
f 338 339 360
f 339 361 360
f 339 340 361
f 340 345 361
f 340 341 345
f 341 343 345
f 344 361 345
f 337 351 349
f 344 350 361
f 347 362 349
f 347 358 362
f 347 353 358
f 348 349 351
f 349 362 359
f 350 360 361
f 158 159 194
f 350 351 360
f 344 346 350
f 337 349 359
f 337 338 360
f 336 337 359
f 321 330 353
f 321 334 330
f 322 327 326
f 323 324 352
f 324 325 329
f 324 335 352
f 325 354 329
f 325 326 354
f 326 356 355
f 326 327 356
f 326 355 354
f 327 355 356
f 328 329 354
f 330 331 353
f 331 332 353
f 332 336 353
f 336 357 353
f 336 358 357
f 336 359 358
f 320 352 335
f 292 294 293
f 291 293 336
f 289 336 332
f 259 301 300
f 259 261 301
f 261 262 302
f 261 302 301
f 262 303 302
f 262 304 303
f 262 263 304
f 263 305 304
f 259 300 299
f 263 306 305
f 263 264 307
f 264 308 307
f 264 265 308
f 265 269 308
f 265 266 269
f 266 267 268
f 269 306 308
f 269 270 306
f 263 307 306
f 258 259 299
f 257 258 299
f 257 299 298
f 245 290 287
f 245 289 290
f 246 291 289
f 246 247 291
f 247 248 291
f 248 252 292
f 248 293 291
f 248 292 293
f 249 250 253
f 250 251 255
f 250 256 253
f 252 294 292
f 252 253 294
f 253 295 294
f 253 296 295
f 253 297 296
f 253 256 297
f 256 298 297
f 256 257 298
f 270 272 306
f 272 305 306
f 272 304 305
f 272 309 304
f 282 323 318
f 282 324 323
f 282 325 324
f 282 326 325
f 282 322 326
f 283 327 322
f 284 285 328
f 285 329 328
f 285 324 329
f 285 288 324
f 287 331 330
f 287 332 331
f 287 290 332
f 287 333 288
f 287 334 333
f 287 330 334
f 288 335 324
f 288 333 335
f 289 291 336
f 280 281 283
f 244 287 288
f 280 283 322
f 279 319 321
f 272 310 309
f 272 273 310
f 273 311 310
f 273 312 311
f 273 274 312
f 274 276 313
f 274 314 312
f 274 315 314
f 274 313 315
f 275 316 277
f 275 279 316
f 276 317 313
f 276 277 317
f 277 316 317
f 278 282 318
f 278 319 279
f 278 320 319
f 278 318 320
f 279 321 316
f 280 322 282
f 158 194 193
f 68 96 95
f 157 193 190
f 32 33 58
f 33 34 58
f 34 59 58
f 34 35 59
f 35 36 60
f 35 61 59
f 35 60 61
f 36 62 60
f 32 58 57
f 36 37 62
f 37 64 63
f 37 38 64
f 38 65 64
f 38 66 65
f 38 67 66
f 38 68 67
f 38 69 68
f 43 71 70
f 37 63 62
f 32 57 56
f 31 32 56
f 31 56 55
f 19 20 21
f 21 23 48
f 21 22 23
f 23 24 25
f 23 49 48
f 23 50 49
f 23 51 50
f 23 25 51
f 25 52 51
f 25 26 52
f 26 47 52
f 26 53 47
f 26 28 53
f 28 29 54
f 28 54 53
f 29 53 54
f 29 30 53
f 30 31 55
f 30 55 53
f 43 72 71
f 19 21 48
f 43 44 72
f 44 45 73
f 60 81 82
f 61 83 80
f 61 82 83
f 62 63 81
f 63 85 84
f 63 64 85
f 63 84 81
f 64 86 85
f 60 82 61
f 64 87 86
f 65 88 87
f 65 89 88
f 65 66 89
f 66 90 89
f 66 91 90
f 66 92 91
f 66 67 92
f 67 93 92
f 64 65 87
f 60 62 81
f 59 61 80
f 59 80 78
f 45 75 74
f 45 46 75
f 45 76 73
f 45 74 76
f 46 47 75
f 47 53 75
f 47 51 52
f 47 50 51
f 47 49 50
f 47 48 49
f 53 77 75
f 53 78 77
f 53 79 78
f 53 57 79
f 53 56 57
f 53 55 56
f 57 58 79
f 58 78 79
f 58 59 78
f 44 73 72
f 67 94 93
f 19 48 47
f 17 39 27
f 2 240 232
f 2 283 240
f 2 327 283
f 2 355 327
f 2 354 355
f 2 328 354
f 2 284 328
f 2 241 284
f 2 232 192
f 2 198 241
f 2 135 164
f 2 98 135
f 2 70 98
f 2 43 70
f 2 42 43
f 2 41 42
f 2 40 41
f 2 39 40
f 2 164 198
f 2 192 160
f 2 160 132
f 2 132 97
f 353 357 358
f 1 9 2
f 1 3 9
f 1 4 3
f 1 5 4
f 1 6 5
f 1 7 6
f 1 8 7
f 1 2 8
f 2 10 8
f 2 11 10
f 2 12 11
f 2 13 12
f 2 14 13
f 2 15 14
f 2 16 15
f 2 38 16
f 2 69 38
f 2 97 69
f 2 27 39
f 19 47 46
f 2 9 27
f 3 4 17
f 13 14 31
f 14 32 31
f 14 15 32
f 15 34 33
f 15 35 34
f 15 36 35
f 15 16 36
f 15 33 32
f 13 31 30
f 16 37 36
f 17 40 39
f 17 41 40
f 17 42 41
f 17 43 42
f 17 44 43
f 17 45 44
f 17 46 45
f 17 19 46
f 16 38 37
f 12 13 30
f 12 30 29
f 11 12 29
f 4 5 18
f 4 19 17
f 4 18 19
f 5 6 20
f 5 19 18
f 5 20 19
f 6 21 20
f 6 22 21
f 6 23 22
f 6 24 23
f 6 7 24
f 7 25 24
f 7 8 25
f 8 26 25
f 8 10 26
f 9 17 27
f 10 28 26
f 10 11 28
f 11 29 28
f 3 17 9
f 67 95 94
f 67 68 95
f 68 97 96
f 129 155 131
f 129 156 155
f 129 132 156
f 130 153 154
f 130 157 153
f 130 131 157
f 131 159 158
f 131 155 159
f 126 127 128
f 131 158 157
f 133 161 135
f 133 162 161
f 133 163 162
f 133 136 163
f 133 134 136
f 135 161 164
f 136 165 163
f 136 166 165
f 132 160 156
f 125 126 128
f 125 128 130
f 124 125 130
f 115 146 145
f 115 147 146
f 115 148 147
f 115 116 148
f 116 149 148
f 116 144 149
f 117 118 144
f 118 119 144
f 119 150 144
f 119 120 150
f 120 121 150
f 121 152 151
f 121 122 152
f 121 151 150
f 122 153 152
f 122 154 153
f 122 123 154
f 123 130 154
f 123 124 130
f 136 167 166
f 114 115 145
f 136 137 167
f 137 138 168
f 149 182 181
f 149 183 182
f 149 150 183
f 150 184 183
f 150 151 184
f 151 185 184
f 151 186 185
f 151 187 186
f 149 181 180
f 151 188 187
f 152 189 188
f 152 153 189
f 153 190 189
f 153 157 190
f 155 156 160
f 155 191 159
f 155 192 191
f 155 160 192
f 151 152 188
f 149 180 177
f 148 176 179
f 148 179 178
f 138 170 169
f 138 171 170
f 138 139 171
f 138 169 168
f 139 140 171
f 140 143 171
f 141 172 143
f 141 145 172
f 143 172 171
f 144 150 149
f 145 173 172
f 145 174 173
f 145 146 174
f 146 147 174
f 147 148 175
f 147 175 174
f 148 177 176
f 148 149 177
f 148 178 175
f 137 168 167
f 113 145 141
f 113 141 142
f 113 114 145
f 80 83 109
f 81 84 82
f 82 84 111
f 82 112 83
f 82 111 112
f 83 113 109
f 83 114 113
f 83 115 114
f 80 109 110
f 83 116 115
f 84 85 117
f 84 117 111
f 85 86 117
f 86 118 117
f 86 119 118
f 86 87 119
f 87 120 119
f 87 88 120
f 83 112 116
f 78 80 110
f 78 110 109
f 78 109 108
f 68 69 97
f 70 99 98
f 70 71 99
f 71 100 99
f 71 101 100
f 71 102 101
f 71 72 102
f 72 103 102
f 72 73 103
f 73 76 103
f 74 104 76
f 74 105 104
f 74 77 105
f 74 75 77
f 76 106 103
f 76 107 106
f 76 104 107
f 77 108 105
f 77 78 108
f 88 121 120
f 88 89 121
f 89 122 121
f 89 123 122
f 100 138 137
f 100 101 138
f 101 139 138
f 101 102 139
f 102 140 139
f 102 103 140
f 103 106 140
f 104 141 107
f 104 142 141
f 104 108 142
f 104 105 108
f 106 107 140
f 107 143 140
f 107 141 143
f 108 109 142
f 109 113 142
f 111 117 144
f 111 116 112
f 111 144 116
f 99 100 137
f 157 158 193
f 99 137 136
f 98 133 135
f 89 124 123
f 89 125 124
f 89 126 125
f 89 127 126
f 89 90 127
f 90 91 127
f 91 128 127
f 91 92 128
f 92 93 128
f 93 94 128
f 94 96 128
f 94 95 96
f 96 97 129
f 96 130 128
f 96 131 130
f 96 129 131
f 97 132 129
f 98 134 133
f 98 99 134
f 99 136 134
f 358 359 362
