# https://github.com/mikedh/trimesh
v -0.00313314 -0.00438453 -0.01424835 0.54117647 0.42352941 0.64313725
v -0.01500948 -0.00058318 -0.01024947 0.54117647 0.42352941 0.64313725
v -0.01487811 -0.00062114 -0.01128463 0.54117647 0.42352941 0.64313725
v -0.01449448 -0.00073246 -0.01224891 0.54117647 0.42352941 0.64313725
v -0.01388415 -0.00090956 -0.01307803 0.54117647 0.42352941 0.64313725
v -0.01308782 -0.00114105 -0.01371264 0.54117647 0.42352941 0.64313725
v -0.01216246 -0.00141050 -0.01411319 0.54117647 0.42352941 0.64313725
v -0.01116734 -0.00169892 -0.01424835 0.54117647 0.42352941 0.64313725
v -0.00313314 0.00585696 -0.01424835 0.54117647 0.42352941 0.64313725
v -0.00313314 -0.00438453 -0.00275116 0.54117647 0.42352941 0.64313725
v -0.01500948 -0.00058318 -0.00924893 0.54117647 0.42352941 0.64313725
v -0.01235776 0.00853877 -0.01024947 0.54117647 0.42352941 0.64313725
v -0.01222639 0.00849956 -0.01128463 0.54117647 0.42352941 0.64313725
v -0.01184276 0.00838824 -0.01224891 0.54117647 0.42352941 0.64313725
v -0.01123244 0.00821114 -0.01307803 0.54117647 0.42352941 0.64313725
v -0.01043611 0.00797964 -0.01371264 0.54117647 0.42352941 0.64313725
v -0.00951074 0.00771020 -0.01411319 0.54117647 0.42352941 0.64313725
v -0.00851678 0.00742177 -0.01424835 0.54117647 0.42352941 0.64313725
v -0.00971651 0.00777092 -0.01074892 0.54117647 0.42352941 0.64313725
v -0.00448166 0.00624911 -0.00014513 0.54117647 0.42352941 0.64313725
v -0.00313314 0.00585696 -0.00227809 0.54117647 0.42352941 0.64313725
v -0.00470603 0.00631363 0.00069717 0.54117647 0.42352941 0.64313725
v -0.00514314 0.00644139 0.00144057 0.54117647 0.42352941 0.64313725
v -0.00575928 0.00661976 0.00203233 0.54117647 0.42352941 0.64313725
v -0.00841099 -0.00250093 0.00203233 0.54117647 0.42352941 0.64313725
v -0.00915850 -0.00228335 0.00242463 0.54117647 0.42352941 0.64313725
v -0.00998156 -0.00204427 0.00258782 0.54117647 0.42352941 0.64313725
v -0.01081625 -0.00180139 0.00251035 0.54117647 0.42352941 0.64313725
v -0.01159863 -0.00157495 0.00219716 0.54117647 0.42352941 0.64313725
v -0.01226825 -0.00138014 0.00167299 0.54117647 0.42352941 0.64313725
v -0.01277394 -0.00123340 0.00097574 0.54117647 0.42352941 0.64313725
v -0.01307620 -0.00114485 0.00016311 0.54117647 0.42352941 0.64313725
v -0.01490252 -0.00061355 -0.00847915 0.54117647 0.42352941 0.64313725
v -0.01235776 0.00853877 -0.00924893 0.54117647 0.42352941 0.64313725
v -0.00978161 0.00778989 -0.00274951 0.54117647 0.42352941 0.64313725
v -0.00961653 0.00774182 0.00167299 0.54117647 0.42352941 0.64313725
v -0.00816570 0.00731931 0.00251035 0.54117647 0.42352941 0.64313725
v -0.00650794 0.00683734 0.00242463 0.54117647 0.42352941 0.64313725
v -0.00733101 0.00707643 0.00258782 0.54117647 0.42352941 0.64313725
v -0.00894808 0.00754701 0.00219716 0.54117647 0.42352941 0.64313725
v -0.01012223 0.00788856 0.00097574 0.54117647 0.42352941 0.64313725
v -0.01042448 0.00797585 0.00016311 0.54117647 0.42352941 0.64313725
v -0.01225081 0.00850715 -0.00847915 0.54117647 0.42352941 0.64313725
f 23 36 37
f 20 35 23
f 23 37 38
f 23 35 36
f 21 23 22
f 23 38 24
f 20 23 21
f 19 35 20
f 12 18 16
f 12 14 13
f 12 15 14
f 12 16 15
f 12 35 19
f 12 34 35
f 24 38 26
f 10 33 11
f 11 33 34
f 16 18 17
f 24 26 25
f 32 42 43
f 26 39 27
f 34 36 35
f 10 32 33
f 34 41 36
f 34 42 41
f 34 43 42
f 33 43 34
f 32 43 33
f 32 41 42
f 31 41 32
f 30 41 31
f 30 36 41
f 30 40 36
f 29 40 30
f 28 40 29
f 28 37 40
f 27 37 28
f 27 39 37
f 26 38 39
f 10 31 32
f 1 11 2
f 10 29 30
f 3 14 4
f 3 13 14
f 2 12 3
f 2 34 12
f 2 11 34
f 1 10 11
f 1 21 10
f 1 9 21
f 1 18 9
f 1 8 18
f 1 7 8
f 1 6 7
f 1 5 6
f 1 4 5
f 1 3 4
f 1 2 3
f 36 40 37
f 3 12 13
f 10 30 31
f 4 14 15
f 5 15 16
f 10 28 29
f 10 27 28
f 10 26 27
f 10 25 26
f 10 24 25
f 10 23 24
f 10 22 23
f 10 21 22
f 9 20 21
f 9 19 20
f 9 12 19
f 9 18 12
f 7 18 8
f 7 17 18
f 6 17 7
f 6 16 17
f 5 16 6
f 4 15 5
f 37 39 38
