# https://github.com/mikedh/trimesh
v 0.00512147 0.00095800 -0.01126049 0.43529412 0.89019608 0.96078431
v 0.00562587 0.00073451 -0.01121729 0.43529412 0.89019608 0.96078431
v 0.00559651 0.00066574 -0.01117779 0.43529412 0.89019608 0.96078431
v 0.00616491 0.00054541 -0.01110743 0.43529412 0.89019608 0.96078431
v 0.00615136 0.00049574 -0.01104202 0.43529412 0.89019608 0.96078431
v 0.00645776 0.00051484 -0.01099388 0.43529412 0.89019608 0.96078431
v 0.00646303 0.00056451 -0.01105806 0.43529412 0.89019608 0.96078431
v 0.00617470 0.00061799 -0.01114693 0.43529412 0.89019608 0.96078431
v 0.00673029 0.00070586 -0.01103955 0.43529412 0.89019608 0.96078431
v 0.00674460 0.00063900 -0.01100005 0.43529412 0.89019608 0.96078431
v 0.00674685 0.00059125 -0.01093710 0.43529412 0.89019608 0.96078431
v 0.00723846 0.00085103 -0.01083095 0.43529412 0.89019608 0.96078431
v 0.00723997 0.00083575 -0.01080750 0.43529412 0.89019608 0.96078431
v 0.00815241 0.00148520 -0.01041746 0.43529412 0.89019608 0.96078431
v 0.00814865 0.00152913 -0.01047177 0.43529412 0.89019608 0.96078431
v 0.00723168 0.00088159 -0.01086798 0.43529412 0.89019608 0.96078431
v 0.00721889 0.00091788 -0.01089637 0.43529412 0.89019608 0.96078431
v 0.00812907 0.00158452 -0.01051003 0.43529412 0.89019608 0.96078431
v 0.00738075 0.00112991 -0.01085440 0.43529412 0.89019608 0.96078431
v 0.00720910 0.00094081 -0.01090871 0.43529412 0.89019608 0.96078431
v 0.00670921 0.00077462 -0.01105189 0.43529412 0.89019608 0.96078431
v 0.00717673 0.00100193 -0.01092352 0.43529412 0.89019608 0.96078431
v 0.00527731 0.01990090 -0.01003606 0.43529412 0.89019608 0.96078431
v 0.00440928 0.01990090 -0.01021380 0.43529412 0.89019608 0.96078431
v 0.00649766 0.00071732 -0.01109879 0.43529412 0.89019608 0.96078431
v 0.00617997 0.00069440 -0.01115557 0.43529412 0.89019608 0.96078431
v 0.00587055 0.00074024 -0.01119877 0.43529412 0.89019608 0.96078431
v 0.00360976 0.01990090 -0.01033229 0.43529412 0.89019608 0.96078431
v 0.00600832 0.01990090 -0.00982869 0.43529412 0.89019608 0.96078431
v 0.00809821 0.00163801 -0.01052854 0.43529412 0.89019608 0.96078431
v 0.00834589 0.00182138 -0.01038413 0.43529412 0.89019608 0.96078431
v 0.00911379 0.00231611 -0.00983486 0.43529412 0.89019608 0.96078431
v 0.00912433 0.00224925 -0.00978302 0.43529412 0.89019608 0.96078431
v 0.00911981 0.00222442 -0.00975217 0.43529412 0.89019608 0.96078431
v 0.00863197 0.00183284 -0.01005334 0.43529412 0.89019608 0.96078431
v 0.00910325 0.00219577 -0.00970403 0.43529412 0.89019608 0.96078431
v 0.00955194 0.00255870 -0.00937323 0.43529412 0.89019608 0.96078431
v 0.00956022 0.00260072 -0.00941397 0.43529412 0.89019608 0.96078431
v 0.00955420 0.00265038 -0.00944729 0.43529412 0.89019608 0.96078431
v 0.00996224 0.00295601 -0.00897208 0.43529412 0.89019608 0.96078431
v 0.00996224 0.00290825 -0.00894493 0.43529412 0.89019608 0.96078431
v 0.01017680 0.00316421 -0.00864129 0.43529412 0.89019608 0.96078431
v 0.01029876 0.00319860 -0.00840183 0.43529412 0.89019608 0.96078431
v 0.01029274 0.00324635 -0.00841541 0.43529412 0.89019608 0.96078431
v 0.00986889 0.00529784 -0.00871288 0.43529412 0.89019608 0.96078431
v 0.00995095 0.00300376 -0.00899060 0.43529412 0.89019608 0.96078431
v 0.00977027 0.00287196 -0.00921771 0.43529412 0.89019608 0.96078431
v 0.00952559 0.00534178 -0.00913995 0.43529412 0.89019608 0.96078431
v 0.00954968 0.00270769 -0.00945346 0.43529412 0.89019608 0.96078431
v 0.00909196 0.00236768 -0.00985585 0.43529412 0.89019608 0.96078431
v 0.00908518 0.00538380 -0.00953740 0.43529412 0.89019608 0.96078431
v 0.00856497 0.00541627 -0.00989535 0.43529412 0.89019608 0.96078431
v 0.00716769 0.01990090 -0.00928313 0.43529412 0.89019608 0.96078431
v 0.00867563 0.00896914 -0.00943125 0.43529412 0.89019608 0.96078431
v 0.00910701 0.00893285 -0.00905478 0.43529412 0.89019608 0.96078431
v 0.00759079 0.01990090 -0.00894369 0.43529412 0.89019608 0.96078431
v 0.00791301 0.01990090 -0.00856476 0.43529412 0.89019608 0.96078431
v 0.00767436 0.01990090 -0.00884989 0.43529412 0.89019608 0.96078431
v 0.00895193 0.01261179 -0.00859192 0.43529412 0.89019608 0.96078431
v 0.00944052 0.00889274 -0.00864746 0.43529412 0.89019608 0.96078431
v 0.00967917 0.00884880 -0.00822039 0.43529412 0.89019608 0.96078431
v 0.01053289 0.00340489 -0.00777727 0.43529412 0.89019608 0.96078431
v 0.01052612 0.00331129 -0.00775629 0.43529412 0.89019608 0.96078431
v 0.01029274 0.00315084 -0.00838332 0.43529412 0.89019608 0.96078431
v 0.00994944 0.00286623 -0.00891160 0.43529412 0.89019608 0.96078431
v 0.00992987 0.00283567 -0.00887087 0.43529412 0.89019608 0.96078431
v 0.01024681 0.00307444 -0.00833518 0.43529412 0.89019608 0.96078431
v 0.01038007 0.00316803 -0.00801303 0.43529412 0.89019608 0.96078431
v 0.00747034 0.00039068 -0.00795501 0.43529412 0.89019608 0.96078431
v 0.00953237 0.00252814 -0.00932880 0.43529412 0.89019608 0.96078431
v 0.00814036 0.00145845 -0.01035821 0.43529412 0.89019608 0.96078431
v 0.00723319 0.00081283 -0.01074085 0.43529412 0.89019608 0.96078431
v 0.00746055 0.00039068 -0.00799821 0.43529412 0.89019608 0.96078431
v 0.00755842 0.00039068 -0.00644669 0.43529412 0.89019608 0.96078431
v 0.01087920 0.00340107 -0.00500996 0.43529412 0.89019608 0.96078431
v 0.00755842 0.00039068 -0.00355594 0.43529412 0.89019608 0.96078431
v 0.00747034 0.00039068 -0.00204515 0.43529412 0.89019608 0.96078431
v 0.00746055 0.00039068 -0.00200195 0.43529412 0.89019608 0.96078431
v 0.00814036 0.00145845 0.00035928 0.43529412 0.89019608 0.96078431
v 0.00863197 0.00183284 0.00005317 0.43529412 0.89019608 0.96078431
v 0.00815241 0.00148520 0.00041606 0.43529412 0.89019608 0.96078431
v 0.00723997 0.00083575 0.00080734 0.43529412 0.89019608 0.96078431
v 0.00723319 0.00081283 0.00074068 0.43529412 0.89019608 0.96078431
v 0.00674384 0.00057788 0.00090238 0.43529412 0.89019608 0.96078431
v 0.00674685 0.00059125 0.00093694 0.43529412 0.89019608 0.96078431
v 0.00674761 0.00061226 0.00097026 0.43529412 0.89019608 0.96078431
v 0.00723168 0.00088159 0.00086782 0.43529412 0.89019608 0.96078431
v 0.00814865 0.00152913 0.00047037 0.43529412 0.89019608 0.96078431
v 0.00912433 0.00224925 -0.00021714 0.43529412 0.89019608 0.96078431
v 0.00910325 0.00219577 -0.00029614 0.43529412 0.89019608 0.96078431
v 0.00955194 0.00255870 -0.00062693 0.43529412 0.89019608 0.96078431
v 0.00956022 0.00260072 -0.00058620 0.43529412 0.89019608 0.96078431
v 0.00996224 0.00290634 -0.00105523 0.43529412 0.89019608 0.96078431
v 0.00994944 0.00286432 -0.00108856 0.43529412 0.89019608 0.96078431
v 0.00953237 0.00252814 -0.00067013 0.43529412 0.89019608 0.96078431
v 0.00992987 0.00283567 -0.00112929 0.43529412 0.89019608 0.96078431
v 0.01024681 0.00307444 -0.00166498 0.43529412 0.89019608 0.96078431
v 0.01029274 0.00315084 -0.00161684 0.43529412 0.89019608 0.96078431
v 0.01029876 0.00319860 -0.00159833 0.43529412 0.89019608 0.96078431
v 0.01052612 0.00331129 -0.00224387 0.43529412 0.89019608 0.96078431
v 0.01038007 0.00316803 -0.00198714 0.43529412 0.89019608 0.96078431
v 0.01047643 0.00323298 -0.00227473 0.43529412 0.89019608 0.96078431
v 0.01074595 0.00344309 -0.00311653 0.43529412 0.89019608 0.96078431
v 0.01053289 0.00340489 -0.00222289 0.43529412 0.89019608 0.96078431
v 0.01029274 0.00324635 -0.00158475 0.43529412 0.89019608 0.96078431
v 0.00967917 0.00884880 -0.00177977 0.43529412 0.89019608 0.96078431
v 0.00986889 0.00529784 -0.00128728 0.43529412 0.89019608 0.96078431
v 0.00944052 0.00889274 -0.00135270 0.43529412 0.89019608 0.96078431
v 0.00952559 0.00534369 -0.00086021 0.43529412 0.89019608 0.96078431
v 0.00910701 0.00893285 -0.00094538 0.43529412 0.89019608 0.96078431
v 0.00895193 0.01261179 -0.00140701 0.43529412 0.89019608 0.96078431
v 0.00791301 0.01990090 -0.00143540 0.43529412 0.89019608 0.96078431
v 0.00848818 0.01608443 -0.00146502 0.43529412 0.89019608 0.96078431
v 0.00796872 0.01990090 -0.00152797 0.43529412 0.89019608 0.96078431
v 0.00870424 0.01610162 -0.00183161 0.43529412 0.89019608 0.96078431
v 0.00919208 0.01257740 -0.00181310 0.43529412 0.89019608 0.96078431
v 0.00935470 0.01254111 -0.00222042 0.43529412 0.89019608 0.96078431
v 0.00885406 0.01611308 -0.00222042 0.43529412 0.89019608 0.96078431
v 0.00812757 0.01990090 -0.00182297 0.43529412 0.89019608 0.96078431
v 0.00827738 0.01990090 -0.00222042 0.43529412 0.89019608 0.96078431
v 0.00872758 0.01858290 -0.00311776 0.43529412 0.89019608 0.96078431
v 0.00851980 0.01990090 -0.00311776 0.43529412 0.89019608 0.96078431
v 0.00881416 0.01889425 -0.00397807 0.43529412 0.89019608 0.96078431
v 0.00886686 0.01854660 -0.00397807 0.43529412 0.89019608 0.96078431
v 0.00987642 0.01145806 -0.00398918 0.43529412 0.89019608 0.96078431
v 0.00924704 0.01633275 -0.00499021 0.43529412 0.89019608 0.96078431
v 0.00960539 0.01381518 -0.00500996 0.43529412 0.89019608 0.96078431
v 0.01032210 0.00850498 -0.00499021 0.43529412 0.89019608 0.96078431
v 0.01088974 0.00359400 -0.00400153 0.43529412 0.89019608 0.96078431
v 0.01022197 0.00781159 -0.00311900 0.43529412 0.89019608 0.96078431
v 0.01075498 0.00353860 -0.00310542 0.43529412 0.89019608 0.96078431
v 0.00997203 0.00788227 -0.00222166 0.43529412 0.89019608 0.96078431
v 0.01089049 0.00358444 -0.00400153 0.43529412 0.89019608 0.96078431
v 0.01094470 0.00357489 -0.00500008 0.43529412 0.89019608 0.96078431
v 0.01094545 0.00353478 -0.00498897 0.43529412 0.89019608 0.96078431
v 0.01087694 0.00349849 -0.00400276 0.43529412 0.89019608 0.96078431
v 0.01082500 0.00342208 -0.00400646 0.43529412 0.89019608 0.96078431
v 0.01091910 0.00345073 -0.00500008 0.43529412 0.89019608 0.96078431
v 0.01093265 0.00347939 -0.00498897 0.43529412 0.89019608 0.96078431
v 0.01094169 0.00350995 -0.00501119 0.43529412 0.89019608 0.96078431
v 0.01087694 0.00349849 -0.00599864 0.43529412 0.89019608 0.96078431
v 0.01082500 0.00342208 -0.00599370 0.43529412 0.89019608 0.96078431
v 0.01069400 0.00336478 -0.00313628 0.43529412 0.89019608 0.96078431
v 0.01069400 0.00336478 -0.00686389 0.43529412 0.89019608 0.96078431
v 0.01074595 0.00344309 -0.00688240 0.43529412 0.89019608 0.96078431
v 0.01089049 0.00358444 -0.00599864 0.43529412 0.89019608 0.96078431
v 0.01088974 0.00359400 -0.00599864 0.43529412 0.89019608 0.96078431
v 0.01075498 0.00353860 -0.00689474 0.43529412 0.89019608 0.96078431
v 0.01020390 0.00794339 -0.00688610 0.43529412 0.89019608 0.96078431
v 0.00995547 0.00801216 -0.00777851 0.43529412 0.89019608 0.96078431
v 0.00935470 0.01254111 -0.00777974 0.43529412 0.89019608 0.96078431
v 0.00919208 0.01257740 -0.00818706 0.43529412 0.89019608 0.96078431
v 0.00870424 0.01610162 -0.00816855 0.43529412 0.89019608 0.96078431
v 0.00885406 0.01611308 -0.00777974 0.43529412 0.89019608 0.96078431
v 0.00871328 0.01867267 -0.00688734 0.43529412 0.89019608 0.96078431
v 0.00827738 0.01990090 -0.00777974 0.43529412 0.89019608 0.96078431
v 0.00812757 0.01990090 -0.00817719 0.43529412 0.89019608 0.96078431
v 0.00796872 0.01990090 -0.00847219 0.43529412 0.89019608 0.96078431
v 0.00848818 0.01608443 -0.00853514 0.43529412 0.89019608 0.96078431
v 0.00865531 0.01990090 -0.00601839 0.43529412 0.89019608 0.96078431
v 0.00851829 0.01990090 -0.00688734 0.43529412 0.89019608 0.96078431
v 0.00841515 0.01990090 -0.00728355 0.43529412 0.89019608 0.96078431
v 0.00885105 0.01864784 -0.00602085 0.43529412 0.89019608 0.96078431
v 0.00871328 0.01990090 -0.00500996 0.43529412 0.89019608 0.96078431
v 0.00885331 0.01898785 -0.00500996 0.43529412 0.89019608 0.96078431
v 0.00869973 0.01990090 -0.00473471 0.43529412 0.89019608 0.96078431
v 0.00865456 0.01990090 -0.00398178 0.43529412 0.89019608 0.96078431
v 0.00064074 0.01990090 -0.01029588 0.43529412 0.89019608 0.96078431
v 0.00349307 0.01990090 -0.01034463 0.43529412 0.89019608 0.96078431
v 0.00161405 0.01990090 -0.01046419 0.43529412 0.89019608 0.96078431
v 0.00092571 0.01990090 -0.01039223 0.43529412 0.89019608 0.96078431
v 0.00019130 0.00439244 -0.01067520 0.43529412 0.89019608 0.96078431
v 0.00105969 0.01990090 -0.01043736 0.43529412 0.89019608 0.96078431
v 0.00058899 0.00435996 -0.01079961 0.43529412 0.89019608 0.96078431
v 0.00071446 0.00427019 -0.01082522 0.43529412 0.89019608 0.96078431
v 0.00067405 0.00434850 -0.01082278 0.43529412 0.89019608 0.96078431
v 0.00136452 0.00418996 -0.01098012 0.43529412 0.89019608 0.96078431
v 0.00134467 0.00412119 -0.01096914 0.43529412 0.89019608 0.96078431
v 0.00399673 0.00187869 -0.01129382 0.43529412 0.89019608 0.96078431
v 0.00007858 0.00432176 -0.01062397 0.43529412 0.89019608 0.96078431
v -0.00055233 0.00435614 -0.01036174 0.43529412 0.89019608 0.96078431
v -0.00053957 0.00428165 -0.01035564 0.43529412 0.89019608 0.96078431
v -0.00323053 0.00039068 -0.00803702 0.43529412 0.89019608 0.96078431
v 0.00433099 0.00151958 -0.01129505 0.43529412 0.89019608 0.96078431
v 0.00416687 0.00179655 -0.01130492 0.43529412 0.89019608 0.96078431
v 0.00375958 0.00229892 -0.01128641 0.43529412 0.89019608 0.96078431
v 0.00205639 0.00382512 -0.01109111 0.43529412 0.89019608 0.96078431
v 0.00208971 0.00389007 -0.01110331 0.43529412 0.89019608 0.96078431
v 0.00275182 0.00346411 -0.01118015 0.43529412 0.89019608 0.96078431
v 0.00135743 0.01990090 -0.01045931 0.43529412 0.89019608 0.96078431
v 0.00178631 0.01990090 -0.01046541 0.43529412 0.89019608 0.96078431
v 0.00253986 0.01990090 -0.01043370 0.43529412 0.89019608 0.96078431
v 0.00461330 0.00137823 -0.01129628 0.43529412 0.89019608 0.96078431
v 0.00515836 0.00102676 -0.01126666 0.43529412 0.89019608 0.96078431
v 0.00508458 0.00089496 -0.01122099 0.43529412 0.89019608 0.96078431
v 0.00428055 0.00146800 -0.01125432 0.43529412 0.89019608 0.96078431
v 0.00557317 0.00061990 -0.01111114 0.43529412 0.89019608 0.96078431
v 0.00590217 0.00050720 -0.01099882 0.43529412 0.89019608 0.96078431
v 0.00613931 0.00047855 -0.01096919 0.43529412 0.89019608 0.96078431
v 0.00610845 0.00039068 -0.00925104 0.43529412 0.89019608 0.96078431
v -0.00326668 0.00039068 -0.00800287 0.43529412 0.89019608 0.96078431
v -0.00230471 0.00372579 -0.00912010 0.43529412 0.89019608 0.96078431
v -0.00174894 0.00402187 -0.00960431 0.43529412 0.89019608 0.96078431
v -0.00111661 0.00416131 -0.01003120 0.43529412 0.89019608 0.96078431
v -0.00092095 0.00429311 -0.01016415 0.43529412 0.89019608 0.96078431
v -0.00097341 0.00531886 -0.01008731 0.43529412 0.89019608 0.96078431
v -0.00110527 0.00524436 -0.01001169 0.43529412 0.89019608 0.96078431
v -0.00166317 0.00441727 -0.00966042 0.43529412 0.89019608 0.96078431
v -0.00168089 0.00518515 -0.00962017 0.43529412 0.89019608 0.96078431
v -0.00180069 0.00485469 -0.00953845 0.43529412 0.89019608 0.96078431
v -0.00232244 0.00451660 -0.00909327 0.43529412 0.89019608 0.96078431
v -0.00233449 0.00531313 -0.00906155 0.43529412 0.89019608 0.96078431
v -0.00231818 0.00723664 -0.00898959 0.43529412 0.89019608 0.96078431
v -0.00287183 0.00745440 -0.00840048 0.43529412 0.89019608 0.96078431
v -0.00290727 0.00546021 -0.00845049 0.43529412 0.89019608 0.96078431
v -0.00248548 0.00447839 -0.00893227 0.43529412 0.89019608 0.96078431
v -0.00259678 0.00352523 -0.00881762 0.43529412 0.89019608 0.96078431
v -0.00265562 0.00348130 -0.00875175 0.43529412 0.89019608 0.96078431
v -0.00298738 0.00421288 -0.00836023 0.43529412 0.89019608 0.96078431
v -0.00336663 0.00562066 -0.00779918 0.43529412 0.89019608 0.96078431
v -0.00326810 0.00142980 -0.00800287 0.43529412 0.89019608 0.96078431
v -0.00365374 0.00388625 -0.00713811 0.43529412 0.89019608 0.96078431
v -0.00364594 0.00680495 -0.00713445 0.43529412 0.89019608 0.96078431
v -0.00331347 0.00767788 -0.00777357 0.43529412 0.89019608 0.96078431
v -0.00262230 0.01150963 -0.00831511 0.43529412 0.89019608 0.96078431
v -0.00213033 0.01116008 -0.00886518 0.43529412 0.89019608 0.96078431
v -0.00168301 0.00703226 -0.00952747 0.43529412 0.89019608 0.96078431
v 0.00017358 0.01990090 -0.01001901 0.43529412 0.89019608 0.96078431
v -0.00027444 0.01990090 -0.00962139 0.43529412 0.89019608 0.96078431
v -0.00154974 0.01081052 -0.00936526 0.43529412 0.89019608 0.96078431
v -0.00181487 0.01468238 -0.00877371 0.43529412 0.89019608 0.96078431
v -0.00223950 0.01504531 -0.00825534 0.43529412 0.89019608 0.96078431
v -0.00067001 0.01990090 -0.00913230 0.43529412 0.89019608 0.96078431
v -0.00200131 0.01646264 -0.00822607 0.43529412 0.89019608 0.96078431
v -0.00255566 0.01538341 -0.00769917 0.43529412 0.89019608 0.96078431
v -0.00279101 0.01374450 -0.00771136 0.43529412 0.89019608 0.96078431
v -0.00301857 0.01406923 -0.00712835 0.43529412 0.89019608 0.96078431
v -0.00325605 0.01216290 -0.00712713 0.43529412 0.89019608 0.96078431
v -0.00300439 0.01185155 -0.00772722 0.43529412 0.89019608 0.96078431
v -0.00337160 0.01102828 -0.00712835 0.43529412 0.89019608 0.96078431
v -0.00351905 0.01124412 -0.00656486 0.43529412 0.89019608 0.96078431
v -0.00360128 0.00788991 -0.00713323 0.43529412 0.89019608 0.96078431
v -0.00379481 0.00729204 -0.00654656 0.43529412 0.89019608 0.96078431
v -0.00363460 0.00714304 -0.00713445 0.43529412 0.89019608 0.96078431
v -0.00383805 0.00540863 -0.00654290 0.43529412 0.89019608 0.96078431
v -0.00393729 0.00554234 -0.00592940 0.43529412 0.89019608 0.96078431
v -0.00391603 0.00380220 -0.00593062 0.43529412 0.89019608 0.96078431
v -0.00376574 0.00384040 -0.00676489 0.43529412 0.89019608 0.96078431
v -0.00327022 0.00039068 -0.00799189 0.43529412 0.89019608 0.96078431
v -0.00328157 0.00039068 -0.00795408 0.43529412 0.89019608 0.96078431
v -0.00373030 0.00208880 -0.00655876 0.43529412 0.89019608 0.96078431
v -0.00371754 0.00185768 -0.00654534 0.43529412 0.89019608 0.96078431
v -0.00381820 0.00189015 -0.00593672 0.43529412 0.89019608 0.96078431
v -0.00383521 0.00214420 -0.00593672 0.43529412 0.89019608 0.96078431
v -0.00382600 0.00189015 -0.00584524 0.43529412 0.89019608 0.96078431
v -0.00329433 0.00039068 -0.00781260 0.43529412 0.89019608 0.96078431
v -0.00339215 0.00039068 -0.00615260 0.43529412 0.89019608 0.96078431
v -0.00386782 0.00186340 -0.00499024 0.43529412 0.89019608 0.96078431
v -0.00388838 0.00217858 -0.00499024 0.43529412 0.89019608 0.96078431
v -0.00382600 0.00189015 -0.00415476 0.43529412 0.89019608 0.96078431
v -0.00386995 0.00260263 -0.00415598 0.43529412 0.89019608 0.96078431
v -0.00389051 0.00299230 -0.00415720 0.43529412 0.89019608 0.96078431
v -0.00388271 0.00299230 -0.00406450 0.43529412 0.89019608 0.96078431
v -0.00383521 0.00214420 -0.00406328 0.43529412 0.89019608 0.96078431
v -0.00373171 0.00208880 -0.00344856 0.43529412 0.89019608 0.96078431
v -0.00371754 0.00185768 -0.00345466 0.43529412 0.89019608 0.96078431
v -0.00381820 0.00189015 -0.00406328 0.43529412 0.89019608 0.96078431
v -0.00329433 0.00039068 -0.00218740 0.43529412 0.89019608 0.96078431
v -0.00336167 0.00039068 -0.00327780 0.43529412 0.89019608 0.96078431
v -0.00339215 0.00039068 -0.00384862 0.43529412 0.89019608 0.96078431
v -0.00323478 0.00039068 -0.00196664 0.43529412 0.89019608 0.96078431
v -0.00328157 0.00039068 -0.00204592 0.43529412 0.89019608 0.96078431
v -0.00376574 0.00384040 -0.00323511 0.43529412 0.89019608 0.96078431
v -0.00365374 0.00388625 -0.00286189 0.43529412 0.89019608 0.96078431
v -0.00383805 0.00540863 -0.00345710 0.43529412 0.89019608 0.96078431
v -0.00364594 0.00680495 -0.00286555 0.43529412 0.89019608 0.96078431
v -0.00336451 0.00561875 -0.00219716 0.43529412 0.89019608 0.96078431
v -0.00338081 0.00401232 -0.00223985 0.43529412 0.89019608 0.96078431
v -0.00326668 0.00039068 -0.00199713 0.43529412 0.89019608 0.96078431
v -0.00230471 0.00372579 -0.00087990 0.43529412 0.89019608 0.96078431
v -0.00259678 0.00352523 -0.00118238 0.43529412 0.89019608 0.96078431
v -0.00265562 0.00348130 -0.00124825 0.43529412 0.89019608 0.96078431
v -0.00298738 0.00421288 -0.00163977 0.43529412 0.89019608 0.96078431
v -0.00326810 0.00142980 -0.00199713 0.43529412 0.89019608 0.96078431
v -0.00290160 0.00545830 -0.00154219 0.43529412 0.89019608 0.96078431
v -0.00248548 0.00447839 -0.00106773 0.43529412 0.89019608 0.96078431
v -0.00232244 0.00451660 -0.00090673 0.43529412 0.89019608 0.96078431
v -0.00232385 0.00530931 -0.00092869 0.43529412 0.89019608 0.96078431
v -0.00286616 0.00745249 -0.00159220 0.43529412 0.89019608 0.96078431
v -0.00331134 0.00767788 -0.00222278 0.43529412 0.89019608 0.96078431
v -0.00261733 0.01150581 -0.00167758 0.43529412 0.89019608 0.96078431
v -0.00212040 0.01115244 -0.00112628 0.43529412 0.89019608 0.96078431
v -0.00230755 0.00723282 -0.00100065 0.43529412 0.89019608 0.96078431
v -0.00180069 0.00485469 -0.00046155 0.43529412 0.89019608 0.96078431
v -0.00166742 0.00702843 -0.00046033 0.43529412 0.89019608 0.96078431
v -0.00166458 0.00518133 -0.00036763 0.43529412 0.89019608 0.96078431
v -0.00110527 0.00524436 0.00001169 0.43529412 0.89019608 0.96078431
v -0.00166317 0.00441727 -0.00033958 0.43529412 0.89019608 0.96078431
v -0.00094506 0.00434468 0.00014829 0.43529412 0.89019608 0.96078431
v -0.00174894 0.00402187 -0.00039569 0.43529412 0.89019608 0.96078431
v -0.00111661 0.00416131 0.00003120 0.43529412 0.89019608 0.96078431
v -0.00092095 0.00429311 0.00016415 0.43529412 0.89019608 0.96078431
v -0.00097341 0.00531886 0.00008731 0.43529412 0.89019608 0.96078431
v 0.00019626 0.01990090 0.00003486 0.43529412 0.89019608 0.96078431
v -0.00153486 0.01080288 -0.00062377 0.43529412 0.89019608 0.96078431
v -0.00024609 0.01990090 -0.00034934 0.43529412 0.89019608 0.96078431
v -0.00180636 0.01467474 -0.00121775 0.43529412 0.89019608 0.96078431
v -0.00223524 0.01503958 -0.00173734 0.43529412 0.89019608 0.96078431
v -0.00064165 0.01990090 -0.00082867 0.43529412 0.89019608 0.96078431
v -0.00123783 0.01990090 -0.00190688 0.43529412 0.89019608 0.96078431
v -0.00097341 0.01990090 -0.00136290 0.43529412 0.89019608 0.96078431
v -0.00228699 0.01673961 -0.00230937 0.43529412 0.89019608 0.96078431
v -0.00199705 0.01646073 -0.00176783 0.43529412 0.89019608 0.96078431
v -0.00255424 0.01538150 -0.00229718 0.43529412 0.89019608 0.96078431
v -0.00271162 0.01592971 -0.00286555 0.43529412 0.89019608 0.96078431
v -0.00247343 0.01697456 -0.00286067 0.43529412 0.89019608 0.96078431
v -0.00161567 0.01990090 -0.00286067 0.43529412 0.89019608 0.96078431
v -0.00180494 0.01990090 -0.00348393 0.43529412 0.89019608 0.96078431
v -0.00195310 0.01990090 -0.00472313 0.43529412 0.89019608 0.96078431
v -0.00189356 0.01990090 -0.00410597 0.43529412 0.89019608 0.96078431
v -0.00265562 0.01728209 -0.00404133 0.43529412 0.89019608 0.96078431
v -0.00264144 0.01735085 -0.00409377 0.43529412 0.89019608 0.96078431
v -0.00270736 0.01712164 -0.00413036 0.43529412 0.89019608 0.96078431
v -0.00291507 0.01646837 -0.00500000 0.43529412 0.89019608 0.96078431
v -0.00286970 0.01645882 -0.00411573 0.43529412 0.89019608 0.96078431
v -0.00287608 0.01639578 -0.00402181 0.43529412 0.89019608 0.96078431
v -0.00258969 0.01716557 -0.00344978 0.43529412 0.89019608 0.96078431
v -0.00282079 0.01620095 -0.00343758 0.43529412 0.89019608 0.96078431
v -0.00301928 0.01574060 -0.00411695 0.43529412 0.89019608 0.96078431
v -0.00325109 0.01467092 -0.00500000 0.43529412 0.89019608 0.96078431
v -0.00311143 0.01518475 -0.00402181 0.43529412 0.89019608 0.96078431
v -0.00321777 0.01456395 -0.00407426 0.43529412 0.89019608 0.96078431
v -0.00333615 0.01378462 -0.00413646 0.43529412 0.89019608 0.96078431
v -0.00369840 0.01103019 -0.00500000 0.43529412 0.89019608 0.96078431
v -0.00348998 0.01259268 -0.00584524 0.43529412 0.89019608 0.96078431
v -0.00322060 0.01456586 -0.00588061 0.43529412 0.89019608 0.96078431
v -0.00321280 0.01456395 -0.00597697 0.43529412 0.89019608 0.96078431
v -0.00317807 0.01483328 -0.00588305 0.43529412 0.89019608 0.96078431
v -0.00311143 0.01518475 -0.00597819 0.43529412 0.89019608 0.96078431
v -0.00286190 0.01649511 -0.00588427 0.43529412 0.89019608 0.96078431
v -0.00287537 0.01639578 -0.00598063 0.43529412 0.89019608 0.96078431
v -0.00282079 0.01620095 -0.00656242 0.43529412 0.89019608 0.96078431
v -0.00303913 0.01502430 -0.00657096 0.43529412 0.89019608 0.96078431
v -0.00329362 0.01326506 -0.00657096 0.43529412 0.89019608 0.96078431
v -0.00275911 0.01568139 -0.00713323 0.43529412 0.89019608 0.96078431
v -0.00271162 0.01592971 -0.00713445 0.43529412 0.89019608 0.96078431
v -0.00228841 0.01674152 -0.00768697 0.43529412 0.89019608 0.96078431
v -0.00246989 0.01698984 -0.00713933 0.43529412 0.89019608 0.96078431
v -0.00258969 0.01716557 -0.00655022 0.43529412 0.89019608 0.96078431
v -0.00265562 0.01728209 -0.00595867 0.43529412 0.89019608 0.96078431
v -0.00180494 0.01990090 -0.00651607 0.43529412 0.89019608 0.96078431
v -0.00161567 0.01990090 -0.00713933 0.43529412 0.89019608 0.96078431
v -0.00195239 0.01990090 -0.00499268 0.43529412 0.89019608 0.96078431
v -0.00191057 0.01990090 -0.00580133 0.43529412 0.89019608 0.96078431
v -0.00193184 0.01990090 -0.00551959 0.43529412 0.89019608 0.96078431
v -0.00099822 0.01990090 -0.00859076 0.43529412 0.89019608 0.96078431
v -0.00125839 0.01990090 -0.00804190 0.43529412 0.89019608 0.96078431
v -0.00159936 0.01990090 -0.00718812 0.43529412 0.89019608 0.96078431
v 0.00066271 0.01990090 0.00030563 0.43529412 0.89019608 0.96078431
v -0.00055233 0.00435614 0.00036174 0.43529412 0.89019608 0.96078431
v -0.00053957 0.00428165 0.00035564 0.43529412 0.89019608 0.96078431
v 0.00007858 0.00432176 0.00062397 0.43529412 0.89019608 0.96078431
v 0.00019130 0.00439244 0.00067520 0.43529412 0.89019608 0.96078431
v 0.00071446 0.00427019 0.00082522 0.43529412 0.89019608 0.96078431
v 0.00058899 0.00435996 0.00079961 0.43529412 0.89019608 0.96078431
v 0.00067405 0.00434850 0.00082278 0.43529412 0.89019608 0.96078431
v 0.00134467 0.00412119 0.00096914 0.43529412 0.89019608 0.96078431
v 0.00399748 0.00187869 0.00129489 0.43529412 0.89019608 0.96078431
v 0.00433099 0.00151958 0.00129489 0.43529412 0.89019608 0.96078431
v 0.00413073 0.00183666 0.00130476 0.43529412 0.89019608 0.96078431
v 0.00375958 0.00229701 0.00128625 0.43529412 0.89019608 0.96078431
v 0.00177496 0.01990090 0.00046541 0.43529412 0.89019608 0.96078431
v 0.00253986 0.01990090 0.00043370 0.43529412 0.89019608 0.96078431
v 0.00460803 0.00138205 0.00129736 0.43529412 0.89019608 0.96078431
v 0.00515836 0.00102676 0.00126650 0.43529412 0.89019608 0.96078431
v 0.00512147 0.00095800 0.00126033 0.43529412 0.89019608 0.96078431
v 0.00562587 0.00073451 0.00121713 0.43529412 0.89019608 0.96078431
v 0.00559651 0.00066574 0.00117763 0.43529412 0.89019608 0.96078431
v 0.00508458 0.00089496 0.00122083 0.43529412 0.89019608 0.96078431
v 0.00428055 0.00146610 0.00125415 0.43529412 0.89019608 0.96078431
v 0.00557317 0.00061990 0.00111098 0.43529412 0.89019608 0.96078431
v 0.00615813 0.00051675 0.00107765 0.43529412 0.89019608 0.96078431
v 0.00616491 0.00054541 0.00110727 0.43529412 0.89019608 0.96078431
v 0.00615136 0.00049574 0.00104185 0.43529412 0.89019608 0.96078431
v 0.00663995 0.00053776 0.00088757 0.43529412 0.89019608 0.96078431
v 0.00614533 0.00048237 0.00100482 0.43529412 0.89019608 0.96078431
v 0.00590217 0.00050720 0.00099865 0.43529412 0.89019608 0.96078431
v 0.00613931 0.00047855 0.00096903 0.43529412 0.89019608 0.96078431
v 0.00620556 0.00039068 -0.00070716 0.43529412 0.89019608 0.96078431
v 0.00325442 0.00039068 -0.00195011 0.43529412 0.89019608 0.96078431
v 0.00663995 0.00053776 -0.01088773 0.43529412 0.89019608 0.96078431
v 0.00325442 0.00039068 -0.00804921 0.43529412 0.89019608 0.96078431
v -0.00380615 0.00165711 -0.00498902 0.43529412 0.89019608 0.96078431
v 0.00674460 0.00063900 0.00099989 0.43529412 0.89019608 0.96078431
v 0.00673029 0.00070586 0.00104062 0.43529412 0.89019608 0.96078431
v 0.00617470 0.00061799 0.00114800 0.43529412 0.89019608 0.96078431
v 0.00649766 0.00071732 0.00109863 0.43529412 0.89019608 0.96078431
v 0.00617997 0.00069440 0.00115541 0.43529412 0.89019608 0.96078431
v 0.00587055 0.00074024 0.00119861 0.43529412 0.89019608 0.96078431
v 0.00440928 0.01990090 0.00021363 0.43529412 0.89019608 0.96078431
v 0.00670921 0.00077462 0.00105173 0.43529412 0.89019608 0.96078431
v 0.00717673 0.00100193 0.00092336 0.43529412 0.89019608 0.96078431
v 0.00527731 0.01990090 0.00003589 0.43529412 0.89019608 0.96078431
v 0.00585474 0.01990090 -0.00012580 0.43529412 0.89019608 0.96078431
v 0.00737623 0.00112609 0.00085671 0.43529412 0.89019608 0.96078431
v 0.00720910 0.00094081 0.00090855 0.43529412 0.89019608 0.96078431
v 0.00812907 0.00158261 0.00050987 0.43529412 0.89019608 0.96078431
v 0.00809821 0.00163801 0.00052962 0.43529412 0.89019608 0.96078431
v 0.00600832 0.01990090 -0.00017147 0.43529412 0.89019608 0.96078431
v 0.00663619 0.01990090 -0.00042080 0.43529412 0.89019608 0.96078431
v 0.00827512 0.00176981 0.00042717 0.43529412 0.89019608 0.96078431
v 0.00911454 0.00231611 -0.00016530 0.43529412 0.89019608 0.96078431
v 0.00955420 0.00264847 -0.00055411 0.43529412 0.89019608 0.96078431
v 0.00996224 0.00295601 -0.00102808 0.43529412 0.89019608 0.96078431
v 0.01017680 0.00316421 -0.00135887 0.43529412 0.89019608 0.96078431
v 0.00995095 0.00300376 -0.00100957 0.43529412 0.89019608 0.96078431
v 0.00977027 0.00287196 -0.00078245 0.43529412 0.89019608 0.96078431
v 0.00954968 0.00270769 -0.00054670 0.43529412 0.89019608 0.96078431
v 0.00908518 0.00538380 -0.00046277 0.43529412 0.89019608 0.96078431
v 0.00867563 0.00896914 -0.00056892 0.43529412 0.89019608 0.96078431
v 0.00856421 0.00541818 -0.00010482 0.43529412 0.89019608 0.96078431
v 0.00716769 0.01990090 -0.00071703 0.43529412 0.89019608 0.96078431
v 0.00759079 0.01990090 -0.00105647 0.43529412 0.89019608 0.96078431
v 0.00909196 0.00236768 -0.00014432 0.43529412 0.89019608 0.96078431
v 0.00325442 0.01990090 0.00036662 0.43529412 0.89019608 0.96078431
v 0.00360901 0.01990090 0.00033213 0.43529412 0.89019608 0.96078431
v 0.00105969 0.01990090 0.00043736 0.43529412 0.89019608 0.96078431
v 0.00135743 0.01990090 0.00045931 0.43529412 0.89019608 0.96078431
v 0.00275182 0.00346411 0.00118015 0.43529412 0.89019608 0.96078431
v 0.00208971 0.00389007 0.00110331 0.43529412 0.89019608 0.96078431
v 0.00136452 0.00418996 0.00098012 0.43529412 0.89019608 0.96078431
v -0.00365232 0.01096524 -0.00593306 0.43529412 0.89019608 0.96078431
v -0.00366012 0.01096715 -0.00583914 0.43529412 0.89019608 0.96078431
v -0.00373597 0.01011141 -0.00582939 0.43529412 0.89019608 0.96078431
v -0.00389547 0.00735889 -0.00591964 0.43529412 0.89019608 0.96078431
v -0.00390256 0.00737608 -0.00582695 0.43529412 0.89019608 0.96078431
v -0.00389192 0.00763013 -0.00582573 0.43529412 0.89019608 0.96078431
v -0.00394580 0.00737799 -0.00500000 0.43529412 0.89019608 0.96078431
v -0.00398408 0.00592819 -0.00499268 0.43529412 0.89019608 0.96078431
v -0.00394580 0.00521571 -0.00583670 0.43529412 0.89019608 0.96078431
v -0.00398762 0.00486042 -0.00500976 0.43529412 0.89019608 0.96078431
v -0.00394226 0.00554234 -0.00412061 0.43529412 0.89019608 0.96078431
v -0.00392595 0.00667124 -0.00416939 0.43529412 0.89019608 0.96078431
v -0.00390256 0.00737608 -0.00417305 0.43529412 0.89019608 0.96078431
v -0.00394226 0.00746204 -0.00500000 0.43529412 0.89019608 0.96078431
v -0.00380189 0.00923274 -0.00417793 0.43529412 0.89019608 0.96078431
v -0.00389547 0.00735889 -0.00408036 0.43529412 0.89019608 0.96078431
v -0.00393729 0.00554234 -0.00407060 0.43529412 0.89019608 0.96078431
v -0.00393729 0.00434277 -0.00416208 0.43529412 0.89019608 0.96078431
v -0.00391603 0.00380220 -0.00406938 0.43529412 0.89019608 0.96078431
v -0.00392382 0.00380220 -0.00416208 0.43529412 0.89019608 0.96078431
v -0.00396778 0.00382703 -0.00500976 0.43529412 0.89019608 0.96078431
v -0.00392382 0.00380220 -0.00583792 0.43529412 0.89019608 0.96078431
v -0.00389051 0.00299230 -0.00584280 0.43529412 0.89019608 0.96078431
v -0.00388271 0.00299230 -0.00593550 0.43529412 0.89019608 0.96078431
v -0.00386995 0.00260263 -0.00584402 0.43529412 0.89019608 0.96078431
v -0.00379481 0.00729204 -0.00345344 0.43529412 0.89019608 0.96078431
v -0.00351905 0.01124412 -0.00343514 0.43529412 0.89019608 0.96078431
v -0.00360128 0.00788991 -0.00286677 0.43529412 0.89019608 0.96078431
v -0.00363460 0.00714304 -0.00286555 0.43529412 0.89019608 0.96078431
v -0.00337160 0.01102828 -0.00287165 0.43529412 0.89019608 0.96078431
v -0.00325605 0.01216290 -0.00287287 0.43529412 0.89019608 0.96078431
v -0.00300297 0.01184964 -0.00226912 0.43529412 0.89019608 0.96078431
v -0.00278960 0.01374259 -0.00228498 0.43529412 0.89019608 0.96078431
v -0.00301857 0.01406923 -0.00287165 0.43529412 0.89019608 0.96078431
v -0.00275911 0.01568139 -0.00286677 0.43529412 0.89019608 0.96078431
v -0.00303913 0.01502430 -0.00342904 0.43529412 0.89019608 0.96078431
v -0.00321280 0.01456395 -0.00402303 0.43529412 0.89019608 0.96078431
v -0.00329362 0.01326506 -0.00342904 0.43529412 0.89019608 0.96078431
v -0.00358852 0.01169683 -0.00415720 0.43529412 0.89019608 0.96078431
v -0.00365303 0.01096524 -0.00406938 0.43529412 0.89019608 0.96078431
v -0.00365728 0.01096524 -0.00411695 0.43529412 0.89019608 0.96078431
v 0.00663619 0.01990090 -0.00957936 0.43529412 0.89019608 0.96078431
v 0.00988319 0.01140840 -0.00601098 0.43529412 0.89019608 0.96078431
v 0.01032210 0.00850498 -0.00500996 0.43529412 0.89019608 0.96078431
v 0.01047643 0.00323298 -0.00772543 0.43529412 0.89019608 0.96078431
f 374 373 370
f 364 367 366
f 364 368 367
f 364 366 365
f 364 362 368
f 368 362 271
f 368 271 369
f 370 368 369
f 370 371 368
f 370 372 371
f 370 373 372
f 374 375 373
f 381 378 271
f 376 377 375
f 376 378 377
f 376 379 378
f 376 369 379
f 376 374 369
f 374 370 369
f 380 379 369
f 380 271 379
f 380 369 271
f 378 379 271
f 364 365 363
f 382 378 381
f 376 375 374
f 364 363 362
f 353 319 352
f 362 360 361
f 382 383 378
f 353 324 319
f 352 319 233
f 356 352 233
f 357 352 356
f 358 352 357
f 358 348 352
f 358 357 348
f 357 347 348
f 357 356 347
f 356 233 347
f 347 233 234
f 347 234 235
f 319 304 233
f 310 304 319
f 233 304 168
f 229 233 168
f 304 359 168
f 303 359 304
f 303 302 359
f 302 360 359
f 302 361 360
f 302 271 361
f 302 301 271
f 362 361 271
f 362 363 360
f 382 86 383
f 402 395 406
f 384 85 382
f 393 258 257
f 393 270 258
f 390 271 392
f 386 78 385
f 84 385 78
f 85 385 84
f 83 84 78
f 83 78 79
f 86 394 383
f 86 87 394
f 395 394 87
f 395 396 394
f 393 257 270
f 397 396 395
f 398 399 396
f 398 400 399
f 398 397 400
f 397 401 400
f 397 395 401
f 402 401 395
f 402 403 401
f 402 404 403
f 402 405 404
f 402 406 405
f 406 395 87
f 353 350 324
f 398 396 397
f 85 86 382
f 257 201 270
f 271 201 392
f 384 385 85
f 384 386 385
f 384 271 386
f 384 387 271
f 384 381 387
f 384 382 381
f 387 381 271
f 388 386 271
f 388 78 386
f 388 389 78
f 388 271 389
f 389 271 390
f 270 201 271
f 389 390 200
f 78 389 74
f 76 78 74
f 73 74 200
f 73 200 199
f 6 73 199
f 6 391 73
f 11 391 6
f 11 73 391
f 11 6 7
f 6 199 5
f 200 390 392
f 200 392 201
f 74 389 200
f 354 351 350
f 279 277 278
f 355 350 353
f 280 300 287
f 280 271 300
f 301 300 271
f 302 300 301
f 299 300 302
f 299 302 303
f 297 299 303
f 297 303 304
f 297 304 295
f 295 304 305
f 295 305 292
f 295 292 293
f 292 305 304
f 306 292 304
f 306 307 292
f 306 308 307
f 306 309 308
f 306 304 309
f 309 304 310
f 311 309 310
f 312 309 311
f 312 313 309
f 312 314 313
f 312 315 314
f 312 316 315
f 294 288 287
f 294 287 300
f 298 296 294
f 298 294 300
f 279 282 283
f 279 283 284
f 279 284 277
f 406 87 407
f 283 277 284
f 283 285 277
f 282 285 283
f 281 285 282
f 281 286 285
f 281 280 286
f 286 280 287
f 286 287 288
f 312 310 316
f 286 288 285
f 289 290 285
f 289 291 290
f 289 292 291
f 289 293 292
f 289 288 293
f 294 293 288
f 294 295 293
f 296 295 294
f 296 297 295
f 298 297 296
f 298 299 297
f 298 300 299
f 289 285 288
f 312 311 310
f 317 316 310
f 317 318 316
f 339 324 340
f 339 340 341
f 339 341 342
f 339 342 343
f 339 343 337
f 337 343 344
f 337 344 335
f 344 241 335
f 344 238 241
f 344 237 238
f 344 343 237
f 345 237 343
f 330 324 339
f 345 235 237
f 346 347 235
f 346 348 347
f 342 348 346
f 342 349 348
f 342 341 349
f 349 341 350
f 351 349 350
f 351 348 349
f 351 352 348
f 351 353 352
f 354 353 351
f 355 353 354
f 346 235 345
f 355 354 350
f 338 336 330
f 338 339 337
f 317 310 318
f 318 310 319
f 320 318 319
f 320 321 318
f 322 321 320
f 322 323 321
f 322 319 323
f 322 320 319
f 323 319 324
f 325 323 324
f 326 323 325
f 326 321 323
f 338 330 339
f 326 327 321
f 326 329 328
f 326 325 329
f 325 324 329
f 330 329 324
f 330 331 329
f 330 332 331
f 330 333 332
f 330 334 333
f 330 335 334
f 336 335 330
f 336 337 335
f 338 337 336
f 326 328 327
f 406 407 405
f 449 441 452
f 408 409 405
f 461 459 290
f 461 458 459
f 461 462 458
f 461 463 462
f 461 290 463
f 463 290 291
f 463 291 464
f 463 464 462
f 464 465 462
f 314 465 464
f 314 466 465
f 314 315 466
f 328 466 315
f 328 467 466
f 328 331 467
f 328 329 331
f 468 467 331
f 468 469 467
f 468 333 469
f 468 332 333
f 468 331 332
f 470 469 333
f 470 458 469
f 471 458 470
f 471 446 458
f 459 460 290
f 290 277 285
f 276 277 290
f 276 290 460
f 247 440 246
f 247 248 455
f 251 455 248
f 251 254 455
f 251 252 254
f 254 456 455
f 254 255 456
f 456 255 259
f 454 456 259
f 454 455 456
f 454 259 452
f 262 452 259
f 471 472 446
f 451 452 262
f 263 450 262
f 273 450 263
f 273 275 450
f 448 450 275
f 457 448 275
f 447 448 457
f 447 457 446
f 457 458 446
f 457 459 458
f 457 460 459
f 457 276 460
f 457 275 276
f 451 262 450
f 471 470 472
f 472 470 334
f 472 334 446
f 473 53 31
f 53 169 57
f 127 163 126
f 127 474 163
f 127 475 474
f 127 128 475
f 128 134 475
f 128 129 134
f 147 475 134
f 147 474 475
f 147 149 474
f 474 149 155
f 30 473 31
f 474 155 163
f 61 150 62
f 150 148 62
f 63 62 148
f 63 148 145
f 476 63 145
f 476 68 63
f 476 69 68
f 476 144 69
f 476 145 144
f 63 68 64
f 148 146 145
f 41 37 38
f 151 155 149
f 453 441 440
f 30 29 473
f 29 28 53
f 445 446 334
f 445 334 434
f 445 434 437
f 445 437 438
f 434 435 437
f 433 434 334
f 433 334 335
f 470 333 334
f 469 458 462
f 469 462 465
f 469 465 467
f 466 467 465
f 473 29 53
f 328 315 316
f 327 316 318
f 327 318 321
f 314 464 308
f 314 308 313
f 308 309 313
f 308 464 291
f 307 308 291
f 307 291 292
f 273 263 265
f 172 181 168
f 1 3 195
f 28 169 53
f 327 328 316
f 408 405 407
f 453 440 247
f 453 455 454
f 422 112 409
f 410 422 409
f 410 411 422
f 421 422 411
f 421 411 424
f 421 424 419
f 424 418 419
f 412 418 424
f 413 418 412
f 412 424 411
f 409 112 425
f 400 409 425
f 403 409 400
f 404 409 403
f 404 405 409
f 401 403 400
f 426 400 425
f 426 399 400
f 375 399 426
f 375 377 399
f 396 399 377
f 396 377 383
f 396 383 394
f 377 378 383
f 375 426 425
f 423 112 422
f 423 110 112
f 420 110 423
f 420 423 422
f 408 410 409
f 408 411 410
f 408 407 411
f 407 412 411
f 88 412 407
f 89 412 88
f 92 412 89
f 92 413 412
f 92 414 413
f 92 93 414
f 93 415 414
f 93 99 415
f 375 425 373
f 99 105 415
f 107 416 415
f 107 109 416
f 417 416 109
f 417 414 416
f 417 413 414
f 417 418 413
f 417 109 418
f 109 419 418
f 109 110 419
f 420 419 110
f 420 421 419
f 420 422 421
f 107 415 105
f 373 425 372
f 372 425 359
f 427 372 359
f 243 246 435
f 436 435 246
f 436 437 435
f 436 438 437
f 436 439 438
f 436 246 439
f 439 246 440
f 439 440 441
f 439 441 442
f 443 439 442
f 443 438 439
f 444 438 443
f 243 435 434
f 444 445 438
f 444 447 446
f 444 443 447
f 443 448 447
f 443 442 448
f 449 448 442
f 449 450 448
f 449 451 450
f 449 452 451
f 279 281 282
f 449 442 441
f 453 452 441
f 453 454 452
f 444 446 445
f 453 247 455
f 243 434 241
f 432 434 433
f 428 372 427
f 428 371 372
f 428 429 371
f 428 427 429
f 430 429 427
f 430 371 429
f 430 368 371
f 430 367 368
f 430 431 367
f 430 427 431
f 366 431 427
f 366 367 431
f 432 241 434
f 365 366 427
f 427 359 363
f 363 359 360
f 359 425 168
f 112 168 425
f 414 415 416
f 88 407 87
f 340 324 350
f 340 350 341
f 342 346 345
f 342 345 343
f 432 335 241
f 432 433 335
f 365 427 363
f 279 280 281
f 212 213 210
f 279 272 271
f 98 99 93
f 98 100 99
f 98 101 100
f 98 97 101
f 97 77 101
f 102 101 77
f 100 101 102
f 100 102 103
f 100 103 104
f 100 104 99
f 104 105 99
f 106 105 104
f 106 107 105
f 108 107 106
f 108 109 107
f 108 110 109
f 111 110 108
f 111 112 110
f 113 112 111
f 113 114 112
f 113 115 114
f 113 111 115
f 111 116 115
f 111 108 116
f 108 106 116
f 94 98 93
f 94 97 98
f 94 96 97
f 97 96 77
f 77 76 75
f 77 78 76
f 77 79 78
f 80 79 77
f 81 79 80
f 82 79 81
f 82 83 79
f 82 84 83
f 82 85 84
f 82 86 85
f 82 87 86
f 82 88 87
f 116 106 117
f 82 81 88
f 81 80 89
f 89 80 90
f 91 89 90
f 91 92 89
f 91 93 92
f 91 94 93
f 95 94 91
f 95 96 94
f 95 77 96
f 95 90 77
f 95 91 90
f 80 77 90
f 81 89 88
f 75 76 74
f 116 117 118
f 115 118 119
f 137 136 103
f 138 136 137
f 139 136 138
f 139 140 136
f 139 141 140
f 139 138 141
f 138 142 141
f 138 75 142
f 138 137 75
f 137 77 75
f 137 143 77
f 137 103 143
f 102 143 103
f 102 77 143
f 142 75 69
f 142 69 144
f 142 144 145
f 142 145 141
f 141 145 146
f 140 141 146
f 135 140 146
f 135 136 140
f 135 146 134
f 146 147 134
f 148 147 146
f 133 103 136
f 133 136 135
f 133 135 134
f 133 134 129
f 114 115 119
f 114 119 112
f 119 120 112
f 119 118 120
f 121 120 118
f 121 122 120
f 121 123 122
f 121 124 123
f 125 124 121
f 125 126 124
f 125 127 126
f 125 128 127
f 115 116 118
f 125 129 128
f 130 131 129
f 130 132 131
f 130 117 132
f 130 121 117
f 130 125 121
f 121 118 117
f 132 117 106
f 132 106 104
f 132 104 131
f 104 103 131
f 133 131 103
f 133 129 131
f 130 129 125
f 75 74 69
f 69 74 73
f 69 73 71
f 25 8 26
f 25 26 24
f 24 26 27
f 24 27 28
f 24 28 23
f 23 28 29
f 22 23 29
f 22 29 19
f 22 19 20
f 30 19 29
f 18 19 30
f 18 30 31
f 18 31 32
f 18 32 15
f 33 15 32
f 33 14 15
f 34 14 33
f 34 35 14
f 34 36 35
f 34 37 36
f 34 33 37
f 33 38 37
f 33 32 38
f 39 38 32
f 40 38 39
f 25 9 8
f 21 9 25
f 21 25 24
f 21 24 23
f 48 51 55
f 2 3 1
f 4 3 2
f 4 5 3
f 4 6 5
f 4 7 6
f 8 7 4
f 9 7 8
f 10 7 9
f 10 11 7
f 12 11 10
f 12 13 11
f 40 41 38
f 12 14 13
f 12 16 15
f 12 10 16
f 16 10 17
f 16 17 15
f 17 18 15
f 17 19 18
f 17 20 19
f 17 9 20
f 17 10 9
f 21 20 9
f 21 22 20
f 21 23 22
f 12 15 14
f 42 41 40
f 42 43 41
f 42 44 43
f 45 61 44
f 44 61 62
f 43 44 62
f 43 62 63
f 43 63 64
f 41 43 64
f 65 41 64
f 65 37 41
f 65 66 37
f 65 67 66
f 65 64 67
f 67 64 68
f 45 60 61
f 67 68 69
f 70 66 69
f 37 66 70
f 37 70 36
f 70 69 36
f 35 36 69
f 35 69 71
f 14 35 71
f 14 71 13
f 72 13 71
f 72 11 13
f 72 73 11
f 72 71 73
f 67 69 66
f 148 149 147
f 45 46 48
f 60 48 55
f 42 45 44
f 42 46 45
f 42 40 46
f 47 46 40
f 47 48 46
f 47 49 48
f 47 39 49
f 47 40 39
f 39 32 49
f 50 49 32
f 50 51 49
f 50 52 51
f 45 48 60
f 50 31 52
f 52 31 53
f 54 52 53
f 54 51 52
f 54 55 51
f 54 56 55
f 54 53 56
f 56 53 57
f 58 56 57
f 58 55 56
f 58 57 55
f 59 55 57
f 60 55 59
f 50 32 31
f 150 149 148
f 150 151 149
f 61 151 150
f 210 213 227
f 209 210 227
f 209 227 207
f 228 207 227
f 228 206 207
f 228 168 206
f 228 229 168
f 228 226 229
f 230 226 228
f 230 227 226
f 230 228 227
f 231 229 226
f 232 229 231
f 232 233 229
f 232 234 233
f 232 235 234
f 236 235 232
f 236 237 235
f 236 238 237
f 236 239 238
f 236 225 239
f 236 232 225
f 232 231 225
f 231 226 225
f 239 225 224
f 213 226 227
f 214 226 213
f 214 225 226
f 214 224 225
f 208 205 203
f 205 204 203
f 211 210 203
f 212 210 211
f 212 214 213
f 212 215 214
f 212 216 215
f 212 211 216
f 211 202 216
f 211 203 202
f 217 216 202
f 217 215 216
f 239 224 240
f 217 218 215
f 217 202 201
f 219 218 201
f 219 215 218
f 219 220 215
f 219 221 220
f 219 201 221
f 221 201 220
f 222 220 201
f 223 220 222
f 224 220 223
f 224 215 220
f 214 215 224
f 217 201 218
f 239 240 238
f 240 241 238
f 242 241 240
f 261 262 259
f 261 263 262
f 264 263 261
f 264 265 263
f 264 266 265
f 264 267 266
f 264 260 267
f 264 261 260
f 260 268 267
f 260 269 268
f 260 258 269
f 269 258 270
f 261 259 260
f 269 270 268
f 272 268 271
f 272 267 268
f 272 266 267
f 272 265 266
f 272 273 265
f 274 273 272
f 274 275 273
f 274 276 275
f 274 277 276
f 274 278 277
f 274 279 278
f 274 272 279
f 268 270 271
f 208 203 210
f 260 259 258
f 258 255 257
f 242 243 241
f 242 244 243
f 242 224 244
f 242 240 224
f 224 223 244
f 243 244 223
f 245 243 223
f 245 246 243
f 245 247 246
f 245 248 247
f 245 222 248
f 245 223 222
f 258 259 255
f 249 248 222
f 250 251 248
f 250 252 251
f 253 252 250
f 253 254 252
f 253 255 254
f 253 256 255
f 253 250 256
f 250 249 256
f 249 201 256
f 249 222 201
f 256 201 257
f 256 257 255
f 250 248 249
f 279 271 280
f 208 210 209
f 208 207 205
f 166 167 123
f 166 164 167
f 166 165 164
f 167 164 122
f 167 122 123
f 164 160 122
f 122 160 112
f 120 122 112
f 160 57 112
f 57 168 112
f 169 168 57
f 170 168 169
f 171 168 170
f 171 172 168
f 173 172 171
f 174 172 173
f 174 175 172
f 174 176 175
f 174 173 176
f 176 173 177
f 176 177 178
f 176 178 175
f 179 175 178
f 180 175 179
f 180 172 175
f 166 123 165
f 124 165 123
f 124 126 165
f 165 126 163
f 61 152 151
f 61 60 152
f 60 59 152
f 153 152 59
f 154 152 153
f 154 151 152
f 154 155 151
f 154 156 155
f 154 157 156
f 154 153 157
f 157 153 158
f 157 158 156
f 180 181 172
f 158 57 156
f 153 159 158
f 153 59 159
f 59 57 159
f 156 57 160
f 161 156 160
f 162 156 161
f 162 155 156
f 162 161 155
f 161 160 155
f 160 163 155
f 164 163 160
f 165 163 164
f 158 159 57
f 180 182 181
f 180 183 182
f 180 179 183
f 2 1 194
f 1 193 194
f 184 193 1
f 184 185 193
f 184 1 195
f 184 195 196
f 184 196 183
f 183 196 195
f 183 195 3
f 183 3 197
f 198 183 197
f 198 5 183
f 8 27 26
f 198 197 5
f 183 5 199
f 183 199 200
f 183 200 201
f 202 183 201
f 203 183 202
f 204 183 203
f 205 183 204
f 205 182 183
f 205 181 182
f 205 168 181
f 205 206 168
f 205 207 206
f 197 3 5
f 208 209 207
f 8 4 2
f 27 2 194
f 179 184 183
f 179 185 184
f 179 186 185
f 187 186 179
f 188 186 187
f 188 189 186
f 188 173 189
f 188 177 173
f 188 187 177
f 187 178 177
f 187 179 178
f 190 189 173
f 8 2 27
f 190 186 189
f 190 173 170
f 173 171 170
f 186 170 191
f 186 191 185
f 192 185 191
f 192 193 185
f 192 194 193
f 192 169 194
f 192 191 169
f 191 170 169
f 28 194 169
f 27 194 28
f 190 170 186
f 48 49 51
