# https://github.com/mikedh/trimesh
v -0.01012243 0.00516477 -0.00600115 0.54509804 0.71372549 0.60000000
v -0.01012243 0.00516477 -0.00598925 0.54509804 0.71372549 0.60000000
v -0.01008693 0.00729668 -0.00600115 0.54509804 0.71372549 0.60000000
v -0.00219090 -0.00239866 -0.00600115 0.54509804 0.71372549 0.60000000
v -0.00683120 -0.00669345 -0.00144531 0.54509804 0.71372549 0.60000000
v -0.00750991 -0.00592383 -0.00146700 0.54509804 0.71372549 0.60000000
v -0.00810509 -0.00507903 -0.00149009 0.54509804 0.71372549 0.60000000
v -0.00858750 -0.00421653 -0.00151388 0.54509804 0.71372549 0.60000000
v -0.00899681 -0.00326115 -0.00153977 0.54509804 0.71372549 0.60000000
v -0.00926830 -0.00238096 -0.00156356 0.54509804 0.71372549 0.60000000
v -0.00946251 -0.00144328 -0.00158805 0.54509804 0.71372549 0.60000000
v -0.01000966 0.00515150 -0.00381874 0.54509804 0.71372549 0.60000000
v -0.01002010 0.00728784 -0.00377046 0.54509804 0.71372549 0.60000000
v -0.01005769 0.00729668 -0.00449536 0.54509804 0.71372549 0.60000000
v -0.01008693 0.00729668 -0.00599205 0.54509804 0.71372549 0.60000000
v -0.00956484 -0.00039501 -0.00161534 0.54509804 0.71372549 0.60000000
v -0.00611699 0.03289734 -0.00240042 0.54509804 0.71372549 0.60000000
v -0.00895087 0.01390031 -0.00600115 0.54509804 0.71372549 0.60000000
v 0.00762640 -0.00765325 -0.00600115 0.54509804 0.71372549 0.60000000
v 0.00283992 -0.00800267 -0.00494948 0.54509804 0.71372549 0.60000000
v -0.00606895 -0.00739229 -0.00142502 0.54509804 0.71372549 0.60000000
v -0.00615667 -0.00715787 0.00088194 0.54509804 0.71372549 0.60000000
v -0.00687088 -0.00648556 0.00075879 0.54509804 0.71372549 0.60000000
v -0.00749529 -0.00576903 0.00057966 0.54509804 0.71372549 0.60000000
v -0.00808212 -0.00493749 0.00032567 0.54509804 0.71372549 0.60000000
v -0.00860629 -0.00399538 0.00000030 0.54509804 0.71372549 0.60000000
v -0.00902605 -0.00298692 -0.00036285 0.54509804 0.71372549 0.60000000
v -0.00929545 -0.00207577 -0.00067772 0.54509804 0.71372549 0.60000000
v -0.00947087 -0.00112924 -0.00095971 0.54509804 0.71372549 0.60000000
v -0.00991151 0.00513381 -0.00312532 0.54509804 0.71372549 0.60000000
v -0.00998460 0.00727899 -0.00346188 0.54509804 0.71372549 0.60000000
v -0.01001801 0.00728784 -0.00375087 0.54509804 0.71372549 0.60000000
v -0.00955649 -0.00031540 -0.00138513 0.54509804 0.71372549 0.60000000
v -0.00954605 -0.00023136 -0.00115633 0.54509804 0.71372549 0.60000000
v -0.00610446 0.03237984 -0.00047411 0.54509804 0.71372549 0.60000000
v -0.00601883 0.03287080 -0.00047411 0.54509804 0.71372549 0.60000000
v -0.00575779 0.03358291 -0.00047411 0.54509804 0.71372549 0.60000000
v -0.00584759 0.03362714 -0.00240042 0.54509804 0.71372549 0.60000000
v -0.00539024 0.02714294 -0.00600115 0.54509804 0.71372549 0.60000000
v -0.00651168 0.02407776 -0.00600115 0.54509804 0.71372549 0.60000000
v -0.00695441 0.02253412 -0.00600115 0.54509804 0.71372549 0.60000000
v -0.00766027 0.01985374 -0.00600115 0.54509804 0.71372549 0.60000000
v -0.00834734 0.01690356 -0.00600115 0.54509804 0.71372549 0.60000000
v 0.00766817 -0.00761344 -0.00600115 0.54509804 0.71372549 0.60000000
v 0.00762849 -0.00765325 -0.00599975 0.54509804 0.71372549 0.60000000
v 0.00641725 -0.00860421 -0.00367110 0.54509804 0.71372549 0.60000000
v 0.00481549 -0.00840959 -0.00494948 0.54509804 0.71372549 0.60000000
v 0.00379220 -0.00837863 -0.00494948 0.54509804 0.71372549 0.60000000
v -0.00318913 -0.00901555 -0.00137674 0.54509804 0.71372549 0.60000000
v -0.00418318 -0.00859978 -0.00138933 0.54509804 0.71372549 0.60000000
v -0.00492245 -0.00819728 -0.00140193 0.54509804 0.71372549 0.60000000
v -0.00517514 -0.00804248 -0.00140613 0.54509804 0.71372549 0.60000000
v -0.00606687 -0.00723748 0.00089383 0.54509804 0.71372549 0.60000000
v -0.00523362 -0.00785229 0.00097990 0.54509804 0.71372549 0.60000000
v -0.00470527 0.00596977 0.00099809 0.54509804 0.71372549 0.60000000
v -0.00544663 0.00617323 0.00087774 0.54509804 0.71372549 0.60000000
v -0.00617755 0.00637227 0.00068602 0.54509804 0.71372549 0.60000000
v -0.00662863 0.00648726 0.00052578 0.54509804 0.71372549 0.60000000
v -0.00689385 0.00655361 0.00041453 0.54509804 0.71372549 0.60000000
v -0.00584968 0.03235772 -0.00006337 0.54509804 0.71372549 0.60000000
v -0.00865641 -0.00274366 -0.00010746 0.54509804 0.71372549 0.60000000
v -0.00880260 0.00701361 -0.00095341 0.54509804 0.71372549 0.60000000
v -0.00602928 0.03237542 -0.00023550 0.54509804 0.71372549 0.60000000
v -0.00911585 0.00708438 -0.00135225 0.54509804 0.71372549 0.60000000
v -0.00988853 0.00725688 -0.00301267 0.54509804 0.71372549 0.60000000
v -0.00927874 0.00711976 -0.00159785 0.54509804 0.71372549 0.60000000
v -0.00965046 0.00720380 -0.00231645 0.54509804 0.71372549 0.60000000
v -0.00594574 0.03285311 -0.00023550 0.54509804 0.71372549 0.60000000
v -0.00569096 0.03354753 -0.00023550 0.54509804 0.71372549 0.60000000
v -0.00538816 0.03404733 -0.00023550 0.54509804 0.71372549 0.60000000
v -0.00544872 0.03409156 -0.00047411 0.54509804 0.71372549 0.60000000
v -0.00512920 0.03461348 -0.00240042 0.54509804 0.71372549 0.60000000
v -0.00412471 0.03530348 -0.00240042 0.54509804 0.71372549 0.60000000
v 0.00763267 0.03431714 -0.00600115 0.54509804 0.71372549 0.60000000
v 0.00800021 -0.00726402 -0.00598925 0.54509804 0.71372549 0.60000000
v 0.00774961 -0.00724191 -0.00219120 0.54509804 0.71372549 0.60000000
v 0.00753660 -0.00758690 -0.00384743 0.54509804 0.71372549 0.60000000
v 0.00748857 -0.00763113 -0.00377606 0.54509804 0.71372549 0.60000000
v 0.00762849 -0.00765325 -0.00598925 0.54509804 0.71372549 0.60000000
v 0.00817772 -0.00706498 -0.00600115 0.54509804 0.71372549 0.60000000
v 0.00712729 -0.00784786 -0.00205126 0.54509804 0.71372549 0.60000000
v 0.00635251 -0.00853786 -0.00186024 0.54509804 0.71372549 0.60000000
v 0.00529581 -0.00942247 -0.00134735 0.54509804 0.71372549 0.60000000
v 0.00741339 -0.00770190 -0.00374177 0.54509804 0.71372549 0.60000000
v -0.00003155 -0.00956401 -0.00135575 0.54509804 0.71372549 0.60000000
v -0.00110705 -0.00949766 -0.00135994 0.54509804 0.71372549 0.60000000
v -0.00215749 -0.00931632 -0.00136694 0.54509804 0.71372549 0.60000000
v -0.00240809 -0.00912613 0.00101209 0.54509804 0.71372549 0.60000000
v -0.00338126 -0.00880767 0.00103868 0.54509804 0.71372549 0.60000000
v -0.00436695 -0.00836536 0.00102888 0.54509804 0.71372549 0.60000000
v -0.00462800 0.00594765 0.00100719 0.54509804 0.71372549 0.60000000
v -0.00326431 0.00555400 0.00111634 0.54509804 0.71372549 0.60000000
v -0.00029260 0.02462180 0.00104847 0.54509804 0.71372549 0.60000000
v -0.00553434 0.03275138 -0.00000040 0.54509804 0.71372549 0.60000000
v -0.00560743 0.03233119 -0.00000040 0.54509804 0.71372549 0.60000000
v -0.00577032 0.03280888 -0.00006337 0.54509804 0.71372549 0.60000000
v -0.00552807 0.03346791 -0.00006337 0.54509804 0.71372549 0.60000000
v -0.00524197 0.03394118 -0.00006337 0.54509804 0.71372549 0.60000000
v -0.00488069 0.03435695 -0.00006337 0.54509804 0.71372549 0.60000000
v -0.00500599 0.03448522 -0.00023550 0.54509804 0.71372549 0.60000000
v -0.00506029 0.03454271 -0.00047411 0.54509804 0.71372549 0.60000000
v -0.00459876 0.03491868 -0.00047411 0.54509804 0.71372549 0.60000000
v -0.00408085 0.03521060 -0.00047411 0.54509804 0.71372549 0.60000000
v -0.00352118 0.03541406 -0.00047411 0.54509804 0.71372549 0.60000000
v -0.00294479 0.03562194 -0.00240042 0.54509804 0.71372549 0.60000000
v 0.00853692 0.03433926 -0.00600115 0.54509804 0.71372549 0.60000000
v 0.00821949 -0.00671556 -0.00231365 0.54509804 0.71372549 0.60000000
v 0.00820487 -0.00653422 -0.00172659 0.54509804 0.71372549 0.60000000
v 0.00710431 -0.00767979 -0.00142432 0.54509804 0.71372549 0.60000000
v 0.00825290 -0.00697210 -0.00600115 0.54509804 0.71372549 0.60000000
v 0.00617709 -0.00862190 -0.00147330 0.54509804 0.71372549 0.60000000
v 0.00630657 -0.00854671 -0.00165942 0.54509804 0.71372549 0.60000000
v 0.00516633 -0.00933401 -0.00089533 0.54509804 0.71372549 0.60000000
v 0.00065969 -0.00943132 0.00071331 0.54509804 0.71372549 0.60000000
v 0.00606641 -0.00870151 -0.00139493 0.54509804 0.71372549 0.60000000
v 0.00593693 -0.00881209 -0.00136204 0.54509804 0.71372549 0.60000000
v -0.00041372 -0.00943574 0.00084695 0.54509804 0.71372549 0.60000000
v -0.00143283 -0.00932959 0.00095821 0.54509804 0.71372549 0.60000000
v 0.00036732 0.00436420 0.00107506 0.54509804 0.71372549 0.60000000
v -0.00157484 0.00502766 0.00114013 0.54509804 0.71372549 0.60000000
v 0.00039656 0.02430776 0.00112474 0.54509804 0.71372549 0.60000000
v 0.00023784 0.02280834 0.00112964 0.54509804 0.71372549 0.60000000
v -0.00008794 0.02704563 0.00098900 0.54509804 0.71372549 0.60000000
v -0.00531089 0.03336176 -0.00000040 0.54509804 0.71372549 0.60000000
v -0.00471153 0.03418445 -0.00000040 0.54509804 0.71372549 0.60000000
v -0.00504567 0.03379522 -0.00000040 0.54509804 0.71372549 0.60000000
v -0.00445467 0.03470637 -0.00006337 0.54509804 0.71372549 0.60000000
v -0.00455699 0.03485675 -0.00023550 0.54509804 0.71372549 0.60000000
v -0.00404953 0.03514425 -0.00023550 0.54509804 0.71372549 0.60000000
v -0.00350238 0.03534329 -0.00023550 0.54509804 0.71372549 0.60000000
v -0.00293644 0.03552021 -0.00047411 0.54509804 0.71372549 0.60000000
v -0.00237259 0.03552463 -0.00047411 0.54509804 0.71372549 0.60000000
v -0.00172938 0.03552463 -0.00240042 0.54509804 0.71372549 0.60000000
v 0.00903603 0.03273369 -0.00599625 0.54509804 0.71372549 0.60000000
v 0.00901724 0.03276465 -0.00600115 0.54509804 0.71372549 0.60000000
v 0.00853692 0.03433926 -0.00598925 0.54509804 0.71372549 0.60000000
v 0.00868728 -0.00642806 -0.00598925 0.54509804 0.71372549 0.60000000
v 0.00847218 -0.00640152 -0.00238782 0.54509804 0.71372549 0.60000000
v 0.00694142 -0.00733037 -0.00083656 0.54509804 0.71372549 0.60000000
v 0.00913418 -0.00523826 -0.00211144 0.54509804 0.71372549 0.60000000
v 0.00897547 -0.00497730 -0.00160764 0.54509804 0.71372549 0.60000000
v 0.00802736 -0.00622460 -0.00116752 0.54509804 0.71372549 0.60000000
v 0.00610817 -0.00856440 -0.00118851 0.54509804 0.71372549 0.60000000
v 0.00873740 -0.00636172 -0.00600115 0.54509804 0.71372549 0.60000000
v 0.00492826 -0.00921901 -0.00049440 0.54509804 0.71372549 0.60000000
v 0.00173101 -0.00929863 0.00057686 0.54509804 0.71372549 0.60000000
v 0.00157229 0.00393074 0.00093722 0.54509804 0.71372549 0.60000000
v 0.00600585 -0.00875017 -0.00137254 0.54509804 0.71372549 0.60000000
v 0.00349566 0.02316219 0.00103518 0.54509804 0.71372549 0.60000000
v 0.00198578 0.02367084 0.00114713 0.54509804 0.71372549 0.60000000
v 0.00093535 0.02759852 0.00102748 0.54509804 0.71372549 0.60000000
v 0.00058660 0.02720486 0.00103658 0.54509804 0.71372549 0.60000000
v 0.00033599 0.02727121 0.00101908 0.54509804 0.71372549 0.60000000
v -0.00431683 0.03450733 -0.00000040 0.54509804 0.71372549 0.60000000
v 0.00060748 0.02741717 0.00102678 0.54509804 0.71372549 0.60000000
v -0.00397435 0.03498060 -0.00006337 0.54509804 0.71372549 0.60000000
v -0.00345435 0.03516637 -0.00006337 0.54509804 0.71372549 0.60000000
v -0.00291138 0.03526367 -0.00006337 0.54509804 0.71372549 0.60000000
v -0.00292809 0.03544502 -0.00023550 0.54509804 0.71372549 0.60000000
v -0.00237885 0.03544944 -0.00023550 0.54509804 0.71372549 0.60000000
v -0.00183379 0.03536983 -0.00023550 0.54509804 0.71372549 0.60000000
v -0.00181709 0.03544060 -0.00047411 0.54509804 0.71372549 0.60000000
v 0.00846591 0.03425964 -0.00454154 0.54509804 0.71372549 0.60000000
v 0.00901097 0.03269830 -0.00523286 0.54509804 0.71372549 0.60000000
v 0.00907780 0.03256561 -0.00599975 0.54509804 0.71372549 0.60000000
v 0.00907780 0.03256561 -0.00600115 0.54509804 0.71372549 0.60000000
v 0.00874366 -0.00635287 -0.00599975 0.54509804 0.71372549 0.60000000
v 0.00911539 -0.00547268 -0.00261803 0.54509804 0.71372549 0.60000000
v 0.00770158 -0.00583095 -0.00074630 0.54509804 0.71372549 0.60000000
v 0.00663235 -0.00685710 -0.00041183 0.54509804 0.71372549 0.60000000
v 0.00592022 -0.00821498 -0.00058886 0.54509804 0.71372549 0.60000000
v 0.00954768 -0.00469865 -0.00284054 0.54509804 0.71372549 0.60000000
v 0.00952888 -0.00455269 -0.00238153 0.54509804 0.71372549 0.60000000
v 0.00941402 -0.00431384 -0.00194281 0.54509804 0.71372549 0.60000000
v 0.00918848 -0.00404846 -0.00156916 0.54509804 0.71372549 0.60000000
v 0.00868310 -0.00466326 -0.00120251 0.54509804 0.71372549 0.60000000
v 0.00923860 -0.00560980 -0.00600115 0.54509804 0.71372549 0.60000000
v 0.00482593 -0.00917478 -0.00037475 0.54509804 0.71372549 0.60000000
v 0.00459204 -0.00909959 -0.00016203 0.54509804 0.71372549 0.60000000
v 0.00415975 -0.00900228 0.00009756 0.54509804 0.71372549 0.60000000
v 0.00367317 -0.00896247 0.00027109 0.54509804 0.71372549 0.60000000
v 0.00317405 -0.00898901 0.00037395 0.54509804 0.71372549 0.60000000
v 0.00259140 -0.00910401 0.00045931 0.54509804 0.71372549 0.60000000
v 0.00266241 0.00350612 0.00076859 0.54509804 0.71372549 0.60000000
v 0.00425790 0.02137527 0.00087424 0.54509804 0.71372549 0.60000000
v 0.00436650 0.02302065 0.00088894 0.54509804 0.71372549 0.60000000
v 0.00440617 0.02366200 0.00088124 0.54509804 0.71372549 0.60000000
v 0.00361260 0.02619198 0.00095541 0.54509804 0.71372549 0.60000000
v 0.00344554 0.00318766 0.00064124 0.54509804 0.71372549 0.60000000
v 0.00213197 0.02666525 0.00105547 0.54509804 0.71372549 0.60000000
v 0.00065342 0.02744371 0.00102748 0.54509804 0.71372549 0.60000000
v 0.00180201 0.02808063 0.00098900 0.54509804 0.71372549 0.60000000
v -0.00015059 0.03370676 0.00030048 0.54509804 0.71372549 0.60000000
v -0.00387202 0.03475945 -0.00000040 0.54509804 0.71372549 0.60000000
v -0.00339170 0.03493194 -0.00000040 0.54509804 0.71372549 0.60000000
v -0.00239138 0.03526810 -0.00006337 0.54509804 0.71372549 0.60000000
v -0.00289050 0.03502040 -0.00000040 0.54509804 0.71372549 0.60000000
v -0.00090031 0.03469310 0.00009406 0.54509804 0.71372549 0.60000000
v -0.00185259 0.03529021 -0.00013754 0.54509804 0.71372549 0.60000000
v 0.00793965 0.03401637 -0.00334783 0.54509804 0.71372549 0.60000000
v 0.00798768 0.03421541 -0.00386492 0.54509804 0.71372549 0.60000000
v -0.00139524 0.03514867 -0.00011585 0.54509804 0.71372549 0.60000000
v -0.00133677 0.03524598 -0.00027539 0.54509804 0.71372549 0.60000000
v 0.00762640 0.03378195 -0.00260334 0.54509804 0.71372549 0.60000000
v 0.00816937 0.03422868 -0.00405244 0.54509804 0.71372549 0.60000000
v 0.00802945 0.03395445 -0.00334013 0.54509804 0.71372549 0.60000000
v 0.00846591 0.03425079 -0.00452545 0.54509804 0.71372549 0.60000000
v 0.00892117 0.03267176 -0.00445688 0.54509804 0.71372549 0.60000000
v 0.00898591 0.03252138 -0.00463880 0.54509804 0.71372549 0.60000000
v 0.00904856 0.03253907 -0.00522376 0.54509804 0.71372549 0.60000000
v 0.00907989 0.03255234 -0.00600115 0.54509804 0.71372549 0.60000000
v 0.00928246 -0.00553460 -0.00598925 0.54509804 0.71372549 0.60000000
v 0.00966254 -0.00484018 -0.00599975 0.54509804 0.71372549 0.60000000
v 0.00730062 -0.00542845 -0.00051959 0.54509804 0.71372549 0.60000000
v 0.00708134 -0.00564076 -0.00044682 0.54509804 0.71372549 0.60000000
v 0.00798560 -0.00470749 -0.00078618 0.54509804 0.71372549 0.60000000
v 0.00612906 -0.00647672 -0.00018023 0.54509804 0.71372549 0.60000000
v 0.00558609 -0.00774613 -0.00016203 0.54509804 0.71372549 0.60000000
v 0.00978575 -0.00458807 -0.00598925 0.54509804 0.71372549 0.60000000
v 0.00977322 -0.00423865 -0.00304206 0.54509804 0.71372549 0.60000000
v 0.00971892 -0.00421211 -0.00260334 0.54509804 0.71372549 0.60000000
v 0.00966254 -0.00398653 -0.00225628 0.54509804 0.71372549 0.60000000
v 0.00952888 -0.00374327 -0.00194351 0.54509804 0.71372549 0.60000000
v 0.00893579 -0.00374769 -0.00133266 0.54509804 0.71372549 0.60000000
v 0.00979201 0.00029941 -0.00175528 0.54509804 0.71372549 0.60000000
v 0.00935555 0.00050287 -0.00133965 0.54509804 0.71372549 0.60000000
v 0.00888985 -0.00378307 -0.00129837 0.54509804 0.71372549 0.60000000
v 0.00908615 0.00062671 -0.00114163 0.54509804 0.71372549 0.60000000
v 0.00856615 -0.00408384 -0.00108426 0.54509804 0.71372549 0.60000000
v 0.00831138 -0.00435365 -0.00094361 0.54509804 0.71372549 0.60000000
v 0.00962077 -0.00491538 -0.00600115 0.54509804 0.71372549 0.60000000
v 0.00463380 -0.00772844 0.00013674 0.54509804 0.71372549 0.60000000
v 0.00288168 -0.00903767 0.00041733 0.54509804 0.71372549 0.60000000
v 0.00390497 0.00299747 0.00056147 0.54509804 0.71372549 0.60000000
v 0.00509324 0.02286142 0.00068672 0.54509804 0.71372549 0.60000000
v 0.00530207 0.00239594 0.00027669 0.54509804 0.71372549 0.60000000
v 0.00678271 0.00171921 -0.00011795 0.54509804 0.71372549 0.60000000
v 0.00523734 0.02586025 0.00060625 0.54509804 0.71372549 0.60000000
v 0.00454401 0.02607256 0.00079517 0.54509804 0.71372549 0.60000000
v 0.00464216 0.02806736 0.00065453 0.54509804 0.71372549 0.60000000
v 0.00362931 0.02855390 0.00080217 0.54509804 0.71372549 0.60000000
v 0.00319076 0.02888120 0.00082666 0.54509804 0.71372549 0.60000000
v -0.00027589 0.03416233 0.00022071 0.54509804 0.71372549 0.60000000
v -0.00041581 0.03404733 0.00024940 0.54509804 0.71372549 0.60000000
v 0.00405742 0.02939428 0.00064684 0.54509804 0.71372549 0.60000000
v -0.00051814 0.03415349 0.00022771 0.54509804 0.71372549 0.60000000
v -0.00187556 0.03519290 -0.00006337 0.54509804 0.71372549 0.60000000
v -0.00078753 0.03482579 -0.00000740 0.54509804 0.71372549 0.60000000
v -0.00097340 0.03493637 -0.00004378 0.54509804 0.71372549 0.60000000
v 0.00774335 0.03370676 -0.00258095 0.54509804 0.71372549 0.60000000
v 0.00718994 0.03342810 -0.00191622 0.54509804 0.71372549 0.60000000
v 0.00729644 0.03335734 -0.00188053 0.54509804 0.71372549 0.60000000
v 0.00812134 0.03385714 -0.00334293 0.54509804 0.71372549 0.60000000
v 0.00783732 0.03360945 -0.00257815 0.54509804 0.71372549 0.60000000
v 0.00846591 0.03421983 -0.00448417 0.54509804 0.71372549 0.60000000
v 0.00883346 0.03261426 -0.00398947 0.54509804 0.71372549 0.60000000
v 0.00887941 0.03246388 -0.00401886 0.54509804 0.71372549 0.60000000
v 0.00895667 0.03251695 -0.00445268 0.54509804 0.71372549 0.60000000
v 0.00911539 0.03087600 -0.00463391 0.54509804 0.71372549 0.60000000
v 0.00919683 0.03084504 -0.00538960 0.54509804 0.71372549 0.60000000
v 0.00934511 0.02920851 -0.00600115 0.54509804 0.71372549 0.60000000
v 0.00934511 0.02920851 -0.00598435 0.54509804 0.71372549 0.60000000
v 0.00967506 -0.00481365 -0.00600115 0.54509804 0.71372549 0.60000000
v 0.00812760 0.00108671 -0.00061825 0.54509804 0.71372549 0.60000000
v 0.00791668 0.00118844 -0.00052659 0.54509804 0.71372549 0.60000000
v 0.00874993 0.00078594 -0.00093382 0.54509804 0.71372549 0.60000000
v 0.00609356 0.00191825 0.00006257 0.54509804 0.71372549 0.60000000
v 0.01010109 -0.00383615 -0.00600115 0.54509804 0.71372549 0.60000000
v 0.00987555 -0.00390692 -0.00287692 0.54509804 0.71372549 0.60000000
v 0.01013868 -0.00374327 -0.00599975 0.54509804 0.71372549 0.60000000
v 0.01009273 -0.00348673 -0.00350667 0.54509804 0.71372549 0.60000000
v 0.00986302 -0.00369461 -0.00262223 0.54509804 0.71372549 0.60000000
v 0.00979828 -0.00347346 -0.00238503 0.54509804 0.71372549 0.60000000
v 0.00970221 -0.00360615 -0.00221290 0.54509804 0.71372549 0.60000000
v 0.01030366 0.00004287 -0.00250048 0.54509804 0.71372549 0.60000000
v 0.01016791 0.00011364 -0.00227237 0.54509804 0.71372549 0.60000000
v 0.00992567 0.00527092 -0.00229056 0.54509804 0.71372549 0.60000000
v 0.00949964 0.00549208 -0.00172799 0.54509804 0.71372549 0.60000000
v 0.00773291 0.02788159 -0.00104087 0.54509804 0.71372549 0.60000000
v 0.00764102 0.02775775 -0.00093732 0.54509804 0.71372549 0.60000000
v 0.00741130 0.02737294 -0.00069032 0.54509804 0.71372549 0.60000000
v 0.00723379 0.02689525 -0.00051189 0.54509804 0.71372549 0.60000000
v 0.00716488 0.02662544 -0.00044402 0.54509804 0.71372549 0.60000000
v 0.00675347 0.02540026 -0.00011026 0.54509804 0.71372549 0.60000000
v 0.00672841 0.02487834 -0.00008437 0.54509804 0.71372549 0.60000000
v 0.00589725 0.02269335 0.00037535 0.54509804 0.71372549 0.60000000
v 0.00600376 0.02563026 0.00030467 0.54509804 0.71372549 0.60000000
v 0.00606641 0.02801871 0.00017523 0.54509804 0.71372549 0.60000000
v 0.00532713 0.02824428 0.00045231 0.54509804 0.71372549 0.60000000
v 0.00493661 0.02993389 0.00038864 0.54509804 0.71372549 0.60000000
v 0.00477164 0.02983216 0.00044112 0.54509804 0.71372549 0.60000000
v 0.00471316 0.02979677 0.00045931 0.54509804 0.71372549 0.60000000
v 0.00438738 0.02959331 0.00055657 0.54509804 0.71372549 0.60000000
v 0.00474866 0.02997370 0.00041103 0.54509804 0.71372549 0.60000000
v 0.00486143 0.03004004 0.00037605 0.54509804 0.71372549 0.60000000
v 0.00500344 0.03165446 -0.00012985 0.54509804 0.71372549 0.60000000
v 0.00547958 0.03191542 -0.00033066 0.54509804 0.71372549 0.60000000
v 0.00631283 0.03248157 -0.00083796 0.54509804 0.71372549 0.60000000
v 0.00677644 0.03296368 -0.00131866 0.54509804 0.71372549 0.60000000
v 0.00738833 0.03326887 -0.00186864 0.54509804 0.71372549 0.60000000
v 0.00686207 0.03288407 -0.00129837 0.54509804 0.71372549 0.60000000
v 0.00790206 0.03349887 -0.00259354 0.54509804 0.71372549 0.60000000
v 0.00860374 0.03241965 -0.00311693 0.54509804 0.71372549 0.60000000
v 0.00745724 0.03317157 -0.00187843 0.54509804 0.71372549 0.60000000
v 0.00797515 0.03199503 -0.00182036 0.54509804 0.71372549 0.60000000
v 0.00865178 0.03226484 -0.00313862 0.54509804 0.71372549 0.60000000
v 0.00880214 0.03099100 -0.00329885 0.54509804 0.71372549 0.60000000
v 0.00909033 0.02904043 -0.00378585 0.54509804 0.71372549 0.60000000
v 0.00923234 0.02913774 -0.00451425 0.54509804 0.71372549 0.60000000
v 0.01094269 0.00471362 -0.00528814 0.54509804 0.71372549 0.60000000
v 0.01097610 0.00469593 -0.00600115 0.54509804 0.71372549 0.60000000
v 0.01097610 0.00469593 -0.00599975 0.54509804 0.71372549 0.60000000
v 0.00623765 0.02313565 0.00021301 0.54509804 0.71372549 0.60000000
v 0.01014494 -0.00372557 -0.00600115 0.54509804 0.71372549 0.60000000
v 0.01011153 -0.00332308 -0.00325967 0.54509804 0.71372549 0.60000000
v 0.00997996 -0.00342038 -0.00282515 0.54509804 0.71372549 0.60000000
v 0.01019506 -0.00358404 -0.00598925 0.54509804 0.71372549 0.60000000
v 0.01024518 -0.00344250 -0.00599975 0.54509804 0.71372549 0.60000000
v 0.01014077 -0.00335404 -0.00358224 0.54509804 0.71372549 0.60000000
v 0.01083618 -0.00042597 -0.00375437 0.54509804 0.71372549 0.60000000
v 0.01070253 -0.00019155 -0.00333034 0.54509804 0.71372549 0.60000000
v 0.01046446 0.00497900 -0.00333174 0.54509804 0.71372549 0.60000000
v 0.01003217 0.00521342 -0.00246199 0.54509804 0.71372549 0.60000000
v 0.00826126 0.02842563 -0.00175738 0.54509804 0.71372549 0.60000000
v 0.00799813 0.02817794 -0.00137324 0.54509804 0.71372549 0.60000000
v 0.00793130 0.02811159 -0.00128717 0.54509804 0.71372549 0.60000000
v 0.00796054 0.02946062 -0.00145930 0.54509804 0.71372549 0.60000000
v 0.00748648 0.02952255 -0.00094361 0.54509804 0.71372549 0.60000000
v 0.00742383 0.02760294 -0.00071691 0.54509804 0.71372549 0.60000000
v 0.00678480 0.02780198 -0.00022291 0.54509804 0.71372549 0.60000000
v 0.00625854 0.02970831 -0.00007527 0.54509804 0.71372549 0.60000000
v 0.00556521 0.02982331 0.00021441 0.54509804 0.71372549 0.60000000
v 0.00608103 0.03061946 -0.00009486 0.54509804 0.71372549 0.60000000
v 0.00600167 0.03073446 -0.00009276 0.54509804 0.71372549 0.60000000
v 0.00472569 0.02980562 0.00045511 0.54509804 0.71372549 0.60000000
v 0.00603091 0.03203484 -0.00056717 0.54509804 0.71372549 0.60000000
v 0.00654673 0.03107504 -0.00042233 0.54509804 0.71372549 0.60000000
v 0.00706464 0.03140234 -0.00081907 0.54509804 0.71372549 0.60000000
v 0.00754287 0.03171196 -0.00128298 0.54509804 0.71372549 0.60000000
v 0.00833644 0.03223388 -0.00243820 0.54509804 0.71372549 0.60000000
v 0.00839282 0.03208792 -0.00246549 0.54509804 0.71372549 0.60000000
v 0.00761387 0.03157484 -0.00130677 0.54509804 0.71372549 0.60000000
v 0.00803989 0.03185350 -0.00184834 0.54509804 0.71372549 0.60000000
v 0.00875411 0.03090696 -0.00313022 0.54509804 0.71372549 0.60000000
v 0.00886688 0.02932793 -0.00311413 0.54509804 0.71372549 0.60000000
v 0.00888149 0.02912005 -0.00311203 0.54509804 0.71372549 0.60000000
v 0.00889611 0.02890774 -0.00310923 0.54509804 0.71372549 0.60000000
v 0.01063779 0.00488169 -0.00381174 0.54509804 0.71372549 0.60000000
v 0.01075474 0.00481977 -0.00421548 0.54509804 0.71372549 0.60000000
v 0.01091554 0.00473131 -0.00505443 0.54509804 0.71372549 0.60000000
v 0.01115152 -0.00040828 -0.00506773 0.54509804 0.71372549 0.60000000
v 0.01121209 -0.00043924 -0.00600115 0.54509804 0.71372549 0.60000000
v 0.01023892 -0.00346019 -0.00600115 0.54509804 0.71372549 0.60000000
v 0.01111602 -0.00057636 -0.00506003 0.54509804 0.71372549 0.60000000
v 0.01108470 -0.00037732 -0.00464440 0.54509804 0.71372549 0.60000000
v 0.01096357 -0.00049674 -0.00422317 0.54509804 0.71372549 0.60000000
v 0.01117658 -0.00060732 -0.00600115 0.54509804 0.71372549 0.60000000
v 0.01099281 -0.00034636 -0.00422597 0.54509804 0.71372549 0.60000000
v 0.01086333 -0.00029328 -0.00376976 0.54509804 0.71372549 0.60000000
v 0.00863298 0.02936332 -0.00254036 0.54509804 0.71372549 0.60000000
v 0.00858913 0.02868659 -0.00234934 0.54509804 0.71372549 0.60000000
v 0.00850350 0.02862466 -0.00218001 0.54509804 0.71372549 0.60000000
v 0.00833853 0.02940755 -0.00199249 0.54509804 0.71372549 0.60000000
v 0.00691219 0.02960658 -0.00047061 0.54509804 0.71372549 0.60000000
v 0.00713982 0.03127408 -0.00083656 0.54509804 0.71372549 0.60000000
v 0.00662400 0.03095119 -0.00043212 0.54509804 0.71372549 0.60000000
f 1 2 15
f 210 260 211
f 211 260 262
f 211 262 261
f 213 231 263
f 213 263 219
f 214 216 264
f 214 264 265
f 214 265 215
f 210 259 260
f 215 265 237
f 216 230 266
f 216 266 264
f 217 232 218
f 217 237 267
f 217 267 236
f 217 236 232
f 219 263 268
f 219 268 220
f 215 237 217
f 209 259 210
f 209 258 259
f 208 255 256
f 199 247 202
f 200 206 205
f 200 205 201
f 200 204 250
f 200 250 206
f 202 247 249
f 202 249 251
f 202 251 204
f 202 204 203
f 204 251 252
f 204 252 250
f 206 253 207
f 206 250 254
f 206 254 253
f 207 253 255
f 207 255 208
f 208 256 257
f 208 257 258
f 208 258 209
f 220 269 221
f 220 268 270
f 220 270 271
f 220 271 269
f 232 236 234
f 235 286 238
f 235 237 265
f 235 265 286
f 236 267 237
f 238 286 287
f 238 287 288
f 238 288 289
f 238 289 239
f 239 289 240
f 240 289 290
f 240 290 291
f 240 291 292
f 240 292 293
f 240 293 245
f 240 245 241
f 241 245 242
f 243 294 295
f 243 295 296
f 228 285 266
f 198 243 248
f 228 284 285
f 228 230 229
f 221 269 272
f 221 272 222
f 222 272 273
f 222 273 274
f 222 274 223
f 223 274 275
f 223 275 276
f 223 276 225
f 224 226 227
f 225 276 277
f 225 277 278
f 225 278 279
f 225 279 280
f 225 280 281
f 225 281 226
f 226 281 282
f 226 282 283
f 226 283 228
f 228 266 230
f 228 283 284
f 243 296 297
f 198 246 243
f 198 248 249
f 169 214 215
f 169 215 170
f 169 176 216
f 169 216 214
f 170 217 218
f 170 218 171
f 170 215 217
f 171 218 179
f 168 213 172
f 171 179 178
f 172 219 220
f 172 220 221
f 172 221 173
f 173 221 222
f 173 222 174
f 174 222 223
f 174 223 175
f 175 224 176
f 172 213 219
f 168 212 213
f 168 177 212
f 167 177 168
f 160 196 199
f 160 199 161
f 161 200 201
f 161 201 162
f 161 199 202
f 161 202 203
f 161 203 204
f 161 204 200
f 162 201 205
f 162 205 163
f 163 205 206
f 163 206 207
f 163 207 208
f 163 208 164
f 164 208 209
f 164 209 210
f 164 210 165
f 165 210 211
f 165 211 166
f 175 223 225
f 175 225 226
f 175 226 224
f 176 224 227
f 187 235 238
f 187 238 239
f 187 239 188
f 188 239 240
f 188 240 241
f 188 241 242
f 188 242 190
f 190 242 192
f 192 242 193
f 193 243 244
f 193 244 194
f 193 242 245
f 193 245 243
f 194 244 195
f 195 244 246
f 195 246 197
f 196 247 199
f 196 198 247
f 197 246 198
f 186 237 235
f 198 249 247
f 186 236 237
f 186 235 187
f 176 227 226
f 176 226 228
f 176 228 229
f 176 229 230
f 176 230 216
f 177 231 213
f 177 213 212
f 179 218 180
f 180 218 181
f 181 218 232
f 181 232 182
f 182 233 183
f 182 232 234
f 182 234 189
f 182 189 233
f 183 233 184
f 184 233 189
f 185 189 234
f 185 234 186
f 186 234 236
f 243 297 298
f 243 298 248
f 243 246 244
f 309 350 310
f 310 350 351
f 310 351 352
f 310 352 312
f 311 312 352
f 315 319 354
f 315 354 355
f 315 355 356
f 309 349 350
f 315 356 316
f 318 353 357
f 318 357 319
f 319 357 354
f 320 356 358
f 320 358 359
f 320 359 321
f 321 359 322
f 322 359 348
f 316 356 320
f 308 349 309
f 308 348 349
f 308 347 348
f 298 338 301
f 298 301 299
f 300 301 339
f 300 339 304
f 301 338 339
f 302 305 340
f 302 340 303
f 303 340 341
f 303 341 306
f 304 339 305
f 305 339 342
f 305 342 343
f 305 343 340
f 306 341 344
f 306 344 307
f 307 344 345
f 307 345 346
f 307 346 347
f 307 347 308
f 322 348 347
f 322 347 360
f 322 360 361
f 322 361 323
f 339 365 342
f 340 343 341
f 341 343 363
f 341 363 362
f 341 362 361
f 341 361 360
f 341 360 344
f 344 360 345
f 345 360 346
f 346 360 347
f 348 359 349
f 349 359 358
f 349 358 355
f 349 355 350
f 350 355 351
f 351 354 352
f 352 354 357
f 355 358 356
f 364 365 366
f 338 365 339
f 298 337 338
f 338 366 365
f 334 337 336
f 323 361 362
f 323 362 324
f 324 362 363
f 324 363 343
f 324 343 327
f 324 327 325
f 325 327 326
f 327 343 342
f 327 342 328
f 328 364 329
f 328 342 365
f 328 365 364
f 329 364 330
f 330 364 331
f 331 364 366
f 331 366 333
f 331 333 332
f 333 366 337
f 333 337 334
f 337 366 338
f 298 336 337
f 297 336 298
f 297 334 336
f 257 309 258
f 258 309 259
f 259 309 260
f 260 309 310
f 260 310 262
f 261 262 312
f 261 312 311
f 262 310 312
f 264 266 313
f 264 313 286
f 264 286 265
f 266 285 313
f 268 314 270
f 269 271 315
f 269 315 316
f 269 316 272
f 270 314 353
f 270 353 318
f 270 318 317
f 257 308 309
f 270 317 271
f 257 307 308
f 256 306 257
f 243 245 293
f 243 293 292
f 243 292 294
f 248 252 249
f 248 298 299
f 248 299 252
f 249 252 251
f 250 252 300
f 250 300 254
f 252 299 301
f 252 301 300
f 253 254 302
f 253 302 303
f 253 303 255
f 254 300 304
f 254 304 305
f 254 305 302
f 255 303 256
f 256 303 306
f 257 306 307
f 159 196 160
f 271 317 318
f 271 319 315
f 284 287 285
f 284 330 288
f 284 288 287
f 285 287 313
f 286 313 287
f 288 330 331
f 288 331 332
f 288 332 289
f 289 332 290
f 290 332 333
f 290 333 334
f 290 334 295
f 290 295 291
f 291 295 294
f 291 294 335
f 291 335 292
f 292 335 294
f 295 334 296
f 296 334 297
f 283 330 284
f 271 318 319
f 282 330 283
f 281 329 282
f 272 316 320
f 272 320 321
f 272 321 273
f 273 321 274
f 274 321 275
f 275 321 322
f 275 322 323
f 275 323 276
f 276 323 277
f 277 323 324
f 277 324 325
f 277 325 278
f 278 325 326
f 278 326 279
f 279 326 327
f 279 327 328
f 279 328 280
f 280 328 329
f 280 329 281
f 282 329 330
f 158 198 196
f 351 355 354
f 158 195 197
f 30 34 31
f 31 34 65
f 31 65 35
f 31 35 32
f 34 64 66
f 34 66 67
f 34 67 65
f 35 63 36
f 29 64 34
f 35 65 63
f 36 68 37
f 37 68 69
f 37 69 70
f 37 70 71
f 37 71 38
f 38 71 72
f 38 72 39
f 39 72 73
f 36 63 68
f 29 62 64
f 29 34 33
f 28 63 62
f 21 53 22
f 21 52 54
f 21 54 53
f 22 53 55
f 22 55 56
f 22 56 23
f 23 56 57
f 23 57 24
f 24 57 58
f 24 58 25
f 25 58 59
f 25 59 60
f 25 60 26
f 26 61 27
f 26 60 61
f 27 61 60
f 27 60 28
f 28 62 29
f 28 60 63
f 39 73 74
f 44 75 76
f 44 76 77
f 44 77 78
f 54 90 92
f 54 92 91
f 55 91 93
f 55 93 94
f 55 94 56
f 56 94 95
f 56 95 57
f 57 95 60
f 57 60 58
f 58 60 59
f 60 95 94
f 60 94 96
f 60 96 68
f 60 68 63
f 62 63 64
f 63 65 67
f 63 67 66
f 63 66 64
f 68 96 69
f 53 91 55
f 20 52 21
f 53 54 91
f 51 90 54
f 44 78 79
f 44 79 45
f 44 80 75
f 45 79 46
f 46 81 82
f 46 82 83
f 46 83 47
f 46 79 84
f 46 84 81
f 47 83 85
f 47 85 48
f 48 85 86
f 48 86 87
f 48 87 49
f 49 87 88
f 49 88 89
f 49 89 50
f 50 89 90
f 50 90 51
f 51 54 52
f 69 97 98
f 20 51 52
f 20 49 50
f 1 144 110
f 1 110 80
f 1 80 44
f 1 44 19
f 1 19 4
f 1 4 5
f 1 5 6
f 1 6 7
f 1 177 144
f 1 7 8
f 1 9 10
f 1 10 11
f 1 11 2
f 2 12 13
f 2 13 14
f 2 14 15
f 2 11 16
f 2 16 12
f 1 8 9
f 1 231 177
f 1 263 231
f 1 268 263
f 158 197 198
f 1 15 3
f 1 3 18
f 1 43 42
f 1 42 41
f 1 41 40
f 1 40 39
f 1 39 74
f 1 74 106
f 1 106 135
f 1 135 166
f 1 166 211
f 1 211 261
f 1 261 311
f 1 311 352
f 1 352 357
f 1 357 353
f 1 353 314
f 1 314 268
f 3 15 17
f 3 17 18
f 4 19 20
f 4 20 21
f 13 35 14
f 14 35 17
f 14 17 15
f 16 29 33
f 17 35 36
f 17 36 37
f 17 37 38
f 17 38 39
f 17 39 40
f 17 40 41
f 17 41 42
f 17 42 43
f 17 43 18
f 19 44 45
f 19 45 46
f 19 46 47
f 19 47 48
f 19 48 20
f 20 48 49
f 13 32 35
f 20 50 51
f 12 34 30
f 12 16 33
f 4 21 5
f 5 21 22
f 5 22 23
f 5 23 6
f 6 23 24
f 6 24 7
f 7 24 25
f 7 25 8
f 8 25 26
f 8 26 9
f 9 26 27
f 9 27 10
f 10 27 28
f 10 28 11
f 11 28 29
f 11 29 16
f 12 30 31
f 12 31 32
f 12 32 13
f 12 33 34
f 69 98 70
f 1 18 43
f 70 98 99
f 130 156 157
f 130 157 158
f 130 158 159
f 130 159 131
f 131 160 132
f 131 159 160
f 132 160 161
f 132 161 162
f 129 156 130
f 132 162 163
f 132 136 133
f 134 164 165
f 134 165 166
f 134 166 135
f 134 136 164
f 136 163 164
f 137 144 138
f 138 144 167
f 132 163 136
f 128 156 129
f 127 156 128
f 127 154 156
f 115 143 148
f 116 148 143
f 117 147 118
f 118 147 119
f 119 147 149
f 119 149 150
f 119 150 120
f 120 150 122
f 121 122 150
f 121 150 151
f 121 151 152
f 121 152 153
f 121 153 123
f 123 153 126
f 123 126 124
f 125 154 127
f 125 126 153
f 125 153 155
f 125 155 154
f 138 167 168
f 138 168 140
f 139 142 169
f 139 169 170
f 149 187 188
f 149 188 150
f 149 184 189
f 149 189 185
f 150 188 190
f 150 190 151
f 151 191 152
f 151 190 192
f 151 192 193
f 151 193 194
f 151 194 191
f 152 191 155
f 152 155 153
f 154 194 156
f 154 155 191
f 154 191 194
f 156 194 195
f 157 195 158
f 69 96 97
f 149 186 187
f 115 148 116
f 149 185 186
f 147 183 184
f 139 170 171
f 139 171 145
f 140 168 172
f 140 172 173
f 140 173 174
f 140 174 141
f 141 174 175
f 141 175 176
f 141 176 142
f 142 176 169
f 144 177 167
f 145 178 146
f 145 171 178
f 146 178 179
f 146 179 180
f 146 180 181
f 146 181 182
f 146 182 183
f 146 183 147
f 147 184 149
f 114 147 117
f 156 195 157
f 114 145 146
f 81 112 82
f 81 109 111
f 82 112 83
f 83 113 114
f 83 114 85
f 83 112 111
f 83 111 115
f 83 115 116
f 83 116 113
f 85 114 117
f 85 117 86
f 86 117 118
f 86 118 87
f 87 118 88
f 88 118 119
f 88 119 120
f 88 120 89
f 89 120 90
f 90 120 92
f 81 111 112
f 91 92 121
f 80 110 107
f 78 84 79
f 70 99 100
f 114 146 147
f 70 100 101
f 70 101 71
f 71 101 72
f 72 101 102
f 72 102 73
f 73 102 103
f 73 103 104
f 73 104 105
f 73 105 74
f 74 105 106
f 75 80 76
f 76 78 77
f 76 80 107
f 76 107 108
f 76 108 109
f 76 109 81
f 76 81 78
f 78 81 84
f 91 121 93
f 158 196 159
f 92 122 121
f 106 134 135
f 106 133 136
f 106 136 134
f 107 110 137
f 107 137 138
f 107 138 108
f 108 139 109
f 108 138 140
f 108 140 141
f 108 141 142
f 108 142 139
f 109 139 143
f 109 143 115
f 109 115 111
f 110 144 137
f 113 145 114
f 113 116 143
f 113 143 139
f 92 120 122
f 105 133 106
f 105 132 133
f 113 139 145
f 104 130 131
f 105 131 132
f 94 124 96
f 93 121 123
f 94 123 124
f 96 124 97
f 97 124 98
f 93 123 94
f 98 124 126
f 98 126 125
f 98 125 99
f 99 128 100
f 99 125 127
f 100 128 101
f 101 128 102
f 102 128 129
f 102 129 103
f 103 130 104
f 99 127 128
f 103 129 130
f 104 131 105
