# https://github.com/mikedh/trimesh
v 0.00398529 -0.00666192 -0.00904955 0.54117647 0.42352941 0.64313725
v 0.00398529 -0.00666192 -0.00295098 0.54117647 0.42352941 0.64313725
v 0.00398529 -0.00655926 -0.00913142 0.54117647 0.42352941 0.64313725
v 0.00400498 -0.00434616 -0.01252111 0.54117647 0.42352941 0.64313725
v 0.00403004 -0.00478783 -0.01240908 0.54117647 0.42352941 0.64313725
v 0.00406047 -0.00508148 -0.01232721 0.54117647 0.42352941 0.64313725
v 0.00416249 -0.00576427 -0.01210171 0.54117647 0.42352941 0.64313725
v 0.00418218 -0.00586692 -0.01206293 0.54117647 0.42352941 0.64313725
v 0.00427705 -0.00631336 -0.01187765 0.54117647 0.42352941 0.64313725
v 0.00435044 -0.00660224 -0.01174120 0.54117647 0.42352941 0.64313725
v 0.00453481 -0.00723728 -0.01137781 0.54117647 0.42352941 0.64313725
v 0.00469411 -0.00770521 -0.01102591 0.54117647 0.42352941 0.64313725
v 0.00477824 -0.00792962 -0.01081765 0.54117647 0.42352941 0.64313725
v 0.00435760 -0.00663327 -0.00027370 0.54117647 0.42352941 0.64313725
v 0.00427705 -0.00631098 -0.00012146 0.54117647 0.42352941 0.64313725
v 0.00420545 -0.00598391 0.00001643 0.54117647 0.42352941 0.64313725
v 0.00407837 -0.00523188 0.00028071 0.54117647 0.42352941 0.64313725
v 0.00403004 -0.00479022 0.00040854 0.54117647 0.42352941 0.64313725
v 0.00400856 -0.00446076 0.00049328 0.54117647 0.42352941 0.64313725
v 0.00398529 -0.00657836 -0.00288348 0.54117647 0.42352941 0.64313725
v 0.00477824 -0.00792962 -0.00118145 0.54117647 0.42352941 0.64313725
v 0.00467442 -0.00765268 -0.00092866 0.54117647 0.42352941 0.64313725
v 0.00452407 -0.00720147 -0.00059975 0.54117647 0.42352941 0.64313725
v 0.00398529 -0.00602449 -0.00954939 0.54117647 0.42352941 0.64313725
v 0.00401393 -0.00361324 -0.01267767 0.54117647 0.42352941 0.64313725
v 0.00596141 -0.00230257 -0.01254409 0.54117647 0.42352941 0.64313725
v 0.00398529 0.00147904 -0.01331970 0.54117647 0.42352941 0.64313725
v 0.00659685 -0.00336018 -0.01208591 0.54117647 0.42352941 0.64313725
v 0.00690472 -0.00384243 -0.01181732 0.54117647 0.42352941 0.64313725
v 0.00719469 -0.00427932 -0.01152288 0.54117647 0.42352941 0.64313725
v 0.00746140 -0.00466369 -0.01120402 0.54117647 0.42352941 0.64313725
v 0.00769946 -0.00499076 -0.01086218 0.54117647 0.42352941 0.64313725
v 0.00491428 -0.00810151 -0.01057922 0.54117647 0.42352941 0.64313725
v 0.00717858 -0.00429603 -0.00047622 0.54117647 0.42352941 0.64313725
v 0.00688861 -0.00385675 -0.00018178 0.54117647 0.42352941 0.64313725
v 0.00658253 -0.00337450 0.00008681 0.54117647 0.42352941 0.64313725
v 0.00594888 -0.00231450 0.00054356 0.54117647 0.42352941 0.64313725
v 0.00400498 -0.00382094 0.00063692 0.54117647 0.42352941 0.64313725
v 0.00398529 -0.00602449 -0.00245115 0.54117647 0.42352941 0.64313725
v 0.00534745 -0.00864822 -0.00289640 0.54117647 0.42352941 0.64313725
v 0.00500557 -0.00821611 -0.00161091 0.54117647 0.42352941 0.64313725
v 0.00788741 -0.00527008 -0.00149888 0.54117647 0.42352941 0.64313725
v 0.00768335 -0.00500747 -0.00113693 0.54117647 0.42352941 0.64313725
v 0.00744529 -0.00468040 -0.00079652 0.54117647 0.42352941 0.64313725
v 0.00402288 -0.00349148 -0.01270065 0.54117647 0.42352941 0.64313725
v 0.00407837 -0.00305698 -0.01277534 0.54117647 0.42352941 0.64313725
v 0.00533313 -0.00119005 -0.01288881 0.54117647 0.42352941 0.64313725
v 0.00750436 -0.00003217 -0.01260873 0.54117647 0.42352941 0.64313725
v 0.00785340 -0.00038789 -0.01245073 0.54117647 0.42352941 0.64313725
v 0.00862129 -0.00114707 -0.01203708 0.54117647 0.42352941 0.64313725
v 0.00398529 0.00198755 -0.01333406 0.54117647 0.42352941 0.64313725
v 0.00433612 0.00221197 -0.01331683 0.54117647 0.42352941 0.64313725
v 0.00408374 0.00124030 -0.01330534 0.54117647 0.42352941 0.64313725
v 0.00867678 -0.00120198 -0.01200260 0.54117647 0.42352941 0.64313725
v 0.00906700 -0.00157919 -0.01174263 0.54117647 0.42352941 0.64313725
v 0.00840292 -0.00302117 -0.01149846 0.54117647 0.42352941 0.64313725
v 0.00870363 -0.00336734 -0.01118822 0.54117647 0.42352941 0.64313725
v 0.00896855 -0.00366099 -0.01085643 0.54117647 0.42352941 0.64313725
v 0.00790352 -0.00525098 -0.01050166 0.54117647 0.42352941 0.64313725
v 0.00919408 -0.00389972 -0.01050453 0.54117647 0.42352941 0.64313725
v 0.00511117 -0.00834741 -0.01013540 0.54117647 0.42352941 0.64313725
v 0.00524721 -0.00851930 -0.00968727 0.54117647 0.42352941 0.64313725
v 0.00533850 -0.00863628 -0.00917738 0.54117647 0.42352941 0.64313725
v 0.00868215 -0.00338882 -0.00081088 0.54117647 0.42352941 0.64313725
v 0.00838144 -0.00304265 -0.00050064 0.54117647 0.42352941 0.64313725
v 0.00926568 -0.00176779 -0.00040728 0.54117647 0.42352941 0.64313725
v 0.00867678 -0.00120198 0.00000207 0.54117647 0.42352941 0.64313725
v 0.00834922 -0.00088208 0.00019453 0.54117647 0.42352941 0.64313725
v 0.00406584 -0.00314770 0.00076044 0.54117647 0.42352941 0.64313725
v 0.00402467 -0.00349148 0.00070011 0.54117647 0.42352941 0.64313725
v 0.00785340 -0.00038789 0.00045020 0.54117647 0.42352941 0.64313725
v 0.00727345 0.00020657 0.00070442 0.54117647 0.42352941 0.64313725
v 0.00532239 -0.00120198 0.00088971 0.54117647 0.42352941 0.64313725
v 0.00398529 0.00149575 0.00132204 0.54117647 0.42352941 0.64313725
v 0.00527227 -0.00855273 -0.00242673 0.54117647 0.42352941 0.64313725
v 0.00545485 -0.00878192 -0.00545160 0.54117647 0.42352941 0.64313725
v 0.00538862 -0.00869836 -0.00342066 0.54117647 0.42352941 0.64313725
v 0.00711414 -0.00700093 -0.00342066 0.54117647 0.42352941 0.64313725
v 0.00826867 -0.00567355 -0.00265510 0.54117647 0.42352941 0.64313725
v 0.00516487 -0.00841665 -0.00202169 0.54117647 0.42352941 0.64313725
v 0.00805388 -0.00546584 -0.00187663 0.54117647 0.42352941 0.64313725
v 0.00935339 -0.00410265 -0.00186370 0.54117647 0.42352941 0.64313725
v 0.00917260 -0.00392360 -0.00149457 0.54117647 0.42352941 0.64313725
v 0.00894707 -0.00368486 -0.00114267 0.54117647 0.42352941 0.64313725
v 0.00420187 -0.00251504 -0.01285290 0.54117647 0.42352941 0.64313725
v 0.00416786 0.00097769 -0.01328523 0.54117647 0.42352941 0.64313725
v 0.00427526 0.00056945 -0.01324788 0.54117647 0.42352941 0.64313725
v 0.00438624 -0.00006082 -0.01317751 0.54117647 0.42352941 0.64313725
v 0.00435223 -0.00182032 -0.01294482 0.54117647 0.42352941 0.64313725
v 0.00441488 -0.00128316 -0.01301808 0.54117647 0.42352941 0.64313725
v 0.00442562 -0.00110888 -0.01304249 0.54117647 0.42352941 0.64313725
v 0.00540294 0.00054080 -0.01310856 0.54117647 0.42352941 0.64313725
v 0.00701749 0.00047396 -0.01280119 0.54117647 0.42352941 0.64313725
v 0.00894707 0.00075328 -0.01237605 0.54117647 0.42352941 0.64313725
v 0.01063679 0.00242206 -0.01224103 0.54117647 0.42352941 0.64313725
v 0.01154431 0.00224539 -0.01194084 0.54117647 0.42352941 0.64313725
v 0.01129013 0.00155783 -0.01186041 0.54117647 0.42352941 0.64313725
v 0.00398529 0.00210692 -0.01333550 0.54117647 0.42352941 0.64313725
v 0.00398529 0.00245309 -0.01333837 0.54117647 0.42352941 0.64313725
v 0.00410521 0.00266318 -0.01333263 0.54117647 0.42352941 0.64313725
v 0.00489638 0.00365872 -0.01327948 0.54117647 0.42352941 0.64313725
v 0.00513623 0.00294728 -0.01326225 0.54117647 0.42352941 0.64313725
v 0.00524363 0.00270616 -0.01324788 0.54117647 0.42352941 0.64313725
v 0.00560879 0.00208544 -0.01318469 0.54117647 0.42352941 0.64313725
v 0.01159442 0.00116152 -0.01162916 0.54117647 0.42352941 0.64313725
v 0.00942678 -0.00192059 -0.01146112 0.54117647 0.42352941 0.64313725
v 0.01004611 -0.00249356 -0.01082914 0.54117647 0.42352941 0.64313725
v 0.01151030 -0.00023510 -0.01110204 0.54117647 0.42352941 0.64313725
v 0.01028238 -0.00270603 -0.01049448 0.54117647 0.42352941 0.64313725
v 0.00806999 -0.00544913 -0.01012391 0.54117647 0.42352941 0.64313725
v 0.00937487 -0.00407878 -0.01013540 0.54117647 0.42352941 0.64313725
v 0.01045959 -0.00285405 -0.01017562 0.54117647 0.42352941 0.64313725
v 0.00819707 -0.00558044 -0.00973611 0.54117647 0.42352941 0.64313725
v 0.00828657 -0.00565683 -0.00934400 0.54117647 0.42352941 0.64313725
v 0.00538862 -0.00869836 -0.00857844 0.54117647 0.42352941 0.64313725
v 0.00841903 -0.00567116 -0.00857844 0.54117647 0.42352941 0.64313725
v 0.00975613 -0.00222856 -0.00084248 0.54117647 0.42352941 0.64313725
v 0.00948048 -0.00197072 -0.00058538 0.54117647 0.42352941 0.64313725
v 0.01187545 0.00079625 -0.00062847 0.54117647 0.42352941 0.64313725
v 0.01159442 0.00116152 -0.00036994 0.54117647 0.42352941 0.64313725
v 0.01129013 0.00155783 -0.00014013 0.54117647 0.42352941 0.64313725
v 0.00419471 -0.00254130 0.00084949 0.54117647 0.42352941 0.64313725
v 0.00424125 0.00071269 0.00126171 0.54117647 0.42352941 0.64313725
v 0.00416786 0.00097769 0.00128469 0.54117647 0.42352941 0.64313725
v 0.01063679 0.00242206 0.00024049 0.54117647 0.42352941 0.64313725
v 0.00894707 0.00075328 0.00037551 0.54117647 0.42352941 0.64313725
v 0.00817201 0.00163661 0.00070442 0.54117647 0.42352941 0.64313725
v 0.00621021 0.00134774 0.00105201 0.54117647 0.42352941 0.64313725
v 0.00540294 0.00054080 0.00110946 0.54117647 0.42352941 0.64313725
v 0.01090887 0.00315498 0.00028646 0.54117647 0.42352941 0.64313725
v 0.00442741 -0.00109933 0.00104339 0.54117647 0.42352941 0.64313725
v 0.00441488 -0.00128316 0.00101897 0.54117647 0.42352941 0.64313725
v 0.00435402 -0.00180838 0.00094716 0.54117647 0.42352941 0.64313725
v 0.00398529 0.00156976 0.00132491 0.54117647 0.42352941 0.64313725
v 0.00818096 -0.00559715 -0.00226443 0.54117647 0.42352941 0.64313725
v 0.00544769 -0.00876998 -0.00701430 0.54117647 0.42352941 0.64313725
v 0.00717142 -0.00710359 -0.00600027 0.54117647 0.42352941 0.64313725
v 0.00715710 -0.00707733 -0.00471046 0.54117647 0.42352941 0.64313725
v 0.00541189 -0.00872701 -0.00388889 0.54117647 0.42352941 0.64313725
v 0.00864456 -0.00543720 -0.00342066 0.54117647 0.42352941 0.64313725
v 0.00957714 -0.00428887 -0.00263787 0.54117647 0.42352941 0.64313725
v 0.00948764 -0.00422202 -0.00224719 0.54117647 0.42352941 0.64313725
v 0.01060815 -0.00297103 -0.00224001 0.54117647 0.42352941 0.64313725
v 0.01046317 -0.00285883 -0.00185508 0.54117647 0.42352941 0.64313725
v 0.01028059 -0.00270365 -0.00150893 0.54117647 0.42352941 0.64313725
v 0.01006043 -0.00250788 -0.00119007 0.54117647 0.42352941 0.64313725
v 0.00442204 -0.00043564 -0.01313154 0.54117647 0.42352941 0.64313725
v 0.00581284 0.00181089 -0.01314447 0.54117647 0.42352941 0.64313725
v 0.00621021 0.00134774 -0.01305255 0.54117647 0.42352941 0.64313725
v 0.00817201 0.00163661 -0.01270496 0.54117647 0.42352941 0.64313725
v 0.01064037 0.00354413 -0.01240190 0.54117647 0.42352941 0.64313725
v 0.01111292 0.00286134 -0.01218789 0.54117647 0.42352941 0.64313725
v 0.01582769 0.00861492 -0.01182163 0.54117647 0.42352941 0.64313725
v 0.01684618 0.00923086 -0.01161480 0.54117647 0.42352941 0.64313725
v 0.01635215 0.00779605 -0.01147692 0.54117647 0.42352941 0.64313725
v 0.01172509 0.00199233 -0.01181876 0.54117647 0.42352941 0.64313725
v 0.00398529 0.00262260 -0.01333694 0.54117647 0.42352941 0.64313725
v 0.00398529 0.00290431 -0.01333119 0.54117647 0.42352941 0.64313725
v 0.00398529 0.00317647 -0.01332545 0.54117647 0.42352941 0.64313725
v 0.00483910 0.00388791 -0.01327661 0.54117647 0.42352941 0.64313725
v 0.00713383 0.00580020 -0.01307840 0.54117647 0.42352941 0.64313725
v 0.00732357 0.00535615 -0.01306835 0.54117647 0.42352941 0.64313725
v 0.00642143 0.00401683 -0.01315309 0.54117647 0.42352941 0.64313725
v 0.00664338 0.00358949 -0.01311431 0.54117647 0.42352941 0.64313725
v 0.00689398 0.00319557 -0.01306404 0.54117647 0.42352941 0.64313725
v 0.01215289 0.00139310 -0.01146112 0.54117647 0.42352941 0.64313725
v 0.01187545 0.00079625 -0.01137207 0.54117647 0.42352941 0.64313725
v 0.01212783 0.00047157 -0.01108624 0.54117647 0.42352941 0.64313725
v 0.01175015 -0.00051203 -0.01078749 0.54117647 0.42352941 0.64313725
v 0.01234621 0.00019225 -0.01077600 0.54117647 0.42352941 0.64313725
v 0.01194705 -0.00074122 -0.01045283 0.54117647 0.42352941 0.64313725
v 0.01062963 -0.00299013 -0.00976053 0.54117647 0.42352941 0.64313725
v 0.00950912 -0.00419815 -0.00975334 0.54117647 0.42352941 0.64313725
v 0.01975845 0.00729709 -0.00910844 0.54117647 0.42352941 0.64313725
v 0.01072271 -0.00305698 -0.00942874 0.54117647 0.42352941 0.64313725
v 0.01073524 -0.00306414 -0.00937560 0.54117647 0.42352941 0.64313725
v 0.00715710 -0.00707733 -0.00728864 0.54117647 0.42352941 0.64313725
v 0.00968632 -0.00432468 -0.00857844 0.54117647 0.42352941 0.64313725
v 0.00868931 -0.00551120 -0.00728864 0.54117647 0.42352941 0.64313725
v 0.01212783 0.00047157 -0.00091286 0.54117647 0.42352941 0.64313725
v 0.01227282 0.00122837 -0.00066007 0.54117647 0.42352941 0.64313725
v 0.01200970 0.00159364 -0.00040584 0.54117647 0.42352941 0.64313725
v 0.01168213 0.00205201 -0.00015018 0.54117647 0.42352941 0.64313725
v 0.00442204 -0.00043564 0.00113101 0.54117647 0.42352941 0.64313725
v 0.00440235 -0.00019690 0.00116117 0.54117647 0.42352941 0.64313725
v 0.00434686 0.00020896 0.00120857 0.54117647 0.42352941 0.64313725
v 0.00560879 0.00208544 0.00118559 0.54117647 0.42352941 0.64313725
v 0.00550318 0.00224539 0.00120569 0.54117647 0.42352941 0.64313725
v 0.01111292 0.00286134 0.00018879 0.54117647 0.42352941 0.64313725
v 0.00917439 0.00259634 0.00060819 0.54117647 0.42352941 0.64313725
v 0.00742739 0.00252233 0.00093998 0.54117647 0.42352941 0.64313725
v 0.00689398 0.00319557 0.00106350 0.54117647 0.42352941 0.64313725
v 0.00997451 0.00332210 0.00052345 0.54117647 0.42352941 0.64313725
v 0.01581516 0.00860776 -0.00017747 0.54117647 0.42352941 0.64313725
v 0.01460872 0.00838812 0.00009112 0.54117647 0.42352941 0.64313725
v 0.00398529 0.00219287 0.00133353 0.54117647 0.42352941 0.64313725
v 0.00513623 0.00294728 0.00126315 0.54117647 0.42352941 0.64313725
v 0.00505927 0.00314305 0.00127176 0.54117647 0.42352941 0.64313725
v 0.00870542 -0.00553508 -0.00600027 0.54117647 0.42352941 0.64313725
v 0.00868931 -0.00551120 -0.00471046 0.54117647 0.42352941 0.64313725
v 0.01002105 -0.00408594 -0.00471046 0.54117647 0.42352941 0.64313725
v 0.00997272 -0.00401193 -0.00342066 0.54117647 0.42352941 0.64313725
v 0.02082527 0.00797988 -0.00378404 0.54117647 0.42352941 0.64313725
v 0.01069944 -0.00303788 -0.00262494 0.54117647 0.42352941 0.64313725
v 0.01067975 -0.00302356 -0.00252440 0.54117647 0.42352941 0.64313725
v 0.02081632 0.00797988 -0.00374095 0.54117647 0.42352941 0.64313725
v 0.01991060 0.00716339 -0.00329714 0.54117647 0.42352941 0.64313725
v 0.02069460 0.00805866 -0.00332586 0.54117647 0.42352941 0.64313725
v 0.01194705 -0.00074122 -0.00154771 0.54117647 0.42352941 0.64313725
v 0.01977277 0.00730425 -0.00290215 0.54117647 0.42352941 0.64313725
v 0.01175015 -0.00051203 -0.00121161 0.54117647 0.42352941 0.64313725
v 0.00742739 0.00252233 -0.01293908 0.54117647 0.42352941 0.64313725
v 0.00917439 0.00259634 -0.01260729 0.54117647 0.42352941 0.64313725
v 0.00997451 0.00332210 -0.01252399 0.54117647 0.42352941 0.64313725
v 0.01453713 0.00850271 -0.01211464 0.54117647 0.42352941 0.64313725
v 0.01483426 0.00801569 -0.01198393 0.54117647 0.42352941 0.64313725
v 0.01553593 0.00906852 -0.01195090 0.54117647 0.42352941 0.64313725
v 0.01657590 0.00962717 -0.01173545 0.54117647 0.42352941 0.64313725
v 0.01756575 0.01019537 -0.01147692 0.54117647 0.42352941 0.64313725
v 0.01783066 0.00983248 -0.01136057 0.54117647 0.42352941 0.64313725
v 0.01736348 0.00846929 -0.01126721 0.54117647 0.42352941 0.64313725
v 0.00398529 0.00331016 -0.01331683 0.54117647 0.42352941 0.64313725
v 0.00466726 0.00483570 -0.01321198 0.54117647 0.42352941 0.64313725
v 0.00638742 0.00628484 -0.01307553 0.54117647 0.42352941 0.64313725
v 0.00830984 0.00730902 -0.01291897 0.54117647 0.42352941 0.64313725
v 0.00797870 0.00648060 -0.01298504 0.54117647 0.42352941 0.64313725
v 0.00853538 0.00691033 -0.01291897 0.54117647 0.42352941 0.64313725
v 0.00905805 0.00602700 -0.01285865 0.54117647 0.42352941 0.64313725
v 0.00844409 0.00559966 -0.01293333 0.54117647 0.42352941 0.64313725
v 0.00753837 0.00491448 -0.01303818 0.54117647 0.42352941 0.64313725
v 0.00802166 0.00410277 -0.01294051 0.54117647 0.42352941 0.64313725
v 0.01227282 0.00122837 -0.01134047 0.54117647 0.42352941 0.64313725
v 0.01785393 0.00775308 -0.01082483 0.54117647 0.42352941 0.64313725
v 0.01826562 0.00716101 -0.01032643 0.54117647 0.42352941 0.64313725
v 0.01922683 0.00795362 -0.01008082 0.54117647 0.42352941 0.64313725
v 0.01264334 0.00071747 -0.01086218 0.54117647 0.42352941 0.64313725
v 0.01252521 -0.00003694 -0.01044277 0.54117647 0.42352941 0.64313725
v 0.01953829 0.00755970 -0.00957812 0.54117647 0.42352941 0.64313725
v 0.02061584 0.00813506 -0.00888294 0.54117647 0.42352941 0.64313725
v 0.01989807 0.00715384 -0.00870915 0.54117647 0.42352941 0.64313725
v 0.02075188 0.00801330 -0.00850232 0.54117647 0.42352941 0.64313725
v 0.02051024 0.00824488 -0.00911993 0.54117647 0.42352941 0.64313725
v 0.02081632 0.00797988 -0.00825958 0.54117647 0.42352941 0.64313725
v 0.01080326 -0.00312621 -0.00857844 0.54117647 0.42352941 0.64313725
v 0.02085212 0.00798943 -0.00811308 0.54117647 0.42352941 0.64313725
v 0.01002105 -0.00408594 -0.00728864 0.54117647 0.42352941 0.64313725
v 0.01234621 0.00019225 -0.00122454 0.54117647 0.42352941 0.64313725
v 0.01250910 0.00090368 -0.00094015 0.54117647 0.42352941 0.64313725
v 0.01885273 0.00846929 -0.00144717 0.54117647 0.42352941 0.64313725
v 0.01787004 0.00773159 -0.00119294 0.54117647 0.42352941 0.64313725
v 0.01738675 0.00843587 -0.00074912 0.54117647 0.42352941 0.64313725
v 0.01636289 0.00775308 -0.00053799 0.54117647 0.42352941 0.64313725
v 0.01684618 0.00923086 -0.00038574 0.54117647 0.42352941 0.64313725
v 0.00664338 0.00358949 0.00111377 0.54117647 0.42352941 0.64313725
v 0.00642143 0.00401683 0.00115255 0.54117647 0.42352941 0.64313725
v 0.00849600 0.00347967 0.00082507 0.54117647 0.42352941 0.64313725
v 0.00802166 0.00410277 0.00093998 0.54117647 0.42352941 0.64313725
v 0.01658484 0.00961523 -0.00026796 0.54117647 0.42352941 0.64313725
v 0.01553235 0.00904942 -0.00004964 0.54117647 0.42352941 0.64313725
v 0.01372985 0.00803240 0.00022182 0.54117647 0.42352941 0.64313725
v 0.01408784 0.00924519 0.00020315 0.54117647 0.42352941 0.64313725
v 0.00398529 0.00237192 0.00133496 0.54117647 0.42352941 0.64313725
v 0.00732357 0.00535615 0.00106781 0.54117647 0.42352941 0.64313725
v 0.00713383 0.00580020 0.00107930 0.54117647 0.42352941 0.64313725
v 0.00483910 0.00388791 0.00127607 0.54117647 0.42352941 0.64313725
v 0.01003716 -0.00410981 -0.00600027 0.54117647 0.42352941 0.64313725
v 0.02124412 0.00832366 -0.00537260 0.54117647 0.42352941 0.64313725
v 0.02117252 0.00829979 -0.00437149 0.54117647 0.42352941 0.64313725
v 0.02101859 0.00814938 -0.00413163 0.54117647 0.42352941 0.64313725
v 0.02096847 0.00811357 -0.00392049 0.54117647 0.42352941 0.64313725
v 0.02085212 0.00798943 -0.00388746 0.54117647 0.42352941 0.64313725
v 0.02109019 0.00827591 -0.00381708 0.54117647 0.42352941 0.64313725
v 0.02118147 0.00847407 -0.00363610 0.54117647 0.42352941 0.64313725
v 0.02093088 0.00844064 -0.00323681 0.54117647 0.42352941 0.64313725
v 0.02061763 0.00813267 -0.00312478 0.54117647 0.42352941 0.64313725
v 0.01252521 -0.00003694 -0.00155776 0.54117647 0.42352941 0.64313725
v 0.01955619 0.00756209 -0.00243679 0.54117647 0.42352941 0.64313725
v 0.02041179 0.00834992 -0.00268814 0.54117647 0.42352941 0.64313725
v 0.00849600 0.00347967 -0.01282561 0.54117647 0.42352941 0.64313725
v 0.01370837 0.00801808 -0.01222523 0.54117647 0.42352941 0.64313725
v 0.01179311 0.00792497 -0.01251249 0.54117647 0.42352941 0.64313725
v 0.01324119 0.00878681 -0.01231859 0.54117647 0.42352941 0.64313725
v 0.01408068 0.00925713 -0.01220512 0.54117647 0.42352941 0.64313725
v 0.01507054 0.00978951 -0.01204426 0.54117647 0.42352941 0.64313725
v 0.01611050 0.01030519 -0.01183599 0.54117647 0.42352941 0.64313725
v 0.01709856 0.01083996 -0.01158751 0.54117647 0.42352941 0.64313725
v 0.01845536 0.01078505 -0.01118391 0.54117647 0.42352941 0.64313725
v 0.01834438 0.00912821 -0.01101586 0.54117647 0.42352941 0.64313725
v 0.01875249 0.01040068 -0.01105464 0.54117647 0.42352941 0.64313725
v 0.01884915 0.01027654 -0.01100150 0.54117647 0.42352941 0.64313725
v 0.00398529 0.00428421 -0.01324645 0.54117647 0.42352941 0.64313725
v 0.00455271 0.00549223 -0.01311144 0.54117647 0.42352941 0.64313725
v 0.00620842 0.00682439 -0.01299366 0.54117647 0.42352941 0.64313725
v 0.00758849 0.00731857 -0.01294770 0.54117647 0.42352941 0.64313725
v 0.00807536 0.00773636 -0.01288881 0.54117647 0.42352941 0.64313725
v 0.00878239 0.00833560 -0.01279688 0.54117647 0.42352941 0.64313725
v 0.00928358 0.00873190 -0.01273081 0.54117647 0.42352941 0.64313725
v 0.00977403 0.00787483 -0.01276241 0.54117647 0.42352941 0.64313725
v 0.01032176 0.00695569 -0.01270352 0.54117647 0.42352941 0.64313725
v 0.01081937 0.00614398 -0.01259867 0.54117647 0.42352941 0.64313725
v 0.00893812 0.00479034 -0.01282992 0.54117647 0.42352941 0.64313725
v 0.00955924 0.00521052 -0.01275236 0.54117647 0.42352941 0.64313725
v 0.01882588 0.00848123 -0.01057348 0.54117647 0.42352941 0.64313725
v 0.01972444 0.00916641 -0.01028478 0.54117647 0.42352941 0.64313725
v 0.02005380 0.00876533 -0.00988405 0.54117647 0.42352941 0.64313725
v 0.02040642 0.00835708 -0.00932389 0.54117647 0.42352941 0.64313725
v 0.02092909 0.00844542 -0.00876947 0.54117647 0.42352941 0.64313725
v 0.02097026 0.00825443 -0.00845636 0.54117647 0.42352941 0.64313725
v 0.02081632 0.00872713 -0.00915440 0.54117647 0.42352941 0.64313725
v 0.02109019 0.00827591 -0.00818346 0.54117647 0.42352941 0.64313725
v 0.02096847 0.00811357 -0.00807861 0.54117647 0.42352941 0.64313725
v 0.02101859 0.00814938 -0.00786747 0.54117647 0.42352941 0.64313725
v 0.02115283 0.00829262 -0.00780427 0.54117647 0.42352941 0.64313725
v 0.02116894 0.00830217 -0.00770660 0.54117647 0.42352941 0.64313725
v 0.02122443 0.00835231 -0.00757015 0.54117647 0.42352941 0.64313725
v 0.02124770 0.00831889 -0.00637371 0.54117647 0.42352941 0.64313725
v 0.01270778 0.00063152 -0.00124034 0.54117647 0.42352941 0.64313725
v 0.01924831 0.00794884 -0.00193839 0.54117647 0.42352941 0.64313725
v 0.01827815 0.00714668 -0.00168990 0.54117647 0.42352941 0.64313725
v 0.01973876 0.00914731 -0.00173156 0.54117647 0.42352941 0.64313725
v 0.01944879 0.00950780 -0.00144286 0.54117647 0.42352941 0.64313725
v 0.01837839 0.00910672 -0.00100479 0.54117647 0.42352941 0.64313725
v 0.01784140 0.00983965 -0.00064284 0.54117647 0.42352941 0.64313725
v 0.01758544 0.01019059 -0.00052937 0.54117647 0.42352941 0.64313725
v 0.00753837 0.00491448 0.00103765 0.54117647 0.42352941 0.64313725
v 0.01082832 0.00615114 0.00059814 0.54117647 0.42352941 0.64313725
v 0.00893812 0.00479034 0.00083082 0.54117647 0.42352941 0.64313725
v 0.00844409 0.00559966 0.00093423 0.54117647 0.42352941 0.64313725
v 0.01712183 0.01082802 -0.00041734 0.54117647 0.42352941 0.64313725
v 0.01612303 0.01028370 -0.00016598 0.54117647 0.42352941 0.64313725
v 0.01507054 0.00976325 0.00004516 0.54117647 0.42352941 0.64313725
v 0.01326267 0.00879875 0.00031662 0.54117647 0.42352941 0.64313725
v 0.01181280 0.00793690 0.00051052 0.54117647 0.42352941 0.64313725
v 0.01229788 0.00714430 0.00040998 0.54117647 0.42352941 0.64313725
v 0.01382114 0.00968447 0.00023044 0.54117647 0.42352941 0.64313725
v 0.00398529 0.00310007 0.00132634 0.54117647 0.42352941 0.64313725
v 0.00876986 0.00650686 0.00090120 0.54117647 0.42352941 0.64313725
v 0.00797870 0.00648060 0.00098594 0.54117647 0.42352941 0.64313725
v 0.00478361 0.00416007 0.00126746 0.54117647 0.42352941 0.64313725
v 0.00682238 0.00665727 0.00103190 0.54117647 0.42352941 0.64313725
v 0.00638742 0.00628484 0.00107643 0.54117647 0.42352941 0.64313725
v 0.00398529 0.00317647 0.00132491 0.54117647 0.42352941 0.64313725
v 0.02119937 0.00826159 -0.00600027 0.54117647 0.42352941 0.64313725
v 0.02122264 0.00835708 -0.00437149 0.54117647 0.42352941 0.64313725
v 0.02156273 0.00870087 -0.00537260 0.54117647 0.42352941 0.64313725
v 0.02150725 0.00869132 -0.00437149 0.54117647 0.42352941 0.64313725
v 0.02113672 0.00828069 -0.00414312 0.54117647 0.42352941 0.64313725
v 0.02104186 0.00818997 -0.00398082 0.54117647 0.42352941 0.64313725
v 0.02132646 0.00852181 -0.00398944 0.54117647 0.42352941 0.64313725
v 0.02137121 0.00867461 -0.00375388 0.54117647 0.42352941 0.64313725
v 0.02121906 0.00872952 -0.00337900 0.54117647 0.42352941 0.64313725
v 0.02081990 0.00871758 -0.00285619 0.54117647 0.42352941 0.64313725
v 0.02012002 0.00868654 -0.00220985 0.54117647 0.42352941 0.64313725
v 0.02062658 0.00909956 -0.00243104 0.54117647 0.42352941 0.64313725
v 0.01227998 0.00713236 -0.01241195 0.54117647 0.42352941 0.64313725
v 0.01122748 0.00886798 -0.01256707 0.54117647 0.42352941 0.64313725
v 0.01266303 0.00974654 -0.01236599 0.54117647 0.42352941 0.64313725
v 0.01348642 0.01023834 -0.01224534 0.54117647 0.42352941 0.64313725
v 0.01445300 0.01074685 -0.01208591 0.54117647 0.42352941 0.64313725
v 0.01546970 0.01123865 -0.01188339 0.54117647 0.42352941 0.64313725
v 0.01644881 0.01174716 -0.01164209 0.54117647 0.42352941 0.64313725
v 0.01796849 0.01142487 -0.01129881 0.54117647 0.42352941 0.64313725
v 0.01920535 0.01130550 -0.01084781 0.54117647 0.42352941 0.64313725
v 0.01952934 0.01088532 -0.01071280 0.54117647 0.42352941 0.64313725
v 0.01925726 0.00975131 -0.01071998 0.54117647 0.42352941 0.64313725
v 0.01950070 0.00944334 -0.01051028 0.54117647 0.42352941 0.64313725
v 0.01995535 0.01021924 -0.01041548 0.54117647 0.42352941 0.64313725
v 0.00398529 0.00502908 -0.01313872 0.54117647 0.42352941 0.64313725
v 0.00398529 0.00521529 -0.01309994 0.54117647 0.42352941 0.64313725
v 0.00445247 0.00600551 -0.01299079 0.54117647 0.42352941 0.64313725
v 0.00603122 0.00732812 -0.01286870 0.54117647 0.42352941 0.64313725
v 0.00762249 0.00856479 -0.01272220 0.54117647 0.42352941 0.64313725
v 0.00784624 0.00815416 -0.01282561 0.54117647 0.42352941 0.64313725
v 0.00883609 0.00954361 -0.01256420 0.54117647 0.42352941 0.64313725
v 0.01063142 0.00968924 -0.01254409 0.54117647 0.42352941 0.64313725
v 0.02033124 0.00961285 -0.01001763 0.54117647 0.42352941 0.64313725
v 0.02061942 0.00911388 -0.00958242 0.54117647 0.42352941 0.64313725
v 0.02118147 0.00847645 -0.00836731 0.54117647 0.42352941 0.64313725
v 0.02121906 0.00873429 -0.00862584 0.54117647 0.42352941 0.64313725
v 0.02106692 0.00949825 -0.00931527 0.54117647 0.42352941 0.64313725
v 0.02118505 0.00907091 -0.00894901 0.54117647 0.42352941 0.64313725
v 0.02137300 0.00867699 -0.00824809 0.54117647 0.42352941 0.64313725
v 0.02132646 0.00852420 -0.00801110 0.54117647 0.42352941 0.64313725
v 0.02111882 0.00826398 -0.00790051 0.54117647 0.42352941 0.64313725
v 0.02147324 0.00866983 -0.00779853 0.54117647 0.42352941 0.64313725
v 0.02153947 0.00873190 -0.00762904 0.54117647 0.42352941 0.64313725
v 0.02154126 0.00872952 -0.00757015 0.54117647 0.42352941 0.64313725
v 0.02156632 0.00869848 -0.00637371 0.54117647 0.42352941 0.64313725
v 0.02001800 0.00880830 -0.00207053 0.54117647 0.42352941 0.64313725
v 0.02034377 0.00959375 -0.00199728 0.54117647 0.42352941 0.64313725
v 0.01997325 0.01019298 -0.00159942 0.54117647 0.42352941 0.64313725
v 0.01927874 0.00972505 -0.00129636 0.54117647 0.42352941 0.64313725
v 0.01856992 0.01028847 -0.00087839 0.54117647 0.42352941 0.64313725
v 0.01853591 0.01068239 -0.00084536 0.54117647 0.42352941 0.64313725
v 0.01798102 0.01140815 -0.00070316 0.54117647 0.42352941 0.64313725
v 0.00905805 0.00602700 0.00085954 0.54117647 0.42352941 0.64313725
v 0.01033071 0.00696047 0.00070299 0.54117647 0.42352941 0.64313725
v 0.01773400 0.01173761 -0.00067013 0.54117647 0.42352941 0.64313725
v 0.01647566 0.01173045 -0.00036132 0.54117647 0.42352941 0.64313725
v 0.01548581 0.01121478 -0.00011571 0.54117647 0.42352941 0.64313725
v 0.01445658 0.01071581 0.00008825 0.54117647 0.42352941 0.64313725
v 0.01124538 0.00887992 0.00056366 0.54117647 0.42352941 0.64313725
v 0.00978119 0.00788200 0.00076187 0.54117647 0.42352941 0.64313725
v 0.01350074 0.01021447 0.00024480 0.54117647 0.42352941 0.64313725
v 0.01268451 0.00976086 0.00036258 0.54117647 0.42352941 0.64313725
v 0.00853538 0.00691033 0.00091987 0.54117647 0.42352941 0.64313725
v 0.00807536 0.00773636 0.00088827 0.54117647 0.42352941 0.64313725
v 0.00398529 0.00409322 0.00126171 0.54117647 0.42352941 0.64313725
v 0.00466726 0.00483570 0.00121288 0.54117647 0.42352941 0.64313725
v 0.00620842 0.00682439 0.00099312 0.54117647 0.42352941 0.64313725
v 0.00784624 0.00815416 0.00082507 0.54117647 0.42352941 0.64313725
v 0.02147145 0.00866744 -0.00420201 0.54117647 0.42352941 0.64313725
v 0.02153947 0.00873190 -0.00437149 0.54117647 0.42352941 0.64313725
v 0.02184734 0.00910433 -0.00537260 0.54117647 0.42352941 0.64313725
v 0.02166834 0.00898019 -0.00404402 0.54117647 0.42352941 0.64313725
v 0.02153768 0.00884650 -0.00389608 0.54117647 0.42352941 0.64313725
v 0.02147503 0.00898974 -0.00355423 0.54117647 0.42352941 0.64313725
v 0.02118684 0.00906136 -0.00305871 0.54117647 0.42352941 0.64313725
v 0.02107228 0.00948393 -0.00269532 0.54117647 0.42352941 0.64313725
v 0.02086465 0.00999960 -0.00232044 0.54117647 0.42352941 0.64313725
v 0.01213320 0.01063464 -0.01233152 0.54117647 0.42352941 0.64313725
v 0.01295480 0.01111928 -0.01221231 0.54117647 0.42352941 0.64313725
v 0.01387842 0.01164928 -0.01204857 0.54117647 0.42352941 0.64313725
v 0.01483784 0.01219360 -0.01184174 0.54117647 0.42352941 0.64313725
v 0.01578652 0.01271883 -0.01160044 0.54117647 0.42352941 0.64313725
v 0.01580263 0.01272838 -0.01159613 0.54117647 0.42352941 0.64313725
v 0.01668687 0.01321301 -0.01132323 0.54117647 0.42352941 0.64313725
v 0.01732589 0.01229149 -0.01135483 0.54117647 0.42352941 0.64313725
v 0.01789331 0.01263527 -0.01110922 0.54117647 0.42352941 0.64313725
v 0.01863256 0.01188802 -0.01099862 0.54117647 0.42352941 0.64313725
v 0.01983005 0.01175671 -0.01041692 0.54117647 0.42352941 0.64313725
v 0.02017909 0.01129595 -0.01028478 0.54117647 0.42352941 0.64313725
v 0.02054783 0.01063464 -0.01003773 0.54117647 0.42352941 0.64313725
v 0.02085570 0.01001870 -0.00969158 0.54117647 0.42352941 0.64313725
v 0.00398529 0.00566889 -0.01299940 0.54117647 0.42352941 0.64313725
v 0.00432180 0.00660475 -0.01278539 0.54117647 0.42352941 0.64313725
v 0.00585938 0.00778889 -0.01270209 0.54117647 0.42352941 0.64313725
v 0.00752405 0.00874145 -0.01266331 0.54117647 0.42352941 0.64313725
v 0.00862487 0.00992798 -0.01242344 0.54117647 0.42352941 0.64313725
v 0.01001568 0.01091397 -0.01223098 0.54117647 0.42352941 0.64313725
v 0.01023763 0.01054392 -0.01236599 0.54117647 0.42352941 0.64313725
v 0.02147503 0.00899690 -0.00845061 0.54117647 0.42352941 0.64313725
v 0.02144460 0.00983965 -0.00900215 0.54117647 0.42352941 0.64313725
v 0.02150367 0.00938127 -0.00870771 0.54117647 0.42352941 0.64313725
v 0.02153947 0.00885127 -0.00810590 0.54117647 0.42352941 0.64313725
v 0.02167013 0.00898496 -0.00795652 0.54117647 0.42352941 0.64313725
v 0.02175784 0.00907091 -0.00782007 0.54117647 0.42352941 0.64313725
v 0.02182049 0.00913298 -0.00762904 0.54117647 0.42352941 0.64313725
v 0.02182228 0.00913059 -0.00757015 0.54117647 0.42352941 0.64313725
v 0.02185092 0.00910195 -0.00637371 0.54117647 0.42352941 0.64313725
v 0.02056215 0.01060600 -0.00197573 0.54117647 0.42352941 0.64313725
v 0.01981394 0.01106437 -0.00145148 0.54117647 0.42352941 0.64313725
v 0.01952934 0.01088532 -0.00128630 0.54117647 0.42352941 0.64313725
v 0.01952576 0.01088054 -0.00128487 0.54117647 0.42352941 0.64313725
v 0.01875249 0.01040068 -0.00094590 0.54117647 0.42352941 0.64313725
v 0.01921251 0.01129595 -0.00115560 0.54117647 0.42352941 0.64313725
v 0.01863972 0.01188086 -0.00100191 0.54117647 0.42352941 0.64313725
v 0.01789689 0.01263049 -0.00089132 0.54117647 0.42352941 0.64313725
v 0.01734200 0.01227000 -0.00064571 0.54117647 0.42352941 0.64313725
v 0.01668687 0.01321301 -0.00067731 0.54117647 0.42352941 0.64313725
v 0.01580263 0.01272838 -0.00040441 0.54117647 0.42352941 0.64313725
v 0.01579726 0.01272599 -0.00040297 0.54117647 0.42352941 0.64313725
v 0.01483784 0.01219360 -0.00015880 0.54117647 0.42352941 0.64313725
v 0.01386768 0.01164451 0.00005090 0.54117647 0.42352941 0.64313725
v 0.01295480 0.01111928 0.00021177 0.54117647 0.42352941 0.64313725
v 0.01349716 0.01022163 0.00024480 0.54117647 0.42352941 0.64313725
v 0.01188082 0.01048185 0.00036833 0.54117647 0.42352941 0.64313725
v 0.01073345 0.00975609 0.00053063 0.54117647 0.42352941 0.64313725
v 0.00986174 0.00915924 0.00065128 0.54117647 0.42352941 0.64313725
v 0.00929074 0.00873668 0.00072884 0.54117647 0.42352941 0.64313725
v 0.00398529 0.00428421 0.00124591 0.54117647 0.42352941 0.64313725
v 0.00455271 0.00549223 0.00111090 0.54117647 0.42352941 0.64313725
v 0.00764039 0.00852898 0.00073315 0.54117647 0.42352941 0.64313725
v 0.00603122 0.00732812 0.00086960 0.54117647 0.42352941 0.64313725
v 0.00886115 0.00951735 0.00057372 0.54117647 0.42352941 0.64313725
v 0.02175426 0.00906614 -0.00418047 0.54117647 0.42352941 0.64313725
v 0.02182049 0.00913298 -0.00437149 0.54117647 0.42352941 0.64313725
v 0.02179543 0.00910433 -0.00429106 0.54117647 0.42352941 0.64313725
v 0.02213373 0.00970118 -0.00537260 0.54117647 0.42352941 0.64313725
v 0.02202813 0.00955316 -0.00427239 0.54117647 0.42352941 0.64313725
v 0.02186345 0.00939082 -0.00395353 0.54117647 0.42352941 0.64313725
v 0.02169340 0.00921415 -0.00375244 0.54117647 0.42352941 0.64313725
v 0.02150546 0.00937172 -0.00329857 0.54117647 0.42352941 0.64313725
v 0.02144818 0.00982532 -0.00300700 0.54117647 0.42352941 0.64313725
v 0.02129424 0.01035771 -0.00270394 0.54117647 0.42352941 0.64313725
v 0.01163559 0.01139144 -0.01217353 0.54117647 0.42352941 0.64313725
v 0.01251805 0.01184027 -0.01206293 0.54117647 0.42352941 0.64313725
v 0.01353296 0.01230342 -0.01191930 0.54117647 0.42352941 0.64313725
v 0.01388379 0.01165405 -0.01204713 0.54117647 0.42352941 0.64313725
v 0.01455861 0.01275941 -0.01173689 0.54117647 0.42352941 0.64313725
v 0.01555383 0.01318437 -0.01152719 0.54117647 0.42352941 0.64313725
v 0.01646134 0.01355441 -0.01127870 0.54117647 0.42352941 0.64313725
v 0.01715405 0.01346608 -0.01113220 0.54117647 0.42352941 0.64313725
v 0.01844104 0.01299576 -0.01073147 0.54117647 0.42352941 0.64313725
v 0.01921251 0.01231775 -0.01058928 0.54117647 0.42352941 0.64313725
v 0.02031871 0.01213392 -0.00989410 0.54117647 0.42352941 0.64313725
v 0.02069281 0.01163018 -0.00977489 0.54117647 0.42352941 0.64313725
v 0.02102396 0.01098798 -0.00958673 0.54117647 0.42352941 0.64313725
v 0.02128529 0.01037919 -0.00930809 0.54117647 0.42352941 0.64313725
v 0.00398529 0.00602223 -0.01289312 0.54117647 0.42352941 0.64313725
v 0.00398529 0.00632065 -0.01279976 0.54117647 0.42352941 0.64313725
v 0.00398529 0.00665249 -0.01266762 0.54117647 0.42352941 0.64313725
v 0.00422156 0.00701776 -0.01259149 0.54117647 0.42352941 0.64313725
v 0.00569291 0.00821145 -0.01249095 0.54117647 0.42352941 0.64313725
v 0.00719827 0.00933591 -0.01238466 0.54117647 0.42352941 0.64313725
v 0.00842440 0.01029325 -0.01223960 0.54117647 0.42352941 0.64313725
v 0.00980804 0.01126014 -0.01205718 0.54117647 0.42352941 0.64313725
v 0.01118989 0.01206230 -0.01188626 0.54117647 0.42352941 0.64313725
v 0.01140648 0.01174000 -0.01204713 0.54117647 0.42352941 0.64313725
v 0.02169519 0.00922132 -0.00825097 0.54117647 0.42352941 0.64313725
v 0.02175426 0.01013568 -0.00865888 0.54117647 0.42352941 0.64313725
v 0.02177216 0.00964866 -0.00844056 0.54117647 0.42352941 0.64313725
v 0.02186524 0.00939798 -0.00804845 0.54117647 0.42352941 0.64313725
v 0.02197801 0.00951258 -0.00786891 0.54117647 0.42352941 0.64313725
v 0.02203171 0.00956271 -0.00772815 0.54117647 0.42352941 0.64313725
v 0.02213731 0.00969879 -0.00637371 0.54117647 0.42352941 0.64313725
v 0.02103828 0.01096171 -0.00242386 0.54117647 0.42352941 0.64313725
v 0.02049055 0.01149888 -0.00200158 0.54117647 0.42352941 0.64313725
v 0.02017193 0.01129117 -0.00171001 0.54117647 0.42352941 0.64313725
v 0.01983721 0.01174716 -0.00158649 0.54117647 0.42352941 0.64313725
v 0.01921967 0.01231058 -0.00141270 0.54117647 0.42352941 0.64313725
v 0.01844462 0.01299099 -0.00126907 0.54117647 0.42352941 0.64313725
v 0.01734021 0.01356396 -0.00097319 0.54117647 0.42352941 0.64313725
v 0.01715405 0.01346608 -0.00086834 0.54117647 0.42352941 0.64313725
v 0.01715226 0.01346369 -0.00086690 0.54117647 0.42352941 0.64313725
v 0.01649893 0.01349950 -0.00070891 0.54117647 0.42352941 0.64313725
v 0.01556457 0.01316527 -0.00046761 0.54117647 0.42352941 0.64313725
v 0.01457114 0.01273554 -0.00025647 0.54117647 0.42352941 0.64313725
v 0.01269167 0.01155378 0.00013852 0.54117647 0.42352941 0.64313725
v 0.01027343 0.01052244 0.00037263 0.54117647 0.42352941 0.64313725
v 0.00398529 0.00502908 0.00113819 0.54117647 0.42352941 0.64313725
v 0.00442204 0.00614637 0.00094859 0.54117647 0.42352941 0.64313725
v 0.00752405 0.00874145 0.00066421 0.54117647 0.42352941 0.64313725
v 0.00585938 0.00778889 0.00070155 0.54117647 0.42352941 0.64313725
v 0.00864814 0.00990411 0.00043440 0.54117647 0.42352941 0.64313725
v 0.01004969 0.01089726 0.00024049 0.54117647 0.42352941 0.64313725
v 0.02197443 0.00950303 -0.00413307 0.54117647 0.42352941 0.64313725
v 0.02210152 0.00972028 -0.00437149 0.54117647 0.42352941 0.64313725
v 0.02222323 0.01002586 -0.00537260 0.54117647 0.42352941 0.64313725
v 0.02217311 0.01004257 -0.00424510 0.54117647 0.42352941 0.64313725
v 0.02210868 0.00998289 -0.00406269 0.54117647 0.42352941 0.64313725
v 0.02197622 0.00984681 -0.00383001 0.54117647 0.42352941 0.64313725
v 0.02177037 0.00963911 -0.00356572 0.54117647 0.42352941 0.64313725
v 0.02175605 0.01012136 -0.00334741 0.54117647 0.42352941 0.64313725
v 0.02163791 0.01066091 -0.00312191 0.54117647 0.42352941 0.64313725
v 0.01241781 0.01200500 -0.01200835 0.54117647 0.42352941 0.64313725
v 0.01320539 0.01290982 -0.01166938 0.54117647 0.42352941 0.64313725
v 0.01427579 0.01330373 -0.01151857 0.54117647 0.42352941 0.64313725
v 0.01529428 0.01365707 -0.01134621 0.54117647 0.42352941 0.64313725
v 0.01636289 0.01370720 -0.01123418 0.54117647 0.42352941 0.64313725
v 0.01690883 0.01375972 -0.01109629 0.54117647 0.42352941 0.64313725
v 0.01766777 0.01373824 -0.01078892 0.54117647 0.42352941 0.64313725
v 0.01969222 0.01269734 -0.01006359 0.54117647 0.42352941 0.64313725
v 0.01893686 0.01333000 -0.01020865 0.54117647 0.42352941 0.64313725
v 0.02108840 0.01189041 -0.00921904 0.54117647 0.42352941 0.64313725
v 0.02007169 0.01302441 -0.00945603 0.54117647 0.42352941 0.64313725
v 0.02068565 0.01244189 -0.00931240 0.54117647 0.42352941 0.64313725
v 0.02139806 0.01127924 -0.00909121 0.54117647 0.42352941 0.64313725
v 0.02163075 0.01068239 -0.00888581 0.54117647 0.42352941 0.64313725
v 0.00398529 0.00683155 -0.01259436 0.54117647 0.42352941 0.64313725
v 0.00398529 0.00687452 -0.01257426 0.54117647 0.42352941 0.64313725
v 0.00420903 0.00706551 -0.01256420 0.54117647 0.42352941 0.64313725
v 0.00553719 0.00859105 -0.01224247 0.54117647 0.42352941 0.64313725
v 0.00709803 0.00951974 -0.01226976 0.54117647 0.42352941 0.64313725
v 0.00823824 0.01063226 -0.01201410 0.54117647 0.42352941 0.64313725
v 0.00961472 0.01158005 -0.01184317 0.54117647 0.42352941 0.64313725
v 0.01098763 0.01236072 -0.01168662 0.54117647 0.42352941 0.64313725
v 0.01199538 0.01269973 -0.01166076 0.54117647 0.42352941 0.64313725
v 0.01212425 0.01248964 -0.01179147 0.54117647 0.42352941 0.64313725
v 0.02197801 0.00985875 -0.00817340 0.54117647 0.42352941 0.64313725
v 0.02198875 0.01036487 -0.00831991 0.54117647 0.42352941 0.64313725
v 0.02211225 0.00999483 -0.00793929 0.54117647 0.42352941 0.64313725
v 0.02217669 0.01005451 -0.00775544 0.54117647 0.42352941 0.64313725
v 0.02210152 0.00972028 -0.00762904 0.54117647 0.42352941 0.64313725
v 0.02210509 0.00972028 -0.00757015 0.54117647 0.42352941 0.64313725
v 0.02222681 0.01002347 -0.00637371 0.54117647 0.42352941 0.64313725
v 0.02141059 0.01125536 -0.00291651 0.54117647 0.42352941 0.64313725
v 0.02068386 0.01162302 -0.00221559 0.54117647 0.42352941 0.64313725
v 0.02032766 0.01212437 -0.00210931 0.54117647 0.42352941 0.64313725
v 0.01969938 0.01269018 -0.00193839 0.54117647 0.42352941 0.64313725
v 0.01894223 0.01332761 -0.00179188 0.54117647 0.42352941 0.64313725
v 0.01796312 0.01389342 -0.00148882 0.54117647 0.42352941 0.64313725
v 0.01766598 0.01373824 -0.00120874 0.54117647 0.42352941 0.64313725
v 0.01740465 0.01400324 -0.00123890 0.54117647 0.42352941 0.64313725
v 0.01691062 0.01375972 -0.00090281 0.54117647 0.42352941 0.64313725
v 0.01621969 0.01392445 -0.00086403 0.54117647 0.42352941 0.64313725
v 0.01530323 0.01364035 -0.00064571 0.54117647 0.42352941 0.64313725
v 0.01428474 0.01328463 -0.00047048 0.54117647 0.42352941 0.64313725
v 0.01321613 0.01288833 -0.00031967 0.54117647 0.42352941 0.64313725
v 0.01253595 0.01181162 0.00007245 0.54117647 0.42352941 0.64313725
v 0.01167855 0.01137234 0.00017873 0.54117647 0.42352941 0.64313725
v 0.01144586 0.01172568 0.00005521 0.54117647 0.42352941 0.64313725
v 0.00398529 0.00574052 0.00098019 0.54117647 0.42352941 0.64313725
v 0.00432180 0.00660475 0.00078629 0.54117647 0.42352941 0.64313725
v 0.00742202 0.00893005 0.00058952 0.54117647 0.42352941 0.64313725
v 0.00569291 0.00821145 0.00049185 0.54117647 0.42352941 0.64313725
v 0.00740412 0.00895870 0.00057659 0.54117647 0.42352941 0.64313725
v 0.00984026 0.01124820 0.00006814 0.54117647 0.42352941 0.64313725
v 0.00844588 0.01027415 0.00025342 0.54117647 0.42352941 0.64313725
v 0.01122748 0.01205275 -0.00010278 0.54117647 0.42352941 0.64313725
v 0.02218743 0.01004257 -0.00437149 0.54117647 0.42352941 0.64313725
v 0.02227156 0.01036726 -0.00637371 0.54117647 0.42352941 0.64313725
v 0.02226619 0.01036726 -0.00537260 0.54117647 0.42352941 0.64313725
v 0.02223039 0.01037919 -0.00437149 0.54117647 0.42352941 0.64313725
v 0.02221249 0.01056780 -0.00421063 0.54117647 0.42352941 0.64313725
v 0.02214089 0.01049856 -0.00398082 0.54117647 0.42352941 0.64313725
v 0.02198875 0.01035055 -0.00368494 0.54117647 0.42352941 0.64313725
v 0.02189209 0.01089726 -0.00353413 0.54117647 0.42352941 0.64313725
v 0.01305683 0.01319391 -0.01148984 0.54117647 0.42352941 0.64313725
v 0.01401446 0.01381941 -0.01114944 0.54117647 0.42352941 0.64313725
v 0.01503832 0.01412499 -0.01100724 0.54117647 0.42352941 0.64313725
v 0.01602817 0.01421571 -0.01093686 0.54117647 0.42352941 0.64313725
v 0.01620895 0.01393878 -0.01112789 0.54117647 0.42352941 0.64313725
v 0.01662959 0.01411067 -0.01094261 0.54117647 0.42352941 0.64313725
v 0.01739928 0.01400324 -0.01076451 0.54117647 0.42352941 0.64313725
v 0.01816717 0.01400085 -0.01027903 0.54117647 0.42352941 0.64313725
v 0.01935929 0.01362364 -0.00958386 0.54117647 0.42352941 0.64313725
v 0.02137300 0.01207901 -0.00867468 0.54117647 0.42352941 0.64313725
v 0.02167013 0.01150126 -0.00860430 0.54117647 0.42352941 0.64313725
v 0.02034556 0.01328463 -0.00884129 0.54117647 0.42352941 0.64313725
v 0.02093983 0.01267585 -0.00873644 0.54117647 0.42352941 0.64313725
v 0.02188672 0.01091635 -0.00847072 0.54117647 0.42352941 0.64313725
v 0.00398529 0.00728754 -0.01235594 0.54117647 0.42352941 0.64313725
v 0.00410163 0.00746898 -0.01230854 0.54117647 0.42352941 0.64313725
v 0.00539220 0.00893005 -0.01195664 0.54117647 0.42352941 0.64313725
v 0.00682775 0.01001393 -0.01186903 0.54117647 0.42352941 0.64313725
v 0.00806641 0.01094262 -0.01174694 0.54117647 0.42352941 0.64313725
v 0.00943752 0.01186892 -0.01159182 0.54117647 0.42352941 0.64313725
v 0.01079968 0.01263049 -0.01144963 0.54117647 0.42352941 0.64313725
v 0.01177879 0.01305067 -0.01137207 0.54117647 0.42352941 0.64313725
v 0.01194526 0.01278329 -0.01160044 0.54117647 0.42352941 0.64313725
v 0.02213910 0.01051527 -0.00802116 0.54117647 0.42352941 0.64313725
v 0.02219101 0.01006167 -0.00762904 0.54117647 0.42352941 0.64313725
v 0.02218743 0.01004257 -0.00762904 0.54117647 0.42352941 0.64313725
v 0.02221249 0.01058212 -0.00778991 0.54117647 0.42352941 0.64313725
v 0.02223039 0.01037919 -0.00762904 0.54117647 0.42352941 0.64313725
v 0.02219101 0.01004019 -0.00757015 0.54117647 0.42352941 0.64313725
v 0.02168266 0.01147500 -0.00340055 0.54117647 0.42352941 0.64313725
v 0.02102217 0.01184505 -0.00267665 0.54117647 0.42352941 0.64313725
v 0.02069460 0.01243234 -0.00268958 0.54117647 0.42352941 0.64313725
v 0.02008064 0.01301725 -0.00254451 0.54117647 0.42352941 0.64313725
v 0.01936287 0.01362126 -0.00241668 0.54117647 0.42352941 0.64313725
v 0.01816538 0.01400085 -0.00172007 0.54117647 0.42352941 0.64313725
v 0.01788615 0.01424197 -0.00174018 0.54117647 0.42352941 0.64313725
v 0.01710035 0.01431360 -0.00138253 0.54117647 0.42352941 0.64313725
v 0.01663317 0.01410828 -0.00105506 0.54117647 0.42352941 0.64313725
v 0.01615346 0.01402472 -0.00092292 0.54117647 0.42352941 0.64313725
v 0.01504727 0.01411067 -0.00098037 0.54117647 0.42352941 0.64313725
v 0.01402162 0.01380508 -0.00083817 0.54117647 0.42352941 0.64313725
v 0.01306757 0.01317482 -0.00049777 0.54117647 0.42352941 0.64313725
v 0.01213678 0.01246815 -0.00019614 0.54117647 0.42352941 0.64313725
v 0.01222091 0.01232968 -0.00012576 0.54117647 0.42352941 0.64313725
v 0.00398529 0.00603894 0.00088827 0.54117647 0.42352941 0.64313725
v 0.00418755 0.00715384 0.00051339 0.54117647 0.42352941 0.64313725
v 0.00398529 0.00695569 0.00053637 0.54117647 0.42352941 0.64313725
v 0.00398529 0.00651880 0.00071879 0.54117647 0.42352941 0.64313725
v 0.00398529 0.00632065 0.00080066 0.54117647 0.42352941 0.64313725
v 0.00553719 0.00859105 0.00024193 0.54117647 0.42352941 0.64313725
v 0.00707835 0.00955316 0.00024624 0.54117647 0.42352941 0.64313725
v 0.01102343 0.01235356 -0.00030099 0.54117647 0.42352941 0.64313725
v 0.00964515 0.01157050 -0.00014300 0.54117647 0.42352941 0.64313725
v 0.00825793 0.01061554 0.00002936 0.54117647 0.42352941 0.64313725
v 0.02223218 0.01037681 -0.00757015 0.54117647 0.42352941 0.64313725
v 0.02226619 0.01071343 -0.00637371 0.54117647 0.42352941 0.64313725
v 0.02226261 0.01071343 -0.00537260 0.54117647 0.42352941 0.64313725
v 0.02223218 0.01057735 -0.00437149 0.54117647 0.42352941 0.64313725
v 0.02222323 0.01072059 -0.00437149 0.54117647 0.42352941 0.64313725
v 0.02213552 0.01111928 -0.00417616 0.54117647 0.42352941 0.64313725
v 0.02205497 0.01104766 -0.00389751 0.54117647 0.42352941 0.64313725
v 0.01291900 0.01345891 -0.01127152 0.54117647 0.42352941 0.64313725
v 0.01379787 0.01427540 -0.01063524 0.54117647 0.42352941 0.64313725
v 0.01481457 0.01454995 -0.01052033 0.54117647 0.42352941 0.64313725
v 0.01594583 0.01434463 -0.01082483 0.54117647 0.42352941 0.64313725
v 0.01633425 0.01448310 -0.01064242 0.54117647 0.42352941 0.64313725
v 0.01709319 0.01431598 -0.01061800 0.54117647 0.42352941 0.64313725
v 0.01787720 0.01423959 -0.01026754 0.54117647 0.42352941 0.64313725
v 0.01860750 0.01423004 -0.00964562 0.54117647 0.42352941 0.64313725
v 0.01967969 0.01385761 -0.00893608 0.54117647 0.42352941 0.64313725
v 0.02154842 0.01219360 -0.00820644 0.54117647 0.42352941 0.64313725
v 0.02184376 0.01164212 -0.00817771 0.54117647 0.42352941 0.64313725
v 0.02205140 0.01106915 -0.00810590 0.54117647 0.42352941 0.64313725
v 0.02051561 0.01345653 -0.00829693 0.54117647 0.42352941 0.64313725
v 0.02109197 0.01282626 -0.00823660 0.54117647 0.42352941 0.64313725
v 0.00398529 0.00736632 -0.01231285 0.54117647 0.42352941 0.64313725
v 0.00398529 0.00779844 -0.01202271 0.54117647 0.42352941 0.64313725
v 0.00399961 0.00781754 -0.01201697 0.54117647 0.42352941 0.64313725
v 0.00525795 0.00922609 -0.01163922 0.54117647 0.42352941 0.64313725
v 0.00671498 0.01021924 -0.01165645 0.54117647 0.42352941 0.64313725
v 0.00791247 0.01122433 -0.01144388 0.54117647 0.42352941 0.64313725
v 0.00927642 0.01212437 -0.01130312 0.54117647 0.42352941 0.64313725
v 0.01062963 0.01286684 -0.01117673 0.54117647 0.42352941 0.64313725
v 0.01162843 0.01329418 -0.01110778 0.54117647 0.42352941 0.64313725
v 0.02213015 0.01113838 -0.00782438 0.54117647 0.42352941 0.64313725
v 0.02222323 0.01072059 -0.00762904 0.54117647 0.42352941 0.64313725
v 0.02222681 0.01072059 -0.00757015 0.54117647 0.42352941 0.64313725
v 0.02185450 0.01161824 -0.00382426 0.54117647 0.42352941 0.64313725
v 0.02126202 0.01200500 -0.00309462 0.54117647 0.42352941 0.64313725
v 0.02095057 0.01266630 -0.00326410 0.54117647 0.42352941 0.64313725
v 0.02035451 0.01327747 -0.00316069 0.54117647 0.42352941 0.64313725
v 0.01968327 0.01385283 -0.00306445 0.54117647 0.42352941 0.64313725
v 0.01876860 0.01431360 -0.00264361 0.54117647 0.42352941 0.64313725
v 0.01854844 0.01419900 -0.00225868 0.54117647 0.42352941 0.64313725
v 0.01831395 0.01444968 -0.00236210 0.54117647 0.42352941 0.64313725
v 0.01755859 0.01451414 -0.00185939 0.54117647 0.42352941 0.64313725
v 0.01677279 0.01463828 -0.00165543 0.54117647 0.42352941 0.64313725
v 0.01634141 0.01447594 -0.00135237 0.54117647 0.42352941 0.64313725
v 0.01595299 0.01433270 -0.00116422 0.54117647 0.42352941 0.64313725
v 0.01380145 0.01426585 -0.00135094 0.54117647 0.42352941 0.64313725
v 0.01578652 0.01458814 -0.00144142 0.54117647 0.42352941 0.64313725
v 0.01481815 0.01454040 -0.00146584 0.54117647 0.42352941 0.64313725
v 0.01279907 0.01369288 -0.00096744 0.54117647 0.42352941 0.64313725
v 0.01292616 0.01344220 -0.00071465 0.54117647 0.42352941 0.64313725
v 0.01181101 0.01300054 -0.00058107 0.54117647 0.42352941 0.64313725
v 0.00410163 0.00746898 0.00030800 0.54117647 0.42352941 0.64313725
v 0.00398529 0.00736632 0.00031375 0.54117647 0.42352941 0.64313725
v 0.00700496 0.00968924 0.00014857 0.54117647 0.42352941 0.64313725
v 0.00683670 0.00999483 -0.00011284 0.54117647 0.42352941 0.64313725
v 0.00539220 0.00893005 -0.00004389 0.54117647 0.42352941 0.64313725
v 0.01083369 0.01262572 -0.00053799 0.54117647 0.42352941 0.64313725
v 0.00946437 0.01186176 -0.00039435 0.54117647 0.42352941 0.64313725
v 0.00808431 0.01093068 -0.00023636 0.54117647 0.42352941 0.64313725
v 0.02221428 0.01106915 -0.00637371 0.54117647 0.42352941 0.64313725
v 0.02220891 0.01106915 -0.00537260 0.54117647 0.42352941 0.64313725
v 0.02216953 0.01107153 -0.00437149 0.54117647 0.42352941 0.64313725
v 0.02193684 0.01168270 -0.00414887 0.54117647 0.42352941 0.64313725
v 0.01268272 0.01392923 -0.01073291 0.54117647 0.42352941 0.64313725
v 0.01364035 0.01464783 -0.01001763 0.54117647 0.42352941 0.64313725
v 0.01464273 0.01490328 -0.00993001 0.54117647 0.42352941 0.64313725
v 0.01569523 0.01472900 -0.01037527 0.54117647 0.42352941 0.64313725
v 0.01676384 0.01464305 -0.01034080 0.54117647 0.42352941 0.64313725
v 0.01604428 0.01483404 -0.01020865 0.54117647 0.42352941 0.64313725
v 0.01754785 0.01451414 -0.01014689 0.54117647 0.42352941 0.64313725
v 0.01830321 0.01444729 -0.00965137 0.54117647 0.42352941 0.64313725
v 0.01894939 0.01440670 -0.00897917 0.54117647 0.42352941 0.64313725
v 0.01988554 0.01401040 -0.00835438 0.54117647 0.42352941 0.64313725
v 0.02163254 0.01224851 -0.00785454 0.54117647 0.42352941 0.64313725
v 0.02192610 0.01170658 -0.00785311 0.54117647 0.42352941 0.64313725
v 0.02059436 0.01354008 -0.00788614 0.54117647 0.42352941 0.64313725
v 0.02116178 0.01289549 -0.00786316 0.54117647 0.42352941 0.64313725
v 0.00398529 0.00780560 -0.01201697 0.54117647 0.42352941 0.64313725
v 0.00398529 0.00786290 -0.01196957 0.54117647 0.42352941 0.64313725
v 0.00513623 0.00948631 -0.01129307 0.54117647 0.42352941 0.64313725
v 0.00652525 0.01056541 -0.01120689 0.54117647 0.42352941 0.64313725
v 0.00398529 0.00817803 -0.01169811 0.54117647 0.42352941 0.64313725
v 0.00777643 0.01147023 -0.01110922 0.54117647 0.42352941 0.64313725
v 0.00913322 0.01234878 -0.01098426 0.54117647 0.42352941 0.64313725
v 0.01047570 0.01307455 -0.01087367 0.54117647 0.42352941 0.64313725
v 0.01149419 0.01350666 -0.01081190 0.54117647 0.42352941 0.64313725
v 0.02216953 0.01107153 -0.00762904 0.54117647 0.42352941 0.64313725
v 0.02192610 0.01176865 -0.00762904 0.54117647 0.42352941 0.64313725
v 0.02217311 0.01107153 -0.00757015 0.54117647 0.42352941 0.64313725
v 0.02156452 0.01220554 -0.00384724 0.54117647 0.42352941 0.64313725
v 0.02154484 0.01219122 -0.00377830 0.54117647 0.42352941 0.64313725
v 0.02110271 0.01281432 -0.00376394 0.54117647 0.42352941 0.64313725
v 0.02052277 0.01344936 -0.00370361 0.54117647 0.42352941 0.64313725
v 0.01988912 0.01400801 -0.00364616 0.54117647 0.42352941 0.64313725
v 0.01894939 0.01440670 -0.00301993 0.54117647 0.42352941 0.64313725
v 0.01865046 0.01460963 -0.00302136 0.54117647 0.42352941 0.64313725
v 0.01796670 0.01469080 -0.00244540 0.54117647 0.42352941 0.64313725
v 0.01719880 0.01479823 -0.00208776 0.54117647 0.42352941 0.64313725
v 0.01644165 0.01494864 -0.00204324 0.54117647 0.42352941 0.64313725
v 0.01605144 0.01482688 -0.00178039 0.54117647 0.42352941 0.64313725
v 0.01268809 0.01391729 -0.00125327 0.54117647 0.42352941 0.64313725
v 0.01464452 0.01489850 -0.00205904 0.54117647 0.42352941 0.64313725
v 0.01364214 0.01464067 -0.00196999 0.54117647 0.42352941 0.64313725
v 0.01570060 0.01471945 -0.00161234 0.54117647 0.42352941 0.64313725
v 0.01163738 0.01327986 -0.00087695 0.54117647 0.42352941 0.64313725
v 0.01178953 0.01303635 -0.00061411 0.54117647 0.42352941 0.64313725
v 0.00398529 0.00742123 0.00027640 0.54117647 0.42352941 0.64313725
v 0.00398529 0.00789632 -0.00005251 0.54117647 0.42352941 0.64313725
v 0.00668992 0.01026460 -0.00039579 0.54117647 0.42352941 0.64313725
v 0.00525795 0.00922609 -0.00036132 0.54117647 0.42352941 0.64313725
v 0.01066006 0.01286684 -0.00080945 0.54117647 0.42352941 0.64313725
v 0.00930148 0.01212198 -0.00068162 0.54117647 0.42352941 0.64313725
v 0.00792858 0.01121478 -0.00053942 0.54117647 0.42352941 0.64313725
v 0.02196906 0.01177820 -0.00637371 0.54117647 0.42352941 0.64313725
v 0.02196548 0.01177820 -0.00537260 0.54117647 0.42352941 0.64313725
v 0.02192610 0.01176865 -0.00437149 0.54117647 0.42352941 0.64313725
v 0.02165402 0.01225806 -0.00437149 0.54117647 0.42352941 0.64313725
v 0.01251447 0.01429927 -0.01009375 0.54117647 0.42352941 0.64313725
v 0.01354728 0.01491044 -0.00935549 0.54117647 0.42352941 0.64313725
v 0.01453534 0.01515395 -0.00929373 0.54117647 0.42352941 0.64313725
v 0.01548939 0.01505607 -0.00982085 0.54117647 0.42352941 0.64313725
v 0.01542853 0.01515873 -0.00959248 0.54117647 0.42352941 0.64313725
v 0.01643091 0.01495341 -0.00995012 0.54117647 0.42352941 0.64313725
v 0.01718627 0.01480062 -0.00991565 0.54117647 0.42352941 0.64313725
v 0.01578831 0.01513247 -0.00968297 0.54117647 0.42352941 0.64313725
v 0.01795417 0.01469080 -0.00956662 0.54117647 0.42352941 0.64313725
v 0.01864151 0.01460724 -0.00899641 0.54117647 0.42352941 0.64313725
v 0.01917134 0.01452369 -0.00837449 0.54117647 0.42352941 0.64313725
v 0.01998220 0.01408680 -0.00790769 0.54117647 0.42352941 0.64313725
v 0.02162717 0.01230104 -0.00762904 0.54117647 0.42352941 0.64313725
v 0.02165402 0.01225806 -0.00762904 0.54117647 0.42352941 0.64313725
v 0.02073398 0.01343504 -0.00762904 0.54117647 0.42352941 0.64313725
v 0.02089329 0.01325837 -0.00762904 0.54117647 0.42352941 0.64313725
v 0.02016477 0.01397936 -0.00762904 0.54117647 0.42352941 0.64313725
v 0.02118147 0.01291220 -0.00762904 0.54117647 0.42352941 0.64313725
v 0.00446500 0.00892767 -0.01132898 0.54117647 0.42352941 0.64313725
v 0.00493397 0.00988739 -0.01053613 0.54117647 0.42352941 0.64313725
v 0.00641248 0.01077072 -0.01086648 0.54117647 0.42352941 0.64313725
v 0.00398529 0.00850749 -0.01135052 0.54117647 0.42352941 0.64313725
v 0.00756164 0.01185937 -0.01037239 0.54117647 0.42352941 0.64313725
v 0.00890411 0.01269495 -0.01028047 0.54117647 0.42352941 0.64313725
v 0.01022331 0.01338968 -0.01019716 0.54117647 0.42352941 0.64313725
v 0.01132951 0.01376689 -0.01033936 0.54117647 0.42352941 0.64313725
v 0.02192968 0.01177104 -0.00757015 0.54117647 0.42352941 0.64313725
v 0.02162717 0.01230104 -0.00437149 0.54117647 0.42352941 0.64313725
v 0.02117252 0.01288356 -0.00413738 0.54117647 0.42352941 0.64313725
v 0.02060152 0.01353292 -0.00411439 0.54117647 0.42352941 0.64313725
v 0.01998578 0.01408441 -0.00409285 0.54117647 0.42352941 0.64313725
v 0.01915881 0.01451652 -0.00358009 0.54117647 0.42352941 0.64313725
v 0.01887779 0.01471229 -0.00362174 0.54117647 0.42352941 0.64313725
v 0.01829784 0.01482688 -0.00306589 0.54117647 0.42352941 0.64313725
v 0.01758364 0.01493670 -0.00261202 0.54117647 0.42352941 0.64313725
v 0.01682649 0.01506323 -0.00240950 0.54117647 0.42352941 0.64313725
v 0.01613019 0.01520648 -0.00250716 0.54117647 0.42352941 0.64313725
v 0.01579547 0.01512292 -0.00230034 0.54117647 0.42352941 0.64313725
v 0.01548402 0.01506562 -0.00219836 0.54117647 0.42352941 0.64313725
v 0.01149419 0.01350666 -0.00118863 0.54117647 0.42352941 0.64313725
v 0.01251626 0.01429211 -0.00189530 0.54117647 0.42352941 0.64313725
v 0.01535335 0.01529003 -0.00277288 0.54117647 0.42352941 0.64313725
v 0.01453534 0.01515157 -0.00269819 0.54117647 0.42352941 0.64313725
v 0.01354728 0.01490805 -0.00263643 0.54117647 0.42352941 0.64313725
v 0.00398529 0.00850749 -0.00065002 0.54117647 0.42352941 0.64313725
v 0.00446500 0.00892767 -0.00067013 0.54117647 0.42352941 0.64313725
v 0.00779075 0.01146545 -0.00087552 0.54117647 0.42352941 0.64313725
v 0.00647513 0.01065613 -0.00093441 0.54117647 0.42352941 0.64313725
v 0.00513623 0.00948631 -0.00070747 0.54117647 0.42352941 0.64313725
v 0.01050434 0.01307455 -0.00111251 0.54117647 0.42352941 0.64313725
v 0.00915649 0.01234878 -0.00100048 0.54117647 0.42352941 0.64313725
v 0.02165760 0.01226045 -0.00757015 0.54117647 0.42352941 0.64313725
v 0.02169698 0.01227239 -0.00600027 0.54117647 0.42352941 0.64313725
v 0.01241065 0.01455472 -0.00940719 0.54117647 0.42352941 0.64313725
v 0.01127760 0.01384806 -0.01015264 0.54117647 0.42352941 0.64313725
v 0.01350790 0.01506085 -0.00870053 0.54117647 0.42352941 0.64313725
v 0.01448880 0.01529481 -0.00866749 0.54117647 0.42352941 0.64313725
v 0.01529607 0.01540702 -0.00874649 0.54117647 0.42352941 0.64313725
v 0.01535156 0.01529242 -0.00921904 0.54117647 0.42352941 0.64313725
v 0.01558604 0.01534017 -0.00911850 0.54117647 0.42352941 0.64313725
v 0.01681217 0.01506801 -0.00958817 0.54117647 0.42352941 0.64313725
v 0.01611766 0.01521125 -0.00948045 0.54117647 0.42352941 0.64313725
v 0.01756932 0.01493670 -0.00939570 0.54117647 0.42352941 0.64313725
v 0.01828531 0.01482688 -0.00895045 0.54117647 0.42352941 0.64313725
v 0.01887063 0.01470990 -0.00839747 0.54117647 0.42352941 0.64313725
v 0.01927695 0.01458098 -0.00791200 0.54117647 0.42352941 0.64313725
v 0.01986227 0.01421810 -0.00762904 0.54117647 0.42352941 0.64313725
v 0.02000726 0.01410589 -0.00762904 0.54117647 0.42352941 0.64313725
v 0.02167013 0.01231536 -0.00600027 0.54117647 0.42352941 0.64313725
v 0.02020236 0.01400562 -0.00600027 0.54117647 0.42352941 0.64313725
v 0.02093625 0.01327986 -0.00600027 0.54117647 0.42352941 0.64313725
v 0.00398529 0.00870087 -0.01108049 0.54117647 0.42352941 0.64313725
v 0.00428779 0.00931681 -0.01057491 0.54117647 0.42352941 0.64313725
v 0.00478898 0.01015001 -0.00972749 0.54117647 0.42352941 0.64313725
v 0.00620484 0.01114793 -0.00998028 0.54117647 0.42352941 0.64313725
v 0.00629971 0.01097604 -0.01044421 0.54117647 0.42352941 0.64313725
v 0.00742381 0.01211721 -0.00959248 0.54117647 0.42352941 0.64313725
v 0.00875017 0.01291459 -0.00953215 0.54117647 0.42352941 0.64313725
v 0.01004432 0.01359022 -0.00947757 0.54117647 0.42352941 0.64313725
v 0.01114335 0.01406292 -0.00949625 0.54117647 0.42352941 0.64313725
v 0.02119221 0.01290027 -0.00437149 0.54117647 0.42352941 0.64313725
v 0.02089329 0.01325837 -0.00437149 0.54117647 0.42352941 0.64313725
v 0.02062300 0.01355202 -0.00437149 0.54117647 0.42352941 0.64313725
v 0.02016477 0.01397936 -0.00437149 0.54117647 0.42352941 0.64313725
v 0.01930201 0.01460008 -0.00437149 0.54117647 0.42352941 0.64313725
v 0.01929664 0.01459292 -0.00425803 0.54117647 0.42352941 0.64313725
v 0.01927695 0.01458098 -0.00408854 0.54117647 0.42352941 0.64313725
v 0.01866299 0.01494148 -0.00408136 0.54117647 0.42352941 0.64313725
v 0.01852875 0.01491044 -0.00363323 0.54117647 0.42352941 0.64313725
v 0.01790047 0.01504175 -0.00316787 0.54117647 0.42352941 0.64313725
v 0.01717732 0.01516350 -0.00285332 0.54117647 0.42352941 0.64313725
v 0.01646134 0.01528287 -0.00279586 0.54117647 0.42352941 0.64313725
v 0.01585633 0.01538553 -0.00300413 0.54117647 0.42352941 0.64313725
v 0.01559142 0.01533539 -0.00286193 0.54117647 0.42352941 0.64313725
v 0.01128118 0.01384328 -0.00183497 0.54117647 0.42352941 0.64313725
v 0.01241244 0.01455233 -0.00258473 0.54117647 0.42352941 0.64313725
v 0.01125075 0.01388864 -0.00195275 0.54117647 0.42352941 0.64313725
v 0.01531934 0.01535449 -0.00300700 0.54117647 0.42352941 0.64313725
v 0.01448880 0.01529481 -0.00332873 0.54117647 0.42352941 0.64313725
v 0.01350790 0.01505846 -0.00329570 0.54117647 0.42352941 0.64313725
v 0.00398529 0.00858150 -0.00074194 0.54117647 0.42352941 0.64313725
v 0.00493397 0.00988739 -0.00146297 0.54117647 0.42352941 0.64313725
v 0.00767261 0.01168032 -0.00123603 0.54117647 0.42352941 0.64313725
v 0.00629971 0.01097604 -0.00155633 0.54117647 0.42352941 0.64313725
v 0.01024837 0.01339684 -0.00179045 0.54117647 0.42352941 0.64313725
v 0.00892380 0.01269973 -0.00170858 0.54117647 0.42352941 0.64313725
v 0.01236411 0.01470274 -0.00872926 0.54117647 0.42352941 0.64313725
v 0.01292974 0.01495819 -0.00809441 0.54117647 0.42352941 0.64313725
v 0.01359560 0.01514918 -0.00809441 0.54117647 0.42352941 0.64313725
v 0.01439393 0.01533778 -0.00809441 0.54117647 0.42352941 0.64313725
v 0.01527817 0.01548341 -0.00809441 0.54117647 0.42352941 0.64313725
v 0.01584380 0.01539030 -0.00898061 0.54117647 0.42352941 0.64313725
v 0.01561468 0.01547864 -0.00849227 0.54117647 0.42352941 0.64313725
v 0.01644523 0.01528765 -0.00919749 0.54117647 0.42352941 0.64313725
v 0.01716121 0.01516589 -0.00915009 0.54117647 0.42352941 0.64313725
v 0.01788615 0.01504175 -0.00884560 0.54117647 0.42352941 0.64313725
v 0.01851801 0.01491044 -0.00838454 0.54117647 0.42352941 0.64313725
v 0.01865583 0.01494386 -0.00793354 0.54117647 0.42352941 0.64313725
v 0.01930201 0.01460008 -0.00762904 0.54117647 0.42352941 0.64313725
v 0.01933602 0.01463112 -0.00599021 0.54117647 0.42352941 0.64313725
v 0.00398529 0.00903032 -0.01059071 0.54117647 0.42352941 0.64313725
v 0.00398529 0.00905420 -0.01054331 0.54117647 0.42352941 0.64313725
v 0.00398529 0.00929771 -0.01001763 0.54117647 0.42352941 0.64313725
v 0.00415533 0.00956749 -0.00976484 0.54117647 0.42352941 0.64313725
v 0.00469590 0.01029802 -0.00890449 0.54117647 0.42352941 0.64313725
v 0.00607955 0.01136757 -0.00901365 0.54117647 0.42352941 0.64313725
v 0.00614935 0.01124343 -0.00963988 0.54117647 0.42352941 0.64313725
v 0.00735221 0.01225806 -0.00882118 0.54117647 0.42352941 0.64313725
v 0.00866246 0.01303396 -0.00879245 0.54117647 0.42352941 0.64313725
v 0.00993513 0.01369288 -0.00876516 0.54117647 0.42352941 0.64313725
v 0.01105744 0.01422288 -0.00857844 0.54117647 0.42352941 0.64313725
v 0.01872922 0.01493670 -0.00437149 0.54117647 0.42352941 0.64313725
v 0.01843925 0.01507756 -0.00437149 0.54117647 0.42352941 0.64313725
v 0.01813316 0.01510143 -0.00368063 0.54117647 0.42352941 0.64313725
v 0.01747267 0.01523512 -0.00332442 0.54117647 0.42352941 0.64313725
v 0.01676563 0.01534733 -0.00314632 0.54117647 0.42352941 0.64313725
v 0.01611945 0.01543089 -0.00320808 0.54117647 0.42352941 0.64313725
v 0.01562542 0.01547625 -0.00348816 0.54117647 0.42352941 0.64313725
v 0.01236590 0.01470035 -0.00326697 0.54117647 0.42352941 0.64313725
v 0.01109860 0.01413932 -0.00285044 0.54117647 0.42352941 0.64313725
v 0.01113619 0.01407247 -0.00254451 0.54117647 0.42352941 0.64313725
v 0.01528891 0.01542611 -0.00336751 0.54117647 0.42352941 0.64313725
v 0.01470180 0.01539747 -0.00390469 0.54117647 0.42352941 0.64313725
v 0.01439393 0.01533778 -0.00390469 0.54117647 0.42352941 0.64313725
v 0.01308547 0.01500594 -0.00390469 0.54117647 0.42352941 0.64313725
v 0.01292974 0.01495819 -0.00390469 0.54117647 0.42352941 0.64313725
v 0.00428779 0.00931681 -0.00142562 0.54117647 0.42352941 0.64313725
v 0.00398529 0.00903032 -0.00140839 0.54117647 0.42352941 0.64313725
v 0.00478898 0.01015001 -0.00227305 0.54117647 0.42352941 0.64313725
v 0.00624601 0.01107153 -0.00179619 0.54117647 0.42352941 0.64313725
v 0.00757238 0.01185937 -0.00161522 0.54117647 0.42352941 0.64313725
v 0.01006759 0.01359738 -0.00251435 0.54117647 0.42352941 0.64313725
v 0.00876807 0.01292175 -0.00245977 0.54117647 0.42352941 0.64313725
v 0.00743276 0.01211959 -0.00239801 0.54117647 0.42352941 0.64313725
v 0.01177521 0.01455711 -0.00809441 0.54117647 0.42352941 0.64313725
v 0.01235337 0.01476720 -0.00809441 0.54117647 0.42352941 0.64313725
v 0.01292616 0.01503220 -0.00600027 0.54117647 0.42352941 0.64313725
v 0.01439751 0.01541418 -0.00600027 0.54117647 0.42352941 0.64313725
v 0.01560752 0.01558846 -0.00600027 0.54117647 0.42352941 0.64313725
v 0.01571134 0.01555265 -0.00762904 0.54117647 0.42352941 0.64313725
v 0.01545538 0.01550490 -0.00805275 0.54117647 0.42352941 0.64313725
v 0.01542137 0.01550012 -0.00806999 0.54117647 0.42352941 0.64313725
v 0.01610334 0.01543566 -0.00877953 0.54117647 0.42352941 0.64313725
v 0.01578831 0.01550251 -0.00837449 0.54117647 0.42352941 0.64313725
v 0.01674773 0.01534972 -0.00885134 0.54117647 0.42352941 0.64313725
v 0.01745477 0.01523751 -0.00868473 0.54117647 0.42352941 0.64313725
v 0.01811884 0.01510382 -0.00833571 0.54117647 0.42352941 0.64313725
v 0.01854844 0.01502742 -0.00762904 0.54117647 0.42352941 0.64313725
v 0.01857708 0.01506323 -0.00599021 0.54117647 0.42352941 0.64313725
v 0.00398529 0.00939798 -0.00977345 0.54117647 0.42352941 0.64313725
v 0.00406584 0.00971073 -0.00893034 0.54117647 0.42352941 0.64313725
v 0.00473170 0.01043649 -0.00809441 0.54117647 0.42352941 0.64313725
v 0.00602764 0.01145590 -0.00809441 0.54117647 0.42352941 0.64313725
v 0.00607239 0.01148933 -0.00809441 0.54117647 0.42352941 0.64313725
v 0.00768335 0.01254932 -0.00809441 0.54117647 0.42352941 0.64313725
v 0.00861771 0.01308648 -0.00809441 0.54117647 0.42352941 0.64313725
v 0.00946258 0.01353292 -0.00809441 0.54117647 0.42352941 0.64313725
v 0.01104670 0.01426585 -0.00809441 0.54117647 0.42352941 0.64313725
v 0.01125791 0.01435418 -0.00809441 0.54117647 0.42352941 0.64313725
v 0.01795059 0.01527094 -0.00437149 0.54117647 0.42352941 0.64313725
v 0.01769641 0.01527332 -0.00376250 0.54117647 0.42352941 0.64313725
v 0.01702518 0.01539030 -0.00352120 0.54117647 0.42352941 0.64313725
v 0.01636289 0.01546909 -0.00346231 0.54117647 0.42352941 0.64313725
v 0.01580442 0.01550251 -0.00361169 0.54117647 0.42352941 0.64313725
v 0.01542137 0.01550012 -0.00393055 0.54117647 0.42352941 0.64313725
v 0.01527817 0.01548341 -0.00390469 0.54117647 0.42352941 0.64313725
v 0.01125791 0.01435418 -0.00390469 0.54117647 0.42352941 0.64313725
v 0.01106639 0.01420139 -0.00324686 0.54117647 0.42352941 0.64313725
v 0.01235337 0.01476720 -0.00390469 0.54117647 0.42352941 0.64313725
v 0.00995661 0.01370243 -0.00323106 0.54117647 0.42352941 0.64313725
v 0.00415533 0.00956749 -0.00223570 0.54117647 0.42352941 0.64313725
v 0.00398529 0.00907807 -0.00150175 0.54117647 0.42352941 0.64313725
v 0.00614935 0.01124343 -0.00236066 0.54117647 0.42352941 0.64313725
v 0.00610103 0.01133176 -0.00276283 0.54117647 0.42352941 0.64313725
v 0.00469590 0.01029802 -0.00309605 0.54117647 0.42352941 0.64313725
v 0.00867857 0.01304112 -0.00320377 0.54117647 0.42352941 0.64313725
v 0.00735937 0.01226284 -0.00317361 0.54117647 0.42352941 0.64313725
v 0.01124717 0.01442819 -0.00600027 0.54117647 0.42352941 0.64313725
v 0.01571134 0.01555265 -0.00437149 0.54117647 0.42352941 0.64313725
v 0.01571850 0.01559801 -0.00599021 0.54117647 0.42352941 0.64313725
v 0.01589929 0.01556220 -0.00762904 0.54117647 0.42352941 0.64313725
v 0.01562900 0.01553116 -0.00789045 0.54117647 0.42352941 0.64313725
v 0.01634320 0.01547148 -0.00853248 0.54117647 0.42352941 0.64313725
v 0.01595299 0.01552400 -0.00822080 0.54117647 0.42352941 0.64313725
v 0.01700549 0.01539269 -0.00848365 0.54117647 0.42352941 0.64313725
v 0.01767851 0.01527810 -0.00824953 0.54117647 0.42352941 0.64313725
v 0.01775369 0.01533301 -0.00762904 0.54117647 0.42352941 0.64313725
v 0.01777696 0.01537121 -0.00599021 0.54117647 0.42352941 0.64313725
v 0.00398529 0.00941947 -0.00969589 0.54117647 0.42352941 0.64313725
v 0.00398529 0.00960568 -0.00901939 0.54117647 0.42352941 0.64313725
v 0.00398529 0.00962478 -0.00893321 0.54117647 0.42352941 0.64313725
v 0.00398529 0.00965343 -0.00874506 0.54117647 0.42352941 0.64313725
v 0.00398529 0.00972505 -0.00809441 0.54117647 0.42352941 0.64313725
v 0.00398529 0.00983010 -0.00600027 0.54117647 0.42352941 0.64313725
v 0.00469769 0.01050573 -0.00600027 0.54117647 0.42352941 0.64313725
v 0.00604375 0.01155856 -0.00600027 0.54117647 0.42352941 0.64313725
v 0.00766187 0.01262094 -0.00600027 0.54117647 0.42352941 0.64313725
v 0.00944647 0.01360693 -0.00600027 0.54117647 0.42352941 0.64313725
v 0.01775369 0.01533301 -0.00437149 0.54117647 0.42352941 0.64313725
v 0.01750668 0.01539985 -0.00437149 0.54117647 0.42352941 0.64313725
v 0.01722744 0.01541179 -0.00387166 0.54117647 0.42352941 0.64313725
v 0.01657232 0.01549535 -0.00373521 0.54117647 0.42352941 0.64313725
v 0.01597268 0.01552400 -0.00376968 0.54117647 0.42352941 0.64313725
v 0.01565764 0.01553593 -0.00415748 0.54117647 0.42352941 0.64313725
v 0.01558068 0.01552161 -0.00404832 0.54117647 0.42352941 0.64313725
v 0.01104670 0.01426585 -0.00390469 0.54117647 0.42352941 0.64313725
v 0.00946258 0.01353292 -0.00390469 0.54117647 0.42352941 0.64313725
v 0.00406584 0.00971073 -0.00307020 0.54117647 0.42352941 0.64313725
v 0.00398529 0.00939798 -0.00222565 0.54117647 0.42352941 0.64313725
v 0.00606702 0.01139144 -0.00315063 0.54117647 0.42352941 0.64313725
v 0.00473170 0.01043649 -0.00390469 0.54117647 0.42352941 0.64313725
v 0.00863382 0.01309603 -0.00390469 0.54117647 0.42352941 0.64313725
v 0.00768335 0.01254932 -0.00390469 0.54117647 0.42352941 0.64313725
v 0.00607239 0.01148933 -0.00390469 0.54117647 0.42352941 0.64313725
v 0.01622506 0.01555026 -0.00411583 0.54117647 0.42352941 0.64313725
v 0.01591003 0.01560756 -0.00599021 0.54117647 0.42352941 0.64313725
v 0.01620000 0.01555026 -0.00788471 0.54117647 0.42352941 0.64313725
v 0.01671372 0.01550967 -0.00800967 0.54117647 0.42352941 0.64313725
v 0.01720596 0.01541657 -0.00813606 0.54117647 0.42352941 0.64313725
v 0.01686408 0.01551922 -0.00762904 0.54117647 0.42352941 0.64313725
v 0.01688019 0.01556220 -0.00599021 0.54117647 0.42352941 0.64313725
v 0.00398529 0.00979906 -0.00536686 0.54117647 0.42352941 0.64313725
v 0.00602764 0.01145590 -0.00390469 0.54117647 0.42352941 0.64313725
v 0.01693747 0.01550967 -0.00437149 0.54117647 0.42352941 0.64313725
v 0.01673520 0.01550729 -0.00399518 0.54117647 0.42352941 0.64313725
v 0.00398529 0.00972505 -0.00390469 0.54117647 0.42352941 0.64313725
v 0.00398529 0.00965343 -0.00325548 0.54117647 0.42352941 0.64313725
v 0.00398529 0.00962478 -0.00306733 0.54117647 0.42352941 0.64313725
v 0.01645239 0.01555503 -0.00437149 0.54117647 0.42352941 0.64313725
v 0.01686408 0.01551922 -0.00437149 0.54117647 0.42352941 0.64313725
f 640 699 641
f 638 669 696
f 639 697 640
f 640 698 699
f 643 702 644
f 641 699 642
f 642 700 701
f 642 701 702
f 642 702 643
f 642 699 700
f 638 697 639
f 640 697 698
f 638 696 697
f 662 721 716
f 636 695 664
f 636 694 695
f 635 694 636
f 635 693 694
f 635 681 693
f 633 636 637
f 633 637 634
f 632 681 635
f 630 670 631
f 630 692 670
f 629 692 630
f 644 702 703
f 629 691 692
f 628 691 629
f 636 663 637
f 644 703 704
f 654 658 714
f 645 704 705
f 662 720 721
f 628 690 691
f 661 719 720
f 661 720 662
f 660 719 661
f 660 713 719
f 659 662 716
f 658 718 714
f 658 717 718
f 658 716 717
f 658 659 716
f 655 714 715
f 654 714 655
f 644 704 645
f 651 713 660
f 650 713 651
f 649 708 711
f 649 712 650
f 649 711 712
f 648 710 708
f 648 709 710
f 648 707 709
f 648 708 649
f 647 707 648
f 646 707 647
f 646 706 707
f 645 706 646
f 645 705 706
f 650 712 713
f 628 689 690
f 606 669 608
f 627 689 628
f 610 671 611
f 610 670 671
f 609 670 610
f 609 631 670
f 608 669 638
f 606 608 607
f 605 669 606
f 605 668 669
f 605 667 668
f 605 666 667
f 604 666 605
f 603 666 604
f 603 665 666
f 611 671 672
f 602 665 603
f 602 636 664
f 602 663 636
f 602 637 663
f 600 651 660
f 600 652 651
f 599 662 659
f 599 661 662
f 598 661 599
f 598 660 661
f 598 600 660
f 597 599 659
f 664 695 722
f 596 659 658
f 602 664 665
f 627 688 689
f 611 672 673
f 612 614 613
f 626 688 627
f 625 686 687
f 625 688 626
f 625 687 688
f 624 686 625
f 624 685 686
f 624 684 685
f 623 684 624
f 622 681 632
f 621 683 679
f 621 682 683
f 620 682 621
f 620 678 682
f 611 673 612
f 619 681 622
f 618 621 679
f 618 680 619
f 618 679 680
f 617 678 620
f 617 677 678
f 616 677 617
f 616 676 677
f 615 676 616
f 615 675 676
f 614 675 615
f 614 674 675
f 612 674 614
f 612 673 674
f 619 680 681
f 664 722 665
f 708 765 763
f 665 723 667
f 714 770 769
f 714 718 770
f 714 769 715
f 713 768 719
f 712 768 713
f 711 768 712
f 711 767 768
f 711 763 767
f 710 766 764
f 709 766 710
f 709 762 766
f 708 764 765
f 708 710 764
f 716 721 717
f 708 763 711
f 706 762 709
f 705 762 706
f 705 761 762
f 705 760 761
f 704 760 705
f 704 759 760
f 703 759 704
f 703 758 759
f 701 703 702
f 701 758 703
f 701 757 758
f 700 757 701
f 700 756 757
f 706 709 707
f 700 755 756
f 717 721 771
f 718 771 772
f 596 597 659
f 730 785 786
f 730 731 785
f 729 783 731
f 728 784 783
f 728 782 784
f 728 783 729
f 727 782 728
f 727 781 782
f 727 780 781
f 726 780 727
f 726 748 780
f 725 779 752
f 717 771 718
f 725 778 779
f 724 777 778
f 723 777 724
f 722 777 723
f 722 776 777
f 722 751 776
f 721 775 771
f 720 773 774
f 720 775 721
f 720 774 775
f 719 773 720
f 719 767 773
f 719 768 767
f 718 772 770
f 724 778 725
f 699 755 700
f 698 753 754
f 698 755 699
f 679 683 736
f 679 737 680
f 679 736 737
f 678 735 682
f 678 734 735
f 677 734 678
f 677 733 734
f 676 733 677
f 676 732 733
f 675 732 676
f 675 730 732
f 674 731 730
f 674 729 731
f 680 737 693
f 674 730 675
f 672 729 673
f 672 728 729
f 671 728 672
f 671 727 728
f 671 726 727
f 670 692 726
f 670 726 671
f 668 696 669
f 668 725 696
f 668 724 725
f 667 724 668
f 667 723 724
f 665 667 666
f 673 729 674
f 680 693 681
f 682 735 738
f 682 738 683
f 698 754 755
f 697 753 698
f 696 753 697
f 696 752 753
f 696 725 752
f 695 751 722
f 694 751 695
f 694 749 751
f 693 750 749
f 693 737 750
f 693 749 694
f 692 748 726
f 691 748 692
f 691 747 748
f 690 747 691
f 690 746 747
f 690 745 746
f 689 745 690
f 689 743 745
f 688 743 689
f 687 744 742
f 687 741 744
f 687 743 688
f 687 742 743
f 686 741 687
f 686 740 741
f 685 740 686
f 683 739 736
f 683 738 739
f 665 722 723
f 596 658 654
f 510 512 513
f 594 656 657
f 514 570 572
f 513 570 514
f 512 570 513
f 511 571 570
f 511 559 571
f 511 570 512
f 730 786 732
f 509 569 546
f 508 569 509
f 508 568 569
f 508 567 568
f 507 567 508
f 507 566 567
f 514 572 515
f 506 564 565
f 506 565 566
f 505 564 506
f 504 564 505
f 504 563 564
f 504 562 563
f 503 562 504
f 503 561 562
f 503 560 561
f 502 560 503
f 499 559 511
f 498 558 559
f 498 559 499
f 497 555 558
f 506 566 507
f 497 558 498
f 515 572 573
f 515 574 575
f 528 590 529
f 528 589 590
f 528 588 589
f 528 587 588
f 527 587 528
f 526 587 527
f 526 586 587
f 526 585 586
f 525 585 526
f 524 585 525
f 523 585 524
f 523 584 585
f 523 583 584
f 515 573 574
f 522 583 523
f 522 581 582
f 522 580 581
f 521 579 580
f 521 580 522
f 520 579 521
f 518 520 519
f 518 579 520
f 518 578 579
f 517 578 518
f 517 577 578
f 517 545 577
f 516 575 576
f 515 575 516
f 522 582 583
f 529 591 530
f 496 557 555
f 496 553 556
f 479 539 538
f 479 576 539
f 479 516 576
f 479 538 480
f 477 480 478
f 476 537 481
f 476 480 537
f 476 478 480
f 475 536 535
f 475 530 536
f 475 535 533
f 474 534 532
f 474 533 534
f 480 538 540
f 473 533 474
f 472 474 532
f 472 532 531
f 471 472 531
f 469 475 470
f 469 530 475
f 468 530 469
f 468 529 530
f 467 529 468
f 465 529 467
f 464 528 529
f 464 529 465
f 463 528 464
f 463 527 528
f 473 475 533
f 496 556 557
f 480 540 541
f 481 537 542
f 496 555 497
f 495 553 496
f 494 554 553
f 494 552 554
f 494 553 495
f 493 552 494
f 493 551 552
f 492 551 493
f 492 550 551
f 491 550 492
f 491 549 550
f 490 549 491
f 490 548 549
f 480 541 537
f 488 546 547
f 488 548 490
f 488 547 548
f 487 546 488
f 486 546 487
f 486 509 546
f 485 544 545
f 485 545 517
f 484 544 485
f 484 543 544
f 483 543 484
f 482 543 483
f 481 543 482
f 481 542 543
f 488 490 489
f 529 590 591
f 530 591 592
f 530 592 536
f 577 608 638
f 577 639 578
f 577 638 639
f 576 637 602
f 575 637 576
f 574 637 575
f 574 634 637
f 573 636 633
f 573 635 636
f 573 632 635
f 573 634 574
f 573 633 634
f 572 632 573
f 578 639 579
f 571 632 572
f 570 571 572
f 568 631 609
f 567 631 568
f 567 630 631
f 567 629 630
f 566 629 567
f 566 628 629
f 565 626 627
f 565 628 566
f 565 627 628
f 564 626 565
f 563 626 564
f 563 625 626
f 571 622 632
f 563 624 625
f 579 639 640
f 579 641 580
f 594 655 656
f 594 654 655
f 594 596 654
f 593 594 653
f 592 652 600
f 590 652 592
f 590 592 591
f 589 652 590
f 589 651 652
f 589 650 651
f 588 649 650
f 588 650 589
f 587 649 588
f 579 640 641
f 587 648 649
f 586 647 587
f 586 646 647
f 585 646 586
f 584 646 585
f 584 645 646
f 584 644 645
f 582 584 583
f 582 644 584
f 582 643 644
f 581 641 642
f 581 643 582
f 581 642 643
f 580 641 581
f 587 647 648
f 562 624 563
f 561 624 562
f 561 623 624
f 542 607 544
f 541 607 542
f 541 606 607
f 540 606 541
f 540 605 606
f 540 604 605
f 540 601 604
f 539 604 601
f 539 603 604
f 539 602 603
f 539 576 602
f 538 601 540
f 538 539 601
f 542 544 543
f 537 541 542
f 536 592 600
f 535 599 597
f 535 598 599
f 535 536 598
f 535 597 595
f 534 597 596
f 534 595 597
f 534 596 594
f 533 595 534
f 533 535 595
f 532 594 593
f 532 534 594
f 531 532 593
f 536 600 598
f 544 607 545
f 545 607 608
f 545 608 577
f 559 622 571
f 558 622 559
f 558 619 622
f 557 621 618
f 557 620 621
f 556 617 620
f 556 620 557
f 555 619 558
f 555 618 619
f 555 557 618
f 554 617 556
f 554 616 617
f 553 554 556
f 552 616 554
f 552 615 616
f 551 615 552
f 551 614 615
f 551 613 614
f 550 613 551
f 549 613 550
f 549 612 613
f 549 611 612
f 549 610 611
f 548 610 549
f 548 609 610
f 547 568 609
f 547 569 568
f 547 609 548
f 546 569 547
f 594 657 653
f 731 783 787
f 819 820 874
f 732 786 788
f 917 963 964
f 916 963 917
f 916 962 963
f 915 962 916
f 915 961 962
f 914 961 915
f 914 960 961
f 913 960 914
f 913 959 960
f 912 959 913
f 912 948 959
f 911 948 912
f 910 958 934
f 917 964 965
f 910 957 958
f 909 956 957
f 908 956 909
f 908 955 956
f 908 954 955
f 907 954 908
f 907 953 954
f 905 953 907
f 905 952 953
f 904 950 951
f 904 952 905
f 904 951 952
f 903 949 950
f 903 950 904
f 909 957 910
f 902 949 903
f 917 965 921
f 918 967 919
f 934 958 977
f 933 976 973
f 933 973 972
f 932 969 975
f 932 976 933
f 932 975 976
f 931 969 932
f 929 933 972
f 929 930 933
f 928 974 970
f 928 973 974
f 928 972 973
f 928 929 972
f 918 966 967
f 926 971 927
f 926 928 970
f 925 936 968
f 924 937 936
f 924 936 925
f 923 937 924
f 922 937 923
f 922 965 937
f 921 965 922
f 919 931 920
f 919 969 931
f 919 967 969
f 918 968 966
f 918 925 968
f 926 970 971
f 934 977 935
f 899 948 911
f 898 947 948
f 883 930 929
f 882 885 930
f 882 930 883
f 881 929 928
f 881 883 929
f 881 928 926
f 880 926 927
f 880 881 926
f 879 923 924
f 879 925 918
f 879 924 925
f 878 923 879
f 878 922 923
f 884 920 931
f 878 921 922
f 877 917 921
f 876 920 884
f 875 920 876
f 875 919 920
f 875 918 919
f 875 879 918
f 874 876 884
f 872 917 877
f 872 916 917
f 872 877 873
f 871 916 872
f 871 915 916
f 870 915 871
f 877 921 878
f 898 948 899
f 884 931 885
f 885 932 933
f 897 946 947
f 897 947 898
f 896 946 897
f 895 946 896
f 895 945 946
f 894 945 895
f 894 944 945
f 893 944 894
f 893 942 944
f 892 943 942
f 892 940 943
f 892 941 940
f 891 942 893
f 885 931 932
f 891 892 942
f 890 940 941
f 890 939 940
f 890 938 939
f 890 937 938
f 889 937 890
f 888 936 937
f 888 937 889
f 887 935 936
f 887 936 888
f 886 910 934
f 886 935 887
f 886 934 935
f 885 933 930
f 890 941 892
f 935 977 936
f 936 977 968
f 937 965 938
f 993 1021 1010
f 987 999 998
f 987 1020 999
f 986 1020 987
f 986 1019 1020
f 986 1018 1019
f 985 1018 986
f 984 1018 985
f 984 1017 1018
f 982 1017 984
f 982 1016 1017
f 982 983 1016
f 980 983 981
f 993 1010 994
f 980 1016 983
f 979 1015 980
f 978 1015 979
f 978 1014 1015
f 978 1002 1014
f 978 1003 1002
f 977 997 1005
f 976 1013 1009
f 976 1012 1013
f 975 1006 1011
f 975 1012 976
f 975 1011 1012
f 974 1010 1007
f 974 1009 1010
f 980 1015 1016
f 973 976 1009
f 994 1010 1022
f 995 1022 1013
f 1020 1029 1023
f 1020 1028 1029
f 1017 1019 1018
f 1016 1019 1017
f 1016 1020 1019
f 1015 1028 1020
f 1015 1020 1016
f 1014 1024 1028
f 1014 1028 1015
f 1010 1021 1025
f 1009 1022 1010
f 1009 1013 1022
f 1007 1010 1025
f 994 1022 995
f 1007 1027 1008
f 1007 1025 1026
f 1001 1014 1002
f 1001 1024 1014
f 1000 1024 1001
f 1000 1023 1024
f 999 1023 1000
f 999 1020 1023
f 997 1006 1005
f 997 1011 1006
f 996 1011 997
f 996 1012 1011
f 995 1012 996
f 995 1013 1012
f 1007 1026 1027
f 973 1009 974
f 970 1008 971
f 970 1007 1008
f 951 993 994
f 951 992 993
f 950 992 951
f 950 991 992
f 950 990 991
f 950 989 990
f 950 988 989
f 949 988 950
f 948 987 959
f 947 987 948
f 947 986 987
f 946 986 947
f 946 985 986
f 951 994 952
f 945 984 985
f 944 982 984
f 944 984 945
f 943 983 982
f 943 981 983
f 942 982 944
f 942 943 982
f 940 981 943
f 939 981 940
f 939 980 981
f 939 979 980
f 938 965 978
f 938 979 939
f 938 978 979
f 945 985 946
f 952 995 953
f 952 994 995
f 953 995 954
f 970 974 1007
f 969 1005 1006
f 969 1006 975
f 967 1005 969
f 966 1005 967
f 966 977 1005
f 966 968 977
f 964 978 965
f 964 1003 978
f 964 1004 1003
f 963 1004 964
f 963 1003 1004
f 963 1002 1003
f 962 1002 963
f 962 1001 1002
f 961 1001 962
f 961 1000 1001
f 960 1000 961
f 960 999 1000
f 960 998 999
f 959 998 960
f 959 987 998
f 957 977 958
f 957 997 977
f 956 997 957
f 955 997 956
f 955 996 997
f 954 995 996
f 954 996 955
f 870 914 915
f 731 787 785
f 869 914 870
f 868 913 869
f 781 833 835
f 780 834 833
f 780 805 834
f 780 833 781
f 779 848 807
f 779 832 848
f 777 779 778
f 777 832 779
f 776 832 777
f 776 831 832
f 776 806 831
f 774 830 826
f 774 829 830
f 781 835 782
f 774 826 775
f 773 819 829
f 772 827 828
f 772 828 825
f 771 827 772
f 771 826 827
f 771 775 826
f 770 825 824
f 770 772 825
f 767 819 773
f 765 823 820
f 765 822 823
f 764 822 765
f 764 821 822
f 773 829 774
f 764 818 821
f 782 836 837
f 782 838 784
f 797 850 848
f 796 847 849
f 795 850 797
f 794 850 795
f 794 849 850
f 794 796 849
f 792 831 793
f 792 848 831
f 792 797 848
f 791 845 846
f 791 847 796
f 791 846 847
f 790 845 791
f 782 837 838
f 790 844 845
f 789 843 844
f 788 843 789
f 788 842 843
f 787 839 841
f 786 842 788
f 786 840 842
f 785 841 840
f 785 787 841
f 785 840 786
f 784 839 787
f 784 838 839
f 783 784 787
f 782 835 836
f 789 844 790
f 798 851 852
f 764 766 818
f 763 765 820
f 747 803 804
f 746 802 803
f 746 803 747
f 745 800 802
f 745 802 746
f 744 801 798
f 743 800 745
f 742 800 743
f 742 799 800
f 742 798 799
f 742 744 798
f 739 795 797
f 739 797 792
f 747 804 805
f 738 796 794
f 738 795 739
f 738 794 795
f 736 793 750
f 736 792 793
f 736 739 792
f 736 750 737
f 735 790 791
f 735 791 738
f 734 790 735
f 734 789 790
f 733 789 734
f 733 788 789
f 732 788 733
f 738 791 796
f 763 820 819
f 747 805 748
f 749 750 806
f 763 819 767
f 762 818 766
f 762 817 818
f 761 817 762
f 761 816 817
f 761 815 816
f 760 815 761
f 760 814 815
f 759 814 760
f 759 813 814
f 758 813 759
f 758 812 813
f 758 811 812
f 748 805 780
f 757 811 758
f 756 810 811
f 756 809 810
f 755 809 756
f 754 809 755
f 754 808 809
f 752 754 753
f 752 808 754
f 752 807 808
f 752 779 807
f 751 806 776
f 750 831 806
f 750 793 831
f 749 806 751
f 756 811 757
f 798 852 799
f 798 801 851
f 799 852 853
f 848 850 860
f 846 899 849
f 846 898 899
f 846 849 847
f 845 898 846
f 845 897 898
f 844 897 845
f 844 896 897
f 843 896 844
f 843 895 896
f 842 895 843
f 842 894 895
f 841 891 893
f 849 863 862
f 840 894 842
f 840 841 893
f 839 891 841
f 837 892 891
f 837 890 892
f 837 839 838
f 837 891 839
f 836 890 837
f 836 889 890
f 835 889 836
f 835 888 889
f 835 887 888
f 835 886 887
f 833 859 886
f 840 893 894
f 833 834 859
f 849 862 850
f 850 861 860
f 867 913 868
f 867 912 913
f 867 911 912
f 865 867 866
f 865 911 867
f 864 911 865
f 864 899 911
f 863 899 864
f 859 910 886
f 858 910 859
f 858 909 910
f 857 907 908
f 857 909 858
f 849 899 863
f 857 908 909
f 856 905 907
f 856 906 905
f 854 906 856
f 853 906 854
f 853 905 906
f 853 904 905
f 853 903 904
f 852 903 853
f 852 902 903
f 852 901 902
f 852 900 901
f 851 900 852
f 850 862 861
f 856 907 857
f 833 886 835
f 831 848 832
f 830 885 882
f 812 866 867
f 812 868 813
f 812 867 868
f 811 866 812
f 810 866 811
f 810 865 866
f 810 864 865
f 810 863 864
f 809 861 862
f 809 863 810
f 809 862 863
f 808 861 809
f 808 860 861
f 813 868 869
f 807 860 808
f 804 834 805
f 804 859 834
f 804 858 859
f 803 856 857
f 803 858 804
f 803 857 858
f 802 856 803
f 802 854 856
f 802 855 854
f 800 855 802
f 799 855 800
f 799 854 855
f 799 853 854
f 807 848 860
f 813 869 814
f 814 869 870
f 814 870 815
f 830 884 885
f 829 884 830
f 829 874 884
f 827 881 828
f 827 883 881
f 827 882 883
f 826 882 827
f 826 830 882
f 825 881 880
f 825 828 881
f 824 825 880
f 823 878 879
f 823 879 875
f 822 878 823
f 822 877 878
f 821 877 822
f 821 873 877
f 820 876 874
f 820 875 876
f 820 823 875
f 819 874 829
f 462 527 463
f 817 821 818
f 817 873 821
f 816 873 817
f 816 872 873
f 816 871 872
f 815 871 816
f 815 870 871
f 869 913 914
f 461 527 462
f 374 440 441
f 460 526 461
f 116 176 178
f 115 177 136
f 115 116 177
f 114 176 116
f 114 175 176
f 114 173 175
f 113 173 114
f 112 174 172
f 112 171 174
f 111 173 113
f 111 172 173
f 111 112 172
f 110 111 113
f 116 178 179
f 109 171 112
f 109 169 170
f 108 167 168
f 107 169 109
f 107 168 169
f 107 108 168
f 106 167 108
f 105 167 106
f 105 166 167
f 105 156 166
f 104 165 148
f 104 164 165
f 103 164 104
f 103 163 164
f 109 170 171
f 102 163 103
f 116 179 177
f 117 180 119
f 129 184 131
f 129 185 184
f 129 186 185
f 128 187 129
f 128 192 187
f 128 191 192
f 127 191 128
f 127 190 191
f 127 130 190
f 125 183 189
f 125 189 130
f 124 188 134
f 124 187 188
f 117 146 180
f 123 187 124
f 123 186 129
f 122 186 123
f 122 185 186
f 122 184 185
f 122 132 184
f 122 133 132
f 121 183 125
f 121 182 183
f 120 182 121
f 119 182 120
f 119 181 182
f 119 180 181
f 117 119 118
f 123 129 187
f 130 193 190
f 101 163 102
f 101 161 162
f 83 144 145
f 82 135 142
f 82 144 83
f 82 143 144
f 82 142 143
f 81 135 82
f 80 135 81
f 79 142 135
f 79 141 142
f 79 140 141
f 78 140 79
f 78 138 140
f 78 139 138
f 83 145 146
f 77 139 78
f 76 139 77
f 76 138 139
f 76 137 138
f 76 136 137
f 75 135 80
f 75 79 135
f 74 124 134
f 73 133 122
f 73 132 133
f 73 131 132
f 73 129 131
f 72 130 127
f 72 125 130
f 76 115 136
f 101 162 163
f 83 146 84
f 85 88 147
f 101 160 161
f 100 160 101
f 100 159 160
f 100 158 159
f 100 157 158
f 99 157 100
f 97 156 105
f 96 156 97
f 96 155 156
f 96 154 155
f 96 153 154
f 96 152 153
f 95 150 151
f 84 146 117
f 95 152 96
f 93 150 95
f 93 149 150
f 92 149 93
f 92 148 149
f 91 147 92
f 89 91 90
f 88 92 147
f 87 92 88
f 87 148 92
f 86 148 87
f 86 104 148
f 85 91 89
f 85 147 91
f 95 151 152
f 130 189 194
f 130 194 195
f 130 195 193
f 179 246 266
f 178 246 179
f 178 244 246
f 176 245 244
f 176 243 245
f 176 244 178
f 175 243 176
f 175 241 243
f 174 242 239
f 174 238 242
f 172 241 175
f 172 240 241
f 172 239 240
f 179 266 199
f 172 174 239
f 171 238 174
f 171 237 238
f 170 238 237
f 170 235 238
f 170 236 235
f 170 237 171
f 168 170 169
f 168 236 170
f 168 235 236
f 168 234 235
f 168 232 234
f 167 232 168
f 166 233 232
f 172 175 173
f 166 221 233
f 180 211 247
f 180 248 181
f 198 255 263
f 197 255 198
f 196 198 262
f 195 261 260
f 195 259 261
f 195 260 256
f 194 259 195
f 194 258 259
f 194 253 258
f 193 195 256
f 192 257 254
f 191 257 192
f 191 256 257
f 180 247 248
f 191 193 256
f 188 255 197
f 188 254 255
f 187 254 188
f 187 192 254
f 183 194 189
f 183 253 194
f 183 252 253
f 183 251 252
f 182 251 183
f 182 250 251
f 181 250 182
f 181 249 250
f 181 248 249
f 190 193 191
f 166 232 167
f 165 231 212
f 164 231 165
f 146 211 180
f 145 211 146
f 145 209 211
f 144 210 209
f 144 208 210
f 144 209 145
f 143 208 144
f 143 207 208
f 143 206 207
f 143 205 206
f 142 205 143
f 141 205 142
f 141 204 205
f 148 165 212
f 141 203 204
f 140 202 141
f 140 201 202
f 140 200 201
f 138 200 140
f 137 200 138
f 137 199 200
f 137 179 199
f 137 177 179
f 136 177 137
f 134 198 196
f 134 197 198
f 134 188 197
f 131 184 132
f 141 202 203
f 148 212 149
f 149 212 150
f 150 212 213
f 164 230 231
f 163 230 164
f 162 230 163
f 162 229 230
f 162 228 229
f 162 227 228
f 162 226 227
f 161 226 162
f 161 225 226
f 161 224 225
f 160 224 161
f 160 223 224
f 160 222 223
f 159 222 160
f 156 221 166
f 155 221 156
f 154 221 155
f 154 220 221
f 154 219 220
f 154 218 219
f 153 218 154
f 153 217 218
f 153 216 217
f 151 153 152
f 151 216 153
f 151 215 216
f 151 214 215
f 150 214 151
f 150 213 214
f 72 126 125
f 198 263 264
f 72 129 73
f 72 127 128
f 5 26 6
f 4 27 25
f 4 24 27
f 4 26 5
f 4 25 26
f 3 24 4
f 2 23 14
f 2 22 23
f 2 21 22
f 2 19 20
f 2 18 19
f 2 17 18
f 2 16 17
f 6 26 28
f 2 15 16
f 1 21 2
f 1 13 21
f 1 12 13
f 1 11 12
f 1 10 11
f 1 9 10
f 1 8 9
f 1 7 8
f 1 6 7
f 1 5 6
f 1 4 5
f 1 3 4
f 1 24 3
f 2 14 15
f 1 27 24
f 6 28 7
f 8 28 29
f 22 43 44
f 21 43 22
f 21 42 43
f 21 41 42
f 21 40 41
f 21 33 40
f 19 39 20
f 19 38 39
f 19 37 38
f 18 37 19
f 17 37 18
f 17 36 37
f 16 36 17
f 7 28 8
f 16 35 36
f 14 35 15
f 14 34 35
f 14 23 34
f 13 32 33
f 13 33 21
f 12 32 13
f 12 31 32
f 11 31 12
f 11 30 31
f 10 30 11
f 10 29 30
f 9 29 10
f 8 29 9
f 15 35 16
f 22 44 23
f 1 51 27
f 1 99 98
f 1 1025 1021
f 1 1026 1025
f 1 1027 1026
f 1 1008 1027
f 1 971 1008
f 1 927 971
f 1 880 927
f 1 824 880
f 1 770 824
f 1 769 770
f 1 715 769
f 1 655 715
f 1 656 655
f 1 1021 993
f 1 657 656
f 1 593 653
f 1 531 593
f 1 471 531
f 1 408 471
f 1 342 408
f 1 336 342
f 1 262 336
f 1 196 262
f 1 134 196
f 1 74 134
f 1 39 74
f 1 20 39
f 1 2 20
f 1 653 657
f 1 98 51
f 1 993 992
f 1 991 990
f 1 157 99
f 1 158 157
f 1 159 158
f 1 222 159
f 1 291 222
f 1 368 291
f 1 369 368
f 1 435 369
f 1 500 435
f 1 501 500
f 1 502 501
f 1 560 502
f 1 561 560
f 1 992 991
f 1 623 561
f 1 685 684
f 1 740 685
f 1 741 740
f 1 744 741
f 1 801 744
f 1 851 801
f 1 900 851
f 1 901 900
f 1 902 901
f 1 949 902
f 1 988 949
f 1 989 988
f 1 990 989
f 1 684 623
f 23 44 34
f 25 45 26
f 25 27 45
f 57 108 107
f 57 106 108
f 57 107 58
f 56 106 57
f 55 106 56
f 55 105 106
f 54 105 55
f 54 97 105
f 53 104 86
f 53 103 104
f 52 103 53
f 52 102 103
f 52 101 102
f 58 107 109
f 52 100 101
f 52 98 99
f 51 98 52
f 50 97 54
f 49 97 50
f 49 96 97
f 49 95 96
f 49 94 95
f 48 95 94
f 48 93 95
f 48 94 49
f 47 85 89
f 47 93 48
f 47 92 93
f 52 99 100
f 47 91 92
f 58 109 60
f 59 60 111
f 71 126 72
f 71 125 126
f 71 121 125
f 69 74 70
f 69 124 74
f 69 123 124
f 69 122 123
f 69 73 122
f 68 121 71
f 67 121 68
f 67 120 121
f 66 118 119
f 66 120 67
f 59 110 61
f 66 119 120
f 65 117 118
f 64 117 65
f 64 84 117
f 63 116 115
f 63 114 116
f 63 115 76
f 62 114 63
f 62 113 114
f 62 110 113
f 61 110 62
f 60 112 111
f 60 109 112
f 59 111 110
f 65 118 66
f 47 90 91
f 47 89 90
f 46 88 85
f 34 64 65
f 34 44 64
f 33 59 61
f 33 63 40
f 33 62 63
f 33 61 62
f 32 60 59
f 32 58 60
f 32 59 33
f 31 58 32
f 31 57 58
f 30 57 31
f 30 56 57
f 34 65 35
f 29 55 56
f 28 55 29
f 28 54 55
f 28 50 54
f 27 46 45
f 27 53 46
f 27 52 53
f 27 51 52
f 26 50 28
f 26 49 50
f 26 48 49
f 26 47 48
f 26 46 47
f 26 45 46
f 29 56 30
f 35 65 66
f 35 66 67
f 35 67 36
f 46 87 88
f 46 86 87
f 46 53 86
f 46 85 47
f 44 84 64
f 43 84 44
f 43 83 84
f 42 83 43
f 42 82 83
f 42 81 82
f 41 81 42
f 41 80 81
f 41 75 80
f 40 79 75
f 40 78 79
f 40 77 78
f 40 76 77
f 40 63 76
f 40 75 41
f 38 74 39
f 38 70 74
f 37 73 69
f 37 72 73
f 37 71 72
f 37 68 71
f 37 70 38
f 37 69 70
f 36 68 37
f 36 67 68
f 72 128 129
f 461 526 527
f 198 264 265
f 199 266 201
f 378 379 382
f 377 434 380
f 376 434 377
f 375 441 421
f 374 438 439
f 374 441 375
f 1023 1029 1024
f 374 439 440
f 372 374 373
f 372 438 374
f 371 438 372
f 371 437 438
f 370 437 371
f 379 381 442
f 370 436 437
f 369 435 370
f 367 433 434
f 367 434 376
f 366 367 376
f 365 367 366
f 364 432 433
f 364 433 367
f 363 432 364
f 363 431 432
f 363 430 431
f 362 430 363
f 362 429 430
f 362 428 429
f 370 435 436
f 361 428 362
f 379 442 382
f 380 443 444
f 395 457 398
f 395 456 457
f 394 456 395
f 394 453 456
f 394 455 453
f 393 455 394
f 392 455 393
f 392 454 455
f 391 454 392
f 391 453 454
f 391 452 453
f 391 451 452
f 391 420 451
f 380 434 443
f 390 420 391
f 387 449 450
f 386 449 387
f 386 448 449
f 386 447 448
f 385 447 386
f 385 446 447
f 383 385 384
f 383 446 385
f 383 445 446
f 382 445 383
f 382 442 445
f 381 444 442
f 380 444 381
f 387 450 388
f 398 457 458
f 361 427 428
f 361 425 426
f 343 388 345
f 341 410 409
f 340 411 410
f 340 407 411
f 340 410 341
f 339 409 408
f 339 341 409
f 339 408 342
f 338 407 340
f 338 406 407
f 337 396 397
f 337 406 338
f 337 403 406
f 344 346 412
f 335 405 402
f 335 401 404
f 333 397 334
f 333 337 397
f 333 403 337
f 332 403 333
f 332 402 403
f 332 335 402
f 331 401 335
f 331 400 401
f 330 400 331
f 330 399 400
f 329 399 330
f 329 398 399
f 335 404 405
f 361 426 427
f 344 412 347
f 345 388 450
f 361 424 425
f 360 424 361
f 360 423 424
f 359 423 360
f 359 422 423
f 358 422 359
f 357 422 358
f 357 421 422
f 356 421 357
f 356 375 421
f 354 390 389
f 354 420 390
f 354 419 420
f 345 413 346
f 353 354 389
f 352 418 419
f 351 418 352
f 351 417 418
f 350 417 351
f 350 416 417
f 349 416 350
f 349 415 416
f 349 412 415
f 347 349 348
f 347 412 349
f 346 413 412
f 345 414 413
f 345 450 414
f 352 419 354
f 398 458 459
f 398 459 399
f 399 459 460
f 442 444 510
f 441 509 486
f 440 509 441
f 440 508 509
f 440 507 508
f 439 507 440
f 439 506 507
f 439 505 506
f 438 505 439
f 437 505 438
f 437 504 505
f 436 500 501
f 436 504 437
f 442 510 445
f 436 503 504
f 436 501 502
f 435 500 436
f 434 499 443
f 433 499 434
f 433 498 499
f 432 498 433
f 432 497 498
f 431 497 432
f 431 496 497
f 431 495 496
f 430 495 431
f 429 493 494
f 429 495 430
f 436 502 503
f 429 494 495
f 443 499 511
f 443 512 444
f 460 525 526
f 459 525 460
f 458 525 459
f 458 524 525
f 458 523 524
f 458 522 523
f 458 521 522
f 457 521 458
f 457 520 521
f 456 520 457
f 453 455 454
f 452 456 453
f 452 520 456
f 443 511 512
f 452 519 520
f 451 518 519
f 451 517 518
f 451 485 517
f 450 515 516
f 449 515 450
f 448 515 449
f 447 515 448
f 447 514 515
f 447 513 514
f 446 513 447
f 446 510 513
f 445 510 446
f 444 512 510
f 451 519 452
f 428 493 429
f 427 493 428
f 427 492 493
f 411 475 473
f 411 470 475
f 410 474 472
f 410 473 474
f 410 411 473
f 409 410 472
f 409 472 471
f 408 409 471
f 407 470 411
f 405 465 467
f 405 466 465
f 404 466 405
f 403 470 407
f 412 413 476
f 403 469 470
f 402 469 403
f 402 468 469
f 402 467 468
f 402 405 467
f 401 466 404
f 401 465 466
f 401 464 465
f 400 464 401
f 400 463 464
f 399 463 400
f 399 462 463
f 399 461 462
f 399 460 461
f 403 407 406
f 412 476 415
f 413 414 477
f 413 477 478
f 426 492 427
f 426 491 492
f 425 491 426
f 424 491 425
f 424 490 491
f 424 489 490
f 423 488 489
f 423 489 424
f 422 488 423
f 422 487 488
f 421 487 422
f 421 486 487
f 421 441 486
f 420 485 451
f 420 484 485
f 419 484 420
f 419 483 484
f 418 483 419
f 417 483 418
f 417 482 483
f 416 482 417
f 415 482 416
f 415 481 482
f 415 476 481
f 414 480 477
f 414 479 480
f 414 516 479
f 414 450 516
f 413 478 476
f 329 395 398
f 198 265 262
f 328 396 337
f 326 397 396
f 244 314 315
f 244 313 314
f 244 312 313
f 244 311 312
f 244 245 311
f 243 311 245
f 243 310 311
f 243 308 310
f 242 309 307
f 242 306 309
f 241 308 243
f 239 241 240
f 239 308 241
f 244 315 246
f 239 307 308
f 238 306 242
f 238 305 306
f 235 305 238
f 235 304 305
f 235 303 304
f 234 303 235
f 233 288 303
f 232 303 234
f 232 233 303
f 231 302 279
f 231 301 302
f 229 231 230
f 228 299 300
f 239 242 307
f 228 231 229
f 246 315 316
f 247 276 277
f 259 330 331
f 258 330 259
f 258 329 330
f 258 324 329
f 257 328 325
f 257 327 328
f 256 260 326
f 256 327 257
f 256 326 327
f 255 325 263
f 254 325 255
f 254 257 325
f 253 324 258
f 246 316 266
f 253 323 324
f 251 323 253
f 251 322 323
f 250 322 251
f 249 322 250
f 249 321 322
f 249 320 321
f 249 318 320
f 249 319 318
f 248 319 249
f 248 318 319
f 248 317 318
f 247 317 248
f 247 277 317
f 251 253 252
f 259 331 261
f 228 301 231
f 227 298 299
f 212 214 213
f 212 279 214
f 212 231 279
f 210 278 277
f 210 275 278
f 209 277 276
f 209 210 277
f 209 247 211
f 209 276 247
f 208 275 210
f 208 274 275
f 208 273 274
f 206 208 207
f 214 279 215
f 206 273 208
f 204 206 205
f 203 206 204
f 203 272 206
f 203 270 272
f 203 271 270
f 202 271 203
f 202 270 271
f 201 270 202
f 201 269 270
f 201 268 269
f 201 267 268
f 201 266 267
f 199 201 200
f 206 272 273
f 228 300 301
f 215 279 280
f 215 281 282
f 227 299 228
f 225 298 227
f 225 297 298
f 225 296 297
f 225 295 296
f 225 294 295
f 225 227 226
f 224 294 225
f 224 293 294
f 223 293 224
f 223 292 293
f 223 291 292
f 222 291 223
f 215 280 281
f 221 288 233
f 220 289 290
f 220 287 289
f 220 288 221
f 219 287 220
f 219 286 287
f 218 286 219
f 218 285 286
f 217 285 218
f 217 284 285
f 215 217 216
f 215 284 217
f 215 283 284
f 215 282 283
f 220 290 288
f 260 261 332
f 260 332 333
f 260 333 334
f 308 378 310
f 307 379 378
f 307 309 379
f 307 378 308
f 306 377 309
f 305 377 306
f 305 376 377
f 304 376 305
f 304 366 376
f 303 366 304
f 300 302 301
f 299 355 300
f 297 373 374
f 309 377 380
f 297 356 298
f 297 374 375
f 296 373 297
f 295 373 296
f 294 373 295
f 293 373 294
f 293 372 373
f 293 371 372
f 292 371 293
f 292 370 371
f 292 369 370
f 292 368 369
f 291 368 292
f 290 367 365
f 297 375 356
f 290 364 367
f 309 380 381
f 310 378 382
f 326 334 397
f 326 396 327
f 324 395 329
f 324 394 395
f 324 393 394
f 323 393 324
f 322 393 323
f 322 392 393
f 321 392 322
f 321 391 392
f 321 390 391
f 320 390 321
f 320 389 390
f 309 381 379
f 318 389 320
f 316 388 343
f 316 387 388
f 315 387 316
f 315 386 387
f 315 385 386
f 313 384 385
f 313 315 314
f 313 385 315
f 311 383 384
f 311 313 312
f 311 384 313
f 310 383 311
f 310 382 383
f 318 353 389
f 289 364 290
f 288 366 303
f 288 365 366
f 272 350 273
f 272 349 350
f 270 349 272
f 270 348 349
f 269 348 270
f 269 347 348
f 268 347 269
f 268 344 347
f 267 346 344
f 267 345 346
f 267 343 345
f 267 344 268
f 266 343 267
f 273 350 351
f 266 316 343
f 265 339 342
f 264 341 339
f 264 340 341
f 264 338 340
f 264 339 265
f 263 338 264
f 263 337 338
f 263 328 337
f 263 325 328
f 262 265 336
f 261 335 332
f 261 331 335
f 260 334 326
f 265 342 336
f 273 351 274
f 274 351 352
f 274 352 275
f 288 290 365
f 287 364 289
f 287 363 364
f 287 362 363
f 286 362 287
f 286 361 362
f 285 361 286
f 285 360 361
f 284 360 285
f 284 359 360
f 284 358 359
f 283 358 284
f 283 357 358
f 283 356 357
f 282 356 283
f 281 299 298
f 281 356 282
f 281 298 356
f 280 299 281
f 280 355 299
f 280 300 355
f 279 300 280
f 279 302 300
f 278 354 353
f 278 352 354
f 277 318 317
f 277 353 318
f 277 278 353
f 275 352 278
f 327 396 328
f 1024 1029 1028
