# https://github.com/mikedh/trimesh
v 0.00338048 0.00264673 0.00135331 0.54509804 0.71372549 0.60000000
v 0.00388979 0.00309401 0.00133027 0.54509804 0.71372549 0.60000000
v 0.00319391 0.00289462 0.00134035 0.54509804 0.71372549 0.60000000
v 0.00307189 0.00303653 0.00132883 0.54509804 0.71372549 0.60000000
v 0.00398529 0.00149351 0.00132163 0.54509804 0.71372549 0.60000000
v 0.00374478 0.00203419 0.00134899 0.54509804 0.71372549 0.60000000
v 0.00368289 0.00215275 0.00135187 0.54509804 0.71372549 0.60000000
v 0.00398529 0.00317484 0.00132595 0.54509804 0.71372549 0.60000000
v 0.00398529 0.00409454 0.00126116 0.54509804 0.71372549 0.60000000
v 0.00288355 0.00322514 0.00130292 0.54509804 0.71372549 0.60000000
v 0.00276595 0.00332573 0.00128420 0.54509804 0.71372549 0.60000000
v 0.00372356 0.00407299 0.00125972 0.54509804 0.71372549 0.60000000
v -0.00484715 -0.00193741 -0.00245078 0.54509804 0.71372549 0.60000000
v -0.00052245 -0.00737479 -0.00245078 0.54509804 0.71372549 0.60000000
v -0.00004939 -0.00778793 -0.00245078 0.54509804 0.71372549 0.60000000
v 0.00053950 -0.00800708 -0.00245078 0.54509804 0.71372549 0.60000000
v 0.00116729 -0.00800529 -0.00245078 0.54509804 0.71372549 0.60000000
v 0.00175441 -0.00778075 -0.00245078 0.54509804 0.71372549 0.60000000
v 0.00193656 -0.00765321 -0.00245078 0.54509804 0.71372549 0.60000000
v 0.00398529 -0.00602397 -0.00245078 0.54509804 0.71372549 0.60000000
v 0.00398529 0.00158692 0.00132595 0.54509804 0.71372549 0.60000000
v 0.00396141 0.00155997 0.00132595 0.54509804 0.71372549 0.60000000
v 0.00240785 0.00357002 0.00121220 0.54509804 0.71372549 0.60000000
v 0.00398529 0.00219227 0.00133315 0.54509804 0.71372549 0.60000000
v 0.00398529 0.00237010 0.00133459 0.54509804 0.71372549 0.60000000
v 0.00398529 0.00428495 0.00124676 0.54509804 0.71372549 0.60000000
v 0.00377219 0.00485437 0.00114885 0.54509804 0.71372549 0.60000000
v 0.00298170 0.00418615 0.00117621 0.54509804 0.71372549 0.60000000
v 0.00398529 0.00502861 0.00113877 0.54509804 0.71372549 0.60000000
v -0.00487191 -0.00184221 -0.00245078 0.54509804 0.71372549 0.60000000
v -0.00484715 -0.00193741 -0.00954925 0.54509804 0.71372549 0.60000000
v -0.00472513 -0.00233619 -0.00939519 0.54509804 0.71372549 0.60000000
v -0.00448816 -0.00292537 -0.00278483 0.54509804 0.71372549 0.60000000
v -0.00374542 -0.00412529 -0.00295041 0.54509804 0.71372549 0.60000000
v 0.00231235 0.00362571 0.00118917 0.54509804 0.71372549 0.60000000
v 0.00202940 0.00380354 0.00110710 0.54509804 0.71372549 0.60000000
v -0.00091239 -0.00768554 -0.00295041 0.54509804 0.71372549 0.60000000
v -0.00030493 -0.00821725 -0.00295041 0.54509804 0.71372549 0.60000000
v -0.00024304 -0.00825317 -0.00295041 0.54509804 0.71372549 0.60000000
v 0.00045107 -0.00849927 -0.00295041 0.54509804 0.71372549 0.60000000
v 0.00059343 -0.00852082 -0.00295041 0.54509804 0.71372549 0.60000000
v 0.00125925 -0.00849567 -0.00295041 0.54509804 0.71372549 0.60000000
v 0.00146792 -0.00844717 -0.00295041 0.54509804 0.71372549 0.60000000
v 0.00201348 -0.00820827 -0.00295041 0.54509804 0.71372549 0.60000000
v 0.00224869 -0.00804480 -0.00295041 0.54509804 0.71372549 0.60000000
v 0.00398529 -0.00666345 -0.00295041 0.54509804 0.71372549 0.60000000
v 0.00398529 0.00574174 0.00098039 0.54509804 0.71372549 0.60000000
v 0.00363867 0.00542021 0.00100487 0.54509804 0.71372549 0.60000000
v 0.00282166 0.00469989 0.00103654 0.54509804 0.71372549 0.60000000
v -0.00504698 -0.00057582 -0.00245078 0.54509804 0.71372549 0.60000000
v -0.00487191 -0.00184221 -0.00954925 0.54509804 0.71372549 0.60000000
v 0.00188350 0.00390054 0.00105526 0.54509804 0.71372549 0.60000000
v 0.00398529 0.00147734 -0.01331879 0.54509804 0.71372549 0.60000000
v -0.00052245 -0.00737479 -0.00954925 0.54509804 0.71372549 0.60000000
v -0.00374542 -0.00412529 -0.00904962 0.54509804 0.71372549 0.60000000
v -0.00431132 -0.00327385 -0.00913602 0.54509804 0.71372549 0.60000000
v -0.00443245 -0.00304033 -0.00918641 0.54509804 0.71372549 0.60000000
v 0.00177475 0.00397599 -0.01301210 0.54509804 0.71372549 0.60000000
v 0.00225311 0.00366164 -0.01317336 0.54509804 0.71372549 0.60000000
v 0.00240785 0.00357002 -0.01321224 0.54509804 0.71372549 0.60000000
v -0.00443069 -0.00304392 -0.00445074 0.54509804 0.71372549 0.60000000
v -0.00396470 -0.00383070 -0.00293889 0.54509804 0.71372549 0.60000000
v -0.00091239 -0.00768554 -0.00904962 0.54509804 0.71372549 0.60000000
v -0.00024304 -0.00825317 -0.00904962 0.54509804 0.71372549 0.60000000
v 0.00059343 -0.00852082 -0.00904962 0.54509804 0.71372549 0.60000000
v 0.00146792 -0.00844717 -0.00904962 0.54509804 0.71372549 0.60000000
v 0.00224869 -0.00804480 -0.00904962 0.54509804 0.71372549 0.60000000
v 0.00398529 -0.00666345 -0.00904962 0.54509804 0.71372549 0.60000000
v 0.00398529 0.00603993 0.00088824 0.54509804 0.71372549 0.60000000
v 0.00351223 0.00592317 0.00082056 0.54509804 0.71372549 0.60000000
v 0.00178182 0.00436937 0.00088824 0.54509804 0.71372549 0.60000000
v 0.00266957 0.00515974 0.00085800 0.54509804 0.71372549 0.60000000
v -0.00495060 0.00069955 -0.00245078 0.54509804 0.71372549 0.60000000
v -0.00504698 -0.00057582 -0.00954925 0.54509804 0.71372549 0.60000000
v 0.00143167 0.00422926 0.00084216 0.54509804 0.71372549 0.60000000
v 0.00382082 0.00187971 -0.01334327 0.54509804 0.71372549 0.60000000
v 0.00398529 0.00198390 -0.01333463 0.54509804 0.71372549 0.60000000
v 0.00398529 -0.00602397 -0.00954925 0.54509804 0.71372549 0.60000000
v 0.00193656 -0.00765321 -0.00954925 0.54509804 0.71372549 0.60000000
v 0.00132998 -0.00796577 -0.00954925 0.54509804 0.71372549 0.60000000
v 0.00064914 -0.00802325 -0.00954925 0.54509804 0.71372549 0.60000000
v -0.00000076 -0.00781488 -0.00954925 0.54509804 0.71372549 0.60000000
v 0.00276595 0.00332573 -0.01328423 0.54509804 0.71372549 0.60000000
v 0.00320187 0.00288384 -0.01334183 0.54509804 0.71372549 0.60000000
v 0.00350427 0.00245992 -0.01335622 0.54509804 0.71372549 0.60000000
v -0.00443069 -0.00304392 -0.00754930 0.54509804 0.71372549 0.60000000
v 0.00134236 0.00429932 -0.01278892 0.54509804 0.71372549 0.60000000
v 0.00178182 0.00436937 -0.01288827 0.54509804 0.71372549 0.60000000
v 0.00266957 0.00515974 -0.01285803 0.54509804 0.71372549 0.60000000
v 0.00282166 0.00469989 -0.01303658 0.54509804 0.71372549 0.60000000
v 0.00197281 0.00396341 -0.01305673 0.54509804 0.71372549 0.60000000
v 0.00298170 0.00418615 -0.01317624 0.54509804 0.71372549 0.60000000
v 0.00398529 -0.00655927 -0.00913170 0.54509804 0.71372549 0.60000000
v 0.00398529 0.00632194 0.00080041 0.54509804 0.71372549 0.60000000
v 0.00339551 0.00636865 0.00060027 0.54509804 0.71372549 0.60000000
v -0.00458542 0.00192462 -0.00245078 0.54509804 0.71372549 0.60000000
v -0.00495060 0.00069955 -0.00954925 0.54509804 0.71372549 0.60000000
v 0.00104792 0.00454541 0.00057291 0.54509804 0.71372549 0.60000000
v 0.00160321 0.00473761 0.00068666 0.54509804 0.71372549 0.60000000
v 0.00374478 0.00203419 -0.01334902 0.54509804 0.71372549 0.60000000
v 0.00398529 0.00210605 -0.01333607 0.54509804 0.71372549 0.60000000
v 0.00288355 0.00322514 -0.01330295 0.54509804 0.71372549 0.60000000
v 0.00377219 0.00485437 -0.01314889 0.54509804 0.71372549 0.60000000
v 0.00372356 0.00407299 -0.01325975 0.54509804 0.71372549 0.60000000
v 0.00398529 0.00428495 -0.01324680 0.54509804 0.71372549 0.60000000
v 0.00398529 0.00317484 -0.01332599 0.54509804 0.71372549 0.60000000
v 0.00388979 0.00309401 -0.01333031 0.54509804 0.71372549 0.60000000
v 0.00398529 0.00290360 -0.01333175 0.54509804 0.71372549 0.60000000
v 0.00398529 0.00261979 -0.01333751 0.54509804 0.71372549 0.60000000
v 0.00097718 0.00460649 -0.01251103 0.54509804 0.71372549 0.60000000
v 0.00160321 0.00473761 -0.01268669 0.54509804 0.71372549 0.60000000
v 0.00339551 0.00636865 -0.01260030 0.54509804 0.71372549 0.60000000
v 0.00351223 0.00592317 -0.01282060 0.54509804 0.71372549 0.60000000
v 0.00363867 0.00542021 -0.01300490 0.54509804 0.71372549 0.60000000
v 0.00398529 0.00651954 0.00071834 0.54509804 0.71372549 0.60000000
v 0.00398529 0.00695604 0.00053547 0.54509804 0.71372549 0.60000000
v 0.00328941 0.00675844 0.00034685 0.54509804 0.71372549 0.60000000
v -0.00458542 0.00192462 -0.00954925 0.54509804 0.71372549 0.60000000
v 0.00072783 0.00483641 0.00024894 0.54509804 0.71372549 0.60000000
v -0.00396824 0.00304551 -0.00245078 0.54509804 0.71372549 0.60000000
v 0.00398529 0.00245273 -0.01333751 0.54509804 0.71372549 0.60000000
v 0.00398529 0.00521543 -0.01309993 0.54509804 0.71372549 0.60000000
v 0.00398529 0.00502861 -0.01313881 0.54509804 0.71372549 0.60000000
v 0.00068628 0.00487773 -0.01219714 0.54509804 0.71372549 0.60000000
v 0.00328941 0.00675844 -0.01234545 0.54509804 0.71372549 0.60000000
v 0.00398529 0.00736739 -0.01231377 0.54509804 0.71372549 0.60000000
v 0.00398529 0.00728835 -0.01235553 0.54509804 0.71372549 0.60000000
v 0.00398529 0.00687341 -0.01257438 0.54509804 0.71372549 0.60000000
v 0.00398529 0.00683209 -0.01259454 0.54509804 0.71372549 0.60000000
v 0.00398529 0.00602196 -0.01289403 0.54509804 0.71372549 0.60000000
v 0.00398529 0.00665246 -0.01266797 0.54509804 0.71372549 0.60000000
v 0.00398529 0.00632194 -0.01280044 0.54509804 0.71372549 0.60000000
v 0.00398529 0.00566989 -0.01299914 0.54509804 0.71372549 0.60000000
v 0.00398529 0.00706561 0.00047644 0.54509804 0.71372549 0.60000000
v 0.00398529 0.00736739 0.00031374 0.54509804 0.71372549 0.60000000
v -0.00396824 0.00304551 -0.00954925 0.54509804 0.71372549 0.60000000
v 0.00045550 0.00510945 -0.00014558 0.54509804 0.71372549 0.60000000
v 0.00397733 0.00788831 -0.00005055 0.54509804 0.71372549 0.60000000
v -0.00312735 0.00401012 -0.00245078 0.54509804 0.71372549 0.60000000
v 0.00044135 0.00512382 -0.01182998 0.54509804 0.71372549 0.60000000
v 0.00398529 0.00780568 -0.01201716 0.54509804 0.71372549 0.60000000
v 0.00398529 0.00779850 -0.01202292 0.54509804 0.71372549 0.60000000
v 0.00398529 0.00786316 -0.00002895 0.54509804 0.71372549 0.60000000
v -0.00312735 0.00401012 -0.00954925 0.54509804 0.71372549 0.60000000
v 0.00024417 0.00533758 -0.00059049 0.54509804 0.71372549 0.60000000
v 0.00398529 0.00850803 -0.00064952 0.54509804 0.71372549 0.60000000
v 0.00398529 0.00789190 -0.00004911 0.54509804 0.71372549 0.60000000
v 0.00398529 0.00789909 -0.00005487 0.54509804 0.71372549 0.60000000
v 0.00398529 0.00858168 -0.00074311 0.54509804 0.71372549 0.60000000
v 0.00398529 0.00903075 -0.00140833 0.54509804 0.71372549 0.60000000
v 0.00398529 0.00907746 -0.00150192 0.54509804 0.71372549 0.60000000
v 0.00398529 0.00939720 -0.00222616 0.54509804 0.71372549 0.60000000
v 0.00398529 0.00942594 -0.00232551 0.54509804 0.71372549 0.60000000
v 0.00398529 0.00962533 -0.00306704 0.54509804 0.71372549 0.60000000
v 0.00398529 0.00965407 -0.00325566 0.54509804 0.71372549 0.60000000
v 0.00398529 0.00972592 -0.00390503 0.54509804 0.71372549 0.60000000
v 0.00398529 0.00983010 -0.00600002 0.54509804 0.71372549 0.60000000
v 0.00023798 0.00534476 -0.01139226 0.54509804 0.71372549 0.60000000
v 0.00398529 0.00850803 -0.01135051 0.54509804 0.71372549 0.60000000
v 0.00390571 0.00811285 -0.01170183 0.54509804 0.71372549 0.60000000
v 0.00398529 0.00786316 -0.01196965 0.54509804 0.71372549 0.60000000
v 0.00398529 0.00972592 -0.00809500 0.54509804 0.71372549 0.60000000
v 0.00398529 0.00965407 -0.00874438 0.54509804 0.71372549 0.60000000
v 0.00398529 0.00962533 -0.00893300 0.54509804 0.71372549 0.60000000
v 0.00398529 0.00960557 -0.00901939 0.54509804 0.71372549 0.60000000
v 0.00398529 0.00942055 -0.00969612 0.54509804 0.71372549 0.60000000
v 0.00398529 0.00939720 -0.00977387 0.54509804 0.71372549 0.60000000
v 0.00398529 0.00929660 -0.01001865 0.54509804 0.71372549 0.60000000
v 0.00398529 0.00905590 -0.01054419 0.54509804 0.71372549 0.60000000
v 0.00398529 0.00903075 -0.01059171 0.54509804 0.71372549 0.60000000
v 0.00398529 0.00870203 -0.01107982 0.54509804 0.71372549 0.60000000
v 0.00398529 0.00817931 -0.01169751 0.54509804 0.71372549 0.60000000
f 1 2 3
f 78 93 79
f 76 85 100
f 76 101 77
f 76 100 101
f 75 99 98
f 75 95 99
f 74 97 87
f 73 98 96
f 73 75 98
f 73 118 97
f 73 96 118
f 71 72 75
f 70 95 75
f 70 94 95
f 70 75 72
f 69 94 70
f 67 93 68
f 83 102 84
f 67 79 93
f 83 92 103
f 83 104 102
f 90 113 114
f 89 113 90
f 87 97 110
f 87 89 88
f 87 113 89
f 87 112 113
f 87 111 112
f 87 110 111
f 85 109 100
f 85 108 109
f 85 106 108
f 85 107 106
f 84 107 85
f 84 106 107
f 84 105 106
f 84 104 105
f 84 102 104
f 83 103 104
f 66 79 67
f 66 80 79
f 66 81 80
f 53 84 85
f 53 83 84
f 53 60 83
f 53 82 54
f 53 81 82
f 53 80 81
f 53 79 80
f 53 78 79
f 53 76 77
f 52 71 75
f 51 74 58
f 50 75 73
f 50 52 75
f 50 97 74
f 50 73 97
f 49 72 71
f 49 70 72
f 53 85 76
f 54 82 64
f 54 64 63
f 54 63 55
f 65 81 66
f 64 81 65
f 64 82 81
f 60 92 83
f 59 92 60
f 59 90 92
f 59 91 90
f 58 74 87
f 90 114 92
f 58 91 59
f 58 89 90
f 58 88 89
f 58 87 88
f 57 86 61
f 56 62 61
f 56 86 57
f 56 61 86
f 55 62 56
f 58 90 91
f 92 114 103
f 94 115 95
f 95 115 116
f 139 154 155
f 139 153 154
f 139 152 153
f 139 151 152
f 139 150 151
f 139 149 150
f 139 146 149
f 139 145 146
f 138 148 146
f 138 147 148
f 138 143 147
f 137 146 145
f 137 138 146
f 137 145 139
f 136 144 140
f 135 143 138
f 124 126 125
f 139 155 156
f 139 156 157
f 139 157 144
f 140 144 158
f 160 172 161
f 159 172 160
f 144 159 158
f 144 171 159
f 144 170 171
f 144 169 170
f 144 168 169
f 144 167 168
f 124 142 126
f 144 166 167
f 144 164 165
f 144 163 164
f 144 162 163
f 144 157 162
f 140 161 141
f 140 160 161
f 140 159 160
f 140 158 159
f 144 165 166
f 49 71 52
f 124 141 142
f 120 144 136
f 110 125 112
f 110 124 125
f 104 123 105
f 103 123 104
f 103 122 123
f 103 114 122
f 100 121 101
f 100 109 121
f 98 117 119
f 97 118 110
f 96 136 118
f 96 120 136
f 96 119 120
f 96 98 119
f 95 98 99
f 95 117 98
f 95 116 117
f 110 112 111
f 110 118 124
f 112 125 126
f 112 126 127
f 120 139 144
f 120 137 139
f 119 138 137
f 119 135 138
f 119 137 120
f 118 136 124
f 117 135 119
f 117 134 135
f 124 140 141
f 116 134 117
f 114 130 133
f 113 132 130
f 113 131 132
f 113 129 131
f 113 130 114
f 112 129 113
f 112 128 129
f 112 127 128
f 114 133 122
f 48 70 49
f 124 136 140
f 47 69 48
f 5 156 155
f 5 157 156
f 5 162 157
f 5 163 162
f 5 164 163
f 5 165 164
f 5 166 165
f 5 167 166
f 5 168 167
f 5 169 168
f 5 170 169
f 5 171 170
f 5 159 171
f 5 172 159
f 5 161 172
f 5 141 161
f 5 142 141
f 5 155 154
f 5 126 142
f 5 154 153
f 5 152 151
f 5 9 8
f 5 26 9
f 5 29 26
f 5 47 29
f 5 69 47
f 5 94 69
f 5 115 94
f 5 116 115
f 5 134 116
f 5 135 134
f 5 143 135
f 5 147 143
f 5 148 147
f 5 146 148
f 5 149 146
f 5 150 149
f 5 151 150
f 5 153 152
f 5 127 126
f 5 128 127
f 5 129 128
f 5 15 16
f 5 14 15
f 5 13 14
f 4 12 10
f 4 9 12
f 4 11 5
f 4 10 11
f 3 9 4
f 3 8 9
f 2 8 3
f 2 7 8
f 1 7 2
f 1 6 7
f 1 5 6
f 1 4 5
f 1 3 4
f 48 69 70
f 5 16 17
f 5 17 18
f 5 18 19
f 5 19 20
f 5 131 129
f 5 132 131
f 5 130 132
f 5 133 130
f 5 122 133
f 5 123 122
f 5 105 123
f 5 106 105
f 5 8 25
f 5 108 106
f 5 121 109
f 5 101 121
f 5 77 101
f 5 53 77
f 5 78 53
f 5 93 78
f 5 68 93
f 5 20 46
f 5 109 108
f 5 25 24
f 5 46 68
f 5 21 22
f 31 60 53
f 31 59 60
f 31 58 59
f 31 51 58
f 31 57 32
f 31 56 57
f 31 55 56
f 31 54 55
f 31 53 54
f 30 52 50
f 30 36 52
f 30 74 51
f 30 50 74
f 28 48 49
f 28 36 35
f 28 49 36
f 27 48 28
f 32 57 33
f 33 57 61
f 33 61 62
f 33 62 34
f 45 68 46
f 5 24 21
f 45 67 68
f 44 67 45
f 44 66 67
f 43 66 44
f 42 66 43
f 42 65 66
f 27 47 48
f 41 65 42
f 40 65 41
f 39 64 40
f 38 63 64
f 37 63 38
f 36 49 52
f 34 63 37
f 34 55 63
f 34 62 55
f 40 64 65
f 27 29 47
f 38 64 39
f 7 25 8
f 13 32 33
f 13 31 32
f 13 51 31
f 12 29 27
f 12 26 29
f 11 28 23
f 11 27 28
f 11 12 27
f 13 33 34
f 10 12 11
f 6 21 24
f 6 22 21
f 6 25 7
f 6 24 25
f 5 23 13
f 5 11 23
f 5 22 6
f 23 28 35
f 9 26 12
f 13 34 14
f 13 30 51
f 17 42 43
f 18 44 45
f 18 43 44
f 17 43 18
f 13 23 35
f 17 41 42
f 19 45 20
f 16 41 17
f 16 39 40
f 16 40 41
f 15 38 39
f 14 38 15
f 14 37 38
f 20 45 46
f 14 34 37
f 13 36 30
f 13 35 36
f 15 39 16
f 18 45 19
