# https://github.com/mikedh/trimesh
v -0.00313223 0.00585593 -0.00227765 0.54509804 0.71372549 0.60000000
v 0.00570081 -0.00025176 -0.00275111 0.54509804 0.71372549 0.60000000
v 0.00514307 0.00101018 -0.00275111 0.54509804 0.71372549 0.60000000
v 0.00437585 0.00215831 -0.00275111 0.54509804 0.71372549 0.60000000
v 0.00342362 0.00315705 -0.00275111 0.54509804 0.71372549 0.60000000
v 0.00231269 0.00397795 -0.00275111 0.54509804 0.71372549 0.60000000
v 0.00107933 0.00459541 -0.00275111 0.54509804 0.71372549 0.60000000
v 0.00036562 0.00484011 -0.00275111 0.54509804 0.71372549 0.60000000
v -0.00289281 0.00578764 -0.00244407 0.54509804 0.71372549 0.60000000
v -0.00313223 0.00585593 -0.01425000 0.54509804 0.71372549 0.60000000
v -0.00313223 -0.00438331 -0.00275111 0.54509804 0.71372549 0.60000000
v -0.00120238 -0.00772099 -0.00275111 0.54509804 0.71372549 0.60000000
v 0.00167697 -0.00855754 -0.00275111 0.54509804 0.71372549 0.60000000
v 0.00245145 -0.00867563 -0.00275111 0.54509804 0.71372549 0.60000000
v 0.00322955 -0.00859026 -0.00275111 0.54509804 0.71372549 0.60000000
v 0.00395959 -0.00830572 -0.00275111 0.54509804 0.71372549 0.60000000
v 0.00459078 -0.00784192 -0.00275111 0.54509804 0.71372549 0.60000000
v 0.00508050 -0.00723158 -0.00275111 0.54509804 0.71372549 0.60000000
v 0.00539519 -0.00651453 -0.00275111 0.54509804 0.71372549 0.60000000
v 0.00581417 -0.00507333 -0.00275111 0.54509804 0.71372549 0.60000000
v 0.00599010 -0.00434063 -0.00275111 0.54509804 0.71372549 0.60000000
v 0.00613158 -0.00296772 -0.00275111 0.54509804 0.71372549 0.60000000
v 0.00603363 -0.00159053 -0.00275111 0.54509804 0.71372549 0.60000000
v 0.00570081 -0.00025176 -0.01425000 0.54509804 0.71372549 0.60000000
v 0.00514307 0.00101018 -0.01425000 0.54509804 0.71372549 0.60000000
v 0.00437585 0.00215831 -0.01425000 0.54509804 0.71372549 0.60000000
v 0.00342362 0.00315705 -0.01425000 0.54509804 0.71372549 0.60000000
v 0.00231269 0.00397795 -0.01425000 0.54509804 0.71372549 0.60000000
v 0.00221475 0.00403771 -0.00625047 0.54509804 0.71372549 0.60000000
v 0.00190097 0.00421412 -0.00627390 0.54509804 0.71372549 0.60000000
v 0.00172957 0.00430233 -0.00630789 0.54509804 0.71372549 0.60000000
v 0.00155091 0.00439054 -0.00635711 0.54509804 0.71372549 0.60000000
v 0.00120992 0.00454277 -0.00649774 0.54509804 0.71372549 0.60000000
v 0.00107933 0.00459541 -0.01425000 0.54509804 0.71372549 0.60000000
v 0.00094239 0.00464805 -0.01104480 0.54509804 0.71372549 0.60000000
v 0.00091065 0.00465943 -0.00667704 0.54509804 0.71372549 0.60000000
v 0.00063043 0.00475760 -0.00690323 0.54509804 0.71372549 0.60000000
v 0.00052069 0.00479316 -0.00701221 0.54509804 0.71372549 0.60000000
v 0.00036562 0.00484011 -0.01425000 0.54509804 0.71372549 0.60000000
v 0.00009264 0.00491979 -0.00760989 0.54509804 0.71372549 0.60000000
v -0.00162499 0.00541916 -0.00275111 0.54509804 0.71372549 0.60000000
v 0.00009264 0.00491979 -0.01008968 0.54509804 0.71372549 0.60000000
v -0.00313223 -0.00438331 -0.01425000 0.54509804 0.71372549 0.60000000
v -0.00120238 -0.00772099 -0.01425000 0.54509804 0.71372549 0.60000000
v 0.00167697 -0.00855754 -0.01425000 0.54509804 0.71372549 0.60000000
v 0.00245145 -0.00867563 -0.01425000 0.54509804 0.71372549 0.60000000
v 0.00322955 -0.00859026 -0.01425000 0.54509804 0.71372549 0.60000000
v 0.00395959 -0.00830572 -0.01425000 0.54509804 0.71372549 0.60000000
v 0.00459078 -0.00784192 -0.01425000 0.54509804 0.71372549 0.60000000
v 0.00508050 -0.00723158 -0.01425000 0.54509804 0.71372549 0.60000000
v 0.00539519 -0.00651453 -0.01425000 0.54509804 0.71372549 0.60000000
v 0.00581417 -0.00507333 -0.01425000 0.54509804 0.71372549 0.60000000
v 0.00599010 -0.00434063 -0.01425000 0.54509804 0.71372549 0.60000000
v 0.00613158 -0.00296772 -0.01425000 0.54509804 0.71372549 0.60000000
v 0.00603363 -0.00159053 -0.01425000 0.54509804 0.71372549 0.60000000
v 0.00161802 0.00435782 -0.01136356 0.54509804 0.71372549 0.60000000
v 0.00196082 0.00418140 -0.01143387 0.54509804 0.71372549 0.60000000
v 0.00221475 0.00403771 -0.01144911 0.54509804 0.71372549 0.60000000
v 0.00127341 0.00451574 -0.01123347 0.54509804 0.71372549 0.60000000
v 0.00063768 0.00475475 -0.01080338 0.54509804 0.71372549 0.60000000
v 0.00052069 0.00479316 -0.01068853 0.54509804 0.71372549 0.60000000
f 1 2 3
f 17 49 50
f 16 49 17
f 16 48 49
f 15 48 16
f 15 47 48
f 14 47 15
f 14 46 47
f 13 46 14
f 13 45 46
f 12 45 13
f 12 44 45
f 11 44 12
f 17 50 18
f 11 43 44
f 10 45 44
f 10 46 45
f 10 47 46
f 10 48 47
f 10 49 48
f 10 50 49
f 10 51 50
f 10 52 51
f 10 53 52
f 10 54 53
f 10 55 54
f 10 24 55
f 10 44 43
f 10 25 24
f 18 50 51
f 19 51 52
f 40 42 41
f 39 61 60
f 37 61 38
f 37 60 61
f 35 37 36
f 35 60 37
f 34 59 56
f 34 60 35
f 34 39 60
f 33 59 34
f 32 59 33
f 32 56 59
f 18 51 19
f 31 56 32
f 30 57 31
f 29 57 30
f 29 58 57
f 28 57 58
f 28 34 56
f 22 55 23
f 22 54 55
f 21 54 22
f 21 53 54
f 20 53 21
f 20 52 53
f 19 52 20
f 31 57 56
f 10 26 25
f 28 56 57
f 10 28 27
f 2 55 24
f 2 23 55
f 2 25 3
f 2 24 25
f 1 23 2
f 1 22 23
f 1 21 22
f 1 20 21
f 1 19 20
f 1 18 19
f 1 17 18
f 1 16 17
f 3 25 26
f 1 15 16
f 1 13 14
f 1 12 13
f 1 43 11
f 1 10 43
f 1 9 10
f 1 8 9
f 1 7 8
f 1 6 7
f 1 5 6
f 1 4 5
f 1 3 4
f 10 27 26
f 1 14 15
f 3 26 4
f 1 11 12
f 4 27 5
f 10 34 28
f 4 26 27
f 10 39 34
f 9 39 10
f 9 42 39
f 9 41 42
f 8 40 41
f 8 42 40
f 8 39 42
f 8 61 39
f 8 38 61
f 8 37 38
f 7 37 8
f 8 41 9
f 7 35 36
f 5 28 6
f 5 27 28
f 7 36 37
f 6 28 58
f 6 58 29
f 6 30 31
f 6 29 30
f 7 31 32
f 7 32 33
f 7 33 34
f 7 34 35
f 6 31 7
