# https://github.com/mikedh/trimesh
v -0.01012243 0.00516677 -0.00601094 0.54117647 0.42352941 0.64313725
v -0.01012243 0.00516677 -0.00600185 0.54117647 0.42352941 0.64313725
v -0.01008693 0.00729855 -0.00600814 0.54117647 0.42352941 0.64313725
v -0.01005769 0.00729413 -0.00750435 0.54117647 0.42352941 0.64313725
v -0.01002010 0.00728528 -0.00822972 0.54117647 0.42352941 0.64313725
v -0.01000966 0.00514908 -0.00818145 0.54117647 0.42352941 0.64313725
v -0.00956484 -0.00039264 -0.01038485 0.54117647 0.42352941 0.64313725
v -0.00945833 -0.00147180 -0.01041283 0.54117647 0.42352941 0.64313725
v -0.01008693 0.00729855 -0.00600185 0.54117647 0.42352941 0.64313725
v -0.00923071 -0.00252884 -0.01044081 0.54117647 0.42352941 0.64313725
v -0.00890075 -0.00351069 -0.01046739 0.54117647 0.42352941 0.64313725
v -0.00844549 -0.00449255 -0.01049397 0.54117647 0.42352941 0.64313725
v -0.00791714 -0.00536825 -0.01051775 0.54117647 0.42352941 0.64313725
v -0.00725304 -0.00623512 -0.01054223 0.54117647 0.42352941 0.64313725
v -0.00656598 -0.00695603 -0.01056252 0.54117647 0.42352941 0.64313725
v -0.00219090 -0.00239616 -0.00600185 0.54117647 0.42352941 0.64313725
v -0.00611698 0.03289752 -0.00959932 0.54117647 0.42352941 0.64313725
v -0.01002428 0.00728970 -0.00814858 0.54117647 0.42352941 0.64313725
v -0.00610445 0.03238005 -0.01152571 0.54117647 0.42352941 0.64313725
v -0.01001801 0.00728528 -0.00824931 0.54117647 0.42352941 0.64313725
v -0.00998460 0.00728086 -0.00853819 0.54117647 0.42352941 0.64313725
v -0.00991359 0.00513581 -0.00887465 0.54117647 0.42352941 0.64313725
v -0.00954605 -0.00022900 -0.01084371 0.54117647 0.42352941 0.64313725
v -0.00955649 -0.00031303 -0.01061498 0.54117647 0.42352941 0.64313725
v -0.00946878 -0.00114451 -0.01104377 0.54117647 0.42352941 0.64313725
v -0.00929336 -0.00208214 -0.01132496 0.54117647 0.42352941 0.64313725
v -0.00895087 0.01390174 -0.00600185 0.54117647 0.42352941 0.64313725
v -0.00896966 -0.00314360 -0.01169359 0.54117647 0.42352941 0.64313725
v -0.00856870 -0.00407238 -0.01202795 0.54117647 0.42352941 0.64313725
v -0.00807794 -0.00494367 -0.01232733 0.54117647 0.42352941 0.64313725
v -0.00754541 -0.00570438 -0.01256166 0.54117647 0.42352941 0.64313725
v -0.00693144 -0.00642087 -0.01274492 0.54117647 0.42352941 0.64313725
v -0.00675184 -0.00660663 -0.01278410 0.54117647 0.42352941 0.64313725
v -0.00624646 -0.00707986 -0.01286943 0.54117647 0.42352941 0.64313725
v -0.00606686 -0.00723466 -0.01289322 0.54117647 0.42352941 0.64313725
v -0.00575152 -0.00764156 -0.01058210 0.54117647 0.42352941 0.64313725
v 0.00283993 -0.00799980 -0.00705038 0.54117647 0.42352941 0.64313725
v 0.00762641 -0.00765482 -0.00600185 0.54117647 0.42352941 0.64313725
v -0.00834734 0.01690480 -0.00600185 0.54117647 0.42352941 0.64313725
v -0.00766027 0.01985478 -0.00600185 0.54117647 0.42352941 0.64313725
v -0.00695441 0.02253498 -0.00600185 0.54117647 0.42352941 0.64313725
v -0.00651168 0.02407852 -0.00600185 0.54117647 0.42352941 0.64313725
v -0.00539024 0.02713908 -0.00600185 0.54117647 0.42352941 0.64313725
v -0.00584759 0.03362727 -0.00959932 0.54117647 0.42352941 0.64313725
v -0.00575779 0.03358305 -0.01152571 0.54117647 0.42352941 0.64313725
v -0.00601883 0.03287098 -0.01152571 0.54117647 0.42352941 0.64313725
v -0.00602927 0.03237563 -0.01176494 0.54117647 0.42352941 0.64313725
v -0.00988853 0.00725874 -0.00898727 0.54117647 0.42352941 0.64313725
v -0.00965046 0.00720125 -0.00968326 0.54117647 0.42352941 0.64313725
v -0.00927874 0.00712164 -0.01040233 0.54117647 0.42352941 0.64313725
v -0.00911585 0.00708625 -0.01064785 0.54117647 0.42352941 0.64313725
v -0.00880260 0.00701549 -0.01104656 0.54117647 0.42352941 0.64313725
v -0.00584968 0.03235794 -0.01193701 0.54117647 0.42352941 0.64313725
v -0.00865641 -0.00274113 -0.01189295 0.54117647 0.42352941 0.64313725
v -0.00689385 0.00655552 -0.01241407 0.54117647 0.42352941 0.64313725
v -0.00617755 0.00636977 -0.01268617 0.54117647 0.42352941 0.64313725
v -0.00563666 0.00622824 -0.01283586 0.54117647 0.42352941 0.64313725
v -0.00544662 0.00617517 -0.01287783 0.54117647 0.42352941 0.64313725
v -0.00470526 0.00597172 -0.01299814 0.54117647 0.42352941 0.64313725
v -0.00523361 -0.00785385 -0.01297995 0.54117647 0.42352941 0.64313725
v -0.00462799 0.00594960 -0.01300723 0.54117647 0.42352941 0.64313725
v -0.00490157 -0.00821209 -0.01059889 0.54117647 0.42352941 0.64313725
v -0.00393049 -0.00871629 -0.01061428 0.54117647 0.42352941 0.64313725
v 0.00379221 -0.00837574 -0.00705038 0.54117647 0.42352941 0.64313725
v 0.00481550 -0.00841112 -0.00705038 0.54117647 0.42352941 0.64313725
v 0.00641726 -0.00860572 -0.00832905 0.54117647 0.42352941 0.64313725
v 0.00762850 -0.00765482 -0.00601094 0.54117647 0.42352941 0.64313725
v 0.00800023 -0.00726562 -0.00601094 0.54117647 0.42352941 0.64313725
v 0.00766818 -0.00761060 -0.00600185 0.54117647 0.42352941 0.64313725
v 0.00763268 0.03431723 -0.00600185 0.54117647 0.42352941 0.64313725
v -0.00412470 0.03530350 -0.00959932 0.54117647 0.42352941 0.64313725
v -0.00512920 0.03461355 -0.00959932 0.54117647 0.42352941 0.64313725
v -0.00544871 0.03409166 -0.01152571 0.54117647 0.42352941 0.64313725
v -0.00569096 0.03354766 -0.01176494 0.54117647 0.42352941 0.64313725
v -0.00594574 0.03285329 -0.01176494 0.54117647 0.42352941 0.64313725
v -0.00538815 0.03404744 -0.01176494 0.54117647 0.42352941 0.64313725
v -0.00577032 0.03280906 -0.01193701 0.54117647 0.42352941 0.64313725
v -0.00553434 0.03275157 -0.01199997 0.54117647 0.42352941 0.64313725
v -0.00560743 0.03233140 -0.01199997 0.54117647 0.42352941 0.64313725
v -0.00029259 0.02461810 -0.01304850 0.54117647 0.42352941 0.64313725
v -0.00438157 -0.00835362 -0.01302822 0.54117647 0.42352941 0.64313725
v -0.00323507 0.00554713 -0.01311775 0.54117647 0.42352941 0.64313725
v 0.00039656 0.02430851 -0.01312475 0.54117647 0.42352941 0.64313725
v -0.00338334 -0.00880917 -0.01303871 0.54117647 0.42352941 0.64313725
v -0.00293017 -0.00910107 -0.01062617 0.54117647 0.42352941 0.64313725
v -0.00188809 -0.00937528 -0.01063526 0.54117647 0.42352941 0.64313725
v -0.00083138 -0.00952565 -0.01064156 0.54117647 0.42352941 0.64313725
v 0.00024411 -0.00956104 -0.01064506 0.54117647 0.42352941 0.64313725
v 0.00529582 -0.00942393 -0.01065205 0.54117647 0.42352941 0.64313725
v 0.00635252 -0.00853495 -0.01013933 0.54117647 0.42352941 0.64313725
v 0.00674096 -0.00818998 -0.01004350 0.54117647 0.42352941 0.64313725
v 0.00715862 -0.00793788 -0.00827659 0.54117647 0.42352941 0.64313725
v 0.00741340 -0.00769905 -0.00825840 0.54117647 0.42352941 0.64313725
v 0.00751155 -0.00761060 -0.00819614 0.54117647 0.42352941 0.64313725
v 0.00755541 -0.00757521 -0.00807303 0.54117647 0.42352941 0.64313725
v 0.00791878 -0.00706217 -0.00976650 0.54117647 0.42352941 0.64313725
v 0.00817774 -0.00706660 -0.00600185 0.54117647 0.42352941 0.64313725
v 0.00853693 0.03433934 -0.00600185 0.54117647 0.42352941 0.64313725
v -0.00294479 0.03562194 -0.00959932 0.54117647 0.42352941 0.64313725
v -0.00352117 0.03541407 -0.01152571 0.54117647 0.42352941 0.64313725
v -0.00408085 0.03521062 -0.01152571 0.54117647 0.42352941 0.64313725
v -0.00459876 0.03491872 -0.01152571 0.54117647 0.42352941 0.64313725
v -0.00506028 0.03454279 -0.01152571 0.54117647 0.42352941 0.64313725
v -0.00524197 0.03394129 -0.01193701 0.54117647 0.42352941 0.64313725
v -0.00552807 0.03346805 -0.01193701 0.54117647 0.42352941 0.64313725
v -0.00500598 0.03448529 -0.01176494 0.54117647 0.42352941 0.64313725
v -0.00488068 0.03435703 -0.01193701 0.54117647 0.42352941 0.64313725
v -0.00531088 0.03336191 -0.01199997 0.54117647 0.42352941 0.64313725
v 0.00018146 0.02718773 -0.01301073 0.54117647 0.42352941 0.64313725
v -0.00053275 0.02681621 -0.01292819 0.54117647 0.42352941 0.64313725
v -0.00142238 0.00497660 -0.01313804 0.54117647 0.42352941 0.64313725
v 0.00023785 0.02280919 -0.01312964 0.54117647 0.42352941 0.64313725
v 0.00035062 0.02728061 -0.01301982 0.54117647 0.42352941 0.64313725
v 0.00058660 0.02720542 -0.01303661 0.54117647 0.42352941 0.64313725
v 0.00213198 0.02666584 -0.01305550 0.54117647 0.42352941 0.64313725
v 0.00198579 0.02367163 -0.01314643 0.54117647 0.42352941 0.64313725
v -0.00238720 -0.00912761 -0.01301213 0.54117647 0.42352941 0.64313725
v -0.00199041 -0.00922491 -0.01299324 0.54117647 0.42352941 0.64313725
v -0.00131588 -0.00934874 -0.01294918 0.54117647 0.42352941 0.64313725
v -0.00041371 -0.00943720 -0.01284705 0.54117647 0.42352941 0.64313725
v 0.00065552 -0.00943278 -0.01271415 0.54117647 0.42352941 0.64313725
v 0.00516634 -0.00933548 -0.01110252 0.54117647 0.42352941 0.64313725
v 0.00593694 -0.00881359 -0.01063806 0.54117647 0.42352941 0.64313725
v 0.00610401 -0.00867206 -0.01058420 0.54117647 0.42352941 0.64313725
v 0.00625437 -0.00857476 -0.01043661 0.54117647 0.42352941 0.64313725
v 0.00631911 -0.00854380 -0.01031070 0.54117647 0.42352941 0.64313725
v 0.00634626 -0.00853495 -0.01020788 0.54117647 0.42352941 0.64313725
v 0.00712730 -0.00784500 -0.00994906 0.54117647 0.42352941 0.64313725
v 0.00821950 -0.00671720 -0.00968676 0.54117647 0.42352941 0.64313725
v 0.00710224 -0.00767252 -0.01059819 0.54117647 0.42352941 0.64313725
v 0.00820280 -0.00652702 -0.01029461 0.54117647 0.42352941 0.64313725
v 0.00825292 -0.00697372 -0.00600185 0.54117647 0.42352941 0.64313725
v 0.00853693 0.03433934 -0.00601094 0.54117647 0.42352941 0.64313725
v -0.00172937 0.03552464 -0.00959932 0.54117647 0.42352941 0.64313725
v 0.00901725 0.03276483 -0.00600185 0.54117647 0.42352941 0.64313725
v -0.00237258 0.03552464 -0.01152571 0.54117647 0.42352941 0.64313725
v -0.00293643 0.03552022 -0.01152571 0.54117647 0.42352941 0.64313725
v -0.00350238 0.03534331 -0.01176494 0.54117647 0.42352941 0.64313725
v -0.00404952 0.03514428 -0.01176494 0.54117647 0.42352941 0.64313725
v -0.00455699 0.03485680 -0.01176494 0.54117647 0.42352941 0.64313725
v -0.00471153 0.03418454 -0.01199997 0.54117647 0.42352941 0.64313725
v -0.00504566 0.03379534 -0.01199997 0.54117647 0.42352941 0.64313725
v -0.00445466 0.03470643 -0.01193701 0.54117647 0.42352941 0.64313725
v 0.00042162 0.00434856 -0.01307089 0.54117647 0.42352941 0.64313725
v 0.00061584 0.02742213 -0.01302752 0.54117647 0.42352941 0.64313725
v 0.00215913 0.02828457 -0.01295897 0.54117647 0.42352941 0.64313725
v 0.00218836 0.02830226 -0.01295617 0.54117647 0.42352941 0.64313725
v 0.00361261 0.02619260 -0.01295547 0.54117647 0.42352941 0.64313725
v 0.00349567 0.02316301 -0.01303521 0.54117647 0.42352941 0.64313725
v 0.00157230 0.00393282 -0.01293728 0.54117647 0.42352941 0.64313725
v 0.00176443 -0.00929567 -0.01257215 0.54117647 0.42352941 0.64313725
v 0.00493245 -0.00922048 -0.01150123 0.54117647 0.42352941 0.64313725
v 0.00602465 -0.00839343 -0.01115848 0.54117647 0.42352941 0.64313725
v 0.00610401 -0.00855265 -0.01083462 0.54117647 0.42352941 0.64313725
v 0.00858705 -0.00624838 -0.00957554 0.54117647 0.42352941 0.64313725
v 0.00868729 -0.00642972 -0.00601094 0.54117647 0.42352941 0.64313725
v 0.00703541 -0.00750445 -0.01091506 0.54117647 0.42352941 0.64313725
v 0.00812762 -0.00637664 -0.01059469 0.54117647 0.42352941 0.64313725
v 0.00913002 -0.00523115 -0.00990710 0.54117647 0.42352941 0.64313725
v 0.00873741 -0.00635895 -0.00600185 0.54117647 0.42352941 0.64313725
v 0.00907781 0.03256139 -0.00614454 0.54117647 0.42352941 0.64313725
v 0.00901099 0.03269849 -0.00676569 0.54117647 0.42352941 0.64313725
v 0.00846593 0.03425973 -0.00745818 0.54117647 0.42352941 0.64313725
v 0.00907781 0.03256581 -0.00600185 0.54117647 0.42352941 0.64313725
v -0.00181708 0.03544061 -0.01152571 0.54117647 0.42352941 0.64313725
v -0.00183379 0.03536984 -0.01176494 0.54117647 0.42352941 0.64313725
v -0.00237885 0.03544945 -0.01176494 0.54117647 0.42352941 0.64313725
v -0.00292808 0.03544503 -0.01176494 0.54117647 0.42352941 0.64313725
v -0.00291137 0.03526370 -0.01193701 0.54117647 0.42352941 0.64313725
v -0.00345434 0.03516640 -0.01193701 0.54117647 0.42352941 0.64313725
v -0.00397434 0.03498064 -0.01193701 0.54117647 0.42352941 0.64313725
v -0.00431683 0.03450740 -0.01199997 0.54117647 0.42352941 0.64313725
v -0.00387201 0.03475950 -0.01199997 0.54117647 0.42352941 0.64313725
v -0.00015058 0.03370688 -0.01230075 0.54117647 0.42352941 0.64313725
v 0.00293181 0.02873127 -0.01286733 0.54117647 0.42352941 0.64313725
v 0.00453566 0.02590512 -0.01280368 0.54117647 0.42352941 0.64313725
v 0.00440619 0.02366278 -0.01288132 0.54117647 0.42352941 0.64313725
v 0.00362932 0.02855436 -0.01280228 0.54117647 0.42352941 0.64313725
v 0.00464217 0.02806786 -0.01265469 0.54117647 0.42352941 0.64313725
v 0.00436651 0.02302148 -0.01288902 0.54117647 0.42352941 0.64313725
v 0.00425791 0.02137621 -0.01287433 0.54117647 0.42352941 0.64313725
v 0.00385695 0.00301731 -0.01257005 0.54117647 0.42352941 0.64313725
v 0.00271671 0.00348170 -0.01276031 0.54117647 0.42352941 0.64313725
v 0.00259141 -0.00910549 -0.01245953 0.54117647 0.42352941 0.64313725
v 0.00317406 -0.00899050 -0.01237420 0.54117647 0.42352941 0.64313725
v 0.00368362 -0.00896396 -0.01226857 0.54117647 0.42352941 0.64313725
v 0.00417020 -0.00900377 -0.01209300 0.54117647 0.42352941 0.64313725
v 0.00459831 -0.00910107 -0.01183279 0.54117647 0.42352941 0.64313725
v 0.00589935 -0.00818556 -0.01144877 0.54117647 0.42352941 0.64313725
v 0.00692264 -0.00729658 -0.01120045 0.54117647 0.42352941 0.64313725
v 0.00914882 -0.00541690 -0.00936779 0.54117647 0.42352941 0.64313725
v 0.00923862 -0.00561151 -0.00600185 0.54117647 0.42352941 0.64313725
v 0.00800858 -0.00619973 -0.01086819 0.54117647 0.42352941 0.64313725
v 0.00895878 -0.00495251 -0.01042542 0.54117647 0.42352941 0.64313725
v 0.00940151 -0.00429795 -0.01008686 0.54117647 0.42352941 0.64313725
v 0.00952681 -0.00454562 -0.00963499 0.54117647 0.42352941 0.64313725
v 0.00918223 -0.00535941 -0.00935310 0.54117647 0.42352941 0.64313725
v 0.00907990 0.03255254 -0.00600185 0.54117647 0.42352941 0.64313725
v 0.00921564 0.03083651 -0.00614454 0.54117647 0.42352941 0.64313725
v 0.00905066 0.03253927 -0.00677548 0.54117647 0.42352941 0.64313725
v 0.00892119 0.03267196 -0.00754352 0.54117647 0.42352941 0.64313725
v 0.00846593 0.03425088 -0.00747427 0.54117647 0.42352941 0.64313725
v 0.00818191 0.03422877 -0.00793174 0.54117647 0.42352941 0.64313725
v 0.00799605 0.03421550 -0.00812969 0.54117647 0.42352941 0.64313725
v -0.00133676 0.03524601 -0.01172507 0.54117647 0.42352941 0.64313725
v -0.00139524 0.03514871 -0.01188385 0.54117647 0.42352941 0.64313725
v -0.00185258 0.03529023 -0.01186217 0.54117647 0.42352941 0.64313725
v 0.00793966 0.03401648 -0.00865221 0.54117647 0.42352941 0.64313725
v 0.00762641 0.03378207 -0.00939717 0.54117647 0.42352941 0.64313725
v -0.00239138 0.03526812 -0.01193701 0.54117647 0.42352941 0.64313725
v -0.00289049 0.03502045 -0.01199997 0.54117647 0.42352941 0.64313725
v -0.00339169 0.03493199 -0.01199997 0.54117647 0.42352941 0.64313725
v -0.00090030 0.03469316 -0.01209440 0.54117647 0.42352941 0.64313725
v -0.00041580 0.03404301 -0.01224899 0.54117647 0.42352941 0.64313725
v -0.00000022 0.03380418 -0.01227207 0.54117647 0.42352941 0.64313725
v 0.00405743 0.02939469 -0.01264700 0.54117647 0.42352941 0.64313725
v 0.00533132 0.02824477 -0.01245114 0.54117647 0.42352941 0.64313725
v 0.00524152 0.02585647 -0.01260433 0.54117647 0.42352941 0.64313725
v 0.00509743 0.02286226 -0.01268547 0.54117647 0.42352941 0.64313725
v 0.00438739 0.02959371 -0.01255606 0.54117647 0.42352941 0.64313725
v 0.00471944 0.02980158 -0.01245743 0.54117647 0.42352941 0.64313725
v 0.00474032 0.02981485 -0.01245114 0.54117647 0.42352941 0.64313725
v 0.00493663 0.02993426 -0.01238888 0.54117647 0.42352941 0.64313725
v 0.00685373 0.00168606 -0.01185937 0.54117647 0.42352941 0.64313725
v 0.00550883 0.00230082 -0.01222800 0.54117647 0.42352941 0.64313725
v 0.00348105 -0.00872513 -0.01232873 0.54117647 0.42352941 0.64313725
v 0.00534176 -0.00712851 -0.01199857 0.54117647 0.42352941 0.64313725
v 0.00554433 -0.00769021 -0.01187056 0.54117647 0.42352941 0.64313725
v 0.00573646 -0.00794673 -0.01169009 0.54117647 0.42352941 0.64313725
v 0.00677228 -0.00706217 -0.01143898 0.54117647 0.42352941 0.64313725
v 0.00928247 -0.00553190 -0.00601094 0.54117647 0.42352941 0.64313725
v 0.00962078 -0.00491713 -0.00600185 0.54117647 0.42352941 0.64313725
v 0.00765983 -0.00578399 -0.01128859 0.54117647 0.42352941 0.64313725
v 0.00864553 -0.00462965 -0.01083392 0.54117647 0.42352941 0.64313725
v 0.00915926 -0.00401931 -0.01046599 0.54117647 0.42352941 0.64313725
v 0.00951010 -0.00371414 -0.01008756 0.54117647 0.42352941 0.64313725
v 0.00965420 -0.00397066 -0.00976790 0.54117647 0.42352941 0.64313725
v 0.00959155 -0.00461196 -0.00912996 0.54117647 0.42352941 0.64313725
v 0.00971685 -0.00420507 -0.00940906 0.54117647 0.42352941 0.64313725
v 0.00967508 -0.00481541 -0.00600185 0.54117647 0.42352941 0.64313725
v 0.00934512 0.02920893 -0.00600185 0.54117647 0.42352941 0.64313725
v 0.00934303 0.02920893 -0.00614594 0.54117647 0.42352941 0.64313725
v 0.00895669 0.03251716 -0.00754702 0.54117647 0.42352941 0.64313725
v 0.00923653 0.02913817 -0.00746098 0.54117647 0.42352941 0.64313725
v 0.00887942 0.03246409 -0.00798140 0.54117647 0.42352941 0.64313725
v 0.00883557 0.03261446 -0.00801008 0.54117647 0.42352941 0.64313725
v 0.00846593 0.03421550 -0.00752254 0.54117647 0.42352941 0.64313725
v 0.00812135 0.03385726 -0.00865641 0.54117647 0.42352941 0.64313725
v 0.00718995 0.03342825 -0.01008407 0.54117647 0.42352941 0.64313725
v -0.00097130 0.03494084 -0.01195380 0.54117647 0.42352941 0.64313725
v -0.00187556 0.03519293 -0.01193701 0.54117647 0.42352941 0.64313725
v 0.00774336 0.03370688 -0.00941955 0.54117647 0.42352941 0.64313725
v 0.00729645 0.03335749 -0.01011974 0.54117647 0.42352941 0.64313725
v -0.00052231 0.03415358 -0.01222730 0.54117647 0.42352941 0.64313725
v -0.00107781 0.03480373 -0.01205523 0.54117647 0.42352941 0.64313725
v -0.00078753 0.03482584 -0.01199297 0.54117647 0.42352941 0.64313725
v -0.00022994 0.03419781 -0.01219583 0.54117647 0.42352941 0.64313725
v 0.00500345 0.03165030 -0.01187056 0.54117647 0.42352941 0.64313725
v 0.00557148 0.03031020 -0.01215316 0.54117647 0.42352941 0.64313725
v 0.00486144 0.03004041 -0.01237559 0.54117647 0.42352941 0.64313725
v 0.00556104 0.02982370 -0.01221541 0.54117647 0.42352941 0.64313725
v 0.00607477 0.02801921 -0.01217064 0.54117647 0.42352941 0.64313725
v 0.00601212 0.02562649 -0.01230005 0.54117647 0.42352941 0.64313725
v 0.00590562 0.02268977 -0.01237070 0.54117647 0.42352941 0.64313725
v 0.00788954 0.00119955 -0.01148514 0.54117647 0.42352941 0.64313725
v 0.00730063 -0.00542575 -0.01148095 0.54117647 0.42352941 0.64313725
v 0.00666577 -0.00602725 -0.01167750 0.54117647 0.42352941 0.64313725
v 0.00659268 -0.00680565 -0.01162084 0.54117647 0.42352941 0.64313725
v 0.00753244 -0.00519134 -0.01139771 0.54117647 0.42352941 0.64313725
v 0.00831348 -0.00435102 -0.01105566 0.54117647 0.42352941 0.64313725
v 0.00888986 -0.00378490 -0.01070172 0.54117647 0.42352941 0.64313725
v 0.00909661 0.00062459 -0.01085071 0.54117647 0.42352941 0.64313725
v 0.00924279 0.00055383 -0.01074648 0.54117647 0.42352941 0.64313725
v 0.00969805 0.00034154 -0.01034847 0.54117647 0.42352941 0.64313725
v 0.00968970 -0.00357703 -0.00981406 0.54117647 0.42352941 0.64313725
v 0.01009066 0.00015136 -0.00984694 0.54117647 0.42352941 0.64313725
v 0.01016793 0.00011155 -0.00972803 0.54117647 0.42352941 0.64313725
v 0.00985885 -0.00367876 -0.00939577 0.54117647 0.42352941 0.64313725
v 0.01070255 -0.00019362 -0.00866970 0.54117647 0.42352941 0.64313725
v 0.00980873 -0.00416526 -0.00891242 0.54117647 0.42352941 0.64313725
v 0.00978576 -0.00458542 -0.00601094 0.54117647 0.42352941 0.64313725
v 0.00987556 -0.00389990 -0.00913206 0.54117647 0.42352941 0.64313725
v 0.01010110 -0.00383355 -0.00600185 0.54117647 0.42352941 0.64313725
v 0.01097612 0.00469354 -0.00600185 0.54117647 0.42352941 0.64313725
v 0.01094270 0.00471565 -0.00670623 0.54117647 0.42352941 0.64313725
v 0.00909034 0.03088074 -0.00751554 0.54117647 0.42352941 0.64313725
v 0.00909661 0.02904529 -0.00818285 0.54117647 0.42352941 0.64313725
v 0.01075475 0.00481738 -0.00778484 0.54117647 0.42352941 0.64313725
v 0.00865179 0.03226506 -0.00886136 0.54117647 0.42352941 0.64313725
v 0.00894834 0.03093823 -0.00819265 0.54117647 0.42352941 0.64313725
v 0.00860376 0.03241986 -0.00888304 0.54117647 0.42352941 0.64313725
v 0.00783734 0.03360958 -0.00942165 0.54117647 0.42352941 0.64313725
v 0.00834063 0.03223853 -0.00955735 0.54117647 0.42352941 0.64313725
v 0.00762641 0.03344594 -0.00979797 0.54117647 0.42352941 0.64313725
v 0.00738834 0.03326903 -0.01013163 0.54117647 0.42352941 0.64313725
v 0.00686208 0.03288425 -0.01070172 0.54117647 0.42352941 0.64313725
v 0.00677646 0.03296386 -0.01068143 0.54117647 0.42352941 0.64313725
v 0.00631284 0.03248178 -0.01116198 0.54117647 0.42352941 0.64313725
v 0.00547959 0.03191566 -0.01166911 0.54117647 0.42352941 0.64313725
v 0.00601630 0.03074363 -0.01189994 0.54117647 0.42352941 0.64313725
v 0.00609357 0.03062422 -0.01189784 0.54117647 0.42352941 0.64313725
v 0.00625019 0.02970870 -0.01192862 0.54117647 0.42352941 0.64313725
v 0.00679734 0.02779807 -0.01176844 0.54117647 0.42352941 0.64313725
v 0.00676602 0.02539651 -0.01188175 0.54117647 0.42352941 0.64313725
v 0.00677437 0.02505595 -0.01188315 0.54117647 0.42352941 0.64313725
v 0.00866223 0.00082804 -0.01111581 0.54117647 0.42352941 0.64313725
v 0.00608730 0.02264997 -0.01228606 0.54117647 0.42352941 0.64313725
v 0.00814641 0.00107572 -0.01137253 0.54117647 0.42352941 0.64313725
v 0.00685581 0.02536997 -0.01182230 0.54117647 0.42352941 0.64313725
v 0.00694770 0.02573706 -0.01174885 0.54117647 0.42352941 0.64313725
v 0.00716489 0.02662604 -0.01155579 0.54117647 0.42352941 0.64313725
v 0.00733613 0.02720099 -0.01138512 0.54117647 0.42352941 0.64313725
v 0.00963958 0.00541887 -0.01010925 0.54117647 0.42352941 0.64313725
v 0.00754497 0.02761231 -0.01117037 0.54117647 0.42352941 0.64313725
v 0.00780601 0.02797056 -0.01087169 0.54117647 0.42352941 0.64313725
v 0.01058560 -0.00011843 -0.00894320 0.54117647 0.42352941 0.64313725
v 0.01010319 0.00271656 -0.00962870 0.54117647 0.42352941 0.64313725
v 0.00997580 -0.00340897 -0.00919222 0.54117647 0.42352941 0.64313725
v 0.01086335 -0.00029534 -0.00823112 0.54117647 0.42352941 0.64313725
v 0.01083620 -0.00042360 -0.00824581 0.54117647 0.42352941 0.64313725
v 0.01046447 0.00497660 -0.00866830 0.54117647 0.42352941 0.64313725
v 0.00984006 -0.00409450 -0.00886835 0.54117647 0.42352941 0.64313725
v 0.01008439 -0.00312591 -0.00900615 0.54117647 0.42352941 0.64313725
v 0.01108471 -0.00037495 -0.00735536 0.54117647 0.42352941 0.64313725
v 0.01111604 -0.00057398 -0.00693986 0.54117647 0.42352941 0.64313725
v 0.01013243 -0.00337801 -0.00843257 0.54117647 0.42352941 0.64313725
v 0.01014496 -0.00372299 -0.00600185 0.54117647 0.42352941 0.64313725
v 0.01121210 -0.00044129 -0.00600185 0.54117647 0.42352941 0.64313725
v 0.01115154 -0.00041033 -0.00693217 0.54117647 0.42352941 0.64313725
v 0.00889613 0.02890818 -0.00889074 0.54117647 0.42352941 0.64313725
v 0.00888151 0.02912048 -0.00888794 0.54117647 0.42352941 0.64313725
v 0.00875412 0.03090727 -0.00886975 0.54117647 0.42352941 0.64313725
v 0.01073387 0.00483064 -0.00786179 0.54117647 0.42352941 0.64313725
v 0.01063572 0.00488372 -0.00819684 0.54117647 0.42352941 0.64313725
v 0.01099283 -0.00034399 -0.00777435 0.54117647 0.42352941 0.64313725
v 0.00839492 0.03208815 -0.00952937 0.54117647 0.42352941 0.64313725
v 0.00804199 0.03185374 -0.01014772 0.54117647 0.42352941 0.64313725
v 0.00797726 0.03199527 -0.01017570 0.54117647 0.42352941 0.64313725
v 0.00754706 0.03171222 -0.01071291 0.54117647 0.42352941 0.64313725
v 0.00706883 0.03140262 -0.01117597 0.54117647 0.42352941 0.64313725
v 0.00655718 0.03107976 -0.01156978 0.54117647 0.42352941 0.64313725
v 0.00603092 0.03203508 -0.01143338 0.54117647 0.42352941 0.64313725
v 0.00624184 0.03071709 -0.01181390 0.54117647 0.42352941 0.64313725
v 0.00690176 0.02960698 -0.01153761 0.54117647 0.42352941 0.64313725
v 0.00663654 0.03095592 -0.01155999 0.54117647 0.42352941 0.64313725
v 0.00743846 0.02759904 -0.01127040 0.54117647 0.42352941 0.64313725
v 0.01003219 0.00521100 -0.00953776 0.54117647 0.42352941 0.64313725
v 0.00800023 0.02818285 -0.01062337 0.54117647 0.42352941 0.64313725
v 0.00810882 0.02828900 -0.01047088 0.54117647 0.42352941 0.64313725
v 0.00747396 0.02952737 -0.01106825 0.54117647 0.42352941 0.64313725
v 0.00794802 0.02946103 -0.01055622 0.54117647 0.42352941 0.64313725
v 0.01096359 -0.00049879 -0.00777715 0.54117647 0.42352941 0.64313725
v 0.00871653 0.02877992 -0.00936919 0.54117647 0.42352941 0.64313725
v 0.01117660 -0.00060936 -0.00600185 0.54117647 0.42352941 0.64313725
v 0.01023893 -0.00345762 -0.00600185 0.54117647 0.42352941 0.64313725
v 0.01019508 -0.00358588 -0.00601094 0.54117647 0.42352941 0.64313725
v 0.00862255 0.02936373 -0.00948320 0.54117647 0.42352941 0.64313725
v 0.00850770 0.02862513 -0.00981266 0.54117647 0.42352941 0.64313725
v 0.00832601 0.02940796 -0.01002671 0.54117647 0.42352941 0.64313725
v 0.00761806 0.03157953 -0.01068912 0.54117647 0.42352941 0.64313725
v 0.00714401 0.03127436 -0.01115848 0.54117647 0.42352941 0.64313725
v 0.00843043 0.02856321 -0.00995746 0.54117647 0.42352941 0.64313725
f 215 258 259
f 215 257 258
f 213 257 254
f 214 254 257
f 213 256 257
f 214 257 215
f 215 259 260
f 218 263 264
f 215 222 221
f 215 221 220
f 215 220 216
f 217 261 262
f 217 262 218
f 217 223 261
f 213 250 256
f 218 264 219
f 218 262 263
f 215 260 222
f 213 255 250
f 208 248 252
f 212 254 214
f 201 246 247
f 201 247 202
f 202 247 248
f 202 248 203
f 203 248 208
f 203 208 204
f 205 209 249
f 205 249 206
f 213 251 255
f 206 250 251
f 206 249 250
f 207 251 210
f 208 252 209
f 209 252 253
f 209 253 249
f 210 251 213
f 211 213 254
f 211 254 212
f 206 251 207
f 219 264 265
f 227 267 268
f 222 260 223
f 236 274 276
f 236 276 277
f 236 277 275
f 237 278 239
f 237 275 279
f 237 279 278
f 238 239 280
f 238 280 281
f 238 281 240
f 239 278 282
f 239 282 280
f 240 281 283
f 241 284 242
f 242 284 285
f 242 285 244
f 243 244 286
f 243 286 245
f 244 287 245
f 244 245 286
f 236 275 237
f 219 265 224
f 235 274 236
f 235 271 273
f 223 260 259
f 223 259 261
f 224 265 266
f 224 266 267
f 224 267 227
f 224 227 225
f 225 227 226
f 227 268 228
f 228 268 229
f 229 268 230
f 230 268 233
f 233 266 269
f 233 269 270
f 233 270 234
f 233 268 266
f 234 271 235
f 234 270 272
f 201 245 246
f 234 273 271
f 235 273 274
f 234 272 273
f 192 231 232
f 200 244 243
f 167 210 168
f 168 210 169
f 169 211 212
f 169 212 170
f 169 210 213
f 169 213 211
f 170 212 171
f 171 212 173
f 167 207 210
f 171 173 172
f 173 214 174
f 174 214 215
f 174 215 175
f 175 216 178
f 175 215 216
f 176 179 217
f 176 217 218
f 176 218 177
f 173 212 214
f 166 209 205
f 166 208 209
f 166 204 208
f 159 194 195
f 159 195 196
f 244 285 288
f 159 196 197
f 159 197 191
f 161 164 198
f 161 198 199
f 161 199 200
f 161 200 162
f 162 200 201
f 162 201 163
f 163 201 202
f 163 202 203
f 163 203 165
f 165 203 204
f 165 204 166
f 166 205 206
f 166 206 207
f 166 207 167
f 177 219 180
f 177 218 219
f 178 216 179
f 179 216 220
f 193 233 234
f 193 234 194
f 193 230 233
f 194 234 235
f 194 235 195
f 195 235 236
f 195 236 237
f 195 237 196
f 196 238 197
f 196 237 239
f 196 239 238
f 197 238 240
f 197 240 232
f 197 232 231
f 198 241 199
f 199 241 242
f 199 242 200
f 200 243 201
f 200 242 244
f 192 197 231
f 201 243 245
f 191 197 192
f 189 230 190
f 179 220 221
f 179 222 223
f 179 223 217
f 180 219 224
f 180 224 225
f 180 225 182
f 180 182 181
f 182 225 226
f 182 226 185
f 182 185 183
f 183 185 184
f 185 226 186
f 186 226 227
f 186 227 228
f 186 228 187
f 187 228 229
f 187 229 188
f 188 229 189
f 189 229 230
f 190 230 193
f 179 221 222
f 289 290 332
f 245 289 246
f 304 310 309
f 306 308 307
f 312 344 346
f 312 346 314
f 313 347 317
f 313 315 348
f 313 348 349
f 313 349 347
f 303 344 312
f 314 346 350
f 315 350 351
f 315 351 348
f 316 317 347
f 316 347 321
f 318 320 352
f 318 352 323
f 319 335 320
f 319 321 334
f 314 350 315
f 303 310 304
f 303 311 310
f 303 312 311
f 293 337 338
f 293 338 294
f 294 338 295
f 295 338 339
f 295 339 296
f 296 339 340
f 296 340 298
f 296 298 297
f 298 340 341
f 298 341 342
f 298 342 299
f 299 342 300
f 300 341 343
f 300 343 301
f 300 342 341
f 301 343 302
f 302 344 303
f 302 343 345
f 302 345 344
f 319 334 333
f 293 336 337
f 319 333 335
f 321 347 353
f 337 351 360
f 338 360 339
f 339 360 361
f 339 361 340
f 340 361 345
f 340 345 341
f 341 345 343
f 344 345 361
f 337 349 351
f 344 361 350
f 347 349 362
f 347 362 358
f 347 358 353
f 348 351 349
f 349 359 362
f 350 361 360
f 158 194 159
f 350 360 351
f 344 350 346
f 337 359 349
f 337 360 338
f 336 359 337
f 321 353 330
f 321 330 334
f 322 326 327
f 323 352 324
f 324 329 325
f 324 352 335
f 325 329 354
f 325 354 326
f 326 355 356
f 326 356 327
f 326 354 355
f 327 356 355
f 328 354 329
f 330 353 331
f 331 353 332
f 332 353 336
f 336 353 357
f 336 357 358
f 336 358 359
f 320 335 352
f 292 293 294
f 291 336 293
f 289 332 336
f 259 300 301
f 259 301 261
f 261 302 262
f 261 301 302
f 262 302 303
f 262 303 304
f 262 304 263
f 263 304 305
f 259 299 300
f 263 305 306
f 263 307 264
f 264 307 308
f 264 308 265
f 265 308 269
f 265 269 266
f 266 268 267
f 269 308 306
f 269 306 270
f 263 306 307
f 258 299 259
f 257 299 258
f 257 298 299
f 245 287 290
f 245 290 289
f 246 289 291
f 246 291 247
f 247 291 248
f 248 292 252
f 248 291 293
f 248 293 292
f 249 253 250
f 250 255 251
f 250 253 256
f 252 292 294
f 252 294 253
f 253 294 295
f 253 295 296
f 253 296 297
f 253 297 256
f 256 297 298
f 256 298 257
f 270 306 272
f 272 306 305
f 272 305 304
f 272 304 309
f 282 318 323
f 282 323 324
f 282 324 325
f 282 325 326
f 282 326 322
f 283 322 327
f 284 328 285
f 285 328 329
f 285 329 324
f 285 324 288
f 287 330 331
f 287 331 332
f 287 332 290
f 287 288 333
f 287 333 334
f 287 334 330
f 288 324 335
f 288 335 333
f 289 336 291
f 280 283 281
f 244 288 287
f 280 322 283
f 279 321 319
f 272 309 310
f 272 310 273
f 273 310 311
f 273 311 312
f 273 312 274
f 274 313 276
f 274 312 314
f 274 314 315
f 274 315 313
f 275 277 316
f 275 316 279
f 276 313 317
f 276 317 277
f 277 317 316
f 278 318 282
f 278 279 319
f 278 319 320
f 278 320 318
f 279 316 321
f 280 282 322
f 158 193 194
f 68 95 96
f 157 190 193
f 32 58 33
f 33 58 34
f 34 58 59
f 34 59 35
f 35 60 36
f 35 59 61
f 35 61 60
f 36 60 62
f 32 57 58
f 36 62 37
f 37 63 64
f 37 64 38
f 38 64 65
f 38 65 66
f 38 66 67
f 38 67 68
f 38 68 69
f 43 70 71
f 37 62 63
f 32 56 57
f 31 56 32
f 31 55 56
f 19 21 20
f 21 48 23
f 21 23 22
f 23 25 24
f 23 48 49
f 23 49 50
f 23 50 51
f 23 51 25
f 25 51 52
f 25 52 26
f 26 52 47
f 26 47 53
f 26 53 28
f 28 54 29
f 28 53 54
f 29 54 53
f 29 53 30
f 30 55 31
f 30 53 55
f 43 71 72
f 19 48 21
f 43 72 44
f 44 73 45
f 60 82 81
f 61 80 83
f 61 83 82
f 62 81 63
f 63 84 85
f 63 85 64
f 63 81 84
f 64 85 86
f 60 61 82
f 64 86 87
f 65 87 88
f 65 88 89
f 65 89 66
f 66 89 90
f 66 90 91
f 66 91 92
f 66 92 67
f 67 92 93
f 64 87 65
f 60 81 62
f 59 80 61
f 59 78 80
f 45 74 75
f 45 75 46
f 45 73 76
f 45 76 74
f 46 75 47
f 47 75 53
f 47 52 51
f 47 51 50
f 47 50 49
f 47 49 48
f 53 75 77
f 53 77 78
f 53 78 79
f 53 79 57
f 53 57 56
f 53 56 55
f 57 79 58
f 58 79 78
f 58 78 59
f 44 72 73
f 67 93 94
f 19 47 48
f 17 27 39
f 2 232 240
f 2 240 283
f 2 283 327
f 2 327 355
f 2 355 354
f 2 354 328
f 2 328 284
f 2 284 241
f 2 192 232
f 2 241 198
f 2 164 135
f 2 135 98
f 2 98 70
f 2 70 43
f 2 43 42
f 2 42 41
f 2 41 40
f 2 40 39
f 2 198 164
f 2 160 192
f 2 132 160
f 2 97 132
f 353 358 357
f 1 2 9
f 1 9 3
f 1 3 4
f 1 4 5
f 1 5 6
f 1 6 7
f 1 7 8
f 1 8 2
f 2 8 10
f 2 10 11
f 2 11 12
f 2 12 13
f 2 13 14
f 2 14 15
f 2 15 16
f 2 16 38
f 2 38 69
f 2 69 97
f 2 39 27
f 19 46 47
f 2 27 9
f 3 17 4
f 13 31 14
f 14 31 32
f 14 32 15
f 15 33 34
f 15 34 35
f 15 35 36
f 15 36 16
f 15 32 33
f 13 30 31
f 16 36 37
f 17 39 40
f 17 40 41
f 17 41 42
f 17 42 43
f 17 43 44
f 17 44 45
f 17 45 46
f 17 46 19
f 16 37 38
f 12 30 13
f 12 29 30
f 11 29 12
f 4 18 5
f 4 17 19
f 4 19 18
f 5 20 6
f 5 18 19
f 5 19 20
f 6 20 21
f 6 21 22
f 6 22 23
f 6 23 24
f 6 24 7
f 7 24 25
f 7 25 8
f 8 25 26
f 8 26 10
f 9 27 17
f 10 26 28
f 10 28 11
f 11 28 29
f 3 9 17
f 67 94 95
f 67 95 68
f 68 96 97
f 129 131 155
f 129 155 156
f 129 156 132
f 130 154 153
f 130 153 157
f 130 157 131
f 131 158 159
f 131 159 155
f 126 128 127
f 131 157 158
f 133 135 161
f 133 161 162
f 133 162 163
f 133 163 136
f 133 136 134
f 135 164 161
f 136 163 165
f 136 165 166
f 132 156 160
f 125 128 126
f 125 130 128
f 124 130 125
f 115 145 146
f 115 146 147
f 115 147 148
f 115 148 116
f 116 148 149
f 116 149 144
f 117 144 118
f 118 144 119
f 119 144 150
f 119 150 120
f 120 150 121
f 121 151 152
f 121 152 122
f 121 150 151
f 122 152 153
f 122 153 154
f 122 154 123
f 123 154 130
f 123 130 124
f 136 166 167
f 114 145 115
f 136 167 137
f 137 168 138
f 149 181 182
f 149 182 183
f 149 183 150
f 150 183 184
f 150 184 151
f 151 184 185
f 151 185 186
f 151 186 187
f 149 180 181
f 151 187 188
f 152 188 189
f 152 189 153
f 153 189 190
f 153 190 157
f 155 160 156
f 155 159 191
f 155 191 192
f 155 192 160
f 151 188 152
f 149 177 180
f 148 179 176
f 148 178 179
f 138 169 170
f 138 170 171
f 138 171 139
f 138 168 169
f 139 171 140
f 140 171 143
f 141 143 172
f 141 172 145
f 143 171 172
f 144 149 150
f 145 172 173
f 145 173 174
f 145 174 146
f 146 174 147
f 147 175 148
f 147 174 175
f 148 176 177
f 148 177 149
f 148 175 178
f 137 167 168
f 113 141 145
f 113 142 141
f 113 145 114
f 80 109 83
f 81 82 84
f 82 111 84
f 82 83 112
f 82 112 111
f 83 109 113
f 83 113 114
f 83 114 115
f 80 110 109
f 83 115 116
f 84 117 85
f 84 111 117
f 85 117 86
f 86 117 118
f 86 118 119
f 86 119 87
f 87 119 120
f 87 120 88
f 83 116 112
f 78 110 80
f 78 109 110
f 78 108 109
f 68 97 69
f 70 98 99
f 70 99 71
f 71 99 100
f 71 100 101
f 71 101 102
f 71 102 72
f 72 102 103
f 72 103 73
f 73 103 76
f 74 76 104
f 74 104 105
f 74 105 77
f 74 77 75
f 76 103 106
f 76 106 107
f 76 107 104
f 77 105 108
f 77 108 78
f 88 120 121
f 88 121 89
f 89 121 122
f 89 122 123
f 100 137 138
f 100 138 101
f 101 138 139
f 101 139 102
f 102 139 140
f 102 140 103
f 103 140 106
f 104 107 141
f 104 141 142
f 104 142 108
f 104 108 105
f 106 140 107
f 107 140 143
f 107 143 141
f 108 142 109
f 109 142 113
f 111 144 117
f 111 112 116
f 111 116 144
f 99 137 100
f 157 193 158
f 99 136 137
f 98 135 133
f 89 123 124
f 89 124 125
f 89 125 126
f 89 126 127
f 89 127 90
f 90 127 91
f 91 127 128
f 91 128 92
f 92 128 93
f 93 128 94
f 94 128 96
f 94 96 95
f 96 129 97
f 96 128 130
f 96 130 131
f 96 131 129
f 97 129 132
f 98 133 134
f 98 134 99
f 99 134 136
f 358 362 359
