# https://github.com/mikedh/trimesh
v -0.00585658 0.03635949 -0.00500993 0.54509804 0.71372549 0.60000000
v -0.00578669 0.03713841 -0.00597816 0.54509804 0.71372549 0.60000000
v -0.00580809 0.03635453 -0.00592522 0.54509804 0.71372549 0.60000000
v -0.00579668 0.03585095 -0.00604322 0.54509804 0.71372549 0.60000000
v -0.00578242 0.03528288 -0.00606858 0.54509804 0.71372549 0.60000000
v -0.00581094 0.03461806 -0.00500993 0.54509804 0.71372549 0.60000000
v -0.00585515 0.03629251 -0.00500001 0.54509804 0.71372549 0.60000000
v -0.00585658 0.03635949 -0.00499008 0.54509804 0.71372549 0.60000000
v -0.00579383 0.03801905 -0.00500993 0.54509804 0.71372549 0.60000000
v -0.00575247 0.03800168 -0.00582928 0.54509804 0.71372549 0.60000000
v -0.00574961 0.03799424 -0.00587670 0.54509804 0.71372549 0.60000000
v -0.00574534 0.03799424 -0.00592192 0.54509804 0.71372549 0.60000000
v -0.00564550 0.03794463 -0.00655270 0.54509804 0.71372549 0.60000000
v -0.00571681 0.03582118 -0.00656814 0.54509804 0.71372549 0.60000000
v -0.00580523 0.03635700 -0.00597154 0.54509804 0.71372549 0.60000000
v -0.00575674 0.03464535 -0.00604322 0.54509804 0.71372549 0.60000000
v -0.00576102 0.03464535 -0.00599580 0.54509804 0.71372549 0.60000000
v -0.00580809 0.03456845 -0.00500001 0.54509804 0.71372549 0.60000000
v -0.00581094 0.03461806 -0.00499008 0.54509804 0.71372549 0.60000000
v -0.00578527 0.03539947 -0.00393584 0.54509804 0.71372549 0.60000000
v -0.00580809 0.03635453 -0.00407479 0.54509804 0.71372549 0.60000000
v -0.00578527 0.03715082 -0.00402296 0.54509804 0.71372549 0.60000000
v -0.00579383 0.03801905 -0.00499008 0.54509804 0.71372549 0.60000000
v -0.00556706 0.03960171 -0.00500993 0.54509804 0.71372549 0.60000000
v -0.00564550 0.03895177 -0.00585465 0.54509804 0.71372549 0.60000000
v -0.00575104 0.03801656 -0.00582928 0.54509804 0.71372549 0.60000000
v -0.00574391 0.03801656 -0.00592081 0.54509804 0.71372549 0.60000000
v -0.00548719 0.03786525 -0.00713937 0.54509804 0.71372549 0.60000000
v -0.00556706 0.03576661 -0.00717135 0.54509804 0.71372549 0.60000000
v -0.00557419 0.03870619 -0.00655270 0.54509804 0.71372549 0.60000000
v -0.00546295 0.03821750 -0.00713606 0.54509804 0.71372549 0.60000000
v -0.00542016 0.03442705 -0.00749446 0.54509804 0.71372549 0.60000000
v -0.00559558 0.03349185 -0.00657475 0.54509804 0.71372549 0.60000000
v -0.00567545 0.03358611 -0.00609836 0.54509804 0.71372549 0.60000000
v -0.00566262 0.03288409 -0.00500993 0.54509804 0.71372549 0.60000000
v -0.00566262 0.03288409 -0.00499008 0.54509804 0.71372549 0.60000000
v -0.00568829 0.03374239 -0.00390055 0.54509804 0.71372549 0.60000000
v -0.00576102 0.03464535 -0.00400421 0.54509804 0.71372549 0.60000000
v -0.00575674 0.03464535 -0.00395789 0.54509804 0.71372549 0.60000000
v -0.00571681 0.03582118 -0.00343187 0.54509804 0.71372549 0.60000000
v -0.00580523 0.03635700 -0.00402957 0.54509804 0.71372549 0.60000000
v -0.00564550 0.03794463 -0.00344731 0.54509804 0.71372549 0.60000000
v -0.00574534 0.03799424 -0.00407809 0.54509804 0.71372549 0.60000000
v -0.00575247 0.03800168 -0.00417073 0.54509804 0.71372549 0.60000000
v -0.00574248 0.03812571 -0.00416962 0.54509804 0.71372549 0.60000000
v -0.00563837 0.03898898 -0.00414205 0.54509804 0.71372549 0.60000000
v -0.00556706 0.03960171 -0.00499008 0.54509804 0.71372549 0.60000000
v -0.00513350 0.04113227 -0.00500001 0.54509804 0.71372549 0.60000000
v -0.00532603 0.04032854 -0.00609395 0.54509804 0.71372549 0.60000000
v -0.00545867 0.03984481 -0.00598147 0.54509804 0.71372549 0.60000000
v -0.00551857 0.03959426 -0.00593625 0.54509804 0.71372549 0.60000000
v -0.00559844 0.03921224 -0.00588111 0.54509804 0.71372549 0.60000000
v -0.00559416 0.03919736 -0.00597264 0.54509804 0.71372549 0.60000000
v -0.00538451 0.03781811 -0.00743491 0.54509804 0.71372549 0.60000000
v -0.00546580 0.03580630 -0.00748233 0.54509804 0.71372549 0.60000000
v -0.00540020 0.03885255 -0.00713275 0.54509804 0.71372549 0.60000000
v -0.00538593 0.03982248 -0.00654718 0.54509804 0.71372549 0.60000000
v -0.00527041 0.03973070 -0.00712724 0.54509804 0.71372549 0.60000000
v -0.00511638 0.03880789 -0.00792123 0.54509804 0.71372549 0.60000000
v -0.00521764 0.03434767 -0.00805687 0.54509804 0.71372549 0.60000000
v -0.00544298 0.03345712 -0.00718127 0.54509804 0.71372549 0.60000000
v -0.00538308 0.03290145 -0.00718017 0.54509804 0.71372549 0.60000000
v -0.00526471 0.03112530 -0.00657034 0.54509804 0.71372549 0.60000000
v -0.00546010 0.03182485 -0.00608292 0.54509804 0.71372549 0.60000000
v -0.00561412 0.03293866 -0.00604763 0.54509804 0.71372549 0.60000000
v -0.00561698 0.03293866 -0.00600132 0.54509804 0.71372549 0.60000000
v -0.00565834 0.03284688 -0.00500001 0.54509804 0.71372549 0.60000000
v -0.00561698 0.03293866 -0.00399869 0.54509804 0.71372549 0.60000000
v -0.00561412 0.03293866 -0.00395238 0.54509804 0.71372549 0.60000000
v -0.00559558 0.03349185 -0.00342526 0.54509804 0.71372549 0.60000000
v -0.00556849 0.03589808 -0.00282976 0.54509804 0.71372549 0.60000000
v -0.00552570 0.03449155 -0.00281984 0.54509804 0.71372549 0.60000000
v -0.00548719 0.03786525 -0.00286064 0.54509804 0.71372549 0.60000000
v -0.00546295 0.03821750 -0.00286395 0.54509804 0.71372549 0.60000000
v -0.00557419 0.03870619 -0.00344841 0.54509804 0.71372549 0.60000000
v -0.00574391 0.03801656 -0.00407920 0.54509804 0.71372549 0.60000000
v -0.00559416 0.03919736 -0.00402737 0.54509804 0.71372549 0.60000000
v -0.00559844 0.03921224 -0.00411890 0.54509804 0.71372549 0.60000000
v -0.00551857 0.03959426 -0.00406376 0.54509804 0.71372549 0.60000000
v -0.00546010 0.03983985 -0.00401965 0.54509804 0.71372549 0.60000000
v -0.00532603 0.04032854 -0.00390606 0.54509804 0.71372549 0.60000000
v -0.00512922 0.04114219 -0.00499008 0.54509804 0.71372549 0.60000000
v -0.00451595 0.04260578 -0.00500001 0.54509804 0.71372549 0.60000000
v -0.00512922 0.04114219 -0.00500993 0.54509804 0.71372549 0.60000000
v -0.00496235 0.04137538 -0.00650087 0.54509804 0.71372549 0.60000000
v -0.00522477 0.04065598 -0.00619540 0.54509804 0.71372549 0.60000000
v -0.00521907 0.04067335 -0.00379799 0.54509804 0.71372549 0.60000000
v -0.00495950 0.04138530 -0.00349473 0.54509804 0.71372549 0.60000000
v -0.00532603 0.04030125 -0.00618548 0.54509804 0.71372549 0.60000000
v -0.00519340 0.03775114 -0.00794549 0.54509804 0.71372549 0.60000000
v -0.00526613 0.03569467 -0.00803151 0.54509804 0.71372549 0.60000000
v -0.00493668 0.04022931 -0.00788815 0.54509804 0.71372549 0.60000000
v -0.00498803 0.04100328 -0.00711731 0.54509804 0.71372549 0.60000000
v -0.00515204 0.04033350 -0.00712283 0.54509804 0.71372549 0.60000000
v -0.00486252 0.03875828 -0.00850349 0.54509804 0.71372549 0.60000000
v -0.00471562 0.04014993 -0.00843071 0.54509804 0.71372549 0.60000000
v -0.00492812 0.03425837 -0.00872294 0.54509804 0.71372549 0.60000000
v -0.00507217 0.03286176 -0.00806900 0.54509804 0.71372549 0.60000000
v -0.00527754 0.03288905 -0.00749556 0.54509804 0.71372549 0.60000000
v -0.00510212 0.03110794 -0.00717135 0.54509804 0.71372549 0.60000000
v -0.00503937 0.03079289 -0.00716914 0.54509804 0.71372549 0.60000000
v -0.00473131 0.02888775 -0.00656042 0.54509804 0.71372549 0.60000000
v -0.00515346 0.03018513 -0.00603881 0.54509804 0.71372549 0.60000000
v -0.00534457 0.03113522 -0.00606969 0.54509804 0.71372549 0.60000000
v -0.00536739 0.03123941 -0.00602447 0.54509804 0.71372549 0.60000000
v -0.00537167 0.03123941 -0.00597705 0.54509804 0.71372549 0.60000000
v -0.00541018 0.03117491 -0.00500993 0.54509804 0.71372549 0.60000000
v -0.00541018 0.03117491 -0.00499008 0.54509804 0.71372549 0.60000000
v -0.00548719 0.03200593 -0.00391488 0.54509804 0.71372549 0.60000000
v -0.00544298 0.03345712 -0.00281874 0.54509804 0.71372549 0.60000000
v -0.00526471 0.03112530 -0.00342967 0.54509804 0.71372549 0.60000000
v -0.00538308 0.03290145 -0.00281984 0.54509804 0.71372549 0.60000000
v -0.00546580 0.03580630 -0.00251768 0.54509804 0.71372549 0.60000000
v -0.00542016 0.03442705 -0.00250555 0.54509804 0.71372549 0.60000000
v -0.00538451 0.03781811 -0.00256510 0.54509804 0.71372549 0.60000000
v -0.00511638 0.03880789 -0.00207878 0.54509804 0.71372549 0.60000000
v -0.00540020 0.03885255 -0.00286726 0.54509804 0.71372549 0.60000000
v -0.00527041 0.03973070 -0.00287277 0.54509804 0.71372549 0.60000000
v -0.00538593 0.03982248 -0.00345283 0.54509804 0.71372549 0.60000000
v -0.00532603 0.04030125 -0.00381453 0.54509804 0.71372549 0.60000000
v -0.00451025 0.04261818 -0.00499008 0.54509804 0.71372549 0.60000000
v -0.00451025 0.04261818 -0.00500993 0.54509804 0.71372549 0.60000000
v -0.00457585 0.04224112 -0.00700373 0.54509804 0.71372549 0.60000000
v -0.00457585 0.04224112 -0.00299628 0.54509804 0.71372549 0.60000000
v -0.00458013 0.04220888 -0.00711952 0.54509804 0.71372549 0.60000000
v -0.00471277 0.04187151 -0.00710849 0.54509804 0.71372549 0.60000000
v -0.00498660 0.04128855 -0.00657696 0.54509804 0.71372549 0.60000000
v -0.00505506 0.04109258 -0.00653616 0.54509804 0.71372549 0.60000000
v -0.00505506 0.04109258 -0.00346496 0.54509804 0.71372549 0.60000000
v -0.00471277 0.04187151 -0.00289152 0.54509804 0.71372549 0.60000000
v -0.00459154 0.04218159 -0.00289483 0.54509804 0.71372549 0.60000000
v -0.00498660 0.04128855 -0.00342305 0.54509804 0.71372549 0.60000000
v -0.00492670 0.03767175 -0.00855973 0.54509804 0.71372549 0.60000000
v -0.00498232 0.03557560 -0.00868214 0.54509804 0.71372549 0.60000000
v -0.00459440 0.04171275 -0.00783301 0.54509804 0.71372549 0.60000000
v -0.00442610 0.04159119 -0.00832705 0.54509804 0.71372549 0.60000000
v -0.00453449 0.03870619 -0.00907913 0.54509804 0.71372549 0.60000000
v -0.00458299 0.03759237 -0.00916846 0.54509804 0.71372549 0.60000000
v -0.00441612 0.04006063 -0.00896114 0.54509804 0.71372549 0.60000000
v -0.00417224 0.04145476 -0.00880344 0.54509804 0.71372549 0.60000000
v -0.00455018 0.03415666 -0.00937137 0.54509804 0.71372549 0.60000000
v -0.00440328 0.03277246 -0.00940445 0.54509804 0.71372549 0.60000000
v -0.00478123 0.03282455 -0.00874720 0.54509804 0.71372549 0.60000000
v -0.00461294 0.03544660 -0.00932064 0.54509804 0.71372549 0.60000000
v -0.00491244 0.03182981 -0.00807010 0.54509804 0.71372549 0.60000000
v -0.00469851 0.03078297 -0.00806569 0.54509804 0.71372549 0.60000000
v -0.00455874 0.02888527 -0.00715481 0.54509804 0.71372549 0.60000000
v -0.00479549 0.02879100 -0.00599580 0.54509804 0.71372549 0.60000000
v -0.00500086 0.02954512 -0.00601786 0.54509804 0.71372549 0.60000000
v -0.00449313 0.02866945 -0.00715371 0.54509804 0.71372549 0.60000000
v -0.00180476 0.01990529 -0.00651631 0.54509804 0.71372549 0.60000000
v -0.00540447 0.03114018 -0.00500001 0.54509804 0.71372549 0.60000000
v -0.00500657 0.02954512 -0.00597044 0.54509804 0.71372549 0.60000000
v -0.00500942 0.02954512 -0.00592412 0.54509804 0.71372549 0.60000000
v -0.00504365 0.02948559 -0.00500993 0.54509804 0.71372549 0.60000000
v -0.00537167 0.03123941 -0.00402296 0.54509804 0.71372549 0.60000000
v -0.00536739 0.03123941 -0.00397554 0.54509804 0.71372549 0.60000000
v -0.00534457 0.03113522 -0.00393032 0.54509804 0.71372549 0.60000000
v -0.00527754 0.03288905 -0.00250445 0.54509804 0.71372549 0.60000000
v -0.00507217 0.03286176 -0.00193101 0.54509804 0.71372549 0.60000000
v -0.00521764 0.03434767 -0.00194314 0.54509804 0.71372549 0.60000000
v -0.00520195 0.03040839 -0.00395348 0.54509804 0.71372549 0.60000000
v -0.00473131 0.02888775 -0.00343959 0.54509804 0.71372549 0.60000000
v -0.00503937 0.03079289 -0.00283087 0.54509804 0.71372549 0.60000000
v -0.00510212 0.03110794 -0.00282866 0.54509804 0.71372549 0.60000000
v -0.00526613 0.03569467 -0.00196850 0.54509804 0.71372549 0.60000000
v -0.00519340 0.03775114 -0.00205452 0.54509804 0.71372549 0.60000000
v -0.00486252 0.03875828 -0.00149652 0.54509804 0.71372549 0.60000000
v -0.00471562 0.04014993 -0.00156930 0.54509804 0.71372549 0.60000000
v -0.00493668 0.04022931 -0.00211186 0.54509804 0.71372549 0.60000000
v -0.00515204 0.04033350 -0.00287718 0.54509804 0.71372549 0.60000000
v -0.00498803 0.04100328 -0.00288270 0.54509804 0.71372549 0.60000000
v -0.00437904 0.04262563 -0.00285402 0.54509804 0.71372549 0.60000000
v -0.00427493 0.04282160 -0.00284300 0.54509804 0.71372549 0.60000000
v -0.00421931 0.04292579 -0.00285513 0.54509804 0.71372549 0.60000000
v -0.00412660 0.04330285 -0.00500001 0.54509804 0.71372549 0.60000000
v -0.00453592 0.04232051 -0.00295327 0.54509804 0.71372549 0.60000000
v -0.00447745 0.04243710 -0.00290365 0.54509804 0.71372549 0.60000000
v -0.00427635 0.04282160 -0.00715591 0.54509804 0.71372549 0.60000000
v -0.00438474 0.04261570 -0.00714378 0.54509804 0.71372549 0.60000000
v -0.00448173 0.04242965 -0.00709416 0.54509804 0.71372549 0.60000000
v -0.00454020 0.04231306 -0.00704233 0.54509804 0.71372549 0.60000000
v -0.00442896 0.04249415 -0.00727942 0.54509804 0.71372549 0.60000000
v -0.00435194 0.04237508 -0.00779772 0.54509804 0.71372549 0.60000000
v -0.00459440 0.04171275 -0.00216700 0.54509804 0.71372549 0.60000000
v -0.00435194 0.04237508 -0.00220229 0.54509804 0.71372549 0.60000000
v -0.00438047 0.04258594 -0.00269302 0.54509804 0.71372549 0.60000000
v -0.00421217 0.04224361 -0.00826309 0.54509804 0.71372549 0.60000000
v -0.00399254 0.04209725 -0.00871191 0.54509804 0.71372549 0.60000000
v -0.00413231 0.03865161 -0.00956435 0.54509804 0.71372549 0.60000000
v -0.00416083 0.03751299 -0.00968345 0.54509804 0.71372549 0.60000000
v -0.00403675 0.03996884 -0.00940665 0.54509804 0.71372549 0.60000000
v -0.00383994 0.04131336 -0.00920375 0.54509804 0.71372549 0.60000000
v -0.00408096 0.03404503 -0.00991062 0.54509804 0.71372549 0.60000000
v -0.00415655 0.03531265 -0.00985438 0.54509804 0.71372549 0.60000000
v -0.00392979 0.03270796 -0.00994921 0.54509804 0.71372549 0.60000000
v -0.00376150 0.03172066 -0.00996796 0.54509804 0.71372549 0.60000000
v -0.00423499 0.03177027 -0.00941658 0.54509804 0.71372549 0.60000000
v -0.00461579 0.03180500 -0.00875382 0.54509804 0.71372549 0.60000000
v -0.00438902 0.03077553 -0.00874389 0.54509804 0.71372549 0.60000000
v -0.00411234 0.02870170 -0.00805246 0.54509804 0.71372549 0.60000000
v -0.00450454 0.02786572 -0.00592412 0.54509804 0.71372549 0.60000000
v -0.00450740 0.02786572 -0.00587781 0.54509804 0.71372549 0.60000000
v -0.00454163 0.02782355 -0.00500993 0.54509804 0.71372549 0.60000000
v -0.00503509 0.02945086 -0.00500001 0.54509804 0.71372549 0.60000000
v -0.00125852 0.01990529 -0.00804253 0.54509804 0.71372549 0.60000000
v -0.00159938 0.01990529 -0.00718789 0.54509804 0.71372549 0.60000000
v -0.00162933 0.01990529 -0.00709526 0.54509804 0.71372549 0.60000000
v -0.00191029 0.01990529 -0.00580172 0.54509804 0.71372549 0.60000000
v -0.00504365 0.02948559 -0.00499008 0.54509804 0.71372549 0.60000000
v -0.00491244 0.03182981 -0.00192991 0.54509804 0.71372549 0.60000000
v -0.00492812 0.03425837 -0.00127707 0.54509804 0.71372549 0.60000000
v -0.00478123 0.03282455 -0.00125281 0.54509804 0.71372549 0.60000000
v -0.00500942 0.02954512 -0.00407589 0.54509804 0.71372549 0.60000000
v -0.00500657 0.02954512 -0.00402957 0.54509804 0.71372549 0.60000000
v -0.00449313 0.02866945 -0.00284631 0.54509804 0.71372549 0.60000000
v -0.00455874 0.02888527 -0.00284520 0.54509804 0.71372549 0.60000000
v -0.00483400 0.02892248 -0.00400090 0.54509804 0.71372549 0.60000000
v -0.00450454 0.02786572 -0.00407589 0.54509804 0.71372549 0.60000000
v -0.00180476 0.01990529 -0.00348370 0.54509804 0.71372549 0.60000000
v -0.00469851 0.03078297 -0.00193432 0.54509804 0.71372549 0.60000000
v -0.00498232 0.03557560 -0.00131787 0.54509804 0.71372549 0.60000000
v -0.00492670 0.03767175 -0.00144028 0.54509804 0.71372549 0.60000000
v -0.00453449 0.03870619 -0.00092088 0.54509804 0.71372549 0.60000000
v -0.00458299 0.03759237 -0.00083155 0.54509804 0.71372549 0.60000000
v -0.00441612 0.04006063 -0.00103887 0.54509804 0.71372549 0.60000000
v -0.00417224 0.04145476 -0.00119657 0.54509804 0.71372549 0.60000000
v -0.00442610 0.04159119 -0.00167296 0.54509804 0.71372549 0.60000000
v -0.00415227 0.04300765 -0.00269633 0.54509804 0.71372549 0.60000000
v -0.00414372 0.04304486 -0.00279558 0.54509804 0.71372549 0.60000000
v -0.00416368 0.04302501 -0.00287829 0.54509804 0.71372549 0.60000000
v -0.00404959 0.04322347 -0.00295548 0.54509804 0.71372549 0.60000000
v -0.00394548 0.04339711 -0.00308340 0.54509804 0.71372549 0.60000000
v -0.00411947 0.04331277 -0.00499008 0.54509804 0.71372549 0.60000000
v -0.00411947 0.04331277 -0.00500993 0.54509804 0.71372549 0.60000000
v -0.00394548 0.04339711 -0.00691661 0.54509804 0.71372549 0.60000000
v -0.00404959 0.04322347 -0.00704453 0.54509804 0.71372549 0.60000000
v -0.00416368 0.04302501 -0.00712172 0.54509804 0.71372549 0.60000000
v -0.00426352 0.04280175 -0.00733125 0.54509804 0.71372549 0.60000000
v -0.00414372 0.04304486 -0.00720443 0.54509804 0.71372549 0.60000000
v -0.00404388 0.04290594 -0.00788043 0.54509804 0.71372549 0.60000000
v -0.00421217 0.04224361 -0.00173692 0.54509804 0.71372549 0.60000000
v -0.00404388 0.04290594 -0.00211958 0.54509804 0.71372549 0.60000000
v -0.00388130 0.04274470 -0.00840093 0.54509804 0.71372549 0.60000000
v -0.00365168 0.04259090 -0.00881226 0.54509804 0.71372549 0.60000000
v -0.00351476 0.04251648 -0.00897547 0.54509804 0.71372549 0.60000000
v -0.00365738 0.03860448 -0.00990290 0.54509804 0.71372549 0.60000000
v -0.00366452 0.03744105 -0.01004295 0.54509804 0.71372549 0.60000000
v -0.00358750 0.03988450 -0.00971763 0.54509804 0.71372549 0.60000000
v -0.00343632 0.04117940 -0.00948605 0.54509804 0.71372549 0.60000000
v -0.00335218 0.04244206 -0.00911883 0.54509804 0.71372549 0.60000000
v -0.00352047 0.03392596 -0.01028666 0.54509804 0.71372549 0.60000000
v -0.00361602 0.03517373 -0.01022711 0.54509804 0.71372549 0.60000000
v -0.00336216 0.03262858 -0.01032857 0.54509804 0.71372549 0.60000000
v -0.00319102 0.03165616 -0.01035393 0.54509804 0.71372549 0.60000000
v -0.00295427 0.03069863 -0.01036055 0.54509804 0.71372549 0.60000000
v -0.00351619 0.03073832 -0.00996355 0.54509804 0.71372549 0.60000000
v -0.00399539 0.03076312 -0.00940555 0.54509804 0.71372549 0.60000000
v -0.00377718 0.02873891 -0.00870530 0.54509804 0.71372549 0.60000000
v -0.00099753 0.01990529 -0.00859061 0.54509804 0.71372549 0.60000000
v -0.00193169 0.01990529 -0.00551941 0.54509804 0.71372549 0.60000000
v -0.00454163 0.02782355 -0.00499008 0.54509804 0.71372549 0.60000000
v -0.00195165 0.01990529 -0.00499339 0.54509804 0.71372549 0.60000000
v -0.00195308 0.01990529 -0.00472321 0.54509804 0.71372549 0.60000000
v -0.00461579 0.03180500 -0.00124619 0.54509804 0.71372549 0.60000000
v -0.00440328 0.03277246 -0.00059556 0.54509804 0.71372549 0.60000000
v -0.00455018 0.03415666 -0.00062864 0.54509804 0.71372549 0.60000000
v -0.00461294 0.03544660 -0.00067937 0.54509804 0.71372549 0.60000000
v -0.00411234 0.02870170 -0.00194755 0.54509804 0.71372549 0.60000000
v -0.00161507 0.01990529 -0.00286174 0.54509804 0.71372549 0.60000000
v -0.00124711 0.01990529 -0.00193211 0.54509804 0.71372549 0.60000000
v -0.00123713 0.01990529 -0.00190785 0.54509804 0.71372549 0.60000000
v -0.00450740 0.02786572 -0.00412220 0.54509804 0.71372549 0.60000000
v -0.00189318 0.01990529 -0.00410677 0.54509804 0.71372549 0.60000000
v -0.00188890 0.01990529 -0.00407037 0.54509804 0.71372549 0.60000000
v -0.00438902 0.03077553 -0.00125612 0.54509804 0.71372549 0.60000000
v -0.00413231 0.03865161 -0.00043566 0.54509804 0.71372549 0.60000000
v -0.00416083 0.03751299 -0.00031656 0.54509804 0.71372549 0.60000000
v -0.00403675 0.03996884 -0.00059336 0.54509804 0.71372549 0.60000000
v -0.00399254 0.04209725 -0.00128810 0.54509804 0.71372549 0.60000000
v -0.00383994 0.04131336 -0.00079626 0.54509804 0.71372549 0.60000000
v -0.00395261 0.04313912 -0.00227507 0.54509804 0.71372549 0.60000000
v -0.00412090 0.04306222 -0.00271287 0.54509804 0.71372549 0.60000000
v -0.00409950 0.04309943 -0.00272610 0.54509804 0.71372549 0.60000000
v -0.00396259 0.04334502 -0.00289262 0.54509804 0.71372549 0.60000000
v -0.00390982 0.04343928 -0.00301723 0.54509804 0.71372549 0.60000000
v -0.00375579 0.04368735 -0.00331829 0.54509804 0.71372549 0.60000000
v -0.00365168 0.04396270 -0.00499008 0.54509804 0.71372549 0.60000000
v -0.00375579 0.04368983 -0.00668172 0.54509804 0.71372549 0.60000000
v -0.00365168 0.04396270 -0.00500993 0.54509804 0.71372549 0.60000000
v -0.00390982 0.04343928 -0.00698278 0.54509804 0.71372549 0.60000000
v -0.00396544 0.04333757 -0.00711180 0.54509804 0.71372549 0.60000000
v -0.00400252 0.04327308 -0.00716584 0.54509804 0.71372549 0.60000000
v -0.00412090 0.04306222 -0.00728714 0.54509804 0.71372549 0.60000000
v -0.00394833 0.04313664 -0.00773927 0.54509804 0.71372549 0.60000000
v -0.00381569 0.04306966 -0.00815612 0.54509804 0.71372549 0.60000000
v -0.00388130 0.04274470 -0.00159908 0.54509804 0.71372549 0.60000000
v -0.00381997 0.04306966 -0.00185602 0.54509804 0.71372549 0.60000000
v -0.00362458 0.04299276 -0.00854650 0.54509804 0.71372549 0.60000000
v -0.00337785 0.04291338 -0.00886520 0.54509804 0.71372549 0.60000000
v -0.00312256 0.03856975 -0.01007824 0.54509804 0.71372549 0.60000000
v -0.00311258 0.03737904 -0.01022821 0.54509804 0.71372549 0.60000000
v -0.00307977 0.03981504 -0.00988305 0.54509804 0.71372549 0.60000000
v -0.00297709 0.04106529 -0.00964265 0.54509804 0.71372549 0.60000000
v -0.00318959 0.04238004 -0.00922360 0.54509804 0.71372549 0.60000000
v -0.00300133 0.04231802 -0.00930630 0.54509804 0.71372549 0.60000000
v -0.00307550 0.04283648 -0.00908685 0.54509804 0.71372549 0.60000000
v -0.00289294 0.03380193 -0.01048626 0.54509804 0.71372549 0.60000000
v -0.00301274 0.03503482 -0.01042451 0.54509804 0.71372549 0.60000000
v -0.00271895 0.03254175 -0.01053147 0.54509804 0.71372549 0.60000000
v -0.00255066 0.03161151 -0.01056015 0.54509804 0.71372549 0.60000000
v -0.00233387 0.03070359 -0.01057558 0.54509804 0.71372549 0.60000000
v -0.00176054 0.02896713 -0.01056676 0.54509804 0.71372549 0.60000000
v 0.00064117 0.01990529 -0.01029548 0.54509804 0.71372549 0.60000000
v 0.00017480 0.01990529 -0.01001869 0.54509804 0.71372549 0.60000000
v 0.00017195 0.01990529 -0.01001648 0.54509804 0.71372549 0.60000000
v -0.00027302 0.01990529 -0.00962059 0.54509804 0.71372549 0.60000000
v -0.00066950 0.01990529 -0.00913207 0.54509804 0.71372549 0.60000000
v -0.00423499 0.03177027 -0.00058343 0.54509804 0.71372549 0.60000000
v -0.00376150 0.03172066 -0.00003205 0.54509804 0.71372549 0.60000000
v -0.00392979 0.03270796 -0.00005080 0.54509804 0.71372549 0.60000000
v -0.00408096 0.03404503 -0.00008939 0.54509804 0.71372549 0.60000000
v -0.00415655 0.03531265 -0.00014563 0.54509804 0.71372549 0.60000000
v -0.00377718 0.02873891 -0.00129471 0.54509804 0.71372549 0.60000000
v -0.00098469 0.01990529 -0.00138294 0.54509804 0.71372549 0.60000000
v -0.00399539 0.03076312 -0.00059446 0.54509804 0.71372549 0.60000000
v -0.00365738 0.03860448 -0.00009711 0.54509804 0.71372549 0.60000000
v -0.00366452 0.03744105 0.00004294 0.54509804 0.71372549 0.60000000
v -0.00358750 0.03988450 -0.00028238 0.54509804 0.71372549 0.60000000
v -0.00352047 0.04251896 -0.00103005 0.54509804 0.71372549 0.60000000
v -0.00365168 0.04259090 -0.00118775 0.54509804 0.71372549 0.60000000
v -0.00343632 0.04117940 -0.00051396 0.54509804 0.71372549 0.60000000
v -0.00335218 0.04244206 -0.00088118 0.54509804 0.71372549 0.60000000
v -0.00367592 0.04334254 -0.00196740 0.54509804 0.71372549 0.60000000
v -0.00382568 0.04334998 -0.00234344 0.54509804 0.71372549 0.60000000
v -0.00371158 0.04355339 -0.00246585 0.54509804 0.71372549 0.60000000
v -0.00386989 0.04348145 -0.00295107 0.54509804 0.71372549 0.60000000
v -0.00371586 0.04373200 -0.00325433 0.54509804 0.71372549 0.60000000
v -0.00373725 0.04371464 -0.00334034 0.54509804 0.71372549 0.60000000
v -0.00329798 0.04434720 -0.00499008 0.54509804 0.71372549 0.60000000
v -0.00330511 0.04433976 -0.00500001 0.54509804 0.71372549 0.60000000
v -0.00365738 0.04382626 -0.00342967 0.54509804 0.71372549 0.60000000
v -0.00359321 0.04391061 -0.00349804 0.54509804 0.71372549 0.60000000
v -0.00365738 0.04382626 -0.00657034 0.54509804 0.71372549 0.60000000
v -0.00367878 0.04378409 -0.00670047 0.54509804 0.71372549 0.60000000
v -0.00371586 0.04373200 -0.00674568 0.54509804 0.71372549 0.60000000
v -0.00379430 0.04359556 -0.00696072 0.54509804 0.71372549 0.60000000
v -0.00329798 0.04434720 -0.00500993 0.54509804 0.71372549 0.60000000
v -0.00359321 0.04391061 -0.00650197 0.54509804 0.71372549 0.60000000
v -0.00386989 0.04348145 -0.00704894 0.54509804 0.71372549 0.60000000
v -0.00370587 0.04355587 -0.00754519 0.54509804 0.71372549 0.60000000
v -0.00382140 0.04334998 -0.00766980 0.54509804 0.71372549 0.60000000
v -0.00367022 0.04334254 -0.00804364 0.54509804 0.71372549 0.60000000
v -0.00347340 0.04333013 -0.00838880 0.54509804 0.71372549 0.60000000
v -0.00362886 0.04299525 -0.00146234 0.54509804 0.71372549 0.60000000
v -0.00347911 0.04333013 -0.00161893 0.54509804 0.71372549 0.60000000
v -0.00323666 0.04331277 -0.00866560 0.54509804 0.71372549 0.60000000
v -0.00295570 0.04329292 -0.00885417 0.54509804 0.71372549 0.60000000
v -0.00256207 0.03855983 -0.01012235 0.54509804 0.71372549 0.60000000
v -0.00254780 0.03733935 -0.01027784 0.54509804 0.71372549 0.60000000
v -0.00247079 0.04098343 -0.00969668 0.54509804 0.71372549 0.60000000
v -0.00253639 0.03977287 -0.00993047 0.54509804 0.71372549 0.60000000
v -0.00279739 0.04226593 -0.00936254 0.54509804 0.71372549 0.60000000
v -0.00256064 0.04221632 -0.00940004 0.54509804 0.71372549 0.60000000
v -0.00271182 0.04277199 -0.00920816 0.54509804 0.71372549 0.60000000
v -0.00261769 0.04327804 -0.00895562 0.54509804 0.71372549 0.60000000
v -0.00224688 0.03368038 -0.01054691 0.54509804 0.71372549 0.60000000
v -0.00239235 0.03490830 -0.01048406 0.54509804 0.71372549 0.60000000
v -0.00205291 0.03245245 -0.01059213 0.54509804 0.71372549 0.60000000
v -0.00171348 0.03080530 -0.01063183 0.54509804 0.71372549 0.60000000
v -0.00139544 0.02962698 -0.01063293 0.54509804 0.71372549 0.60000000
v -0.00014181 0.02599282 -0.01059764 0.54509804 0.71372549 0.60000000
v 0.00106047 0.01990529 -0.01043664 0.54509804 0.71372549 0.60000000
v 0.00092641 0.01990529 -0.01039253 0.54509804 0.71372549 0.60000000
v -0.00319102 0.03165616 0.00035392 0.54509804 0.71372549 0.60000000
v -0.00351619 0.03073832 -0.00003646 0.54509804 0.71372549 0.60000000
v -0.00295427 0.03069863 0.00036054 0.54509804 0.71372549 0.60000000
v -0.00336216 0.03262858 0.00032856 0.54509804 0.71372549 0.60000000
v -0.00352047 0.03392596 0.00028665 0.54509804 0.71372549 0.60000000
v -0.00361602 0.03517373 0.00022710 0.54509804 0.71372549 0.60000000
v -0.00097328 0.01990529 -0.00136198 0.54509804 0.71372549 0.60000000
v -0.00065239 0.01990529 -0.00084368 0.54509804 0.71372549 0.60000000
v -0.00064098 0.01990529 -0.00082825 0.54509804 0.71372549 0.60000000
v -0.00025305 0.01990529 -0.00035736 0.54509804 0.71372549 0.60000000
v -0.00312256 0.03856975 0.00007823 0.54509804 0.71372549 0.60000000
v -0.00311258 0.03737904 0.00022820 0.54509804 0.71372549 0.60000000
v -0.00307977 0.03981504 -0.00011696 0.54509804 0.71372549 0.60000000
v -0.00338213 0.04291586 -0.00113922 0.54509804 0.71372549 0.60000000
v -0.00297709 0.04106529 -0.00035736 0.54509804 0.71372549 0.60000000
v -0.00300133 0.04231802 -0.00069371 0.54509804 0.71372549 0.60000000
v -0.00319387 0.04238252 -0.00077862 0.54509804 0.71372549 0.60000000
v -0.00307977 0.04283648 -0.00091536 0.54509804 0.71372549 0.60000000
v -0.00334790 0.04363525 -0.00186484 0.54509804 0.71372549 0.60000000
v -0.00323380 0.04389076 -0.00216700 0.54509804 0.71372549 0.60000000
v -0.00360889 0.04372704 -0.00262575 0.54509804 0.71372549 0.60000000
v -0.00377005 0.04363029 -0.00306906 0.54509804 0.71372549 0.60000000
v -0.00367878 0.04375929 -0.00315949 0.54509804 0.71372549 0.60000000
v -0.00367878 0.04378409 -0.00329954 0.54509804 0.71372549 0.60000000
v -0.00351476 0.04398255 -0.00338225 0.54509804 0.71372549 0.60000000
v -0.00306694 0.04448364 -0.00393253 0.54509804 0.71372549 0.60000000
v -0.00290863 0.04467961 -0.00500001 0.54509804 0.71372549 0.60000000
v -0.00357752 0.04390317 -0.00331167 0.54509804 0.71372549 0.60000000
v -0.00357752 0.04390317 -0.00668834 0.54509804 0.71372549 0.60000000
v -0.00363884 0.04381882 -0.00676663 0.54509804 0.71372549 0.60000000
v -0.00365738 0.04379402 -0.00678538 0.54509804 0.71372549 0.60000000
v -0.00367307 0.04377169 -0.00680744 0.54509804 0.71372549 0.60000000
v -0.00372584 0.04367991 -0.00694528 0.54509804 0.71372549 0.60000000
v -0.00360319 0.04373200 -0.00738308 0.54509804 0.71372549 0.60000000
v -0.00306694 0.04448364 -0.00606748 0.54509804 0.71372549 0.60000000
v -0.00351476 0.04398255 -0.00661776 0.54509804 0.71372549 0.60000000
v -0.00334219 0.04363525 -0.00814178 0.54509804 0.71372549 0.60000000
v -0.00322953 0.04389324 -0.00783742 0.54509804 0.71372549 0.60000000
v -0.00310973 0.04366750 -0.00836785 0.54509804 0.71372549 0.60000000
v -0.00324094 0.04331277 -0.00133883 0.54509804 0.71372549 0.60000000
v -0.00311400 0.04366750 -0.00163547 0.54509804 0.71372549 0.60000000
v -0.00284303 0.04369479 -0.00852113 0.54509804 0.71372549 0.60000000
v -0.00252784 0.04372208 -0.00860164 0.54509804 0.71372549 0.60000000
v -0.00138973 0.03967116 -0.00989628 0.54509804 0.71372549 0.60000000
v -0.00133411 0.03722772 -0.01024145 0.54509804 0.71372549 0.60000000
v -0.00114300 0.03476194 -0.01045318 0.54509804 0.71372549 0.60000000
v -0.00236240 0.04218407 -0.00941658 0.54509804 0.71372549 0.60000000
v -0.00127849 0.04203771 -0.00941768 0.54509804 0.71372549 0.60000000
v -0.00229822 0.04273229 -0.00925337 0.54509804 0.71372549 0.60000000
v -0.00222976 0.04327060 -0.00899532 0.54509804 0.71372549 0.60000000
v -0.00216273 0.04374936 -0.00863692 0.54509804 0.71372549 0.60000000
v -0.00083922 0.03228625 -0.01055904 0.54509804 0.71372549 0.60000000
v -0.00117010 0.03086979 -0.01061859 0.54509804 0.71372549 0.60000000
v -0.00076221 0.02931938 -0.01061970 0.54509804 0.71372549 0.60000000
v 0.00035023 0.02639221 -0.01060205 0.54509804 0.71372549 0.60000000
v -0.00008191 0.02604988 -0.01060095 0.54509804 0.71372549 0.60000000
v 0.00026180 0.02506505 -0.01058882 0.54509804 0.71372549 0.60000000
v 0.00135855 0.01990529 -0.01045979 0.54509804 0.71372549 0.60000000
v -0.00255066 0.03161151 0.00056014 0.54509804 0.71372549 0.60000000
v -0.00233387 0.03070359 0.00057557 0.54509804 0.71372549 0.60000000
v -0.00024450 0.01990529 -0.00034965 0.54509804 0.71372549 0.60000000
v 0.00019762 0.01990529 0.00003522 0.54509804 0.71372549 0.60000000
v 0.00030316 0.01990529 0.00009697 0.54509804 0.71372549 0.60000000
v 0.00065543 0.01990529 0.00030099 0.54509804 0.71372549 0.60000000
v 0.00066399 0.01990529 0.00030540 0.54509804 0.71372549 0.60000000
v -0.00176054 0.02896713 0.00056675 0.54509804 0.71372549 0.60000000
v -0.00271895 0.03254175 0.00053146 0.54509804 0.71372549 0.60000000
v -0.00289294 0.03380193 0.00048625 0.54509804 0.71372549 0.60000000
v -0.00301274 0.03503482 0.00042450 0.54509804 0.71372549 0.60000000
v -0.00256207 0.03855983 0.00012234 0.54509804 0.71372549 0.60000000
v -0.00254780 0.03733935 0.00027783 0.54509804 0.71372549 0.60000000
v -0.00253639 0.03977287 -0.00006954 0.54509804 0.71372549 0.60000000
v -0.00247079 0.04098343 -0.00030333 0.54509804 0.71372549 0.60000000
v -0.00295997 0.04329292 -0.00114805 0.54509804 0.71372549 0.60000000
v -0.00256064 0.04221632 -0.00059997 0.54509804 0.71372549 0.60000000
v -0.00281450 0.04226841 -0.00064078 0.54509804 0.71372549 0.60000000
v -0.00271467 0.04277447 -0.00079185 0.54509804 0.71372549 0.60000000
v -0.00262054 0.04327804 -0.00104439 0.54509804 0.71372549 0.60000000
v -0.00300419 0.04396022 -0.00199277 0.54509804 0.71372549 0.60000000
v -0.00305268 0.04424053 -0.00277242 0.54509804 0.71372549 0.60000000
v -0.00345344 0.04396270 -0.00296430 0.54509804 0.71372549 0.60000000
v -0.00363884 0.04381882 -0.00323338 0.54509804 0.71372549 0.60000000
v -0.00365738 0.04379402 -0.00321463 0.54509804 0.71372549 0.60000000
v -0.00319815 0.04425046 -0.00323889 0.54509804 0.71372549 0.60000000
v -0.00300133 0.04452333 -0.00383218 0.54509804 0.71372549 0.60000000
v -0.00287155 0.04464240 -0.00403288 0.54509804 0.71372549 0.60000000
v -0.00290007 0.04468457 -0.00500993 0.54509804 0.71372549 0.60000000
v -0.00262625 0.04480860 -0.00587891 0.54509804 0.71372549 0.60000000
v -0.00287155 0.04464240 -0.00596713 0.54509804 0.71372549 0.60000000
v -0.00262625 0.04480860 -0.00412110 0.54509804 0.71372549 0.60000000
v -0.00290007 0.04468457 -0.00499008 0.54509804 0.71372549 0.60000000
v -0.00245510 0.04495000 -0.00500001 0.54509804 0.71372549 0.60000000
v -0.00344773 0.04396766 -0.00703902 0.54509804 0.71372549 0.60000000
v -0.00304840 0.04424302 -0.00722980 0.54509804 0.71372549 0.60000000
v -0.00300133 0.04452333 -0.00616783 0.54509804 0.71372549 0.60000000
v -0.00319815 0.04425046 -0.00676112 0.54509804 0.71372549 0.60000000
v -0.00299991 0.04396270 -0.00801055 0.54509804 0.71372549 0.60000000
v -0.00274177 0.04402472 -0.00812414 0.54509804 0.71372549 0.60000000
v -0.00284731 0.04369479 -0.00148108 0.54509804 0.71372549 0.60000000
v -0.00274604 0.04402472 -0.00187697 0.54509804 0.71372549 0.60000000
v -0.00244369 0.04408673 -0.00818369 0.54509804 0.71372549 0.60000000
v -0.00211281 0.04409666 -0.00827522 0.54509804 0.71372549 0.60000000
v -0.00070373 0.04196081 -0.00936365 0.54509804 0.71372549 0.60000000
v -0.00035146 0.03953225 -0.00977608 0.54509804 0.71372549 0.60000000
v -0.00025305 0.03708136 -0.01012896 0.54509804 0.71372549 0.60000000
v -0.00005196 0.03461558 -0.01035283 0.54509804 0.71372549 0.60000000
v 0.00018479 0.03214733 -0.01046862 0.54509804 0.71372549 0.60000000
v -0.00121003 0.04263555 -0.00925668 0.54509804 0.71372549 0.60000000
v -0.00063813 0.04256361 -0.00920595 0.54509804 0.71372549 0.60000000
v -0.00113159 0.04323339 -0.00900966 0.54509804 0.71372549 0.60000000
v -0.00105458 0.04377665 -0.00866780 0.54509804 0.71372549 0.60000000
v -0.00159368 0.04421573 -0.00823772 0.54509804 0.71372549 0.60000000
v -0.00098755 0.04424053 -0.00825757 0.54509804 0.71372549 0.60000000
v -0.00061959 0.03091692 -0.01058551 0.54509804 0.71372549 0.60000000
v 0.00071533 0.02660554 -0.01058441 0.54509804 0.71372549 0.60000000
v 0.00067540 0.02526599 -0.01058882 0.54509804 0.71372549 0.60000000
v 0.00178641 0.01990529 -0.01046531 0.54509804 0.71372549 0.60000000
v 0.00177214 0.01990529 -0.01046531 0.54509804 0.71372549 0.60000000
v 0.00136425 0.01992761 -0.01046090 0.54509804 0.71372549 0.60000000
v -0.00205291 0.03245245 0.00059212 0.54509804 0.71372549 0.60000000
v -0.00171348 0.03080530 0.00063182 0.54509804 0.71372549 0.60000000
v -0.00139544 0.02962698 0.00063292 0.54509804 0.71372549 0.60000000
v 0.00067682 0.01990529 0.00030981 0.54509804 0.71372549 0.60000000
v -0.00014181 0.02599282 0.00059763 0.54509804 0.71372549 0.60000000
v 0.00106047 0.01990529 0.00043663 0.54509804 0.71372549 0.60000000
v -0.00224688 0.03368038 0.00054690 0.54509804 0.71372549 0.60000000
v -0.00239520 0.03493311 0.00048294 0.54509804 0.71372549 0.60000000
v -0.00139686 0.03967365 -0.00010263 0.54509804 0.71372549 0.60000000
v -0.00134267 0.03722772 0.00024254 0.54509804 0.71372549 0.60000000
v -0.00115013 0.03476442 0.00045317 0.54509804 0.71372549 0.60000000
v -0.00127849 0.04203771 -0.00058233 0.54509804 0.71372549 0.60000000
v -0.00236240 0.04218407 -0.00058343 0.54509804 0.71372549 0.60000000
v -0.00252926 0.04372208 -0.00139948 0.54509804 0.71372549 0.60000000
v -0.00229822 0.04273229 -0.00074664 0.54509804 0.71372549 0.60000000
v -0.00222976 0.04327060 -0.00100469 0.54509804 0.71372549 0.60000000
v -0.00216273 0.04374936 -0.00136309 0.54509804 0.71372549 0.60000000
v -0.00258346 0.04447124 -0.00265332 0.54509804 0.71372549 0.60000000
v -0.00275603 0.04456798 -0.00324330 0.54509804 0.71372549 0.60000000
v -0.00257633 0.04482597 -0.00402626 0.54509804 0.71372549 0.60000000
v -0.00243371 0.04491031 -0.00583811 0.54509804 0.71372549 0.60000000
v -0.00257633 0.04482597 -0.00597375 0.54509804 0.71372549 0.60000000
v -0.00275603 0.04456798 -0.00675671 0.54509804 0.71372549 0.60000000
v -0.00243371 0.04491031 -0.00416190 0.54509804 0.71372549 0.60000000
v -0.00227255 0.04497977 -0.00582487 0.54509804 0.71372549 0.60000000
v -0.00232674 0.04495744 -0.00417293 0.54509804 0.71372549 0.60000000
v -0.00195879 0.04512365 -0.00499008 0.54509804 0.71372549 0.60000000
v -0.00195879 0.04512365 -0.00500993 0.54509804 0.71372549 0.60000000
v -0.00258061 0.04447372 -0.00734779 0.54509804 0.71372549 0.60000000
v -0.00202582 0.04467217 -0.00738749 0.54509804 0.71372549 0.60000000
v -0.00208001 0.04431495 -0.00798960 0.54509804 0.71372549 0.60000000
v -0.00244654 0.04408673 -0.00181632 0.54509804 0.71372549 0.60000000
v -0.00208001 0.04431495 -0.00201041 0.54509804 0.71372549 0.60000000
v -0.00202582 0.04467217 -0.00261252 0.54509804 0.71372549 0.60000000
v -0.00154661 0.04455806 -0.00780323 0.54509804 0.71372549 0.60000000
v -0.00027445 0.04190127 -0.00929748 0.54509804 0.71372549 0.60000000
v 0.00035165 0.03943550 -0.00961949 0.54509804 0.71372549 0.60000000
v 0.00055417 0.03696973 -0.00996134 0.54509804 0.71372549 0.60000000
v 0.00083798 0.03449403 -0.01018300 0.54509804 0.71372549 0.60000000
v 0.00110611 0.03202082 -0.01030761 0.54509804 0.71372549 0.60000000
v 0.00271914 0.02664027 -0.01034290 0.54509804 0.71372549 0.60000000
v 0.00163523 0.02691066 -0.01048295 0.54509804 0.71372549 0.60000000
v 0.00032598 0.03095165 -0.01049288 0.54509804 0.71372549 0.60000000
v -0.00056111 0.04317137 -0.00896996 0.54509804 0.71372549 0.60000000
v -0.00016035 0.04310191 -0.00891262 0.54509804 0.71372549 0.60000000
v -0.00022310 0.04249167 -0.00914420 0.54509804 0.71372549 0.60000000
v -0.00048410 0.04372952 -0.00864575 0.54509804 0.71372549 0.60000000
v -0.00041564 0.04420581 -0.00824985 0.54509804 0.71372549 0.60000000
v -0.00093335 0.04460023 -0.00782308 0.54509804 0.71372549 0.60000000
v -0.00036002 0.04458038 -0.00782529 0.54509804 0.71372549 0.60000000
v 0.00077238 0.02663283 -0.01058000 0.54509804 0.71372549 0.60000000
v 0.00122448 0.02546444 -0.01055463 0.54509804 0.71372549 0.60000000
v 0.00253944 0.01990529 -0.01043333 0.54509804 0.71372549 0.60000000
v -0.00117153 0.03087723 0.00061858 0.54509804 0.71372549 0.60000000
v -0.00084635 0.03228625 0.00055903 0.54509804 0.71372549 0.60000000
v -0.00076791 0.02933675 0.00061969 0.54509804 0.71372549 0.60000000
v -0.00008191 0.02604988 0.00060094 0.54509804 0.71372549 0.60000000
v 0.00035023 0.02639221 0.00060204 0.54509804 0.71372549 0.60000000
v 0.00135855 0.01990529 0.00045978 0.54509804 0.71372549 0.60000000
v 0.00026180 0.02506505 0.00058881 0.54509804 0.71372549 0.60000000
v -0.00025305 0.03708136 0.00012895 0.54509804 0.71372549 0.60000000
v -0.00035146 0.03953225 -0.00022393 0.54509804 0.71372549 0.60000000
v -0.00070373 0.04196081 -0.00063636 0.54509804 0.71372549 0.60000000
v -0.00005196 0.03461558 0.00035282 0.54509804 0.71372549 0.60000000
v 0.00018479 0.03214733 0.00046861 0.54509804 0.71372549 0.60000000
v -0.00063813 0.04255865 -0.00079296 0.54509804 0.71372549 0.60000000
v -0.00121003 0.04263059 -0.00074223 0.54509804 0.71372549 0.60000000
v -0.00211281 0.04409666 -0.00172479 0.54509804 0.71372549 0.60000000
v -0.00113302 0.04322595 -0.00098704 0.54509804 0.71372549 0.60000000
v -0.00105600 0.04376673 -0.00132559 0.54509804 0.71372549 0.60000000
v -0.00098897 0.04423061 -0.00173251 0.54509804 0.71372549 0.60000000
v -0.00159511 0.04420581 -0.00175236 0.54509804 0.71372549 0.60000000
v -0.00200870 0.04478628 -0.00287167 0.54509804 0.71372549 0.60000000
v -0.00248362 0.04471682 -0.00324661 0.54509804 0.71372549 0.60000000
v -0.00226256 0.04497481 -0.00408250 0.54509804 0.71372549 0.60000000
v -0.00226256 0.04497481 -0.00591751 0.54509804 0.71372549 0.60000000
v -0.00248077 0.04471930 -0.00675340 0.54509804 0.71372549 0.60000000
v -0.00195165 0.04508148 -0.00583149 0.54509804 0.71372549 0.60000000
v -0.00195165 0.04508148 -0.00416852 0.54509804 0.71372549 0.60000000
v -0.00178622 0.04511869 -0.00413654 0.54509804 0.71372549 0.60000000
v -0.00144963 0.04521543 -0.00499008 0.54509804 0.71372549 0.60000000
v -0.00144963 0.04521543 -0.00500993 0.54509804 0.71372549 0.60000000
v -0.00152237 0.04515838 -0.00590648 0.54509804 0.71372549 0.60000000
v -0.00200870 0.04478628 -0.00712834 0.54509804 0.71372549 0.60000000
v -0.00151239 0.04479868 -0.00739852 0.54509804 0.71372549 0.60000000
v -0.00154804 0.04454814 -0.00218465 0.54509804 0.71372549 0.60000000
v -0.00151381 0.04479372 -0.00258826 0.54509804 0.71372549 0.60000000
v -0.00089342 0.04485326 -0.00741175 0.54509804 0.71372549 0.60000000
v 0.00029460 0.04182438 -0.00915853 0.54509804 0.71372549 0.60000000
v 0.00100485 0.03934868 -0.00938901 0.54509804 0.71372549 0.60000000
v 0.00130578 0.03686802 -0.00970550 0.54509804 0.71372549 0.60000000
v 0.00166518 0.03437992 -0.00991613 0.54509804 0.71372549 0.60000000
v 0.00477856 0.02622352 -0.00985327 0.54509804 0.71372549 0.60000000
v 0.00400699 0.02605980 -0.01010912 0.54509804 0.71372549 0.60000000
v 0.00355631 0.02683624 -0.01015874 0.54509804 0.71372549 0.60000000
v 0.00314557 0.02585390 -0.01030100 0.54509804 0.71372549 0.60000000
v 0.00220571 0.02572987 -0.01044325 0.54509804 0.71372549 0.60000000
v -0.00009760 0.04364766 -0.00860715 0.54509804 0.71372549 0.60000000
v 0.00075527 0.04285633 -0.00866008 0.54509804 0.71372549 0.60000000
v 0.00078094 0.04229322 -0.00884755 0.54509804 0.71372549 0.60000000
v 0.00072817 0.04339959 -0.00839652 0.54509804 0.71372549 0.60000000
v -0.00003627 0.04414131 -0.00822008 0.54509804 0.71372549 0.60000000
v 0.00001079 0.04452333 -0.00781095 0.54509804 0.71372549 0.60000000
v -0.00032009 0.04483589 -0.00741616 0.54509804 0.71372549 0.60000000
v 0.00004359 0.04477636 -0.00743381 0.54509804 0.71372549 0.60000000
v 0.00360908 0.01990529 -0.01033298 0.54509804 0.71372549 0.60000000
v 0.00349214 0.01990529 -0.01034400 0.54509804 0.71372549 0.60000000
v 0.00071533 0.02660554 0.00058440 0.54509804 0.71372549 0.60000000
v -0.00062101 0.03092437 0.00058550 0.54509804 0.71372549 0.60000000
v 0.00067255 0.02527591 0.00058881 0.54509804 0.71372549 0.60000000
v 0.00177500 0.01990529 0.00046530 0.54509804 0.71372549 0.60000000
v 0.00136425 0.01992761 0.00046089 0.54509804 0.71372549 0.60000000
v 0.00084226 0.03449403 0.00018189 0.54509804 0.71372549 0.60000000
v 0.00055845 0.03696973 -0.00004087 0.54509804 0.71372549 0.60000000
v 0.00035593 0.03943550 -0.00038163 0.54509804 0.71372549 0.60000000
v -0.00027445 0.04190127 -0.00070253 0.54509804 0.71372549 0.60000000
v 0.00115032 0.03201586 0.00029658 0.54509804 0.71372549 0.60000000
v 0.00032028 0.03098638 0.00049176 0.54509804 0.71372549 0.60000000
v 0.00163523 0.02691066 0.00048294 0.54509804 0.71372549 0.60000000
v 0.00271914 0.02664027 0.00034289 0.54509804 0.71372549 0.60000000
v -0.00022310 0.04249167 -0.00085581 0.54509804 0.71372549 0.60000000
v -0.00016035 0.04310191 -0.00108740 0.54509804 0.71372549 0.60000000
v -0.00056111 0.04316393 -0.00102674 0.54509804 0.71372549 0.60000000
v -0.00048552 0.04371960 -0.00134765 0.54509804 0.71372549 0.60000000
v -0.00041707 0.04419588 -0.00174023 0.54509804 0.71372549 0.60000000
v -0.00036145 0.04457046 -0.00216149 0.54509804 0.71372549 0.60000000
v -0.00093478 0.04459279 -0.00216369 0.54509804 0.71372549 0.60000000
v -0.00147673 0.04503186 -0.00325433 0.54509804 0.71372549 0.60000000
v -0.00199159 0.04491031 -0.00325102 0.54509804 0.71372549 0.60000000
v -0.00197733 0.04500458 -0.00365573 0.54509804 0.71372549 0.60000000
v -0.00196449 0.04506907 -0.00407699 0.54509804 0.71372549 0.60000000
v -0.00196449 0.04506907 -0.00592302 0.54509804 0.71372549 0.60000000
v -0.00197733 0.04500458 -0.00634428 0.54509804 0.71372549 0.60000000
v -0.00199159 0.04491031 -0.00674899 0.54509804 0.71372549 0.60000000
v -0.00138973 0.04516582 -0.00399098 0.54509804 0.71372549 0.60000000
v -0.00126138 0.04518318 -0.00407699 0.54509804 0.71372549 0.60000000
v -0.00093335 0.04524272 -0.00499008 0.54509804 0.71372549 0.60000000
v -0.00093335 0.04524272 -0.00500993 0.54509804 0.71372549 0.60000000
v -0.00090483 0.04519559 -0.00593736 0.54509804 0.71372549 0.60000000
v -0.00138973 0.04516582 -0.00600904 0.54509804 0.71372549 0.60000000
v -0.00147673 0.04503186 -0.00674568 0.54509804 0.71372549 0.60000000
v -0.00089484 0.04484581 -0.00257392 0.54509804 0.71372549 0.60000000
v -0.00097328 0.04507404 -0.00674458 0.54509804 0.71372549 0.60000000
v -0.00084493 0.04507652 -0.00674458 0.54509804 0.71372549 0.60000000
v 0.00080376 0.04175492 -0.00897106 0.54509804 0.71372549 0.60000000
v 0.00099772 0.04172763 -0.00888174 0.54509804 0.71372549 0.60000000
v 0.00158816 0.03927178 -0.00910229 0.54509804 0.71372549 0.60000000
v 0.00198037 0.03677872 -0.00938239 0.54509804 0.71372549 0.60000000
v 0.00527060 0.02611933 -0.00966139 0.54509804 0.71372549 0.60000000
v 0.00506523 0.02586879 -0.00978711 0.54509804 0.71372549 0.60000000
v 0.00473293 0.02510474 -0.00996906 0.54509804 0.71372549 0.60000000
v 0.00448762 0.02516924 -0.01003633 0.54509804 0.71372549 0.60000000
v 0.00421236 0.02483931 -0.01011904 0.54509804 0.71372549 0.60000000
v 0.00364474 0.02482443 -0.01023593 0.54509804 0.71372549 0.60000000
v 0.00440775 0.01990529 -0.01021388 0.54509804 0.71372549 0.60000000
v 0.00433644 0.01990529 -0.01022491 0.54509804 0.71372549 0.60000000
v 0.00272484 0.02457388 -0.01038811 0.54509804 0.71372549 0.60000000
v 0.00070250 0.04388828 -0.00807231 0.54509804 0.71372549 0.60000000
v 0.00116886 0.04270005 -0.00847371 0.54509804 0.71372549 0.60000000
v 0.00107331 0.04367495 -0.00794659 0.54509804 0.71372549 0.60000000
v 0.00111752 0.04320858 -0.00823993 0.54509804 0.71372549 0.60000000
v 0.00068253 0.04428271 -0.00771722 0.54509804 0.71372549 0.60000000
v 0.00067682 0.04456054 -0.00736654 0.54509804 0.71372549 0.60000000
v 0.00006499 0.04493760 -0.00706879 0.54509804 0.71372549 0.60000000
v 0.00068681 0.04471682 -0.00704343 0.54509804 0.71372549 0.60000000
v 0.00122163 0.02547436 0.00055573 0.54509804 0.71372549 0.60000000
v 0.00077808 0.02663531 0.00057888 0.54509804 0.71372549 0.60000000
v 0.00180637 0.01990529 0.00046420 0.54509804 0.71372549 0.60000000
v 0.00253944 0.01990529 0.00043332 0.54509804 0.71372549 0.60000000
v 0.00167516 0.03437992 -0.00008829 0.54509804 0.71372549 0.60000000
v 0.00355631 0.02683624 0.00015873 0.54509804 0.71372549 0.60000000
v 0.00400699 0.02605980 0.00010911 0.54509804 0.71372549 0.60000000
v 0.00477856 0.02622352 -0.00014674 0.54509804 0.71372549 0.60000000
v 0.00131433 0.03686802 -0.00029782 0.54509804 0.71372549 0.60000000
v 0.00101341 0.03934620 -0.00061431 0.54509804 0.71372549 0.60000000
v 0.00029888 0.04182438 -0.00084258 0.54509804 0.71372549 0.60000000
v 0.00220571 0.02572987 0.00044324 0.54509804 0.71372549 0.60000000
v 0.00314557 0.02585390 0.00030099 0.54509804 0.71372549 0.60000000
v 0.00078094 0.04229322 -0.00115246 0.54509804 0.71372549 0.60000000
v 0.00075527 0.04285633 -0.00133993 0.54509804 0.71372549 0.60000000
v 0.00072817 0.04339959 -0.00160349 0.54509804 0.71372549 0.60000000
v -0.00009760 0.04364766 -0.00139286 0.54509804 0.71372549 0.60000000
v -0.00003627 0.04414131 -0.00177993 0.54509804 0.71372549 0.60000000
v 0.00001079 0.04451341 -0.00217693 0.54509804 0.71372549 0.60000000
v 0.00004359 0.04477636 -0.00256620 0.54509804 0.71372549 0.60000000
v -0.00032151 0.04482845 -0.00256951 0.54509804 0.71372549 0.60000000
v -0.00097328 0.04507404 -0.00325543 0.54509804 0.71372549 0.60000000
v -0.00091053 0.04518814 -0.00397443 0.54509804 0.71372549 0.60000000
v -0.00092907 0.04524272 -0.00499008 0.54509804 0.71372549 0.60000000
v -0.00092907 0.04524272 -0.00500993 0.54509804 0.71372549 0.60000000
v -0.00045130 0.04518814 -0.00593294 0.54509804 0.71372549 0.60000000
v -0.00046984 0.04518318 -0.00602006 0.54509804 0.71372549 0.60000000
v -0.00091053 0.04518814 -0.00602558 0.54509804 0.71372549 0.60000000
v -0.00085348 0.04507652 -0.00325543 0.54509804 0.71372549 0.60000000
v 0.00002077 0.04502690 -0.00674568 0.54509804 0.71372549 0.60000000
v 0.00165947 0.04163832 -0.00846489 0.54509804 0.71372549 0.60000000
v 0.00208448 0.03920480 -0.00877477 0.54509804 0.71372549 0.60000000
v 0.00564141 0.02617887 -0.00945518 0.54509804 0.71372549 0.60000000
v 0.00543889 0.02634507 -0.00953457 0.54509804 0.71372549 0.60000000
v 0.00602078 0.02530816 -0.00939673 0.54509804 0.71372549 0.60000000
v 0.00543461 0.02522878 -0.00970771 0.54509804 0.71372549 0.60000000
v 0.00527488 0.02422411 -0.00984776 0.54509804 0.71372549 0.60000000
v 0.00491976 0.02416954 -0.00996245 0.54509804 0.71372549 0.60000000
v 0.00527631 0.01990529 -0.01003633 0.54509804 0.71372549 0.60000000
v 0.00449047 0.01990529 -0.01019844 0.54509804 0.71372549 0.60000000
v 0.00104336 0.04405200 -0.00762348 0.54509804 0.71372549 0.60000000
v 0.00152826 0.04251648 -0.00825978 0.54509804 0.71372549 0.60000000
v 0.00166803 0.04163832 -0.00845828 0.54509804 0.71372549 0.60000000
v 0.00142415 0.04338719 -0.00779993 0.54509804 0.71372549 0.60000000
v 0.00146836 0.04297044 -0.00805908 0.54509804 0.71372549 0.60000000
v 0.00139563 0.04372952 -0.00751321 0.54509804 0.71372549 0.60000000
v 0.00103337 0.04431743 -0.00730478 0.54509804 0.71372549 0.60000000
v 0.00104621 0.04445883 -0.00701255 0.54509804 0.71372549 0.60000000
v 0.00007640 0.04501946 -0.00674568 0.54509804 0.71372549 0.60000000
v 0.00070535 0.04478628 -0.00674568 0.54509804 0.71372549 0.60000000
v 0.00076810 0.04474659 -0.00674568 0.54509804 0.71372549 0.60000000
v 0.00355774 0.01990529 0.00033848 0.54509804 0.71372549 0.60000000
v 0.00360766 0.01990529 0.00033297 0.54509804 0.71372549 0.60000000
v 0.00421236 0.02483931 0.00011903 0.54509804 0.71372549 0.60000000
v 0.00448762 0.02516924 0.00003632 0.54509804 0.71372549 0.60000000
v 0.00473293 0.02510474 -0.00003095 0.54509804 0.71372549 0.60000000
v 0.00506523 0.02586879 -0.00021290 0.54509804 0.71372549 0.60000000
v 0.00199178 0.03677624 -0.00062423 0.54509804 0.71372549 0.60000000
v 0.00527060 0.02611933 -0.00033862 0.54509804 0.71372549 0.60000000
v 0.00159815 0.03926930 -0.00090323 0.54509804 0.71372549 0.60000000
v 0.00099772 0.04172763 -0.00111827 0.54509804 0.71372549 0.60000000
v 0.00080376 0.04175492 -0.00102895 0.54509804 0.71372549 0.60000000
v 0.00272484 0.02457388 0.00038810 0.54509804 0.71372549 0.60000000
v 0.00440775 0.01990529 0.00021387 0.54509804 0.71372549 0.60000000
v 0.00364474 0.02482443 0.00023592 0.54509804 0.71372549 0.60000000
v 0.00116886 0.04270005 -0.00152630 0.54509804 0.71372549 0.60000000
v 0.00107331 0.04367495 -0.00205342 0.54509804 0.71372549 0.60000000
v 0.00070250 0.04388828 -0.00192770 0.54509804 0.71372549 0.60000000
v 0.00111752 0.04320858 -0.00176008 0.54509804 0.71372549 0.60000000
v 0.00068253 0.04428271 -0.00228279 0.54509804 0.71372549 0.60000000
v 0.00067682 0.04456054 -0.00263347 0.54509804 0.71372549 0.60000000
v 0.00068681 0.04471682 -0.00295658 0.54509804 0.71372549 0.60000000
v 0.00006499 0.04493760 -0.00293122 0.54509804 0.71372549 0.60000000
v -0.00041279 0.04518814 -0.00406817 0.54509804 0.71372549 0.60000000
v -0.00046984 0.04518318 -0.00397995 0.54509804 0.71372549 0.60000000
v 0.00009779 0.04518318 -0.00500001 0.54509804 0.71372549 0.60000000
v 0.00008923 0.04513357 -0.00594507 0.54509804 0.71372549 0.60000000
v 0.00008210 0.04512861 -0.00603219 0.54509804 0.71372549 0.60000000
v 0.00008495 0.04507900 -0.00638949 0.54509804 0.71372549 0.60000000
v 0.00002077 0.04502690 -0.00325433 0.54509804 0.71372549 0.60000000
v 0.00612632 0.02625081 -0.00909126 0.54509804 0.71372549 0.60000000
v 0.00648572 0.02535777 -0.00904274 0.54509804 0.71372549 0.60000000
v 0.00636592 0.02432086 -0.00932615 0.54509804 0.71372549 0.60000000
v 0.00566566 0.02427124 -0.00969668 0.54509804 0.71372549 0.60000000
v 0.00600794 0.01990529 -0.00982791 0.54509804 0.71372549 0.60000000
v 0.00139135 0.04396518 -0.00722980 0.54509804 0.71372549 0.60000000
v 0.00183204 0.04231306 -0.00802379 0.54509804 0.71372549 0.60000000
v 0.00188909 0.04160856 -0.00825647 0.54509804 0.71372549 0.60000000
v 0.00172080 0.04332517 -0.00739301 0.54509804 0.71372549 0.60000000
v 0.00173934 0.04303741 -0.00763892 0.54509804 0.71372549 0.60000000
v 0.00172365 0.04352114 -0.00715150 0.54509804 0.71372549 0.60000000
v 0.00140989 0.04408673 -0.00697395 0.54509804 0.71372549 0.60000000
v 0.00107331 0.04451341 -0.00674568 0.54509804 0.71372549 0.60000000
v 0.00048857 0.04500706 -0.00607520 0.54509804 0.71372549 0.60000000
v 0.00070250 0.04485822 -0.00637846 0.54509804 0.71372549 0.60000000
v 0.00087364 0.04478628 -0.00611049 0.54509804 0.71372549 0.60000000
v 0.00518218 0.01990529 0.00005617 0.54509804 0.71372549 0.60000000
v 0.00527631 0.01990529 0.00003632 0.54509804 0.71372549 0.60000000
v 0.00491976 0.02416954 -0.00003756 0.54509804 0.71372549 0.60000000
v 0.00527488 0.02422411 -0.00015225 0.54509804 0.71372549 0.60000000
v 0.00543461 0.02522878 -0.00029230 0.54509804 0.71372549 0.60000000
v 0.00543889 0.02634507 -0.00046544 0.54509804 0.71372549 0.60000000
v 0.00564141 0.02617887 -0.00054483 0.54509804 0.71372549 0.60000000
v 0.00602078 0.02530816 -0.00060328 0.54509804 0.71372549 0.60000000
v 0.00209446 0.03920480 -0.00123296 0.54509804 0.71372549 0.60000000
v 0.00165947 0.04163832 -0.00153512 0.54509804 0.71372549 0.60000000
v 0.00152826 0.04251648 -0.00174023 0.54509804 0.71372549 0.60000000
v 0.00146836 0.04297044 -0.00194093 0.54509804 0.71372549 0.60000000
v 0.00142415 0.04338719 -0.00220008 0.54509804 0.71372549 0.60000000
v 0.00139563 0.04372952 -0.00248680 0.54509804 0.71372549 0.60000000
v 0.00104336 0.04405200 -0.00237653 0.54509804 0.71372549 0.60000000
v 0.00103337 0.04431743 -0.00269523 0.54509804 0.71372549 0.60000000
v 0.00104621 0.04445883 -0.00298746 0.54509804 0.71372549 0.60000000
v 0.00076810 0.04474659 -0.00325433 0.54509804 0.71372549 0.60000000
v 0.00070535 0.04478628 -0.00325433 0.54509804 0.71372549 0.60000000
v 0.00067968 0.04480116 -0.00325433 0.54509804 0.71372549 0.60000000
v 0.00007640 0.04501946 -0.00325433 0.54509804 0.71372549 0.60000000
v 0.00008210 0.04512861 -0.00396782 0.54509804 0.71372549 0.60000000
v 0.00008923 0.04513357 -0.00405494 0.54509804 0.71372549 0.60000000
v 0.00008495 0.04507900 -0.00361052 0.54509804 0.71372549 0.60000000
v 0.00010492 0.04513109 -0.00405494 0.54509804 0.71372549 0.60000000
v 0.00011918 0.04512861 -0.00405383 0.54509804 0.71372549 0.60000000
v 0.00061550 0.04501202 -0.00499008 0.54509804 0.71372549 0.60000000
v 0.00061550 0.04501202 -0.00500993 0.54509804 0.71372549 0.60000000
v 0.00011918 0.04512861 -0.00594618 0.54509804 0.71372549 0.60000000
v 0.00010492 0.04513109 -0.00594507 0.54509804 0.71372549 0.60000000
v 0.00009066 0.04512613 -0.00603330 0.54509804 0.71372549 0.60000000
v 0.00683371 0.02538010 -0.00865236 0.54509804 0.71372549 0.60000000
v 0.00675527 0.02432582 -0.00902841 0.54509804 0.71372549 0.60000000
v 0.00667540 0.02284735 -0.00930410 0.54509804 0.71372549 0.60000000
v 0.00613915 0.02271091 -0.00960405 0.54509804 0.71372549 0.60000000
v 0.00652565 0.02069662 -0.00957538 0.54509804 0.71372549 0.60000000
v 0.00663547 0.01990529 -0.00957869 0.54509804 0.71372549 0.60000000
v 0.00203456 0.04238252 -0.00764113 0.54509804 0.71372549 0.60000000
v 0.00207592 0.04209725 -0.00777015 0.54509804 0.71372549 0.60000000
v 0.00218717 0.04156639 -0.00787381 0.54509804 0.71372549 0.60000000
v 0.00200176 0.04286377 -0.00726839 0.54509804 0.71372549 0.60000000
v 0.00200889 0.04264547 -0.00746689 0.54509804 0.71372549 0.60000000
v 0.00177642 0.04364270 -0.00674678 0.54509804 0.71372549 0.60000000
v 0.00188481 0.04345169 -0.00674678 0.54509804 0.71372549 0.60000000
v 0.00201032 0.04301013 -0.00707210 0.54509804 0.71372549 0.60000000
v 0.00144697 0.04411650 -0.00674568 0.54509804 0.71372549 0.60000000
v 0.00130435 0.04441170 -0.00613806 0.54509804 0.71372549 0.60000000
v 0.00133002 0.04434224 -0.00637956 0.54509804 0.71372549 0.60000000
v 0.00105762 0.04465481 -0.00603881 0.54509804 0.71372549 0.60000000
v 0.00059268 0.04496737 -0.00599139 0.54509804 0.71372549 0.60000000
v 0.00071533 0.04489047 -0.00609505 0.54509804 0.71372549 0.60000000
v 0.00073815 0.04488551 -0.00600793 0.54509804 0.71372549 0.60000000
v 0.00106903 0.04471434 -0.00500993 0.54509804 0.71372549 0.60000000
v 0.00585392 0.01990529 -0.00012578 0.54509804 0.71372549 0.60000000
v 0.00600794 0.01990529 -0.00017210 0.54509804 0.71372549 0.60000000
v 0.00566566 0.02427124 -0.00030333 0.54509804 0.71372549 0.60000000
v 0.00580400 0.02428365 -0.00036508 0.54509804 0.71372549 0.60000000
v 0.00612632 0.02625081 -0.00090875 0.54509804 0.71372549 0.60000000
v 0.00636592 0.02432086 -0.00067386 0.54509804 0.71372549 0.60000000
v 0.00648572 0.02535777 -0.00095727 0.54509804 0.71372549 0.60000000
v 0.00167659 0.04163584 -0.00154835 0.54509804 0.71372549 0.60000000
v 0.00188909 0.04160856 -0.00174354 0.54509804 0.71372549 0.60000000
v 0.00183204 0.04231306 -0.00197622 0.54509804 0.71372549 0.60000000
v 0.00173934 0.04303741 -0.00236109 0.54509804 0.71372549 0.60000000
v 0.00172080 0.04332517 -0.00260700 0.54509804 0.71372549 0.60000000
v 0.00172365 0.04352114 -0.00284851 0.54509804 0.71372549 0.60000000
v 0.00139135 0.04396518 -0.00277021 0.54509804 0.71372549 0.60000000
v 0.00140989 0.04408673 -0.00302606 0.54509804 0.71372549 0.60000000
v 0.00107331 0.04451341 -0.00325433 0.54509804 0.71372549 0.60000000
v 0.00128724 0.04430503 -0.00325433 0.54509804 0.71372549 0.60000000
v 0.00094638 0.04473419 -0.00388290 0.54509804 0.71372549 0.60000000
v 0.00070250 0.04485822 -0.00362155 0.54509804 0.71372549 0.60000000
v 0.00055417 0.04497729 -0.00392260 0.54509804 0.71372549 0.60000000
v 0.00009066 0.04512613 -0.00396671 0.54509804 0.71372549 0.60000000
v 0.00059268 0.04496737 -0.00400862 0.54509804 0.71372549 0.60000000
v 0.00063689 0.04500210 -0.00500001 0.54509804 0.71372549 0.60000000
v 0.00708472 0.02538754 -0.00822670 0.54509804 0.71372549 0.60000000
v 0.00710897 0.02430845 -0.00864244 0.54509804 0.71372549 0.60000000
v 0.00708615 0.02295401 -0.00896775 0.54509804 0.71372549 0.60000000
v 0.00703338 0.02088019 -0.00927984 0.54509804 0.71372549 0.60000000
v 0.00716744 0.01990529 -0.00928314 0.54509804 0.71372549 0.60000000
v 0.00234405 0.04154406 -0.00754960 0.54509804 0.71372549 0.60000000
v 0.00239824 0.04180949 -0.00712834 0.54509804 0.71372549 0.60000000
v 0.00165377 0.04393789 -0.00637956 0.54509804 0.71372549 0.60000000
v 0.00172508 0.04388828 -0.00613254 0.54509804 0.71372549 0.60000000
v 0.00194471 0.04346409 -0.00637956 0.54509804 0.71372549 0.60000000
v 0.00207735 0.04305230 -0.00674678 0.54509804 0.71372549 0.60000000
v 0.00240395 0.04194097 -0.00695521 0.54509804 0.71372549 0.60000000
v 0.00239539 0.04185414 -0.00708644 0.54509804 0.71372549 0.60000000
v 0.00146408 0.04423309 -0.00614026 0.54509804 0.71372549 0.60000000
v 0.00109898 0.04468953 -0.00500001 0.54509804 0.71372549 0.60000000
v 0.00145553 0.04433728 -0.00500993 0.54509804 0.71372549 0.60000000
v 0.00146979 0.04423805 -0.00605425 0.54509804 0.71372549 0.60000000
v 0.00106903 0.04471434 -0.00499008 0.54509804 0.71372549 0.60000000
v 0.00644436 0.01990529 -0.00034303 0.54509804 0.71372549 0.60000000
v 0.00652565 0.02069662 -0.00042463 0.54509804 0.71372549 0.60000000
v 0.00613915 0.02271091 -0.00039596 0.54509804 0.71372549 0.60000000
v 0.00667540 0.02284735 -0.00069591 0.54509804 0.71372549 0.60000000
v 0.00680661 0.02432582 -0.00101792 0.54509804 0.71372549 0.60000000
v 0.00683371 0.02538010 -0.00134765 0.54509804 0.71372549 0.60000000
v 0.00218717 0.04156639 -0.00212620 0.54509804 0.71372549 0.60000000
v 0.00207592 0.04209725 -0.00222986 0.54509804 0.71372549 0.60000000
v 0.00203456 0.04238252 -0.00235888 0.54509804 0.71372549 0.60000000
v 0.00200889 0.04264547 -0.00253312 0.54509804 0.71372549 0.60000000
v 0.00200176 0.04286377 -0.00273162 0.54509804 0.71372549 0.60000000
v 0.00201032 0.04301013 -0.00292791 0.54509804 0.71372549 0.60000000
v 0.00188481 0.04345169 -0.00325323 0.54509804 0.71372549 0.60000000
v 0.00177642 0.04364270 -0.00325323 0.54509804 0.71372549 0.60000000
v 0.00144697 0.04411650 -0.00325433 0.54509804 0.71372549 0.60000000
v 0.00133002 0.04434224 -0.00362045 0.54509804 0.71372549 0.60000000
v 0.00105762 0.04465481 -0.00396120 0.54509804 0.71372549 0.60000000
v 0.00073815 0.04488551 -0.00399208 0.54509804 0.71372549 0.60000000
v 0.00071391 0.04489047 -0.00390496 0.54509804 0.71372549 0.60000000
v 0.00726442 0.02538754 -0.00777566 0.54509804 0.71372549 0.60000000
v 0.00735713 0.02504521 -0.00777677 0.54509804 0.71372549 0.60000000
v 0.00737139 0.02427372 -0.00820464 0.54509804 0.71372549 0.60000000
v 0.00736283 0.02427621 -0.00822228 0.54509804 0.71372549 0.60000000
v 0.00738565 0.02304084 -0.00860164 0.54509804 0.71372549 0.60000000
v 0.00743129 0.02104143 -0.00894460 0.54509804 0.71372549 0.60000000
v 0.00739706 0.01990529 -0.00910119 0.54509804 0.71372549 0.60000000
v 0.00241251 0.04168794 -0.00720223 0.54509804 0.71372549 0.60000000
v 0.00178641 0.04390813 -0.00500993 0.54509804 0.71372549 0.60000000
v 0.00200747 0.04343680 -0.00601455 0.54509804 0.71372549 0.60000000
v 0.00200461 0.04342688 -0.00610056 0.54509804 0.71372549 0.60000000
v 0.00210017 0.04323835 -0.00608733 0.54509804 0.71372549 0.60000000
v 0.00223851 0.04294811 -0.00597816 0.54509804 0.71372549 0.60000000
v 0.00238398 0.04254625 -0.00603660 0.54509804 0.71372549 0.60000000
v 0.00237828 0.04241477 -0.00637956 0.54509804 0.71372549 0.60000000
v 0.00243960 0.04197569 -0.00674568 0.54509804 0.71372549 0.60000000
v 0.00761242 0.02500304 -0.00688573 0.54509804 0.71372549 0.60000000
v 0.00135855 0.04435465 -0.00386085 0.54509804 0.71372549 0.60000000
v 0.00145553 0.04433728 -0.00499008 0.54509804 0.71372549 0.60000000
v 0.00148263 0.04430751 -0.00500001 0.54509804 0.71372549 0.60000000
v 0.00663547 0.01990529 -0.00042132 0.54509804 0.71372549 0.60000000
v 0.00695922 0.01990529 -0.00059997 0.54509804 0.71372549 0.60000000
v 0.00703338 0.02088019 -0.00072017 0.54509804 0.71372549 0.60000000
v 0.00708615 0.02295401 -0.00103226 0.54509804 0.71372549 0.60000000
v 0.00710897 0.02430845 -0.00135757 0.54509804 0.71372549 0.60000000
v 0.00708472 0.02538754 -0.00177331 0.54509804 0.71372549 0.60000000
v 0.00219572 0.04156639 -0.00214164 0.54509804 0.71372549 0.60000000
v 0.00234405 0.04154406 -0.00245041 0.54509804 0.71372549 0.60000000
v 0.00239824 0.04180949 -0.00287167 0.54509804 0.71372549 0.60000000
v 0.00239539 0.04185414 -0.00291357 0.54509804 0.71372549 0.60000000
v 0.00240395 0.04194097 -0.00304480 0.54509804 0.71372549 0.60000000
v 0.00207735 0.04305230 -0.00325323 0.54509804 0.71372549 0.60000000
v 0.00194471 0.04346409 -0.00362045 0.54509804 0.71372549 0.60000000
v 0.00177214 0.04381882 -0.00387188 0.54509804 0.71372549 0.60000000
v 0.00165377 0.04393789 -0.00362045 0.54509804 0.71372549 0.60000000
v 0.00146408 0.04423309 -0.00385975 0.54509804 0.71372549 0.60000000
v 0.00754396 0.02424148 -0.00777787 0.54509804 0.71372549 0.60000000
v 0.00759530 0.02312270 -0.00820133 0.54509804 0.71372549 0.60000000
v 0.00771938 0.02119027 -0.00857517 0.54509804 0.71372549 0.60000000
v 0.00791334 0.01990529 -0.00856524 0.54509804 0.71372549 0.60000000
v 0.00767374 0.01990529 -0.00884976 0.54509804 0.71372549 0.60000000
v 0.00759102 0.01990529 -0.00894349 0.54509804 0.71372549 0.60000000
v 0.00178641 0.04390813 -0.00499008 0.54509804 0.71372549 0.60000000
v 0.00180352 0.04388084 -0.00500001 0.54509804 0.71372549 0.60000000
v 0.00228557 0.04296796 -0.00500993 0.54509804 0.71372549 0.60000000
v 0.00229556 0.04294563 -0.00500001 0.54509804 0.71372549 0.60000000
v 0.00235688 0.04264547 -0.00595610 0.54509804 0.71372549 0.60000000
v 0.00262073 0.04195337 -0.00500993 0.54509804 0.71372549 0.60000000
v 0.00750973 0.02607220 -0.00500993 0.54509804 0.71372549 0.60000000
v 0.00757961 0.02567778 -0.00593956 0.54509804 0.71372549 0.60000000
v 0.00750973 0.02588863 -0.00602006 0.54509804 0.71372549 0.60000000
v 0.00780780 0.02476489 -0.00604102 0.54509804 0.71372549 0.60000000
v 0.00779212 0.02418938 -0.00691110 0.54509804 0.71372549 0.60000000
v 0.00146979 0.04423805 -0.00394576 0.54509804 0.71372549 0.60000000
v 0.00716744 0.01990529 -0.00071687 0.54509804 0.71372549 0.60000000
v 0.00739706 0.01990529 -0.00089882 0.54509804 0.71372549 0.60000000
v 0.00743129 0.02104143 -0.00105541 0.54509804 0.71372549 0.60000000
v 0.00738565 0.02304084 -0.00139837 0.54509804 0.71372549 0.60000000
v 0.00736283 0.02427621 -0.00177773 0.54509804 0.71372549 0.60000000
v 0.00737139 0.02427372 -0.00179537 0.54509804 0.71372549 0.60000000
v 0.00735713 0.02504521 -0.00222324 0.54509804 0.71372549 0.60000000
v 0.00726442 0.02538754 -0.00222435 0.54509804 0.71372549 0.60000000
v 0.00241251 0.04168794 -0.00279778 0.54509804 0.71372549 0.60000000
v 0.00243960 0.04197569 -0.00325433 0.54509804 0.71372549 0.60000000
v 0.00237828 0.04241477 -0.00362045 0.54509804 0.71372549 0.60000000
v 0.00761242 0.02500304 -0.00311428 0.54509804 0.71372549 0.60000000
v 0.00223851 0.04294811 -0.00402185 0.54509804 0.71372549 0.60000000
v 0.00215009 0.04313416 -0.00392040 0.54509804 0.71372549 0.60000000
v 0.00200461 0.04342688 -0.00389945 0.54509804 0.71372549 0.60000000
v 0.00200747 0.04343680 -0.00398546 0.54509804 0.71372549 0.60000000
v 0.00774362 0.02319712 -0.00777897 0.54509804 0.71372549 0.60000000
v 0.00791049 0.02133415 -0.00818038 0.54509804 0.71372549 0.60000000
v 0.00812727 0.01990529 -0.00817707 0.54509804 0.71372549 0.60000000
v 0.00796754 0.01990529 -0.00847261 0.54509804 0.71372549 0.60000000
v 0.00228557 0.04296796 -0.00499008 0.54509804 0.71372549 0.60000000
v 0.00235688 0.04264547 -0.00404391 0.54509804 0.71372549 0.60000000
v 0.00262073 0.04195337 -0.00499008 0.54509804 0.71372549 0.60000000
v 0.00750973 0.02607220 -0.00499008 0.54509804 0.71372549 0.60000000
v 0.00766661 0.02555126 -0.00500993 0.54509804 0.71372549 0.60000000
v 0.00799891 0.02414721 -0.00500993 0.54509804 0.71372549 0.60000000
v 0.00795042 0.02413729 -0.00595721 0.54509804 0.71372549 0.60000000
v 0.00793901 0.02415961 -0.00604432 0.54509804 0.71372549 0.60000000
v 0.00794044 0.02414473 -0.00605645 0.54509804 0.71372549 0.60000000
v 0.00794329 0.02412737 -0.00605976 0.54509804 0.71372549 0.60000000
v 0.00797467 0.02400085 -0.00601014 0.54509804 0.71372549 0.60000000
v 0.00814439 0.02227183 -0.00688684 0.54509804 0.71372549 0.60000000
v 0.00759102 0.01990529 -0.00105652 0.54509804 0.71372549 0.60000000
v 0.00791334 0.01990529 -0.00143477 0.54509804 0.71372549 0.60000000
v 0.00771938 0.02119027 -0.00142484 0.54509804 0.71372549 0.60000000
v 0.00759530 0.02312270 -0.00179868 0.54509804 0.71372549 0.60000000
v 0.00754396 0.02424148 -0.00222214 0.54509804 0.71372549 0.60000000
v 0.00245957 0.04231058 -0.00397664 0.54509804 0.71372549 0.60000000
v 0.00750973 0.02588863 -0.00397995 0.54509804 0.71372549 0.60000000
v 0.00779212 0.02418938 -0.00308891 0.54509804 0.71372549 0.60000000
v 0.00779925 0.02480458 -0.00395899 0.54509804 0.71372549 0.60000000
v 0.00757676 0.02568770 -0.00406045 0.54509804 0.71372549 0.60000000
v 0.00804313 0.02144329 -0.00778008 0.54509804 0.71372549 0.60000000
v 0.00827702 0.01990529 -0.00778008 0.54509804 0.71372549 0.60000000
v 0.00816863 0.01990529 -0.00807010 0.54509804 0.71372549 0.60000000
v 0.00813012 0.01990529 -0.00817156 0.54509804 0.71372549 0.60000000
v 0.00766661 0.02555126 -0.00499008 0.54509804 0.71372549 0.60000000
v 0.00799891 0.02414721 -0.00499008 0.54509804 0.71372549 0.60000000
v 0.00844959 0.02157229 -0.00500993 0.54509804 0.71372549 0.60000000
v 0.00833978 0.02191958 -0.00601345 0.54509804 0.71372549 0.60000000
v 0.00798037 0.02397605 -0.00599801 0.54509804 0.71372549 0.60000000
v 0.00851805 0.01990529 -0.00688684 0.54509804 0.71372549 0.60000000
v 0.00841536 0.01990529 -0.00728383 0.54509804 0.71372549 0.60000000
v 0.00796754 0.01990529 -0.00152740 0.54509804 0.71372549 0.60000000
v 0.00812727 0.01990529 -0.00182294 0.54509804 0.71372549 0.60000000
v 0.00791049 0.02133415 -0.00181963 0.54509804 0.71372549 0.60000000
v 0.00774362 0.02319712 -0.00222104 0.54509804 0.71372549 0.60000000
v 0.00793901 0.02415961 -0.00395569 0.54509804 0.71372549 0.60000000
v 0.00815722 0.02220238 -0.00311869 0.54509804 0.71372549 0.60000000
v 0.00798037 0.02397605 -0.00400200 0.54509804 0.71372549 0.60000000
v 0.00795042 0.02413729 -0.00404281 0.54509804 0.71372549 0.60000000
v 0.00825848 0.02240331 -0.00398987 0.54509804 0.71372549 0.60000000
v 0.00844959 0.02157229 -0.00499008 0.54509804 0.71372549 0.60000000
v 0.00866067 0.02024514 -0.00500993 0.54509804 0.71372549 0.60000000
v 0.00865496 0.01990529 -0.00601786 0.54509804 0.71372549 0.60000000
v 0.00813012 0.01990529 -0.00182845 0.54509804 0.71372549 0.60000000
v 0.00827702 0.01990529 -0.00221993 0.54509804 0.71372549 0.60000000
v 0.00804313 0.02144329 -0.00221993 0.54509804 0.71372549 0.60000000
v 0.00851948 0.01990529 -0.00311759 0.54509804 0.71372549 0.60000000
v 0.00861360 0.01990529 -0.00371639 0.54509804 0.71372549 0.60000000
v 0.00865496 0.01990529 -0.00398215 0.54509804 0.71372549 0.60000000
v 0.00866067 0.02024514 -0.00499008 0.54509804 0.71372549 0.60000000
v 0.00871344 0.01990529 -0.00500993 0.54509804 0.71372549 0.60000000
v 0.00869918 0.01990529 -0.00473534 0.54509804 0.71372549 0.60000000
v 0.00871344 0.01990529 -0.00499008 0.54509804 0.71372549 0.60000000
f 1 2 3
f 614 672 615
f 614 669 672
f 613 671 664
f 613 670 671
f 612 670 613
f 612 659 670
f 612 660 659
f 611 660 612
f 610 613 664
f 609 669 614
f 608 667 668
f 608 669 609
f 608 668 669
f 607 667 608
f 607 663 667
f 606 666 663
f 606 665 666
f 606 664 665
f 606 610 664
f 606 663 607
f 603 662 659
f 603 661 662
f 603 604 661
f 602 660 611
f 601 660 602
f 601 659 660
f 601 603 659
f 615 672 673
f 599 650 649
f 615 673 674
f 615 675 616
f 635 679 687
f 633 636 634
f 633 686 636
f 632 686 633
f 632 685 686
f 632 684 685
f 632 683 684
f 631 683 632
f 630 683 631
f 630 682 683
f 630 681 682
f 629 681 630
f 628 681 629
f 628 680 681
f 626 634 627
f 621 680 628
f 621 635 680
f 621 623 622
f 620 679 635
f 619 679 620
f 619 678 679
f 619 677 678
f 618 677 619
f 618 676 677
f 617 676 618
f 617 675 676
f 616 675 617
f 615 674 675
f 635 687 680
f 598 657 658
f 597 657 598
f 583 640 641
f 583 639 640
f 583 638 639
f 582 638 583
f 582 593 638
f 581 637 597
f 581 636 637
f 581 634 636
f 580 635 621
f 579 635 580
f 579 620 635
f 578 634 581
f 577 634 578
f 577 627 634
f 576 626 625
f 576 634 626
f 576 633 634
f 575 633 576
f 575 632 633
f 575 631 632
f 574 631 575
f 574 630 631
f 574 629 630
f 574 628 629
f 573 621 628
f 573 623 621
f 573 624 623
f 583 641 584
f 598 658 656
f 584 641 642
f 584 643 586
f 597 637 657
f 596 656 655
f 596 598 656
f 595 655 651
f 595 596 655
f 594 654 652
f 594 653 654
f 594 651 653
f 593 652 639
f 593 639 638
f 592 652 593
f 592 594 652
f 591 595 651
f 591 651 594
f 590 650 599
f 589 650 590
f 589 649 650
f 589 648 649
f 589 647 648
f 589 646 647
f 587 589 588
f 587 646 589
f 587 645 646
f 587 644 645
f 586 644 587
f 586 643 644
f 584 586 585
f 584 642 643
f 573 628 574
f 636 686 637
f 637 685 688
f 684 734 735
f 683 734 684
f 682 734 683
f 682 732 734
f 681 733 732
f 681 687 733
f 681 732 682
f 680 687 681
f 679 731 687
f 678 731 679
f 678 730 731
f 678 729 730
f 677 728 729
f 677 729 678
f 676 726 728
f 676 728 677
f 675 726 676
f 674 727 725
f 674 724 727
f 674 726 675
f 674 725 726
f 673 724 674
f 672 724 673
f 672 719 724
f 672 720 719
f 671 723 712
f 671 722 723
f 684 735 736
f 671 721 722
f 684 736 685
f 685 737 688
f 704 749 747
f 703 748 745
f 702 748 703
f 702 747 748
f 702 704 747
f 701 740 739
f 701 746 740
f 700 746 701
f 700 745 746
f 700 703 745
f 699 744 704
f 699 705 744
f 696 743 697
f 695 743 696
f 695 742 743
f 694 742 695
f 693 739 740
f 693 742 694
f 693 741 742
f 693 740 741
f 691 739 693
f 690 739 691
f 689 739 690
f 689 701 739
f 688 737 707
f 687 738 733
f 687 731 738
f 685 736 737
f 637 686 685
f 670 721 671
f 669 720 672
f 653 702 703
f 652 701 689
f 652 700 701
f 652 654 700
f 651 699 653
f 651 655 699
f 647 698 648
f 646 698 647
f 646 697 698
f 645 697 646
f 645 696 697
f 644 696 645
f 644 695 696
f 643 695 644
f 643 694 695
f 642 694 643
f 642 693 694
f 642 691 693
f 642 692 691
f 641 692 642
f 641 691 692
f 640 691 641
f 640 690 691
f 640 689 690
f 639 689 640
f 639 652 689
f 637 688 657
f 653 703 654
f 670 711 721
f 653 699 704
f 654 703 700
f 668 716 718
f 668 720 669
f 668 719 720
f 668 718 719
f 667 717 716
f 667 715 717
f 667 716 668
f 666 715 667
f 666 714 715
f 665 714 666
f 665 713 714
f 665 712 713
f 665 671 712
f 664 671 665
f 663 666 667
f 659 711 670
f 659 710 711
f 659 662 710
f 658 709 706
f 658 708 709
f 658 707 708
f 657 707 658
f 657 688 707
f 656 658 706
f 656 706 705
f 655 656 705
f 655 705 699
f 653 704 702
f 572 624 573
f 571 576 625
f 570 627 577
f 489 545 490
f 489 544 545
f 488 544 489
f 488 536 544
f 487 543 541
f 487 542 543
f 486 542 487
f 486 528 542
f 485 541 540
f 485 487 541
f 484 540 537
f 484 485 540
f 483 539 529
f 483 538 539
f 483 537 538
f 482 537 483
f 482 484 537
f 481 536 488
f 481 535 536
f 481 534 535
f 481 533 534
f 480 533 481
f 480 532 533
f 479 532 480
f 479 531 532
f 478 531 479
f 478 530 531
f 490 545 546
f 478 529 530
f 490 546 491
f 494 547 548
f 508 562 509
f 508 560 562
f 507 561 525
f 507 510 561
f 506 560 508
f 505 560 506
f 505 559 560
f 505 556 559
f 504 558 557
f 504 548 558
f 503 557 554
f 503 504 557
f 502 556 505
f 502 555 556
f 502 554 555
f 502 503 554
f 500 504 501
f 500 548 504
f 498 553 550
f 498 552 553
f 498 499 552
f 496 551 549
f 496 550 551
f 496 498 550
f 496 549 547
f 495 496 547
f 494 548 500
f 494 495 547
f 509 562 563
f 477 483 529
f 476 528 486
f 460 512 513
f 459 512 460
f 458 512 459
f 454 512 458
f 454 511 512
f 454 458 455
f 453 511 454
f 453 474 511
f 452 510 507
f 452 509 510
f 451 509 452
f 451 508 509
f 449 451 450
f 449 508 451
f 449 506 508
f 448 507 473
f 448 452 507
f 447 506 449
f 447 505 506
f 447 502 505
f 446 502 447
f 445 504 503
f 445 501 504
f 444 503 502
f 444 445 503
f 444 502 446
f 443 501 445
f 460 513 464
f 477 529 478
f 461 466 462
f 462 514 515
f 476 524 528
f 475 524 476
f 474 527 511
f 474 526 527
f 474 525 526
f 473 525 474
f 473 507 525
f 472 524 475
f 472 523 524
f 472 522 523
f 471 522 472
f 469 516 470
f 468 522 471
f 468 516 522
f 468 470 516
f 467 470 468
f 466 521 518
f 466 520 521
f 466 519 520
f 466 517 519
f 466 518 514
f 464 466 465
f 464 517 466
f 464 513 517
f 463 515 516
f 463 516 469
f 462 515 463
f 462 466 514
f 509 563 510
f 510 563 564
f 510 564 565
f 556 609 559
f 555 607 608
f 555 609 556
f 555 608 609
f 554 607 555
f 554 606 607
f 554 557 606
f 553 604 603
f 553 605 604
f 552 605 553
f 552 604 605
f 551 603 601
f 550 603 551
f 550 553 603
f 549 551 601
f 548 602 558
f 547 602 548
f 547 601 602
f 547 549 601
f 545 600 546
f 545 599 600
f 545 590 599
f 543 598 596
f 543 597 598
f 542 597 543
f 542 581 597
f 541 596 595
f 557 558 610
f 541 543 596
f 557 610 606
f 558 611 612
f 570 626 627
f 569 626 570
f 569 625 626
f 569 571 625
f 568 624 572
f 568 623 624
f 567 623 568
f 567 622 623
f 566 622 567
f 566 621 622
f 566 580 621
f 565 620 579
f 564 620 565
f 564 619 620
f 564 618 619
f 563 618 564
f 563 617 618
f 562 617 563
f 562 616 617
f 561 565 579
f 560 616 562
f 559 609 614
f 559 616 560
f 559 615 616
f 559 614 615
f 558 613 610
f 558 612 613
f 558 602 611
f 540 595 591
f 540 541 595
f 539 593 582
f 523 578 524
f 523 577 578
f 522 577 523
f 522 570 577
f 521 576 571
f 521 575 576
f 520 568 572
f 520 575 521
f 520 574 575
f 520 573 574
f 520 572 573
f 519 568 520
f 518 571 569
f 518 521 571
f 517 568 519
f 516 570 522
f 515 570 516
f 515 569 570
f 514 569 515
f 514 518 569
f 513 567 568
f 513 568 517
f 512 567 513
f 511 567 512
f 511 566 567
f 511 527 566
f 510 565 561
f 524 578 528
f 525 561 526
f 526 561 579
f 526 579 580
f 538 594 592
f 538 591 594
f 538 593 539
f 538 592 593
f 537 591 538
f 537 540 591
f 535 544 536
f 535 545 544
f 535 590 545
f 534 590 535
f 534 589 590
f 534 588 589
f 533 588 534
f 704 744 749
f 532 588 533
f 532 586 587
f 532 585 586
f 531 585 532
f 531 584 585
f 530 584 531
f 530 583 584
f 530 582 583
f 529 539 582
f 529 582 530
f 528 581 542
f 528 578 581
f 527 580 566
f 526 580 527
f 532 587 588
f 705 750 744
f 705 706 750
f 706 709 751
f 886 921 887
f 885 921 886
f 885 903 921
f 884 920 904
f 884 919 920
f 884 917 919
f 884 918 917
f 882 884 883
f 882 918 884
f 881 918 882
f 881 917 918
f 881 916 917
f 881 915 916
f 881 914 915
f 880 912 913
f 880 914 881
f 880 913 914
f 879 912 880
f 877 879 878
f 877 912 879
f 877 911 912
f 876 887 910
f 876 911 877
f 876 910 911
f 873 909 874
f 873 908 909
f 873 907 908
f 887 921 910
f 873 906 907
f 889 922 890
f 890 923 924
f 901 910 921
f 901 911 910
f 901 937 911
f 901 936 937
f 900 936 901
f 900 935 936
f 899 932 934
f 899 935 900
f 899 934 935
f 898 933 931
f 898 929 933
f 898 932 899
f 898 931 932
f 896 929 898
f 896 930 929
f 896 898 897
f 895 929 930
f 895 930 896
f 893 929 895
f 893 928 929
f 893 927 928
f 893 926 927
f 892 926 893
f 892 925 926
f 891 924 925
f 891 925 892
f 890 924 891
f 890 922 923
f 901 921 903
f 872 906 873
f 871 905 872
f 852 890 891
f 852 891 853
f 850 852 851
f 850 890 852
f 850 889 890
f 850 888 889
f 849 888 850
f 847 887 876
f 846 887 847
f 846 886 887
f 845 886 846
f 845 885 886
f 845 865 885
f 845 848 865
f 842 884 868
f 842 883 884
f 842 882 883
f 841 882 842
f 841 881 882
f 841 880 881
f 841 879 880
f 840 879 841
f 840 878 879
f 839 878 840
f 839 877 878
f 839 876 877
f 839 847 876
f 853 891 892
f 872 905 906
f 853 892 854
f 854 893 855
f 870 905 871
f 870 904 905
f 869 904 870
f 869 884 904
f 868 884 869
f 864 903 885
f 864 885 865
f 863 903 864
f 863 902 903
f 862 902 863
f 862 901 902
f 862 900 901
f 861 899 900
f 861 900 862
f 860 899 861
f 860 898 899
f 860 897 898
f 860 896 897
f 859 896 860
f 858 896 859
f 858 895 896
f 857 895 858
f 856 895 857
f 856 893 895
f 856 894 893
f 855 893 894
f 855 894 856
f 854 892 893
f 901 903 902
f 904 920 938
f 904 938 905
f 962 979 982
f 961 981 979
f 961 980 981
f 961 978 980
f 961 979 962
f 959 960 963
f 958 978 961
f 957 977 978
f 957 978 958
f 956 977 957
f 956 976 977
f 956 975 976
f 955 975 956
f 953 974 964
f 953 973 974
f 953 971 973
f 952 971 953
f 952 972 971
f 950 952 951
f 949 952 950
f 948 972 952
f 948 952 949
f 947 972 948
f 947 971 972
f 947 970 971
f 947 984 970
f 947 969 984
f 962 982 969
f 946 969 947
f 962 969 968
f 964 974 965
f 993 995 996
f 992 995 993
f 988 990 989
f 985 994 986
f 985 996 994
f 985 993 996
f 983 993 984
f 983 992 993
f 980 992 983
f 980 991 992
f 980 990 991
f 980 989 990
f 980 983 981
f 979 981 982
f 978 989 980
f 977 989 978
f 977 988 989
f 977 987 988
f 976 987 977
f 971 986 973
f 971 985 986
f 970 993 985
f 970 984 993
f 970 985 971
f 969 983 984
f 969 981 983
f 969 982 981
f 962 968 963
f 946 968 969
f 945 959 963
f 945 963 968
f 920 952 953
f 920 951 952
f 920 950 951
f 919 946 947
f 919 950 920
f 919 949 950
f 919 948 949
f 919 947 948
f 917 946 919
f 916 946 917
f 916 968 946
f 916 945 968
f 915 945 916
f 915 944 945
f 913 944 915
f 913 943 944
f 913 934 943
f 913 942 934
f 913 915 914
f 912 942 913
f 911 942 912
f 911 937 942
f 906 941 907
f 906 940 941
f 906 939 940
f 905 939 906
f 905 938 939
f 920 953 938
f 923 954 924
f 924 954 955
f 924 955 956
f 944 959 945
f 943 959 944
f 939 967 940
f 939 966 967
f 939 965 966
f 939 964 965
f 938 964 939
f 938 953 964
f 935 937 936
f 935 942 937
f 934 942 935
f 933 963 960
f 933 962 963
f 839 844 847
f 933 961 962
f 932 960 959
f 932 933 960
f 932 943 934
f 932 959 943
f 931 933 932
f 928 933 929
f 928 958 933
f 927 957 958
f 927 958 928
f 926 957 927
f 925 956 957
f 925 957 926
f 924 956 925
f 933 958 961
f 442 501 443
f 838 844 839
f 837 842 868
f 749 799 795
f 749 798 799
f 749 797 798
f 749 750 797
f 748 796 792
f 748 795 796
f 747 749 795
f 747 795 748
f 746 794 786
f 745 748 792
f 745 794 746
f 745 793 794
f 745 792 793
f 744 750 749
f 743 790 791
f 742 790 743
f 742 789 790
f 741 789 742
f 741 788 789
f 741 787 788
f 740 746 786
f 740 787 741
f 740 786 787
f 738 775 778
f 737 785 752
f 736 784 783
f 736 785 737
f 750 800 797
f 736 783 785
f 750 751 800
f 751 802 800
f 765 816 817
f 765 815 816
f 764 815 765
f 764 812 815
f 763 812 764
f 762 814 812
f 762 813 814
f 762 811 813
f 761 812 763
f 761 762 812
f 759 811 762
f 759 810 811
f 758 809 810
f 758 810 759
f 757 809 758
f 757 808 809
f 756 808 757
f 754 807 803
f 754 806 807
f 754 805 806
f 753 804 805
f 753 805 754
f 752 785 783
f 752 804 753
f 752 782 804
f 751 803 801
f 751 754 803
f 751 801 802
f 765 817 766
f 735 784 736
f 734 783 784
f 719 764 724
f 718 761 763
f 718 764 719
f 718 763 764
f 717 761 760
f 717 762 761
f 717 759 762
f 716 761 718
f 716 760 761
f 716 717 760
f 715 758 759
f 715 759 717
f 714 758 715
f 714 757 758
f 713 757 714
f 713 756 757
f 712 756 713
f 712 755 756
f 712 723 755
f 711 722 721
f 709 754 751
f 709 753 754
f 708 753 709
f 708 752 753
f 707 752 708
f 707 737 752
f 706 751 750
f 722 755 723
f 734 784 735
f 724 765 727
f 725 727 766
f 734 752 783
f 734 782 752
f 734 781 782
f 734 780 781
f 734 779 780
f 734 777 779
f 733 778 776
f 733 738 778
f 732 777 734
f 732 776 777
f 732 733 776
f 731 775 738
f 731 774 775
f 730 771 772
f 730 774 731
f 730 773 774
f 730 772 773
f 729 771 730
f 729 770 771
f 728 770 729
f 728 769 770
f 727 765 766
f 726 769 728
f 725 769 726
f 725 768 769
f 725 767 768
f 725 766 767
f 724 764 765
f 766 818 767
f 766 817 818
f 767 819 768
f 820 861 862
f 820 860 861
f 820 859 860
f 819 859 820
f 818 857 858
f 818 859 819
f 818 858 859
f 817 857 818
f 817 856 857
f 817 855 856
f 816 855 817
f 814 816 815
f 814 854 816
f 814 853 854
f 813 853 814
f 813 852 853
f 812 814 815
f 811 852 813
f 811 851 852
f 810 851 811
f 810 850 851
f 810 849 850
f 809 849 810
f 807 830 848
f 807 848 845
f 806 830 807
f 804 806 805
f 820 862 822
f 804 830 806
f 820 822 821
f 822 862 863
f 837 843 842
f 836 875 868
f 836 837 875
f 834 874 835
f 834 873 874
f 833 873 834
f 833 872 873
f 832 872 833
f 832 871 872
f 831 836 868
f 831 871 832
f 831 870 871
f 831 869 870
f 831 868 869
f 830 866 848
f 829 866 830
f 829 867 866
f 827 867 829
f 826 867 827
f 825 867 826
f 825 866 867
f 825 848 866
f 825 865 848
f 824 863 864
f 823 865 825
f 823 864 865
f 823 824 864
f 822 863 824
f 803 807 845
f 801 844 802
f 801 847 844
f 781 830 782
f 781 829 830
f 781 827 829
f 780 827 781
f 780 828 827
f 778 827 828
f 776 779 777
f 776 780 779
f 776 828 780
f 776 778 828
f 775 827 778
f 774 827 775
f 774 826 827
f 773 826 774
f 772 826 773
f 772 825 826
f 772 823 825
f 771 824 823
f 771 822 824
f 771 823 772
f 770 822 771
f 770 821 822
f 769 821 770
f 768 821 769
f 768 820 821
f 768 819 820
f 767 818 819
f 782 830 804
f 786 831 832
f 786 832 787
f 786 794 831
f 801 846 847
f 801 845 846
f 801 803 845
f 800 844 838
f 800 802 844
f 799 843 837
f 799 842 843
f 799 841 842
f 798 841 799
f 798 840 841
f 797 800 838
f 797 840 798
f 797 839 840
f 837 868 875
f 797 838 839
f 795 837 796
f 795 799 837
f 793 831 794
f 793 836 831
f 792 796 836
f 792 836 793
f 791 834 835
f 790 834 791
f 788 790 789
f 788 834 790
f 788 833 834
f 787 833 788
f 787 832 833
f 796 837 836
f 442 500 501
f 816 854 855
f 441 494 500
f 142 197 198
f 142 196 197
f 141 195 194
f 141 144 195
f 141 194 142
f 140 193 192
f 140 189 193
f 139 140 192
f 139 192 190
f 138 191 144
f 137 191 138
f 137 190 191
f 137 139 190
f 136 189 140
f 136 188 189
f 135 188 136
f 135 184 188
f 134 138 144
f 133 138 134
f 131 178 177
f 131 187 178
f 131 186 187
f 130 186 131
f 130 185 186
f 130 172 185
f 130 132 172
f 129 172 132
f 142 198 199
f 126 184 135
f 142 199 143
f 143 199 145
f 151 374 373
f 151 314 374
f 151 315 314
f 151 316 315
f 151 317 316
f 151 318 317
f 151 260 318
f 151 206 260
f 151 207 206
f 151 208 207
f 150 208 151
f 150 207 208
f 150 206 207
f 150 201 206
f 148 151 202
f 148 153 149
f 148 154 153
f 148 205 154
f 148 204 205
f 148 203 204
f 148 202 203
f 147 201 150
f 146 199 200
f 146 201 147
f 146 200 201
f 145 199 146
f 144 191 195
f 142 194 196
f 151 373 432
f 125 184 126
f 125 181 183
f 111 165 112
f 111 164 165
f 111 163 164
f 111 162 163
f 111 158 162
f 110 161 114
f 110 160 161
f 110 159 160
f 110 112 159
f 109 158 111
f 109 157 158
f 109 156 157
f 108 156 109
f 108 152 156
f 107 152 108
f 106 152 107
f 104 106 105
f 103 155 152
f 103 154 155
f 103 153 154
f 103 149 153
f 103 106 104
f 103 152 106
f 102 151 148
f 102 150 151
f 102 147 150
f 102 149 103
f 112 165 159
f 125 183 184
f 113 166 115
f 113 161 166
f 125 182 181
f 124 131 177
f 123 182 125
f 122 182 123
f 122 181 182
f 122 180 181
f 122 179 180
f 122 176 179
f 121 178 173
f 121 177 178
f 121 124 177
f 121 176 122
f 121 175 176
f 121 174 175
f 121 173 174
f 120 172 129
f 119 172 120
f 119 171 172
f 118 171 119
f 118 170 171
f 117 170 118
f 116 170 117
f 116 169 170
f 116 168 169
f 116 167 168
f 115 166 167
f 115 167 116
f 113 114 161
f 102 148 149
f 151 432 492
f 151 491 546
f 163 217 164
f 163 216 217
f 162 215 163
f 162 214 215
f 162 210 214
f 161 212 166
f 160 213 212
f 160 211 213
f 160 212 161
f 159 211 160
f 159 165 211
f 156 158 157
f 156 162 158
f 155 205 210
f 154 205 155
f 152 162 156
f 152 210 162
f 152 155 210
f 151 209 202
f 151 261 209
f 151 263 261
f 151 264 263
f 151 274 264
f 151 275 274
f 151 220 275
f 151 270 220
f 151 271 270
f 163 215 218
f 151 272 271
f 163 218 219
f 163 220 216
f 176 233 234
f 176 232 233
f 176 231 232
f 175 231 176
f 175 230 231
f 175 229 230
f 174 229 175
f 174 187 229
f 173 178 187
f 173 187 174
f 171 185 172
f 170 185 171
f 170 228 185
f 169 228 170
f 169 227 228
f 169 226 227
f 169 224 226
f 168 225 224
f 168 223 225
f 168 224 169
f 167 223 168
f 166 212 222
f 166 223 167
f 166 222 223
f 164 217 221
f 164 211 165
f 164 221 211
f 163 219 220
f 151 492 491
f 151 325 272
f 151 382 381
f 151 990 988
f 151 991 990
f 151 992 991
f 151 995 992
f 151 996 995
f 151 994 996
f 151 986 994
f 151 973 986
f 151 974 973
f 151 965 974
f 151 966 965
f 151 967 966
f 151 940 967
f 151 941 940
f 151 907 941
f 151 908 907
f 151 909 908
f 151 874 909
f 151 835 874
f 151 743 791
f 151 697 743
f 151 698 697
f 151 648 698
f 151 649 648
f 151 599 649
f 151 600 599
f 151 546 600
f 151 988 987
f 151 381 325
f 151 987 976
f 151 975 955
f 151 383 382
f 151 384 383
f 151 435 384
f 151 436 435
f 151 437 436
f 151 438 437
f 151 439 438
f 151 497 439
f 151 499 497
f 151 552 499
f 151 604 552
f 151 661 604
f 151 662 661
f 151 710 662
f 151 711 710
f 151 722 711
f 151 755 722
f 151 756 755
f 151 808 756
f 151 809 808
f 151 849 809
f 151 888 849
f 151 889 888
f 151 922 889
f 151 923 922
f 151 954 923
f 151 955 954
f 151 976 975
f 101 147 102
f 101 146 147
f 101 145 146
f 31 59 54
f 31 56 59
f 30 58 56
f 30 57 58
f 30 53 57
f 30 56 31
f 29 55 32
f 28 31 54
f 28 55 29
f 28 54 55
f 25 27 26
f 25 30 27
f 25 53 30
f 25 52 53
f 24 52 25
f 24 51 52
f 24 50 51
f 24 49 50
f 24 48 49
f 24 47 48
f 23 44 45
f 23 46 47
f 23 45 46
f 22 40 42
f 22 41 40
f 22 44 23
f 22 43 44
f 32 60 61
f 22 42 43
f 32 61 33
f 33 61 62
f 46 76 75
f 45 76 46
f 44 76 45
f 43 76 44
f 42 76 43
f 42 75 76
f 42 74 75
f 42 73 74
f 42 71 73
f 40 72 71
f 40 70 72
f 40 71 42
f 39 70 40
f 37 39 38
f 37 70 39
f 37 69 70
f 37 68 69
f 36 67 68
f 36 68 37
f 35 67 36
f 35 66 67
f 34 66 35
f 34 65 66
f 33 65 34
f 33 64 65
f 33 63 64
f 33 62 63
f 32 55 60
f 46 75 77
f 21 41 22
f 20 40 41
f 8 19 20
f 7 19 8
f 6 17 18
f 6 19 7
f 6 18 19
f 5 17 6
f 5 16 17
f 5 14 16
f 4 14 5
f 4 15 14
f 3 15 4
f 2 9 10
f 2 15 3
f 2 14 15
f 2 13 14
f 2 12 13
f 2 11 12
f 2 10 11
f 1 9 2
f 1 23 9
f 1 8 23
f 1 7 8
f 1 6 7
f 1 5 6
f 1 4 5
f 1 3 4
f 441 500 442
f 8 20 21
f 20 41 21
f 8 21 22
f 9 23 47
f 20 39 40
f 20 38 39
f 19 38 20
f 18 38 19
f 18 37 38
f 18 36 37
f 18 35 36
f 18 34 35
f 17 34 18
f 16 34 17
f 16 33 34
f 14 33 16
f 14 32 33
f 14 29 32
f 13 31 28
f 13 30 31
f 13 27 30
f 13 29 14
f 13 28 29
f 12 27 13
f 11 27 12
f 11 26 27
f 10 26 11
f 9 26 10
f 9 25 26
f 9 24 25
f 9 47 24
f 8 22 23
f 46 77 78
f 46 78 47
f 47 79 80
f 87 129 88
f 87 120 129
f 86 128 89
f 86 127 128
f 85 127 86
f 85 126 127
f 85 125 126
f 85 123 125
f 83 124 121
f 83 88 124
f 83 85 84
f 83 123 85
f 83 122 123
f 83 121 122
f 82 88 83
f 81 120 87
f 80 120 81
f 80 119 120
f 79 119 80
f 77 79 78
f 77 119 79
f 75 119 77
f 75 118 119
f 75 117 118
f 74 115 116
f 74 117 75
f 74 116 117
f 88 130 131
f 73 115 74
f 88 131 124
f 88 132 130
f 100 145 101
f 99 145 100
f 98 145 99
f 98 143 145
f 97 144 141
f 97 134 144
f 97 143 98
f 97 142 143
f 97 141 142
f 96 140 139
f 96 136 140
f 96 139 137
f 95 138 133
f 95 137 138
f 95 96 137
f 93 135 94
f 93 126 135
f 93 127 126
f 93 128 127
f 92 136 96
f 92 135 136
f 92 94 135
f 91 134 97
f 91 133 134
f 90 95 133
f 90 133 91
f 89 128 93
f 88 129 132
f 73 113 115
f 72 114 113
f 72 110 114
f 58 94 92
f 57 94 58
f 57 93 94
f 57 89 93
f 56 92 59
f 56 58 92
f 55 91 60
f 54 91 55
f 54 90 91
f 54 59 90
f 51 57 53
f 51 53 52
f 50 89 57
f 50 57 51
f 49 89 50
f 49 86 89
f 48 88 82
f 48 87 88
f 48 81 87
f 48 86 49
f 48 85 86
f 48 84 85
f 48 83 84
f 48 82 83
f 47 78 79
f 47 81 48
f 47 80 81
f 59 95 90
f 59 92 96
f 59 96 95
f 60 97 98
f 71 72 113
f 71 113 73
f 70 112 110
f 70 111 112
f 70 109 111
f 70 110 72
f 69 109 70
f 68 109 69
f 67 109 68
f 67 108 109
f 67 107 108
f 64 107 67
f 64 106 107
f 176 234 235
f 64 105 106
f 64 66 65
f 64 67 66
f 63 104 64
f 63 103 104
f 63 102 103
f 63 101 102
f 63 100 101
f 62 100 63
f 62 99 100
f 61 98 99
f 61 99 62
f 60 91 97
f 60 98 61
f 64 104 105
f 176 235 236
f 151 791 835
f 176 237 238
f 358 416 417
f 357 416 358
f 357 413 416
f 356 414 415
f 356 415 393
f 355 388 414
f 355 414 356
f 354 413 357
f 354 411 413
f 353 411 354
f 351 412 411
f 351 408 412
f 351 353 352
f 351 411 353
f 350 408 351
f 349 410 403
f 348 401 409
f 348 410 349
f 348 409 410
f 347 408 350
f 347 407 408
f 347 406 407
f 346 406 347
f 345 406 346
f 345 405 406
f 345 404 405
f 345 403 404
f 358 417 366
f 345 349 403
f 359 362 418
f 359 419 360
f 375 433 378
f 372 432 373
f 372 431 432
f 372 430 431
f 371 430 372
f 371 429 430
f 371 428 429
f 371 427 428
f 370 427 371
f 176 236 237
f 369 426 427
f 367 420 426
f 367 368 420
f 367 426 369
f 366 425 424
f 366 417 425
f 365 424 423
f 365 366 424
f 364 423 421
f 364 365 423
f 363 365 364
f 361 422 418
f 361 421 422
f 361 364 421
f 361 418 362
f 360 420 368
f 360 419 420
f 359 418 419
f 344 349 345
f 343 402 399
f 343 398 402
f 327 385 329
f 326 384 376
f 326 383 384
f 326 382 383
f 324 382 326
f 324 381 382
f 324 325 381
f 323 380 328
f 322 380 323
f 322 379 380
f 321 379 322
f 321 378 379
f 321 375 378
f 320 377 375
f 320 376 377
f 320 326 376
f 320 375 321
f 319 326 320
f 313 374 314
f 313 373 374
f 313 372 373
f 313 371 372
f 312 371 313
f 312 370 371
f 311 370 312
f 311 369 370
f 310 367 369
f 327 328 386
f 327 386 385
f 328 380 386
f 329 387 332
f 342 398 343
f 340 401 348
f 340 400 401
f 340 399 400
f 340 343 399
f 340 348 341
f 338 396 397
f 338 342 339
f 338 398 342
f 338 397 398
f 337 396 338
f 337 395 396
f 336 395 337
f 375 377 434
f 336 394 395
f 334 336 335
f 334 393 336
f 334 356 393
f 333 391 392
f 333 392 388
f 332 391 333
f 332 390 391
f 332 389 390
f 332 387 389
f 331 388 355
f 330 388 331
f 330 333 388
f 329 385 387
f 336 393 394
f 310 369 311
f 375 434 433
f 376 435 436
f 421 482 422
f 421 423 482
f 420 481 426
f 420 480 481
f 419 480 420
f 419 479 480
f 418 479 419
f 418 478 479
f 418 477 478
f 418 422 477
f 417 476 425
f 417 475 476
f 416 475 417
f 416 472 475
f 415 474 453
f 415 473 474
f 414 473 415
f 414 448 473
f 413 472 416
f 413 471 472
f 412 468 471
f 411 471 413
f 411 412 471
f 410 470 467
f 409 470 410
f 409 469 470
f 409 463 469
f 422 482 483
f 408 468 412
f 422 483 477
f 423 484 482
f 440 499 498
f 440 497 499
f 440 498 496
f 439 497 440
f 434 496 495
f 434 440 496
f 433 495 494
f 433 434 495
f 433 494 441
f 432 493 492
f 431 490 491
f 431 493 432
f 431 492 493
f 431 491 492
f 430 490 431
f 429 490 430
f 429 489 490
f 428 489 429
f 427 489 428
f 427 488 489
f 426 488 427
f 426 481 488
f 425 487 485
f 425 486 487
f 425 476 486
f 424 485 484
f 424 425 485
f 423 424 484
f 408 467 468
f 406 408 407
f 405 408 406
f 390 392 391
f 390 451 392
f 390 450 451
f 389 450 390
f 389 449 450
f 389 447 449
f 388 448 414
f 388 392 448
f 387 444 446
f 387 447 389
f 387 446 447
f 386 443 445
f 385 445 444
f 385 386 445
f 385 444 387
f 380 443 386
f 379 443 380
f 379 442 443
f 378 442 379
f 378 441 442
f 378 433 441
f 377 440 434
f 377 439 440
f 377 438 439
f 377 437 438
f 377 436 437
f 376 436 377
f 392 451 452
f 392 452 448
f 393 415 453
f 393 453 394
f 404 408 405
f 403 467 408
f 403 410 467
f 403 408 404
f 401 466 461
f 401 465 466
f 401 464 465
f 401 460 464
f 401 463 409
f 401 462 463
f 401 461 462
f 400 458 459
f 400 460 401
f 376 384 435
f 400 459 460
f 399 458 400
f 399 455 458
f 398 456 402
f 398 457 456
f 397 457 398
f 397 456 457
f 397 402 456
f 395 397 396
f 395 402 397
f 395 455 402
f 395 454 455
f 394 454 395
f 394 453 454
f 399 402 455
f 309 360 368
f 369 427 370
f 308 309 368
f 228 280 242
f 227 281 280
f 227 279 281
f 227 280 228
f 226 279 227
f 226 277 279
f 225 268 278
f 224 278 277
f 224 225 278
f 224 277 226
f 222 225 223
f 222 268 225
f 221 276 265
f 221 269 276
f 219 275 220
f 219 274 275
f 219 264 274
f 219 273 264
f 218 273 219
f 218 262 273
f 217 269 221
f 216 272 269
f 216 271 272
f 216 270 271
f 216 220 270
f 216 269 217
f 214 218 215
f 229 282 283
f 213 265 266
f 229 283 230
f 230 283 284
f 243 297 298
f 242 297 243
f 242 280 297
f 241 296 244
f 241 295 296
f 240 293 294
f 239 295 241
f 239 294 295
f 239 240 294
f 237 292 293
f 237 240 238
f 237 293 240
f 236 292 237
f 236 291 292
f 236 289 291
f 235 290 289
f 235 289 236
f 234 290 235
f 234 288 290
f 234 287 288
f 233 287 234
f 233 286 287
f 233 285 286
f 232 285 233
f 232 284 285
f 230 232 231
f 230 284 232
f 229 243 282
f 243 298 282
f 212 268 222
f 212 266 267
f 193 246 251
f 193 250 249
f 192 249 247
f 192 193 249
f 191 248 195
f 190 248 191
f 190 247 248
f 190 192 247
f 189 246 193
f 189 245 246
f 189 244 245
f 188 244 189
f 188 241 244
f 187 243 229
f 186 243 187
f 186 242 243
f 185 242 186
f 308 368 367
f 184 241 188
f 184 239 241
f 183 239 184
f 180 239 183
f 180 183 181
f 179 240 239
f 179 238 240
f 179 239 180
f 176 238 179
f 193 251 250
f 212 267 268
f 194 252 196
f 194 253 252
f 212 213 266
f 211 221 265
f 211 265 213
f 205 218 214
f 205 262 218
f 205 214 210
f 204 264 262
f 204 263 264
f 204 261 263
f 204 262 205
f 203 261 204
f 202 261 203
f 202 209 261
f 201 260 206
f 201 259 260
f 200 259 201
f 200 258 259
f 198 200 199
f 198 258 200
f 197 258 198
f 197 257 258
f 197 256 257
f 197 255 256
f 196 252 254
f 196 255 197
f 196 254 255
f 195 248 253
f 194 195 253
f 244 296 299
f 185 228 242
f 245 299 300
f 292 351 293
f 292 350 351
f 291 350 292
f 291 347 350
f 290 349 344
f 290 348 349
f 290 341 348
f 289 290 344
f 289 347 291
f 289 346 347
f 289 345 346
f 289 344 345
f 288 343 340
f 288 342 343
f 288 339 342
f 288 341 290
f 288 340 341
f 287 339 288
f 287 338 339
f 286 338 287
f 286 337 338
f 285 337 286
f 285 336 337
f 284 336 285
f 284 335 336
f 282 335 284
f 282 334 335
f 293 351 352
f 282 298 334
f 293 352 294
f 295 352 353
f 244 299 245
f 308 367 310
f 307 366 365
f 307 358 366
f 306 365 363
f 306 307 365
f 304 364 361
f 304 363 364
f 304 306 363
f 303 362 359
f 303 361 362
f 303 304 361
f 302 360 309
f 301 360 302
f 301 359 360
f 301 303 359
f 300 358 307
f 300 357 358
f 299 357 300
f 299 354 357
f 298 356 334
f 298 355 356
f 297 355 298
f 297 331 355
f 296 354 299
f 296 353 354
f 295 353 296
f 294 352 295
f 282 284 283
f 305 307 306
f 281 332 333
f 256 315 257
f 256 314 315
f 256 313 314
f 256 312 313
f 255 312 256
f 255 311 312
f 254 308 310
f 254 311 255
f 254 310 311
f 253 302 309
f 252 309 308
f 252 253 309
f 252 308 254
f 251 307 305
f 251 300 307
f 250 306 304
f 250 305 306
f 250 251 305
f 250 304 303
f 249 303 301
f 249 250 303
f 248 302 253
f 245 300 246
f 247 301 302
f 247 249 301
f 246 300 251
f 281 333 330
f 257 315 316
f 257 316 317
f 247 302 248
f 258 317 318
f 280 331 297
f 257 317 258
f 280 330 331
f 279 327 329
f 279 329 281
f 278 323 328
f 277 328 327
f 277 278 328
f 277 327 279
f 276 326 319
f 276 324 326
f 269 325 324
f 269 272 325
f 280 281 330
f 268 323 278
f 258 318 259
f 259 318 260
f 269 324 276
f 262 264 273
f 265 319 266
f 265 276 319
f 266 319 320
f 281 329 332
f 266 321 322
f 266 322 267
f 267 323 268
f 267 322 323
f 266 320 321
