# https://github.com/mikedh/trimesh
v 0.00610741 0.00038877 -0.00925150 0.54117647 0.42352941 0.64313725
v 0.00637112 0.00038877 -0.00901145 0.54117647 0.42352941 0.64313725
v 0.00719548 -0.00491385 -0.00803703 0.54117647 0.42352941 0.64313725
v 0.00712902 -0.00543196 -0.00803703 0.54117647 0.42352941 0.64313725
v 0.00697251 -0.00592984 -0.00803703 0.54117647 0.42352941 0.64313725
v 0.00673238 -0.00639372 -0.00803703 0.54117647 0.42352941 0.64313725
v 0.00641507 -0.00680903 -0.00803703 0.54117647 0.42352941 0.64313725
v 0.00637862 -0.00677584 -0.00804957 0.54117647 0.42352941 0.64313725
v 0.00600021 -0.00712395 -0.00804957 0.54117647 0.42352941 0.64313725
v 0.00556712 -0.00740082 -0.00804957 0.54117647 0.42352941 0.64313725
v 0.00509330 -0.00759754 -0.00804957 0.54117647 0.42352941 0.64313725
v 0.00459160 -0.00770926 -0.00804957 0.54117647 0.42352941 0.64313725
v 0.00407812 -0.00773193 -0.00804957 0.54117647 0.42352941 0.64313725
v 0.00356785 -0.00766554 -0.00804957 0.54117647 0.42352941 0.64313725
v 0.00230396 -0.00728181 -0.00804957 0.54117647 0.42352941 0.64313725
v 0.00142171 -0.00688027 -0.00804957 0.54117647 0.42352941 0.64313725
v 0.00058984 -0.00638239 -0.00804957 0.54117647 0.42352941 0.64313725
v -0.00018092 -0.00579546 -0.00804957 0.54117647 0.42352941 0.64313725
v -0.00088094 -0.00512433 -0.00804957 0.54117647 0.42352941 0.64313725
v -0.00150162 -0.00438035 -0.00804957 0.54117647 0.42352941 0.64313725
v -0.00203548 -0.00357160 -0.00804957 0.54117647 0.42352941 0.64313725
v -0.00247499 -0.00270780 -0.00804957 0.54117647 0.42352941 0.64313725
v -0.00281589 -0.00179947 -0.00804957 0.54117647 0.42352941 0.64313725
v -0.00305173 -0.00085957 -0.00804957 0.54117647 0.42352941 0.64313725
v -0.00318144 0.00010138 -0.00804957 0.54117647 0.42352941 0.64313725
v -0.00318251 0.00038877 -0.00804957 0.54117647 0.42352941 0.64313725
v 0.00744204 0.00038877 -0.00802281 0.54117647 0.42352941 0.64313725
v 0.00723193 -0.00491466 -0.00800273 0.54117647 0.42352941 0.64313725
v 0.00716439 -0.00543925 -0.00800273 0.54117647 0.42352941 0.64313725
v 0.00700574 -0.00594361 -0.00800273 0.54117647 0.42352941 0.64313725
v 0.00676239 -0.00641315 -0.00800273 0.54117647 0.42352941 0.64313725
v 0.00644187 -0.00683331 -0.00800273 0.54117647 0.42352941 0.64313725
v 0.00605273 -0.00719114 -0.00800273 0.54117647 0.42352941 0.64313725
v 0.00603022 -0.00716200 -0.00803703 0.54117647 0.42352941 0.64313725
v 0.00558963 -0.00744372 -0.00803703 0.54117647 0.42352941 0.64313725
v 0.00510723 -0.00764369 -0.00803703 0.54117647 0.42352941 0.64313725
v 0.00459803 -0.00775702 -0.00803703 0.54117647 0.42352941 0.64313725
v 0.00407597 -0.00778050 -0.00803703 0.54117647 0.42352941 0.64313725
v 0.00355820 -0.00771250 -0.00803703 0.54117647 0.42352941 0.64313725
v 0.00228574 -0.00732715 -0.00803703 0.54117647 0.42352941 0.64313725
v 0.00139920 -0.00692318 -0.00803703 0.54117647 0.42352941 0.64313725
v 0.00056304 -0.00642287 -0.00803703 0.54117647 0.42352941 0.64313725
v -0.00021201 -0.00583189 -0.00803703 0.54117647 0.42352941 0.64313725
v -0.00091631 -0.00515752 -0.00803703 0.54117647 0.42352941 0.64313725
v -0.00154129 -0.00440868 -0.00803703 0.54117647 0.42352941 0.64313725
v -0.00207728 -0.00359588 -0.00803703 0.54117647 0.42352941 0.64313725
v -0.00252002 -0.00272722 -0.00803703 0.54117647 0.42352941 0.64313725
v -0.00286199 -0.00181404 -0.00803703 0.54117647 0.42352941 0.64313725
v -0.00309997 -0.00086847 -0.00803703 0.54117647 0.42352941 0.64313725
v -0.00322968 0.00009733 -0.00803703 0.54117647 0.42352941 0.64313725
v -0.00323075 0.00038877 -0.00803703 0.54117647 0.42352941 0.64313725
v 0.00745169 0.00038877 -0.00801026 0.54117647 0.42352941 0.64313725
v 0.00724694 -0.00491547 -0.00795506 0.54117647 0.42352941 0.64313725
v 0.00717940 -0.00544249 -0.00795506 0.54117647 0.42352941 0.64313725
v 0.00746026 0.00038877 -0.00799771 0.54117647 0.42352941 0.64313725
v 0.00701967 -0.00594927 -0.00795506 0.54117647 0.42352941 0.64313725
v 0.00677526 -0.00642125 -0.00795506 0.54117647 0.42352941 0.64313725
v 0.00645259 -0.00684384 -0.00795506 0.54117647 0.42352941 0.64313725
v 0.00606131 -0.00720328 -0.00795506 0.54117647 0.42352941 0.64313725
v 0.00561321 -0.00748906 -0.00795506 0.54117647 0.42352941 0.64313725
v 0.00560678 -0.00747530 -0.00800273 0.54117647 0.42352941 0.64313725
v 0.00511795 -0.00767850 -0.00800273 0.54117647 0.42352941 0.64313725
v 0.00460232 -0.00779345 -0.00800273 0.54117647 0.42352941 0.64313725
v 0.00407383 -0.00781693 -0.00800273 0.54117647 0.42352941 0.64313725
v 0.00354962 -0.00774812 -0.00800273 0.54117647 0.42352941 0.64313725
v 0.00227288 -0.00736115 -0.00800273 0.54117647 0.42352941 0.64313725
v 0.00138312 -0.00695556 -0.00800273 0.54117647 0.42352941 0.64313725
v 0.00054267 -0.00645282 -0.00800273 0.54117647 0.42352941 0.64313725
v -0.00023559 -0.00585941 -0.00800273 0.54117647 0.42352941 0.64313725
v -0.00094311 -0.00518262 -0.00800273 0.54117647 0.42352941 0.64313725
v -0.00157023 -0.00443054 -0.00800273 0.54117647 0.42352941 0.64313725
v -0.00210944 -0.00361450 -0.00800273 0.54117647 0.42352941 0.64313725
v -0.00255325 -0.00274180 -0.00800273 0.54117647 0.42352941 0.64313725
v -0.00289629 -0.00182456 -0.00800273 0.54117647 0.42352941 0.64313725
v -0.00313534 -0.00087576 -0.00800273 0.54117647 0.42352941 0.64313725
v -0.00326613 0.00009490 -0.00800273 0.54117647 0.42352941 0.64313725
v -0.00323504 0.00038877 -0.00803368 0.54117647 0.42352941 0.64313725
v 0.00732090 -0.00491870 -0.00654989 0.54117647 0.42352941 0.64313725
v 0.00746348 0.00038877 -0.00798433 0.54117647 0.42352941 0.64313725
v 0.00746991 0.00038877 -0.00795506 0.54117647 0.42352941 0.64313725
v 0.00755782 0.00038877 -0.00644617 0.54117647 0.42352941 0.64313725
v 0.00708828 -0.00597761 -0.00654989 0.54117647 0.42352941 0.64313725
v 0.00650726 -0.00689322 -0.00654989 0.54117647 0.42352941 0.64313725
v 0.00564752 -0.00755463 -0.00654989 0.54117647 0.42352941 0.64313725
v 0.00512331 -0.00769307 -0.00795506 0.54117647 0.42352941 0.64313725
v 0.00460447 -0.00780803 -0.00795506 0.54117647 0.42352941 0.64313725
v 0.00407383 -0.00783150 -0.00795506 0.54117647 0.42352941 0.64313725
v 0.00354641 -0.00776269 -0.00795506 0.54117647 0.42352941 0.64313725
v 0.00226752 -0.00737491 -0.00795506 0.54117647 0.42352941 0.64313725
v 0.00137561 -0.00696932 -0.00795506 0.54117647 0.42352941 0.64313725
v 0.00053410 -0.00646577 -0.00795506 0.54117647 0.42352941 0.64313725
v -0.00024524 -0.00587075 -0.00795506 0.54117647 0.42352941 0.64313725
v -0.00095383 -0.00519315 -0.00795506 0.54117647 0.42352941 0.64313725
v -0.00158202 -0.00443944 -0.00795506 0.54117647 0.42352941 0.64313725
v -0.00212231 -0.00362179 -0.00795506 0.54117647 0.42352941 0.64313725
v -0.00256719 -0.00274746 -0.00795506 0.54117647 0.42352941 0.64313725
v -0.00291130 -0.00182942 -0.00795506 0.54117647 0.42352941 0.64313725
v -0.00315035 -0.00087819 -0.00795506 0.54117647 0.42352941 0.64313725
v -0.00328114 0.00009328 -0.00795506 0.54117647 0.42352941 0.64313725
v -0.00327042 0.00038877 -0.00799186 0.54117647 0.42352941 0.64313725
v -0.00326613 0.00038877 -0.00800273 0.54117647 0.42352941 0.64313725
v -0.00326291 0.00038877 -0.00800691 0.54117647 0.42352941 0.64313725
v 0.00732090 -0.00491870 -0.00345014 0.54117647 0.42352941 0.64313725
v 0.00755889 0.00038877 -0.00355637 0.54117647 0.42352941 0.64313725
v 0.00708828 -0.00597761 -0.00345014 0.54117647 0.42352941 0.64313725
v 0.00650726 -0.00689322 -0.00345014 0.54117647 0.42352941 0.64313725
v 0.00564752 -0.00755463 -0.00345014 0.54117647 0.42352941 0.64313725
v 0.00461411 -0.00788170 -0.00654989 0.54117647 0.42352941 0.64313725
v 0.00353033 -0.00783474 -0.00654989 0.54117647 0.42352941 0.64313725
v 0.00224072 -0.00744372 -0.00654989 0.54117647 0.42352941 0.64313725
v 0.00049336 -0.00652649 -0.00654989 0.54117647 0.42352941 0.64313725
v -0.00100850 -0.00524334 -0.00654989 0.54117647 0.42352941 0.64313725
v -0.00218556 -0.00365903 -0.00654989 0.54117647 0.42352941 0.64313725
v -0.00298098 -0.00185128 -0.00654989 0.54117647 0.42352941 0.64313725
v -0.00327899 -0.00063856 -0.00632656 0.54117647 0.42352941 0.64313725
v -0.00326720 -0.00064018 -0.00654989 0.54117647 0.42352941 0.64313725
v -0.00331008 -0.00043455 -0.00632071 0.54117647 0.42352941 0.64313725
v -0.00333688 -0.00022973 -0.00631569 0.54117647 0.42352941 0.64313725
v -0.00337869 0.00020176 -0.00624292 0.54117647 0.42352941 0.64313725
v -0.00339262 0.00038877 -0.00615343 0.54117647 0.42352941 0.64313725
v -0.00329400 0.00038877 -0.00781287 0.54117647 0.42352941 0.64313725
v -0.00328114 0.00038877 -0.00795506 0.54117647 0.42352941 0.64313725
v 0.00724694 -0.00491547 -0.00204497 0.54117647 0.42352941 0.64313725
v 0.00717940 -0.00544249 -0.00204497 0.54117647 0.42352941 0.64313725
v 0.00746991 0.00038877 -0.00204497 0.54117647 0.42352941 0.64313725
v 0.00701967 -0.00594927 -0.00204497 0.54117647 0.42352941 0.64313725
v 0.00677526 -0.00642125 -0.00204497 0.54117647 0.42352941 0.64313725
v 0.00645259 -0.00684384 -0.00204497 0.54117647 0.42352941 0.64313725
v 0.00606131 -0.00720328 -0.00204497 0.54117647 0.42352941 0.64313725
v 0.00561321 -0.00748906 -0.00204497 0.54117647 0.42352941 0.64313725
v 0.00512331 -0.00769307 -0.00204497 0.54117647 0.42352941 0.64313725
v 0.00461411 -0.00788170 -0.00345014 0.54117647 0.42352941 0.64313725
v 0.00353033 -0.00783474 -0.00345014 0.54117647 0.42352941 0.64313725
v 0.00224072 -0.00744372 -0.00345014 0.54117647 0.42352941 0.64313725
v 0.00049336 -0.00652649 -0.00345014 0.54117647 0.42352941 0.64313725
v -0.00100850 -0.00524334 -0.00345014 0.54117647 0.42352941 0.64313725
v -0.00218556 -0.00365903 -0.00345014 0.54117647 0.42352941 0.64313725
v -0.00298098 -0.00185128 -0.00345014 0.54117647 0.42352941 0.64313725
v -0.00327899 -0.00063856 -0.00367347 0.54117647 0.42352941 0.64313725
v -0.00331008 -0.00043455 -0.00367932 0.54117647 0.42352941 0.64313725
v -0.00333688 -0.00022973 -0.00368434 0.54117647 0.42352941 0.64313725
v -0.00337654 0.00017667 -0.00374874 0.54117647 0.42352941 0.64313725
v -0.00339155 0.00038877 -0.00384828 0.54117647 0.42352941 0.64313725
v 0.00723193 -0.00491466 -0.00199730 0.54117647 0.42352941 0.64313725
v 0.00746026 0.00038877 -0.00200148 0.54117647 0.42352941 0.64313725
v 0.00716439 -0.00543925 -0.00199730 0.54117647 0.42352941 0.64313725
v 0.00700574 -0.00594361 -0.00199730 0.54117647 0.42352941 0.64313725
v 0.00676239 -0.00641315 -0.00199730 0.54117647 0.42352941 0.64313725
v 0.00644187 -0.00683331 -0.00199730 0.54117647 0.42352941 0.64313725
v 0.00605273 -0.00719114 -0.00199730 0.54117647 0.42352941 0.64313725
v 0.00560678 -0.00747530 -0.00199730 0.54117647 0.42352941 0.64313725
v 0.00511795 -0.00767850 -0.00199730 0.54117647 0.42352941 0.64313725
v 0.00460232 -0.00779345 -0.00199730 0.54117647 0.42352941 0.64313725
v 0.00460447 -0.00780803 -0.00204497 0.54117647 0.42352941 0.64313725
v 0.00407383 -0.00783150 -0.00204497 0.54117647 0.42352941 0.64313725
v 0.00354641 -0.00776269 -0.00204497 0.54117647 0.42352941 0.64313725
v 0.00226752 -0.00737491 -0.00204497 0.54117647 0.42352941 0.64313725
v 0.00137561 -0.00696932 -0.00204497 0.54117647 0.42352941 0.64313725
v 0.00053410 -0.00646577 -0.00204497 0.54117647 0.42352941 0.64313725
v -0.00024524 -0.00587075 -0.00204497 0.54117647 0.42352941 0.64313725
v -0.00095383 -0.00519315 -0.00204497 0.54117647 0.42352941 0.64313725
v -0.00158202 -0.00443944 -0.00204497 0.54117647 0.42352941 0.64313725
v -0.00212231 -0.00362179 -0.00204497 0.54117647 0.42352941 0.64313725
v -0.00256719 -0.00274746 -0.00204497 0.54117647 0.42352941 0.64313725
v -0.00291130 -0.00182942 -0.00204497 0.54117647 0.42352941 0.64313725
v -0.00315035 -0.00087819 -0.00204497 0.54117647 0.42352941 0.64313725
v -0.00326720 -0.00064018 -0.00345014 0.54117647 0.42352941 0.64313725
v -0.00328114 0.00009328 -0.00204497 0.54117647 0.42352941 0.64313725
v -0.00336154 0.00038877 -0.00327784 0.54117647 0.42352941 0.64313725
v 0.00719548 -0.00491385 -0.00196300 0.54117647 0.42352941 0.64313725
v 0.00712902 -0.00543196 -0.00196300 0.54117647 0.42352941 0.64313725
v 0.00744204 0.00038877 -0.00197722 0.54117647 0.42352941 0.64313725
v 0.00620496 0.00038877 -0.00070671 0.54117647 0.42352941 0.64313725
v 0.00697251 -0.00592984 -0.00196300 0.54117647 0.42352941 0.64313725
v 0.00673238 -0.00639372 -0.00196300 0.54117647 0.42352941 0.64313725
v 0.00641507 -0.00680903 -0.00196300 0.54117647 0.42352941 0.64313725
v 0.00603022 -0.00716200 -0.00196300 0.54117647 0.42352941 0.64313725
v 0.00558963 -0.00744372 -0.00196300 0.54117647 0.42352941 0.64313725
v 0.00510723 -0.00764369 -0.00196300 0.54117647 0.42352941 0.64313725
v 0.00459803 -0.00775702 -0.00196300 0.54117647 0.42352941 0.64313725
v 0.00407597 -0.00778050 -0.00196300 0.54117647 0.42352941 0.64313725
v 0.00407383 -0.00781693 -0.00199730 0.54117647 0.42352941 0.64313725
v 0.00354962 -0.00774812 -0.00199730 0.54117647 0.42352941 0.64313725
v 0.00227288 -0.00736115 -0.00199730 0.54117647 0.42352941 0.64313725
v 0.00138312 -0.00695556 -0.00199730 0.54117647 0.42352941 0.64313725
v 0.00054267 -0.00645282 -0.00199730 0.54117647 0.42352941 0.64313725
v -0.00023559 -0.00585941 -0.00199730 0.54117647 0.42352941 0.64313725
v -0.00094311 -0.00518262 -0.00199730 0.54117647 0.42352941 0.64313725
v -0.00157023 -0.00443054 -0.00199730 0.54117647 0.42352941 0.64313725
v -0.00210944 -0.00361450 -0.00199730 0.54117647 0.42352941 0.64313725
v -0.00255325 -0.00274180 -0.00199730 0.54117647 0.42352941 0.64313725
v -0.00289629 -0.00182456 -0.00199730 0.54117647 0.42352941 0.64313725
v -0.00313534 -0.00087576 -0.00199730 0.54117647 0.42352941 0.64313725
v -0.00326613 0.00009490 -0.00199730 0.54117647 0.42352941 0.64313725
v -0.00328114 0.00038877 -0.00204497 0.54117647 0.42352941 0.64313725
v -0.00328971 0.00038877 -0.00213531 0.54117647 0.42352941 0.64313725
v -0.00329400 0.00038877 -0.00218716 0.54117647 0.42352941 0.64313725
v -0.00318251 0.00038877 -0.00195046 0.54117647 0.42352941 0.64313725
v -0.00318144 0.00010138 -0.00195046 0.54117647 0.42352941 0.64313725
v -0.00305173 -0.00085957 -0.00195046 0.54117647 0.42352941 0.64313725
v -0.00281589 -0.00179947 -0.00195046 0.54117647 0.42352941 0.64313725
v -0.00247499 -0.00270780 -0.00195046 0.54117647 0.42352941 0.64313725
v -0.00203548 -0.00357160 -0.00195046 0.54117647 0.42352941 0.64313725
v -0.00150162 -0.00438035 -0.00195046 0.54117647 0.42352941 0.64313725
v -0.00088094 -0.00512433 -0.00195046 0.54117647 0.42352941 0.64313725
v -0.00018092 -0.00579546 -0.00195046 0.54117647 0.42352941 0.64313725
v 0.00058984 -0.00638239 -0.00195046 0.54117647 0.42352941 0.64313725
v 0.00142171 -0.00688027 -0.00195046 0.54117647 0.42352941 0.64313725
v 0.00230396 -0.00728181 -0.00195046 0.54117647 0.42352941 0.64313725
v 0.00356785 -0.00766554 -0.00195046 0.54117647 0.42352941 0.64313725
v 0.00407812 -0.00773193 -0.00195046 0.54117647 0.42352941 0.64313725
v 0.00459160 -0.00770926 -0.00195046 0.54117647 0.42352941 0.64313725
v 0.00509330 -0.00759754 -0.00195046 0.54117647 0.42352941 0.64313725
v 0.00556712 -0.00740082 -0.00195046 0.54117647 0.42352941 0.64313725
v 0.00600021 -0.00712395 -0.00195046 0.54117647 0.42352941 0.64313725
v 0.00637862 -0.00677584 -0.00195046 0.54117647 0.42352941 0.64313725
v 0.00355820 -0.00771250 -0.00196300 0.54117647 0.42352941 0.64313725
v 0.00228574 -0.00732715 -0.00196300 0.54117647 0.42352941 0.64313725
v 0.00139920 -0.00692318 -0.00196300 0.54117647 0.42352941 0.64313725
v 0.00056304 -0.00642287 -0.00196300 0.54117647 0.42352941 0.64313725
v -0.00021201 -0.00583189 -0.00196300 0.54117647 0.42352941 0.64313725
v -0.00091631 -0.00515752 -0.00196300 0.54117647 0.42352941 0.64313725
v -0.00154129 -0.00440868 -0.00196300 0.54117647 0.42352941 0.64313725
v -0.00207728 -0.00359588 -0.00196300 0.54117647 0.42352941 0.64313725
v -0.00252002 -0.00272722 -0.00196300 0.54117647 0.42352941 0.64313725
v -0.00286199 -0.00181404 -0.00196300 0.54117647 0.42352941 0.64313725
v -0.00309997 -0.00086847 -0.00196300 0.54117647 0.42352941 0.64313725
v -0.00323504 0.00038877 -0.00196635 0.54117647 0.42352941 0.64313725
v -0.00326291 0.00038877 -0.00199312 0.54117647 0.42352941 0.64313725
v -0.00326613 0.00038877 -0.00199730 0.54117647 0.42352941 0.64313725
v -0.00322968 0.00009733 -0.00196300 0.54117647 0.42352941 0.64313725
v -0.00323075 0.00038877 -0.00196300 0.54117647 0.42352941 0.64313725
f 131 153 154
f 139 166 167
f 138 164 165
f 138 166 139
f 138 165 166
f 137 162 163
f 137 164 138
f 137 163 164
f 136 162 137
f 136 161 162
f 136 160 161
f 135 159 160
f 135 158 159
f 134 158 135
f 134 157 158
f 134 156 157
f 130 150 151
f 133 155 156
f 132 155 133
f 132 154 155
f 131 151 152
f 131 154 132
f 139 167 140
f 131 152 153
f 135 160 136
f 133 156 134
f 146 174 147
f 140 166 168
f 153 182 154
f 153 181 182
f 153 180 181
f 153 179 180
f 152 178 179
f 152 179 153
f 151 178 152
f 150 176 177
f 150 178 151
f 150 177 178
f 149 175 176
f 149 176 150
f 148 175 149
f 147 175 148
f 147 174 175
f 146 171 174
f 144 173 170
f 144 172 173
f 144 145 172
f 144 171 146
f 144 170 171
f 142 168 169
f 142 169 143
f 141 168 142
f 140 168 141
f 140 167 166
f 130 151 131
f 111 136 112
f 128 150 129
f 109 134 110
f 109 133 134
f 108 133 109
f 108 132 133
f 107 129 130
f 107 131 132
f 107 130 131
f 106 127 128
f 106 129 107
f 106 128 129
f 105 124 126
f 105 127 106
f 105 126 127
f 104 125 123
f 103 104 123
f 103 124 105
f 103 123 124
f 99 122 100
f 99 121 122
f 99 120 121
f 99 119 120
f 99 118 119
f 154 182 155
f 98 117 99
f 99 117 118
f 110 134 135
f 129 150 130
f 110 135 111
f 112 136 137
f 128 149 150
f 127 149 128
f 127 148 149
f 127 147 148
f 126 147 127
f 124 147 126
f 124 146 147
f 124 144 146
f 123 145 144
f 123 125 145
f 123 144 124
f 120 142 143
f 119 142 120
f 118 142 119
f 118 141 142
f 117 141 118
f 117 140 141
f 115 117 116
f 115 140 117
f 115 139 140
f 114 139 115
f 114 138 139
f 113 138 114
f 113 137 138
f 112 137 113
f 111 135 136
f 155 182 156
f 181 211 210
f 156 183 184
f 194 228 229
f 193 227 194
f 193 226 227
f 192 226 193
f 191 226 192
f 191 225 226
f 190 223 224
f 190 225 191
f 190 224 225
f 189 223 190
f 188 223 189
f 188 222 223
f 188 221 222
f 187 221 188
f 187 220 221
f 186 220 187
f 186 219 220
f 185 219 186
f 184 219 185
f 184 218 219
f 183 218 184
f 183 217 218
f 181 212 211
f 181 183 182
f 181 217 183
f 194 229 230
f 181 210 217
f 194 227 231
f 198 232 231
f 98 116 117
f 228 231 232
f 210 218 217
f 209 218 210
f 208 218 209
f 208 219 218
f 208 220 219
f 207 220 208
f 206 220 207
f 206 221 220
f 206 222 221
f 205 222 206
f 205 223 222
f 204 223 205
f 203 223 204
f 203 224 223
f 203 225 224
f 202 225 203
f 201 225 202
f 201 226 225
f 201 227 226
f 200 227 201
f 199 227 200
f 199 231 227
f 198 231 199
f 194 231 228
f 180 212 181
f 179 212 180
f 179 213 212
f 168 196 197
f 168 195 196
f 168 230 195
f 168 194 230
f 166 194 168
f 166 193 194
f 165 191 192
f 165 193 166
f 165 192 193
f 164 191 165
f 164 190 191
f 163 190 164
f 163 189 190
f 162 189 163
f 161 189 162
f 161 188 189
f 161 187 188
f 160 187 161
f 159 186 187
f 159 187 160
f 158 184 185
f 158 186 159
f 158 185 186
f 157 184 158
f 156 184 157
f 168 197 169
f 170 173 171
f 171 173 174
f 173 198 199
f 178 215 214
f 178 213 179
f 178 214 213
f 177 215 178
f 176 215 177
f 176 216 215
f 173 175 174
f 173 176 175
f 173 216 176
f 173 215 216
f 173 214 215
f 173 213 214
f 156 182 183
f 173 212 213
f 173 210 211
f 173 209 210
f 173 208 209
f 173 207 208
f 173 206 207
f 173 205 206
f 173 204 205
f 173 203 204
f 173 202 203
f 173 201 202
f 173 200 201
f 173 199 200
f 173 211 212
f 98 115 116
f 84 107 132
f 97 114 98
f 16 41 42
f 15 40 16
f 14 40 15
f 14 39 40
f 14 38 39
f 13 38 14
f 12 38 13
f 12 37 38
f 12 36 37
f 11 36 12
f 11 35 36
f 16 42 17
f 10 35 11
f 9 34 35
f 7 9 8
f 7 34 9
f 7 33 34
f 7 32 33
f 6 32 7
f 6 31 32
f 6 30 31
f 5 30 6
f 5 29 30
f 4 29 5
f 9 35 10
f 16 40 41
f 17 42 18
f 18 43 44
f 30 54 56
f 30 57 31
f 30 56 57
f 29 54 30
f 28 55 53
f 28 52 55
f 28 54 29
f 28 53 54
f 27 52 28
f 26 50 51
f 25 50 26
f 25 49 50
f 24 49 25
f 23 47 48
f 23 49 24
f 23 48 49
f 22 47 23
f 21 45 46
f 21 47 22
f 21 46 47
f 20 45 21
f 19 45 20
f 19 44 45
f 18 42 43
f 18 44 19
f 4 28 29
f 3 28 4
f 2 27 3
f 1 27 2
f 1 25 26
f 1 24 25
f 1 23 24
f 1 22 23
f 1 21 22
f 1 20 21
f 1 19 20
f 1 18 19
f 1 17 18
f 1 16 17
f 1 15 16
f 1 14 15
f 1 13 14
f 1 12 13
f 1 11 12
f 1 10 11
f 1 9 10
f 1 8 9
f 1 7 8
f 1 6 7
f 1 5 6
f 1 4 5
f 1 3 4
f 1 2 3
f 98 114 115
f 1 26 51
f 31 57 32
f 1 51 77
f 1 102 101
f 1 52 27
f 1 55 52
f 1 79 55
f 1 80 79
f 1 81 80
f 1 104 81
f 1 125 104
f 1 145 125
f 1 172 145
f 1 173 172
f 1 198 173
f 1 232 198
f 1 228 232
f 1 229 228
f 1 230 229
f 1 195 230
f 1 196 195
f 1 197 196
f 1 169 197
f 1 143 169
f 1 120 143
f 1 121 120
f 1 122 121
f 1 100 122
f 1 101 100
f 1 77 102
f 32 58 33
f 3 27 28
f 33 59 60
f 76 98 99
f 76 101 102
f 76 100 101
f 76 99 100
f 75 98 76
f 75 97 98
f 74 97 75
f 73 97 74
f 73 96 97
f 72 96 73
f 72 95 96
f 71 93 94
f 71 95 72
f 71 94 95
f 70 93 71
f 69 93 70
f 69 92 93
f 69 91 92
f 68 90 91
f 68 91 69
f 67 90 68
f 66 90 67
f 66 89 90
f 66 88 89
f 65 88 66
f 78 103 105
f 64 86 87
f 78 105 82
f 78 104 103
f 96 114 97
f 32 57 58
f 96 113 114
f 95 113 96
f 94 112 113
f 94 113 95
f 93 112 94
f 92 112 93
f 92 111 112
f 91 111 92
f 90 110 111
f 90 111 91
f 89 110 90
f 88 110 89
f 88 109 110
f 87 108 109
f 87 109 88
f 86 108 87
f 85 108 86
f 84 108 85
f 84 132 108
f 83 107 84
f 83 106 107
f 82 106 83
f 82 105 106
f 78 81 104
f 64 88 65
f 76 102 77
f 64 87 88
f 45 72 46
f 45 71 72
f 45 70 71
f 44 70 45
f 43 70 44
f 43 69 70
f 42 69 43
f 42 68 69
f 41 68 42
f 41 67 68
f 40 66 41
f 40 65 66
f 39 65 40
f 38 63 64
f 38 65 39
f 38 64 65
f 37 63 38
f 36 63 37
f 36 62 63
f 35 62 36
f 35 61 62
f 33 58 59
f 33 35 34
f 33 61 35
f 33 60 61
f 46 72 47
f 47 72 73
f 41 66 67
f 48 74 75
f 63 86 64
f 63 85 86
f 47 73 48
f 62 85 63
f 61 85 62
f 60 85 61
f 60 84 85
f 59 84 60
f 59 83 84
f 57 83 58
f 57 82 83
f 56 82 57
f 54 82 56
f 58 83 59
f 53 81 78
f 48 75 49
f 54 78 82
f 49 75 76
f 49 76 50
f 50 76 77
f 50 77 51
f 48 73 74
f 53 55 79
f 53 79 80
f 53 80 81
f 53 78 54
