# https://github.com/mikedh/trimesh
mtllib left_base_link_visual001.mtl
usemtl left_base_link_visual001_material_0
v -0.00109492 -0.12431206 0.01920247
v -0.00109492 -0.12311251 0.01916058
v 0.00440508 -0.12431206 0.01920247
v 0.00440508 -0.12311251 0.01916058
v -0.00109492 -0.12292318 0.03276226
v -0.00109492 -0.12383743 0.03279418
v 0.00440508 -0.12383743 0.03279418
v 0.00440508 -0.12292318 0.03276226
v 0.00440508 -0.12298261 0.03069880
v 0.00440508 -0.12321876 0.03035026
v 0.00440508 -0.12337671 0.02996001
v 0.00440508 -0.12344947 0.02954534
v 0.00440508 -0.12348830 0.02932961
v 0.00440508 -0.12357319 0.02912752
v 0.00440508 -0.12370007 0.02894878
v 0.00440508 -0.12386285 0.02880199
v 0.00440508 -0.12405371 0.02869418
v 0.00440508 -0.12426346 0.02863054
v 0.00440508 -0.12448204 0.02861414
v 0.00440508 -0.12548310 0.02864910
v 0.00440508 -0.12566457 0.02345227
v 0.00440508 -0.12466351 0.02341731
v 0.00440508 -0.12444661 0.02338570
v 0.00440508 -0.12424181 0.02330758
v 0.00440508 -0.12405894 0.02318673
v 0.00440508 -0.12390679 0.02302893
v 0.00440508 -0.12379269 0.02284178
v 0.00440508 -0.12372210 0.02263426
v 0.00440508 -0.12369842 0.02241635
v 0.00440508 -0.12366044 0.02202529
v 0.00440508 -0.12354675 0.02164921
v 0.00440508 -0.12336173 0.02130262
v 0.00440508 -0.12311251 0.02099888
v 0.00440508 -0.12311251 0.01916058
v 0.00440508 -0.12431206 0.01920247
v 0.00440508 -0.12426670 0.02050168
v 0.00440508 -0.12571343 0.02205312
v 0.00440508 -0.12538117 0.02200388
v 0.00440508 -0.12506819 0.02188195
v 0.00440508 -0.12479019 0.02169342
v 0.00440508 -0.12456111 0.02144777
v 0.00440508 -0.12439244 0.02115729
v 0.00440508 -0.12429263 0.02083657
v 0.00440508 -0.13545750 0.02239338
v 0.00440508 -0.13517829 0.03038851
v 0.00440508 -0.12543424 0.03004824
v 0.00440508 -0.12388280 0.03149498
v 0.00440508 -0.12393204 0.03116272
v 0.00440508 -0.12405397 0.03084973
v 0.00440508 -0.12424250 0.03057174
v 0.00440508 -0.12448815 0.03034266
v 0.00440508 -0.12477862 0.03017399
v 0.00440508 -0.12509935 0.03007418
v 0.00440508 -0.12383743 0.03279418
v 0.00440508 -0.12292318 0.03276226
v -0.00109492 -0.12443149 0.00026085
v -0.00109492 -0.12311251 0.00026085
v 0.00440508 -0.12443149 0.00026085
v 0.00440508 -0.12311251 0.00026085
v -0.00109492 -0.12311251 0.01386085
v -0.00109492 -0.12443149 0.01386085
v 0.00440508 -0.12443149 0.01386085
v 0.00440508 -0.12311251 0.01386085
v 0.00440508 -0.12443149 0.00026085
v 0.00440508 -0.12311251 0.00026085
v 0.00440508 -0.12443149 0.00156085
v 0.00440508 -0.12593148 0.00306085
v 0.00440508 -0.12559770 0.00302324
v 0.00440508 -0.12528066 0.00291230
v 0.00440508 -0.12499625 0.00273360
v 0.00440508 -0.12475874 0.00249608
v 0.00440508 -0.12458003 0.00221168
v 0.00440508 -0.12446910 0.00189463
v 0.00440508 -0.13568148 0.00306085
v 0.00440508 -0.13568148 0.01106085
v 0.00440508 -0.12593148 0.01106085
v 0.00440508 -0.12443149 0.01256085
v 0.00440508 -0.12446910 0.01222707
v 0.00440508 -0.12458003 0.01191002
v 0.00440508 -0.12475874 0.01162561
v 0.00440508 -0.12499625 0.01138810
v 0.00440508 -0.12528066 0.01120940
v 0.00440508 -0.12559770 0.01109846
v 0.00440508 -0.12443149 0.01386085
v 0.00440508 -0.12311251 0.01386085
v 0.00440508 -0.12311251 0.01217490
v 0.00440508 -0.12344473 0.01186855
v 0.00440508 -0.12369970 0.01149543
v 0.00440508 -0.12386438 0.01107459
v 0.00440508 -0.12393038 0.01062752
v 0.00440508 -0.12396165 0.01041056
v 0.00440508 -0.12403944 0.01020563
v 0.00440508 -0.12416001 0.01002258
v 0.00440508 -0.12431756 0.00987019
v 0.00440508 -0.12450454 0.00975579
v 0.00440508 -0.12471194 0.00968487
v 0.00440508 -0.12492982 0.00966085
v 0.00440508 -0.12593148 0.00966085
v 0.00440508 -0.12593148 0.00446085
v 0.00440508 -0.12492982 0.00446085
v 0.00440508 -0.12471194 0.00443682
v 0.00440508 -0.12450454 0.00436591
v 0.00440508 -0.12431756 0.00425151
v 0.00440508 -0.12416001 0.00409912
v 0.00440508 -0.12403944 0.00391606
v 0.00440508 -0.12396165 0.00371113
v 0.00440508 -0.12393038 0.00349418
v 0.00440508 -0.12386438 0.00304711
v 0.00440508 -0.12369970 0.00262627
v 0.00440508 -0.12344473 0.00225315
v 0.00440508 -0.12311251 0.00194679
v -0.00109492 -0.12358715 -0.01838307
v -0.00109492 -0.12233848 -0.01831763
v 0.00440508 -0.12358715 -0.01838307
v 0.00440508 -0.12233848 -0.01831763
v -0.00109492 -0.12311251 -0.00473953
v -0.00109492 -0.12429892 -0.00480171
v 0.00440508 -0.12429892 -0.00480171
v 0.00440508 -0.12311251 -0.00473953
v 0.00440508 -0.12358715 -0.01838307
v 0.00440508 -0.12233848 -0.01831763
v 0.00440508 -0.12365519 -0.01708485
v 0.00440508 -0.12523163 -0.01566541
v 0.00440508 -0.12489634 -0.01568550
v 0.00440508 -0.12457393 -0.01577969
v 0.00440508 -0.12428055 -0.01594327
v 0.00440508 -0.12403094 -0.01616803
v 0.00440508 -0.12383759 -0.01644269
v 0.00440508 -0.12371021 -0.01675350
v 0.00440508 -0.13496827 -0.01617569
v 0.00440508 -0.13538696 -0.00818665
v 0.00440508 -0.12565032 -0.00767638
v 0.00440508 -0.12423088 -0.00609993
v 0.00440508 -0.12425097 -0.00643522
v 0.00440508 -0.12434516 -0.00675764
v 0.00440508 -0.12450874 -0.00705101
v 0.00440508 -0.12473350 -0.00730063
v 0.00440508 -0.12500816 -0.00749397
v 0.00440508 -0.12531896 -0.00762135
v 0.00440508 -0.12429892 -0.00480171
v 0.00440508 -0.12311251 -0.00473953
v 0.00440508 -0.12311251 -0.00662430
v 0.00440508 -0.12333788 -0.00692621
v 0.00440508 -0.12350264 -0.00726501
v 0.00440508 -0.12360093 -0.00762871
v 0.00440508 -0.12362928 -0.00800439
v 0.00440508 -0.12364915 -0.00822268
v 0.00440508 -0.12371610 -0.00843140
v 0.00440508 -0.12382693 -0.00862051
v 0.00440508 -0.12397629 -0.00878094
v 0.00440508 -0.12415703 -0.00890497
v 0.00440508 -0.12436044 -0.00898664
v 0.00440508 -0.12457676 -0.00902203
v 0.00440508 -0.12557705 -0.00907446
v 0.00440508 -0.12530490 -0.01426733
v 0.00440508 -0.12430461 -0.01421491
v 0.00440508 -0.12408578 -0.01422749
v 0.00440508 -0.12387494 -0.01428746
v 0.00440508 -0.12368223 -0.01439192
v 0.00440508 -0.12351692 -0.01453585
v 0.00440508 -0.12338694 -0.01471235
v 0.00440508 -0.12329853 -0.01491292
v 0.00440508 -0.12325594 -0.01512794
v 0.00440508 -0.12318131 -0.01552347
v 0.00440508 -0.12302899 -0.01589606
v 0.00440508 -0.12280515 -0.01623059
v 0.00440508 -0.12251886 -0.01651353
v -0.00109492 -0.12176822 -0.03695725
v -0.00109492 -0.12048839 -0.03682274
v 0.00440508 -0.12176822 -0.03695725
v 0.00440508 -0.12048840 -0.03682274
v 0.00440508 -0.12176822 -0.03695725
v 0.00440508 -0.12048840 -0.03682274
v 0.00440508 -0.12190411 -0.03566437
v 0.00440508 -0.12355268 -0.03432938
v 0.00440508 -0.12321680 -0.03433189
v 0.00440508 -0.12288989 -0.03440909
v 0.00440508 -0.12258837 -0.03455708
v 0.00440508 -0.12232733 -0.03476847
v 0.00440508 -0.12211987 -0.03503264
v 0.00440508 -0.12197640 -0.03533635
v 0.00440508 -0.13324927 -0.03534853
v 0.00440508 -0.13408550 -0.02739236
v 0.00440508 -0.12438891 -0.02637321
v 0.00440508 -0.12305392 -0.02472463
v 0.00440508 -0.12305644 -0.02506052
v 0.00440508 -0.12313363 -0.02538742
v 0.00440508 -0.12328162 -0.02568895
v 0.00440508 -0.12349301 -0.02594999
v 0.00440508 -0.12375718 -0.02615744
v 0.00440508 -0.12406089 -0.02630091
v 0.00440508 -0.12318981 -0.02343175
v 0.00440508 -0.12184136 -0.02329002
v 0.00440508 -0.12167567 -0.02494729
v 0.00440508 -0.12198507 -0.02528853
v 0.00440508 -0.12220818 -0.02569150
v 0.00440508 -0.12233320 -0.02613482
v 0.00440508 -0.12235347 -0.02659499
v 0.00440508 -0.12236189 -0.02681403
v 0.00440508 -0.12241783 -0.02702596
v 0.00440508 -0.12251861 -0.02722062
v 0.00440508 -0.12265937 -0.02738864
v 0.00440508 -0.12283337 -0.02752196
v 0.00440508 -0.12303222 -0.02761417
v 0.00440508 -0.12324639 -0.02766083
v 0.00440508 -0.12424257 -0.02776554
v 0.00440508 -0.12369903 -0.03293705
v 0.00440508 -0.12270285 -0.03283235
v 0.00440508 -0.12248365 -0.03283347
v 0.00440508 -0.12226997 -0.03288231
v 0.00440508 -0.12207206 -0.03297654
v 0.00440508 -0.12189944 -0.03311163
v 0.00440508 -0.12176039 -0.03328108
v 0.00440508 -0.12166161 -0.03347675
v 0.00440508 -0.12160783 -0.03368925
v 0.00440508 -0.12149806 -0.03412014
v 0.00440508 -0.12129579 -0.03451613
v 0.00440508 -0.12101103 -0.03485764
v 0.00440508 -0.12065785 -0.03512779
v -0.00109492 -0.12184136 -0.02329002
v -0.00109492 -0.12318981 -0.02343175
v 0.00440508 -0.12318981 -0.02343175
v 0.00440508 -0.12184136 -0.02329002
v -0.00409492 -0.12393149 0.01466085
v -0.00109492 -0.12393149 0.01466085
v -0.00409492 -0.12443149 0.01466085
v -0.00109492 -0.12443149 0.01466085
v -0.00409492 -0.12393149 -0.00053915
v -0.00409492 -0.12393149 0.01466085
v -0.00409492 -0.12443149 0.01466085
v -0.00409492 -0.12443149 0.01256085
v -0.00409492 -0.12593148 0.01106085
v -0.00409492 -0.12559770 0.01109846
v -0.00409492 -0.12528066 0.01120940
v -0.00409492 -0.12499625 0.01138810
v -0.00409492 -0.12475874 0.01162561
v -0.00409492 -0.12458003 0.01191002
v -0.00409492 -0.12446910 0.01222707
v -0.00409492 -0.12610073 0.01106085
v -0.00409492 -0.12610073 0.00306085
v -0.00409492 -0.12593148 0.00306085
v -0.00409492 -0.12443149 0.00156085
v -0.00409492 -0.12446910 0.00189463
v -0.00409492 -0.12458003 0.00221168
v -0.00409492 -0.12475874 0.00249608
v -0.00409492 -0.12499625 0.00273360
v -0.00409492 -0.12528066 0.00291230
v -0.00409492 -0.12559770 0.00302324
v -0.00409492 -0.12443149 -0.00053915
v -0.00109492 -0.12393149 -0.00053915
v -0.00409492 -0.12393149 -0.00053915
v -0.00409492 -0.12443149 -0.00053915
v -0.00109492 -0.12443149 -0.00053915
v -0.00014307 -0.13988134 0.01106085
v -0.00187209 -0.13968160 0.01106085
v -0.00351699 -0.13911263 0.01106085
v -0.00499991 -0.13820138 0.01106085
v -0.00625065 -0.13699099 0.01106085
v -0.00721001 -0.13553874 0.01106085
v -0.00783258 -0.13391337 0.01106085
v -0.00808890 -0.13219183 0.01106085
v 0.00105091 -0.13964133 0.01106085
v 0.00066509 -0.13977548 0.01106085
v 0.00026462 -0.13985598 0.01106085
v 0.00209077 -0.13908641 0.01106085
v 0.00301826 -0.13835907 0.01106085
v 0.00380508 -0.13748148 0.01106085
v 0.00440508 -0.13568148 0.01106085
v 0.00433633 -0.13632007 0.01106085
v 0.00413322 -0.13692937 0.01106085
v 0.00440508 -0.12593148 0.01106085
v -0.00409492 -0.12593148 0.01106085
v -0.00409492 -0.12610073 0.01106085
v -0.00567861 -0.12805692 0.01106085
v -0.00524931 -0.12791317 0.01106085
v -0.00486334 -0.12767654 0.01106085
v -0.00454047 -0.12735918 0.01106085
v -0.00429726 -0.12697732 0.01106085
v -0.00414616 -0.12655055 0.01106085
v -0.00659159 -0.12889322 0.01106085
v -0.00733645 -0.12988222 0.01106085
v -0.00788815 -0.13099062 0.01106085
v -0.00807692 -0.13178353 0.01106085
v -0.00800959 -0.13138064 0.01106085
v 0.00015041 -0.13318149 0.01106085
v -0.00038805 -0.13324687 0.01106085
v -0.00089522 -0.13343921 0.01106085
v -0.00134161 -0.13374734 0.01106085
v -0.00170130 -0.13415334 0.01106085
v -0.00195337 -0.13463363 0.01106085
v -0.00208318 -0.13516028 0.01106085
v -0.00208318 -0.13570270 0.01106085
v -0.00195337 -0.13622935 0.01106085
v -0.00170130 -0.13670963 0.01106085
v -0.00134161 -0.13711564 0.01106085
v -0.00089522 -0.13742376 0.01106085
v -0.00038805 -0.13761610 0.01106085
v 0.00015041 -0.13768149 0.01106085
v 0.00068887 -0.13761610 0.01106085
v 0.00119604 -0.13742376 0.01106085
v 0.00164244 -0.13711564 0.01106085
v 0.00200213 -0.13670963 0.01106085
v 0.00225420 -0.13622935 0.01106085
v 0.00238401 -0.13570270 0.01106085
v 0.00238401 -0.13516028 0.01106085
v 0.00225420 -0.13463363 0.01106085
v 0.00200213 -0.13415334 0.01106085
v 0.00164244 -0.13374734 0.01106085
v 0.00119604 -0.13343921 0.01106085
v 0.00068887 -0.13324687 0.01106085
v 0.00015041 -0.13318149 0.00306085
v 0.00015041 -0.13318149 0.01106085
v 0.00015041 -0.13768149 0.01106085
v 0.00068887 -0.13761610 0.01106085
v 0.00119604 -0.13742376 0.01106085
v 0.00164244 -0.13711564 0.01106085
v 0.00200213 -0.13670963 0.01106085
v 0.00225420 -0.13622935 0.01106085
v 0.00238401 -0.13570270 0.01106085
v 0.00238401 -0.13516028 0.01106085
v 0.00225420 -0.13463363 0.01106085
v 0.00200213 -0.13415334 0.01106085
v 0.00164244 -0.13374734 0.01106085
v 0.00119604 -0.13343921 0.01106085
v 0.00068887 -0.13324687 0.01106085
v 0.00015041 -0.13768149 0.00306085
v 0.00068887 -0.13324687 0.00306085
v 0.00119604 -0.13343921 0.00306085
v 0.00164244 -0.13374734 0.00306085
v 0.00200213 -0.13415334 0.00306085
v 0.00225420 -0.13463363 0.00306085
v 0.00238401 -0.13516028 0.00306085
v 0.00238401 -0.13570270 0.00306085
v 0.00225420 -0.13622935 0.00306085
v 0.00200213 -0.13670963 0.00306085
v 0.00164244 -0.13711564 0.00306085
v 0.00119604 -0.13742376 0.00306085
v 0.00068887 -0.13761610 0.00306085
v -0.00788815 -0.13099062 0.00306085
v -0.00733645 -0.12988222 0.00306085
v -0.00659159 -0.12889322 0.00306085
v -0.00659159 -0.12889322 0.00306085
v -0.00567861 -0.12805692 0.00306085
v -0.00409492 -0.12610073 0.00306085
v -0.00414616 -0.12655055 0.00306085
v -0.00429726 -0.12697732 0.00306085
v -0.00454047 -0.12735918 0.00306085
v -0.00486334 -0.12767654 0.00306085
v -0.00524931 -0.12791317 0.00306085
v -0.00524931 -0.12791317 0.00306085
v -0.00409492 -0.12593148 0.00306085
v 0.00440508 -0.12593148 0.00306085
v 0.00440508 -0.13568148 0.00306085
v 0.00380508 -0.13748148 0.00306085
v 0.00413322 -0.13692937 0.00306085
v 0.00433633 -0.13632007 0.00306085
v 0.00301826 -0.13835907 0.00306085
v 0.00209077 -0.13908641 0.00306085
v 0.00105091 -0.13964133 0.00306085
v -0.00014307 -0.13988134 0.00306085
v 0.00026462 -0.13985598 0.00306085
v 0.00066509 -0.13977548 0.00306085
v -0.00808890 -0.13219183 0.00306085
v -0.00783258 -0.13391337 0.00306085
v -0.00721001 -0.13553874 0.00306085
v -0.00625065 -0.13699099 0.00306085
v -0.00499991 -0.13820138 0.00306085
v -0.00351699 -0.13911263 0.00306085
v -0.00187209 -0.13968160 0.00306085
v -0.00800959 -0.13138064 0.00306085
v -0.00807692 -0.13178353 0.00306085
v 0.00015041 -0.13318149 0.00306085
v 0.00068887 -0.13324687 0.00306085
v 0.00119604 -0.13343921 0.00306085
v 0.00164244 -0.13374734 0.00306085
v 0.00200213 -0.13415334 0.00306085
v 0.00225420 -0.13463363 0.00306085
v 0.00238401 -0.13516028 0.00306085
v 0.00238401 -0.13570270 0.00306085
v 0.00225420 -0.13622935 0.00306085
v 0.00200213 -0.13670963 0.00306085
v 0.00164244 -0.13711564 0.00306085
v 0.00119604 -0.13742376 0.00306085
v 0.00068887 -0.13761610 0.00306085
v 0.00015041 -0.13768149 0.00306085
v -0.00038805 -0.13761610 0.00306085
v -0.00089522 -0.13742376 0.00306085
v -0.00134161 -0.13711564 0.00306085
v -0.00170130 -0.13670963 0.00306085
v -0.00195337 -0.13622935 0.00306085
v -0.00208318 -0.13570270 0.00306085
v -0.00208318 -0.13516028 0.00306085
v -0.00195337 -0.13463363 0.00306085
v -0.00170130 -0.13415334 0.00306085
v -0.00134161 -0.13374734 0.00306085
v -0.00089522 -0.13343921 0.00306085
v -0.00038805 -0.13324687 0.00306085
v 0.00015041 -0.13318149 0.01106085
v -0.00038805 -0.13324687 0.01106085
v -0.00089522 -0.13343921 0.01106085
v -0.00134161 -0.13374734 0.01106085
v -0.00170130 -0.13415334 0.01106085
v -0.00195337 -0.13463363 0.01106085
v -0.00208318 -0.13516028 0.01106085
v -0.00208318 -0.13570270 0.01106085
v -0.00195337 -0.13622935 0.01106085
v -0.00170130 -0.13670963 0.01106085
v -0.00134161 -0.13711564 0.01106085
v -0.00089522 -0.13742376 0.01106085
v -0.00038805 -0.13761610 0.01106085
v 0.00015041 -0.13768149 0.01106085
v 0.00015041 -0.13318149 0.00306085
v 0.00015041 -0.13768149 0.00306085
v -0.00038805 -0.13761610 0.00306085
v -0.00089522 -0.13742376 0.00306085
v -0.00134161 -0.13711564 0.00306085
v -0.00170130 -0.13670963 0.00306085
v -0.00195337 -0.13622935 0.00306085
v -0.00208318 -0.13570270 0.00306085
v -0.00208318 -0.13516028 0.00306085
v -0.00195337 -0.13463363 0.00306085
v -0.00170130 -0.13415334 0.00306085
v -0.00134161 -0.13374734 0.00306085
v -0.00089522 -0.13343921 0.00306085
v -0.00038805 -0.13324687 0.00306085
v 0.00440508 -0.12443149 0.01386085
v 0.00440508 -0.12443149 0.01256085
v -0.00409492 -0.12443149 0.01256085
v -0.00409492 -0.12443149 0.01466085
v -0.00109492 -0.12443149 0.01466085
v -0.00109492 -0.12443149 0.01386085
v -0.00409492 -0.12443149 0.00156085
v 0.00440508 -0.12443149 0.00156085
v -0.00409492 -0.12443149 -0.00053915
v -0.00109492 -0.12443149 -0.00053915
v -0.00109492 -0.12443149 0.00026085
v 0.00440508 -0.12443149 0.00026085
v 0.00440508 -0.12443149 0.01256085
v 0.00440508 -0.12446910 0.01222707
v 0.00440508 -0.12458003 0.01191002
v 0.00440508 -0.12475874 0.01162561
v 0.00440508 -0.12499625 0.01138810
v 0.00440508 -0.12528066 0.01120940
v 0.00440508 -0.12559770 0.01109846
v 0.00440508 -0.12593148 0.01106085
v -0.00409492 -0.12593148 0.01106085
v -0.00409492 -0.12559770 0.01109846
v -0.00409492 -0.12528066 0.01120940
v -0.00409492 -0.12499625 0.01138810
v -0.00409492 -0.12475874 0.01162561
v -0.00409492 -0.12458003 0.01191002
v -0.00409492 -0.12446910 0.01222707
v -0.00409492 -0.12443149 0.01256085
v 0.00440508 -0.12593148 0.00306085
v 0.00440508 -0.12559770 0.00302324
v 0.00440508 -0.12528066 0.00291230
v 0.00440508 -0.12499625 0.00273360
v 0.00440508 -0.12475874 0.00249608
v 0.00440508 -0.12458003 0.00221168
v 0.00440508 -0.12446910 0.00189463
v 0.00440508 -0.12443149 0.00156085
v -0.00409492 -0.12443149 0.00156085
v -0.00409492 -0.12446910 0.00189463
v -0.00409492 -0.12458003 0.00221168
v -0.00409492 -0.12475874 0.00249608
v -0.00409492 -0.12499625 0.00273360
v -0.00409492 -0.12528066 0.00291230
v -0.00409492 -0.12559770 0.00302324
v -0.00409492 -0.12593148 0.00306085
v -0.00567861 -0.12805692 0.01106085
v -0.00567861 -0.12805692 0.00306085
v -0.00409492 -0.12610073 0.00306085
v -0.00414616 -0.12655055 0.00306085
v -0.00429726 -0.12697732 0.00306085
v -0.00454047 -0.12735918 0.00306085
v -0.00486334 -0.12767654 0.00306085
v -0.00524931 -0.12791317 0.00306085
v -0.00409492 -0.12610073 0.01106085
v -0.00524931 -0.12791317 0.01106085
v -0.00486334 -0.12767654 0.01106085
v -0.00454047 -0.12735918 0.01106085
v -0.00429726 -0.12697732 0.01106085
v -0.00414616 -0.12655055 0.01106085
v -0.00014307 -0.13988134 0.01106085
v -0.00187209 -0.13968160 0.01106085
v -0.00351699 -0.13911263 0.01106085
v -0.00499991 -0.13820138 0.01106085
v -0.00625065 -0.13699099 0.01106085
v -0.00721001 -0.13553874 0.01106085
v -0.00783258 -0.13391337 0.01106085
v -0.00808890 -0.13219183 0.01106085
v -0.00808890 -0.13219183 0.00306085
v -0.00783258 -0.13391337 0.00306085
v -0.00721001 -0.13553874 0.00306085
v -0.00625065 -0.13699099 0.00306085
v -0.00499991 -0.13820138 0.00306085
v -0.00351699 -0.13911263 0.00306085
v -0.00187209 -0.13968160 0.00306085
v -0.00014307 -0.13988134 0.00306085
v 0.00380508 -0.13748148 0.01106085
v 0.00380508 -0.13748148 0.00306085
v 0.00105091 -0.13964133 0.01106085
v 0.00209077 -0.13908641 0.01106085
v 0.00301826 -0.13835907 0.01106085
v 0.00105091 -0.13964133 0.00306085
v 0.00301826 -0.13835907 0.00306085
v 0.00209077 -0.13908641 0.00306085
v -0.00567861 -0.12805692 0.01106085
v -0.00567861 -0.12805692 0.00306085
v -0.00788815 -0.13099062 0.00306085
v -0.00733645 -0.12988222 0.00306085
v -0.00659159 -0.12889322 0.00306085
v -0.00788815 -0.13099062 0.01106085
v -0.00659159 -0.12889322 0.01106085
v -0.00733645 -0.12988222 0.01106085
v -0.00788815 -0.13099062 0.00306085
v -0.00800959 -0.13138064 0.00306085
v -0.00807692 -0.13178353 0.00306085
v -0.00808890 -0.13219183 0.00306085
v -0.00808890 -0.13219183 0.01106085
v -0.00807692 -0.13178353 0.01106085
v -0.00800959 -0.13138064 0.01106085
v -0.00788815 -0.13099062 0.01106085
v 0.00105091 -0.13964133 0.00306085
v 0.00105091 -0.13964133 0.01106085
v 0.00066509 -0.13977548 0.01106085
v 0.00026462 -0.13985598 0.01106085
v -0.00014307 -0.13988134 0.01106085
v -0.00014307 -0.13988134 0.00306085
v 0.00026462 -0.13985598 0.00306085
v 0.00066509 -0.13977548 0.00306085
v 0.00440508 -0.13568148 0.00306085
v 0.00440508 -0.13568148 0.01106085
v 0.00433633 -0.13632007 0.01106085
v 0.00413322 -0.13692937 0.01106085
v 0.00380508 -0.13748148 0.01106085
v 0.00380508 -0.13748148 0.00306085
v 0.00413322 -0.13692937 0.00306085
v 0.00433633 -0.13632007 0.00306085
v -0.00109492 -0.12384029 0.01838551
v -0.00409492 -0.12384029 0.01838551
v -0.00409492 -0.12433999 0.01840296
v -0.00109492 -0.12433999 0.01840296
v -0.00409492 -0.12330982 0.03357625
v -0.00109492 -0.12330982 0.03357625
v -0.00409492 -0.12380951 0.03359370
v -0.00109492 -0.12380951 0.03359370
v -0.00409492 -0.12384029 0.01838551
v -0.00409492 -0.12330982 0.03357625
v -0.00409492 -0.12380951 0.03359370
v -0.00409492 -0.12388280 0.03149498
v -0.00409492 -0.12543424 0.03004824
v -0.00409492 -0.12509935 0.03007418
v -0.00409492 -0.12477862 0.03017399
v -0.00409492 -0.12448815 0.03034266
v -0.00409492 -0.12424250 0.03057174
v -0.00409492 -0.12405397 0.03084973
v -0.00409492 -0.12393204 0.03116272
v -0.00409492 -0.12560337 0.03005415
v -0.00409492 -0.12588257 0.02205902
v -0.00409492 -0.12571343 0.02205312
v -0.00409492 -0.12426670 0.02050168
v -0.00409492 -0.12429263 0.02083657
v -0.00409492 -0.12439244 0.02115729
v -0.00409492 -0.12456111 0.02144777
v -0.00409492 -0.12479019 0.02169342
v -0.00409492 -0.12506819 0.02188195
v -0.00409492 -0.12538117 0.02200388
v -0.00409492 -0.12433999 0.01840296
v -0.00014307 -0.13937559 0.03053509
v -0.00187209 -0.13917597 0.03052811
v -0.00351699 -0.13860735 0.03050826
v -0.00499991 -0.13769666 0.03047646
v -0.00625065 -0.13648700 0.03043421
v -0.00721001 -0.13503564 0.03038353
v -0.00783258 -0.13341126 0.03032681
v -0.00808890 -0.13169077 0.03026672
v -0.00808890 -0.13169077 0.03026672
v -0.00808890 -0.13169077 0.03026672
v 0.00105091 -0.13913572 0.03052671
v 0.00066509 -0.13926980 0.03053139
v 0.00026462 -0.13935025 0.03053420
v 0.00209077 -0.13858115 0.03050734
v 0.00301826 -0.13785425 0.03048196
v 0.00380508 -0.13697720 0.03045134
v 0.00440508 -0.13517829 0.03038851
v 0.00433633 -0.13581649 0.03041080
v 0.00413322 -0.13642542 0.03043206
v 0.00440508 -0.12543424 0.03004824
v 0.00440508 -0.12543424 0.03004824
v -0.00409492 -0.12543424 0.03004824
v -0.00409492 -0.12560337 0.03005415
v -0.00409492 -0.12560337 0.03005415
v -0.00567861 -0.12755838 0.03012242
v -0.00524931 -0.12741471 0.03011740
v -0.00524931 -0.12741471 0.03011740
v -0.00486334 -0.12717823 0.03010914
v -0.00454047 -0.12686105 0.03009807
v -0.00429726 -0.12647944 0.03008474
v -0.00414616 -0.12605292 0.03006985
v -0.00659159 -0.12839417 0.03015161
v -0.00659159 -0.12839417 0.03015161
v -0.00733645 -0.12938256 0.03018612
v -0.00788815 -0.13049029 0.03022481
v -0.00788815 -0.13049029 0.03022481
v -0.00807692 -0.13128271 0.03025248
v -0.00800959 -0.13088006 0.03023841
v -0.00800959 -0.13088006 0.03023841
v 0.00015041 -0.13267982 0.03030127
v -0.00038805 -0.13274516 0.03030355
v -0.00089522 -0.13293739 0.03031026
v -0.00134161 -0.13324532 0.03032101
v -0.00170130 -0.13365108 0.03033518
v -0.00195337 -0.13413108 0.03035194
v -0.00208318 -0.13465741 0.03037032
v -0.00208318 -0.13519949 0.03038926
v -0.00195337 -0.13572582 0.03040763
v -0.00170130 -0.13620582 0.03042439
v -0.00134161 -0.13661157 0.03043856
v -0.00089522 -0.13691951 0.03044932
v -0.00038805 -0.13711173 0.03045603
v 0.00015041 -0.13717708 0.03045831
v 0.00068887 -0.13711173 0.03045603
v 0.00119604 -0.13691951 0.03044932
v 0.00164244 -0.13661157 0.03043856
v 0.00200213 -0.13620582 0.03042439
v 0.00225420 -0.13572582 0.03040763
v 0.00238401 -0.13519949 0.03038926
v 0.00238401 -0.13465741 0.03037032
v 0.00225420 -0.13413108 0.03035194
v 0.00200213 -0.13365108 0.03033518
v 0.00164244 -0.13324532 0.03032101
v 0.00119604 -0.13293739 0.03031026
v 0.00068887 -0.13274516 0.03030355
v 0.00015041 -0.13295902 0.02230614
v 0.00015041 -0.13267982 0.03030127
v 0.00015041 -0.13717708 0.03045831
v 0.00068887 -0.13711173 0.03045603
v 0.00119604 -0.13691951 0.03044932
v 0.00164244 -0.13661157 0.03043856
v 0.00200213 -0.13620582 0.03042439
v 0.00225420 -0.13572582 0.03040763
v 0.00238401 -0.13519949 0.03038926
v 0.00238401 -0.13465741 0.03037032
v 0.00225420 -0.13413108 0.03035194
v 0.00200213 -0.13365108 0.03033518
v 0.00164244 -0.13324532 0.03032101
v 0.00119604 -0.13293739 0.03031026
v 0.00068887 -0.13274516 0.03030355
v 0.00015041 -0.13745627 0.02246319
v 0.00068887 -0.13302436 0.02230842
v 0.00119604 -0.13321659 0.02231513
v 0.00164244 -0.13352453 0.02232589
v 0.00200213 -0.13393028 0.02234005
v 0.00225420 -0.13441027 0.02235682
v 0.00238401 -0.13493660 0.02237520
v 0.00238401 -0.13547869 0.02239413
v 0.00225420 -0.13600502 0.02241251
v 0.00200213 -0.13648501 0.02242927
v 0.00164244 -0.13689077 0.02244344
v 0.00119604 -0.13719871 0.02245419
v 0.00068887 -0.13739094 0.02246090
v -0.00788815 -0.13076949 0.02222968
v -0.00788815 -0.13076949 0.02222968
v -0.00733645 -0.12966176 0.02219100
v -0.00659159 -0.12867337 0.02215648
v -0.00567861 -0.12783757 0.02212729
v -0.00409492 -0.12588257 0.02205902
v -0.00414616 -0.12633212 0.02207472
v -0.00429726 -0.12675863 0.02208962
v -0.00454047 -0.12714025 0.02210294
v -0.00486334 -0.12745743 0.02211402
v -0.00524931 -0.12769391 0.02212228
v -0.00409492 -0.12571343 0.02205312
v 0.00440508 -0.12571343 0.02205312
v 0.00440508 -0.13545750 0.02239338
v 0.00380508 -0.13725640 0.02245621
v 0.00413322 -0.13670462 0.02243694
v 0.00433633 -0.13609568 0.02241568
v 0.00301826 -0.13813345 0.02248684
v 0.00209077 -0.13886034 0.02251222
v 0.00105091 -0.13941492 0.02253158
v -0.00014307 -0.13965479 0.02253996
v 0.00026462 -0.13962945 0.02253907
v 0.00066509 -0.13954900 0.02253626
v -0.00808890 -0.13196996 0.02227160
v -0.00783258 -0.13369046 0.02233168
v -0.00721001 -0.13531483 0.02238841
v -0.00625065 -0.13676620 0.02243908
v -0.00499991 -0.13797586 0.02248133
v -0.00351699 -0.13888654 0.02251313
v -0.00187209 -0.13945517 0.02253298
v -0.00800959 -0.13115926 0.02224329
v -0.00807692 -0.13156191 0.02225735
v -0.00807692 -0.13156191 0.02225735
v 0.00015041 -0.13295902 0.02230614
v 0.00068887 -0.13302436 0.02230842
v 0.00119604 -0.13321659 0.02231513
v 0.00164244 -0.13352453 0.02232589
v 0.00200213 -0.13393028 0.02234005
v 0.00225420 -0.13441027 0.02235682
v 0.00238401 -0.13493660 0.02237520
v 0.00238401 -0.13547869 0.02239413
v 0.00225420 -0.13600502 0.02241251
v 0.00200213 -0.13648501 0.02242927
v 0.00164244 -0.13689077 0.02244344
v 0.00119604 -0.13719871 0.02245419
v 0.00068887 -0.13739094 0.02246090
v 0.00015041 -0.13745627 0.02246319
v -0.00038805 -0.13739094 0.02246090
v -0.00089522 -0.13719871 0.02245419
v -0.00134161 -0.13689077 0.02244344
v -0.00170130 -0.13648501 0.02242927
v -0.00195337 -0.13600502 0.02241251
v -0.00208318 -0.13547869 0.02239413
v -0.00208318 -0.13493660 0.02237520
v -0.00195337 -0.13441027 0.02235682
v -0.00170130 -0.13393028 0.02234005
v -0.00134161 -0.13352453 0.02232589
v -0.00089522 -0.13321659 0.02231513
v -0.00038805 -0.13302436 0.02230842
v 0.00015041 -0.13267982 0.03030127
v -0.00038805 -0.13274516 0.03030355
v -0.00089522 -0.13293739 0.03031026
v -0.00134161 -0.13324532 0.03032101
v -0.00170130 -0.13365108 0.03033518
v -0.00195337 -0.13413108 0.03035194
v -0.00208318 -0.13465741 0.03037032
v -0.00208318 -0.13519949 0.03038926
v -0.00195337 -0.13572582 0.03040763
v -0.00170130 -0.13620582 0.03042439
v -0.00134161 -0.13661157 0.03043856
v -0.00089522 -0.13691951 0.03044932
v -0.00038805 -0.13711173 0.03045603
v 0.00015041 -0.13717708 0.03045831
v 0.00015041 -0.13295902 0.02230614
v 0.00015041 -0.13745627 0.02246319
v -0.00038805 -0.13739094 0.02246090
v -0.00089522 -0.13719871 0.02245419
v -0.00134161 -0.13689077 0.02244344
v -0.00170130 -0.13648501 0.02242927
v -0.00195337 -0.13600502 0.02241251
v -0.00208318 -0.13547869 0.02239413
v -0.00208318 -0.13493660 0.02237520
v -0.00195337 -0.13441027 0.02235682
v -0.00170130 -0.13393028 0.02234005
v -0.00134161 -0.13352453 0.02232589
v -0.00089522 -0.13321659 0.02231513
v -0.00038805 -0.13302436 0.02230842
v 0.00440508 -0.12383743 0.03279418
v 0.00440508 -0.12388280 0.03149498
v -0.00409492 -0.12388280 0.03149498
v -0.00409492 -0.12380951 0.03359370
v -0.00109492 -0.12380951 0.03359370
v -0.00109492 -0.12383743 0.03279418
v -0.00409492 -0.12426670 0.02050168
v 0.00440508 -0.12426670 0.02050168
v -0.00409492 -0.12433999 0.01840296
v -0.00109492 -0.12433999 0.01840296
v -0.00109492 -0.12431206 0.01920247
v 0.00440508 -0.12431206 0.01920247
v 0.00440508 -0.12388280 0.03149498
v 0.00440508 -0.12393204 0.03116272
v 0.00440508 -0.12405397 0.03084973
v 0.00440508 -0.12424250 0.03057174
v 0.00440508 -0.12448815 0.03034266
v 0.00440508 -0.12477862 0.03017399
v 0.00440508 -0.12509935 0.03007418
v 0.00440508 -0.12543424 0.03004824
v -0.00409492 -0.12543424 0.03004824
v -0.00409492 -0.12509935 0.03007418
v -0.00409492 -0.12477862 0.03017399
v -0.00409492 -0.12448815 0.03034266
v -0.00409492 -0.12424250 0.03057174
v -0.00409492 -0.12405397 0.03084973
v -0.00409492 -0.12393204 0.03116272
v -0.00409492 -0.12388280 0.03149498
v 0.00440508 -0.12571343 0.02205312
v 0.00440508 -0.12538117 0.02200388
v 0.00440508 -0.12506819 0.02188195
v 0.00440508 -0.12479019 0.02169342
v 0.00440508 -0.12456111 0.02144777
v 0.00440508 -0.12439244 0.02115729
v 0.00440508 -0.12429263 0.02083657
v 0.00440508 -0.12426670 0.02050168
v -0.00409492 -0.12426670 0.02050168
v -0.00409492 -0.12429263 0.02083657
v -0.00409492 -0.12439244 0.02115729
v -0.00409492 -0.12456111 0.02144777
v -0.00409492 -0.12479019 0.02169342
v -0.00409492 -0.12506819 0.02188195
v -0.00409492 -0.12538117 0.02200388
v -0.00409492 -0.12571343 0.02205312
v -0.00567861 -0.12755838 0.03012242
v -0.00567861 -0.12783757 0.02212729
v -0.00409492 -0.12588257 0.02205902
v -0.00414616 -0.12633212 0.02207472
v -0.00429726 -0.12675863 0.02208962
v -0.00454047 -0.12714025 0.02210294
v -0.00486334 -0.12745743 0.02211402
v -0.00524931 -0.12769391 0.02212228
v -0.00409492 -0.12560337 0.03005415
v -0.00524931 -0.12741471 0.03011740
v -0.00486334 -0.12717823 0.03010914
v -0.00454047 -0.12686105 0.03009807
v -0.00429726 -0.12647944 0.03008474
v -0.00414616 -0.12605292 0.03006985
v -0.00014307 -0.13937559 0.03053509
v -0.00187209 -0.13917597 0.03052811
v -0.00351699 -0.13860735 0.03050826
v -0.00499991 -0.13769666 0.03047646
v -0.00625065 -0.13648700 0.03043421
v -0.00721001 -0.13503564 0.03038353
v -0.00783258 -0.13341126 0.03032681
v -0.00808890 -0.13169077 0.03026672
v -0.00808890 -0.13196996 0.02227160
v -0.00783258 -0.13369046 0.02233168
v -0.00721001 -0.13531483 0.02238841
v -0.00625065 -0.13676620 0.02243908
v -0.00499991 -0.13797586 0.02248133
v -0.00351699 -0.13888654 0.02251313
v -0.00187209 -0.13945517 0.02253298
v -0.00014307 -0.13965479 0.02253996
v 0.00380508 -0.13697720 0.03045134
v 0.00380508 -0.13725640 0.02245621
v 0.00105091 -0.13913572 0.03052671
v 0.00209077 -0.13858115 0.03050734
v 0.00301826 -0.13785425 0.03048196
v 0.00105091 -0.13941492 0.02253158
v 0.00301826 -0.13813345 0.02248684
v 0.00209077 -0.13886034 0.02251222
v -0.00567861 -0.12755838 0.03012242
v -0.00567861 -0.12783757 0.02212729
v -0.00788815 -0.13076949 0.02222968
v -0.00733645 -0.12966176 0.02219100
v -0.00659159 -0.12867337 0.02215648
v -0.00788815 -0.13049029 0.03022481
v -0.00659159 -0.12839417 0.03015161
v -0.00733645 -0.12938256 0.03018612
v -0.00788815 -0.13076949 0.02222968
v -0.00800959 -0.13115926 0.02224329
v -0.00807692 -0.13156191 0.02225735
v -0.00808890 -0.13196996 0.02227160
v -0.00808890 -0.13169077 0.03026672
v -0.00807692 -0.13128271 0.03025248
v -0.00800959 -0.13088006 0.03023841
v -0.00788815 -0.13049029 0.03022481
v 0.00105091 -0.13941492 0.02253158
v 0.00105091 -0.13913572 0.03052671
v 0.00066509 -0.13926980 0.03053139
v 0.00026462 -0.13935025 0.03053420
v -0.00014307 -0.13937559 0.03053509
v -0.00014307 -0.13965479 0.02253996
v 0.00026462 -0.13962945 0.02253907
v 0.00066509 -0.13954900 0.02253626
v 0.00440508 -0.13545750 0.02239338
v 0.00440508 -0.13517829 0.03038851
v 0.00433633 -0.13581649 0.03041080
v 0.00413322 -0.13642542 0.03043206
v 0.00380508 -0.13697720 0.03045134
v 0.00380508 -0.13725640 0.02245621
v 0.00413322 -0.13670462 0.02243694
v 0.00433633 -0.13609568 0.02241568
v -0.00409492 -0.12384148 -0.00397664
v -0.00109492 -0.12384148 -0.00397664
v -0.00409492 -0.12434078 -0.00400281
v -0.00109492 -0.12434078 -0.00400281
v -0.00109492 -0.12304596 -0.01915581
v -0.00409492 -0.12304596 -0.01915581
v -0.00409492 -0.12354528 -0.01918197
v -0.00109492 -0.12354528 -0.01918197
v -0.00409492 -0.12384148 -0.00397664
v -0.00409492 -0.12304596 -0.01915581
v -0.00409492 -0.12434078 -0.00400281
v -0.00409492 -0.12423088 -0.00609993
v -0.00409492 -0.12565032 -0.00767638
v -0.00409492 -0.12531896 -0.00762135
v -0.00409492 -0.12500816 -0.00749397
v -0.00409492 -0.12473350 -0.00730063
v -0.00409492 -0.12450874 -0.00705101
v -0.00409492 -0.12434516 -0.00675764
v -0.00409492 -0.12425097 -0.00643522
v -0.00409492 -0.12581933 -0.00768523
v -0.00409492 -0.12540064 -0.01567427
v -0.00409492 -0.12523163 -0.01566541
v -0.00409492 -0.12365519 -0.01708485
v -0.00409492 -0.12371021 -0.01675350
v -0.00409492 -0.12383759 -0.01644269
v -0.00409492 -0.12403094 -0.01616803
v -0.00409492 -0.12428055 -0.01594327
v -0.00409492 -0.12457393 -0.01577969
v -0.00409492 -0.12489634 -0.01568550
v -0.00409492 -0.12354528 -0.01918197
v -0.00014307 -0.13958106 -0.00840646
v -0.00187209 -0.13938158 -0.00839600
v -0.00351699 -0.13881340 -0.00836622
v -0.00499991 -0.13790340 -0.00831853
v -0.00625065 -0.13669467 -0.00825519
v -0.00721001 -0.13524441 -0.00817918
v -0.00783258 -0.13362127 -0.00809412
v -0.00808890 -0.13190209 -0.00800402
v 0.00105091 -0.13934137 -0.00839389
v 0.00066509 -0.13947534 -0.00840091
v 0.00026462 -0.13955574 -0.00840513
v 0.00209077 -0.13878721 -0.00836485
v 0.00301826 -0.13806088 -0.00832678
v 0.00380508 -0.13718449 -0.00828085
v 0.00440508 -0.13538696 -0.00818665
v 0.00440508 -0.13538696 -0.00818665
v 0.00433633 -0.13602467 -0.00822007
v 0.00413322 -0.13663314 -0.00825196
v 0.00440508 -0.12565032 -0.00767638
v -0.00409492 -0.12565032 -0.00767638
v -0.00409492 -0.12581933 -0.00768523
v -0.00567861 -0.12777284 -0.00778761
v -0.00524931 -0.12762929 -0.00778009
v -0.00486334 -0.12739299 -0.00776771
v -0.00454047 -0.12707606 -0.00775110
v -0.00429726 -0.12669473 -0.00773111
v -0.00414616 -0.12626854 -0.00770878
v -0.00659159 -0.12860800 -0.00783138
v -0.00733645 -0.12959564 -0.00788314
v -0.00788815 -0.13070253 -0.00794115
v -0.00788815 -0.13070253 -0.00794115
v -0.00807692 -0.13149434 -0.00798265
v -0.00807692 -0.13149434 -0.00798265
v -0.00800959 -0.13109200 -0.00796156
v 0.00015041 -0.13289038 -0.00805581
v -0.00038805 -0.13295567 -0.00805923
v -0.00089522 -0.13314776 -0.00806930
v -0.00134161 -0.13345546 -0.00808543
v -0.00170130 -0.13386091 -0.00810667
v -0.00195337 -0.13434054 -0.00813181
v -0.00208318 -0.13486646 -0.00815937
v -0.00208318 -0.13540814 -0.00818776
v -0.00195337 -0.13593407 -0.00821532
v -0.00170130 -0.13641370 -0.00824046
v -0.00134161 -0.13681914 -0.00826171
v -0.00089522 -0.13712685 -0.00827783
v -0.00038805 -0.13731893 -0.00828790
v 0.00015041 -0.13738422 -0.00829132
v 0.00068887 -0.13731893 -0.00828790
v 0.00119604 -0.13712685 -0.00827783
v 0.00164244 -0.13681914 -0.00826171
v 0.00200213 -0.13641370 -0.00824046
v 0.00225420 -0.13593407 -0.00821532
v 0.00238401 -0.13540814 -0.00818776
v 0.00238401 -0.13540814 -0.00818776
v 0.00238401 -0.13486646 -0.00815937
v 0.00238401 -0.13486646 -0.00815937
v 0.00225420 -0.13434054 -0.00813181
v 0.00200213 -0.13386091 -0.00810667
v 0.00164244 -0.13345546 -0.00808543
v 0.00119604 -0.13314776 -0.00806930
v 0.00068887 -0.13295567 -0.00805923
v 0.00015041 -0.13247170 -0.01604485
v 0.00015041 -0.13289038 -0.00805581
v 0.00015041 -0.13738422 -0.00829132
v 0.00068887 -0.13731893 -0.00828790
v 0.00119604 -0.13712685 -0.00827783
v 0.00164244 -0.13681914 -0.00826171
v 0.00200213 -0.13641370 -0.00824046
v 0.00225420 -0.13593407 -0.00821532
v 0.00238401 -0.13540814 -0.00818776
v 0.00238401 -0.13486646 -0.00815937
v 0.00225420 -0.13434054 -0.00813181
v 0.00200213 -0.13386091 -0.00810667
v 0.00164244 -0.13345546 -0.00808543
v 0.00119604 -0.13314776 -0.00806930
v 0.00068887 -0.13295567 -0.00805923
v 0.00015041 -0.13696553 -0.01628036
v 0.00068887 -0.13253699 -0.01604827
v 0.00119604 -0.13272907 -0.01605834
v 0.00164244 -0.13303677 -0.01607446
v 0.00200213 -0.13344222 -0.01609571
v 0.00225420 -0.13392185 -0.01612085
v 0.00238401 -0.13444778 -0.01614841
v 0.00238401 -0.13498945 -0.01617680
v 0.00225420 -0.13551538 -0.01620436
v 0.00200213 -0.13599501 -0.01622950
v 0.00164244 -0.13640046 -0.01625074
v 0.00119604 -0.13670816 -0.01626687
v 0.00068887 -0.13690024 -0.01627694
v -0.00788815 -0.13028384 -0.01593019
v -0.00788815 -0.13028384 -0.01593019
v -0.00733645 -0.12917695 -0.01587218
v -0.00659159 -0.12818931 -0.01582042
v -0.00567861 -0.12735416 -0.01577665
v -0.00409492 -0.12540064 -0.01567427
v -0.00414616 -0.12584985 -0.01569781
v -0.00429726 -0.12627603 -0.01572015
v -0.00454047 -0.12665737 -0.01574013
v -0.00454047 -0.12665737 -0.01574013
v -0.00486334 -0.12697430 -0.01575674
v -0.00486334 -0.12697430 -0.01575674
v -0.00524931 -0.12721060 -0.01576912
v -0.00409492 -0.12523163 -0.01566541
v 0.00440508 -0.12523163 -0.01566541
v 0.00440508 -0.13496827 -0.01617569
v 0.00440508 -0.13496827 -0.01617569
v 0.00380508 -0.13676580 -0.01626989
v 0.00413322 -0.13621445 -0.01624100
v 0.00433633 -0.13560597 -0.01620911
v 0.00301826 -0.13764219 -0.01631582
v 0.00209077 -0.13836853 -0.01635389
v 0.00105091 -0.13892268 -0.01638293
v -0.00014307 -0.13916237 -0.01639549
v 0.00026462 -0.13913705 -0.01639416
v 0.00066509 -0.13905666 -0.01638995
v -0.00808890 -0.13148340 -0.01599305
v -0.00808890 -0.13148340 -0.01599305
v -0.00783258 -0.13320259 -0.01608315
v -0.00721001 -0.13482572 -0.01616822
v -0.00625065 -0.13627598 -0.01624422
v -0.00499991 -0.13748472 -0.01630757
v -0.00351699 -0.13839472 -0.01635526
v -0.00187209 -0.13896290 -0.01638504
v -0.00800959 -0.13067332 -0.01595060
v -0.00807692 -0.13107565 -0.01597168
v -0.00807692 -0.13107565 -0.01597168
v 0.00015041 -0.13247170 -0.01604485
v 0.00068887 -0.13253699 -0.01604827
v 0.00119604 -0.13272907 -0.01605834
v 0.00164244 -0.13303677 -0.01607446
v 0.00200213 -0.13344222 -0.01609571
v 0.00200213 -0.13344222 -0.01609571
v 0.00225420 -0.13392185 -0.01612085
v 0.00225420 -0.13392185 -0.01612085
v 0.00238401 -0.13444778 -0.01614841
v 0.00238401 -0.13498945 -0.01617680
v 0.00225420 -0.13551538 -0.01620436
v 0.00200213 -0.13599501 -0.01622950
v 0.00164244 -0.13640046 -0.01625074
v 0.00119604 -0.13670816 -0.01626687
v 0.00068887 -0.13690024 -0.01627694
v 0.00015041 -0.13696553 -0.01628036
v -0.00038805 -0.13690024 -0.01627694
v -0.00089522 -0.13670816 -0.01626687
v -0.00134161 -0.13640046 -0.01625074
v -0.00170130 -0.13599501 -0.01622950
v -0.00195337 -0.13551538 -0.01620436
v -0.00208318 -0.13498945 -0.01617680
v -0.00208318 -0.13444778 -0.01614841
v -0.00195337 -0.13392185 -0.01612085
v -0.00170130 -0.13344222 -0.01609571
v -0.00134161 -0.13303677 -0.01607446
v -0.00089522 -0.13272907 -0.01605834
v -0.00089522 -0.13272907 -0.01605834
v -0.00038805 -0.13253699 -0.01604827
v 0.00015041 -0.13289038 -0.00805581
v -0.00038805 -0.13295567 -0.00805923
v -0.00089522 -0.13314776 -0.00806930
v -0.00134161 -0.13345546 -0.00808543
v -0.00170130 -0.13386091 -0.00810667
v -0.00195337 -0.13434054 -0.00813181
v -0.00208318 -0.13486646 -0.00815937
v -0.00208318 -0.13540814 -0.00818776
v -0.00195337 -0.13593407 -0.00821532
v -0.00170130 -0.13641370 -0.00824046
v -0.00134161 -0.13681914 -0.00826171
v -0.00089522 -0.13712685 -0.00827783
v -0.00038805 -0.13731893 -0.00828790
v 0.00015041 -0.13738422 -0.00829132
v 0.00015041 -0.13247170 -0.01604485
v 0.00015041 -0.13696553 -0.01628036
v -0.00038805 -0.13690024 -0.01627694
v -0.00089522 -0.13670816 -0.01626687
v -0.00134161 -0.13640046 -0.01625074
v -0.00170130 -0.13599501 -0.01622950
v -0.00195337 -0.13551538 -0.01620436
v -0.00208318 -0.13498945 -0.01617680
v -0.00208318 -0.13444778 -0.01614841
v -0.00195337 -0.13392185 -0.01612085
v -0.00170130 -0.13344222 -0.01609571
v -0.00134161 -0.13303677 -0.01607446
v -0.00089522 -0.13272907 -0.01605834
v -0.00038805 -0.13253699 -0.01604827
v 0.00440508 -0.12429892 -0.00480171
v 0.00440508 -0.12423088 -0.00609993
v -0.00409492 -0.12423088 -0.00609993
v -0.00409492 -0.12434078 -0.00400281
v -0.00109492 -0.12434078 -0.00400281
v -0.00109492 -0.12429892 -0.00480171
v -0.00409492 -0.12365519 -0.01708485
v 0.00440508 -0.12365519 -0.01708485
v -0.00409492 -0.12354528 -0.01918197
v -0.00109492 -0.12354528 -0.01918197
v -0.00109492 -0.12358715 -0.01838307
v 0.00440508 -0.12358715 -0.01838307
v 0.00440508 -0.12423088 -0.00609993
v 0.00440508 -0.12425097 -0.00643522
v 0.00440508 -0.12434516 -0.00675764
v 0.00440508 -0.12450874 -0.00705101
v 0.00440508 -0.12473350 -0.00730063
v 0.00440508 -0.12500816 -0.00749397
v 0.00440508 -0.12531896 -0.00762135
v 0.00440508 -0.12565032 -0.00767638
v -0.00409492 -0.12565032 -0.00767638
v -0.00409492 -0.12531896 -0.00762135
v -0.00409492 -0.12500816 -0.00749397
v -0.00409492 -0.12473350 -0.00730063
v -0.00409492 -0.12450874 -0.00705101
v -0.00409492 -0.12434516 -0.00675764
v -0.00409492 -0.12425097 -0.00643522
v -0.00409492 -0.12423088 -0.00609993
v 0.00440508 -0.12523163 -0.01566541
v 0.00440508 -0.12489634 -0.01568550
v 0.00440508 -0.12457393 -0.01577969
v 0.00440508 -0.12428055 -0.01594327
v 0.00440508 -0.12403094 -0.01616803
v 0.00440508 -0.12383759 -0.01644269
v 0.00440508 -0.12371021 -0.01675350
v 0.00440508 -0.12365519 -0.01708485
v -0.00409492 -0.12365519 -0.01708485
v -0.00409492 -0.12371021 -0.01675350
v -0.00409492 -0.12383759 -0.01644269
v -0.00409492 -0.12403094 -0.01616803
v -0.00409492 -0.12428055 -0.01594327
v -0.00409492 -0.12457393 -0.01577969
v -0.00409492 -0.12489634 -0.01568550
v -0.00409492 -0.12523163 -0.01566541
v -0.00567861 -0.12777284 -0.00778761
v -0.00567861 -0.12735416 -0.01577665
v -0.00409492 -0.12540064 -0.01567427
v -0.00414616 -0.12584985 -0.01569781
v -0.00429726 -0.12627603 -0.01572015
v -0.00454047 -0.12665737 -0.01574013
v -0.00486334 -0.12697430 -0.01575674
v -0.00524931 -0.12721060 -0.01576912
v -0.00409492 -0.12581933 -0.00768523
v -0.00524931 -0.12762929 -0.00778009
v -0.00486334 -0.12739299 -0.00776771
v -0.00454047 -0.12707606 -0.00775110
v -0.00429726 -0.12669473 -0.00773111
v -0.00414616 -0.12626854 -0.00770878
v -0.00014307 -0.13958106 -0.00840646
v -0.00187209 -0.13938158 -0.00839600
v -0.00351699 -0.13881340 -0.00836622
v -0.00499991 -0.13790340 -0.00831853
v -0.00625065 -0.13669467 -0.00825519
v -0.00721001 -0.13524441 -0.00817918
v -0.00783258 -0.13362127 -0.00809412
v -0.00808890 -0.13190209 -0.00800402
v -0.00808890 -0.13148340 -0.01599305
v -0.00783258 -0.13320259 -0.01608315
v -0.00721001 -0.13482572 -0.01616822
v -0.00625065 -0.13627598 -0.01624422
v -0.00499991 -0.13748472 -0.01630757
v -0.00351699 -0.13839472 -0.01635526
v -0.00187209 -0.13896290 -0.01638504
v -0.00014307 -0.13916237 -0.01639549
v 0.00380508 -0.13718449 -0.00828085
v 0.00380508 -0.13676580 -0.01626989
v 0.00105091 -0.13934137 -0.00839389
v 0.00209077 -0.13878721 -0.00836485
v 0.00301826 -0.13806088 -0.00832678
v 0.00105091 -0.13892268 -0.01638293
v 0.00301826 -0.13764219 -0.01631582
v 0.00209077 -0.13836853 -0.01635389
v -0.00567861 -0.12777284 -0.00778761
v -0.00567861 -0.12735416 -0.01577665
v -0.00788815 -0.13028384 -0.01593019
v -0.00733645 -0.12917695 -0.01587218
v -0.00659159 -0.12818931 -0.01582042
v -0.00788815 -0.13070253 -0.00794115
v -0.00659159 -0.12860800 -0.00783138
v -0.00733645 -0.12959564 -0.00788314
v -0.00788815 -0.13028384 -0.01593019
v -0.00800959 -0.13067332 -0.01595060
v -0.00807692 -0.13107565 -0.01597168
v -0.00808890 -0.13148340 -0.01599305
v -0.00808890 -0.13190209 -0.00800402
v -0.00807692 -0.13149434 -0.00798265
v -0.00800959 -0.13109200 -0.00796156
v -0.00788815 -0.13070253 -0.00794115
v 0.00105091 -0.13892268 -0.01638293
v 0.00105091 -0.13934137 -0.00839389
v 0.00066509 -0.13947534 -0.00840091
v 0.00026462 -0.13955574 -0.00840513
v -0.00014307 -0.13958106 -0.00840646
v -0.00014307 -0.13916237 -0.01639549
v 0.00026462 -0.13913705 -0.01639416
v 0.00066509 -0.13905666 -0.01638995
v 0.00440508 -0.13496827 -0.01617569
v 0.00440508 -0.13538696 -0.00818665
v 0.00433633 -0.13602467 -0.00822007
v 0.00413322 -0.13663314 -0.00825196
v 0.00380508 -0.13718449 -0.00828085
v 0.00380508 -0.13676580 -0.01626989
v 0.00413322 -0.13621445 -0.01624100
v 0.00433633 -0.13560597 -0.01620911
v -0.00109492 -0.12118734 -0.03770060
v -0.00409492 -0.12118734 -0.03770060
v -0.00409492 -0.12168460 -0.03775287
v -0.00109492 -0.12168460 -0.03775287
v -0.00409492 -0.12277617 -0.02258387
v -0.00109492 -0.12277617 -0.02258387
v -0.00409492 -0.12327344 -0.02263613
v -0.00109492 -0.12327344 -0.02263613
v -0.00409492 -0.12277617 -0.02258387
v -0.00409492 -0.12118734 -0.03770060
v -0.00409492 -0.12327344 -0.02263613
v -0.00409492 -0.12305392 -0.02472463
v -0.00409492 -0.12438891 -0.02637321
v -0.00409492 -0.12406089 -0.02630091
v -0.00409492 -0.12375718 -0.02615744
v -0.00409492 -0.12349301 -0.02594999
v -0.00409492 -0.12328162 -0.02568895
v -0.00409492 -0.12313363 -0.02538742
v -0.00409492 -0.12305644 -0.02506052
v -0.00409492 -0.12455723 -0.02639090
v -0.00409492 -0.12372100 -0.03434707
v -0.00409492 -0.12355268 -0.03432938
v -0.00409492 -0.12190411 -0.03566437
v -0.00409492 -0.12197640 -0.03533635
v -0.00409492 -0.12211987 -0.03503264
v -0.00409492 -0.12232733 -0.03476847
v -0.00409492 -0.12258837 -0.03455708
v -0.00409492 -0.12288989 -0.03440909
v -0.00409492 -0.12321680 -0.03433189
v -0.00409492 -0.12168460 -0.03775287
v 0.00440508 -0.13324927 -0.03534853
v 0.00440508 -0.13408550 -0.02739236
v 0.00433633 -0.13472058 -0.02745911
v 0.00413322 -0.13532655 -0.02752280
v 0.00380508 -0.13587564 -0.02758051
v 0.00380508 -0.13503942 -0.03553669
v 0.00413322 -0.13449032 -0.03547897
v 0.00433633 -0.13388435 -0.03541528
v 0.00380508 -0.13587564 -0.02758051
v 0.00380508 -0.13503942 -0.03553669
v 0.00105091 -0.13802365 -0.02780627
v 0.00209077 -0.13747177 -0.02774827
v 0.00301826 -0.13674841 -0.02767224
v 0.00105091 -0.13718742 -0.03576245
v 0.00301826 -0.13591219 -0.03562842
v 0.00209077 -0.13663555 -0.03570445
v 0.00105091 -0.13718742 -0.03576245
v 0.00105091 -0.13802365 -0.02780627
v 0.00066509 -0.13815707 -0.02782030
v 0.00026462 -0.13823713 -0.02782871
v -0.00014307 -0.13826235 -0.02783136
v -0.00014307 -0.13742612 -0.03578754
v 0.00026462 -0.13740091 -0.03578489
v 0.00066509 -0.13732084 -0.03577647
v -0.00014307 -0.13826235 -0.02783136
v -0.00187209 -0.13806370 -0.02781048
v -0.00351699 -0.13749785 -0.02775101
v -0.00499991 -0.13659159 -0.02765576
v -0.00625065 -0.13538783 -0.02752924
v -0.00721001 -0.13394354 -0.02737744
v -0.00783258 -0.13232708 -0.02720754
v -0.00808890 -0.13061496 -0.02702759
v -0.00808890 -0.12977873 -0.03498377
v -0.00783258 -0.13149085 -0.03516372
v -0.00721001 -0.13310731 -0.03533361
v -0.00625065 -0.13455160 -0.03548541
v -0.00499991 -0.13575537 -0.03561193
v -0.00351699 -0.13666162 -0.03570719
v -0.00187209 -0.13722746 -0.03576666
v -0.00014307 -0.13742612 -0.03578754
v -0.00788815 -0.12858411 -0.03485821
v -0.00800959 -0.12897198 -0.03489897
v -0.00807692 -0.12937267 -0.03494109
v -0.00808890 -0.12977873 -0.03498377
v -0.00808890 -0.13061496 -0.02702759
v -0.00807692 -0.13020889 -0.02698491
v -0.00800959 -0.12980821 -0.02694280
v -0.00788815 -0.12942034 -0.02690203
v -0.00567861 -0.12650270 -0.02659537
v -0.00567861 -0.12566647 -0.03455155
v -0.00788815 -0.12858411 -0.03485821
v -0.00733645 -0.12748177 -0.03474235
v -0.00659159 -0.12649820 -0.03463897
v -0.00788815 -0.12942034 -0.02690203
v -0.00659159 -0.12733443 -0.02668279
v -0.00733645 -0.12831800 -0.02678617
v -0.00409492 -0.12190411 -0.03566437
v 0.00440508 -0.12190411 -0.03566437
v -0.00409492 -0.12168460 -0.03775287
v -0.00109492 -0.12168460 -0.03775287
v -0.00109492 -0.12176822 -0.03695725
v 0.00440508 -0.12176822 -0.03695725
v 0.00440508 -0.12355268 -0.03432938
v 0.00440508 -0.12321680 -0.03433189
v 0.00440508 -0.12288989 -0.03440909
v 0.00440508 -0.12258837 -0.03455708
v 0.00440508 -0.12232733 -0.03476847
v 0.00440508 -0.12211987 -0.03503264
v 0.00440508 -0.12197640 -0.03533635
v 0.00440508 -0.12190411 -0.03566437
v -0.00409492 -0.12190411 -0.03566437
v -0.00409492 -0.12197640 -0.03533635
v -0.00409492 -0.12211987 -0.03503264
v -0.00409492 -0.12232733 -0.03476847
v -0.00409492 -0.12258837 -0.03455708
v -0.00409492 -0.12288989 -0.03440909
v -0.00409492 -0.12321680 -0.03433189
v -0.00409492 -0.12355268 -0.03432938
v -0.00788815 -0.12858411 -0.03485821
v -0.00788815 -0.12858411 -0.03485821
v -0.00733645 -0.12748177 -0.03474235
v -0.00659159 -0.12649820 -0.03463897
v -0.00567861 -0.12566647 -0.03455155
v -0.00409492 -0.12372100 -0.03434707
v -0.00414616 -0.12416836 -0.03439409
v -0.00429726 -0.12459279 -0.03443870
v -0.00454047 -0.12497256 -0.03447862
v -0.00486334 -0.12528818 -0.03451179
v -0.00524931 -0.12552351 -0.03453652
v -0.00409492 -0.12355268 -0.03432938
v 0.00440508 -0.12355268 -0.03432938
v 0.00440508 -0.13324927 -0.03534853
v 0.00380508 -0.13503942 -0.03553669
v 0.00413322 -0.13449032 -0.03547897
v 0.00433633 -0.13388435 -0.03541528
v 0.00301826 -0.13591219 -0.03562842
v 0.00209077 -0.13663555 -0.03570445
v 0.00105091 -0.13718742 -0.03576245
v -0.00014307 -0.13742612 -0.03578754
v 0.00026462 -0.13740091 -0.03578489
v 0.00066509 -0.13732084 -0.03577647
v -0.00808890 -0.12977873 -0.03498377
v -0.00783258 -0.13149085 -0.03516372
v -0.00721001 -0.13310731 -0.03533361
v -0.00625065 -0.13455160 -0.03548541
v -0.00499991 -0.13575537 -0.03561193
v -0.00351699 -0.13666162 -0.03570719
v -0.00187209 -0.13722746 -0.03576666
v -0.00800959 -0.12897198 -0.03489897
v -0.00807692 -0.12937267 -0.03494109
v -0.00807692 -0.12937267 -0.03494109
v 0.00015041 -0.13076297 -0.03508721
v 0.00068887 -0.13082799 -0.03509405
v 0.00119604 -0.13101928 -0.03511415
v 0.00164244 -0.13132572 -0.03514636
v 0.00200213 -0.13172950 -0.03518880
v 0.00225420 -0.13220715 -0.03523900
v 0.00238401 -0.13273092 -0.03529405
v 0.00238401 -0.13327036 -0.03535075
v 0.00225420 -0.13379413 -0.03540580
v 0.00200213 -0.13427179 -0.03545601
v 0.00164244 -0.13467557 -0.03549844
v 0.00119604 -0.13498201 -0.03553065
v 0.00068887 -0.13517329 -0.03555076
v 0.00015041 -0.13523832 -0.03555759
v -0.00038805 -0.13517329 -0.03555076
v -0.00089522 -0.13498201 -0.03553065
v -0.00134161 -0.13467557 -0.03549844
v -0.00170130 -0.13427179 -0.03545601
v -0.00195337 -0.13379413 -0.03540580
v -0.00208318 -0.13327036 -0.03535075
v -0.00208318 -0.13273092 -0.03529405
v -0.00195337 -0.13220715 -0.03523900
v -0.00170130 -0.13172950 -0.03518880
v -0.00134161 -0.13132572 -0.03514636
v -0.00089522 -0.13101928 -0.03511415
v -0.00038805 -0.13082799 -0.03509405
v 0.00015041 -0.13076297 -0.03508721
v 0.00015041 -0.13159920 -0.02713104
v 0.00015041 -0.13607455 -0.02760142
v 0.00068887 -0.13600953 -0.02759458
v 0.00119604 -0.13581823 -0.02757448
v 0.00164244 -0.13551180 -0.02754227
v 0.00200213 -0.13510801 -0.02749983
v 0.00225420 -0.13463036 -0.02744963
v 0.00238401 -0.13410660 -0.02739458
v 0.00238401 -0.13356715 -0.02733788
v 0.00225420 -0.13304338 -0.02728283
v 0.00200213 -0.13256573 -0.02723262
v 0.00164244 -0.13216195 -0.02719019
v 0.00119604 -0.13185551 -0.02715798
v 0.00068887 -0.13166422 -0.02713787
v 0.00015041 -0.13523832 -0.03555759
v 0.00068887 -0.13082799 -0.03509405
v 0.00119604 -0.13101928 -0.03511415
v 0.00164244 -0.13132572 -0.03514636
v 0.00200213 -0.13172950 -0.03518880
v 0.00225420 -0.13220715 -0.03523900
v 0.00238401 -0.13273092 -0.03529405
v 0.00238401 -0.13327036 -0.03535075
v 0.00225420 -0.13379413 -0.03540580
v 0.00200213 -0.13427179 -0.03545601
v 0.00164244 -0.13467557 -0.03549844
v 0.00119604 -0.13498201 -0.03553065
v 0.00068887 -0.13517329 -0.03555076
v 0.00015041 -0.13159920 -0.02713104
v -0.00038805 -0.13166422 -0.02713787
v -0.00089522 -0.13185551 -0.02715798
v -0.00134161 -0.13216195 -0.02719019
v -0.00170130 -0.13256573 -0.02723262
v -0.00195337 -0.13304338 -0.02728283
v -0.00208318 -0.13356715 -0.02733788
v -0.00208318 -0.13410660 -0.02739458
v -0.00195337 -0.13463036 -0.02744963
v -0.00170130 -0.13510801 -0.02749983
v -0.00134161 -0.13551180 -0.02754227
v -0.00089522 -0.13581823 -0.02757448
v -0.00038805 -0.13600953 -0.02759458
v 0.00015041 -0.13607455 -0.02760142
v 0.00015041 -0.13076297 -0.03508721
v 0.00015041 -0.13523832 -0.03555759
v -0.00038805 -0.13517329 -0.03555076
v -0.00089522 -0.13498201 -0.03553065
v -0.00134161 -0.13467557 -0.03549844
v -0.00170130 -0.13427179 -0.03545601
v -0.00195337 -0.13379413 -0.03540580
v -0.00208318 -0.13327036 -0.03535075
v -0.00208318 -0.13273092 -0.03529405
v -0.00195337 -0.13220715 -0.03523900
v -0.00170130 -0.13172950 -0.03518880
v -0.00134161 -0.13132572 -0.03514636
v -0.00089522 -0.13101928 -0.03511415
v -0.00038805 -0.13082799 -0.03509405
v -0.00567861 -0.12650270 -0.02659537
v -0.00567861 -0.12566647 -0.03455155
v -0.00409492 -0.12372100 -0.03434707
v -0.00414616 -0.12416836 -0.03439409
v -0.00429726 -0.12459279 -0.03443870
v -0.00454047 -0.12497256 -0.03447862
v -0.00486334 -0.12528818 -0.03451179
v -0.00524931 -0.12552351 -0.03453652
v -0.00409492 -0.12455723 -0.02639090
v -0.00524931 -0.12635974 -0.02658035
v -0.00486334 -0.12612442 -0.02655561
v -0.00454047 -0.12580878 -0.02652244
v -0.00429726 -0.12542902 -0.02648253
v -0.00414616 -0.12500459 -0.02643792
v -0.00014307 -0.13826235 -0.02783136
v -0.00187209 -0.13806370 -0.02781048
v -0.00351699 -0.13749785 -0.02775101
v -0.00499991 -0.13659159 -0.02765576
v -0.00625065 -0.13538783 -0.02752924
v -0.00721001 -0.13394354 -0.02737744
v -0.00783258 -0.13232708 -0.02720754
v -0.00808890 -0.13061496 -0.02702759
v 0.00105091 -0.13802365 -0.02780627
v 0.00066509 -0.13815707 -0.02782030
v 0.00026462 -0.13823713 -0.02782871
v 0.00209077 -0.13747177 -0.02774827
v 0.00301826 -0.13674841 -0.02767224
v 0.00380508 -0.13587564 -0.02758051
v 0.00440508 -0.13408550 -0.02739236
v 0.00433633 -0.13472058 -0.02745911
v 0.00413322 -0.13532655 -0.02752280
v 0.00440508 -0.12438891 -0.02637321
v -0.00409492 -0.12438891 -0.02637321
v -0.00409492 -0.12455723 -0.02639090
v -0.00567861 -0.12650270 -0.02659537
v -0.00524931 -0.12635974 -0.02658035
v -0.00486334 -0.12612442 -0.02655561
v -0.00454047 -0.12580878 -0.02652244
v -0.00429726 -0.12542902 -0.02648253
v -0.00414616 -0.12500459 -0.02643792
v -0.00659159 -0.12733443 -0.02668279
v -0.00733645 -0.12831800 -0.02678617
v -0.00788815 -0.12942034 -0.02690203
v -0.00807692 -0.13020889 -0.02698491
v -0.00800959 -0.12980821 -0.02694280
v 0.00015041 -0.13159920 -0.02713104
v -0.00038805 -0.13166422 -0.02713787
v -0.00089522 -0.13185551 -0.02715798
v -0.00134161 -0.13216195 -0.02719019
v -0.00170130 -0.13256573 -0.02723262
v -0.00195337 -0.13304338 -0.02728283
v -0.00208318 -0.13356715 -0.02733788
v -0.00208318 -0.13410660 -0.02739458
v -0.00195337 -0.13463036 -0.02744963
v -0.00170130 -0.13510801 -0.02749983
v -0.00134161 -0.13551180 -0.02754227
v -0.00089522 -0.13581823 -0.02757448
v -0.00038805 -0.13600953 -0.02759458
v 0.00015041 -0.13607455 -0.02760142
v 0.00068887 -0.13600953 -0.02759458
v 0.00119604 -0.13581823 -0.02757448
v 0.00164244 -0.13551180 -0.02754227
v 0.00200213 -0.13510801 -0.02749983
v 0.00225420 -0.13463036 -0.02744963
v 0.00238401 -0.13410660 -0.02739458
v 0.00238401 -0.13356715 -0.02733788
v 0.00225420 -0.13304338 -0.02728283
v 0.00200213 -0.13256573 -0.02723262
v 0.00164244 -0.13216195 -0.02719019
v 0.00119604 -0.13185551 -0.02715798
v 0.00068887 -0.13166422 -0.02713787
v 0.00440508 -0.12305392 -0.02472463
v 0.00440508 -0.12305644 -0.02506052
v 0.00440508 -0.12313363 -0.02538742
v 0.00440508 -0.12328162 -0.02568895
v 0.00440508 -0.12349301 -0.02594999
v 0.00440508 -0.12375718 -0.02615744
v 0.00440508 -0.12406089 -0.02630091
v 0.00440508 -0.12438891 -0.02637321
v -0.00409492 -0.12438891 -0.02637321
v -0.00409492 -0.12406089 -0.02630091
v -0.00409492 -0.12375718 -0.02615744
v -0.00409492 -0.12349301 -0.02594999
v -0.00409492 -0.12328162 -0.02568895
v -0.00409492 -0.12313363 -0.02538742
v -0.00409492 -0.12305644 -0.02506052
v -0.00409492 -0.12305392 -0.02472463
v 0.00440508 -0.12318981 -0.02343175
v 0.00440508 -0.12305392 -0.02472463
v -0.00409492 -0.12305392 -0.02472463
v -0.00409492 -0.12327344 -0.02263613
v -0.00109492 -0.12327344 -0.02263613
v -0.00109492 -0.12318981 -0.02343175
v 0.00681320 -0.12832310 0.03612362
v 0.00687162 -0.12834147 0.03598322
v 0.00689281 -0.12833680 0.03588445
v 0.00689590 -0.12831766 0.03579307
v 0.00688481 -0.12828828 0.03571207
v 0.00686142 -0.12824979 0.03563911
v 0.00682719 -0.12820419 0.03557700
v 0.00678350 -0.12815284 0.03552611
v 0.00673202 -0.12809749 0.03548727
v 0.00664637 -0.12801261 0.03545135
v 0.00655558 -0.12792769 0.03543142
v -0.00821242 -0.12766991 0.03543143
v -0.00817944 -0.12780290 0.03546961
v -0.00815164 -0.12788003 0.03551605
v -0.00811549 -0.12795195 0.03558711
v -0.00807661 -0.12800724 0.03567079
v -0.00803632 -0.12804737 0.03576189
v -0.00799515 -0.12807285 0.03585802
v -0.00795405 -0.12808256 0.03595647
v -0.00791979 -0.12807840 0.03604010
v -0.00788556 -0.12806653 0.03612362
v 0.00679688 -0.12832244 0.03581717
v 0.00677084 -0.12831182 0.03578043
v 0.00672761 -0.12829252 0.03572837
v 0.00668188 -0.12826939 0.03567953
v -0.00066751 -0.12814111 0.03567953
v -0.00068406 -0.12811520 0.03563448
v -0.00070068 -0.12808787 0.03559555
v -0.00808468 -0.12795899 0.03559555
v -0.00810474 -0.12792607 0.03555728
v -0.00812496 -0.12789239 0.03552573
f 2 3 1
f 2 4 3
f 5 6 7
f 5 7 8
f 47 55 54
f 47 9 55
f 48 9 47
f 49 10 9
f 49 9 48
f 50 11 10
f 50 10 49
f 51 12 11
f 51 11 50
f 52 13 12
f 52 14 13
f 52 12 51
f 15 14 52
f 16 15 52
f 17 16 52
f 18 17 52
f 19 52 53
f 19 18 52
f 20 53 46
f 20 19 53
f 40 30 29
f 41 31 30
f 41 30 40
f 39 23 22
f 39 24 23
f 39 25 24
f 39 26 25
f 39 27 26
f 39 28 27
f 39 29 28
f 39 40 29
f 42 31 41
f 42 32 31
f 38 39 22
f 38 22 21
f 43 33 32
f 43 32 42
f 36 33 43
f 37 38 21
f 34 33 36
f 35 34 36
f 45 21 20
f 45 20 46
f 44 37 21
f 44 21 45
f 57 58 56
f 57 59 58
f 60 61 62
f 60 62 63
f 77 85 84
f 77 86 85
f 77 87 86
f 78 88 87
f 78 87 77
f 79 88 78
f 80 89 88
f 80 88 79
f 81 90 89
f 81 89 80
f 82 91 90
f 82 92 91
f 82 90 81
f 93 92 82
f 94 93 82
f 95 94 82
f 96 95 82
f 97 82 83
f 97 96 82
f 98 83 76
f 98 97 83
f 71 109 108
f 70 71 108
f 70 108 107
f 72 109 71
f 69 70 107
f 69 101 100
f 69 102 101
f 69 103 102
f 69 104 103
f 69 105 104
f 69 106 105
f 69 107 106
f 73 109 72
f 73 110 109
f 68 69 100
f 68 100 99
f 67 68 99
f 66 110 73
f 66 111 110
f 66 65 111
f 64 65 66
f 75 98 76
f 74 99 98
f 74 67 99
f 74 98 75
f 112 115 114
f 113 115 112
f 116 117 118
f 116 118 119
f 133 141 140
f 133 142 141
f 134 143 142
f 134 142 133
f 135 144 143
f 135 143 134
f 136 145 144
f 136 144 135
f 137 146 145
f 137 145 136
f 138 147 146
f 138 148 147
f 138 146 137
f 149 148 138
f 150 149 138
f 151 150 138
f 152 151 138
f 153 138 139
f 153 152 138
f 154 139 132
f 154 153 139
f 127 165 164
f 126 127 164
f 126 164 163
f 128 165 127
f 128 166 165
f 125 126 163
f 125 157 156
f 125 158 157
f 125 159 158
f 125 160 159
f 125 161 160
f 125 162 161
f 125 163 162
f 124 156 155
f 124 125 156
f 129 166 128
f 129 167 166
f 122 167 129
f 123 124 155
f 121 167 122
f 120 121 122
f 131 154 132
f 130 123 155
f 130 155 154
f 130 154 131
f 168 171 170
f 169 171 168
f 185 193 192
f 185 194 193
f 185 195 194
f 186 196 195
f 186 195 185
f 187 196 186
f 188 197 196
f 188 196 187
f 189 198 197
f 189 197 188
f 190 199 198
f 190 200 199
f 190 198 189
f 201 200 190
f 202 201 190
f 203 202 190
f 204 203 190
f 205 190 191
f 205 204 190
f 206 191 184
f 206 205 191
f 179 217 216
f 178 179 216
f 178 216 215
f 177 178 215
f 177 209 208
f 177 210 209
f 177 211 210
f 177 212 211
f 177 213 212
f 177 214 213
f 177 215 214
f 180 217 179
f 176 208 207
f 176 177 208
f 181 217 180
f 181 218 217
f 175 176 207
f 174 218 181
f 174 219 218
f 173 219 174
f 172 173 174
f 183 206 184
f 182 207 206
f 182 175 207
f 182 206 183
f 221 222 223
f 220 221 223
f 226 227 225
f 224 226 225
f 242 228 249
f 243 228 242
f 235 246 247
f 236 245 246
f 236 246 235
f 234 235 247
f 237 243 244
f 237 244 245
f 237 245 236
f 233 247 248
f 233 248 241
f 233 234 247
f 238 243 237
f 232 241 240
f 232 233 241
f 239 232 240
f 229 238 231
f 229 228 243
f 229 243 238
f 230 229 231
f 252 250 253
f 251 250 252
f 301 265 266
f 302 266 267
f 302 301 266
f 300 265 301
f 303 270 269
f 303 267 270
f 303 302 267
f 299 262 265
f 299 265 300
f 304 269 268
f 304 303 269
f 298 263 262
f 298 264 263
f 298 254 264
f 298 262 299
f 305 304 268
f 297 255 254
f 297 254 298
f 306 305 268
f 296 255 297
f 307 306 268
f 295 255 296
f 256 255 295
f 294 256 295
f 293 256 294
f 257 256 293
f 257 293 292
f 258 257 292
f 258 292 291
f 271 308 307
f 271 309 308
f 271 310 309
f 271 285 310
f 271 307 268
f 259 291 290
f 259 258 291
f 260 290 289
f 260 259 290
f 261 260 289
f 284 283 261
f 282 261 289
f 282 284 261
f 277 287 286
f 276 288 287
f 276 287 277
f 278 277 286
f 278 285 271
f 278 286 285
f 275 288 276
f 281 282 289
f 281 289 288
f 279 278 271
f 280 281 288
f 280 275 274
f 280 288 275
f 273 279 271
f 272 273 271
f 314 326 313
f 314 338 326
f 315 337 338
f 315 338 314
f 316 336 337
f 316 337 315
f 317 335 336
f 317 336 316
f 318 334 335
f 318 335 317
f 319 333 334
f 319 334 318
f 320 332 333
f 320 333 319
f 321 331 332
f 321 332 320
f 322 330 331
f 322 331 321
f 323 329 330
f 323 330 322
f 324 328 329
f 324 329 323
f 325 327 328
f 325 328 324
f 312 311 327
f 312 327 325
f 370 363 371
f 339 363 370
f 388 369 368
f 389 388 368
f 387 369 388
f 390 368 367
f 390 389 368
f 386 360 369
f 386 369 387
f 391 367 366
f 391 390 367
f 385 361 360
f 385 362 361
f 385 359 362
f 385 360 386
f 392 366 365
f 392 391 366
f 384 358 359
f 384 359 385
f 393 365 364
f 393 392 365
f 383 358 384
f 394 339 340
f 394 364 363
f 394 363 339
f 394 393 364
f 382 358 383
f 357 358 382
f 395 340 341
f 395 394 340
f 381 357 382
f 354 381 380
f 354 357 381
f 350 342 343
f 349 395 341
f 355 354 380
f 348 395 349
f 348 396 395
f 356 380 379
f 356 355 380
f 347 396 348
f 347 397 396
f 353 377 376
f 353 378 377
f 353 379 378
f 353 356 379
f 346 372 397
f 346 397 347
f 352 345 344
f 352 346 345
f 352 344 351
f 352 373 372
f 352 374 373
f 352 375 374
f 352 376 375
f 352 372 346
f 352 353 376
f 399 412 398
f 399 425 412
f 400 424 425
f 400 425 399
f 401 423 424
f 401 424 400
f 402 422 423
f 402 423 401
f 403 421 422
f 403 422 402
f 404 420 421
f 404 421 403
f 405 419 420
f 405 420 404
f 406 418 419
f 406 419 405
f 407 417 418
f 407 418 406
f 408 415 416
f 408 416 417
f 408 417 407
f 409 415 408
f 410 414 415
f 410 415 409
f 411 413 414
f 411 414 410
f 431 429 428
f 431 430 429
f 427 426 431
f 427 431 428
f 436 437 433
f 432 436 433
f 434 435 436
f 434 436 432
f 445 447 446
f 444 448 447
f 444 447 445
f 443 449 448
f 443 448 444
f 442 450 449
f 442 449 443
f 441 451 450
f 441 450 442
f 440 452 451
f 440 451 441
f 439 453 452
f 439 452 440
f 438 453 439
f 469 455 454
f 468 456 455
f 468 455 469
f 467 457 456
f 467 456 468
f 466 458 457
f 466 457 467
f 465 459 458
f 465 458 466
f 464 459 465
f 463 460 459
f 463 459 464
f 462 461 460
f 462 460 463
f 470 477 471
f 479 476 477
f 479 477 470
f 480 475 476
f 480 476 479
f 481 474 475
f 481 475 480
f 482 473 474
f 482 474 481
f 483 472 473
f 483 473 482
f 478 472 483
f 499 484 485
f 498 485 486
f 498 499 485
f 497 486 487
f 497 498 486
f 496 487 488
f 496 497 487
f 495 488 489
f 495 496 488
f 494 489 490
f 494 495 489
f 493 490 491
f 493 494 490
f 492 493 491
f 503 502 505
f 503 505 507
f 504 507 506
f 504 503 507
f 500 506 501
f 500 504 506
f 514 508 509
f 514 509 512
f 515 512 511
f 515 514 512
f 513 511 510
f 513 515 511
f 523 516 517
f 522 517 518
f 522 523 517
f 521 518 519
f 521 522 518
f 520 521 519
f 527 528 529
f 527 529 530
f 526 530 531
f 526 527 530
f 525 531 524
f 525 526 531
f 535 536 537
f 535 537 538
f 534 538 539
f 534 535 538
f 533 539 532
f 533 534 539
f 541 543 542
f 541 540 543
f 544 546 547
f 544 547 545
f 562 548 569
f 563 548 562
f 556 565 566
f 556 566 555
f 554 566 567
f 554 567 568
f 554 555 566
f 557 564 565
f 557 565 556
f 553 568 561
f 553 554 568
f 558 563 564
f 558 548 563
f 558 564 557
f 552 553 561
f 559 561 560
f 559 552 561
f 549 558 551
f 549 548 558
f 550 549 551
f 625 583 584
f 626 584 585
f 626 625 584
f 624 583 625
f 627 588 587
f 627 585 588
f 627 626 585
f 623 580 583
f 623 583 624
f 628 587 586
f 628 627 587
f 622 581 580
f 622 582 581
f 622 570 582
f 622 580 623
f 629 628 586
f 621 571 570
f 621 570 622
f 630 629 586
f 620 571 621
f 631 630 586
f 619 571 620
f 572 571 619
f 618 572 619
f 617 572 618
f 573 572 617
f 573 617 616
f 574 573 616
f 574 616 615
f 590 632 631
f 590 633 632
f 590 634 633
f 590 609 634
f 590 631 586
f 575 615 614
f 575 574 615
f 576 614 613
f 576 575 614
f 577 576 613
f 608 606 579
f 604 577 613
f 605 607 578
f 598 611 610
f 597 612 611
f 597 611 598
f 599 609 590
f 599 610 609
f 599 598 610
f 595 612 597
f 603 613 612
f 603 604 613
f 600 599 590
f 602 596 594
f 601 603 612
f 601 612 595
f 593 600 590
f 591 592 589
f 638 650 637
f 638 662 650
f 639 661 662
f 639 662 638
f 640 660 661
f 640 661 639
f 641 659 660
f 641 660 640
f 642 658 659
f 642 659 641
f 643 657 658
f 643 658 642
f 644 656 657
f 644 657 643
f 645 655 656
f 645 656 644
f 646 654 655
f 646 655 645
f 647 653 654
f 647 654 646
f 648 652 653
f 648 653 647
f 649 651 652
f 649 652 648
f 636 635 651
f 636 651 649
f 664 695 693
f 663 686 694
f 712 692 691
f 713 712 691
f 711 692 712
f 714 691 690
f 714 713 691
f 710 683 692
f 710 692 711
f 715 690 689
f 715 714 690
f 709 684 683
f 709 685 684
f 709 682 685
f 709 683 710
f 716 689 688
f 716 715 689
f 708 682 709
f 708 681 682
f 717 716 688
f 717 688 687
f 707 681 708
f 718 663 665
f 718 687 686
f 718 686 663
f 718 717 687
f 706 681 707
f 680 681 706
f 719 665 666
f 719 718 665
f 705 680 706
f 677 680 705
f 677 705 704
f 673 666 667
f 673 719 666
f 678 677 704
f 672 720 719
f 672 719 673
f 679 704 703
f 679 678 704
f 671 720 672
f 671 721 720
f 676 679 703
f 676 701 700
f 676 702 701
f 676 703 702
f 670 696 721
f 670 721 671
f 675 669 668
f 675 670 669
f 675 668 674
f 675 697 696
f 675 698 697
f 675 699 698
f 675 700 699
f 675 696 670
f 675 676 700
f 723 736 722
f 723 749 736
f 724 748 749
f 724 749 723
f 725 747 748
f 725 748 724
f 726 746 747
f 726 747 725
f 727 745 746
f 727 746 726
f 728 744 745
f 728 745 727
f 729 743 744
f 729 744 728
f 730 742 743
f 730 743 729
f 731 741 742
f 731 742 730
f 732 739 740
f 732 740 741
f 732 741 731
f 733 739 732
f 734 737 738
f 734 738 739
f 734 739 733
f 735 737 734
f 755 753 752
f 755 754 753
f 751 750 755
f 751 755 752
f 760 761 757
f 756 760 757
f 758 759 760
f 758 760 756
f 769 771 770
f 768 772 771
f 768 771 769
f 767 772 768
f 766 773 772
f 766 774 773
f 766 772 767
f 765 774 766
f 764 775 774
f 764 774 765
f 763 776 775
f 763 777 776
f 763 775 764
f 762 777 763
f 792 779 778
f 792 778 793
f 791 780 779
f 791 779 792
f 790 781 780
f 790 780 791
f 789 782 781
f 789 783 782
f 789 781 790
f 788 783 789
f 787 784 783
f 787 783 788
f 786 785 784
f 786 784 787
f 803 795 794
f 803 801 795
f 804 800 801
f 804 801 803
f 805 799 800
f 805 800 804
f 806 798 799
f 806 799 805
f 807 797 798
f 807 798 806
f 802 796 797
f 802 797 807
f 822 808 809
f 822 809 810
f 822 823 808
f 821 810 811
f 821 822 810
f 820 811 812
f 820 821 811
f 819 812 813
f 819 820 812
f 818 813 814
f 818 819 813
f 817 814 815
f 817 818 814
f 816 817 815
f 826 829 831
f 827 831 830
f 827 826 831
f 828 830 825
f 828 827 830
f 824 828 825
f 832 833 836
f 838 832 836
f 839 835 834
f 839 836 835
f 839 838 836
f 837 839 834
f 847 840 841
f 846 841 842
f 846 847 841
f 845 842 843
f 845 846 842
f 844 845 843
f 852 853 854
f 851 854 855
f 851 852 854
f 850 855 848
f 850 851 855
f 849 850 848
f 859 860 861
f 859 861 862
f 858 862 863
f 858 859 862
f 857 863 856
f 857 858 863
f 864 866 867
f 864 867 865
f 869 871 870
f 869 868 871
f 886 873 893
f 887 873 886
f 879 889 890
f 880 888 889
f 880 889 879
f 878 890 891
f 878 879 890
f 881 888 880
f 877 891 892
f 877 878 891
f 882 887 888
f 882 888 881
f 876 892 885
f 876 877 892
f 883 885 884
f 883 876 885
f 872 882 875
f 872 873 887
f 872 887 882
f 874 872 875
f 944 905 906
f 945 906 907
f 945 944 906
f 943 905 944
f 946 911 910
f 946 907 911
f 946 945 907
f 942 902 905
f 942 905 943
f 948 910 909
f 948 946 910
f 941 903 902
f 941 904 903
f 941 894 904
f 941 902 942
f 949 947 908
f 940 895 894
f 940 894 941
f 951 950 909
f 939 895 940
f 952 951 909
f 938 895 939
f 896 895 938
f 937 896 938
f 936 896 937
f 897 896 936
f 897 936 935
f 898 897 935
f 898 935 934
f 912 952 909
f 912 953 952
f 912 954 953
f 912 955 954
f 912 928 955
f 899 934 933
f 899 898 934
f 900 933 932
f 900 899 933
f 901 900 932
f 923 925 901
f 924 927 926
f 923 901 932
f 918 930 929
f 917 930 918
f 917 931 930
f 919 929 928
f 919 928 912
f 919 918 929
f 916 931 917
f 922 932 931
f 922 923 932
f 920 919 912
f 921 916 915
f 921 922 931
f 921 931 916
f 914 920 912
f 913 914 912
f 959 971 958
f 959 983 971
f 960 982 983
f 960 983 959
f 961 981 982
f 961 982 960
f 962 980 981
f 962 981 961
f 963 979 980
f 963 980 962
f 964 978 979
f 964 979 963
f 965 977 978
f 965 978 964
f 966 976 977
f 966 977 965
f 967 975 976
f 967 976 966
f 968 974 975
f 968 975 967
f 969 972 973
f 969 973 974
f 969 974 968
f 970 972 969
f 957 956 972
f 957 972 970
f 985 1020 1018
f 984 1010 1019
f 1039 1017 1016
f 1040 1039 1016
f 1038 1017 1039
f 1041 1016 1015
f 1041 1040 1016
f 1037 1007 1017
f 1037 1017 1038
f 1042 1015 1014
f 1042 1041 1015
f 1036 1008 1007
f 1036 1009 1008
f 1036 1006 1009
f 1036 1007 1037
f 1043 1014 1013
f 1043 1042 1014
f 1035 1005 1006
f 1035 1006 1036
f 1044 1013 1012
f 1044 1043 1013
f 1034 1005 1035
f 1045 985 986
f 1045 1044 1012
f 1045 1012 1011
f 1045 1011 985
f 1033 1005 1034
f 1004 1005 1033
f 1046 986 987
f 1046 1045 986
f 1032 1004 1033
f 1001 1004 1032
f 1001 1032 1031
f 996 987 988
f 996 1046 987
f 1002 1001 1031
f 995 1046 996
f 995 1048 1046
f 1003 1002 1031
f 1003 1031 1030
f 992 1047 994
f 993 1049 1048
f 999 1027 1025
f 1000 1029 1028
f 1000 1030 1029
f 1000 1003 1030
f 991 1021 1049
f 991 1049 993
f 998 990 989
f 998 991 990
f 998 989 997
f 998 1022 1021
f 998 1023 1022
f 998 1024 1023
f 998 1026 1024
f 998 1021 991
f 998 1000 1026
f 1050 1077 1064
f 1051 1077 1050
f 1052 1076 1077
f 1052 1077 1051
f 1053 1075 1076
f 1053 1076 1052
f 1054 1074 1075
f 1054 1075 1053
f 1055 1072 1073
f 1055 1073 1074
f 1055 1074 1054
f 1056 1072 1055
f 1057 1071 1072
f 1057 1072 1056
f 1058 1070 1071
f 1058 1071 1057
f 1059 1069 1070
f 1059 1070 1058
f 1060 1067 1068
f 1060 1068 1069
f 1060 1069 1059
f 1061 1067 1060
f 1062 1066 1067
f 1062 1067 1061
f 1063 1065 1066
f 1063 1066 1062
f 1083 1081 1080
f 1083 1082 1081
f 1079 1078 1083
f 1079 1083 1080
f 1088 1089 1085
f 1084 1088 1085
f 1086 1087 1088
f 1086 1088 1084
f 1096 1098 1097
f 1096 1099 1098
f 1095 1100 1099
f 1095 1099 1096
f 1094 1101 1100
f 1094 1100 1095
f 1093 1102 1101
f 1093 1101 1094
f 1092 1103 1102
f 1092 1102 1093
f 1091 1104 1103
f 1091 1103 1092
f 1090 1105 1104
f 1090 1104 1091
f 1120 1107 1106
f 1120 1106 1121
f 1119 1108 1107
f 1119 1107 1120
f 1118 1109 1108
f 1118 1110 1109
f 1118 1108 1119
f 1117 1111 1110
f 1117 1110 1118
f 1116 1112 1111
f 1116 1111 1117
f 1115 1113 1112
f 1115 1112 1116
f 1114 1113 1115
f 1131 1123 1122
f 1131 1129 1123
f 1132 1128 1129
f 1132 1129 1131
f 1133 1127 1128
f 1133 1128 1132
f 1134 1126 1127
f 1134 1127 1133
f 1135 1125 1126
f 1135 1126 1134
f 1130 1124 1125
f 1130 1125 1135
f 1150 1136 1137
f 1150 1151 1136
f 1149 1137 1138
f 1149 1150 1137
f 1148 1138 1139
f 1148 1149 1138
f 1147 1139 1140
f 1147 1148 1139
f 1146 1140 1141
f 1146 1147 1140
f 1145 1141 1142
f 1145 1146 1141
f 1144 1142 1143
f 1144 1145 1142
f 1154 1157 1159
f 1155 1159 1158
f 1155 1154 1159
f 1156 1158 1153
f 1156 1155 1158
f 1152 1156 1153
f 1160 1161 1164
f 1166 1164 1163
f 1166 1160 1164
f 1167 1166 1163
f 1165 1163 1162
f 1165 1167 1163
f 1174 1168 1169
f 1174 1175 1168
f 1173 1169 1170
f 1173 1170 1171
f 1173 1174 1169
f 1172 1173 1171
f 1179 1180 1181
f 1179 1181 1182
f 1179 1182 1183
f 1178 1183 1176
f 1178 1179 1183
f 1177 1178 1176
f 1188 1189 1190
f 1187 1190 1191
f 1187 1188 1190
f 1186 1191 1184
f 1186 1187 1191
f 1185 1186 1184
f 1194 1192 1195
f 1193 1192 1194
f 1196 1198 1199
f 1196 1199 1197
f 1214 1201 1221
f 1215 1201 1214
f 1207 1217 1218
f 1207 1208 1217
f 1209 1216 1217
f 1209 1217 1208
f 1206 1218 1219
f 1206 1207 1218
f 1210 1215 1216
f 1210 1201 1215
f 1210 1216 1209
f 1205 1219 1220
f 1205 1220 1213
f 1205 1206 1219
f 1204 1205 1213
f 1211 1213 1212
f 1211 1204 1213
f 1200 1210 1203
f 1200 1201 1210
f 1202 1200 1203
f 1225 1226 1227
f 1225 1227 1228
f 1224 1228 1229
f 1224 1225 1228
f 1223 1229 1222
f 1223 1224 1229
f 1233 1232 1235
f 1233 1235 1237
f 1234 1237 1236
f 1234 1233 1237
f 1230 1236 1231
f 1230 1234 1236
f 1241 1242 1243
f 1241 1243 1244
f 1240 1244 1245
f 1240 1241 1244
f 1239 1245 1238
f 1239 1240 1245
f 1261 1246 1247
f 1260 1247 1248
f 1260 1261 1247
f 1259 1248 1249
f 1259 1260 1248
f 1258 1249 1250
f 1258 1259 1249
f 1257 1250 1251
f 1257 1258 1250
f 1256 1251 1252
f 1256 1257 1251
f 1255 1252 1253
f 1255 1256 1252
f 1254 1255 1253
f 1269 1262 1263
f 1268 1263 1264
f 1268 1269 1263
f 1267 1264 1265
f 1267 1268 1264
f 1266 1267 1265
f 1270 1271 1274
f 1276 1274 1273
f 1276 1270 1274
f 1277 1273 1272
f 1277 1276 1273
f 1275 1277 1272
f 1282 1283 1279
f 1278 1282 1279
f 1280 1281 1282
f 1280 1282 1278
f 1298 1285 1284
f 1298 1284 1299
f 1297 1286 1285
f 1297 1285 1298
f 1296 1287 1286
f 1296 1286 1297
f 1295 1288 1287
f 1295 1287 1296
f 1294 1289 1288
f 1294 1288 1295
f 1293 1290 1289
f 1293 1289 1294
f 1292 1291 1290
f 1292 1290 1293
f 1301 1332 1330
f 1300 1323 1331
f 1349 1329 1328
f 1350 1349 1328
f 1348 1329 1349
f 1351 1328 1327
f 1351 1350 1328
f 1347 1320 1329
f 1347 1329 1348
f 1352 1327 1326
f 1352 1351 1327
f 1346 1321 1320
f 1346 1322 1321
f 1346 1319 1322
f 1346 1320 1347
f 1353 1326 1325
f 1353 1352 1326
f 1345 1318 1319
f 1345 1319 1346
f 1354 1325 1324
f 1354 1353 1325
f 1344 1318 1345
f 1355 1300 1302
f 1355 1354 1324
f 1355 1324 1323
f 1355 1323 1300
f 1343 1318 1344
f 1317 1318 1343
f 1356 1302 1303
f 1356 1355 1302
f 1342 1317 1343
f 1314 1317 1342
f 1314 1342 1341
f 1310 1303 1304
f 1310 1356 1303
f 1315 1314 1341
f 1309 1356 1310
f 1309 1357 1356
f 1316 1315 1341
f 1316 1341 1340
f 1308 1357 1309
f 1308 1358 1357
f 1313 1338 1337
f 1313 1339 1338
f 1313 1340 1339
f 1313 1316 1340
f 1307 1333 1358
f 1307 1358 1308
f 1312 1306 1305
f 1312 1307 1306
f 1312 1305 1311
f 1312 1334 1333
f 1312 1335 1334
f 1312 1336 1335
f 1312 1337 1336
f 1312 1333 1307
f 1312 1313 1337
f 1362 1374 1361
f 1362 1386 1374
f 1363 1385 1386
f 1363 1386 1362
f 1364 1384 1385
f 1364 1385 1363
f 1365 1383 1384
f 1365 1384 1364
f 1366 1382 1383
f 1366 1383 1365
f 1367 1381 1382
f 1367 1382 1366
f 1368 1380 1381
f 1368 1381 1367
f 1369 1379 1380
f 1369 1380 1368
f 1370 1378 1379
f 1370 1379 1369
f 1371 1377 1378
f 1371 1378 1370
f 1372 1376 1377
f 1372 1377 1371
f 1373 1375 1376
f 1373 1376 1372
f 1360 1359 1375
f 1360 1375 1373
f 1388 1401 1387
f 1388 1414 1401
f 1389 1413 1414
f 1389 1414 1388
f 1390 1412 1413
f 1390 1413 1389
f 1391 1411 1412
f 1391 1412 1390
f 1392 1410 1411
f 1392 1411 1391
f 1393 1408 1409
f 1393 1409 1410
f 1393 1410 1392
f 1394 1408 1393
f 1395 1407 1408
f 1395 1408 1394
f 1396 1406 1407
f 1396 1407 1395
f 1397 1404 1405
f 1397 1405 1406
f 1397 1406 1396
f 1398 1404 1397
f 1399 1402 1403
f 1399 1403 1404
f 1399 1404 1398
f 1400 1402 1399
f 1424 1416 1415
f 1424 1422 1416
f 1425 1421 1422
f 1425 1422 1424
f 1426 1420 1421
f 1426 1421 1425
f 1427 1419 1420
f 1427 1420 1426
f 1428 1417 1418
f 1428 1418 1419
f 1428 1419 1427
f 1423 1417 1428
f 1476 1440 1441
f 1477 1441 1442
f 1477 1476 1441
f 1475 1440 1476
f 1478 1445 1444
f 1478 1442 1445
f 1478 1477 1442
f 1474 1437 1440
f 1474 1440 1475
f 1479 1444 1443
f 1479 1478 1444
f 1473 1438 1437
f 1473 1439 1438
f 1473 1429 1439
f 1473 1437 1474
f 1480 1479 1443
f 1472 1430 1429
f 1472 1429 1473
f 1481 1480 1443
f 1471 1430 1472
f 1482 1481 1443
f 1470 1430 1471
f 1431 1430 1470
f 1469 1431 1470
f 1468 1431 1469
f 1432 1431 1468
f 1432 1468 1467
f 1433 1432 1467
f 1433 1467 1466
f 1446 1483 1482
f 1446 1484 1483
f 1446 1485 1484
f 1446 1460 1485
f 1446 1482 1443
f 1434 1466 1465
f 1434 1433 1466
f 1435 1465 1464
f 1435 1434 1465
f 1436 1435 1464
f 1457 1458 1436
f 1457 1459 1458
f 1457 1436 1464
f 1452 1462 1461
f 1451 1462 1452
f 1451 1463 1462
f 1453 1461 1460
f 1453 1460 1446
f 1453 1452 1461
f 1450 1463 1451
f 1456 1464 1463
f 1456 1457 1464
f 1454 1453 1446
f 1455 1450 1449
f 1455 1456 1463
f 1455 1463 1450
f 1448 1454 1446
f 1447 1448 1446
f 1493 1495 1494
f 1492 1496 1495
f 1492 1495 1493
f 1491 1497 1496
f 1491 1496 1492
f 1490 1498 1497
f 1490 1497 1491
f 1489 1499 1498
f 1489 1498 1490
f 1488 1500 1499
f 1488 1499 1489
f 1487 1501 1500
f 1487 1500 1488
f 1486 1501 1487
f 1507 1505 1504
f 1507 1506 1505
f 1503 1502 1507
f 1503 1507 1504
f 1529 1509 1508
f 1529 1510 1509
f 1529 1511 1510
f 1529 1512 1511
f 1530 1529 1508
f 1530 1512 1529
f 1531 1513 1512
f 1531 1530 1508
f 1531 1512 1530
f 1532 1514 1513
f 1532 1515 1514
f 1532 1516 1515
f 1532 1517 1516
f 1532 1518 1517
f 1532 1513 1531
f 1532 1531 1508
f 1533 1508 1528
f 1533 1518 1532
f 1533 1532 1508
f 1534 1518 1533
f 1535 1519 1518
f 1535 1527 1526
f 1535 1528 1527
f 1535 1533 1528
f 1535 1534 1533
f 1535 1518 1534
f 1536 1523 1522
f 1536 1524 1523
f 1536 1525 1524
f 1536 1526 1525
f 1536 1519 1535
f 1536 1535 1526
f 1537 1519 1536
f 1537 1536 1522
f 1538 1520 1519
f 1538 1521 1520
f 1538 1522 1521
f 1538 1537 1522
f 1538 1519 1537
