# https://github.com/mikedh/trimesh
mtllib left_thumb_intermediate_visual000.mtl
usemtl left_thumb_intermediate_visual000_material_0
v 0.00912927 0.01540359 -0.00242064
v 0.00914008 0.01538581 -0.00228298
v 0.00914073 0.01535175 -0.00214799
v 0.00913119 0.01530207 -0.00201829
v 0.00915162 0.01533203 -0.00211377
v 0.00916646 0.01535379 -0.00221245
v 0.00917556 0.01536712 -0.00231330
v 0.00914559 0.01539284 -0.00238478
v 0.00916103 0.01538067 -0.00234898
v 0.00292255 0.01665726 -0.00270465
v 0.00292820 0.01665347 -0.00270465
v 0.00293392 0.01664978 -0.00270465
v 0.00293970 0.01664618 -0.00270465
v 0.00292255 0.01665726 -0.01190465
v 0.00293970 0.01664619 -0.01190465
v 0.00293392 0.01664978 -0.01190465
v 0.00292820 0.01665347 -0.01190465
v 0.00293970 0.01664619 -0.01190465
v 0.00293392 0.01664978 -0.01190465
v 0.00292820 0.01665347 -0.01190465
v 0.00292255 0.01665726 -0.01190465
v 0.00291359 0.01660338 -0.01234969
v 0.00283658 0.01647709 -0.01277242
v 0.00271253 0.01627365 -0.01315163
v 0.00254765 0.01600328 -0.01346831
v 0.00235021 0.01567952 -0.01370659
v 0.00213012 0.01531861 -0.01385451
v 0.00189841 0.01493864 -0.01390465
v 0.00179550 0.01500506 -0.01390465
v 0.00182942 0.01498234 -0.01390465
v 0.00186373 0.01496020 -0.01390465
v 0.00204629 0.01537271 -0.01385451
v 0.00228450 0.01572192 -0.01370659
v 0.00249820 0.01603519 -0.01346831
v 0.00267666 0.01629680 -0.01315163
v 0.00281093 0.01649364 -0.01277242
v 0.00289429 0.01661583 -0.01234969
v 0.00210187 0.01533617 -0.01385451
v 0.00207393 0.01535420 -0.01385451
v 0.00232807 0.01569328 -0.01370659
v 0.00230617 0.01570742 -0.01370659
v 0.00253099 0.01601363 -0.01346831
v 0.00251450 0.01602427 -0.01346831
v 0.00270044 0.01628117 -0.01315163
v 0.00268848 0.01628888 -0.01315163
v 0.00282794 0.01648246 -0.01277242
v 0.00281939 0.01648798 -0.01277242
v 0.00290709 0.01660742 -0.01234969
v 0.00290065 0.01661157 -0.01234969
v 0.00189841 0.01493864 -0.00070465
v 0.00186373 0.01496019 -0.00070465
v 0.00182942 0.01498234 -0.00070465
v 0.00179550 0.01500506 -0.00070465
v 0.00213012 0.01531860 -0.00075479
v 0.00235021 0.01567952 -0.00090271
v 0.00254765 0.01600327 -0.00114099
v 0.00271253 0.01627365 -0.00145767
v 0.00283658 0.01647708 -0.00183688
v 0.00291359 0.01660337 -0.00225961
v 0.00293970 0.01664618 -0.00270465
v 0.00292255 0.01665726 -0.00270465
v 0.00292820 0.01665347 -0.00270465
v 0.00293392 0.01664978 -0.00270465
v 0.00289429 0.01661583 -0.00225961
v 0.00281093 0.01649364 -0.00183688
v 0.00267666 0.01629680 -0.00145767
v 0.00249820 0.01603519 -0.00114099
v 0.00228450 0.01572192 -0.00090271
v 0.00204629 0.01537271 -0.00075479
v 0.00290709 0.01660742 -0.00225961
v 0.00290065 0.01661157 -0.00225961
v 0.00282794 0.01648246 -0.00183688
v 0.00281939 0.01648797 -0.00183688
v 0.00270044 0.01628116 -0.00145767
v 0.00268848 0.01628888 -0.00145767
v 0.00253099 0.01601363 -0.00114099
v 0.00251450 0.01602427 -0.00114099
v 0.00232807 0.01569327 -0.00090271
v 0.00230617 0.01570741 -0.00090271
v 0.00210187 0.01533616 -0.00075479
v 0.00207393 0.01535420 -0.00075479
v 0.01042355 0.00458818 0.00069599
v 0.01038919 0.00455822 0.00071573
v 0.01042355 0.00458818 0.00070515
v 0.01037883 0.00455870 0.00071898
v 0.01038919 0.00455822 0.00071573
v 0.01042355 0.00458818 0.00069599
v 0.01038919 0.00455823 -0.01532504
v 0.01042355 0.00458818 -0.01531446
v 0.01042355 0.00458818 -0.01530529
v 0.01037883 0.00455870 -0.01532829
v 0.01042355 0.00458818 -0.01530529
v 0.01038919 0.00455823 -0.01532504
v 0.00189841 0.01493864 -0.00070465
v 0.00213012 0.01531860 -0.00075479
v 0.00235021 0.01567952 -0.00090271
v 0.00254765 0.01600327 -0.00114099
v 0.00271253 0.01627365 -0.00145767
v 0.00283658 0.01647708 -0.00183688
v 0.00291359 0.01660337 -0.00225961
v 0.00293970 0.01664618 -0.00270465
v 0.00259764 0.01434890 -0.00070465
v 0.00238507 0.01456896 -0.00070465
v 0.00215118 0.01476622 -0.00070465
v 0.00410509 0.01566329 -0.00270465
v 0.00406729 0.01563033 -0.00225961
v 0.00395580 0.01553312 -0.00183688
v 0.00377621 0.01537653 -0.00145767
v 0.00353752 0.01516841 -0.00114099
v 0.00325170 0.01491919 -0.00090271
v 0.00293308 0.01464138 -0.00075479
v 0.00336097 0.01635883 -0.00270465
v 0.00375079 0.01603005 -0.00270465
v 0.00242038 0.01512061 -0.00075479
v 0.00268897 0.01489408 -0.00075479
v 0.00267609 0.01545723 -0.00090271
v 0.00297763 0.01520290 -0.00090271
v 0.00290547 0.01575919 -0.00114099
v 0.00323658 0.01547994 -0.00114099
v 0.00309704 0.01601137 -0.00145767
v 0.00345283 0.01571129 -0.00145767
v 0.00324117 0.01620111 -0.00183688
v 0.00361554 0.01588536 -0.00183688
v 0.00333064 0.01631890 -0.00225961
v 0.00371655 0.01599342 -0.00225961
f 3 4 5
f 6 3 5
f 2 6 7
f 2 3 6
f 9 2 7
f 8 2 9
f 1 2 8
f 16 13 12
f 16 15 13
f 17 12 11
f 17 16 12
f 14 11 10
f 14 17 11
f 32 29 30
f 19 22 18
f 38 28 27
f 38 31 28
f 39 30 31
f 39 32 30
f 39 31 38
f 40 27 26
f 40 38 27
f 41 33 32
f 41 38 40
f 41 32 39
f 41 39 38
f 42 26 25
f 42 40 26
f 43 34 33
f 43 40 42
f 43 33 41
f 43 41 40
f 44 25 24
f 44 42 25
f 45 35 34
f 45 43 42
f 45 34 43
f 45 42 44
f 46 24 23
f 46 44 24
f 47 36 35
f 47 35 45
f 47 45 44
f 47 44 46
f 48 23 22
f 48 46 23
f 48 22 19
f 49 19 20
f 49 20 21
f 49 37 36
f 49 21 37
f 49 36 47
f 49 48 19
f 49 47 46
f 49 46 48
f 64 61 62
f 70 60 59
f 70 63 60
f 71 62 63
f 71 64 62
f 71 63 70
f 72 59 58
f 72 70 59
f 73 65 64
f 73 70 72
f 73 64 71
f 73 71 70
f 74 58 57
f 74 72 58
f 75 66 65
f 75 72 74
f 75 65 73
f 75 73 72
f 76 57 56
f 76 74 57
f 77 67 66
f 77 75 74
f 77 66 75
f 77 74 76
f 78 56 55
f 78 76 56
f 79 68 67
f 79 67 77
f 79 77 76
f 79 76 78
f 80 50 51
f 80 54 50
f 80 55 54
f 80 78 55
f 81 51 52
f 81 52 53
f 81 69 68
f 81 53 69
f 81 68 79
f 81 80 51
f 81 79 78
f 81 78 80
f 84 82 83
f 85 86 87
f 88 90 89
f 92 93 91
f 112 100 101
f 114 94 95
f 114 104 94
f 115 102 103
f 115 103 104
f 115 111 102
f 115 104 114
f 116 95 96
f 116 114 95
f 117 110 111
f 117 114 116
f 117 115 114
f 117 111 115
f 118 96 97
f 118 116 96
f 119 109 110
f 119 110 117
f 119 116 118
f 119 117 116
f 120 97 98
f 120 118 97
f 121 108 109
f 121 119 118
f 121 118 120
f 121 109 119
f 122 98 99
f 122 120 98
f 123 107 108
f 123 108 121
f 123 121 120
f 123 120 122
f 124 99 100
f 124 122 99
f 124 100 112
f 125 105 106
f 125 106 107
f 125 112 113
f 125 113 105
f 125 124 112
f 125 107 123
f 125 123 122
f 125 122 124
