# https://github.com/mikedh/trimesh
mtllib left_base_link_visual004.mtl
usemtl left_base_link_visual004_material_0
v -0.00275297 -0.00621097 0.02585384
v -0.00768781 -0.00621097 0.02483742
v -0.01233395 -0.00621097 0.02288829
v -0.01651692 -0.00621097 0.02007963
v -0.02007963 -0.00621097 0.01651692
v -0.02288829 -0.00621097 0.01233395
v -0.02483742 -0.00621097 0.00768781
v -0.02585384 -0.00621097 0.00275297
v 0.00275297 -0.00621097 0.02585384
v 0.00253155 -0.00662858 0.02592076
v 0.00225712 -0.00699506 0.02606255
v 0.00194600 -0.00730206 0.02625181
v 0.00148280 -0.00762696 0.02654627
v 0.00090616 -0.00787872 0.02688083
v 0.00043253 -0.00798750 0.02707787
v 0.00016913 -0.00801400 0.02713384
v -0.00012519 -0.00801617 0.02713867
v -0.00042242 -0.00798895 0.02708084
v -0.00070272 -0.00793537 0.02697780
v -0.00112067 -0.00780193 0.02676476
v -0.00153025 -0.00759932 0.02651632
v -0.00201632 -0.00724058 0.02620769
v -0.00243710 -0.00676820 0.02596511
v -0.00260821 -0.00650119 0.02589009
v 0.02585384 -0.00621097 0.00275297
v 0.02483742 -0.00621097 0.00768781
v 0.02288829 -0.00621097 0.01233395
v 0.02007963 -0.00621097 0.01651692
v 0.01651692 -0.00621097 0.02007963
v 0.01233395 -0.00621097 0.02288829
v 0.00768781 -0.00621097 0.02483742
v 0.02714468 -0.00801885 0.00000000
v 0.02711318 -0.00800451 0.00029298
v 0.02703080 -0.00796373 0.00057240
v 0.02687318 -0.00787397 0.00092104
v 0.02659774 -0.00767204 0.00140040
v 0.02628987 -0.00735200 0.00188586
v 0.02602823 -0.00692353 0.00231781
v 0.02591034 -0.00658933 0.00255609
v 0.02722823 -0.00805606 0.00000000
v 0.02731340 -0.00808942 0.00000000
v 0.02740000 -0.00811885 0.00000000
v -0.02740000 -0.00811885 0.00000000
v -0.02680124 -0.00811885 0.00569678
v -0.02503115 -0.00811885 0.01114458
v -0.02216707 -0.00811885 0.01610532
v -0.01833418 -0.00811885 0.02036217
v -0.01370000 -0.00811885 0.02372910
v -0.00846707 -0.00811885 0.02605895
v -0.00286408 -0.00811885 0.02724990
v 0.00286408 -0.00811885 0.02724990
v 0.00846707 -0.00811885 0.02605895
v 0.01370000 -0.00811885 0.02372910
v 0.01833418 -0.00811885 0.02036217
v 0.02216707 -0.00811885 0.01610532
v 0.02503115 -0.00811885 0.01114458
v 0.02680124 -0.00811885 0.00569678
v -0.02714468 -0.00801885 0.00000000
v -0.02722823 -0.00805606 0.00000000
v -0.02731340 -0.00808942 0.00000000
v -0.02591569 -0.00660991 0.00254333
v -0.02604667 -0.00696282 0.00228494
v -0.02622270 -0.00726175 0.00199233
v -0.02649934 -0.00758321 0.00155704
v -0.02682174 -0.00784091 0.00101816
v -0.02706601 -0.00798165 0.00047097
v -0.02712335 -0.00800918 0.00023986
v 0.02606453 -0.00739418 0.00411621
v 0.02620890 -0.00755281 0.00403009
v 0.02554077 -0.00739418 0.00663113
v 0.02471174 -0.00739418 0.00925379
v 0.02368981 -0.00739418 0.01162307
v 0.02235630 -0.00739418 0.01401780
v 0.02087642 -0.00739418 0.01613933
v 0.01909276 -0.00739418 0.01821453
v 0.01721606 -0.00739418 0.01999775
v 0.01505243 -0.00739418 0.02167319
v 0.01285781 -0.00739418 0.02304299
v 0.01039823 -0.00739418 0.02425241
v 0.00797859 -0.00739418 0.02515243
v 0.00531820 -0.00739418 0.02584607
v 0.00267609 -0.00756826 0.02639576
v -0.00271166 -0.00751750 0.02634657
v -0.00531820 -0.00739418 0.02584607
v -0.00797859 -0.00739418 0.02515243
v -0.01039823 -0.00739418 0.02425241
v -0.01285781 -0.00739418 0.02304299
v -0.01505243 -0.00739418 0.02167319
v -0.01721606 -0.00739418 0.01999775
v -0.01909276 -0.00739418 0.01821453
v -0.02087642 -0.00739418 0.01613933
v -0.02235630 -0.00739418 0.01401780
v -0.02368981 -0.00739418 0.01162307
v -0.02471174 -0.00739418 0.00925379
v -0.02554077 -0.00739418 0.00663113
v -0.02606453 -0.00739418 0.00411621
v -0.02621728 -0.00756093 0.00402423
v -0.02123857 -0.02411885 0.00667911
v -0.02123857 -0.02244364 0.00647570
v -0.02123857 -0.02086578 0.00587730
v -0.02123857 -0.01947699 0.00491868
v -0.02123857 -0.01835796 0.00365556
v -0.02123857 -0.01757373 0.00216134
v -0.02123857 -0.01716988 0.00052287
v -0.02123857 -0.01716988 -0.00116465
v -0.02123857 -0.01757373 -0.00280312
v -0.02123857 -0.01835796 -0.00429734
v -0.02123857 -0.01947699 -0.00556047
v -0.02123857 -0.02086578 -0.00651908
v -0.02123857 -0.02244364 -0.00711748
v -0.02123857 -0.02411885 -0.00732089
v -0.01923857 -0.02411885 0.00667911
v -0.01923857 -0.02411885 -0.00732089
v -0.01923857 -0.02244364 -0.00711748
v -0.01923857 -0.02086578 -0.00651908
v -0.01923857 -0.01947699 -0.00556047
v -0.01923857 -0.01835796 -0.00429734
v -0.01923857 -0.01757373 -0.00280312
v -0.01923857 -0.01716988 -0.00116465
v -0.01923857 -0.01716988 0.00052287
v -0.01923857 -0.01757373 0.00216134
v -0.01923857 -0.01835796 0.00365556
v -0.01923857 -0.01947699 0.00491868
v -0.01923857 -0.02086578 0.00587730
v -0.01923857 -0.02244364 0.00647570
v 0.00000000 -0.01101885 0.01900000
v 0.00000000 -0.00671885 0.01900000
v -0.00170000 -0.00501885 0.01892379
v -0.00165313 -0.00541523 0.01892795
v -0.00151479 -0.00579052 0.01893952
v -0.00129307 -0.00612240 0.01895595
v -0.00099997 -0.00639340 0.01897364
v -0.00065214 -0.00658879 0.01898880
v -0.00033367 -0.00668565 0.01899703
v 0.00000000 -0.00331885 0.01900000
v -0.00039639 -0.00336572 0.01899586
v -0.00077167 -0.00350406 0.01898432
v -0.00110356 -0.00372578 0.01896792
v -0.00137455 -0.00401887 0.01895022
v -0.00156994 -0.00436671 0.01893503
v -0.00166680 -0.00468518 0.01892677
v 0.00000000 -0.00001885 0.01900000
v 0.00000000 -0.00001885 -0.01900000
v -0.00454700 -0.00001885 -0.01844789
v -0.00882974 -0.00001885 -0.01682366
v -0.01259933 -0.00001885 -0.01422170
v -0.01563669 -0.00001885 -0.01079323
v -0.01776531 -0.00001885 -0.00673749
v -0.01886147 -0.00001885 -0.00229020
v -0.01886147 -0.00001885 0.00229020
v -0.01776531 -0.00001885 0.00673749
v -0.01563669 -0.00001885 0.01079323
v -0.01259933 -0.00001885 0.01422170
v -0.00882974 -0.00001885 0.01682366
v -0.00454700 -0.00001885 0.01844789
v 0.00000000 -0.00331885 -0.01900000
v -0.00170000 -0.00501885 -0.01892379
v -0.00165313 -0.00462246 -0.01892795
v -0.00151479 -0.00424718 -0.01893952
v -0.00129307 -0.00391529 -0.01895595
v -0.00099997 -0.00364430 -0.01897364
v -0.00065214 -0.00344891 -0.01898880
v -0.00033367 -0.00335204 -0.01899703
v 0.00000000 -0.00671885 -0.01900000
v -0.00039639 -0.00667197 -0.01899586
v -0.00077167 -0.00653364 -0.01898432
v -0.00110356 -0.00631191 -0.01896792
v -0.00137455 -0.00601882 -0.01895022
v -0.00156994 -0.00567099 -0.01893503
v -0.00166680 -0.00535251 -0.01892677
v 0.00000000 -0.01101885 -0.01900000
v -0.00454700 -0.01101885 0.01844789
v -0.00882974 -0.01101885 0.01682366
v -0.01259933 -0.01101885 0.01422170
v -0.01563669 -0.01101885 0.01079323
v -0.01776531 -0.01101885 0.00673749
v -0.01886147 -0.01101885 0.00229020
v -0.01886147 -0.01101885 -0.00229020
v -0.01776531 -0.01101885 -0.00673749
v -0.01563669 -0.01101885 -0.01079323
v -0.01259933 -0.01101885 -0.01422170
v -0.00882974 -0.01101885 -0.01682366
v -0.00454700 -0.01101885 -0.01844789
v -0.01892379 -0.00501885 -0.00170000
v -0.01892707 -0.00537113 -0.00166310
v -0.01893638 -0.00570903 -0.00155360
v -0.01895001 -0.00601526 -0.00137735
v -0.01896573 -0.00627946 -0.00114049
v -0.01898077 -0.00648842 -0.00085427
v -0.01899254 -0.00663341 -0.00053189
v -0.01899907 -0.00670857 -0.00018532
v -0.01899924 -0.00671035 0.00016930
v -0.01899299 -0.00663859 0.00051624
v -0.01898137 -0.00649611 0.00084118
v -0.01896646 -0.00629027 0.00112851
v -0.01895070 -0.00602831 0.00136785
v -0.01893688 -0.00572274 0.00154742
v -0.01892739 -0.00538655 0.00165979
v -0.01892472 -0.00520428 0.00168988
v -0.01892379 -0.00501885 0.00170000
v -0.01892707 -0.00466657 0.00166310
v -0.01893638 -0.00432866 0.00155360
v -0.01895001 -0.00402244 0.00137735
v -0.01896573 -0.00375824 0.00114049
v -0.01898077 -0.00354927 0.00085427
v -0.01899254 -0.00340428 0.00053189
v -0.01899907 -0.00332912 0.00018532
v -0.01899924 -0.00332734 -0.00016930
v -0.01899299 -0.00339910 -0.00051624
v -0.01898137 -0.00354158 -0.00084118
v -0.01896646 -0.00374743 -0.00112851
v -0.01895070 -0.00400939 -0.00136785
v -0.01893688 -0.00431496 -0.00154742
v -0.01892739 -0.00465115 -0.00165979
v -0.01892472 -0.00483342 -0.00168988
v 0.00000000 -0.00671885 -0.01900000
v -0.00039639 -0.00667197 -0.01899586
v -0.00077167 -0.00653364 -0.01898432
v -0.00110356 -0.00631191 -0.01896792
v -0.00137455 -0.00601882 -0.01895022
v -0.00156994 -0.00567099 -0.01893503
v -0.00166680 -0.00535251 -0.01892677
v -0.00170000 -0.00501885 -0.01892379
v -0.00170000 -0.00501885 -0.02257500
v 0.00170000 -0.00501885 -0.02257500
v 0.00165060 -0.00542568 -0.02257500
v 0.00150528 -0.00580888 -0.02257500
v 0.00127247 -0.00614616 -0.02257500
v 0.00096571 -0.00641792 -0.02257500
v 0.00060283 -0.00660837 -0.02257500
v 0.00020491 -0.00670645 -0.02257500
v -0.00020491 -0.00670645 -0.02257500
v -0.00060283 -0.00660837 -0.02257500
v -0.00096571 -0.00641792 -0.02257500
v -0.00127247 -0.00614616 -0.02257500
v -0.00150528 -0.00580888 -0.02257500
v -0.00165060 -0.00542568 -0.02257500
v 0.00170000 -0.00501885 -0.01892379
v 0.00165313 -0.00541523 -0.01892795
v 0.00151479 -0.00579052 -0.01893952
v 0.00129307 -0.00612240 -0.01895595
v 0.00099997 -0.00639340 -0.01897364
v 0.00065214 -0.00658879 -0.01898880
v 0.00033367 -0.00668565 -0.01899703
v 0.00000000 -0.00671885 0.01900000
v 0.00039639 -0.00667197 0.01899586
v 0.00077167 -0.00653364 0.01898432
v 0.00110356 -0.00631191 0.01896792
v 0.00137455 -0.00601882 0.01895022
v 0.00156994 -0.00567099 0.01893503
v 0.00166680 -0.00535251 0.01892677
v 0.00170000 -0.00501885 0.01892379
v 0.00170000 -0.00501885 0.02257500
v -0.00170000 -0.00501885 0.02257500
v -0.00165060 -0.00542568 0.02257500
v -0.00150528 -0.00580888 0.02257500
v -0.00127247 -0.00614616 0.02257500
v -0.00096571 -0.00641792 0.02257500
v -0.00060283 -0.00660837 0.02257500
v -0.00020491 -0.00670645 0.02257500
v 0.00020491 -0.00670645 0.02257500
v 0.00060283 -0.00660837 0.02257500
v 0.00096571 -0.00641792 0.02257500
v 0.00127247 -0.00614616 0.02257500
v 0.00150528 -0.00580888 0.02257500
v 0.00165060 -0.00542568 0.02257500
v -0.00170000 -0.00501885 0.01892379
v -0.00165313 -0.00541523 0.01892795
v -0.00151479 -0.00579052 0.01893952
v -0.00129307 -0.00612240 0.01895595
v -0.00099997 -0.00639340 0.01897364
v -0.00065214 -0.00658879 0.01898880
v -0.00033367 -0.00668565 0.01899703
v 0.01892379 -0.00501885 -0.00170000
v 0.02257500 -0.00501885 -0.00170000
v 0.02257500 -0.00501885 0.00170000
v 0.02257500 -0.00542568 0.00165060
v 0.02257500 -0.00580888 0.00150528
v 0.02257500 -0.00614616 0.00127247
v 0.02257500 -0.00641792 0.00096571
v 0.02257500 -0.00660837 0.00060283
v 0.02257500 -0.00670645 0.00020491
v 0.02257500 -0.00670645 -0.00020491
v 0.02257500 -0.00660837 -0.00060283
v 0.02257500 -0.00641792 -0.00096571
v 0.02257500 -0.00614616 -0.00127247
v 0.02257500 -0.00580888 -0.00150528
v 0.02257500 -0.00542568 -0.00165060
v 0.01892379 -0.00501885 0.00170000
v 0.01892707 -0.00537113 0.00166310
v 0.01893638 -0.00570903 0.00155360
v 0.01895001 -0.00601526 0.00137735
v 0.01896573 -0.00627946 0.00114049
v 0.01898077 -0.00648842 0.00085427
v 0.01899254 -0.00663341 0.00053189
v 0.01899907 -0.00670857 0.00018532
v 0.01899924 -0.00671035 -0.00016930
v 0.01899299 -0.00663859 -0.00051624
v 0.01898137 -0.00649611 -0.00084118
v 0.01896646 -0.00629027 -0.00112851
v 0.01895070 -0.00602831 -0.00136785
v 0.01893688 -0.00572274 -0.00154742
v 0.01892739 -0.00538655 -0.00165979
v 0.01892472 -0.00520428 -0.00168988
v -0.01892379 -0.00501885 0.00170000
v -0.02257500 -0.00501885 0.00170000
v -0.02257500 -0.00501885 -0.00170000
v -0.02257500 -0.00542568 -0.00165060
v -0.02257500 -0.00580888 -0.00150528
v -0.02257500 -0.00614616 -0.00127247
v -0.02257500 -0.00641792 -0.00096571
v -0.02257500 -0.00660837 -0.00060283
v -0.02257500 -0.00670645 -0.00020491
v -0.02257500 -0.00670645 0.00020491
v -0.02257500 -0.00660837 0.00060283
v -0.02257500 -0.00641792 0.00096571
v -0.02257500 -0.00614616 0.00127247
v -0.02257500 -0.00580888 0.00150528
v -0.02257500 -0.00542568 0.00165060
v -0.01892379 -0.00501885 -0.00170000
v -0.01892707 -0.00537113 -0.00166310
v -0.01893638 -0.00570903 -0.00155360
v -0.01895001 -0.00601526 -0.00137735
v -0.01896573 -0.00627946 -0.00114049
v -0.01898077 -0.00648842 -0.00085427
v -0.01899254 -0.00663341 -0.00053189
v -0.01899907 -0.00670857 -0.00018532
v -0.01899924 -0.00671035 0.00016930
v -0.01899299 -0.00663859 0.00051624
v -0.01898137 -0.00649611 0.00084118
v -0.01896646 -0.00629027 0.00112851
v -0.01895070 -0.00602831 0.00136785
v -0.01893688 -0.00572274 0.00154742
v -0.01892739 -0.00538655 0.00165979
v -0.01892472 -0.00520428 0.00168988
v 0.02260000 -0.00501885 -0.00300000
v 0.02582634 -0.00501885 -0.00300000
v 0.02585384 -0.00621097 -0.00275297
v 0.02583520 -0.00569529 -0.00292275
v 0.02582861 -0.00536062 -0.00298043
v 0.02591569 -0.00660991 -0.00254333
v 0.02604667 -0.00696282 -0.00228494
v 0.02622270 -0.00726175 -0.00199233
v 0.02649934 -0.00758321 -0.00155704
v 0.02682174 -0.00784091 -0.00101816
v 0.02706601 -0.00798165 -0.00047097
v 0.02712335 -0.00800918 -0.00023986
v 0.02714468 -0.00801885 0.00000000
v 0.02711318 -0.00800451 0.00029298
v 0.02703080 -0.00796373 0.00057240
v 0.02687318 -0.00787397 0.00092104
v 0.02659774 -0.00767204 0.00140040
v 0.02628987 -0.00735200 0.00188586
v 0.02602823 -0.00692353 0.00231781
v 0.02591034 -0.00658933 0.00255609
v 0.02585384 -0.00621097 0.00275297
v 0.02582634 -0.00501885 0.00300000
v 0.02582955 -0.00542614 0.00297226
v 0.02583891 -0.00582431 0.00288982
v 0.02260000 -0.00501885 0.00300000
v 0.02260000 -0.00573679 -0.00291283
v 0.02260000 -0.00641302 -0.00265637
v 0.02260000 -0.00700821 -0.00224553
v 0.02260000 -0.00748780 -0.00170419
v 0.02260000 -0.00782390 -0.00106381
v 0.02260000 -0.00799697 -0.00036161
v 0.02260000 -0.00799697 0.00036161
v 0.02260000 -0.00782390 0.00106381
v 0.02260000 -0.00748780 0.00170419
v 0.02260000 -0.00700821 0.00224553
v 0.02260000 -0.00641302 0.00265637
v 0.02260000 -0.00573679 0.00291283
v 0.00000000 -0.00001885 -0.02600000
v 0.00540570 -0.00001885 -0.02543184
v 0.01057515 -0.00001885 -0.02375218
v 0.01528242 -0.00001885 -0.02103444
v 0.01932177 -0.00001885 -0.01739740
v 0.02251666 -0.00001885 -0.01300000
v 0.02472747 -0.00001885 -0.00803444
v 0.02585757 -0.00001885 -0.00271774
v 0.02585757 -0.00001885 0.00271774
v 0.02472747 -0.00001885 0.00803444
v 0.02251666 -0.00001885 0.01300000
v 0.01932177 -0.00001885 0.01739740
v 0.01528242 -0.00001885 0.02103444
v 0.01057515 -0.00001885 0.02375218
v 0.00540570 -0.00001885 0.02543184
v 0.00000000 -0.00001885 0.02600000
v 0.00000000 -0.00201885 0.02600000
v 0.00300000 -0.00501885 0.02582634
v 0.00291723 -0.00431914 0.02583582
v 0.00267305 -0.00365686 0.02586223
v 0.00228181 -0.00307131 0.02589967
v 0.00176608 -0.00259376 0.02593995
v 0.00115106 -0.00224846 0.02597451
v 0.00058814 -0.00207706 0.02599335
v 0.00275297 -0.00621097 0.02585384
v 0.00292275 -0.00569529 0.02583520
v 0.00298043 -0.00536062 0.02582861
v 0.02585384 -0.00621097 0.00275297
v 0.02483742 -0.00621097 0.00768781
v 0.02288829 -0.00621097 0.01233395
v 0.02007963 -0.00621097 0.01651692
v 0.01651692 -0.00621097 0.02007963
v 0.01233395 -0.00621097 0.02288829
v 0.00768781 -0.00621097 0.02483742
v 0.02582634 -0.00501885 0.00300000
v 0.02582955 -0.00542614 0.00297226
v 0.02583891 -0.00582431 0.00288982
v 0.02582634 -0.00501885 -0.00300000
v 0.02583530 -0.00433856 -0.00292183
v 0.02586038 -0.00369239 -0.00269085
v 0.02589625 -0.00311742 -0.00232036
v 0.02593553 -0.00264150 -0.00182986
v 0.02597031 -0.00228811 -0.00124218
v 0.02599330 -0.00207746 -0.00059015
v 0.02599983 -0.00202026 0.00009144
v 0.02598858 -0.00211950 0.00077067
v 0.02596183 -0.00236990 0.00140808
v 0.02592517 -0.00275731 0.00197119
v 0.02588592 -0.00326366 0.00243298
v 0.02585225 -0.00386167 0.00276784
v 0.02583315 -0.00442586 0.00294081
v 0.02585384 -0.00621097 -0.00275297
v 0.02583520 -0.00569529 -0.00292275
v 0.02582861 -0.00536062 -0.00298043
v 0.00275297 -0.00621097 -0.02585384
v 0.00768781 -0.00621097 -0.02483742
v 0.01233395 -0.00621097 -0.02288829
v 0.01651692 -0.00621097 -0.02007963
v 0.02007963 -0.00621097 -0.01651692
v 0.02288829 -0.00621097 -0.01233395
v 0.02483742 -0.00621097 -0.00768781
v 0.00300000 -0.00501885 -0.02582634
v 0.00297226 -0.00542614 -0.02582955
v 0.00288982 -0.00582431 -0.02583891
v 0.00000000 -0.00201885 -0.02600000
v 0.00069971 -0.00210161 -0.02599058
v 0.00136199 -0.00234580 -0.02596430
v 0.00194754 -0.00273704 -0.02592695
v 0.00242510 -0.00325278 -0.02588665
v 0.00277039 -0.00386779 -0.02585198
v 0.00294178 -0.00443071 -0.02583304
v -0.00300000 -0.00501885 -0.02260000
v -0.00300000 -0.00501885 -0.02582634
v -0.00275297 -0.00621097 -0.02585384
v -0.00292275 -0.00569529 -0.02583520
v -0.00298043 -0.00536062 -0.02582861
v -0.00253155 -0.00662858 -0.02592076
v -0.00225712 -0.00699506 -0.02606255
v -0.00194600 -0.00730206 -0.02625181
v -0.00148280 -0.00762696 -0.02654627
v -0.00090616 -0.00787872 -0.02688083
v -0.00043253 -0.00798750 -0.02707787
v -0.00016913 -0.00801400 -0.02713384
v 0.00012519 -0.00801617 -0.02713867
v 0.00042242 -0.00798895 -0.02708084
v 0.00070272 -0.00793537 -0.02697780
v 0.00112067 -0.00780193 -0.02676476
v 0.00153025 -0.00759932 -0.02651632
v 0.00201632 -0.00724058 -0.02620769
v 0.00243710 -0.00676820 -0.02596511
v 0.00260821 -0.00650119 -0.02589009
v 0.00275297 -0.00621097 -0.02585384
v 0.00300000 -0.00501885 -0.02582634
v 0.00297226 -0.00542614 -0.02582955
v 0.00288982 -0.00582431 -0.02583891
v 0.00300000 -0.00501885 -0.02260000
v -0.00291283 -0.00573679 -0.02260000
v -0.00265637 -0.00641302 -0.02260000
v -0.00224553 -0.00700821 -0.02260000
v -0.00170419 -0.00748780 -0.02260000
v -0.00106381 -0.00782390 -0.02260000
v -0.00036161 -0.00799697 -0.02260000
v 0.00036161 -0.00799697 -0.02260000
v 0.00106381 -0.00782390 -0.02260000
v 0.00170419 -0.00748780 -0.02260000
v 0.00224553 -0.00700821 -0.02260000
v 0.00265637 -0.00641302 -0.02260000
v 0.00291283 -0.00573679 -0.02260000
v -0.02260000 -0.00501885 0.00300000
v -0.02582634 -0.00501885 0.00300000
v -0.02585384 -0.00621097 0.00275297
v -0.02583520 -0.00569529 0.00292275
v -0.02582861 -0.00536062 0.00298043
v -0.02591569 -0.00660991 0.00254333
v -0.02604667 -0.00696282 0.00228494
v -0.02622270 -0.00726175 0.00199233
v -0.02649934 -0.00758321 0.00155704
v -0.02682174 -0.00784091 0.00101816
v -0.02706601 -0.00798165 0.00047097
v -0.02712335 -0.00800918 0.00023986
v -0.02714468 -0.00801885 0.00000000
v -0.02711318 -0.00800451 -0.00029298
v -0.02703080 -0.00796373 -0.00057240
v -0.02687318 -0.00787397 -0.00092104
v -0.02659774 -0.00767204 -0.00140040
v -0.02628987 -0.00735200 -0.00188586
v -0.02602823 -0.00692353 -0.00231781
v -0.02591034 -0.00658933 -0.00255609
v -0.02585384 -0.00621097 -0.00275297
v -0.02582634 -0.00501885 -0.00300000
v -0.02582955 -0.00542614 -0.00297226
v -0.02583891 -0.00582431 -0.00288982
v -0.02260000 -0.00501885 -0.00300000
v -0.02260000 -0.00573679 0.00291283
v -0.02260000 -0.00641302 0.00265637
v -0.02260000 -0.00700821 0.00224553
v -0.02260000 -0.00748780 0.00170419
v -0.02260000 -0.00782390 0.00106381
v -0.02260000 -0.00799697 0.00036161
v -0.02260000 -0.00799697 -0.00036161
v -0.02260000 -0.00782390 -0.00106381
v -0.02260000 -0.00748780 -0.00170419
v -0.02260000 -0.00700821 -0.00224553
v -0.02260000 -0.00641302 -0.00265637
v -0.02260000 -0.00573679 -0.00291283
v 0.00300000 -0.00501885 0.02260000
v 0.00300000 -0.00501885 0.02582634
v 0.00275297 -0.00621097 0.02585384
v 0.00292275 -0.00569529 0.02583520
v 0.00298043 -0.00536062 0.02582861
v 0.00253155 -0.00662858 0.02592076
v 0.00225712 -0.00699506 0.02606255
v 0.00194600 -0.00730206 0.02625181
v 0.00148280 -0.00762696 0.02654627
v 0.00090616 -0.00787872 0.02688083
v 0.00043253 -0.00798750 0.02707787
v 0.00016913 -0.00801400 0.02713384
v -0.00012519 -0.00801617 0.02713867
v -0.00042242 -0.00798895 0.02708084
v -0.00070272 -0.00793537 0.02697780
v -0.00112067 -0.00780193 0.02676476
v -0.00153025 -0.00759932 0.02651632
v -0.00201632 -0.00724058 0.02620769
v -0.00243710 -0.00676820 0.02596511
v -0.00260821 -0.00650119 0.02589009
v -0.00275297 -0.00621097 0.02585384
v -0.00300000 -0.00501885 0.02582634
v -0.00297226 -0.00542614 0.02582955
v -0.00288982 -0.00582431 0.02583891
v -0.00300000 -0.00501885 0.02260000
v 0.00291283 -0.00573679 0.02260000
v 0.00265637 -0.00641302 0.02260000
v 0.00224553 -0.00700821 0.02260000
v 0.00170419 -0.00748780 0.02260000
v 0.00106381 -0.00782390 0.02260000
v 0.00036161 -0.00799697 0.02260000
v -0.00036161 -0.00799697 0.02260000
v -0.00106381 -0.00782390 0.02260000
v -0.00170419 -0.00748780 0.02260000
v -0.00224553 -0.00700821 0.02260000
v -0.00265637 -0.00641302 0.02260000
v -0.00291283 -0.00573679 0.02260000
v -0.02623857 -0.02411885 0.00542911
v -0.02623857 -0.02274278 0.00526203
v -0.02623857 -0.02144669 0.00477048
v -0.02623857 -0.02030589 0.00398305
v -0.02623857 -0.01938669 0.00294548
v -0.02623857 -0.01874250 0.00171809
v -0.02623857 -0.01841077 0.00037220
v -0.02623857 -0.01841077 -0.00101398
v -0.02623857 -0.01874250 -0.00235987
v -0.02623857 -0.01938669 -0.00358726
v -0.02623857 -0.02030589 -0.00462483
v -0.02623857 -0.02144669 -0.00541226
v -0.02623857 -0.02274278 -0.00590381
v -0.02623857 -0.02411885 -0.00607089
v -0.02123857 -0.02411885 0.00542911
v -0.02123857 -0.02411885 -0.00607089
v -0.02123857 -0.02274278 -0.00590381
v -0.02123857 -0.02144669 -0.00541226
v -0.02123857 -0.02030589 -0.00462483
v -0.02123857 -0.01938669 -0.00358726
v -0.02123857 -0.01874250 -0.00235987
v -0.02123857 -0.01841077 -0.00101398
v -0.02123857 -0.01841077 0.00037220
v -0.02123857 -0.01874250 0.00171809
v -0.02123857 -0.01938669 0.00294548
v -0.02123857 -0.02030589 0.00398305
v -0.02123857 -0.02144669 0.00477048
v -0.02123857 -0.02274278 0.00526203
v -0.02623857 -0.02411885 -0.00607089
v -0.02623857 -0.02549491 -0.00590381
v -0.02623857 -0.02679100 -0.00541226
v -0.02623857 -0.02793180 -0.00462483
v -0.02623857 -0.02885100 -0.00358726
v -0.02623857 -0.02949519 -0.00235987
v -0.02623857 -0.02982692 -0.00101398
v -0.02623857 -0.02982692 0.00037220
v -0.02623857 -0.02949519 0.00171809
v -0.02623857 -0.02885100 0.00294548
v -0.02623857 -0.02793180 0.00398305
v -0.02623857 -0.02679100 0.00477048
v -0.02623857 -0.02549491 0.00526203
v -0.02623857 -0.02411885 0.00542911
v -0.02623857 -0.02274278 0.00526203
v -0.02623857 -0.02144669 0.00477048
v -0.02623857 -0.02030589 0.00398305
v -0.02623857 -0.01938669 0.00294548
v -0.02623857 -0.01874250 0.00171809
v -0.02623857 -0.01841077 0.00037220
v -0.02623857 -0.01841077 -0.00101398
v -0.02623857 -0.01874250 -0.00235987
v -0.02623857 -0.01938669 -0.00358726
v -0.02623857 -0.02030589 -0.00462483
v -0.02623857 -0.02144669 -0.00541226
v -0.02623857 -0.02274278 -0.00590381
v -0.00300000 -0.00501885 0.02260000
v -0.00291283 -0.00430090 0.02260000
v -0.00265637 -0.00362468 0.02260000
v -0.00224553 -0.00302948 0.02260000
v -0.00170419 -0.00254990 0.02260000
v -0.00106381 -0.00221380 0.02260000
v -0.00036161 -0.00204072 0.02260000
v 0.00036161 -0.00204072 0.02260000
v 0.00106381 -0.00221380 0.02260000
v 0.00170419 -0.00254990 0.02260000
v 0.00224553 -0.00302948 0.02260000
v 0.00265637 -0.00362468 0.02260000
v 0.00291283 -0.00430090 0.02260000
v 0.00300000 -0.00501885 0.02260000
v 0.00291283 -0.00573679 0.02260000
v 0.00265637 -0.00641302 0.02260000
v 0.00224553 -0.00700821 0.02260000
v 0.00170419 -0.00748780 0.02260000
v 0.00106381 -0.00782390 0.02260000
v 0.00036161 -0.00799697 0.02260000
v -0.00036161 -0.00799697 0.02260000
v -0.00106381 -0.00782390 0.02260000
v -0.00170419 -0.00748780 0.02260000
v -0.00224553 -0.00700821 0.02260000
v -0.00265637 -0.00641302 0.02260000
v -0.00291283 -0.00573679 0.02260000
v -0.00172500 -0.00501885 0.02260000
v -0.00167487 -0.00543167 0.02260000
v -0.00152741 -0.00582049 0.02260000
v -0.00129118 -0.00616273 0.02260000
v -0.00097991 -0.00643849 0.02260000
v -0.00061169 -0.00663175 0.02260000
v -0.00020793 -0.00673127 0.02260000
v 0.00020793 -0.00673127 0.02260000
v 0.00061169 -0.00663175 0.02260000
v 0.00097991 -0.00643849 0.02260000
v 0.00129118 -0.00616273 0.02260000
v 0.00152741 -0.00582049 0.02260000
v 0.00167487 -0.00543167 0.02260000
v 0.00172500 -0.00501885 0.02260000
v 0.00167487 -0.00460603 0.02260000
v 0.00152741 -0.00421720 0.02260000
v 0.00129118 -0.00387496 0.02260000
v 0.00097991 -0.00359920 0.02260000
v 0.00061169 -0.00340594 0.02260000
v 0.00020793 -0.00330642 0.02260000
v -0.00020793 -0.00330642 0.02260000
v -0.00061169 -0.00340594 0.02260000
v -0.00097991 -0.00359920 0.02260000
v -0.00129118 -0.00387496 0.02260000
v -0.00152741 -0.00421720 0.02260000
v -0.00167487 -0.00460603 0.02260000
v -0.02260000 -0.00501885 -0.00300000
v -0.02260000 -0.00430090 -0.00291283
v -0.02260000 -0.00362468 -0.00265637
v -0.02260000 -0.00302948 -0.00224553
v -0.02260000 -0.00254990 -0.00170419
v -0.02260000 -0.00221380 -0.00106381
v -0.02260000 -0.00204072 -0.00036161
v -0.02260000 -0.00204072 0.00036161
v -0.02260000 -0.00221380 0.00106381
v -0.02260000 -0.00254990 0.00170419
v -0.02260000 -0.00302948 0.00224553
v -0.02260000 -0.00362468 0.00265637
v -0.02260000 -0.00430090 0.00291283
v -0.02260000 -0.00501885 0.00300000
v -0.02260000 -0.00573679 0.00291283
v -0.02260000 -0.00641302 0.00265637
v -0.02260000 -0.00700821 0.00224553
v -0.02260000 -0.00748780 0.00170419
v -0.02260000 -0.00782390 0.00106381
v -0.02260000 -0.00799697 0.00036161
v -0.02260000 -0.00799697 -0.00036161
v -0.02260000 -0.00782390 -0.00106381
v -0.02260000 -0.00748780 -0.00170419
v -0.02260000 -0.00700821 -0.00224553
v -0.02260000 -0.00641302 -0.00265637
v -0.02260000 -0.00573679 -0.00291283
v -0.02260000 -0.00501885 -0.00172500
v -0.02260000 -0.00543167 -0.00167487
v -0.02260000 -0.00582049 -0.00152741
v -0.02260000 -0.00616273 -0.00129118
v -0.02260000 -0.00643849 -0.00097991
v -0.02260000 -0.00663175 -0.00061169
v -0.02260000 -0.00673127 -0.00020793
v -0.02260000 -0.00673127 0.00020793
v -0.02260000 -0.00663175 0.00061169
v -0.02260000 -0.00643849 0.00097991
v -0.02260000 -0.00616273 0.00129118
v -0.02260000 -0.00582049 0.00152741
v -0.02260000 -0.00543167 0.00167487
v -0.02260000 -0.00501885 0.00172500
v -0.02260000 -0.00460603 0.00167487
v -0.02260000 -0.00421720 0.00152741
v -0.02260000 -0.00387496 0.00129118
v -0.02260000 -0.00359920 0.00097991
v -0.02260000 -0.00340594 0.00061169
v -0.02260000 -0.00330642 0.00020793
v -0.02260000 -0.00330642 -0.00020793
v -0.02260000 -0.00340594 -0.00061169
v -0.02260000 -0.00359920 -0.00097991
v -0.02260000 -0.00387496 -0.00129118
v -0.02260000 -0.00421720 -0.00152741
v -0.02260000 -0.00460603 -0.00167487
v 0.00300000 -0.00501885 -0.02260000
v 0.00291283 -0.00430090 -0.02260000
v 0.00265637 -0.00362468 -0.02260000
v 0.00224553 -0.00302948 -0.02260000
v 0.00170419 -0.00254990 -0.02260000
v 0.00106381 -0.00221380 -0.02260000
v 0.00036161 -0.00204072 -0.02260000
v -0.00036161 -0.00204072 -0.02260000
v -0.00106381 -0.00221380 -0.02260000
v -0.00170419 -0.00254990 -0.02260000
v -0.00224553 -0.00302948 -0.02260000
v -0.00265637 -0.00362468 -0.02260000
v -0.00291283 -0.00430090 -0.02260000
v -0.00300000 -0.00501885 -0.02260000
v -0.00291283 -0.00573679 -0.02260000
v -0.00265637 -0.00641302 -0.02260000
v -0.00224553 -0.00700821 -0.02260000
v -0.00170419 -0.00748780 -0.02260000
v -0.00106381 -0.00782390 -0.02260000
v -0.00036161 -0.00799697 -0.02260000
v 0.00036161 -0.00799697 -0.02260000
v 0.00106381 -0.00782390 -0.02260000
v 0.00170419 -0.00748780 -0.02260000
v 0.00224553 -0.00700821 -0.02260000
v 0.00265637 -0.00641302 -0.02260000
v 0.00291283 -0.00573679 -0.02260000
v 0.00172500 -0.00501885 -0.02260000
v 0.00167487 -0.00543167 -0.02260000
v 0.00152741 -0.00582049 -0.02260000
v 0.00129118 -0.00616273 -0.02260000
v 0.00097991 -0.00643849 -0.02260000
v 0.00061169 -0.00663175 -0.02260000
v 0.00020793 -0.00673127 -0.02260000
v -0.00020793 -0.00673127 -0.02260000
v -0.00061169 -0.00663175 -0.02260000
v -0.00097991 -0.00643849 -0.02260000
v -0.00129118 -0.00616273 -0.02260000
v -0.00152741 -0.00582049 -0.02260000
v -0.00167487 -0.00543167 -0.02260000
v -0.00172500 -0.00501885 -0.02260000
v -0.00167487 -0.00460603 -0.02260000
v -0.00152741 -0.00421720 -0.02260000
v -0.00129118 -0.00387496 -0.02260000
v -0.00097991 -0.00359920 -0.02260000
v -0.00061169 -0.00340594 -0.02260000
v -0.00020793 -0.00330642 -0.02260000
v 0.00020793 -0.00330642 -0.02260000
v 0.00061169 -0.00340594 -0.02260000
v 0.00097991 -0.00359920 -0.02260000
v 0.00129118 -0.00387496 -0.02260000
v 0.00152741 -0.00421720 -0.02260000
v 0.00167487 -0.00460603 -0.02260000
v 0.02260000 -0.00501885 0.00300000
v 0.02260000 -0.00430090 0.00291283
v 0.02260000 -0.00362468 0.00265637
v 0.02260000 -0.00302948 0.00224553
v 0.02260000 -0.00254990 0.00170419
v 0.02260000 -0.00221380 0.00106381
v 0.02260000 -0.00204072 0.00036161
v 0.02260000 -0.00204072 -0.00036161
v 0.02260000 -0.00221380 -0.00106381
v 0.02260000 -0.00254990 -0.00170419
v 0.02260000 -0.00302948 -0.00224553
v 0.02260000 -0.00362468 -0.00265637
v 0.02260000 -0.00430090 -0.00291283
v 0.02260000 -0.00501885 -0.00300000
v 0.02260000 -0.00573679 -0.00291283
v 0.02260000 -0.00641302 -0.00265637
v 0.02260000 -0.00700821 -0.00224553
v 0.02260000 -0.00748780 -0.00170419
v 0.02260000 -0.00782390 -0.00106381
v 0.02260000 -0.00799697 -0.00036161
v 0.02260000 -0.00799697 0.00036161
v 0.02260000 -0.00782390 0.00106381
v 0.02260000 -0.00748780 0.00170419
v 0.02260000 -0.00700821 0.00224553
v 0.02260000 -0.00641302 0.00265637
v 0.02260000 -0.00573679 0.00291283
v 0.02260000 -0.00501885 0.00172500
v 0.02260000 -0.00543167 0.00167487
v 0.02260000 -0.00582049 0.00152741
v 0.02260000 -0.00616273 0.00129118
v 0.02260000 -0.00643849 0.00097991
v 0.02260000 -0.00663175 0.00061169
v 0.02260000 -0.00673127 0.00020793
v 0.02260000 -0.00673127 -0.00020793
v 0.02260000 -0.00663175 -0.00061169
v 0.02260000 -0.00643849 -0.00097991
v 0.02260000 -0.00616273 -0.00129118
v 0.02260000 -0.00582049 -0.00152741
v 0.02260000 -0.00543167 -0.00167487
v 0.02260000 -0.00501885 -0.00172500
v 0.02260000 -0.00460603 -0.00167487
v 0.02260000 -0.00421720 -0.00152741
v 0.02260000 -0.00387496 -0.00129118
v 0.02260000 -0.00359920 -0.00097991
v 0.02260000 -0.00340594 -0.00061169
v 0.02260000 -0.00330642 -0.00020793
v 0.02260000 -0.00330642 0.00020793
v 0.02260000 -0.00340594 0.00061169
v 0.02260000 -0.00359920 0.00097991
v 0.02260000 -0.00387496 0.00129118
v 0.02260000 -0.00421720 0.00152741
v 0.02260000 -0.00460603 0.00167487
v -0.02623857 -0.02411885 0.00542911
v -0.02123857 -0.02411885 0.00542911
v -0.02623857 -0.02411885 -0.00607089
v -0.02623857 -0.02549491 -0.00590381
v -0.02623857 -0.02679100 -0.00541226
v -0.02623857 -0.02793180 -0.00462483
v -0.02623857 -0.02885100 -0.00358726
v -0.02623857 -0.02949519 -0.00235987
v -0.02623857 -0.02982692 -0.00101398
v -0.02623857 -0.02982692 0.00037220
v -0.02623857 -0.02949519 0.00171809
v -0.02623857 -0.02885100 0.00294548
v -0.02623857 -0.02793180 0.00398305
v -0.02623857 -0.02679100 0.00477048
v -0.02623857 -0.02549491 0.00526203
v -0.02123857 -0.02411885 -0.00607089
v -0.02123857 -0.02549491 0.00526203
v -0.02123857 -0.02679100 0.00477048
v -0.02123857 -0.02793180 0.00398305
v -0.02123857 -0.02885100 0.00294548
v -0.02123857 -0.02949519 0.00171809
v -0.02123857 -0.02982692 0.00037220
v -0.02123857 -0.02982692 -0.00101398
v -0.02123857 -0.02949519 -0.00235987
v -0.02123857 -0.02885100 -0.00358726
v -0.02123857 -0.02793180 -0.00462483
v -0.02123857 -0.02679100 -0.00541226
v -0.02123857 -0.02549491 -0.00590381
v 0.00000000 -0.00201885 0.02600000
v -0.00069971 -0.00210161 0.02599058
v -0.00136199 -0.00234580 0.02596430
v -0.00194754 -0.00273704 0.02592695
v -0.00242510 -0.00325278 0.02588665
v -0.00277039 -0.00386779 0.02585198
v -0.00294178 -0.00443071 0.02583304
v -0.00300000 -0.00501885 0.02582634
v 0.00300000 -0.00501885 0.02582634
v 0.00291723 -0.00431914 0.02583582
v 0.00267305 -0.00365686 0.02586223
v 0.00228181 -0.00307131 0.02589967
v 0.00176608 -0.00259376 0.02593995
v 0.00115106 -0.00224846 0.02597451
v 0.00058814 -0.00207706 0.02599335
v 0.00300000 -0.00501885 0.02260000
v -0.00300000 -0.00501885 0.02260000
v -0.00291283 -0.00430090 0.02260000
v -0.00265637 -0.00362468 0.02260000
v -0.00224553 -0.00302948 0.02260000
v -0.00170419 -0.00254990 0.02260000
v -0.00106381 -0.00221380 0.02260000
v -0.00036161 -0.00204072 0.02260000
v 0.00036161 -0.00204072 0.02260000
v 0.00106381 -0.00221380 0.02260000
v 0.00170419 -0.00254990 0.02260000
v 0.00224553 -0.00302948 0.02260000
v 0.00265637 -0.00362468 0.02260000
v 0.00291283 -0.00430090 0.02260000
v -0.02582634 -0.00501885 0.00300000
v -0.02583530 -0.00433856 0.00292183
v -0.02586038 -0.00369239 0.00269085
v -0.02589625 -0.00311742 0.00232036
v -0.02593553 -0.00264150 0.00182986
v -0.02597031 -0.00228811 0.00124218
v -0.02599330 -0.00207746 0.00059015
v -0.02599983 -0.00202026 -0.00009144
v -0.02598858 -0.00211950 -0.00077067
v -0.02596183 -0.00236990 -0.00140808
v -0.02592517 -0.00275731 -0.00197119
v -0.02588592 -0.00326366 -0.00243298
v -0.02585225 -0.00386167 -0.00276784
v -0.02583315 -0.00442586 -0.00294081
v -0.02582634 -0.00501885 -0.00300000
v -0.02260000 -0.00501885 0.00300000
v -0.02260000 -0.00501885 -0.00300000
v -0.02260000 -0.00430090 -0.00291283
v -0.02260000 -0.00362468 -0.00265637
v -0.02260000 -0.00302948 -0.00224553
v -0.02260000 -0.00254990 -0.00170419
v -0.02260000 -0.00221380 -0.00106381
v -0.02260000 -0.00204072 -0.00036161
v -0.02260000 -0.00204072 0.00036161
v -0.02260000 -0.00221380 0.00106381
v -0.02260000 -0.00254990 0.00170419
v -0.02260000 -0.00302948 0.00224553
v -0.02260000 -0.00362468 0.00265637
v -0.02260000 -0.00430090 0.00291283
v 0.00000000 -0.00201885 -0.02600000
v 0.00069971 -0.00210161 -0.02599058
v 0.00136199 -0.00234580 -0.02596430
v 0.00194754 -0.00273704 -0.02592695
v 0.00242510 -0.00325278 -0.02588665
v 0.00277039 -0.00386779 -0.02585198
v 0.00294178 -0.00443071 -0.02583304
v 0.00300000 -0.00501885 -0.02582634
v -0.00300000 -0.00501885 -0.02582634
v -0.00291723 -0.00431914 -0.02583582
v -0.00267305 -0.00365686 -0.02586223
v -0.00228181 -0.00307131 -0.02589967
v -0.00176608 -0.00259376 -0.02593995
v -0.00115106 -0.00224846 -0.02597451
v -0.00058814 -0.00207706 -0.02599335
v -0.00300000 -0.00501885 -0.02260000
v 0.00300000 -0.00501885 -0.02260000
v 0.00291283 -0.00430090 -0.02260000
v 0.00265637 -0.00362468 -0.02260000
v 0.00224553 -0.00302948 -0.02260000
v 0.00170419 -0.00254990 -0.02260000
v 0.00106381 -0.00221380 -0.02260000
v 0.00036161 -0.00204072 -0.02260000
v -0.00036161 -0.00204072 -0.02260000
v -0.00106381 -0.00221380 -0.02260000
v -0.00170419 -0.00254990 -0.02260000
v -0.00224553 -0.00302948 -0.02260000
v -0.00265637 -0.00362468 -0.02260000
v -0.00291283 -0.00430090 -0.02260000
v 0.00000000 -0.00001885 0.02600000
v 0.00000000 -0.00201885 0.02600000
v -0.00540570 -0.00001885 0.02543184
v -0.01057515 -0.00001885 0.02375218
v -0.01528242 -0.00001885 0.02103444
v -0.01932177 -0.00001885 0.01739740
v -0.02251666 -0.00001885 0.01300000
v -0.02472747 -0.00001885 0.00803444
v -0.02585757 -0.00001885 0.00271774
v -0.02585757 -0.00001885 -0.00271774
v -0.02472747 -0.00001885 -0.00803444
v -0.02251666 -0.00001885 -0.01300000
v -0.01932177 -0.00001885 -0.01739740
v -0.01528242 -0.00001885 -0.02103444
v -0.01057515 -0.00001885 -0.02375218
v -0.00540570 -0.00001885 -0.02543184
v 0.00000000 -0.00001885 -0.02600000
v 0.00000000 -0.00201885 -0.02600000
v -0.00300000 -0.00501885 -0.02582634
v -0.00291723 -0.00431914 -0.02583582
v -0.00267305 -0.00365686 -0.02586223
v -0.00228181 -0.00307131 -0.02589967
v -0.00176608 -0.00259376 -0.02593995
v -0.00115106 -0.00224846 -0.02597451
v -0.00058814 -0.00207706 -0.02599335
v -0.00275297 -0.00621097 -0.02585384
v -0.00292275 -0.00569529 -0.02583520
v -0.00298043 -0.00536062 -0.02582861
v -0.02585384 -0.00621097 -0.00275297
v -0.02483742 -0.00621097 -0.00768781
v -0.02288829 -0.00621097 -0.01233395
v -0.02007963 -0.00621097 -0.01651692
v -0.01651692 -0.00621097 -0.02007963
v -0.01233395 -0.00621097 -0.02288829
v -0.00768781 -0.00621097 -0.02483742
v -0.02582634 -0.00501885 -0.00300000
v -0.02582955 -0.00542614 -0.00297226
v -0.02583891 -0.00582431 -0.00288982
v -0.02582634 -0.00501885 0.00300000
v -0.02583530 -0.00433856 0.00292183
v -0.02586038 -0.00369239 0.00269085
v -0.02589625 -0.00311742 0.00232036
v -0.02593553 -0.00264150 0.00182986
v -0.02597031 -0.00228811 0.00124218
v -0.02599330 -0.00207746 0.00059015
v -0.02599983 -0.00202026 -0.00009144
v -0.02598858 -0.00211950 -0.00077067
v -0.02596183 -0.00236990 -0.00140808
v -0.02592517 -0.00275731 -0.00197119
v -0.02588592 -0.00326366 -0.00243298
v -0.02585225 -0.00386167 -0.00276784
v -0.02583315 -0.00442586 -0.00294081
v -0.02585384 -0.00621097 0.00275297
v -0.02583520 -0.00569529 0.00292275
v -0.02582861 -0.00536062 0.00298043
v -0.00275297 -0.00621097 0.02585384
v -0.00768781 -0.00621097 0.02483742
v -0.01233395 -0.00621097 0.02288829
v -0.01651692 -0.00621097 0.02007963
v -0.02007963 -0.00621097 0.01651692
v -0.02288829 -0.00621097 0.01233395
v -0.02483742 -0.00621097 0.00768781
v -0.00300000 -0.00501885 0.02582634
v -0.00297226 -0.00542614 0.02582955
v -0.00288982 -0.00582431 0.02583891
v -0.00069971 -0.00210161 0.02599058
v -0.00136199 -0.00234580 0.02596430
v -0.00194754 -0.00273704 0.02592695
v -0.00242510 -0.00325278 0.02588665
v -0.00277039 -0.00386779 0.02585198
v -0.00294178 -0.00443071 0.02583304
v 0.02582634 -0.00501885 -0.00300000
v 0.02583530 -0.00433856 -0.00292183
v 0.02586038 -0.00369239 -0.00269085
v 0.02589625 -0.00311742 -0.00232036
v 0.02593553 -0.00264150 -0.00182986
v 0.02597031 -0.00228811 -0.00124218
v 0.02599330 -0.00207746 -0.00059015
v 0.02599983 -0.00202026 0.00009144
v 0.02598858 -0.00211950 0.00077067
v 0.02596183 -0.00236990 0.00140808
v 0.02592517 -0.00275731 0.00197119
v 0.02588592 -0.00326366 0.00243298
v 0.02585225 -0.00386167 0.00276784
v 0.02583315 -0.00442586 0.00294081
v 0.02582634 -0.00501885 0.00300000
v 0.02260000 -0.00501885 -0.00300000
v 0.02260000 -0.00501885 0.00300000
v 0.02260000 -0.00430090 0.00291283
v 0.02260000 -0.00362468 0.00265637
v 0.02260000 -0.00302948 0.00224553
v 0.02260000 -0.00254990 0.00170419
v 0.02260000 -0.00221380 0.00106381
v 0.02260000 -0.00204072 0.00036161
v 0.02260000 -0.00204072 -0.00036161
v 0.02260000 -0.00221380 -0.00106381
v 0.02260000 -0.00254990 -0.00170419
v 0.02260000 -0.00302948 -0.00224553
v 0.02260000 -0.00362468 -0.00265637
v 0.02260000 -0.00430090 -0.00291283
v -0.02257500 -0.00501885 0.00170000
v -0.02257500 -0.00461201 0.00165060
v -0.02257500 -0.00422882 0.00150528
v -0.02257500 -0.00389154 0.00127247
v -0.02257500 -0.00361977 0.00096571
v -0.02257500 -0.00342932 0.00060283
v -0.02257500 -0.00333124 0.00020491
v -0.02257500 -0.00333124 -0.00020491
v -0.02257500 -0.00342932 -0.00060283
v -0.02257500 -0.00361977 -0.00096571
v -0.02257500 -0.00389154 -0.00127247
v -0.02257500 -0.00422882 -0.00150528
v -0.02257500 -0.00461201 -0.00165060
v -0.02257500 -0.00501885 -0.00170000
v -0.01892379 -0.00501885 0.00170000
v -0.01892707 -0.00466657 0.00166310
v -0.01893638 -0.00432866 0.00155360
v -0.01895001 -0.00402244 0.00137735
v -0.01896573 -0.00375824 0.00114049
v -0.01898077 -0.00354927 0.00085427
v -0.01899254 -0.00340428 0.00053189
v -0.01899907 -0.00332912 0.00018532
v -0.01899924 -0.00332734 -0.00016930
v -0.01899299 -0.00339910 -0.00051624
v -0.01898137 -0.00354158 -0.00084118
v -0.01896646 -0.00374743 -0.00112851
v -0.01895070 -0.00400939 -0.00136785
v -0.01893688 -0.00431496 -0.00154742
v -0.01892739 -0.00465115 -0.00165979
v -0.01892472 -0.00483342 -0.00168988
v -0.01892379 -0.00501885 -0.00170000
v 0.02257500 -0.00501885 -0.00170000
v 0.02257500 -0.00461201 -0.00165060
v 0.02257500 -0.00422882 -0.00150528
v 0.02257500 -0.00389154 -0.00127247
v 0.02257500 -0.00361977 -0.00096571
v 0.02257500 -0.00342932 -0.00060283
v 0.02257500 -0.00333124 -0.00020491
v 0.02257500 -0.00333124 0.00020491
v 0.02257500 -0.00342932 0.00060283
v 0.02257500 -0.00361977 0.00096571
v 0.02257500 -0.00389154 0.00127247
v 0.02257500 -0.00422882 0.00150528
v 0.02257500 -0.00461201 0.00165060
v 0.02257500 -0.00501885 0.00170000
v 0.01892379 -0.00501885 -0.00170000
v 0.01892707 -0.00466657 -0.00166310
v 0.01893638 -0.00432866 -0.00155360
v 0.01895001 -0.00402244 -0.00137735
v 0.01896573 -0.00375824 -0.00114049
v 0.01898077 -0.00354927 -0.00085427
v 0.01899254 -0.00340428 -0.00053189
v 0.01899907 -0.00332912 -0.00018532
v 0.01899924 -0.00332734 0.00016930
v 0.01899299 -0.00339910 0.00051624
v 0.01898137 -0.00354158 0.00084118
v 0.01896646 -0.00374743 0.00112851
v 0.01895070 -0.00400939 0.00136785
v 0.01893688 -0.00431496 0.00154742
v 0.01892739 -0.00465115 0.00165979
v 0.01892472 -0.00483342 0.00168988
v 0.01892379 -0.00501885 0.00170000
v 0.00170000 -0.00501885 0.02257500
v 0.00165060 -0.00461201 0.02257500
v 0.00150528 -0.00422882 0.02257500
v 0.00127247 -0.00389154 0.02257500
v 0.00096571 -0.00361977 0.02257500
v 0.00060283 -0.00342932 0.02257500
v 0.00020491 -0.00333124 0.02257500
v -0.00020491 -0.00333124 0.02257500
v -0.00060283 -0.00342932 0.02257500
v -0.00096571 -0.00361977 0.02257500
v -0.00127247 -0.00389154 0.02257500
v -0.00150528 -0.00422882 0.02257500
v -0.00165060 -0.00461201 0.02257500
v -0.00170000 -0.00501885 0.02257500
v 0.00170000 -0.00501885 0.01892379
v 0.00165313 -0.00462246 0.01892795
v 0.00151479 -0.00424718 0.01893952
v 0.00129307 -0.00391529 0.01895595
v 0.00099997 -0.00364430 0.01897364
v 0.00065214 -0.00344891 0.01898880
v 0.00033367 -0.00335204 0.01899703
v 0.00000000 -0.00331885 0.01900000
v -0.00039639 -0.00336572 0.01899586
v -0.00077167 -0.00350406 0.01898432
v -0.00110356 -0.00372578 0.01896792
v -0.00137455 -0.00401887 0.01895022
v -0.00156994 -0.00436671 0.01893503
v -0.00166680 -0.00468518 0.01892677
v -0.00170000 -0.00501885 0.01892379
v 0.00000000 -0.00001885 -0.02600000
v 0.00540570 -0.00001885 -0.02543184
v 0.01057515 -0.00001885 -0.02375218
v 0.01528242 -0.00001885 -0.02103444
v 0.01932177 -0.00001885 -0.01739740
v 0.02251666 -0.00001885 -0.01300000
v 0.02472747 -0.00001885 -0.00803444
v 0.02585757 -0.00001885 -0.00271774
v 0.02585757 -0.00001885 0.00271774
v 0.02472747 -0.00001885 0.00803444
v 0.02251666 -0.00001885 0.01300000
v 0.01932177 -0.00001885 0.01739740
v 0.01528242 -0.00001885 0.02103444
v 0.01057515 -0.00001885 0.02375218
v 0.00540570 -0.00001885 0.02543184
v 0.00000000 -0.00001885 0.02600000
v -0.00540570 -0.00001885 0.02543184
v -0.01057515 -0.00001885 0.02375218
v -0.01528242 -0.00001885 0.02103444
v -0.01932177 -0.00001885 0.01739740
v -0.02251666 -0.00001885 0.01300000
v -0.02472747 -0.00001885 0.00803444
v -0.02585757 -0.00001885 0.00271774
v -0.02585757 -0.00001885 -0.00271774
v -0.02472747 -0.00001885 -0.00803444
v -0.02251666 -0.00001885 -0.01300000
v -0.01932177 -0.00001885 -0.01739740
v -0.01528242 -0.00001885 -0.02103444
v -0.01057515 -0.00001885 -0.02375218
v -0.00540570 -0.00001885 -0.02543184
v 0.00000000 -0.00001885 0.01900000
v 0.00454700 -0.00001885 0.01844789
v 0.00882974 -0.00001885 0.01682366
v 0.01259933 -0.00001885 0.01422170
v 0.01563669 -0.00001885 0.01079323
v 0.01776531 -0.00001885 0.00673749
v 0.01886147 -0.00001885 0.00229020
v 0.01886147 -0.00001885 -0.00229020
v 0.01776531 -0.00001885 -0.00673749
v 0.01563669 -0.00001885 -0.01079323
v 0.01259933 -0.00001885 -0.01422170
v 0.00882974 -0.00001885 -0.01682366
v 0.00454700 -0.00001885 -0.01844789
v 0.00000000 -0.00001885 -0.01900000
v -0.00454700 -0.00001885 -0.01844789
v -0.00882974 -0.00001885 -0.01682366
v -0.01259933 -0.00001885 -0.01422170
v -0.01563669 -0.00001885 -0.01079323
v -0.01776531 -0.00001885 -0.00673749
v -0.01886147 -0.00001885 -0.00229020
v -0.01886147 -0.00001885 0.00229020
v -0.01776531 -0.00001885 0.00673749
v -0.01563669 -0.00001885 0.01079323
v -0.01259933 -0.00001885 0.01422170
v -0.00882974 -0.00001885 0.01682366
v -0.00454700 -0.00001885 0.01844789
v -0.00170000 -0.00501885 -0.02257500
v -0.00165060 -0.00461201 -0.02257500
v -0.00150528 -0.00422882 -0.02257500
v -0.00127247 -0.00389154 -0.02257500
v -0.00096571 -0.00361977 -0.02257500
v -0.00060283 -0.00342932 -0.02257500
v -0.00020491 -0.00333124 -0.02257500
v 0.00020491 -0.00333124 -0.02257500
v 0.00060283 -0.00342932 -0.02257500
v 0.00096571 -0.00361977 -0.02257500
v 0.00127247 -0.00389154 -0.02257500
v 0.00150528 -0.00422882 -0.02257500
v 0.00165060 -0.00461201 -0.02257500
v 0.00170000 -0.00501885 -0.02257500
v -0.00170000 -0.00501885 -0.01892379
v -0.00165313 -0.00462246 -0.01892795
v -0.00151479 -0.00424718 -0.01893952
v -0.00129307 -0.00391529 -0.01895595
v -0.00099997 -0.00364430 -0.01897364
v -0.00065214 -0.00344891 -0.01898880
v -0.00033367 -0.00335204 -0.01899703
v 0.00000000 -0.00331885 -0.01900000
v 0.00039639 -0.00336572 -0.01899586
v 0.00077167 -0.00350406 -0.01898432
v 0.00110356 -0.00372578 -0.01896792
v 0.00137455 -0.00401887 -0.01895022
v 0.00156994 -0.00436671 -0.01893503
v 0.00166680 -0.00468518 -0.01892677
v 0.00170000 -0.00501885 -0.01892379
v -0.02123857 -0.02411885 0.00667911
v -0.02123857 -0.02244364 0.00647570
v -0.02123857 -0.02086578 0.00587730
v -0.02123857 -0.01947699 0.00491868
v -0.02123857 -0.01835796 0.00365556
v -0.02123857 -0.01757373 0.00216134
v -0.02123857 -0.01716988 0.00052287
v -0.02123857 -0.01716988 -0.00116465
v -0.02123857 -0.01757373 -0.00280312
v -0.02123857 -0.01835796 -0.00429734
v -0.02123857 -0.01947699 -0.00556047
v -0.02123857 -0.02086578 -0.00651908
v -0.02123857 -0.02244364 -0.00711748
v -0.02123857 -0.02411885 -0.00732089
v -0.02123857 -0.02579406 -0.00711748
v -0.02123857 -0.02737191 -0.00651908
v -0.02123857 -0.02876071 -0.00556047
v -0.02123857 -0.02987973 -0.00429734
v -0.02123857 -0.03066396 -0.00280312
v -0.02123857 -0.03106781 -0.00116465
v -0.02123857 -0.03106781 0.00052287
v -0.02123857 -0.03066396 0.00216134
v -0.02123857 -0.02987973 0.00365556
v -0.02123857 -0.02876071 0.00491868
v -0.02123857 -0.02737191 0.00587730
v -0.02123857 -0.02579406 0.00647570
v -0.02123857 -0.02411885 0.00542911
v -0.02123857 -0.02549491 0.00526203
v -0.02123857 -0.02679100 0.00477048
v -0.02123857 -0.02793180 0.00398305
v -0.02123857 -0.02885100 0.00294548
v -0.02123857 -0.02949519 0.00171809
v -0.02123857 -0.02982692 0.00037220
v -0.02123857 -0.02982692 -0.00101398
v -0.02123857 -0.02949519 -0.00235987
v -0.02123857 -0.02885100 -0.00358726
v -0.02123857 -0.02793180 -0.00462483
v -0.02123857 -0.02679100 -0.00541226
v -0.02123857 -0.02549491 -0.00590381
v -0.02123857 -0.02411885 -0.00607089
v -0.02123857 -0.02274278 -0.00590381
v -0.02123857 -0.02144669 -0.00541226
v -0.02123857 -0.02030589 -0.00462483
v -0.02123857 -0.01938669 -0.00358726
v -0.02123857 -0.01874250 -0.00235987
v -0.02123857 -0.01841077 -0.00101398
v -0.02123857 -0.01841077 0.00037220
v -0.02123857 -0.01874250 0.00171809
v -0.02123857 -0.01938669 0.00294548
v -0.02123857 -0.02030589 0.00398305
v -0.02123857 -0.02144669 0.00477048
v -0.02123857 -0.02274278 0.00526203
v 0.02740000 -0.00811885 0.00000000
v 0.02680124 -0.00811885 -0.00569678
v 0.02503115 -0.00811885 -0.01114458
v 0.02216707 -0.00811885 -0.01610532
v 0.01833418 -0.00811885 -0.02036217
v 0.01370000 -0.00811885 -0.02372910
v 0.00846707 -0.00811885 -0.02605895
v 0.00286408 -0.00811885 -0.02724990
v -0.00286408 -0.00811885 -0.02724990
v -0.00846707 -0.00811885 -0.02605895
v -0.01370000 -0.00811885 -0.02372910
v -0.01833418 -0.00811885 -0.02036217
v -0.02216707 -0.00811885 -0.01610532
v -0.02503115 -0.00811885 -0.01114458
v -0.02680124 -0.00811885 -0.00569678
v -0.02740000 -0.00811885 0.00000000
v 0.02714468 -0.00801885 0.00000000
v 0.02722823 -0.00805606 0.00000000
v 0.02731340 -0.00808942 0.00000000
v 0.02585384 -0.00621097 -0.00275297
v 0.02591569 -0.00660991 -0.00254333
v 0.02604667 -0.00696282 -0.00228494
v 0.02622270 -0.00726175 -0.00199233
v 0.02649934 -0.00758321 -0.00155704
v 0.02682174 -0.00784091 -0.00101816
v 0.02706601 -0.00798165 -0.00047097
v 0.02712335 -0.00800918 -0.00023986
v 0.00275297 -0.00621097 -0.02585384
v 0.00768781 -0.00621097 -0.02483742
v 0.01233395 -0.00621097 -0.02288829
v 0.01651692 -0.00621097 -0.02007963
v 0.02007963 -0.00621097 -0.01651692
v 0.02288829 -0.00621097 -0.01233395
v 0.02483742 -0.00621097 -0.00768781
v -0.00275297 -0.00621097 -0.02585384
v -0.00253155 -0.00662858 -0.02592076
v -0.00225712 -0.00699506 -0.02606255
v -0.00194600 -0.00730206 -0.02625181
v -0.00148280 -0.00762696 -0.02654627
v -0.00090616 -0.00787872 -0.02688083
v -0.00043253 -0.00798750 -0.02707787
v -0.00016913 -0.00801400 -0.02713384
v 0.00012519 -0.00801617 -0.02713867
v 0.00042242 -0.00798895 -0.02708084
v 0.00070272 -0.00793537 -0.02697780
v 0.00112067 -0.00780193 -0.02676476
v 0.00153025 -0.00759932 -0.02651632
v 0.00201632 -0.00724058 -0.02620769
v 0.00243710 -0.00676820 -0.02596511
v 0.00260821 -0.00650119 -0.02589009
v -0.02585384 -0.00621097 -0.00275297
v -0.02483742 -0.00621097 -0.00768781
v -0.02288829 -0.00621097 -0.01233395
v -0.02007963 -0.00621097 -0.01651692
v -0.01651692 -0.00621097 -0.02007963
v -0.01233395 -0.00621097 -0.02288829
v -0.00768781 -0.00621097 -0.02483742
v -0.02714468 -0.00801885 0.00000000
v -0.02711318 -0.00800451 -0.00029298
v -0.02703080 -0.00796373 -0.00057240
v -0.02687318 -0.00787397 -0.00092104
v -0.02659774 -0.00767204 -0.00140040
v -0.02628987 -0.00735200 -0.00188586
v -0.02602823 -0.00692353 -0.00231781
v -0.02591034 -0.00658933 -0.00255609
v -0.02722823 -0.00805606 0.00000000
v -0.02731340 -0.00808942 0.00000000
v -0.02606453 -0.00739418 -0.00411621
v -0.02620890 -0.00755281 -0.00403009
v -0.02554077 -0.00739418 -0.00663113
v -0.02471174 -0.00739418 -0.00925379
v -0.02368981 -0.00739418 -0.01162307
v -0.02235630 -0.00739418 -0.01401780
v -0.02087642 -0.00739418 -0.01613933
v -0.01909276 -0.00739418 -0.01821453
v -0.01721606 -0.00739418 -0.01999775
v -0.01505243 -0.00739418 -0.02167319
v -0.01285781 -0.00739418 -0.02304299
v -0.01039823 -0.00739418 -0.02425241
v -0.00797859 -0.00739418 -0.02515243
v -0.00531820 -0.00739418 -0.02584607
v -0.00267609 -0.00756826 -0.02639576
v 0.00271166 -0.00751750 -0.02634657
v 0.00531820 -0.00739418 -0.02584607
v 0.00797859 -0.00739418 -0.02515243
v 0.01039823 -0.00739418 -0.02425241
v 0.01285781 -0.00739418 -0.02304299
v 0.01505243 -0.00739418 -0.02167319
v 0.01721606 -0.00739418 -0.01999775
v 0.01909276 -0.00739418 -0.01821453
v 0.02087642 -0.00739418 -0.01613933
v 0.02235630 -0.00739418 -0.01401780
v 0.02368981 -0.00739418 -0.01162307
v 0.02471174 -0.00739418 -0.00925379
v 0.02554077 -0.00739418 -0.00663113
v 0.02606453 -0.00739418 -0.00411621
v 0.02621728 -0.00756093 -0.00402423
v 0.00170000 -0.00501885 -0.01892379
v 0.00165313 -0.00541523 -0.01892795
v 0.00151479 -0.00579052 -0.01893952
v 0.00129307 -0.00612240 -0.01895595
v 0.00099997 -0.00639340 -0.01897364
v 0.00065214 -0.00658879 -0.01898880
v 0.00033367 -0.00668565 -0.01899703
v 0.00000000 -0.00671885 -0.01900000
v 0.00000000 -0.00331885 -0.01900000
v 0.00039639 -0.00336572 -0.01899586
v 0.00077167 -0.00350406 -0.01898432
v 0.00110356 -0.00372578 -0.01896792
v 0.00137455 -0.00401887 -0.01895022
v 0.00156994 -0.00436671 -0.01893503
v 0.00166680 -0.00468518 -0.01892677
v 0.00000000 -0.00001885 -0.01900000
v 0.00000000 -0.00001885 0.01900000
v 0.00454700 -0.00001885 0.01844789
v 0.00882974 -0.00001885 0.01682366
v 0.01259933 -0.00001885 0.01422170
v 0.01563669 -0.00001885 0.01079323
v 0.01776531 -0.00001885 0.00673749
v 0.01886147 -0.00001885 0.00229020
v 0.01886147 -0.00001885 -0.00229020
v 0.01776531 -0.00001885 -0.00673749
v 0.01563669 -0.00001885 -0.01079323
v 0.01259933 -0.00001885 -0.01422170
v 0.00882974 -0.00001885 -0.01682366
v 0.00454700 -0.00001885 -0.01844789
v 0.00000000 -0.00331885 0.01900000
v 0.00170000 -0.00501885 0.01892379
v 0.00165313 -0.00462246 0.01892795
v 0.00151479 -0.00424718 0.01893952
v 0.00129307 -0.00391529 0.01895595
v 0.00099997 -0.00364430 0.01897364
v 0.00065214 -0.00344891 0.01898880
v 0.00033367 -0.00335204 0.01899703
v 0.00000000 -0.00671885 0.01900000
v 0.00039639 -0.00667197 0.01899586
v 0.00077167 -0.00653364 0.01898432
v 0.00110356 -0.00631191 0.01896792
v 0.00137455 -0.00601882 0.01895022
v 0.00156994 -0.00567099 0.01893503
v 0.00166680 -0.00535251 0.01892677
v 0.00000000 -0.01101885 0.01900000
v 0.00000000 -0.01101885 -0.01900000
v 0.00454700 -0.01101885 -0.01844789
v 0.00882974 -0.01101885 -0.01682366
v 0.01259933 -0.01101885 -0.01422170
v 0.01563669 -0.01101885 -0.01079323
v 0.01776531 -0.01101885 -0.00673749
v 0.01886147 -0.01101885 -0.00229020
v 0.01886147 -0.01101885 0.00229020
v 0.01776531 -0.01101885 0.00673749
v 0.01563669 -0.01101885 0.01079323
v 0.01259933 -0.01101885 0.01422170
v 0.00882974 -0.01101885 0.01682366
v 0.00454700 -0.01101885 0.01844789
v 0.01892379 -0.00501885 0.00170000
v 0.01892707 -0.00537113 0.00166310
v 0.01893638 -0.00570903 0.00155360
v 0.01895001 -0.00601526 0.00137735
v 0.01896573 -0.00627946 0.00114049
v 0.01898077 -0.00648842 0.00085427
v 0.01899254 -0.00663341 0.00053189
v 0.01899907 -0.00670857 0.00018532
v 0.01899924 -0.00671035 -0.00016930
v 0.01899299 -0.00663859 -0.00051624
v 0.01898137 -0.00649611 -0.00084118
v 0.01896646 -0.00629027 -0.00112851
v 0.01895070 -0.00602831 -0.00136785
v 0.01893688 -0.00572274 -0.00154742
v 0.01892739 -0.00538655 -0.00165979
v 0.01892472 -0.00520428 -0.00168988
v 0.01892379 -0.00501885 -0.00170000
v 0.01892707 -0.00466657 -0.00166310
v 0.01893638 -0.00432866 -0.00155360
v 0.01895001 -0.00402244 -0.00137735
v 0.01896573 -0.00375824 -0.00114049
v 0.01898077 -0.00354927 -0.00085427
v 0.01899254 -0.00340428 -0.00053189
v 0.01899907 -0.00332912 -0.00018532
v 0.01899924 -0.00332734 0.00016930
v 0.01899299 -0.00339910 0.00051624
v 0.01898137 -0.00354158 0.00084118
v 0.01896646 -0.00374743 0.00112851
v 0.01895070 -0.00400939 0.00136785
v 0.01893688 -0.00431496 0.00154742
v 0.01892739 -0.00465115 0.00165979
v 0.01892472 -0.00483342 0.00168988
v -0.02123857 -0.02411885 0.00667911
v -0.01923857 -0.02411885 0.00667911
v -0.02123857 -0.02411885 -0.00732089
v -0.02123857 -0.02579406 -0.00711748
v -0.02123857 -0.02737191 -0.00651908
v -0.02123857 -0.02876071 -0.00556047
v -0.02123857 -0.02987973 -0.00429734
v -0.02123857 -0.03066396 -0.00280312
v -0.02123857 -0.03106781 -0.00116465
v -0.02123857 -0.03106781 0.00052287
v -0.02123857 -0.03066396 0.00216134
v -0.02123857 -0.02987973 0.00365556
v -0.02123857 -0.02876071 0.00491868
v -0.02123857 -0.02737191 0.00587730
v -0.02123857 -0.02579406 0.00647570
v -0.01923857 -0.02411885 -0.00732089
v -0.01923857 -0.02579406 0.00647570
v -0.01923857 -0.02737191 0.00587730
v -0.01923857 -0.02876071 0.00491868
v -0.01923857 -0.02987973 0.00365556
v -0.01923857 -0.03066396 0.00216134
v -0.01923857 -0.03106781 0.00052287
v -0.01923857 -0.03106781 -0.00116465
v -0.01923857 -0.03066396 -0.00280312
v -0.01923857 -0.02987973 -0.00429734
v -0.01923857 -0.02876071 -0.00556047
v -0.01923857 -0.02737191 -0.00651908
v -0.01923857 -0.02579406 -0.00711748
v 0.00000000 -0.01101885 0.01900000
v -0.00454700 -0.01101885 0.01844789
v -0.00882974 -0.01101885 0.01682366
v -0.01259933 -0.01101885 0.01422170
v -0.01563669 -0.01101885 0.01079323
v -0.01776531 -0.01101885 0.00673749
v -0.01886147 -0.01101885 0.00229020
v -0.01886147 -0.01101885 -0.00229020
v -0.01776531 -0.01101885 -0.00673749
v -0.01563669 -0.01101885 -0.01079323
v -0.01259933 -0.01101885 -0.01422170
v -0.00882974 -0.01101885 -0.01682366
v -0.00454700 -0.01101885 -0.01844789
v 0.00000000 -0.01101885 -0.01900000
v 0.00454700 -0.01101885 -0.01844789
v 0.00882974 -0.01101885 -0.01682366
v 0.01259933 -0.01101885 -0.01422170
v 0.01563669 -0.01101885 -0.01079323
v 0.01776531 -0.01101885 -0.00673749
v 0.01886147 -0.01101885 -0.00229020
v 0.01886147 -0.01101885 0.00229020
v 0.01776531 -0.01101885 0.00673749
v 0.01563669 -0.01101885 0.01079323
v 0.01259933 -0.01101885 0.01422170
v 0.00882974 -0.01101885 0.01682366
v 0.00454700 -0.01101885 0.01844789
v 0.01620000 -0.01101885 -0.00000000
v 0.01622325 -0.01101885 0.00019145
v 0.01629164 -0.01101885 0.00037178
v 0.01640119 -0.01101885 0.00053050
v 0.01654555 -0.01101885 0.00065839
v 0.01671632 -0.01101885 0.00074801
v 0.01690357 -0.01101885 0.00079417
v 0.01709643 -0.01101885 0.00079417
v 0.01728368 -0.01101885 0.00074801
v 0.01745445 -0.01101885 0.00065839
v 0.01759881 -0.01101885 0.00053050
v 0.01770836 -0.01101885 0.00037178
v 0.01777675 -0.01101885 0.00019145
v 0.01780000 -0.01101885 -0.00000000
v 0.01777675 -0.01101885 -0.00019145
v 0.01770836 -0.01101885 -0.00037178
v 0.01759881 -0.01101885 -0.00053050
v 0.01745445 -0.01101885 -0.00065839
v 0.01728368 -0.01101885 -0.00074801
v 0.01709643 -0.01101885 -0.00079417
v 0.01690357 -0.01101885 -0.00079417
v 0.01671632 -0.01101885 -0.00074801
v 0.01654555 -0.01101885 -0.00065839
v 0.01640119 -0.01101885 -0.00053050
v 0.01629164 -0.01101885 -0.00037178
v 0.01622325 -0.01101885 -0.00019145
v 0.00000000 -0.01101885 0.01780000
v 0.00019145 -0.01101885 0.01777675
v 0.00037178 -0.01101885 0.01770836
v 0.00053050 -0.01101885 0.01759881
v 0.00065839 -0.01101885 0.01745445
v 0.00074801 -0.01101885 0.01728368
v 0.00079417 -0.01101885 0.01709643
v 0.00079417 -0.01101885 0.01690357
v 0.00074801 -0.01101885 0.01671632
v 0.00065839 -0.01101885 0.01654555
v 0.00053050 -0.01101885 0.01640119
v 0.00037178 -0.01101885 0.01629164
v 0.00019145 -0.01101885 0.01622325
v 0.00000000 -0.01101885 0.01620000
v -0.00019145 -0.01101885 0.01622325
v -0.00037178 -0.01101885 0.01629164
v -0.00053050 -0.01101885 0.01640119
v -0.00065839 -0.01101885 0.01654555
v -0.00074801 -0.01101885 0.01671632
v -0.00079417 -0.01101885 0.01690357
v -0.00079417 -0.01101885 0.01709643
v -0.00074801 -0.01101885 0.01728368
v -0.00065839 -0.01101885 0.01745445
v -0.00053050 -0.01101885 0.01759881
v -0.00037178 -0.01101885 0.01770836
v -0.00019145 -0.01101885 0.01777675
v -0.01780000 -0.01101885 0.00000000
v -0.01777675 -0.01101885 0.00019145
v -0.01770836 -0.01101885 0.00037178
v -0.01759881 -0.01101885 0.00053050
v -0.01745445 -0.01101885 0.00065839
v -0.01728368 -0.01101885 0.00074801
v -0.01709643 -0.01101885 0.00079417
v -0.01690357 -0.01101885 0.00079417
v -0.01671632 -0.01101885 0.00074801
v -0.01654555 -0.01101885 0.00065839
v -0.01640119 -0.01101885 0.00053050
v -0.01629164 -0.01101885 0.00037178
v -0.01622325 -0.01101885 0.00019145
v -0.01620000 -0.01101885 0.00000000
v -0.01622325 -0.01101885 -0.00019145
v -0.01629164 -0.01101885 -0.00037178
v -0.01640119 -0.01101885 -0.00053050
v -0.01654555 -0.01101885 -0.00065839
v -0.01671632 -0.01101885 -0.00074801
v -0.01690357 -0.01101885 -0.00079417
v -0.01709643 -0.01101885 -0.00079417
v -0.01728368 -0.01101885 -0.00074801
v -0.01745445 -0.01101885 -0.00065839
v -0.01759881 -0.01101885 -0.00053050
v -0.01770836 -0.01101885 -0.00037178
v -0.01777675 -0.01101885 -0.00019145
v 0.00000000 -0.01101885 -0.01620000
v 0.00019145 -0.01101885 -0.01622325
v 0.00037178 -0.01101885 -0.01629164
v 0.00053050 -0.01101885 -0.01640119
v 0.00065839 -0.01101885 -0.01654555
v 0.00074801 -0.01101885 -0.01671632
v 0.00079417 -0.01101885 -0.01690357
v 0.00079417 -0.01101885 -0.01709643
v 0.00074801 -0.01101885 -0.01728368
v 0.00065839 -0.01101885 -0.01745445
v 0.00053050 -0.01101885 -0.01759881
v 0.00037178 -0.01101885 -0.01770836
v 0.00019145 -0.01101885 -0.01777675
v 0.00000000 -0.01101885 -0.01780000
v -0.00019145 -0.01101885 -0.01777675
v -0.00037178 -0.01101885 -0.01770836
v -0.00053050 -0.01101885 -0.01759881
v -0.00065839 -0.01101885 -0.01745445
v -0.00074801 -0.01101885 -0.01728368
v -0.00079417 -0.01101885 -0.01709643
v -0.00079417 -0.01101885 -0.01690357
v -0.00074801 -0.01101885 -0.01671632
v -0.00065839 -0.01101885 -0.01654555
v -0.00053050 -0.01101885 -0.01640119
v -0.00037178 -0.01101885 -0.01629164
v -0.00019145 -0.01101885 -0.01622325
f 33 40 32
f 33 41 40
f 33 42 41
f 34 42 33
f 35 42 34
f 57 35 36
f 57 42 35
f 14 51 13
f 15 51 14
f 16 51 15
f 17 51 16
f 50 17 18
f 50 18 19
f 50 19 20
f 50 20 21
f 50 51 17
f 59 67 58
f 60 67 59
f 43 65 66
f 43 66 67
f 43 44 65
f 43 67 60
f 68 25 26
f 69 36 37
f 69 68 57
f 69 37 38
f 69 38 39
f 69 39 25
f 69 25 68
f 69 57 36
f 70 57 68
f 70 68 26
f 71 57 70
f 71 26 27
f 71 70 26
f 71 56 57
f 72 71 27
f 72 56 71
f 73 72 27
f 73 56 72
f 73 27 28
f 73 55 56
f 74 73 28
f 74 55 73
f 75 28 29
f 75 54 55
f 75 55 74
f 75 74 28
f 76 75 29
f 76 54 75
f 77 76 29
f 77 29 30
f 77 53 54
f 77 54 76
f 78 77 30
f 78 53 77
f 79 30 31
f 79 52 53
f 79 53 78
f 79 78 30
f 80 79 31
f 80 52 79
f 81 9 10
f 81 31 9
f 81 51 52
f 81 80 31
f 81 52 80
f 82 10 11
f 82 11 12
f 82 12 13
f 82 13 51
f 82 81 10
f 82 51 81
f 83 21 22
f 83 22 23
f 83 23 24
f 83 50 21
f 84 50 83
f 84 1 2
f 84 24 1
f 84 49 50
f 84 83 24
f 85 49 84
f 85 84 2
f 86 2 3
f 86 49 85
f 86 85 2
f 86 48 49
f 87 86 3
f 87 48 86
f 88 3 4
f 88 48 87
f 88 87 3
f 88 47 48
f 89 88 4
f 89 47 88
f 90 4 5
f 90 46 47
f 90 47 89
f 90 89 4
f 91 90 5
f 91 46 90
f 92 5 6
f 92 46 91
f 92 45 46
f 92 91 5
f 93 45 92
f 93 92 6
f 94 45 93
f 94 6 7
f 94 93 6
f 94 44 45
f 95 94 7
f 95 44 94
f 96 7 8
f 96 95 7
f 96 44 95
f 97 8 61
f 97 61 62
f 97 62 63
f 97 63 64
f 97 64 65
f 97 96 8
f 97 44 96
f 97 65 44
f 114 111 110
f 114 113 111
f 115 110 109
f 115 114 110
f 116 109 108
f 116 115 109
f 117 108 107
f 117 116 108
f 118 107 106
f 118 117 107
f 119 106 105
f 119 118 106
f 120 105 104
f 120 119 105
f 121 104 103
f 121 120 104
f 122 103 102
f 122 121 103
f 123 102 101
f 123 122 102
f 124 101 100
f 124 123 101
f 125 100 99
f 125 124 100
f 112 99 98
f 112 125 99
f 165 171 164
f 166 171 165
f 167 171 166
f 183 171 167
f 183 167 168
f 169 183 168
f 170 183 169
f 157 183 170
f 143 160 161
f 143 161 162
f 143 162 163
f 143 163 156
f 144 183 157
f 144 160 143
f 144 157 158
f 144 158 159
f 144 159 160
f 145 183 144
f 145 182 183
f 146 182 145
f 146 181 182
f 147 181 146
f 147 180 181
f 148 180 147
f 148 179 180
f 186 187 178
f 188 178 187
f 185 178 179
f 185 186 178
f 189 178 188
f 184 179 148
f 184 185 179
f 215 184 148
f 190 178 189
f 214 215 148
f 191 178 190
f 192 177 178
f 192 178 191
f 193 177 192
f 194 177 193
f 195 177 194
f 196 177 195
f 149 214 148
f 149 209 210
f 149 210 211
f 149 211 212
f 149 212 213
f 149 213 214
f 208 209 149
f 197 177 196
f 198 177 197
f 176 198 199
f 176 199 200
f 176 177 198
f 150 201 202
f 150 202 203
f 150 203 204
f 150 204 205
f 150 205 206
f 150 206 207
f 150 207 208
f 150 208 149
f 151 176 200
f 151 201 150
f 151 200 201
f 152 176 151
f 152 175 176
f 153 175 152
f 153 174 175
f 154 174 153
f 154 173 174
f 131 172 130
f 129 130 172
f 132 172 131
f 132 126 172
f 128 129 172
f 133 126 132
f 155 173 154
f 155 128 172
f 155 172 173
f 141 128 155
f 134 126 133
f 140 141 155
f 127 126 134
f 139 140 155
f 138 139 155
f 142 135 136
f 142 136 137
f 142 137 138
f 142 138 155
f 225 239 238
f 226 240 239
f 226 239 225
f 227 241 240
f 227 240 226
f 228 242 241
f 228 241 227
f 229 243 242
f 229 242 228
f 230 244 243
f 230 243 229
f 231 216 244
f 231 244 230
f 232 217 216
f 232 216 231
f 233 218 217
f 233 217 232
f 234 219 218
f 234 218 233
f 235 220 219
f 235 219 234
f 236 221 220
f 236 220 235
f 237 222 221
f 237 221 236
f 224 223 222
f 224 222 237
f 254 268 267
f 255 269 268
f 255 268 254
f 256 270 269
f 256 269 255
f 257 271 270
f 257 270 256
f 258 272 271
f 258 271 257
f 259 273 272
f 259 272 258
f 260 245 273
f 260 273 259
f 261 246 245
f 261 245 260
f 262 247 246
f 262 246 261
f 263 248 247
f 263 247 262
f 264 249 248
f 264 248 263
f 265 250 249
f 265 249 264
f 266 251 250
f 266 250 265
f 253 252 251
f 253 251 266
f 276 290 289
f 277 291 290
f 277 290 276
f 278 292 291
f 278 291 277
f 279 293 292
f 279 292 278
f 280 294 293
f 280 293 279
f 281 295 294
f 281 294 280
f 282 296 295
f 282 297 296
f 282 295 281
f 283 298 297
f 283 297 282
f 284 299 298
f 284 298 283
f 285 300 299
f 285 299 284
f 286 301 300
f 286 300 285
f 287 302 301
f 287 301 286
f 288 303 302
f 288 304 303
f 288 302 287
f 275 274 304
f 275 304 288
f 307 321 320
f 308 322 321
f 308 321 307
f 309 323 322
f 309 322 308
f 310 324 323
f 310 323 309
f 311 325 324
f 311 324 310
f 312 326 325
f 312 325 311
f 313 327 326
f 313 328 327
f 313 326 312
f 314 329 328
f 314 328 313
f 315 330 329
f 315 329 314
f 316 331 330
f 316 330 315
f 317 332 331
f 317 331 316
f 318 333 332
f 318 332 317
f 319 334 333
f 319 335 334
f 319 333 318
f 306 305 335
f 306 335 319
f 358 360 357
f 358 372 360
f 359 372 358
f 356 371 372
f 356 372 359
f 355 370 371
f 355 371 356
f 354 370 355
f 353 369 370
f 353 370 354
f 352 368 369
f 352 369 353
f 351 367 368
f 351 368 352
f 350 367 351
f 349 367 350
f 348 366 367
f 348 367 349
f 347 366 348
f 346 366 347
f 345 365 366
f 345 366 346
f 344 364 365
f 344 365 345
f 343 363 364
f 343 364 344
f 342 363 343
f 341 362 363
f 341 363 342
f 338 362 341
f 338 361 362
f 339 361 338
f 340 361 339
f 340 336 361
f 337 336 340
f 438 437 373
f 439 438 373
f 374 440 439
f 374 439 373
f 441 440 374
f 442 441 374
f 428 374 375
f 428 435 434
f 428 436 435
f 428 427 436
f 428 443 442
f 428 434 443
f 428 442 374
f 429 375 376
f 429 428 375
f 430 376 377
f 430 429 376
f 431 377 378
f 431 430 377
f 432 378 379
f 432 431 378
f 433 432 379
f 413 379 380
f 413 380 414
f 415 414 380
f 412 433 379
f 412 379 413
f 416 415 380
f 411 433 412
f 417 416 380
f 381 417 380
f 410 433 411
f 418 417 381
f 426 433 410
f 425 433 426
f 419 418 381
f 424 433 425
f 420 419 381
f 421 420 381
f 382 422 421
f 382 421 381
f 401 408 407
f 401 409 408
f 401 400 409
f 401 422 382
f 401 423 422
f 401 407 423
f 402 382 383
f 402 401 382
f 403 383 384
f 403 402 383
f 404 384 385
f 404 403 384
f 405 385 386
f 405 404 385
f 406 386 387
f 406 405 386
f 393 387 394
f 395 387 388
f 395 394 387
f 392 406 387
f 392 387 393
f 396 395 388
f 389 396 388
f 391 406 392
f 390 406 391
f 399 406 390
f 398 406 399
f 397 406 398
f 466 468 465
f 466 480 468
f 467 480 466
f 464 479 480
f 464 480 467
f 463 479 464
f 462 478 479
f 462 479 463
f 461 477 478
f 461 478 462
f 460 476 477
f 460 477 461
f 459 476 460
f 458 475 476
f 458 476 459
f 457 475 458
f 456 474 475
f 456 475 457
f 455 474 456
f 454 474 455
f 453 473 474
f 453 474 454
f 452 472 473
f 452 473 453
f 451 471 472
f 451 472 452
f 450 471 451
f 449 470 471
f 449 471 450
f 446 470 449
f 446 469 470
f 447 469 446
f 448 469 447
f 448 444 469
f 445 444 448
f 503 505 502
f 503 517 505
f 504 517 503
f 501 516 517
f 501 517 504
f 500 515 516
f 500 516 501
f 499 515 500
f 498 514 515
f 498 515 499
f 497 513 514
f 497 514 498
f 496 512 513
f 496 513 497
f 495 512 496
f 494 512 495
f 493 511 512
f 493 512 494
f 492 511 493
f 491 511 492
f 490 510 511
f 490 511 491
f 489 509 510
f 489 510 490
f 488 508 509
f 488 509 489
f 487 508 488
f 486 507 508
f 486 508 487
f 483 507 486
f 483 506 507
f 484 506 483
f 485 506 484
f 485 481 506
f 482 481 485
f 540 542 539
f 540 554 542
f 541 554 540
f 538 553 554
f 538 554 541
f 537 553 538
f 536 552 553
f 536 553 537
f 535 551 552
f 535 552 536
f 534 550 551
f 534 551 535
f 533 550 534
f 532 549 550
f 532 550 533
f 531 549 532
f 530 548 549
f 530 549 531
f 529 548 530
f 528 548 529
f 527 547 548
f 527 548 528
f 526 546 547
f 526 547 527
f 525 545 546
f 525 546 526
f 524 545 525
f 523 544 545
f 523 545 524
f 520 544 523
f 520 543 544
f 521 543 520
f 522 543 521
f 522 518 543
f 519 518 522
f 571 568 567
f 571 570 568
f 572 567 566
f 572 571 567
f 573 566 565
f 573 572 566
f 574 565 564
f 574 573 565
f 575 564 563
f 575 574 564
f 576 563 562
f 576 575 563
f 577 562 561
f 577 576 562
f 578 561 560
f 578 577 561
f 579 560 559
f 579 578 560
f 580 559 558
f 580 579 559
f 581 558 557
f 581 580 558
f 582 556 555
f 582 557 556
f 582 581 557
f 569 582 555
f 607 608 583
f 605 583 584
f 605 584 585
f 605 585 586
f 605 606 607
f 605 607 583
f 603 586 587
f 603 604 605
f 603 605 586
f 596 593 594
f 596 594 595
f 601 602 603
f 600 587 588
f 600 588 589
f 600 589 590
f 600 603 587
f 600 601 603
f 599 590 591
f 599 591 592
f 599 592 593
f 599 596 597
f 599 597 598
f 599 593 596
f 599 600 590
f 645 626 625
f 644 627 626
f 644 626 645
f 646 625 624
f 646 645 625
f 643 628 627
f 643 627 644
f 647 624 623
f 647 646 624
f 642 629 628
f 642 628 643
f 648 623 622
f 648 647 623
f 641 629 642
f 649 622 621
f 649 648 622
f 640 630 629
f 640 629 641
f 650 621 620
f 650 649 621
f 639 631 630
f 639 630 640
f 651 620 619
f 651 650 620
f 632 631 639
f 632 639 638
f 652 651 619
f 618 652 619
f 653 652 618
f 633 632 638
f 633 638 637
f 617 653 618
f 617 654 653
f 634 633 637
f 634 636 635
f 634 637 636
f 616 654 617
f 616 655 654
f 609 634 635
f 615 655 616
f 610 609 635
f 610 635 660
f 614 655 615
f 614 656 655
f 611 610 660
f 611 660 659
f 613 657 656
f 613 656 614
f 612 658 657
f 612 659 658
f 612 611 659
f 612 657 613
f 697 677 676
f 696 678 677
f 696 677 697
f 698 676 675
f 698 697 676
f 695 679 678
f 695 678 696
f 699 675 674
f 699 698 675
f 694 680 679
f 694 679 695
f 700 699 674
f 693 681 680
f 693 680 694
f 701 674 673
f 701 700 674
f 692 682 681
f 692 681 693
f 702 673 672
f 702 701 673
f 691 683 682
f 691 682 692
f 703 672 671
f 703 702 672
f 690 683 691
f 684 683 690
f 704 703 671
f 689 684 690
f 670 704 671
f 705 704 670
f 685 684 689
f 685 689 688
f 669 705 670
f 669 706 705
f 686 685 688
f 686 688 687
f 668 707 706
f 668 706 669
f 661 686 687
f 667 707 668
f 667 708 707
f 662 661 687
f 662 687 712
f 666 709 708
f 666 708 667
f 663 662 712
f 663 712 711
f 665 710 709
f 665 709 666
f 664 711 710
f 664 663 711
f 664 710 665
f 749 729 728
f 748 730 729
f 748 729 749
f 750 728 727
f 750 749 728
f 747 731 730
f 747 730 748
f 751 727 726
f 751 750 727
f 746 732 731
f 746 731 747
f 752 751 726
f 745 733 732
f 745 732 746
f 753 726 725
f 753 752 726
f 744 734 733
f 744 733 745
f 754 725 724
f 754 753 725
f 743 735 734
f 743 734 744
f 755 724 723
f 755 754 724
f 742 735 743
f 736 735 742
f 756 755 723
f 741 736 742
f 722 756 723
f 757 756 722
f 737 741 740
f 737 736 741
f 721 757 722
f 721 758 757
f 738 737 740
f 738 740 739
f 720 758 721
f 720 759 758
f 713 738 739
f 719 759 720
f 719 760 759
f 714 713 739
f 714 739 764
f 718 761 760
f 718 760 719
f 715 714 764
f 715 764 763
f 717 762 761
f 717 761 718
f 716 763 762
f 716 715 763
f 716 762 717
f 801 782 781
f 800 783 782
f 800 782 801
f 802 781 780
f 802 801 781
f 799 784 783
f 799 783 800
f 803 780 779
f 803 802 780
f 798 785 784
f 798 784 799
f 804 779 778
f 804 803 779
f 797 786 785
f 797 785 798
f 805 778 777
f 805 804 778
f 796 786 797
f 787 786 796
f 806 777 776
f 806 805 777
f 795 787 796
f 807 776 775
f 807 806 776
f 788 795 794
f 788 787 795
f 808 807 775
f 774 808 775
f 789 794 793
f 789 788 794
f 773 808 774
f 773 809 808
f 773 810 809
f 790 789 793
f 790 793 792
f 772 810 773
f 772 811 810
f 765 792 791
f 765 790 792
f 771 811 772
f 766 765 791
f 766 816 815
f 766 791 816
f 770 811 771
f 770 812 811
f 767 766 815
f 769 813 812
f 769 812 770
f 768 814 813
f 768 815 814
f 768 767 815
f 768 813 769
f 833 818 817
f 833 817 831
f 834 831 830
f 834 833 831
f 835 830 829
f 835 834 830
f 836 829 828
f 836 835 829
f 837 828 827
f 837 836 828
f 838 827 826
f 838 837 827
f 839 826 825
f 839 838 826
f 840 825 824
f 840 839 825
f 841 824 823
f 841 840 824
f 842 822 821
f 842 823 822
f 842 841 823
f 843 842 821
f 844 821 820
f 844 843 821
f 832 820 819
f 832 844 820
f 854 860 853
f 854 873 860
f 855 872 873
f 855 873 854
f 856 871 872
f 856 872 855
f 857 870 871
f 857 871 856
f 858 869 870
f 858 870 857
f 859 868 869
f 859 869 858
f 845 867 868
f 845 868 859
f 846 866 867
f 846 867 845
f 847 865 866
f 847 866 846
f 848 864 865
f 848 865 847
f 849 863 864
f 849 864 848
f 850 862 863
f 850 863 849
f 851 861 862
f 851 862 850
f 852 861 851
f 875 889 874
f 875 902 889
f 876 901 902
f 876 902 875
f 877 900 901
f 877 901 876
f 878 899 900
f 878 900 877
f 879 898 899
f 879 899 878
f 880 897 898
f 880 898 879
f 881 896 897
f 881 897 880
f 882 895 896
f 882 896 881
f 883 894 895
f 883 895 882
f 884 893 894
f 884 894 883
f 885 892 893
f 885 893 884
f 886 891 892
f 886 892 885
f 887 890 891
f 887 891 886
f 888 890 887
f 912 918 911
f 912 931 918
f 913 930 931
f 913 931 912
f 914 929 930
f 914 930 913
f 915 928 929
f 915 929 914
f 916 927 928
f 916 928 915
f 917 926 927
f 917 927 916
f 903 925 926
f 903 926 917
f 904 924 925
f 904 925 903
f 905 923 924
f 905 924 904
f 906 922 923
f 906 923 905
f 907 921 922
f 907 922 906
f 908 920 921
f 908 921 907
f 909 919 920
f 909 920 908
f 910 919 909
f 997 933 932
f 998 997 932
f 934 999 998
f 934 998 932
f 1000 999 934
f 1001 1000 934
f 988 934 935
f 988 995 994
f 988 996 995
f 988 987 996
f 988 1002 1001
f 988 994 1002
f 988 1001 934
f 989 935 936
f 989 988 935
f 990 936 937
f 990 989 936
f 991 937 938
f 991 990 937
f 992 938 939
f 992 991 938
f 993 992 939
f 973 939 940
f 973 940 974
f 975 974 940
f 972 993 939
f 972 939 973
f 976 975 940
f 971 993 972
f 977 976 940
f 941 977 940
f 970 993 971
f 978 977 941
f 986 993 970
f 985 993 986
f 979 978 941
f 984 993 985
f 980 979 941
f 981 980 941
f 942 982 981
f 942 981 941
f 961 968 967
f 961 969 968
f 961 960 969
f 961 982 942
f 961 983 982
f 961 967 983
f 962 942 943
f 962 961 942
f 963 943 944
f 963 962 943
f 964 944 945
f 964 963 944
f 965 945 946
f 965 964 945
f 966 946 947
f 966 965 946
f 953 947 954
f 955 947 948
f 955 954 947
f 952 966 947
f 952 947 953
f 956 955 948
f 949 956 948
f 951 966 952
f 950 966 951
f 959 966 950
f 958 966 959
f 957 966 958
f 1004 1018 1003
f 1004 1031 1018
f 1005 1030 1031
f 1005 1031 1004
f 1006 1029 1030
f 1006 1030 1005
f 1007 1028 1029
f 1007 1029 1006
f 1008 1027 1028
f 1008 1028 1007
f 1009 1026 1027
f 1009 1027 1008
f 1010 1025 1026
f 1010 1026 1009
f 1011 1024 1025
f 1011 1025 1010
f 1012 1023 1024
f 1012 1024 1011
f 1013 1022 1023
f 1013 1023 1012
f 1014 1021 1022
f 1014 1022 1013
f 1015 1020 1021
f 1015 1021 1014
f 1016 1019 1020
f 1016 1020 1015
f 1017 1019 1016
f 1032 1047 1046
f 1033 1048 1047
f 1033 1047 1032
f 1034 1049 1048
f 1034 1048 1033
f 1035 1050 1049
f 1035 1049 1034
f 1036 1051 1050
f 1036 1050 1035
f 1037 1052 1051
f 1037 1051 1036
f 1038 1053 1052
f 1038 1054 1053
f 1038 1052 1037
f 1039 1055 1054
f 1039 1054 1038
f 1040 1056 1055
f 1040 1055 1039
f 1041 1057 1056
f 1041 1056 1040
f 1042 1058 1057
f 1042 1057 1041
f 1043 1059 1058
f 1043 1058 1042
f 1044 1060 1059
f 1044 1061 1060
f 1044 1059 1043
f 1045 1062 1061
f 1045 1061 1044
f 1063 1078 1077
f 1064 1079 1078
f 1064 1078 1063
f 1065 1080 1079
f 1065 1079 1064
f 1066 1081 1080
f 1066 1080 1065
f 1067 1082 1081
f 1067 1081 1066
f 1068 1083 1082
f 1068 1082 1067
f 1069 1084 1083
f 1069 1085 1084
f 1069 1083 1068
f 1070 1086 1085
f 1070 1085 1069
f 1071 1087 1086
f 1071 1086 1070
f 1072 1088 1087
f 1072 1087 1071
f 1073 1089 1088
f 1073 1088 1072
f 1074 1090 1089
f 1074 1089 1073
f 1075 1091 1090
f 1075 1092 1091
f 1075 1090 1074
f 1076 1093 1092
f 1076 1092 1075
f 1094 1109 1108
f 1095 1110 1109
f 1095 1109 1094
f 1096 1111 1110
f 1096 1110 1095
f 1097 1112 1111
f 1097 1111 1096
f 1098 1113 1112
f 1098 1112 1097
f 1099 1114 1113
f 1099 1113 1098
f 1100 1115 1114
f 1100 1114 1099
f 1101 1116 1115
f 1101 1115 1100
f 1102 1117 1116
f 1102 1116 1101
f 1103 1118 1117
f 1103 1117 1102
f 1104 1119 1118
f 1104 1118 1103
f 1105 1120 1119
f 1105 1119 1104
f 1106 1121 1120
f 1106 1120 1105
f 1107 1122 1121
f 1107 1121 1106
f 1169 1150 1149
f 1170 1149 1148
f 1170 1169 1149
f 1168 1151 1150
f 1168 1150 1169
f 1171 1148 1147
f 1171 1170 1148
f 1167 1152 1151
f 1167 1151 1168
f 1172 1147 1146
f 1172 1171 1147
f 1166 1124 1123
f 1166 1123 1152
f 1166 1152 1167
f 1173 1145 1144
f 1173 1146 1145
f 1173 1172 1146
f 1165 1124 1166
f 1125 1124 1165
f 1174 1173 1144
f 1143 1174 1144
f 1164 1125 1165
f 1126 1125 1164
f 1175 1174 1143
f 1142 1175 1143
f 1163 1126 1164
f 1176 1175 1142
f 1127 1126 1163
f 1162 1127 1163
f 1141 1176 1142
f 1177 1176 1141
f 1128 1127 1162
f 1161 1128 1162
f 1140 1177 1141
f 1178 1177 1140
f 1129 1128 1161
f 1129 1161 1160
f 1139 1178 1140
f 1139 1153 1178
f 1130 1129 1160
f 1138 1153 1139
f 1131 1160 1159
f 1131 1130 1160
f 1137 1154 1153
f 1137 1153 1138
f 1132 1159 1158
f 1132 1131 1159
f 1136 1155 1154
f 1136 1154 1137
f 1133 1158 1157
f 1133 1132 1158
f 1135 1156 1155
f 1135 1155 1136
f 1134 1157 1156
f 1134 1133 1157
f 1134 1156 1135
f 1179 1194 1193
f 1180 1195 1194
f 1180 1194 1179
f 1181 1196 1195
f 1181 1195 1180
f 1182 1197 1196
f 1182 1196 1181
f 1183 1198 1197
f 1183 1197 1182
f 1184 1199 1198
f 1184 1198 1183
f 1185 1200 1199
f 1185 1199 1184
f 1186 1201 1200
f 1186 1200 1185
f 1187 1202 1201
f 1187 1201 1186
f 1188 1203 1202
f 1188 1202 1187
f 1189 1204 1203
f 1189 1203 1188
f 1190 1205 1204
f 1190 1204 1189
f 1191 1206 1205
f 1191 1205 1190
f 1192 1207 1206
f 1192 1206 1191
f 1237 1231 1232
f 1238 1230 1231
f 1238 1231 1237
f 1236 1232 1233
f 1236 1237 1232
f 1239 1229 1230
f 1239 1230 1238
f 1235 1233 1208
f 1235 1236 1233
f 1240 1228 1229
f 1240 1229 1239
f 1234 1235 1208
f 1209 1234 1208
f 1241 1227 1228
f 1241 1228 1240
f 1259 1234 1209
f 1242 1226 1227
f 1242 1227 1241
f 1210 1259 1209
f 1258 1259 1210
f 1243 1225 1226
f 1243 1226 1242
f 1211 1258 1210
f 1257 1258 1211
f 1244 1225 1243
f 1224 1225 1244
f 1212 1256 1257
f 1212 1257 1211
f 1245 1224 1244
f 1223 1224 1245
f 1213 1256 1212
f 1213 1255 1256
f 1222 1223 1245
f 1222 1245 1246
f 1214 1255 1213
f 1214 1254 1255
f 1221 1222 1246
f 1221 1246 1247
f 1215 1254 1214
f 1215 1253 1254
f 1220 1221 1247
f 1220 1247 1248
f 1216 1252 1253
f 1216 1253 1215
f 1219 1220 1248
f 1219 1248 1249
f 1219 1249 1250
f 1217 1250 1251
f 1217 1251 1252
f 1217 1252 1216
f 1218 1250 1217
f 1218 1219 1250
f 1318 1325 1317
f 1318 1326 1325
f 1318 1275 1326
f 1319 1275 1318
f 1320 1275 1319
f 1274 1320 1321
f 1274 1275 1320
f 1299 1268 1298
f 1300 1268 1299
f 1301 1268 1300
f 1302 1268 1301
f 1267 1268 1302
f 1267 1302 1303
f 1267 1303 1304
f 1267 1304 1305
f 1267 1305 1306
f 1277 1286 1276
f 1278 1286 1277
f 1260 1284 1285
f 1260 1285 1286
f 1260 1261 1284
f 1260 1286 1278
f 1327 1310 1311
f 1328 1327 1274
f 1328 1321 1322
f 1328 1322 1323
f 1328 1323 1324
f 1328 1324 1310
f 1328 1310 1327
f 1328 1274 1321
f 1329 1274 1327
f 1329 1327 1311
f 1330 1329 1311
f 1330 1273 1274
f 1330 1311 1312
f 1330 1274 1329
f 1331 1273 1330
f 1331 1330 1312
f 1332 1272 1273
f 1332 1331 1312
f 1332 1312 1313
f 1332 1273 1331
f 1333 1272 1332
f 1333 1332 1313
f 1334 1271 1272
f 1334 1333 1313
f 1334 1272 1333
f 1334 1313 1314
f 1335 1334 1314
f 1335 1271 1334
f 1336 1335 1314
f 1336 1270 1271
f 1336 1314 1315
f 1336 1271 1335
f 1337 1270 1336
f 1337 1336 1315
f 1338 1269 1270
f 1338 1315 1316
f 1338 1270 1337
f 1338 1337 1315
f 1339 1269 1338
f 1339 1338 1316
f 1340 1268 1269
f 1340 1269 1339
f 1340 1294 1295
f 1340 1316 1294
f 1340 1339 1316
f 1341 1298 1268
f 1341 1295 1296
f 1341 1296 1297
f 1341 1297 1298
f 1341 1268 1340
f 1341 1340 1295
f 1342 1267 1306
f 1342 1306 1307
f 1342 1307 1308
f 1342 1308 1309
f 1343 1266 1267
f 1343 1287 1288
f 1343 1309 1287
f 1343 1267 1342
f 1343 1342 1309
f 1344 1266 1343
f 1344 1343 1288
f 1345 1265 1266
f 1345 1266 1344
f 1345 1288 1289
f 1345 1344 1288
f 1346 1265 1345
f 1346 1345 1289
f 1347 1264 1265
f 1347 1265 1346
f 1347 1346 1289
f 1347 1289 1290
f 1348 1347 1290
f 1348 1264 1347
f 1349 1263 1264
f 1349 1290 1291
f 1349 1348 1290
f 1349 1264 1348
f 1350 1349 1291
f 1350 1263 1349
f 1351 1262 1263
f 1351 1291 1292
f 1351 1263 1350
f 1351 1350 1291
f 1352 1262 1351
f 1352 1351 1292
f 1353 1261 1262
f 1353 1352 1292
f 1353 1262 1352
f 1353 1292 1293
f 1354 1353 1293
f 1354 1261 1353
f 1355 1261 1354
f 1355 1293 1279
f 1355 1354 1293
f 1356 1261 1355
f 1356 1279 1280
f 1356 1280 1281
f 1356 1281 1282
f 1356 1282 1283
f 1356 1283 1284
f 1356 1355 1279
f 1356 1284 1261
f 1395 1401 1394
f 1396 1401 1395
f 1397 1401 1396
f 1414 1401 1397
f 1414 1397 1398
f 1399 1414 1398
f 1400 1414 1399
f 1387 1414 1400
f 1373 1390 1391
f 1373 1391 1392
f 1373 1392 1393
f 1373 1393 1386
f 1374 1414 1387
f 1374 1390 1373
f 1374 1387 1388
f 1374 1388 1389
f 1374 1389 1390
f 1375 1414 1374
f 1375 1413 1414
f 1376 1413 1375
f 1376 1412 1413
f 1377 1412 1376
f 1377 1411 1412
f 1378 1411 1377
f 1378 1410 1411
f 1417 1418 1409
f 1419 1409 1418
f 1416 1409 1410
f 1416 1417 1409
f 1420 1409 1419
f 1415 1410 1378
f 1415 1416 1410
f 1446 1415 1378
f 1421 1409 1420
f 1445 1446 1378
f 1422 1409 1421
f 1423 1408 1409
f 1423 1409 1422
f 1424 1408 1423
f 1425 1408 1424
f 1426 1408 1425
f 1427 1408 1426
f 1379 1445 1378
f 1379 1440 1441
f 1379 1441 1442
f 1379 1442 1443
f 1379 1443 1444
f 1379 1444 1445
f 1439 1440 1379
f 1428 1408 1427
f 1429 1408 1428
f 1407 1429 1430
f 1407 1430 1431
f 1407 1408 1429
f 1380 1432 1433
f 1380 1433 1434
f 1380 1434 1435
f 1380 1435 1436
f 1380 1436 1437
f 1380 1437 1438
f 1380 1438 1439
f 1380 1439 1379
f 1381 1407 1431
f 1381 1432 1380
f 1381 1431 1432
f 1382 1407 1381
f 1382 1406 1407
f 1383 1406 1382
f 1383 1405 1406
f 1384 1405 1383
f 1384 1404 1405
f 1360 1403 1359
f 1358 1359 1403
f 1361 1403 1360
f 1361 1402 1403
f 1357 1358 1403
f 1362 1402 1361
f 1385 1404 1384
f 1385 1357 1403
f 1385 1403 1404
f 1371 1357 1385
f 1363 1402 1362
f 1370 1371 1385
f 1364 1402 1363
f 1369 1370 1385
f 1368 1369 1385
f 1372 1365 1366
f 1372 1366 1367
f 1372 1367 1368
f 1372 1368 1385
f 1463 1448 1447
f 1463 1447 1461
f 1464 1461 1460
f 1464 1463 1461
f 1465 1460 1459
f 1465 1464 1460
f 1466 1459 1458
f 1466 1465 1459
f 1467 1458 1457
f 1467 1466 1458
f 1468 1457 1456
f 1468 1467 1457
f 1469 1456 1455
f 1469 1468 1456
f 1470 1455 1454
f 1470 1469 1455
f 1471 1454 1453
f 1471 1470 1454
f 1472 1453 1452
f 1472 1471 1453
f 1473 1452 1451
f 1473 1472 1452
f 1474 1451 1450
f 1474 1473 1451
f 1462 1450 1449
f 1462 1474 1450
f 1595 1488 1487
f 1596 1595 1487
f 1575 1482 1576
f 1594 1488 1595
f 1577 1576 1482
f 1597 1596 1487
f 1574 1482 1575
f 1593 1488 1594
f 1578 1577 1482
f 1598 1597 1487
f 1573 1482 1574
f 1592 1488 1593
f 1553 1578 1482
f 1599 1598 1487
f 1572 1483 1482
f 1572 1482 1573
f 1591 1488 1592
f 1600 1599 1487
f 1571 1483 1572
f 1590 1488 1591
f 1601 1487 1486
f 1601 1600 1487
f 1570 1483 1571
f 1589 1488 1590
f 1602 1601 1486
f 1569 1484 1483
f 1569 1483 1570
f 1603 1486 1485
f 1603 1602 1486
f 1568 1485 1484
f 1568 1603 1485
f 1568 1484 1569
f 1481 1553 1482
f 1481 1554 1553
f 1481 1555 1554
f 1481 1556 1555
f 1481 1557 1556
f 1558 1557 1481
f 1567 1603 1568
f 1567 1604 1603
f 1559 1558 1481
f 1579 1604 1567
f 1566 1579 1567
f 1560 1559 1481
f 1489 1584 1583
f 1489 1585 1584
f 1489 1586 1585
f 1489 1587 1586
f 1489 1588 1587
f 1489 1589 1588
f 1489 1488 1589
f 1480 1560 1481
f 1480 1561 1560
f 1480 1562 1561
f 1480 1563 1562
f 1490 1582 1581
f 1490 1583 1582
f 1490 1489 1583
f 1479 1563 1480
f 1479 1564 1563
f 1491 1490 1581
f 1478 1564 1479
f 1524 1493 1492
f 1523 1493 1524
f 1544 1477 1476
f 1544 1543 1477
f 1525 1581 1580
f 1525 1492 1491
f 1525 1491 1581
f 1525 1524 1492
f 1542 1478 1477
f 1542 1564 1478
f 1542 1477 1543
f 1522 1493 1523
f 1545 1544 1476
f 1526 1525 1580
f 1541 1564 1542
f 1541 1565 1564
f 1521 1493 1522
f 1546 1545 1476
f 1501 1580 1579
f 1501 1579 1566
f 1501 1526 1580
f 1540 1565 1541
f 1540 1501 1566
f 1540 1566 1565
f 1547 1546 1476
f 1539 1502 1501
f 1539 1501 1540
f 1548 1547 1476
f 1494 1520 1519
f 1494 1521 1520
f 1494 1493 1521
f 1538 1503 1502
f 1538 1502 1539
f 1518 1494 1519
f 1549 1548 1476
f 1517 1494 1518
f 1550 1549 1476
f 1516 1494 1517
f 1515 1494 1516
f 1514 1494 1515
f 1475 1550 1476
f 1475 1528 1527
f 1475 1529 1528
f 1475 1530 1529
f 1475 1551 1550
f 1475 1552 1551
f 1475 1527 1552
f 1495 1508 1507
f 1495 1509 1508
f 1495 1510 1509
f 1495 1511 1510
f 1495 1512 1511
f 1495 1513 1512
f 1495 1514 1513
f 1495 1494 1514
f 1500 1530 1475
f 1500 1531 1530
f 1500 1532 1531
f 1500 1533 1532
f 1500 1534 1533
f 1500 1535 1534
f 1500 1536 1535
f 1496 1505 1504
f 1496 1506 1505
f 1496 1507 1506
f 1496 1495 1507
f 1499 1537 1536
f 1499 1538 1537
f 1499 1536 1500
f 1497 1504 1503
f 1497 1496 1504
f 1498 1503 1538
f 1498 1497 1503
f 1498 1538 1499
